<?xml version="1.0" encoding="UTF-8" standalone="no"?>
<!-- Created with Inkscape (http://www.inkscape.org/) -->

<svg
   xmlns:dc="http://purl.org/dc/elements/1.1/"
   xmlns:cc="http://creativecommons.org/ns#"
   xmlns:rdf="http://www.w3.org/1999/02/22-rdf-syntax-ns#"
   xmlns:svg="http://www.w3.org/2000/svg"
   xmlns="http://www.w3.org/2000/svg"
   xmlns:sodipodi="http://sodipodi.sourceforge.net/DTD/sodipodi-0.dtd"
   xmlns:inkscape="http://www.inkscape.org/namespaces/inkscape"
   width="191.25594mm"
   height="191.25595mm"
   viewBox="0 0 191.25594 191.25595"
   version="1.1"
   id="svg7887"
   inkscape:version="0.92.4 (5da689c313, 2019-01-14)"
   sodipodi:docname="background_tile.svg">
  <defs
     id="defs7881" />
  <sodipodi:namedview
     id="base"
     pagecolor="#ffffff"
     bordercolor="#666666"
     borderopacity="1.0"
     inkscape:pageopacity="0.0"
     inkscape:pageshadow="2"
     inkscape:zoom="0.49497475"
     inkscape:cx="637.61773"
     inkscape:cy="245.80771"
     inkscape:document-units="mm"
     inkscape:current-layer="layer1"
     showgrid="false"
     inkscape:window-width="1920"
     inkscape:window-height="1001"
     inkscape:window-x="1911"
     inkscape:window-y="-9"
     inkscape:window-maximized="1" />
  <metadata
     id="metadata7884">
    <rdf:RDF>
      <cc:Work
         rdf:about="">
        <dc:format>image/svg+xml</dc:format>
        <dc:type
           rdf:resource="http://purl.org/dc/dcmitype/StillImage" />
        <dc:title></dc:title>
      </cc:Work>
    </rdf:RDF>
  </metadata>
  <g
     inkscape:label="Layer 1"
     inkscape:groupmode="layer"
     id="layer1"
     transform="translate(40.443441,-16.163692)">
    <path
       inkscape:connector-curvature="0"
       id="path7788"
       d="m 70.592619,207.41964 13.96968,-10.527 c 0.27654,-0.20838 0.52525,-0.43959 0.7457,-0.68885 0.22045,-0.24925 0.41259,-0.51648 0.57568,-0.79737 0.16309,-0.28088 0.2976,-0.57522 0.40203,-0.8785 0.10444,-0.30327 0.17878,-0.61531 0.22326,-0.93172 0.0444,-0.31642 0.0586,-0.63726 0.0419,-0.95757 -0.0168,-0.32031 -0.0643,-0.64002 -0.14367,-0.95498 -0.0794,-0.31496 -0.19061,-0.62515 -0.33383,-0.92552 -0.14322,-0.30037 -0.31871,-0.59112 -0.5271,-0.86765 -0.20839,-0.27653 -0.43908,-0.52523 -0.68834,-0.74569 -0.24924,-0.22046 -0.517,-0.41258 -0.79788,-0.57568 -0.28088,-0.16309 -0.57523,-0.29709 -0.87849,-0.40152 -0.30327,-0.10443 -0.61532,-0.17929 -0.93173,-0.22376 -0.31642,-0.0445 -0.63725,-0.0587 -0.95756,-0.0419 -0.32033,0.0168 -0.64002,0.0643 -0.95498,0.14366 -0.31496,0.0794 -0.62516,0.19061 -0.92554,0.33383 -0.30036,0.14322 -0.59111,0.31872 -0.86765,0.5271 l -24.56749,18.51308 z"
       style="opacity:1;vector-effect:none;fill:#282828;fill-opacity:1;stroke:none;stroke-width:0.06407806;stroke-linecap:butt;stroke-linejoin:miter;stroke-miterlimit:4;stroke-dasharray:none;stroke-dashoffset:0;stroke-opacity:1" />
    <rect
       transform="rotate(-37.000001)"
       style="opacity:1;vector-effect:none;fill:#282828;fill-opacity:1;stroke:none;stroke-width:0.03724337;stroke-linecap:butt;stroke-linejoin:miter;stroke-miterlimit:4;stroke-dasharray:none;stroke-dashoffset:0;stroke-opacity:1"
       id="rect7790"
       width="16.143618"
       height="6.0402017"
       x="-42.631599"
       y="100.14162"
       rx="3.0201008" />
    <rect
       rx="5"
       y="135.10651"
       x="-128.51598"
       height="10"
       width="104.77386"
       id="rect7792"
       style="opacity:1;vector-effect:none;fill:#282828;fill-opacity:1;stroke:none;stroke-width:0.12208131;stroke-linecap:butt;stroke-linejoin:miter;stroke-miterlimit:4;stroke-dasharray:none;stroke-dashoffset:0;stroke-opacity:1"
       transform="rotate(-37.000001)" />
    <path
       inkscape:connector-curvature="0"
       id="path7794"
       d="m 150.81249,123.88007 -18.08313,13.62656 c -0.21905,0.16506 -0.41603,0.34827 -0.59066,0.54571 -0.17462,0.19744 -0.3266,0.40899 -0.45579,0.63148 -0.1292,0.2225 -0.23562,0.45586 -0.31833,0.69609 -0.0827,0.24022 -0.14202,0.4873 -0.17724,0.73793 -0.0352,0.25064 -0.0464,0.50489 -0.0331,0.75862 0.0133,0.25372 0.0513,0.50705 0.11419,0.75654 0.0629,0.24948 0.15063,0.49484 0.26408,0.73277 0.11343,0.23792 0.25247,0.46826 0.41754,0.6873 0.16505,0.21904 0.34827,0.41603 0.5457,0.59066 0.19744,0.17463 0.409,0.32711 0.63149,0.4563 0.22248,0.12919 0.45585,0.23509 0.69609,0.31781 0.24021,0.0827 0.48728,0.14203 0.73792,0.17725 0.25064,0.0352 0.50491,0.0464 0.75861,0.0331 0.25374,-0.0133 0.50708,-0.0508 0.75655,-0.11368 0.24948,-0.0629 0.49485,-0.15114 0.73277,-0.26459 0.23794,-0.11344 0.46826,-0.25197 0.68731,-0.41703 l 13.31597,-10.03453 z"
       style="opacity:1;vector-effect:none;fill:#2e2e2e;fill-opacity:1;stroke:none;stroke-width:0.06407806;stroke-linecap:butt;stroke-linejoin:miter;stroke-miterlimit:4;stroke-dasharray:none;stroke-dashoffset:0;stroke-opacity:1" />
    <rect
       rx="3.0201008"
       y="155.73492"
       x="-129.01222"
       height="6.0402017"
       width="16.143618"
       id="rect7796"
       style="opacity:1;vector-effect:none;fill:#242424;fill-opacity:1;stroke:none;stroke-width:0.03724337;stroke-linecap:butt;stroke-linejoin:miter;stroke-miterlimit:4;stroke-dasharray:none;stroke-dashoffset:0;stroke-opacity:1"
       transform="rotate(-37.000001)" />
    <rect
       rx="3.0201008"
       y="5.844089"
       x="-40.512764"
       height="6.0402017"
       width="16.143618"
       id="rect7798"
       style="opacity:1;vector-effect:none;fill:#242424;fill-opacity:1;stroke:none;stroke-width:0.03724337;stroke-linecap:butt;stroke-linejoin:miter;stroke-miterlimit:4;stroke-dasharray:none;stroke-dashoffset:0;stroke-opacity:1"
       transform="rotate(-37.000001)" />
    <rect
       rx="3.0201008"
       y="80.251343"
       x="-59.204292"
       height="6.0402017"
       width="16.143618"
       id="rect7800"
       style="opacity:1;vector-effect:none;fill:#242424;fill-opacity:1;stroke:none;stroke-width:0.03724337;stroke-linecap:butt;stroke-linejoin:miter;stroke-miterlimit:4;stroke-dasharray:none;stroke-dashoffset:0;stroke-opacity:1"
       transform="rotate(-37.000001)" />
    <rect
       style="opacity:1;vector-effect:none;fill:#242424;fill-opacity:1;stroke:none;stroke-width:0.07845268;stroke-linecap:butt;stroke-linejoin:miter;stroke-miterlimit:4;stroke-dasharray:none;stroke-dashoffset:0;stroke-opacity:1"
       id="rect7802"
       width="54.62392"
       height="7.9211311"
       x="-7.5543919"
       y="122.73199"
       rx="3.9605656"
       transform="rotate(-37.000001)" />
    <rect
       transform="rotate(-37.000001)"
       rx="3.9605656"
       y="98.625427"
       x="16.520193"
       height="7.9211311"
       width="54.62392"
       id="rect7804"
       style="opacity:1;vector-effect:none;fill:#282828;fill-opacity:1;stroke:none;stroke-width:0.07845268;stroke-linecap:butt;stroke-linejoin:miter;stroke-miterlimit:4;stroke-dasharray:none;stroke-dashoffset:0;stroke-opacity:1" />
    <rect
       rx="3.0201008"
       y="213.48412"
       x="1.6367435"
       height="6.0402017"
       width="16.143618"
       id="rect7806"
       style="opacity:1;vector-effect:none;fill:#242424;fill-opacity:1;stroke:none;stroke-width:0.03724337;stroke-linecap:butt;stroke-linejoin:miter;stroke-miterlimit:4;stroke-dasharray:none;stroke-dashoffset:0;stroke-opacity:1"
       transform="rotate(-37.000001)" />
    <rect
       transform="rotate(-37.000001)"
       style="opacity:1;vector-effect:none;fill:#2e2e2e;fill-opacity:1;stroke:none;stroke-width:0.03724337;stroke-linecap:butt;stroke-linejoin:miter;stroke-miterlimit:4;stroke-dasharray:none;stroke-dashoffset:0;stroke-opacity:1"
       id="rect7808"
       width="16.143618"
       height="6.0402017"
       x="-25.107643"
       y="222.91061"
       rx="3.0201008" />
    <path
       style="opacity:1;vector-effect:none;fill:#2e2e2e;fill-opacity:1;stroke:none;stroke-width:0.07845268;stroke-linecap:butt;stroke-linejoin:miter;stroke-miterlimit:4;stroke-dasharray:none;stroke-dashoffset:0;stroke-opacity:1"
       d="m -18.670611,108.60301 c -0.88583,-0.0388 -1.79031,0.21966 -2.55695,0.79737 l -19.21588,14.48025 v 9.91826 l 23.98303,-18.0728 c 1.75233,-1.32047 2.09976,-3.7941 0.77928,-5.54643 -0.74276,-0.98569 -1.85055,-1.52675 -2.98948,-1.57665 z"
       id="path7810"
       inkscape:connector-curvature="0" />
    <path
       style="opacity:1;vector-effect:none;fill:#282828;fill-opacity:1;stroke:none;stroke-width:0.12208131;stroke-linecap:butt;stroke-linejoin:miter;stroke-miterlimit:4;stroke-dasharray:none;stroke-dashoffset:0;stroke-opacity:1"
       d="M 53.976119,16.163692 2.8541798,54.686922 c -2.21222899,1.667031 -2.65095099,4.78994 -0.98392,7.002161 1.667021,2.212218 4.78993,2.65095 7.002151,0.983919 L 70.592679,16.163692 Z"
       id="path7812"
       inkscape:connector-curvature="0" />
  </g>
</svg>
