<?xml version="1.0" encoding="UTF-8" standalone="no"?>
<svg
   xmlns:dc="http://purl.org/dc/elements/1.1/"
   xmlns:cc="http://creativecommons.org/ns#"
   xmlns:rdf="http://www.w3.org/1999/02/22-rdf-syntax-ns#"
   xmlns:svg="http://www.w3.org/2000/svg"
   xmlns="http://www.w3.org/2000/svg"
   xmlns:xlink="http://www.w3.org/1999/xlink"
   xmlns:sodipodi="http://sodipodi.sourceforge.net/DTD/sodipodi-0.dtd"
   xmlns:inkscape="http://www.inkscape.org/namespaces/inkscape"
   viewBox="0 0 666.67 666.67"
   version="1.1"
   id="svg602"
   sodipodi:docname="blue_fantasy.svg"
   inkscape:version="0.92.4 (5da689c313, 2019-01-14)">
  <metadata
     id="metadata606">
    <rdf:RDF>
      <cc:Work
         rdf:about="">
        <dc:format>image/svg+xml</dc:format>
        <dc:type
           rdf:resource="http://purl.org/dc/dcmitype/StillImage" />
      </cc:Work>
    </rdf:RDF>
  </metadata>
  <sodipodi:namedview
     pagecolor="#ffffff"
     bordercolor="#666666"
     borderopacity="1"
     objecttolerance="10"
     gridtolerance="10"
     guidetolerance="10"
     inkscape:pageopacity="0"
     inkscape:pageshadow="2"
     inkscape:window-width="1920"
     inkscape:window-height="1001"
     id="namedview604"
     showgrid="false"
     inkscape:zoom="1.0012582"
     inkscape:cx="476.52359"
     inkscape:cy="369.79078"
     inkscape:window-x="-9"
     inkscape:window-y="-9"
     inkscape:window-maximized="1"
     inkscape:current-layer="svg602" />
  <defs
     id="defs348">
    <clipPath
       clipPathUnits="userSpaceOnUse"
       id="q">
      <path
         d="M248.76 326.18h4.1v-1.99h-4.1z"
         id="path2" />
    </clipPath>
    <clipPath
       clipPathUnits="userSpaceOnUse"
       id="r">
      <path
         d="M248.23 305.18h1.91v-8.08h-1.9z"
         id="path5" />
    </clipPath>
    <clipPath
       clipPathUnits="userSpaceOnUse"
       id="s">
      <path
         d="M221.39 266.43h.45v-.49h-.45z"
         id="path8" />
    </clipPath>
    <clipPath
       clipPathUnits="userSpaceOnUse"
       id="t">
      <path
         d="M221.77 267.07h.23v-.25h-.23z"
         id="path11" />
    </clipPath>
    <clipPath
       clipPathUnits="userSpaceOnUse"
       id="u">
      <path
         d="M246.73 321.92h4.3v-1.88h-4.3z"
         id="path14" />
    </clipPath>
    <clipPath
       clipPathUnits="userSpaceOnUse"
       id="v">
      <path
         d="M245.66 314.65h2.47v-1.88h-2.47z"
         id="path17" />
    </clipPath>
    <clipPath
       clipPathUnits="userSpaceOnUse"
       id="w">
      <path
         d="M246.37 338.52h1.2v-6.57h-1.2z"
         id="path20" />
    </clipPath>
    <clipPath
       clipPathUnits="userSpaceOnUse"
       id="x">
      <path
         d="M248.57 338.5h1.2v-6.57h-1.2z"
         id="path23" />
    </clipPath>
    <clipPath
       clipPathUnits="userSpaceOnUse"
       id="y">
      <path
         d="M250.9 338.44h1.18v-6.57h-1.19z"
         id="path26" />
    </clipPath>
    <clipPath
       clipPathUnits="userSpaceOnUse"
       id="z">
      <path
         d="M382.18 275.08h9.03V263.5h-9.03z"
         id="path29" />
    </clipPath>
    <clipPath
       clipPathUnits="userSpaceOnUse"
       id="A">
      <path
         d="M386.66 259.11h10.72v-18.25h-10.72z"
         id="path32" />
    </clipPath>
    <clipPath
       clipPathUnits="userSpaceOnUse"
       id="B">
      <path
         d="M389.63 203.9h18.75V103.67h-18.75z"
         id="path35" />
    </clipPath>
    <clipPath
       clipPathUnits="userSpaceOnUse"
       id="E">
      <path
         d="M245.36 331.09h2.7V279.1h-2.7z"
         id="path38" />
    </clipPath>
    <clipPath
       clipPathUnits="userSpaceOnUse"
       id="F">
      <path
         d="M245.73 331.09l2.34-23.12-.6-28.67-.74-.2v6.91l-1.37.04z"
         id="path41" />
    </clipPath>
    <clipPath
       clipPathUnits="userSpaceOnUse"
       id="I">
      <path
         d="M239.56 279.62h13.63v-19.9h-13.63z"
         id="path44" />
    </clipPath>
    <clipPath
       clipPathUnits="userSpaceOnUse"
       id="J">
      <path
         d="M239.56 279.62l13.63-19.9-.2 6.48-9.85 13.42z"
         id="path47" />
    </clipPath>
    <clipPath
       clipPathUnits="userSpaceOnUse"
       id="M">
      <path
         d="M232.83 280.1h13.63V260.2h-13.63z"
         id="path50" />
    </clipPath>
    <clipPath
       clipPathUnits="userSpaceOnUse"
       id="N">
      <path
         d="M232.83 280.1l13.63-19.9-.21 6.48-9.84 13.42z"
         id="path53" />
    </clipPath>
    <clipPath
       clipPathUnits="userSpaceOnUse"
       id="Q">
      <path
         d="M224.92 238.57h13.12v-19.96h-13.12z"
         id="path56" />
    </clipPath>
    <clipPath
       clipPathUnits="userSpaceOnUse"
       id="R">
      <path
         d="M224.92 238.57l13.12-19.96-.2 6.46-11.23 13.5z"
         id="path59" />
    </clipPath>
    <clipPath
       clipPathUnits="userSpaceOnUse"
       id="U">
      <path
         d="M217.59 268.05h1.97v-36.2h-1.97z"
         id="path62" />
    </clipPath>
    <clipPath
       clipPathUnits="userSpaceOnUse"
       id="V">
      <path
         d="M217.59 268.05l1.97-8.26-.24-27.1-1.52-.83z"
         id="path65" />
    </clipPath>
    <clipPath
       clipPathUnits="userSpaceOnUse"
       id="Y">
      <path
         d="M214.4 307.53h6.42v-31.9h-6.42z"
         id="path68" />
    </clipPath>
    <clipPath
       clipPathUnits="userSpaceOnUse"
       id="Z">
      <path
         d="M214.4 275.62a48.53 48.53 0 005.35 5.04l1.06 26.87s.55-21.07-6.4-31.9"
         id="path71" />
    </clipPath>
    <clipPath
       clipPathUnits="userSpaceOnUse"
       id="ac">
      <path
         d="M276.73 287.06h1.6v-7.88h-1.6z"
         id="path74" />
    </clipPath>
    <clipPath
       clipPathUnits="userSpaceOnUse"
       id="ad">
      <path
         d="M276.73 280.87l1.6-1.7-.4 7.19-.6.7z"
         id="path77" />
    </clipPath>
    <clipPath
       clipPathUnits="userSpaceOnUse"
       id="ag">
      <path
         d="M222.5 223.96h11.3v-20.57h-11.3z"
         id="path80" />
    </clipPath>
    <clipPath
       clipPathUnits="userSpaceOnUse"
       id="ah">
      <path
         d="M222.5 222.26l11.3-18.86-.45 6.24-10.77 14.32z"
         id="path83" />
    </clipPath>
    <clipPath
       clipPathUnits="userSpaceOnUse"
       id="ak">
      <path
         d="M222.58 217.9h9.78v-32.2h-9.78z"
         id="path86" />
    </clipPath>
    <clipPath
       clipPathUnits="userSpaceOnUse"
       id="al">
      <path
         d="M222.78 196.86l7.8-11.16 1.78 15.1-9.78 17.1z"
         id="path89" />
    </clipPath>
    <clipPath
       clipPathUnits="userSpaceOnUse"
       id="ao">
      <path
         d="M278.02 246.8h5.26v-21.16h-5.26z"
         id="path92" />
    </clipPath>
    <clipPath
       clipPathUnits="userSpaceOnUse"
       id="ap">
      <path
         d="M281.44 246.8l1.84-4.4-.37-16.76-4.9 4.28s3.31 11.26 3.43 16.88"
         id="path95" />
    </clipPath>
    <clipPath
       clipPathUnits="userSpaceOnUse"
       id="aw">
      <path
         d="M209.45 160.22h10.04v-8.44h-10.04z"
         id="path98" />
    </clipPath>
    <clipPath
       clipPathUnits="userSpaceOnUse"
       id="ax">
      <path
         d="M209.46 151.78l9.92 8.44.1-4.15z"
         id="path101" />
    </clipPath>
    <linearGradient
       id="o">
      <stop
         offset="0"
         stop-color="#00143e"
         id="stop104" />
      <stop
         offset="1"
         stop-color="#0055d4"
         stop-opacity=".92"
         id="stop106"
         style="stop-color:#0068f9;stop-opacity:0.97058821" />
    </linearGradient>
    <linearGradient
       x1="0"
       y1="0"
       x2="1"
       y2="0"
       gradientUnits="userSpaceOnUse"
       gradientTransform="scale(64.43405 -64.43405) rotate(47.67 6.75 4.39)"
       spreadMethod="pad"
       id="a">
      <stop
         offset="0"
         stop-color="#fff"
         id="stop109" />
      <stop
         offset=".03"
         stop-color="#fff"
         id="stop111" />
      <stop
         offset="1"
         stop-opacity="0"
         stop-color="#fff"
         id="stop113" />
    </linearGradient>
    <linearGradient
       x1="0"
       y1="0"
       x2="1"
       y2="0"
       gradientUnits="userSpaceOnUse"
       gradientTransform="scale(64.43405 -64.43405) rotate(47.67 6.75 4.39)"
       spreadMethod="pad"
       id="D">
      <stop
         offset="0"
         stop-color="#fadc69"
         id="stop116" />
      <stop
         offset=".03"
         stop-color="#fadc69"
         id="stop118" />
      <stop
         offset="1"
         stop-color="#fadc69"
         id="stop120" />
    </linearGradient>
    <linearGradient
       x1="0"
       y1="0"
       x2="1"
       y2="0"
       gradientUnits="userSpaceOnUse"
       gradientTransform="matrix(2.70185 0 0 -2.70185 245.36 305.1)"
       spreadMethod="pad"
       id="b">
      <stop
         offset="0"
         stop-color="#fff"
         id="stop123" />
      <stop
         offset=".03"
         stop-color="#fff"
         id="stop125" />
      <stop
         offset="1"
         stop-opacity="0"
         stop-color="#fff"
         id="stop127" />
    </linearGradient>
    <linearGradient
       x1="0"
       y1="0"
       x2="1"
       y2="0"
       gradientUnits="userSpaceOnUse"
       gradientTransform="matrix(2.70185 0 0 -2.70185 245.36 305.1)"
       spreadMethod="pad"
       id="H">
      <stop
         offset="0"
         stop-color="#fadc69"
         id="stop130" />
      <stop
         offset=".03"
         stop-color="#fadc69"
         id="stop132" />
      <stop
         offset="1"
         stop-color="#fadc69"
         id="stop134" />
    </linearGradient>
    <linearGradient
       x1="0"
       y1="0"
       x2="1"
       y2="0"
       gradientUnits="userSpaceOnUse"
       gradientTransform="matrix(13.63163 0 0 -13.63163 239.56 269.67)"
       spreadMethod="pad"
       id="c">
      <stop
         offset="0"
         stop-color="#fff"
         id="stop137" />
      <stop
         offset=".03"
         stop-color="#fff"
         id="stop139" />
      <stop
         offset="1"
         stop-opacity="0"
         stop-color="#fff"
         id="stop141" />
    </linearGradient>
    <linearGradient
       x1="0"
       y1="0"
       x2="1"
       y2="0"
       gradientUnits="userSpaceOnUse"
       gradientTransform="matrix(13.63163 0 0 -13.63163 239.56 269.67)"
       spreadMethod="pad"
       id="L">
      <stop
         offset="0"
         stop-color="#fadc69"
         id="stop144" />
      <stop
         offset=".03"
         stop-color="#fadc69"
         id="stop146" />
      <stop
         offset="1"
         stop-color="#fadc69"
         id="stop148" />
    </linearGradient>
    <linearGradient
       x1="0"
       y1="0"
       x2="1"
       y2="0"
       gradientUnits="userSpaceOnUse"
       gradientTransform="matrix(13.63163 0 0 -13.63163 232.83 270.15)"
       spreadMethod="pad"
       id="d">
      <stop
         offset="0"
         stop-color="#fff"
         id="stop151" />
      <stop
         offset=".03"
         stop-color="#fff"
         id="stop153" />
      <stop
         offset="1"
         stop-opacity="0"
         stop-color="#fff"
         id="stop155" />
    </linearGradient>
    <linearGradient
       x1="0"
       y1="0"
       x2="1"
       y2="0"
       gradientUnits="userSpaceOnUse"
       gradientTransform="matrix(13.63163 0 0 -13.63163 232.83 270.15)"
       spreadMethod="pad"
       id="P">
      <stop
         offset="0"
         stop-color="#fadc69"
         id="stop158" />
      <stop
         offset=".03"
         stop-color="#fadc69"
         id="stop160" />
      <stop
         offset="1"
         stop-color="#fadc69"
         id="stop162" />
    </linearGradient>
    <linearGradient
       x1="0"
       y1="0"
       x2="1"
       y2="0"
       gradientUnits="userSpaceOnUse"
       gradientTransform="matrix(13.1219 0 0 -13.1219 224.92 228.59)"
       spreadMethod="pad"
       id="e">
      <stop
         offset="0"
         stop-color="#fff"
         id="stop165" />
      <stop
         offset=".03"
         stop-color="#fff"
         id="stop167" />
      <stop
         offset="1"
         stop-opacity="0"
         stop-color="#fff"
         id="stop169" />
    </linearGradient>
    <linearGradient
       x1="0"
       y1="0"
       x2="1"
       y2="0"
       gradientUnits="userSpaceOnUse"
       gradientTransform="matrix(13.1219 0 0 -13.1219 224.92 228.59)"
       spreadMethod="pad"
       id="T">
      <stop
         offset="0"
         stop-color="#fadc69"
         id="stop172" />
      <stop
         offset=".03"
         stop-color="#fadc69"
         id="stop174" />
      <stop
         offset="1"
         stop-color="#fadc69"
         id="stop176" />
    </linearGradient>
    <linearGradient
       x1="0"
       y1="0"
       x2="1"
       y2="0"
       gradientUnits="userSpaceOnUse"
       gradientTransform="matrix(1.9697 0 0 -1.9697 217.59 249.95)"
       spreadMethod="pad"
       id="f">
      <stop
         offset="0"
         stop-color="#fff"
         id="stop179" />
      <stop
         offset=".03"
         stop-color="#fff"
         id="stop181" />
      <stop
         offset="1"
         stop-opacity="0"
         stop-color="#fff"
         id="stop183" />
    </linearGradient>
    <linearGradient
       x1="0"
       y1="0"
       x2="1"
       y2="0"
       gradientUnits="userSpaceOnUse"
       gradientTransform="matrix(1.9697 0 0 -1.9697 217.59 249.95)"
       spreadMethod="pad"
       id="X">
      <stop
         offset="0"
         stop-color="#fadc69"
         id="stop186" />
      <stop
         offset=".03"
         stop-color="#fadc69"
         id="stop188" />
      <stop
         offset="1"
         stop-color="#fadc69"
         id="stop190" />
    </linearGradient>
    <linearGradient
       x1="0"
       y1="0"
       x2="1"
       y2="0"
       gradientUnits="userSpaceOnUse"
       gradientTransform="matrix(6.41995 0 0 -6.41995 214.4 291.58)"
       spreadMethod="pad"
       id="g">
      <stop
         offset="0"
         stop-color="#fff"
         id="stop193" />
      <stop
         offset=".03"
         stop-color="#fff"
         id="stop195" />
      <stop
         offset="1"
         stop-opacity="0"
         stop-color="#fff"
         id="stop197" />
    </linearGradient>
    <linearGradient
       x1="0"
       y1="0"
       x2="1"
       y2="0"
       gradientUnits="userSpaceOnUse"
       gradientTransform="matrix(6.41995 0 0 -6.41995 214.4 291.58)"
       spreadMethod="pad"
       id="ab">
      <stop
         offset="0"
         stop-color="#fadc69"
         id="stop200" />
      <stop
         offset=".03"
         stop-color="#fadc69"
         id="stop202" />
      <stop
         offset="1"
         stop-color="#fadc69"
         id="stop204" />
    </linearGradient>
    <linearGradient
       x1="0"
       y1="0"
       x2="1"
       y2="0"
       gradientUnits="userSpaceOnUse"
       gradientTransform="matrix(1.59555 0 0 -1.59555 276.73 283.12)"
       spreadMethod="pad"
       id="h">
      <stop
         offset="0"
         stop-color="#fff"
         id="stop207" />
      <stop
         offset=".03"
         stop-color="#fff"
         id="stop209" />
      <stop
         offset="1"
         stop-opacity="0"
         stop-color="#fff"
         id="stop211" />
    </linearGradient>
    <linearGradient
       x1="0"
       y1="0"
       x2="1"
       y2="0"
       gradientUnits="userSpaceOnUse"
       gradientTransform="matrix(1.59555 0 0 -1.59555 276.73 283.12)"
       spreadMethod="pad"
       id="af">
      <stop
         offset="0"
         stop-color="#fadc69"
         id="stop214" />
      <stop
         offset=".03"
         stop-color="#fadc69"
         id="stop216" />
      <stop
         offset="1"
         stop-color="#fadc69"
         id="stop218" />
    </linearGradient>
    <linearGradient
       x1="0"
       y1="0"
       x2="1"
       y2="0"
       gradientUnits="userSpaceOnUse"
       gradientTransform="matrix(11.2995 0 0 -11.2995 222.5 213.68)"
       spreadMethod="pad"
       id="i">
      <stop
         offset="0"
         stop-color="#fff"
         id="stop221" />
      <stop
         offset=".03"
         stop-color="#fff"
         id="stop223" />
      <stop
         offset="1"
         stop-opacity="0"
         stop-color="#fff"
         id="stop225" />
    </linearGradient>
    <linearGradient
       x1="0"
       y1="0"
       x2="1"
       y2="0"
       gradientUnits="userSpaceOnUse"
       gradientTransform="matrix(11.2995 0 0 -11.2995 222.5 213.68)"
       spreadMethod="pad"
       id="aj">
      <stop
         offset="0"
         stop-color="#fadc69"
         id="stop228" />
      <stop
         offset=".03"
         stop-color="#fadc69"
         id="stop230" />
      <stop
         offset="1"
         stop-color="#fadc69"
         id="stop232" />
    </linearGradient>
    <linearGradient
       x1="0"
       y1="0"
       x2="1"
       y2="0"
       gradientUnits="userSpaceOnUse"
       gradientTransform="matrix(9.78856 0 0 -9.78856 222.58 201.8)"
       spreadMethod="pad"
       id="j">
      <stop
         offset="0"
         stop-color="#fff"
         id="stop235" />
      <stop
         offset=".03"
         stop-color="#fff"
         id="stop237" />
      <stop
         offset="1"
         stop-opacity="0"
         stop-color="#fff"
         id="stop239" />
    </linearGradient>
    <linearGradient
       x1="0"
       y1="0"
       x2="1"
       y2="0"
       gradientUnits="userSpaceOnUse"
       gradientTransform="matrix(9.78856 0 0 -9.78856 222.58 201.8)"
       spreadMethod="pad"
       id="an">
      <stop
         offset="0"
         stop-color="#fadc69"
         id="stop242" />
      <stop
         offset=".03"
         stop-color="#fadc69"
         id="stop244" />
      <stop
         offset="1"
         stop-color="#fadc69"
         id="stop246" />
    </linearGradient>
    <linearGradient
       x1="0"
       y1="0"
       x2="1"
       y2="0"
       gradientUnits="userSpaceOnUse"
       gradientTransform="matrix(5.26089 0 0 -5.26089 278.02 236.22)"
       spreadMethod="pad"
       id="k">
      <stop
         offset="0"
         stop-color="#fff"
         id="stop249" />
      <stop
         offset=".03"
         stop-color="#fff"
         id="stop251" />
      <stop
         offset="1"
         stop-opacity="0"
         stop-color="#fff"
         id="stop253" />
    </linearGradient>
    <linearGradient
       x1="0"
       y1="0"
       x2="1"
       y2="0"
       gradientUnits="userSpaceOnUse"
       gradientTransform="matrix(5.26089 0 0 -5.26089 278.02 236.22)"
       spreadMethod="pad"
       id="ar">
      <stop
         offset="0"
         stop-color="#fadc69"
         id="stop256" />
      <stop
         offset=".03"
         stop-color="#fadc69"
         id="stop258" />
      <stop
         offset="1"
         stop-color="#fadc69"
         id="stop260" />
    </linearGradient>
    <linearGradient
       x1="0"
       y1="0"
       x2="1"
       y2="0"
       gradientUnits="userSpaceOnUse"
       gradientTransform="matrix(16.58252 0 0 -16.58252 284.06 154.4)"
       spreadMethod="pad"
       id="l">
      <stop
         offset="0"
         stop-color="#fff"
         id="stop263" />
      <stop
         offset=".03"
         stop-color="#fff"
         id="stop265" />
      <stop
         offset="1"
         stop-opacity="0"
         stop-color="#fff"
         id="stop267" />
    </linearGradient>
    <linearGradient
       x1="0"
       y1="0"
       x2="1"
       y2="0"
       gradientUnits="userSpaceOnUse"
       gradientTransform="matrix(16.58252 0 0 -16.58252 284.06 154.4)"
       spreadMethod="pad"
       id="at">
      <stop
         offset="0"
         stop-color="#fadc69"
         id="stop270" />
      <stop
         offset=".03"
         stop-color="#fadc69"
         id="stop272" />
      <stop
         offset="1"
         stop-color="#fadc69"
         id="stop274" />
    </linearGradient>
    <linearGradient
       x1="0"
       y1="0"
       x2="1"
       y2="0"
       gradientUnits="userSpaceOnUse"
       gradientTransform="scale(18.45241 -18.45241) rotate(46.75 17.8 14.12)"
       spreadMethod="pad"
       id="m">
      <stop
         offset="0"
         stop-color="#fff"
         id="stop277" />
      <stop
         offset=".03"
         stop-color="#fff"
         id="stop279" />
      <stop
         offset="1"
         stop-opacity="0"
         stop-color="#fff"
         id="stop281" />
    </linearGradient>
    <linearGradient
       x1="0"
       y1="0"
       x2="1"
       y2="0"
       gradientUnits="userSpaceOnUse"
       gradientTransform="scale(18.45241 -18.45241) rotate(46.75 17.8 14.12)"
       spreadMethod="pad"
       id="av">
      <stop
         offset="0"
         stop-color="#fadc69"
         id="stop284" />
      <stop
         offset=".03"
         stop-color="#fadc69"
         id="stop286" />
      <stop
         offset="1"
         stop-color="#fadc69"
         id="stop288" />
    </linearGradient>
    <linearGradient
       x1="0"
       y1="0"
       x2="1"
       y2="0"
       gradientUnits="userSpaceOnUse"
       gradientTransform="scale(2.6892 -2.6892) rotate(47.67 105.46 61.38)"
       spreadMethod="pad"
       id="n">
      <stop
         offset="0"
         stop-color="#fff"
         id="stop291" />
      <stop
         offset=".03"
         stop-color="#fff"
         id="stop293" />
      <stop
         offset="1"
         stop-opacity="0"
         stop-color="#fff"
         id="stop295" />
    </linearGradient>
    <linearGradient
       x1="0"
       y1="0"
       x2="1"
       y2="0"
       gradientUnits="userSpaceOnUse"
       gradientTransform="scale(2.6892 -2.6892) rotate(47.67 105.46 61.38)"
       spreadMethod="pad"
       id="az">
      <stop
         offset="0"
         stop-color="#fadc69"
         id="stop298" />
      <stop
         offset=".03"
         stop-color="#fadc69"
         id="stop300" />
      <stop
         offset="1"
         stop-color="#fadc69"
         id="stop302" />
    </linearGradient>
    <linearGradient
       xlink:href="#o"
       id="p"
       x1="257.42001"
       y1="499.47"
       x2="261.47314"
       y2="345.10587"
       gradientUnits="userSpaceOnUse" />
    <mask
       maskUnits="userSpaceOnUse"
       x="0"
       y="0"
       width="1"
       height="1"
       id="C">
      <path
         d="M-32768 32767h65535v-65535h-65535z"
         fill="url(#a)"
         id="path306" />
    </mask>
    <mask
       maskUnits="userSpaceOnUse"
       x="0"
       y="0"
       width="1"
       height="1"
       id="G">
      <path
         d="M-32768 32767h65535v-65535h-65535z"
         fill="url(#b)"
         id="path309" />
    </mask>
    <mask
       maskUnits="userSpaceOnUse"
       x="0"
       y="0"
       width="1"
       height="1"
       id="K">
      <path
         d="M-32768 32767h65535v-65535h-65535z"
         fill="url(#c)"
         id="path312" />
    </mask>
    <mask
       maskUnits="userSpaceOnUse"
       x="0"
       y="0"
       width="1"
       height="1"
       id="O">
      <path
         d="M-32768 32767h65535v-65535h-65535z"
         fill="url(#d)"
         id="path315" />
    </mask>
    <mask
       maskUnits="userSpaceOnUse"
       x="0"
       y="0"
       width="1"
       height="1"
       id="S">
      <path
         d="M-32768 32767h65535v-65535h-65535z"
         fill="url(#e)"
         id="path318" />
    </mask>
    <mask
       maskUnits="userSpaceOnUse"
       x="0"
       y="0"
       width="1"
       height="1"
       id="W">
      <path
         d="M-32768 32767h65535v-65535h-65535z"
         fill="url(#f)"
         id="path321" />
    </mask>
    <mask
       maskUnits="userSpaceOnUse"
       x="0"
       y="0"
       width="1"
       height="1"
       id="aa">
      <path
         d="M-32768 32767h65535v-65535h-65535z"
         fill="url(#g)"
         id="path324" />
    </mask>
    <mask
       maskUnits="userSpaceOnUse"
       x="0"
       y="0"
       width="1"
       height="1"
       id="ae">
      <path
         d="M-32768 32767h65535v-65535h-65535z"
         fill="url(#h)"
         id="path327" />
    </mask>
    <mask
       maskUnits="userSpaceOnUse"
       x="0"
       y="0"
       width="1"
       height="1"
       id="ai">
      <path
         d="M-32768 32767h65535v-65535h-65535z"
         fill="url(#i)"
         id="path330" />
    </mask>
    <mask
       maskUnits="userSpaceOnUse"
       x="0"
       y="0"
       width="1"
       height="1"
       id="am">
      <path
         d="M-32768 32767h65535v-65535h-65535z"
         fill="url(#j)"
         id="path333" />
    </mask>
    <mask
       maskUnits="userSpaceOnUse"
       x="0"
       y="0"
       width="1"
       height="1"
       id="aq">
      <path
         d="M-32768 32767h65535v-65535h-65535z"
         fill="url(#k)"
         id="path336" />
    </mask>
    <mask
       maskUnits="userSpaceOnUse"
       x="0"
       y="0"
       width="1"
       height="1"
       id="as">
      <path
         d="M-32768 32767h65535v-65535h-65535z"
         fill="url(#l)"
         id="path339" />
    </mask>
    <mask
       maskUnits="userSpaceOnUse"
       x="0"
       y="0"
       width="1"
       height="1"
       id="au">
      <path
         d="M-32768 32767h65535v-65535h-65535z"
         fill="url(#m)"
         id="path342" />
    </mask>
    <mask
       maskUnits="userSpaceOnUse"
       x="0"
       y="0"
       width="1"
       height="1"
       id="ay">
      <path
         d="M-32768 32767h65535v-65535h-65535z"
         fill="url(#n)"
         id="path345" />
    </mask>
  </defs>
  <path
     d="M0 0h500v500H0z"
     fill="url(#p)"
     transform="matrix(1.33333 0 0 -1.33333 0 666.67)"
     id="path350"
     style="fill:url(#p)" />
  <path
     d="M620.39 326.67l-24.2 43.57-1.22 39.93-13.3 12.1-32.69 16.95-7.26 30.26L510.26 484l-23-24.2-35.1 18.15-2.42 24.2-30.25 20.58 19.36 59.3 227.82-26.92V324.13l-18.44-2.3zM-5.24 363.34l7.46-39.16 33.57-50.35 54.08-16.79 39.16 33.57 13.06 74.6 7.46 42.89c16.78 3.73 33.57 3.73 33.57 3.73 13.05 1.86 16.78 9.32 16.78 9.32 5.6 31.7 18.65 48.49 18.65 48.49l27.97-14.92c16.78 7.46 24.24 16.78 24.24 16.78a246.4 246.4 0 015.6 24.25c5.6 7.45 18.65 22.37 18.65 22.37l-162.25 18.65-143.59-44.76z"
     fill="#04a"
     id="path352" />
  <path
     d="M-16.49 372.88l42.62-31 67.8 34.88-13.56 44.55 23.25 36.81 31-7.75 29.06 31 34.87-5.81 31 9.68L258.6 493l44.2.14 52.66 38.6c9.69 23.25 5.82 38.75 5.82 38.75-1.94 21.31-387.45 0-387.45 0 5.8 0 7.75-195.66 9.68-197.6"
     fill="#003380"
     id="path354" />
  <path
     d="M328.2 185.01c-60.57 0-110.23 46.66-115.03 106 2.3-.04 4.67-.06 7.1-.06 21.44 0 38.82 1.42 38.82 3.17s-17.38 3.17-38.81 3.17c-2.55 0-5.04-.02-7.45-.06a117.51 117.51 0 00-.02 5.65c13.95.48 23.74 1.6 23.74 2.92 0 1.3-9.67 2.43-23.47 2.92 4.25 59.88 54.16 107.14 115.12 107.14 46.43 0 86.45-27.42 104.77-66.95-16.48-.36-28.66-1.58-28.66-3.04 0-1.54 13.47-2.82 31.3-3.11a115.7 115.7 0 005.41-66.71c-12.33-.53-20.85-1.58-20.85-2.8 0-1.17 7.91-2.18 19.53-2.73a114.76 114.76 0 00-4.47-13.36c-2.57.04-5.23.07-7.96.07-21.44 0-38.81-1.42-38.81-3.18 0-1.75 17.37-3.17 38.81-3.17 1.79 0 3.5.03 5.22.05A115.43 115.43 0 00328.2 185z"
     fill="#ffe680"
     id="path356" />
  <path
     d="M300.66 364.19l-.45 23.25-1.21-3.92.65-19.16-.62.2-.21 4.1-.7-.55.21-3.61c-.9-.08-.55-.35-.55-.35l-.2 4.3 1.1.97-.28 7.99-.34 6.11.76 4.44 1.25.7-2.15 47.5 2.22-.08.62-21.59 2.78-1.67 1.46-6.6-2.01 5.9-2.02.77.9-31.45 1.95-2.02 1.39-2.91-.35-.21-.55 1.18.2-3.75 2.3-1.67 1.04-2.7-.7.06-.83 2.23-1.67 1.18.35-3.06 1.04-.76-.07-3.13-.41-.14.07 2.78-.56.35-.14-3.2c-.35 0-.42-.27-.42-.27l-.76 12.64-.42.9-1.39 1.18v-5.14l-.27-7.85 1.73-1.46.07-2.7-.76.07.2 2.22-1.24.97.07-2.78zM285.9 368.38l.49 1.46.9.35.49 4.72 1.46 1.53.07 4.58 2.57 9.44-1.05-.2-2.63-3.9.2-1.66.56-1.25-.2-2.64-.08 2.22-.62 1.05-.14-2.85-.42-.97.28 5.48-.9-.9-.63-5.42-.55-.41.55 3.6-1.18-1.24-.41-2.57-.08 2.57 1.6 2.08.49 2.08 4.03 5.56 1.8.9 3.33 14.3-.34 6.46-1.46-4.65.41 3.61.9 2.22-.2 3.4.56 3.69-2.02 14.5 2.85.56.97-12.29-.48-8.4.48-9.44-2.85-9.86.7-.56.28-7.64-.42 3.34-.35-.21-.48-3.33-.35.14.49 3.81.69.28-.28 3.27-.55.34-3.9-14.65v-1.1l.84-.22 1.53-6.94-.56-.56-.76 3.47.07-8.47-.83-.07.48 10-.2 1.95-.9.14-.36-11.8-.76.06.14 7.99-.83-.98-.35-4.3-1.25-1.11.07-.9z"
     fill="#3771c8"
     id="path358" />
  <path
     d="M300.64 350.6l-5.02-1.64-2.05 1.94v4l-1.22 3.07-5.84-1.54-3.58 5.63-1.13 1.23 2.77 2.05 4.2.61-5.02.2-1.44 1.54-3.17 2.05 6.14.61 9.01-3.07 4.1 1.33 2.27-4.42 3.97 2.68 1.94-.71.52-3.9 2.96-.4-3.68-6.04z"
     fill="#acf"
     id="path360" />
  <path
     d="M310.46 363.29l-2.35-.1-1.23 3.48-.3 3.89c1.74-.2 2.14-.51 2.14-.51l2.77-4zM299.2 371.48l-6.55-2.87-6.86 2.67 5.74 1.43.61 2.66 3.17-.2 2.26 1.33 2.45-1.74zM281.6 374.76l.71 4.3-.1 2.56 2.66.71 3.38-.1 1.33 1.23-1.53-7.37-2.97-.41-2.97-1.95-.92.92"
     fill="#acf"
     id="path362" />
  <path
     d="M309.8 363.05c.14.7.32 1.4.55 2.08a2.04 2.04 0 002.46 1.4c1-.28 1.73-1.43 1.4-2.46-.23-.69-.41-1.38-.56-2.08-.22-1.06-1.47-1.67-2.46-1.4-1.1.3-1.62 1.4-1.4 2.46M284.34 359.37l.83-1.1c.65-.87.14-2.25-.72-2.75-1.02-.6-2.08-.14-2.73.72l-.84 1.11c-.64.87-.13 2.24.72 2.74 1.02.6 2.09.15 2.74-.72M293.62 354.06v-1.52c0-1.05-.92-2.05-2-2-1.08.05-2 .88-2 2v1.52c0 1.05.92 2.05 2 2 1.09-.05 2-.88 2-2M301.99 351.6c.66.68 1.35 1.32 2.08 1.94.82.7 2.02.8 2.83 0 .71-.72.82-2.13 0-2.83a28.34 28.34 0 01-2.08-1.94 2.03 2.03 0 00-2.83 0 2.03 2.03 0 000 2.83"
     fill="#acf"
     id="path364" />
  <path
     d="M360.94 274.5v78.32h-23.7l-.18-78.55s24.48-.38 23.88.22"
     fill="#80b3ff"
     id="path366" />
  <path
     d="M326 212.03v13.19h1.64v76.47h9.4v-76.25h1.43l-.04-13.32s-12.12.25-12.42-.09"
     fill="#acf"
     id="path368" />
  <path
     d="M305.42 288.38v63.46h31.74v-64.82h-4.1v7.5h-4.1v-9.2h-4.77v8.52h-4.78v-9.2h-5.11v8.52h-3.76v-8.87s-5.46 3.75-5.12 4.1"
     fill="#9fc5ff"
     id="path370" />
  <path
     d="M275.3 574.13l3.97-109.84 13.24-11.25v-17.2l5.95-3.31-1.98-11.91 22.5-20.51 1.32 24.48 17.86 1.98 4.63 7.94 17.2 5.3 13.9 3.97 2.65 17.86 11.9 6.62 2-11.91 29.77 25.14 1.32 63.52 9.66 4.9-7.67 74.5-.65 53.67-172.38-.87 5.62-90.5z"
     fill="#025"
     id="path372" />
  <path
     d="M389.47 146.38l1.19-2.58 2.18 1.39 6.35-1.59s16.86 6.35 26.78 6.55l10.91 7.74s10.12-5.16 15.48.2c5.35 5.35 20.23 4.76 20.23 4.76s7.74.59 7.74 6.74 7.73 10.51 7.73 10.51l6.75-.4-2.78-.98c1.79-.8-.99-2.19-.99-2.19s-6.94-2.18-4.76-6.74c2.18-4.56 26.58 22.02 44.04 22.42 17.46.4 25.8-1 48.01-8.73 22.22-7.74 40.27 4.56 40.27 4.56s13.1 1.39 17.66-1.98l-6.55-3.38s-3.57-.79-10.11 2.98c0 0-15.88-7.34-25.4-8.33-9.52-1-35.11 10.12-60.9 5.95 0 0-15.68-5.36-19.25-8.93l5.36-.6-8.33-2.57 5.95-1.39-10.71-3.77 4.96-1.79-10.52-2.58 6.15-2.18-12.3-2.38 5.95-2.38-11.1-2.18 5.75-2.98-10.91-.4s3.17-43.64 29.95-47.21c26.79-3.57 35.12 9.72 35.12 9.72s-18.65-29.56-9.92-37.1c8.73-7.54 22.81-1.19 22.81-1.19s-8.73-14.48-43.64-18.84c0 0-2.38-3.77 9.12-1.4 0 0-1.39-5.55-23.8-2.97-22.42 2.58-6.95-6.55.4-5.16 0 0-18.06-1.58-25.2 8.14-7.14 9.72-15.08 24.8-20.24 23.4 0 0-2.58-1.58 2.18-4.56 0 0-6.14-1.78-7.14 8.14-.99 9.92.8 28.57.8 28.57s3.17-.6.2 6.34c-2.98 6.95-.8 0-.8 0S443.43 83.7 425.18 83.5c0 0-13.5-6.15-15.08-9.92l-6.94.2s-10.12-8.53-31.75-7.74l-8.92.6-7.15 3.97s27.18-4.17 29.56 3.37c0 0 4.17-1.59 9.72 5.16 5.56 6.74 12.9 13.88 12.9 13.88s-1.39 2.38-4.76-.8c-3.37-3.16.8 4.77 7.14 5.17 0 0 12.9 18.25 19.24 18.25 0 0-.2 16.27-7.14 22.22h-2.78l3.78-4.17-7.74 3.57 1.98-3.96-6.15 1.58s1.2-4.36 10.91-8.33l5.56-4.17-5.56 1.99-6.74 1.78-5.95 4.77-1.4-2.39 9.33-5.75 6.94-2.18-7.14.8-5.55 1.38-4.96 3.77-5.75 4.96-4.17.8-10.06 9.8-2.07-2.6.31 4.26z"
     fill="#d5e5ff"
     id="path374" />
  <path
     d="M521.74 301.92l-12.17-2.03-8.11 7.1 2.03 19.26-8.11 6.08v83.14l-9.13 5.07-1.01 55.76-8.11 4.05-4.06 71.99 25.35 64.88 41.57-3.04 24.33-54.75-35.49-55.76 3.04-106.45-4.05-5.07 2.03-46.64-5.07-6.08-1.02-18.25-5.07-7.1z"
     fill="#003380"
     id="path376" />
  <path
     d="M522.45 273.2h202.62l-79.28-7.72-6.61-15.41-12.12-11.02-16.51-1.1-19.83-20.92-19.82-13.22c-9.91 5.51-15.42 12.12-15.42 12.12l-3.3 28.63c-12.11 6.6-24.23 2.2-24.23 2.2l-17.62 6.6-14.31 11.02-23.13 7.71zM-23.84 119.55H178.8l-79.29-7.7-6.6-15.43-12.12-11-16.52-1.1-19.82-20.93-19.82-13.22C14.7 55.67 9.2 62.3 9.2 62.3L5.9 90.92c-12.12 6.6-24.23 2.2-24.23 2.2l-17.62 6.6-14.31 11.02-23.13 7.7z"
     fill="#acf"
     id="path378" />
  <path
     d="M289 300.83l-.08 8.42 1.2.02.55 50.11 6.33 4.65v-54.52h2.42v-8.75zM295 238.32s1.48 45.78-9.13 60.85h17.68s-8.56-5.21-8.56-60.85"
     fill="#80b3ff"
     id="path380" />
  <path
     d="M370.04 268.63s1.07 32.97-6.57 43.82h12.73s-6.16-3.75-6.16-43.82"
     fill="#5f8dd3"
     id="path382" />
  <path
     d="M332.43 91.35s2.82 86.65-17.26 115.18h33.46s-16.2-9.86-16.2-115.18"
     fill="#acf"
     id="path384" />
  <path
     d="M296.17 339.9h3.89v8.58h2.04v-9h4.9v8.39h3.07v-8.8h3.27v9h2.86v-9.2h2.66v8.59h3.67v-8.8h4.3v8.6h2.24v-8.8h4.1v81.75h-35.98s-.71-80.62-1.02-80.31"
     fill="#80b3ff"
     id="path386" />
  <path
     d="M370.24 345.86l2.45-8.17 2.04-.2v-23.1h-9.2v30.25h-2.44v-5.52h-3.48v5.92h-4.9v-6.54h-3.48v6.75H349v-6.13h-4.5v6.54h-3.68v-6.95h-3.88v88.07h34.13s-.52-80.61-.82-80.92"
     fill="#5f8dd3"
     id="path388" />
  <path
     d="M409.59 379.67l-.6 30.33-1.57-5.12.86-25-.82.28-.27 5.34-.9-.72.27-4.7c-1.18-.1-.73-.46-.73-.46l-.27 5.61 1.45 1.27-.36 10.42-.46 7.96 1 5.8 1.63.9-2.8 61.95 2.89-.09.82-28.17 3.62-2.17 1.9-8.6-2.63 7.7-2.62 1 1.17-41.03 2.54-2.63 1.81-3.8-.45-.27-.73 1.54.28-4.9 2.98-2.17 1.36-3.53-.9.09-1.09 2.9-2.17 1.54.45-3.99 1.36-1-.1-4.07-.54-.18.1 3.62-.73.46-.18-4.17c-.45 0-.54-.36-.54-.36l-1 16.48-.54 1.18-1.82 1.54v-6.7l-.36-10.24 2.27-1.9.09-3.53-1 .09.27 2.9-1.63 1.26.1-3.62zM390.35 385.14l.63 1.9 1.18.46.63 6.16 1.9 1.99.1 5.97 3.34 12.32-1.36-.27-3.44-5.07.27-2.18.73-1.63-.27-3.44-.1 2.9-.8 1.36-.19-3.71-.54-1.27.36 7.15-1.18-1.17-.81-7.07-.73-.54.73 4.7-1.54-1.62-.55-3.35-.09 3.35 2.09 2.71.63 2.72 5.25 7.25 2.36 1.17 4.34 18.66-.45 8.42-1.9-6.07.54 4.71 1.18 2.9-.27 4.44.72 4.8-2.62 18.93 3.71.72 1.27-16.03-.64-10.96.64-12.31-3.71-12.86.9-.73.36-9.96-.54 4.35-.45-.27-.64-4.35-.45.18.63 4.98.91.36-.36 4.26-.73.45-5.07-19.1V400l1.09-.28 2-9.05-.73-.73-1 4.53.09-11.05-1.09-.09.64 13.04-.27 2.54-1.18.18-.45-15.4-1 .1.18 10.4-1.09-1.26-.45-5.61-1.63-1.45.1-1.18z"
     fill="#3771c8"
     id="path390" />
  <path
     d="M409.56 361.95l-6.54-2.14-2.67 2.54v5.2l-1.6 4-7.62-2-4.67 7.35-1.47 1.6 3.6 2.67 5.48.8-6.54.27-1.87 2-4.14 2.67 8.01.8 11.75-4 5.34 1.73 2.97-5.77 5.18 3.5 2.53-.93.67-5.07 3.87-.54-4.8-7.88z"
     fill="#acf"
     id="path392" />
  <path
     d="M422.38 378.5l-3.08-.13-1.6 4.54-.4 5.07c2.27-.27 2.8-.67 2.8-.67l3.61-5.2zM407.69 389.18l-8.55-3.74-8.94 3.47 7.48 1.87.8 3.48 4.14-.27 2.93 1.73 3.2-2.27zM384.73 393.45l.93 5.61-.13 3.34 3.47.93 4.4-.13 1.74 1.6-2-9.61-3.88-.54-3.87-2.53-1.2 1.2"
     fill="#acf"
     id="path394" />
  <path
     d="M422.08 378.02c.2.92.43 1.82.73 2.72a2.04 2.04 0 002.46 1.4c1-.28 1.73-1.44 1.4-2.47-.3-.89-.54-1.79-.73-2.7-.22-1.07-1.47-1.68-2.46-1.4-1.1.3-1.62 1.4-1.4 2.45M387.78 373.08l1.08-1.45c.65-.86.14-2.23-.72-2.73-1.02-.6-2.08-.15-2.73.71l-1.09 1.45c-.65.87-.14 2.24.72 2.74 1.02.6 2.09.15 2.74-.72M399.8 366.47v-2c0-1.04-.92-2.04-2-2-1.08.06-2 .89-2 2v2c0 1.04.92 2.04 2 2 1.08-.05 2-.88 2-2M411.75 362.82c.86.89 1.77 1.73 2.71 2.53.83.7 2.02.8 2.83 0 .72-.71.83-2.13 0-2.83-.95-.8-1.85-1.64-2.71-2.53a2.03 2.03 0 00-2.83 0 2.03 2.03 0 000 2.83"
     fill="#acf"
     id="path396" />
  <path
     d="M315.17 206.53l10.84 5.64 12.36.09 10.26-5.73z"
     fill="#80b3ff"
     id="path398" />
  <g
     clip-path="url(#q)"
     opacity=".28"
     transform="matrix(1.33333 0 0 -1.33333 0 666.67)"
     id="g402">
    <path
       d="M248.76 325.83v-1.64h4.1v1.99s-3.98-.24-4.1-.35"
       fill="#80b3ff"
       id="path400" />
  </g>
  <path
     d="M337.22 238.92l29.74 35.57-30.01.12.27-35.69M332.04 346.04l4.97-.08 2.26 74.67h-12.53s4.55-75.34 5.3-74.59"
     fill="#80b3ff"
     id="path404" />
  <path
     d="M332.66 377.12v50.68l40.82 21.61-.76-71.68s-40.36-.92-40.06-.61"
     fill="#3771c8"
     id="path406" />
  <g
     clip-path="url(#r)"
     opacity=".65"
     transform="matrix(1.33333 0 0 -1.33333 0 666.67)"
     id="g410">
    <path
       d="M250.14 297.1h-1.9v7.14c0 .52.41.94.93.94h.04c.51 0 .93-.42.93-.94z"
       fill="#80b3ff"
       id="path408" />
  </g>
  <path
     d="M292.88 308.1h-1.58v-5.24c0-.43.35-.77.78-.77h.03c.43 0 .77.34.77.77zM295.1 308.06h-1.59v-5.23c0-.43.35-.78.78-.78h.03c.43 0 .78.35.78.78zM297.3 308.06h-1.58v-5.23c0-.43.35-.78.78-.78h.03c.43 0 .78.35.78.78zM285.87 299.17l3.13 1.66 10.42-.07 4.13-1.59z"
     fill="#9fc5ff"
     id="path412" />
  <g
     clip-path="url(#s)"
     opacity=".25"
     transform="matrix(1.33333 0 0 -1.33333 0 666.67)"
     id="g416">
    <path
       d="M221.61 265.94c-.12 0-.22.14-.22.27a.23.23 0 10.45 0c0-.13-.1-.27-.23-.27"
       fill="#6b462d"
       id="path414" />
  </g>
  <g
     clip-path="url(#t)"
     opacity=".25"
     transform="matrix(1.33333 0 0 -1.33333 0 666.67)"
     id="g420">
    <path
       d="M221.88 266.82c-.06 0-.1.07-.1.13s.04.12.1.12c.07 0 .12-.06.12-.12s-.05-.13-.12-.13"
       fill="#6b462d"
       id="path418" />
  </g>
  <g
     clip-path="url(#u)"
     opacity=".28"
     transform="matrix(1.33333 0 0 -1.33333 0 666.67)"
     id="g424">
    <path
       d="M251.03 320.04h-4.3v1.88h4.3z"
       fill="#80b3ff"
       id="path422" />
  </g>
  <g
     clip-path="url(#v)"
     opacity=".28"
     transform="matrix(1.33333 0 0 -1.33333 0 666.67)"
     id="g428">
    <path
       d="M248.13 312.77h-2.47v1.88h2.47z"
       fill="#80b3ff"
       id="path426" />
  </g>
  <g
     clip-path="url(#w)"
     opacity=".65"
     transform="matrix(1.33333 0 0 -1.33333 0 666.67)"
     id="g432">
    <path
       d="M247.56 331.95h-1.19v5.98c0 .33.26.59.59.59h.02c.32 0 .58-.26.58-.59z"
       fill="#80b3ff"
       id="path430" />
  </g>
  <g
     clip-path="url(#x)"
     opacity=".65"
     transform="matrix(1.33333 0 0 -1.33333 0 666.67)"
     id="g436">
    <path
       d="M249.76 331.93h-1.19v5.99c0 .32.27.58.59.58h.02c.32 0 .58-.26.58-.58z"
       fill="#80b3ff"
       id="path434" />
  </g>
  <g
     clip-path="url(#y)"
     opacity=".65"
     transform="matrix(1.33333 0 0 -1.33333 0 666.67)"
     id="g440">
    <path
       d="M252.08 331.87h-1.19v5.99c0 .32.27.58.59.58h.02c.32 0 .58-.26.58-.58z"
       fill="#80b3ff"
       id="path438" />
  </g>
  <path
     d="M294.34 320.06h-4.3v-2.58h4.3z"
     fill="#9fc5ff"
     id="path442" />
  <path
     d="M309.95 307.94h-4.3v-2.58h4.3zM326.16 313.82h-6.93v-2.58h6.93z"
     fill="#80b3ff"
     id="path444" />
  <path
     d="M309.44 368.8h-6.93v-2.57h6.93zM315.65 363.29h-6.93v-2.58h6.93zM303.9 399.45h-6.93v-2.58h6.93z"
     fill="#3771c8"
     id="path446" />
  <path
     d="M317.5 328.53h-6.93v-2.58h6.92zM339.66 322.68h-6.92v-2.57h6.92z"
     fill="#80b3ff"
     id="path448" />
  <path
     d="M329.82 316.9h-6.93v-2.57h6.93z"
     fill="#acf"
     id="path450" />
  <path
     d="M314.3 372.79h-6.93v-2.58h6.92zM297 327.45h-2.41v-2.58H297z"
     fill="#9fc5ff"
     id="path452" />
  <path
     d="M363.47 312.45l2.07 1.94h9.2l1.46-1.94z"
     fill="#3771c8"
     id="path454" />
  <path
     d="M376.74 304.97s1.48 45.78-9.12 60.85h17.68s-8.56-5.2-8.56-60.85M370.37 369.18V473.8l10.63 5.52-2.45-95.44 4.29-4.3-.41-10h-4.7v-1.84s-6.74 1.43-7.36 1.43"
     fill="#3771c8"
     id="path456" />
  <path
     d="M367.62 365.82l2.75 3.36 12.06.4 2.87-3.76z"
     fill="#874315"
     id="path458" />
  <path
     d="M287.2 245.2s-4.17-.37-2.77 2.6c1.39 2.96 2.4 6.67-3.34 8.16-5.75 1.48-13.35-3.9-16.5-.1 0 0 .09-3.52 7.32-2.22 7.23 1.3 12.7.1 11.5-2.97-1.21-3.06-1.4-3.9-1.4-3.9s1.33-6.56 5.2-1.57"
     fill="#d86d25"
     id="path460" />
  <path
     d="M295.95 240.77l-.71 5.42s-13.23-3.3-13.04 1.05c0 0-5.7-7.2 13.75-6.47"
     fill="#f2853b"
     id="path462" />
  <path
     d="M318.07 99.7s-7.03-.63-4.69 4.37c2.35 5 4.07 11.25-5.62 13.75-9.69 2.5-22.5-6.56-27.81-.15 0 0 .16-5.94 12.34-3.75 12.19 2.18 21.4.15 19.38-5-2.04-5.16-2.35-6.57-2.35-6.57s2.24-11.06 8.75-2.65"
     fill="#d86d25"
     id="path464" />
  <path
     d="M332.8 92.23l-1.2 9.13s-22.28-5.57-21.97 1.78c0 0-9.6-12.12 23.17-10.9"
     fill="#f2853b"
     id="path466" />
  <path
     d="M360.94 274.64l-24-.03.42 2.8h23.5zM346.54 296.84h-4.81V282.7c0-1.3 1.06-2.36 2.36-2.36h.09c1.3 0 2.36 1.06 2.36 2.36zM356.5 296.5h-4.8v-14.14c0-1.3 1.05-2.36 2.35-2.36h.1c1.3 0 2.36 1.05 2.36 2.36zM298.46 432.53l36.9 17.34 2 18.75 33.5 14.76 10.37 17.55-65.41 74.59 39.09 30.71-67.55 58.43 102.04 2.83 33.71-44.5-77.77-53.85-1.2-12.77 76.07-74.88-29.78-25.14-58.1-36.85h-35.84z"
     fill="#3771c8"
     id="path468" />
  <path
     d="M306.81 419.8l4.32-7.55 6.74-2.43 1.88-4.58 7.29.54 5.66 7.28-.8 8.1zM332.32 419.5l43.5 2.21-9.83 22.84z"
     fill="#3771c8"
     id="path470" />
  <path
     d="M366.55 441.53l-18.38-9.04.08-7.5a9.15 9.15 0 0118.3 0z"
     fill="#214478"
     id="path472" />
  <path
     d="M379.57 449.93l-46.4-29.72 32.52 29.1zM347.77 405.18h-4.9v-16.8a2.4 2.4 0 012.4-2.4h.1a2.4 2.4 0 012.4 2.4zM359.92 404.98h-4.9v-16.8a2.4 2.4 0 012.4-2.4h.1a2.4 2.4 0 012.4 2.4zM371.88 405.96h-4.9v-16.8a2.4 2.4 0 012.4-2.4h.1a2.4 2.4 0 012.4 2.4z"
     fill="#214478"
     id="path474" />
  <g
     clip-path="url(#z)"
     opacity=".43"
     transform="matrix(1.33333 0 0 -1.33333 0 666.67)"
     id="g478">
    <path
       d="M391.21 273.56l-9.03 1.52 1.58-11.58 5.26.94z"
       fill="#80b3ff"
       id="path476" />
  </g>
  <g
     clip-path="url(#A)"
     opacity=".43"
     transform="matrix(1.33333 0 0 -1.33333 0 666.67)"
     id="g482">
    <path
       d="M392.82 259.11l-6.16-2.15 1.97-11.42 8.75-4.68-3.76 4.32z"
       fill="#80b3ff"
       id="path480" />
  </g>
  <g
     clip-path="url(#B)"
     opacity=".43"
     transform="matrix(1.33333 0 0 -1.33333 0 666.67)"
     id="g486">
    <path
       d="M398.9 202.09l-5.38 1.82-3.9-83.4 18.76-16.85-11.76 18.59z"
       fill="#80b3ff"
       id="path484" />
  </g>
  <g
     mask="url(#C)"
     transform="matrix(1.33333 0 0 -1.33333 0 666.67)"
     id="g490">
    <path
       d="M376.1 269.76l1.52-14.45-6.09-4.56V188.4l-6.84-3.8-.76-41.82 2.43 40.58 6.44 4.49.2 62.32 6.45 5.66-1.96 13.09.78 3.13z"
       fill="url(#D)"
       id="path488" />
  </g>
  <path
     d="M315.17 206.53s9.5-13.89 12.57-39.61c0 0-3.26 35.07-12.57 39.61"
     fill="#acf"
     id="path492" />
  <g
     clip-path="url(#E)"
     opacity=".25"
     transform="matrix(1.33333 0 0 -1.33333 0 666.67)"
     id="g500">
    <g
       clip-path="url(#F)"
       id="g498">
      <g
         mask="url(#G)"
         id="g496">
        <path
           d="M245.73 331.09l2.34-23.12-.6-28.67-.74-.2v6.91l-1.37.04z"
           fill="url(#H)"
           id="path494" />
      </g>
    </g>
  </g>
  <g
     clip-path="url(#I)"
     opacity=".25"
     transform="matrix(1.33333 0 0 -1.33333 0 666.67)"
     id="g508">
    <g
       clip-path="url(#J)"
       id="g506">
      <g
         mask="url(#K)"
         id="g504">
        <path
           d="M239.56 279.62l13.63-19.9-.2 6.48-9.85 13.42z"
           fill="url(#L)"
           id="path502" />
      </g>
    </g>
  </g>
  <g
     clip-path="url(#M)"
     opacity=".25"
     transform="matrix(1.33333 0 0 -1.33333 0 666.67)"
     id="g516">
    <g
       clip-path="url(#N)"
       id="g514">
      <g
         mask="url(#O)"
         id="g512">
        <path
           d="M232.83 280.1l13.63-19.9-.21 6.48-9.84 13.42z"
           fill="url(#P)"
           id="path510" />
      </g>
    </g>
  </g>
  <g
     clip-path="url(#Q)"
     opacity=".25"
     transform="matrix(1.33333 0 0 -1.33333 0 666.67)"
     id="g524">
    <g
       clip-path="url(#R)"
       id="g522">
      <g
         mask="url(#S)"
         id="g520">
        <path
           d="M224.92 238.57l13.12-19.96-.2 6.46-11.23 13.5z"
           fill="url(#T)"
           id="path518" />
      </g>
    </g>
  </g>
  <g
     clip-path="url(#U)"
     opacity=".25"
     transform="matrix(1.33333 0 0 -1.33333 0 666.67)"
     id="g532">
    <g
       clip-path="url(#V)"
       id="g530">
      <g
         mask="url(#W)"
         id="g528">
        <path
           d="M217.59 268.05l1.97-8.26-.24-27.1-1.52-.83z"
           fill="url(#X)"
           id="path526" />
      </g>
    </g>
  </g>
  <g
     clip-path="url(#Y)"
     opacity=".15"
     transform="matrix(1.33333 0 0 -1.33333 0 666.67)"
     id="g540">
    <g
       clip-path="url(#Z)"
       id="g538">
      <g
         mask="url(#aa)"
         id="g536">
        <path
           d="M214.4 275.62a48.53 48.53 0 005.35 5.04l1.06 26.87s.55-21.07-6.4-31.9"
           fill="url(#ab)"
           id="path534" />
      </g>
    </g>
  </g>
  <g
     clip-path="url(#ac)"
     opacity=".15"
     transform="matrix(1.33333 0 0 -1.33333 0 666.67)"
     id="g548">
    <g
       clip-path="url(#ad)"
       id="g546">
      <g
         mask="url(#ae)"
         id="g544">
        <path
           d="M276.73 280.87l1.6-1.7-.4 7.19-.6.7z"
           fill="url(#af)"
           id="path542" />
      </g>
    </g>
  </g>
  <path
     d="M361.08 280.03s-4.46-.4-2.97 2.78c1.49 3.17 2.58 7.14-3.58 8.73-6.15 1.59-14.29-4.17-17.66-.1 0 0 .1-3.77 7.84-2.38 7.74 1.39 13.6.1 12.3-3.17-1.29-3.28-1.48-4.17-1.48-4.17s1.42-7.03 5.55-1.69"
     fill="#d86d25"
     id="path550" />
  <path
     d="M370.44 275.29l-.76 5.8s-14.15-3.54-13.95 1.12c0 0-6.1-7.7 14.7-6.92"
     fill="#f2853b"
     id="path552" />
  <g
     clip-path="url(#ag)"
     opacity=".25"
     transform="matrix(1.33333 0 0 -1.33333 0 666.67)"
     id="g560">
    <g
       clip-path="url(#ah)"
       id="g558">
      <g
         mask="url(#ai)"
         id="g556">
        <path
           d="M222.5 222.26l11.3-18.86-.45 6.24-10.77 14.32z"
           fill="url(#aj)"
           id="path554" />
      </g>
    </g>
  </g>
  <g
     clip-path="url(#ak)"
     opacity=".25"
     transform="matrix(1.33333 0 0 -1.33333 0 666.67)"
     id="g568">
    <g
       clip-path="url(#al)"
       id="g566">
      <g
         mask="url(#am)"
         id="g564">
        <path
           d="M222.78 196.86l7.8-11.16 1.78 15.1-9.78 17.1z"
           fill="url(#an)"
           id="path562" />
      </g>
    </g>
  </g>
  <g
     clip-path="url(#ao)"
     opacity=".15"
     transform="matrix(1.33333 0 0 -1.33333 0 666.67)"
     id="g576">
    <g
       clip-path="url(#ap)"
       id="g574">
      <g
         mask="url(#aq)"
         id="g572">
        <path
           d="M281.44 246.8l1.84-4.4-.37-16.76-4.9 4.28s3.31 11.26 3.43 16.88"
           fill="url(#ar)"
           id="path570" />
      </g>
    </g>
  </g>
  <g
     mask="url(#as)"
     transform="matrix(1.33333 0 0 -1.33333 0 666.67)"
     id="g580">
    <path
       d="M284.68 162.55l15.68-17.09.28 6.14-7.81 6.14-8.77 5.6z"
       fill="url(#at)"
       id="path578" />
  </g>
  <g
     mask="url(#au)"
     transform="matrix(1.33333 0 0 -1.33333 0 666.67)"
     id="g584">
    <path
       d="M303.32 143.58l2.17-1.01-1 5.2-1.24 1.08z"
       fill="url(#av)"
       id="path582" />
  </g>
  <g
     clip-path="url(#aw)"
     opacity=".15"
     transform="matrix(1.33333 0 0 -1.33333 0 666.67)"
     id="g592">
    <g
       clip-path="url(#ax)"
       id="g590">
      <g
         mask="url(#ay)"
         id="g588">
        <path
           d="M209.46 151.78l9.92 8.44.1-4.15z"
           fill="url(#az)"
           id="path586" />
      </g>
    </g>
  </g>
  <path
     d="M-61.88 469.6l9.28.72 20-37.14 2.15 25 18.57-40.72 4.28 32.15 5-2.14 7.15-39.3 7.85 17.86 8.58 26.44 3.57.7 1.43 8.58 7.85-3.57 15-20 2.15 20 8.57-7.86 1.43 10 7.85-12.85 3.58 12.85 17.14-31.43 2.14 37.86 12.15-6.43 1.42 12.15.72 24.28 7.86 1.43 27.14-47.14 3.57 50 10.72-16.43 37.14 42.86 34.29-90 22.85 84.28 12.86 2.86 17.86-85.72v176.44L149.99 627.9l-211.87-49.73zM761.82 514.8l-9.29.72-20-37.14-2.14 25-18.57-40.72-4.29 32.15-5-2.15-7.14-39.28-7.86 17.85-8.57 26.43-3.57.72-1.43 8.57-7.86-3.57-15-20-2.14 20-8.57-7.86-1.43 10-7.86-12.86-3.57 12.86-17.14-31.43-2.15 37.86-12.14-6.43-1.43 12.14-.71 24.29-7.86 1.43-27.14-47.14-3.58 50-10.71-16.43-37.15 42.86-34.28-90-22.86 84.28-12.86 2.86-17.85-85.72v176.44l342.15-37.15z"
     fill="#025"
     id="path594" />
  <path
     d="M-73.16 533.67l6.56-16.42 13.95 48.43 19.7-56.63 5.74 54.98 11.5-18.05 3.28 22.16 10.67 13.95 4.92-22.16 8.2 12.31L24.5 518.9l17.23 54.16 13.95-6.56 8.21-38.58 11.5 36.11 36.92-6.56 7.39 9.03L112.3 587l4.93 11.5h12.3l30.37 21.33 18.88-4.92 36.93-133.78 25.44 85.36 28.73-87 7.38 192.05-251.95 36.93-98.48-36.11zM359.82 678.73l24.35-64.54 10.96 40.18 37.75-114.47 19.48 70.63 52.37-28 38.97-10.96 41.4 21.91-8.53 28.01 20.7 8.53 53.59-20.7 17.05-81.6 28 160.75z"
     fill="#00112b"
     id="path596" />
  <path
     d="M272.62 593.2l15.23-21.64 26.45 101 13.63-36.87 16.83 23.24 28.06-7.21-2.4 29.66-141.08-6.42zM315.76 575.2l2.33-67.99 6.52 44.48 2.97-23.72 4.15 18.38 4.15-10.67 5.34 10.67z"
     fill="#00112b"
     id="path598" />
  <path
     d="M336.65 466.99l3.34-24.65 3.76 26.73 5.44-4.17 2.09 9.6 6.68-4.17 3.76 10.03-18.38-2.1z"
     fill="#025"
     id="path600" />
</svg>
