<?xml version="1.0" encoding="UTF-8" standalone="no"?>
<!-- Created with Inkscape (http://www.inkscape.org/) -->

<svg
   xmlns:dc="http://purl.org/dc/elements/1.1/"
   xmlns:cc="http://creativecommons.org/ns#"
   xmlns:rdf="http://www.w3.org/1999/02/22-rdf-syntax-ns#"
   xmlns:svg="http://www.w3.org/2000/svg"
   xmlns="http://www.w3.org/2000/svg"
   xmlns:sodipodi="http://sodipodi.sourceforge.net/DTD/sodipodi-0.dtd"
   xmlns:inkscape="http://www.inkscape.org/namespaces/inkscape"
   version="1.1"
   id="svg2"
   xml:space="preserve"
   viewBox="0 0 912.97784 556.79438"
   sodipodi:docname="contact.svg"
   inkscape:version="0.92.4 (5da689c313, 2019-01-14)"><metadata
     id="metadata8"><rdf:RDF><cc:Work
         rdf:about=""><dc:format>image/svg+xml</dc:format><dc:type
           rdf:resource="http://purl.org/dc/dcmitype/StillImage" /><dc:title></dc:title></cc:Work></rdf:RDF></metadata><defs
     id="defs6"><clipPath
       clipPathUnits="userSpaceOnUse"
       id="clipPath22"><path
         d="M 0,500 H 750 V 0 H 0 Z"
         id="path20"
         inkscape:connector-curvature="0" /></clipPath><clipPath
       clipPathUnits="userSpaceOnUse"
       id="clipPath176"><path
         d="M 0,500 H 750 V 0 H 0 Z"
         id="path174"
         inkscape:connector-curvature="0" /></clipPath><clipPath
       clipPathUnits="userSpaceOnUse"
       id="clipPath192"><path
         d="M 0,500 H 750 V 0 H 0 Z"
         id="path190"
         inkscape:connector-curvature="0" /></clipPath><clipPath
       clipPathUnits="userSpaceOnUse"
       id="clipPath470"><path
         d="M 0,500 H 750 V 0 H 0 Z"
         id="path468"
         inkscape:connector-curvature="0" /></clipPath></defs><sodipodi:namedview
     pagecolor="#ffffff"
     bordercolor="#666666"
     borderopacity="1"
     objecttolerance="10"
     gridtolerance="10"
     guidetolerance="10"
     inkscape:pageopacity="0"
     inkscape:pageshadow="2"
     inkscape:window-width="1223"
     inkscape:window-height="734"
     id="namedview4"
     showgrid="false"
     inkscape:zoom="0.50063159"
     inkscape:cx="472.31982"
     inkscape:cy="199.13122"
     inkscape:window-x="634"
     inkscape:window-y="159"
     inkscape:window-maximized="0"
     inkscape:current-layer="g10" /><g
     id="g10"
     inkscape:groupmode="layer"
     inkscape:label="2663507"
     transform="matrix(1.3333333,0,0,-1.3333333,-43.511599,611.73052)"><g
       id="g24"
       transform="translate(406.041,421.5801)"><path
         d="M 0,0 C 0,0.505 -0.408,0.915 -0.914,0.915 -1.42,0.915 -1.828,0.505 -1.828,0 v -2.15 h -2.151 c -0.505,0 -0.914,-0.41 -0.914,-0.914 0,-0.505 0.409,-0.915 0.914,-0.915 h 2.151 V -6.13 c 0,-0.505 0.408,-0.915 0.914,-0.915 0.506,0 0.914,0.41 0.914,0.915 v 2.151 h 2.15 c 0.506,0 0.916,0.41 0.916,0.915 0,0.504 -0.41,0.914 -0.916,0.914 H 0 Z"
         style="fill:#9fb2d9;fill-opacity:1;fill-rule:evenodd;stroke:none"
         id="path26"
         inkscape:connector-curvature="0" /></g><g
       id="g28"
       transform="translate(651.7891,436.3369)"><path
         d="m 0,0 c -6.203,0 -11.232,5.028 -11.232,11.23 0,6.203 5.029,11.231 11.232,11.231 6.203,0 11.23,-5.028 11.23,-11.231 C 11.23,5.028 6.203,0 0,0 m -476.88,-269.27 h -58.484 -1.521 c -32.296,0 -58.718,-26.422 -58.718,-58.718 0,-32.294 26.422,-58.717 58.718,-58.717 h 171.421 29.524 306.438 c 52.295,0 95.08,42.786 95.08,95.079 v 0.002 c 0,52.293 -42.785,95.079 -95.08,95.08 -22.111,0.001 -40.201,18.092 -40.201,40.203 0,22.112 18.09,40.201 40.201,40.201 h 48.385 c 22.988,0 41.795,18.809 41.795,41.798 0,22.988 -18.807,41.797 -41.795,41.797 h -61.184 c -8.949,0 -16.271,7.323 -16.271,16.274 0,8.949 7.322,16.271 16.271,16.271 h 10.785 c 6.178,0 11.231,5.054 11.231,11.23 0,6.177 -5.055,11.231 -11.231,11.231 h -40.422 -30.349 c -14.904,0 -16.565,-17.607 -54.213,-17.607 h -87.299 c -8.06,0 -14.654,-6.595 -14.654,-14.655 0,-8.059 6.594,-14.654 14.654,-14.654 h 14.072 c 11.678,0 21.235,-9.556 21.235,-21.233 v -10e-4 c 0,-11.677 -9.557,-21.233 -21.235,-21.233 h -42.355 c -57.192,0 -65.271,-14.946 -75.288,-44.674 -10.017,-29.726 -62.039,-32.124 -62.039,-32.124 h -71.133 c -17.599,0 -31.999,-14.398 -31.999,-31.997 0,-17.599 14.4,-31.999 31.999,-31.999 h 3.662 c 16.927,0 30.777,-13.848 30.777,-30.776 0,-16.929 -13.85,-30.778 -30.777,-30.778"
         style="fill:#e1e8f6;fill-opacity:1;fill-rule:evenodd;stroke:none"
         id="path30"
         inkscape:connector-curvature="0" /></g><g
       id="g32"
       transform="translate(573.5137,264.0039)"><path
         d="m 0,0 c 6.08,8.817 18.824,23.484 43.188,38.081 38.537,23.091 67.734,53.692 54.902,71.8 C 85.498,127.65 29.059,93.331 -17.812,7.546 -10.92,3.941 -5.031,1.508 0,0"
         style="fill:#b4c5e6;fill-opacity:1;fill-rule:evenodd;stroke:none"
         id="path34"
         inkscape:connector-curvature="0" /></g><g
       id="g36"
       transform="translate(565.9863,271.8447)"><path
         d="m 0,0 c 1.066,0.053 3.893,0.052 7.602,-1.04 0.257,-0.077 0.531,0.07 0.607,0.33 0.076,0.258 -0.072,0.53 -0.33,0.607 -3.246,0.957 -5.875,1.105 -7.297,1.094 0.832,1.413 1.666,2.808 2.498,4.18 1.701,0.038 7.188,0.147 9.248,0.034 0.27,-0.016 0.502,0.192 0.516,0.462 0.015,0.27 -0.192,0.501 -0.461,0.517 C 10.49,6.287 5.838,6.21 3.682,6.166 c 1.562,2.561 3.127,5.047 4.689,7.468 1.647,-0.029 6.752,-0.18 12.399,-0.939 0.267,-0.035 0.515,0.152 0.55,0.42 0.037,0.268 -0.15,0.515 -0.418,0.552 -5.121,0.687 -9.808,0.88 -11.912,0.934 1.578,2.433 3.158,4.792 4.733,7.086 2.257,-0.04 9.597,-0.246 17.707,-1.336 0.269,-0.037 0.515,0.152 0.55,0.42 0.038,0.267 -0.15,0.514 -0.418,0.551 -7.505,1.01 -14.343,1.267 -17.171,1.331 2.074,3 4.14,5.878 6.197,8.646 2.359,0.1 12.142,0.352 19.488,-2.005 0.258,-0.084 0.535,0.058 0.617,0.315 0.084,0.258 -0.056,0.535 -0.314,0.618 -6.846,2.195 -15.727,2.175 -19.049,2.076 2.531,3.379 5.045,6.58 7.533,9.621 3.219,-0.182 16.17,-1.164 22.231,-5.454 0.22,-0.156 0.525,-0.103 0.681,0.12 0.155,0.221 0.102,0.525 -0.119,0.681 -5.879,4.162 -17.849,5.307 -22.019,5.586 2.646,3.204 5.261,6.223 7.84,9.065 2.349,-0.532 12.177,-2.921 21.418,-7.562 0.242,-0.122 0.535,-0.024 0.658,0.216 0.121,0.241 0.023,0.535 -0.217,0.656 -8.754,4.398 -18.02,6.793 -21.107,7.521 1.529,1.669 3.042,3.277 4.542,4.826 2.25,-0.461 11.825,-2.649 24.497,-8.782 0.244,-0.118 0.537,-0.016 0.654,0.226 0.119,0.245 0.016,0.537 -0.227,0.655 -11.824,5.722 -21.004,8.043 -24.113,8.727 3.563,3.641 7.035,6.953 10.391,9.952 2.843,-0.94 17.246,-5.816 24.82,-10.632 0.227,-0.145 0.529,-0.079 0.674,0.15 0.146,0.228 0.078,0.53 -0.149,0.674 -7.275,4.627 -20.677,9.278 -24.496,10.556 1.959,1.73 3.879,3.358 5.752,4.884 2.436,-0.826 13.6,-4.753 23.783,-10.657 0.233,-0.135 0.534,-0.057 0.668,0.177 0.135,0.234 0.057,0.533 -0.177,0.67 -9.596,5.561 -20.045,9.381 -23.375,10.537 4.386,3.527 8.515,6.513 12.324,9.03 2.408,-0.567 13.285,-3.291 21.451,-8.027 0.232,-0.137 0.531,-0.057 0.668,0.177 0.135,0.233 0.057,0.532 -0.176,0.668 -7.51,4.354 -17.244,7.026 -20.818,7.916 1.576,1.02 3.09,1.958 4.545,2.822 1.945,-0.198 9.176,-1.131 18.523,-4.716 0.254,-0.097 0.537,0.028 0.635,0.28 0.098,0.252 -0.029,0.536 -0.281,0.634 -7.981,3.061 -14.463,4.213 -17.483,4.619 11.727,6.772 19.012,8.493 19.073,8.509 0.392,0.099 0.63,0.498 0.531,0.891 -0.098,0.393 -0.496,0.631 -0.891,0.533 -0.041,-0.01 -3.244,-0.768 -8.806,-3.229 1.523,1.921 3.683,4.574 4.255,4.925 0.231,0.141 0.303,0.441 0.163,0.672 -0.141,0.229 -0.442,0.303 -0.672,0.162 -0.885,-0.541 -4.463,-5.076 -5.69,-6.646 -2.256,-1.059 -4.82,-2.365 -7.664,-3.973 l 4.834,9.608 c 0.121,0.241 0.024,0.535 -0.217,0.657 -0.24,0.121 -0.535,0.024 -0.656,-0.216 L 79.619,89.078 c -1.949,-1.14 -4.017,-2.417 -6.185,-3.841 l 5.211,11.39 c 0.113,0.245 0.005,0.535 -0.239,0.648 -0.246,0.114 -0.537,0.005 -0.65,-0.239 L 71.887,84.208 c -3.25,-2.19 -6.715,-4.701 -10.364,-7.596 l 4.518,11.803 c 0.096,0.253 -0.029,0.536 -0.283,0.634 -0.252,0.097 -0.533,-0.028 -0.633,-0.281 L 60.008,75.393 c -1.664,-1.351 -3.362,-2.772 -5.094,-4.281 l 3.828,10.636 c 0.094,0.255 -0.039,0.535 -0.291,0.628 -0.256,0.092 -0.537,-0.039 -0.629,-0.294 L 53.389,69.773 c -3.207,-2.851 -6.522,-5.982 -9.916,-9.412 l 2.884,10.386 c 0.073,0.26 -0.082,0.53 -0.341,0.603 -0.26,0.072 -0.53,-0.08 -0.602,-0.34 L 42.057,58.923 c -1.346,-1.384 -2.707,-2.82 -4.075,-4.3 l 1.618,7.931 c 0.052,0.264 -0.118,0.522 -0.383,0.577 -0.264,0.054 -0.522,-0.117 -0.576,-0.381 l -1.94,-9.521 c -2.547,-2.794 -5.129,-5.761 -7.738,-8.902 l 1.506,8.841 c 0.047,0.266 -0.133,0.519 -0.399,0.563 -0.267,0.045 -0.519,-0.133 -0.564,-0.4 l -1.793,-10.51 c -2.285,-2.79 -4.59,-5.725 -6.912,-8.798 l 0.982,7.853 c 0.035,0.27 -0.154,0.515 -0.424,0.549 C 21.09,42.458 20.846,42.268 20.811,42 l -1.194,-9.557 c -2.025,-2.717 -4.058,-5.545 -6.101,-8.485 l 0.048,7.088 c 0.002,0.27 -0.214,0.491 -0.484,0.494 -0.269,0.003 -0.492,-0.215 -0.494,-0.484 L 12.525,22.53 C 11.049,20.382 9.57,18.169 8.088,15.898 L 7.328,21.94 C 7.293,22.208 7.049,22.398 6.781,22.364 6.514,22.331 6.324,22.087 6.357,21.818 L 7.262,14.623 C 5.9,12.514 4.535,10.354 3.17,8.141 L 2.459,12.045 C 2.41,12.312 2.154,12.488 1.889,12.439 1.623,12.391 1.447,12.136 1.496,11.869 L 2.4,6.889 C 1.385,5.222 0.367,3.521 -0.65,1.795 L -2.27,4.999 C -2.391,5.24 -2.686,5.336 -2.926,5.214 -3.166,5.093 -3.264,4.799 -3.143,4.558 l 1.905,-3.766 c -0.83,-1.416 -1.658,-2.851 -2.487,-4.308 0.454,-0.207 0.903,-0.41 1.346,-0.605 C -1.586,-2.729 -0.793,-1.356 0,0"
         style="fill:#ffffff;fill-opacity:1;fill-rule:evenodd;stroke:none"
         id="path38"
         inkscape:connector-curvature="0" /></g><g
       id="g40"
       transform="translate(566.5273,259.0117)"><path
         d="M 0,0 C 6.512,4.116 18,9.634 35.354,12.107 64.803,16.305 91.086,28.378 89.096,44.475 87.18,59.983 45.436,54.011 -6.518,11.933 L -0.027,0.046 Z"
         style="fill:#9fb2d9;fill-opacity:1;fill-rule:evenodd;stroke:none"
         id="path42"
         inkscape:connector-curvature="0" /></g><g
       id="g44"
       transform="translate(647.6758,301.0859)"><path
         d="M 0,0 C 0.557,0.003 1.008,0.459 1.004,1.016 1,1.574 0.543,2.023 -0.014,2.02 -0.051,2.019 -3.33,2.029 -8.938,1.271 l 4.805,3.243 c 0.309,0.208 0.389,0.626 0.182,0.933 -0.207,0.308 -0.627,0.389 -0.934,0.181 l -7.138,-4.82 c -2.612,-0.429 -5.584,-1.006 -8.862,-1.791 l 5.047,4.819 c 0.27,0.258 0.279,0.684 0.022,0.953 -0.256,0.27 -0.682,0.279 -0.952,0.023 l -6.763,-6.459 c -3.405,-0.889 -7.088,-1.991 -10.994,-3.363 l 4.224,4.346 c 0.258,0.267 0.254,0.691 -0.013,0.951 -0.266,0.259 -0.692,0.254 -0.95,-0.012 l -6.168,-6.345 c -4.084,-1.534 -8.381,-3.356 -12.828,-5.526 l 3.571,4.588 c 0.228,0.291 0.177,0.715 -0.116,0.943 -0.293,0.227 -0.715,0.176 -0.943,-0.117 L -53.053,-13 c -4.168,-2.145 -8.451,-4.591 -12.802,-7.389 l 1.464,3.119 c 0.159,0.337 0.012,0.738 -0.324,0.896 -0.336,0.157 -0.736,0.013 -0.894,-0.324 l -2.393,-5.097 c -3.301,-2.197 -6.631,-4.594 -9.975,-7.217 l 1.34,3.174 c 0.145,0.344 -0.015,0.738 -0.357,0.883 -0.342,0.144 -0.738,-0.017 -0.883,-0.358 l -2.305,-5.459 c -1.627,-1.324 -3.256,-2.7 -4.884,-4.131 l 0.992,-1.82 c 1.629,1.441 3.258,2.823 4.883,4.152 1.666,-0.107 5.654,-0.447 7.332,-1.326 0.328,-0.174 0.734,-0.048 0.91,0.279 0.174,0.329 0.047,0.737 -0.281,0.911 -1.483,0.777 -4.399,1.173 -6.434,1.362 1.287,1.025 2.572,2.019 3.855,2.978 1.635,-0.273 5.649,-1.06 8.323,-2.574 0.324,-0.183 0.734,-0.069 0.918,0.254 0.181,0.324 0.068,0.735 -0.256,0.917 -2.293,1.3 -5.467,2.09 -7.51,2.499 2.65,1.935 5.285,3.73 7.895,5.4 2.242,-0.926 9.337,-3.944 12.123,-6.233 0.285,-0.236 0.709,-0.195 0.945,0.092 0.236,0.285 0.195,0.71 -0.09,0.947 -2.613,2.148 -8.699,4.849 -11.59,6.071 2.799,1.747 5.567,3.352 8.287,4.821 2.241,-0.86 9.53,-3.817 14.336,-7.622 0.291,-0.23 0.715,-0.181 0.946,0.111 0.23,0.291 0.179,0.715 -0.112,0.946 -4.33,3.426 -10.586,6.174 -13.615,7.395 1.348,0.709 2.684,1.383 4.006,2.027 2.324,-0.738 10.183,-3.468 17.465,-8.743 0.301,-0.217 0.72,-0.152 0.939,0.149 0.219,0.299 0.154,0.721 -0.146,0.939 -6.373,4.618 -13.19,7.33 -16.514,8.49 4.799,2.256 9.4,4.107 13.725,5.622 2.57,-1.592 12.529,-7.852 16.884,-11.992 0.268,-0.255 0.696,-0.245 0.952,0.025 0.255,0.268 0.244,0.694 -0.026,0.951 -4.031,3.831 -12.644,9.371 -16.166,11.58 3.236,1.09 6.307,1.988 9.17,2.733 2.311,-1.766 10.846,-8.298 12.824,-10.005 0.28,-0.244 0.705,-0.214 0.948,0.066 0.244,0.28 0.212,0.705 -0.067,0.948 -1.814,1.565 -8.959,7.053 -12.041,9.412 3.748,0.923 7.111,1.577 9.996,2.037 2.076,-1.804 7.071,-6.161 8.239,-7.329 0.261,-0.262 0.689,-0.262 0.951,0 0.263,0.264 0.263,0.69 0,0.954 -1.041,1.038 -5.071,4.569 -7.444,6.637 C -3.551,0.01 -0.039,0 0,0"
         style="fill:#b4c5e6;fill-opacity:1;fill-rule:evenodd;stroke:none"
         id="path46"
         inkscape:connector-curvature="0" /></g><g
       id="g48"
       transform="translate(549.2539,396.3887)"><path
         d="M 0,0 C 0.004,-0.057 0.004,-0.113 -0.002,-0.171 -0.004,-0.193 -0.687,-7.436 0.166,-14.618 14.354,-6.525 25.008,-1.905 29.293,-0.158 24.641,0.202 19.961,0.406 15.27,0.448 10.201,0.493 5.104,0.347 0,0 m -30.639,-4.715 c 0.024,-0.092 0.035,-0.188 0.034,-0.287 -0.002,-0.043 -0.379,-14.243 2.791,-27.524 9.334,6.653 18.126,12.198 25.937,16.73 -0.965,7.039 -0.414,14.373 -0.309,15.635 -9.636,-0.768 -19.181,-2.264 -28.453,-4.554 M -65.541,-18.1 c 0.061,-0.107 0.103,-0.227 0.123,-0.356 0.014,-0.078 4.334,-26.312 8.828,-37.075 9.16,8.199 18.231,15.388 26.869,21.635 -3.179,12.676 -3.103,26.418 -3.07,28.633 -4.906,-1.282 -9.73,-2.791 -14.445,-4.534 -6.323,-2.339 -12.446,-5.099 -18.305,-8.303 m -25.715,-18.787 c 0.19,-0.191 0.311,-0.454 0.315,-0.745 0.002,-0.054 0.203,-18.013 10.925,-41.143 7.168,7.894 14.463,15.117 21.717,21.702 -4.39,9.888 -8.633,34.512 -9.201,37.88 -6.035,-3.44 -11.777,-7.362 -17.148,-11.796 -2.27,-1.875 -4.475,-3.839 -6.608,-5.898 m -16.213,-19.664 c 0.295,-0.184 0.496,-0.508 0.512,-0.882 0.582,-15.185 7.127,-36.21 9.248,-42.671 5.238,6.931 10.635,13.451 16.111,19.574 -9.789,20.741 -11.263,37.637 -11.484,41.842 -5.295,-5.344 -10.121,-11.289 -14.387,-17.863 m -12.125,-24.58 c 0.401,-0.138 0.699,-0.502 0.733,-0.951 1.175,-17.148 5.179,-32.998 6.779,-38.807 4.113,6.522 8.389,12.739 12.783,18.66 -1.283,3.79 -8.721,26.373 -9.76,43.156 -1.851,-3.023 -3.587,-6.174 -5.199,-9.453 -1.967,-4.006 -3.75,-8.204 -5.336,-12.605 m -7.09,-29.433 c 0.491,-0.062 0.891,-0.451 0.95,-0.961 0.004,-0.05 1.736,-15.774 4.498,-24.916 2.455,4.479 4.994,8.832 7.601,13.058 -0.879,2.995 -5.609,19.766 -7.205,38.63 -2.607,-7.965 -4.584,-16.56 -5.844,-25.811 m -1.148,-38.641 c 1.676,3.446 3.4,6.824 5.17,10.132 -2.227,6.182 -3.881,16.891 -4.688,22.897 -0.074,-0.736 -0.146,-1.474 -0.213,-2.218 -0.458,-5.148 -0.705,-10.493 -0.726,-16.035 -0.018,-4.757 0.131,-9.68 0.457,-14.776 m 50.768,-4.532 c -16.53,2.58 -39.145,11.321 -43.903,13.206 -1.918,-3.601 -3.783,-7.283 -5.59,-11.049 18.561,-4.16 34.979,-4.575 49.493,-2.157 m 27.849,8.954 c -7.826,2.059 -49.603,13.201 -62.842,19.808 -2.705,-4.404 -5.334,-8.947 -7.875,-13.629 5.577,-2.201 30.559,-11.788 46.696,-13.437 0.461,-0.046 0.824,-0.37 0.943,-0.788 8.33,1.794 16.008,4.538 23.078,8.046 m 25.311,17.765 c -6.514,2.028 -64.063,19.951 -73.789,23.3 -4.549,-6.143 -8.969,-12.605 -13.211,-19.398 14.525,-7.174 63.359,-19.85 63.506,-19.887 0.291,-0.076 0.525,-0.263 0.666,-0.504 8.474,4.507 16.054,10.116 22.828,16.489 m 18.191,21.329 -74.267,23.708 c -5.561,-6.218 -11.036,-12.847 -16.344,-19.904 12.002,-4.058 73.49,-23.188 73.674,-23.247 0.171,-0.053 0.32,-0.144 0.439,-0.262 6.162,6.032 11.635,12.693 16.498,19.705 m 14.608,25.465 c -7.997,4.095 -59.766,19.872 -65.62,21.652 -7.23,-6.561 -14.504,-13.76 -21.654,-21.631 l 73.676,-23.519 c 0.09,-0.029 0.176,-0.069 0.254,-0.119 3.17,4.71 6.07,9.563 8.722,14.481 1.633,3.027 3.172,6.08 4.622,9.136 m 12.269,31.673 -49.465,13.01 c -8.529,-6.162 -17.486,-13.25 -26.537,-21.332 9.811,-2.99 56.709,-17.366 64.654,-21.383 4.678,10.124 8.403,20.256 11.348,29.705 m 6.565,25.03 -0.026,0.007 c -7.064,2.306 -25.488,5.519 -28.234,5.993 -7.664,-4.438 -16.297,-9.866 -25.469,-16.375 l 47.803,-12.572 c 2.549,8.409 4.48,16.226 5.926,22.947 m 3.769,21.9 C 28.824,-2.664 17.846,-7.129 2.436,-15.825 c 6.007,-1.071 19.63,-3.6 25.746,-5.554 2.027,9.784 2.98,16.946 3.316,19.758 m -161.541,-149.897 c -0.428,5.868 -0.625,11.563 -0.603,17.089 0.021,5.613 0.269,11.025 0.734,16.239 1.738,19.502 6.476,36.327 13.537,50.699 7.641,15.553 18,28.231 30.229,38.323 11.33,9.352 24.253,16.471 38.095,21.59 14.85,5.491 30.76,8.684 46.899,9.866 5.445,0.4 10.937,0.567 16.441,0.519 5.57,-0.05 11.131,-0.328 16.648,-0.819 v 0.004 c 0.626,-0.055 1.17,-0.358 1.547,-0.807 0.373,-0.446 0.579,-1.033 0.524,-1.657 L 33.986,-0.63 c -0.224,-2.149 -5.185,-48.222 -27.632,-89.849 -22.706,-42.109 -63.225,-79.69 -134.639,-63.138 -0.51,0.118 -0.94,0.401 -1.248,0.778 -0.301,0.367 -0.483,0.829 -0.508,1.321 z"
         style="fill:#9fb2d9;fill-opacity:1;fill-rule:evenodd;stroke:none"
         id="path50"
         inkscape:connector-curvature="0" /></g><g
       id="g52"
       transform="translate(246.8022,107.0107)"><path
         d="m 0,0 c 0,0 -21.674,11.179 -17.701,38.624 3.973,27.446 -12.811,36.125 -17.069,44.29 -4.259,8.164 5.288,21.332 4.203,32.861 -1.085,11.531 -14.383,14.615 -8.152,30.43 6.231,15.814 0.961,21.82 -7.243,38.762 -8.204,16.941 3.952,42.831 9.729,42.687 5.777,-0.142 -1.267,-6.198 3.812,-17.46 5.078,-11.259 26.497,-14.689 33.2,-24.105 6.701,-9.416 -5.078,-21.892 2.569,-34.603 7.647,-12.71 30.435,-8.767 36.461,-21.102 C 45.834,118.049 31.468,103.268 35.646,90.336 39.825,77.404 55.214,70.076 61.69,59.687 68.167,49.299 80.298,29.397 60.433,5.636 40.568,-18.125 0,0 0,0"
         style="fill:#9fb2d9;fill-opacity:1;fill-rule:evenodd;stroke:none"
         id="path54"
         inkscape:connector-curvature="0" /></g><g
       id="g56"
       transform="translate(208.1919,311.167)"><path
         d="M 0,0 C -0.279,0.727 0.082,1.542 0.809,1.821 1.536,2.102 2.351,1.74 2.631,1.014 l 89.657,-232.909 -3.374,0.918 z"
         style="fill:#b4c5e6;fill-opacity:1;fill-rule:evenodd;stroke:none"
         id="path58"
         inkscape:connector-curvature="0" /></g><g
       id="g60"
       transform="translate(228.834,134.8467)"><path
         d="m 0,0 c -0.114,1.083 -0.185,2.2 -0.208,3.353 l 58.889,-33.095 -5.21,13.534 c -0.026,0.057 -0.049,0.115 -0.067,0.173 L 50.733,-9.095 0.869,18.928 C 0.865,20.067 0.823,21.171 0.745,22.233 L 49.143,-4.966 44.431,7.276 -1.635,33.164 c -0.593,1.557 -1.265,3.004 -1.992,4.357 l 46.468,-26.114 -2.34,6.077 c -0.027,0.062 -0.052,0.122 -0.071,0.186 L 30.197,44.254 -15.914,70.167 c 0.272,0.913 0.555,1.836 0.835,2.767 L 28.608,48.383 23.499,61.654 -12.83,82.069 c 0.154,1.028 0.259,2.053 0.299,3.069 l 34.44,-19.354 -3.843,9.983 c -0.021,0.046 -0.039,0.094 -0.055,0.141 l -11.165,29.006 -26.96,15.15 c 0.339,0.947 0.633,1.858 0.885,2.74 l 24.485,-13.761 -9.748,25.325 c -0.022,0.048 -0.041,0.097 -0.057,0.148 l -16.093,41.804 c -0.279,0.727 0.082,1.542 0.809,1.822 0.727,0.28 1.542,-0.081 1.822,-0.808 l 14.623,-37.987 8.357,28.548 c 0.864,-0.435 1.719,-0.87 2.561,-1.309 L -1.717,135.005 9.271,106.461 c 0.017,-0.037 0.031,-0.076 0.043,-0.114 L 19.477,79.95 35.521,114.348 c 0.903,-0.29 1.814,-0.566 2.727,-0.834 l -17.362,-37.226 3.872,-10.06 21.14,44.966 c 0.91,-0.31 1.797,-0.64 2.655,-0.996 L 26.468,63.222 26.804,63.033 c 0.68,-0.381 0.923,-1.24 0.542,-1.92 -0.11,-0.197 -0.261,-0.358 -0.435,-0.476 l 5.708,-14.828 c 0.018,-0.044 0.035,-0.085 0.049,-0.129 l 9.241,-24.003 15.659,33.306 c 0.617,-0.841 1.273,-1.662 1.963,-2.464 L 43.314,18.023 45.691,11.851 63.056,48.788 c 0.708,-0.692 1.43,-1.375 2.16,-2.051 L 47.097,8.198 53.158,-7.544 c 0.017,-0.041 0.031,-0.08 0.046,-0.122 l 1.677,-4.357 22.246,47.318 c 0.695,-0.826 1.344,-1.668 1.934,-2.528 l -22.774,-48.444 6.409,-16.645 c 0.016,-0.038 0.031,-0.077 0.044,-0.118 l 0.02,-0.049 c -1.11,-0.347 -2.234,-0.644 -3.364,-0.891 z"
         style="fill:#b4c5e6;fill-opacity:1;fill-rule:evenodd;stroke:none"
         id="path62"
         inkscape:connector-curvature="0" /></g><g
       id="g64"
       transform="translate(236.7217,49.4697)"><path
         d="m 0,0 c -5.963,4.641 -12.092,6.743 -15.336,9.745 -6.459,5.977 -2.106,20.893 -6.792,30.917 -4.688,10.025 -17.643,8.52 -17.126,24.753 0.516,16.233 -6.16,19.94 -18.992,32.543 -12.832,12.602 -10.226,39.805 -4.983,41.536 5.243,1.731 0.855,-5.985 9.048,-14.483 8.193,-8.495 28.566,-4.689 37.627,-11.003 9.06,-6.314 2.475,-21.329 13.446,-30.304 10.971,-8.975 30.203,1.905 39.593,-7.253 9.39,-9.158 1.223,-27.079 9.143,-37.369 C 53.548,28.792 69.752,27.15 78.922,19.89 84.078,15.807 91.809,9.593 95.772,0 Z"
         style="fill:#c0cdea;fill-opacity:1;fill-rule:evenodd;stroke:none"
         id="path66"
         inkscape:connector-curvature="0" /></g><g
       id="g68"
       transform="translate(310.1226,49.4697)"><path
         d="m 0,0 2.134,22.172 c 0.893,-0.52 1.747,-1.068 2.554,-1.653 L 2.713,0 Z m -17.734,0 2.867,29.784 c 0.861,-0.395 1.73,-0.777 2.604,-1.15 L -15.02,0 Z m -7.298,0 3.235,33.591 c 0.825,-0.559 1.681,-1.086 2.559,-1.585 L -22.319,0 Z m -4.908,0 -13.03,15.13 -49.823,8.476 c -0.049,0.909 -0.092,1.83 -0.14,2.757 l 47.204,-8.028 -8.867,10.294 -39.253,6.678 c -0.192,0.974 -0.428,1.93 -0.719,2.856 l 37.214,-6.331 -6.67,7.745 c -0.034,0.036 -0.066,0.073 -0.096,0.112 l -19.379,22.5 -29.13,4.957 c 0,0.96 -0.029,1.875 -0.085,2.749 l 26.457,-4.499 -16.92,19.645 c -0.036,0.037 -0.068,0.075 -0.099,0.115 l -27.931,32.432 c -0.485,0.563 -0.422,1.414 0.141,1.899 0.564,0.487 1.415,0.423 1.899,-0.141 l 25.381,-29.47 -1.668,28.373 c 0.917,-0.112 1.827,-0.228 2.725,-0.353 l 1.844,-31.389 19.071,-22.144 c 0.026,-0.028 0.052,-0.058 0.076,-0.089 l 17.637,-20.479 3.365,36.11 c 0.905,0.03 1.814,0.075 2.722,0.127 l -3.642,-39.078 6.722,-7.803 4.549,47.256 c 0.918,0.012 1.822,0.002 2.709,-0.041 l -4.753,-49.37 0.364,-0.063 c 0.733,-0.122 1.228,-0.817 1.105,-1.552 -0.036,-0.213 -0.12,-0.405 -0.238,-0.569 l 9.907,-11.503 c 0.03,-0.033 0.059,-0.066 0.085,-0.101 L -26.385,0 Z"
         style="fill:#e1e8f6;fill-opacity:1;fill-rule:evenodd;stroke:none"
         id="path70"
         inkscape:connector-curvature="0" /></g><g
       id="g72"
       transform="translate(55.5181,41.2021)"><path
         d="m 0,0 h -5.445 c -2.275,0 -4.134,1.86 -4.134,4.133 0,2.274 1.859,4.135 4.134,4.135 H 0 C 2.274,8.268 4.134,6.407 4.134,4.133 4.134,1.86 2.274,0 0,0"
         style="fill:#00000f;fill-opacity:1;fill-rule:evenodd;stroke:none"
         id="path74"
         inkscape:connector-curvature="0" /></g><g
       id="g76"
       transform="translate(68.7935,41.2021)"><path
         d="m 0,0 h 599.261 c 2.276,0 4.135,1.86 4.135,4.133 0,2.274 -1.859,4.135 -4.135,4.135 H 0 C -2.274,8.268 -4.133,6.407 -4.133,4.133 -4.133,1.86 -2.274,0 0,0"
         style="fill:#00000f;fill-opacity:1;fill-rule:evenodd;stroke:none"
         id="path78"
         inkscape:connector-curvature="0" /></g><g
       id="g80"
       transform="translate(114.2314,213.4248)"><path
         d="m 0,0 c -0.922,-0.266 -1.797,-0.641 -2.608,-1.11 -0.833,-0.482 -1.601,-1.063 -2.289,-1.725 -0.134,-0.129 -0.333,-0.148 -0.487,-0.06 l -3.093,1.787 -0.017,0.01 c -0.176,0.095 -0.379,0.114 -0.564,0.064 -0.19,-0.052 -0.361,-0.173 -0.465,-0.355 l -0.014,-0.022 -2.175,-3.768 c -0.105,-0.182 -0.126,-0.392 -0.075,-0.582 0.051,-0.19 0.174,-0.361 0.356,-0.466 l 0.021,-0.013 3.068,-1.772 c 0.16,-0.092 0.234,-0.277 0.192,-0.45 h 0.001 c -0.113,-0.456 -0.2,-0.927 -0.259,-1.407 -0.056,-0.468 -0.086,-0.945 -0.086,-1.434 0,-0.486 0.03,-0.965 0.086,-1.432 0.059,-0.481 0.146,-0.952 0.259,-1.406 0.046,-0.19 -0.048,-0.381 -0.215,-0.464 l -3.067,-1.77 v -0.001 c -0.182,-0.105 -0.305,-0.276 -0.356,-0.466 -0.051,-0.191 -0.03,-0.401 0.075,-0.582 l 2.189,-3.79 c 0.104,-0.183 0.275,-0.305 0.465,-0.356 0.19,-0.051 0.4,-0.03 0.581,0.076 l 0.023,0.011 3.072,1.773 c 0.16,0.093 0.357,0.064 0.485,-0.059 0.688,-0.663 1.456,-1.243 2.289,-1.724 0.816,-0.472 1.696,-0.85 2.625,-1.115 0.18,-0.053 0.297,-0.216 0.297,-0.396 v -3.566 c 0,-0.209 0.086,-0.403 0.226,-0.541 0.138,-0.138 0.33,-0.224 0.54,-0.224 h 4.377 c 0.21,0 0.402,0.086 0.541,0.224 0.138,0.138 0.225,0.332 0.225,0.541 v 3.568 c 0,0.193 0.134,0.355 0.314,0.398 0.922,0.266 1.796,0.641 2.608,1.111 0.834,0.481 1.602,1.061 2.289,1.724 0.14,0.134 0.352,0.149 0.507,0.046 l 3.072,-1.773 c 0.182,-0.104 0.391,-0.125 0.582,-0.074 0.19,0.051 0.36,0.173 0.465,0.356 l 0.014,0.022 2.176,3.768 h -0.001 c 0.105,0.184 0.126,0.391 0.075,0.582 -0.051,0.19 -0.174,0.361 -0.354,0.466 l -3.091,1.783 c -0.16,0.092 -0.234,0.279 -0.192,0.45 0.112,0.456 0.199,0.927 0.257,1.408 0.057,0.467 0.087,0.946 0.087,1.432 0,0.489 -0.03,0.967 -0.087,1.436 -0.058,0.479 -0.144,0.949 -0.257,1.405 -0.047,0.19 0.047,0.38 0.215,0.463 l 3.068,1.772 c 0.18,0.105 0.303,0.276 0.354,0.466 0.051,0.19 0.03,0.4 -0.075,0.58 l -0.011,0.022 -2.176,3.77 h -0.001 c -0.106,0.182 -0.276,0.303 -0.466,0.355 -0.191,0.051 -0.4,0.031 -0.581,-0.073 V -1.108 L 11.921,-2.895 C 11.757,-2.989 11.552,-2.958 11.425,-2.826 10.739,-2.167 9.974,-1.589 9.145,-1.11 8.329,-0.637 7.448,-0.262 6.52,0.005 6.34,0.058 6.223,0.221 6.223,0.399 V 3.966 C 6.223,4.177 6.136,4.368 5.998,4.507 5.859,4.646 5.667,4.73 5.457,4.73 H 1.08 C 0.87,4.73 0.678,4.646 0.54,4.507 0.4,4.368 0.314,4.177 0.314,3.966 V 0.399 C 0.314,0.205 0.181,0.043 0,0 m -1.437,-6.596 c 1.204,1.204 2.868,1.949 4.706,1.949 1.837,0 3.502,-0.745 4.706,-1.949 1.204,-1.203 1.949,-2.868 1.949,-4.707 0,-1.838 -0.745,-3.501 -1.949,-4.704 -1.204,-1.204 -2.869,-1.95 -4.706,-1.95 -1.838,0 -3.502,0.746 -4.706,1.95 -1.205,1.203 -1.95,2.866 -1.95,4.704 0,1.839 0.745,3.504 1.95,4.707 m -3.46,-13.173 z"
         style="fill:#c0cdea;fill-opacity:1;fill-rule:evenodd;stroke:none"
         id="path82"
         inkscape:connector-curvature="0" /></g><g
       id="g84"
       transform="translate(66.5811,285.5566)"><path
         d="m 0,0 c -1.01,-0.43 -1.99,-0.921 -2.933,-1.467 -0.961,-0.554 -1.884,-1.167 -2.763,-1.829 -0.88,-0.663 -1.722,-1.383 -2.519,-2.151 -0.03,-0.03 -0.068,-0.047 -0.11,-0.051 -0.041,-0.005 -0.085,0.003 -0.119,0.023 -2.336,1.348 -4.675,2.691 -7.006,4.045 -0.279,0.152 -0.576,0.243 -0.877,0.277 -0.311,0.035 -0.624,0.01 -0.922,-0.069 -0.306,-0.083 -0.6,-0.225 -0.857,-0.422 -0.248,-0.189 -0.465,-0.429 -0.629,-0.715 -1.692,-2.741 -3.299,-5.711 -4.918,-8.514 -0.164,-0.285 -0.265,-0.594 -0.305,-0.906 -0.041,-0.325 -0.018,-0.649 0.064,-0.953 0.082,-0.307 0.225,-0.6 0.422,-0.858 0.19,-0.248 0.43,-0.464 0.716,-0.629 2.233,-1.379 4.656,-2.688 6.941,-4.008 0.036,-0.02 0.063,-0.052 0.079,-0.089 0.016,-0.039 0.021,-0.083 0.011,-0.122 l -0.16,-0.649 0.009,-0.003 c -0.07,-0.314 -0.134,-0.635 -0.194,-0.96 -0.102,-0.554 -0.185,-1.101 -0.251,-1.637 -0.064,-0.532 -0.114,-1.08 -0.148,-1.645 -0.034,-0.566 -0.052,-1.121 -0.052,-1.661 0,-0.541 0.018,-1.095 0.052,-1.66 0.034,-0.566 0.084,-1.116 0.148,-1.648 0.066,-0.535 0.15,-1.081 0.251,-1.636 0.102,-0.552 0.218,-1.089 0.346,-1.611 0.011,-0.043 0.006,-0.087 -0.013,-0.126 -0.019,-0.042 -0.049,-0.075 -0.085,-0.093 -2.551,-1.363 -5.141,-2.965 -7.663,-4.422 l 0.09,-0.113 -0.077,-0.095 c -0.197,-0.259 -0.34,-0.551 -0.422,-0.859 -0.082,-0.305 -0.105,-0.63 -0.064,-0.952 0.04,-0.313 0.141,-0.621 0.306,-0.905 l 5.285,-9.153 0.097,0.058 c 0.053,-0.048 0.107,-0.094 0.164,-0.136 0.257,-0.196 0.551,-0.34 0.857,-0.422 0.305,-0.081 0.629,-0.104 0.951,-0.062 0.304,0.038 0.604,0.134 0.881,0.29 2.313,1.226 4.692,2.709 6.975,4.026 0.034,0.019 0.075,0.025 0.116,0.022 0.043,-0.006 0.084,-0.025 0.115,-0.054 0.795,-0.768 1.637,-1.486 2.517,-2.149 0.877,-0.661 1.8,-1.273 2.76,-1.828 0.949,-0.549 1.936,-1.042 2.954,-1.474 1.01,-0.43 2.05,-0.8 3.11,-1.104 0.043,-0.012 0.078,-0.037 0.102,-0.068 0.026,-0.035 0.041,-0.076 0.039,-0.118 V -59.3 c 0,-0.327 0.066,-0.643 0.187,-0.932 0.125,-0.302 0.308,-0.571 0.535,-0.794 0.224,-0.227 0.494,-0.409 0.791,-0.532 0.29,-0.122 0.605,-0.187 0.933,-0.187 h 9.836 c 0.327,0 0.643,0.065 0.932,0.187 0.298,0.123 0.567,0.306 0.795,0.532 0.223,0.223 0.406,0.492 0.531,0.794 0.12,0.289 0.187,0.605 0.187,0.932 v 8.017 c 0,0.047 0.015,0.089 0.039,0.12 0.025,0.032 0.064,0.057 0.109,0.065 l 0.031,0.013 c 1.068,0.308 2.099,0.675 3.091,1.097 1.01,0.431 1.99,0.922 2.935,1.467 0.961,0.555 1.883,1.167 2.761,1.829 0.881,0.663 1.723,1.383 2.52,2.151 0.033,0.033 0.074,0.051 0.114,0.054 0.042,0.004 0.087,-0.006 0.124,-0.032 l 6.942,-4.006 c 0.285,-0.164 0.592,-0.265 0.901,-0.303 0.323,-0.043 0.647,-0.019 0.953,0.062 0.307,0.082 0.599,0.225 0.857,0.422 0.243,0.185 0.454,0.419 0.618,0.696 1.823,2.931 3.546,6.144 5.286,9.155 l -0.093,0.055 c 0.017,0.078 0.03,0.155 0.04,0.232 0.041,0.322 0.019,0.646 -0.062,0.951 -0.083,0.308 -0.226,0.6 -0.424,0.858 -0.189,0.249 -0.428,0.464 -0.713,0.628 l -6.943,4.008 c -0.035,0.021 -0.063,0.053 -0.079,0.091 -0.017,0.038 -0.021,0.082 -0.01,0.124 l 0.18,0.734 -0.01,0.002 c 0.062,0.286 0.12,0.578 0.174,0.871 0.101,0.554 0.186,1.102 0.251,1.638 0.065,0.532 0.115,1.082 0.149,1.648 0.034,0.565 0.052,1.119 0.052,1.66 0,0.54 -0.018,1.094 -0.052,1.659 -0.034,0.565 -0.084,1.115 -0.149,1.651 -0.064,0.531 -0.148,1.077 -0.251,1.637 -0.102,0.551 -0.217,1.087 -0.346,1.606 -0.01,0.043 -0.005,0.086 0.014,0.128 0.018,0.04 0.049,0.073 0.088,0.091 l 6.934,4.004 c 0.286,0.165 0.526,0.38 0.713,0.629 0.197,0.259 0.34,0.552 0.422,0.856 0.081,0.303 0.103,0.628 0.062,0.95 -0.038,0.304 -0.136,0.604 -0.292,0.885 -1.653,3.061 -3.548,6.147 -5.296,9.175 L 39.539,-1.78 c -0.053,0.048 -0.107,0.093 -0.164,0.136 -0.258,0.197 -0.55,0.339 -0.857,0.422 -0.305,0.081 -0.629,0.104 -0.951,0.064 -0.314,-0.04 -0.621,-0.139 -0.902,-0.301 l -0.514,-0.295 0.002,-0.005 -6.439,-3.716 c -0.039,-0.023 -0.083,-0.03 -0.124,-0.024 -0.041,0.005 -0.081,0.024 -0.11,0.054 l -0.017,0.017 c -0.788,0.759 -1.628,1.474 -2.514,2.142 -0.88,0.662 -1.798,1.271 -2.747,1.819 -0.949,0.55 -1.935,1.042 -2.952,1.475 -1.012,0.429 -2.05,0.799 -3.111,1.102 -0.042,0.012 -0.077,0.037 -0.1,0.069 -0.028,0.036 -0.044,0.077 -0.041,0.118 v 8.016 c 0,0.327 -0.067,0.643 -0.187,0.933 -0.125,0.3 -0.308,0.57 -0.534,0.793 -0.225,0.225 -0.494,0.406 -0.792,0.531 -0.289,0.12 -0.605,0.188 -0.932,0.188 H 5.717 C 5.389,11.758 5.074,11.69 4.784,11.57 4.487,11.445 4.217,11.264 3.99,11.039 3.546,10.596 3.271,9.984 3.271,9.313 V 1.297 C 3.271,1.25 3.255,1.208 3.231,1.174 3.206,1.144 3.168,1.119 3.124,1.108 L 3.092,1.098 C 2.024,0.789 0.992,0.422 0,0 m 3.458,-0.304 c -0.982,-0.283 -1.946,-0.629 -2.89,-1.03 -0.957,-0.407 -1.884,-0.87 -2.775,-1.386 -0.905,-0.523 -1.778,-1.102 -2.615,-1.733 -0.84,-0.634 -1.638,-1.315 -2.388,-2.038 -0.267,-0.256 -0.598,-0.406 -0.939,-0.447 -0.348,-0.043 -0.708,0.028 -1.022,0.209 -2.302,1.33 -4.724,2.646 -6.979,4.031 -0.109,0.056 -0.225,0.092 -0.339,0.104 -0.13,0.015 -0.261,0.004 -0.385,-0.03 -0.127,-0.034 -0.249,-0.092 -0.353,-0.172 -0.099,-0.076 -0.187,-0.174 -0.254,-0.289 -1.679,-2.54 -3.364,-5.821 -4.917,-8.515 -0.068,-0.115 -0.108,-0.238 -0.124,-0.362 -0.016,-0.128 -0.005,-0.265 0.03,-0.395 0.034,-0.128 0.092,-0.248 0.171,-0.353 0.077,-0.101 0.175,-0.187 0.29,-0.255 2.072,-1.369 4.74,-2.74 6.937,-4.008 0.322,-0.185 0.556,-0.462 0.691,-0.777 0.047,-0.109 0.082,-0.224 0.104,-0.342 l 0.142,-0.047 -0.16,-0.647 c -0.125,-0.509 -0.236,-1.018 -0.329,-1.524 -0.09,-0.493 -0.169,-1.009 -0.234,-1.547 -0.063,-0.525 -0.112,-1.045 -0.142,-1.56 -0.031,-0.503 -0.046,-1.029 -0.046,-1.576 0,-0.548 0.015,-1.074 0.046,-1.575 0.03,-0.516 0.079,-1.036 0.142,-1.562 0.065,-0.538 0.144,-1.054 0.234,-1.547 0.094,-0.507 0.204,-1.015 0.33,-1.525 0.093,-0.377 0.047,-0.755 -0.104,-1.082 -0.15,-0.325 -0.409,-0.599 -0.743,-0.77 l -6.142,-3.547 0.002,-0.003 -0.728,-0.419 c -0.116,-0.067 -0.213,-0.155 -0.29,-0.254 -0.078,-0.104 -0.137,-0.225 -0.171,-0.353 -0.035,-0.132 -0.046,-0.267 -0.03,-0.397 0.016,-0.122 0.056,-0.246 0.124,-0.361 l 4.546,-7.88 0.003,10e-4 0.368,-0.635 c 0.067,-0.116 0.155,-0.214 0.254,-0.289 0.104,-0.08 0.226,-0.139 0.353,-0.173 0.13,-0.034 0.266,-0.045 0.394,-0.029 0.123,0.015 0.245,0.056 0.36,0.122 2.201,1.382 4.683,2.703 6.953,4.012 0.324,0.185 0.678,0.248 1.015,0.208 0.349,-0.041 0.679,-0.194 0.939,-0.442 l 0.003,-0.004 c 0.751,-0.724 1.549,-1.405 2.39,-2.039 0.835,-0.629 1.708,-1.208 2.613,-1.732 0.896,-0.517 1.83,-0.984 2.794,-1.394 0.947,-0.401 1.93,-0.751 2.941,-1.041 0.357,-0.102 0.652,-0.315 0.861,-0.59 0.211,-0.279 0.331,-0.627 0.332,-0.992 L 4.723,-59.3 c 0,-0.135 0.027,-0.263 0.075,-0.377 0.049,-0.119 0.124,-0.229 0.219,-0.323 0.09,-0.094 0.202,-0.168 0.323,-0.22 0.115,-0.047 0.242,-0.074 0.377,-0.074 h 9.836 c 0.134,0 0.261,0.027 0.377,0.074 0.122,0.052 0.232,0.126 0.324,0.218 0.093,0.096 0.168,0.206 0.218,0.325 0.048,0.114 0.074,0.242 0.074,0.377 v 8.017 c 0,0.381 0.133,0.734 0.356,1.015 0.226,0.288 0.546,0.499 0.91,0.584 0.98,0.284 1.945,0.628 2.888,1.031 0.958,0.407 1.885,0.871 2.777,1.385 0.904,0.524 1.778,1.103 2.613,1.733 0.84,0.633 1.639,1.314 2.389,2.039 0.279,0.267 0.629,0.418 0.988,0.45 0.366,0.033 0.74,-0.055 1.055,-0.265 l 6.862,-3.96 c 0.114,-0.066 0.238,-0.107 0.364,-0.123 0.128,-0.016 0.264,-0.004 0.396,0.03 0.127,0.034 0.247,0.093 0.352,0.173 0.1,0.075 0.187,0.172 0.254,0.289 1.63,2.842 3.286,5.673 4.918,8.515 0.066,0.115 0.107,0.238 0.123,0.363 0.016,0.128 0.005,0.263 -0.029,0.394 -0.035,0.129 -0.093,0.25 -0.172,0.354 -0.074,0.102 -0.171,0.188 -0.283,0.253 l -6.943,4.008 c -0.322,0.184 -0.557,0.461 -0.692,0.777 -0.037,0.085 -0.065,0.173 -0.087,0.263 l -0.181,0.038 0.181,0.735 c 0.127,0.509 0.237,1.018 0.33,1.524 0.09,0.493 0.169,1.01 0.234,1.548 0.064,0.526 0.113,1.046 0.143,1.562 0.03,0.502 0.046,1.027 0.046,1.575 0,0.547 -0.016,1.072 -0.046,1.574 -0.03,0.514 -0.078,1.036 -0.142,1.56 -0.067,0.545 -0.145,1.062 -0.235,1.551 -0.093,0.506 -0.203,1.015 -0.33,1.522 -0.092,0.379 -0.046,0.76 0.105,1.085 0.153,0.324 0.41,0.597 0.739,0.766 l 6.874,3.97 c 0.114,0.064 0.21,0.152 0.287,0.254 0.079,0.101 0.137,0.222 0.172,0.354 0.034,0.13 0.045,0.264 0.029,0.393 -0.016,0.125 -0.057,0.248 -0.123,0.363 -1.679,2.497 -3.36,5.831 -4.918,8.516 -0.067,0.115 -0.154,0.213 -0.254,0.289 -0.103,0.079 -0.225,0.138 -0.352,0.172 -0.132,0.035 -0.267,0.046 -0.395,0.03 -0.122,-0.015 -0.246,-0.056 -0.364,-0.125 l -6.946,-4.009 c -0.327,-0.191 -0.693,-0.254 -1.041,-0.208 -0.35,0.048 -0.681,0.208 -0.94,0.464 -0.753,0.727 -1.549,1.405 -2.377,2.029 -0.825,0.621 -1.695,1.197 -2.605,1.723 -0.897,0.518 -1.83,0.985 -2.794,1.394 -0.947,0.402 -1.929,0.751 -2.94,1.041 -0.357,0.102 -0.653,0.314 -0.862,0.591 -0.211,0.279 -0.331,0.627 -0.331,0.991 l -0.003,8.016 c 0,0.134 -0.026,0.262 -0.074,0.375 -0.05,0.12 -0.125,0.23 -0.219,0.324 -0.091,0.093 -0.201,0.168 -0.323,0.219 -0.116,0.047 -0.243,0.074 -0.377,0.074 H 5.717 C 5.582,10.305 5.455,10.278 5.34,10.231 5.219,10.181 5.107,10.105 5.015,10.014 4.835,9.831 4.723,9.583 4.723,9.313 V 1.297 C 4.723,0.913 4.59,0.56 4.37,0.279 4.14,-0.008 3.821,-0.219 3.458,-0.304 m 1.733,-11.538 c -1.735,-0.719 -3.301,-1.777 -4.617,-3.092 -1.314,-1.314 -2.372,-2.88 -3.092,-4.617 -0.693,-1.673 -1.075,-3.511 -1.075,-5.442 0,-1.932 0.382,-3.771 1.075,-5.444 0.72,-1.736 1.778,-3.302 3.092,-4.617 1.315,-1.314 2.882,-2.372 4.617,-3.092 1.674,-0.693 3.513,-1.076 5.444,-1.076 1.929,0 3.767,0.383 5.44,1.076 1.738,0.719 3.305,1.778 4.62,3.092 1.314,1.315 2.373,2.881 3.092,4.617 0.692,1.673 1.075,3.512 1.075,5.444 0,1.931 -0.383,3.769 -1.075,5.442 -0.719,1.737 -1.777,3.303 -3.092,4.617 -1.315,1.315 -2.882,2.373 -4.617,3.092 -1.673,0.694 -3.511,1.076 -5.443,1.076 -1.931,0 -3.77,-0.382 -5.444,-1.076 m -5.644,-2.064 c 1.443,1.442 3.17,2.607 5.094,3.403 1.85,0.767 3.874,1.19 5.994,1.19 2.119,0 4.143,-0.423 5.993,-1.19 1.924,-0.796 3.652,-1.961 5.095,-3.403 1.442,-1.443 2.607,-3.171 3.403,-5.095 0.766,-1.849 1.188,-3.873 1.188,-5.992 0,-2.12 -0.422,-4.145 -1.188,-5.995 -0.797,-1.923 -1.961,-3.651 -3.403,-5.093 -1.442,-1.442 -3.17,-2.606 -5.093,-3.402 -1.848,-0.768 -3.875,-1.191 -5.995,-1.191 -2.12,0 -4.145,0.423 -5.994,1.19 -1.923,0.796 -3.652,1.961 -5.094,3.403 -1.442,1.442 -2.607,3.17 -3.403,5.093 -0.767,1.849 -1.189,3.875 -1.189,5.995 0,2.119 0.422,4.143 1.189,5.992 0.796,1.924 1.961,3.652 3.403,5.095"
         style="fill:#c0cdea;fill-opacity:1;fill-rule:evenodd;stroke:none"
         id="path86"
         inkscape:connector-curvature="0" /></g><g
       id="g88"
       transform="translate(347.2749,402.0557)"><path
         d="m 0,0 c -0.922,-0.266 -1.796,-0.641 -2.608,-1.11 -0.833,-0.482 -1.601,-1.062 -2.288,-1.725 -0.135,-0.13 -0.334,-0.148 -0.488,-0.06 l -3.093,1.786 -0.016,0.01 c -0.177,0.095 -0.379,0.114 -0.564,0.064 -0.191,-0.05 -0.361,-0.173 -0.466,-0.356 l -0.013,-0.02 -2.175,-3.769 c -0.105,-0.181 -0.126,-0.391 -0.076,-0.582 0.051,-0.19 0.174,-0.361 0.356,-0.466 l 0.021,-0.013 3.068,-1.771 c 0.16,-0.092 0.234,-0.278 0.192,-0.45 l 0.001,-10e-4 c -0.113,-0.455 -0.2,-0.925 -0.258,-1.406 -0.057,-0.468 -0.087,-0.946 -0.087,-1.434 0,-0.486 0.03,-0.966 0.087,-1.432 0.058,-0.481 0.145,-0.951 0.259,-1.408 0.046,-0.189 -0.049,-0.379 -0.216,-0.463 l -3.067,-1.771 c -0.182,-0.105 -0.305,-0.276 -0.356,-0.466 -0.05,-0.19 -0.029,-0.4 0.076,-0.582 l 2.188,-3.79 v 0 c 0.105,-0.181 0.275,-0.305 0.466,-0.356 0.19,-0.05 0.399,-0.03 0.58,0.075 l 0.024,0.013 3.071,1.773 c 0.16,0.092 0.358,0.064 0.486,-0.06 0.687,-0.663 1.455,-1.243 2.288,-1.724 0.816,-0.473 1.697,-0.849 2.625,-1.116 0.18,-0.051 0.297,-0.215 0.298,-0.393 v -3.567 c 0,-0.21 0.086,-0.402 0.225,-0.54 0.139,-0.139 0.33,-0.226 0.54,-0.226 h 4.378 c 0.21,0 0.4,0.087 0.539,0.226 0.141,0.138 0.226,0.33 0.226,0.54 v 3.567 c 0,0.192 0.134,0.356 0.314,0.398 0.923,0.266 1.797,0.642 2.609,1.111 0.832,0.481 1.6,1.061 2.289,1.724 0.139,0.135 0.35,0.15 0.506,0.047 l 3.072,-1.773 c 0.181,-0.105 0.391,-0.125 0.582,-0.075 0.19,0.051 0.36,0.175 0.466,0.356 l 0.012,0.022 2.178,3.769 -0.002,0.001 c 0.105,0.181 0.126,0.39 0.076,0.58 -0.052,0.191 -0.175,0.362 -0.355,0.466 l -3.09,1.783 c -0.16,0.093 -0.234,0.28 -0.192,0.451 h -0.001 c 0.113,0.457 0.2,0.926 0.256,1.407 0.059,0.467 0.088,0.946 0.088,1.433 0,0.488 -0.029,0.967 -0.088,1.435 -0.056,0.48 -0.143,0.95 -0.256,1.405 -0.048,0.191 0.047,0.382 0.215,0.464 l 3.068,1.771 c 0.18,0.104 0.303,0.275 0.355,0.466 0.05,0.19 0.029,0.4 -0.076,0.581 l -0.012,0.023 -2.175,3.768 -0.001,-0.001 c -0.106,0.183 -0.276,0.306 -0.466,0.356 -0.191,0.051 -0.399,0.03 -0.58,-0.073 V -1.109 L 11.921,-2.895 C 11.758,-2.99 11.553,-2.957 11.426,-2.827 10.74,-2.167 9.975,-1.59 9.146,-1.11 8.329,-0.639 7.447,-0.261 6.52,0.005 6.341,0.057 6.224,0.22 6.223,0.397 v 3.569 c 0,0.21 -0.085,0.4 -0.226,0.539 C 5.858,4.645 5.668,4.73 5.458,4.73 H 1.08 C 0.87,4.73 0.679,4.645 0.54,4.505 0.401,4.366 0.315,4.176 0.315,3.966 V 0.397 C 0.315,0.204 0.181,0.043 0,0 m -1.437,-6.597 c 1.205,1.205 2.868,1.95 4.706,1.95 1.837,0 3.501,-0.745 4.706,-1.95 1.205,-1.204 1.949,-2.868 1.949,-4.706 0,-1.838 -0.744,-3.502 -1.949,-4.706 -1.205,-1.204 -2.869,-1.949 -4.706,-1.949 -1.838,0 -3.501,0.745 -4.706,1.949 -1.205,1.204 -1.95,2.868 -1.95,4.706 0,1.838 0.745,3.502 1.95,4.706 m -3.46,-13.173 z"
         style="fill:#c0cdea;fill-opacity:1;fill-rule:evenodd;stroke:none"
         id="path90"
         inkscape:connector-curvature="0" /></g><g
       id="g92"
       transform="translate(671.6875,275.3926)"><path
         d="M 0,0 C -0.922,-0.266 -1.797,-0.642 -2.607,-1.11 -3.439,-1.592 -4.209,-2.173 -4.896,-2.836 -5.031,-2.965 -5.23,-2.983 -5.385,-2.895 l -3.092,1.786 -0.015,0.009 c -0.178,0.097 -0.379,0.115 -0.565,0.065 -0.191,-0.051 -0.361,-0.174 -0.466,-0.356 l -0.014,-0.02 -2.174,-3.769 c -0.105,-0.181 -0.127,-0.391 -0.076,-0.582 0.053,-0.191 0.176,-0.361 0.357,-0.466 l 0.02,-0.013 3.068,-1.771 c 0.16,-0.092 0.235,-0.279 0.194,-0.451 -0.114,-0.456 -0.202,-0.926 -0.26,-1.406 -0.055,-0.468 -0.084,-0.946 -0.084,-1.434 0,-0.486 0.029,-0.965 0.084,-1.433 0.058,-0.481 0.146,-0.95 0.26,-1.407 0.044,-0.189 -0.047,-0.379 -0.217,-0.463 l -3.065,-1.77 v -10e-4 c -0.181,-0.105 -0.304,-0.276 -0.357,-0.466 -0.051,-0.19 -0.029,-0.4 0.076,-0.583 l 2.188,-3.789 c 0.105,-0.181 0.275,-0.305 0.466,-0.355 0.19,-0.051 0.399,-0.031 0.58,0.074 l 0.024,0.013 3.07,1.773 c 0.162,0.092 0.36,0.063 0.487,-0.06 0.687,-0.663 1.455,-1.243 2.289,-1.725 0.816,-0.472 1.695,-0.848 2.625,-1.114 0.179,-0.052 0.296,-0.217 0.296,-0.395 v -3.566 c 0,-0.21 0.088,-0.402 0.227,-0.54 0.139,-0.14 0.33,-0.226 0.539,-0.226 h 4.379 c 0.209,0 0.398,0.086 0.539,0.226 0.139,0.138 0.227,0.33 0.227,0.54 v 3.566 c 0,0.193 0.132,0.357 0.312,0.4 0.922,0.265 1.799,0.64 2.609,1.109 0.833,0.482 1.6,1.062 2.29,1.725 0.138,0.135 0.351,0.151 0.507,0.047 l 3.071,-1.773 c 0.181,-0.106 0.39,-0.125 0.582,-0.074 0.189,0.05 0.359,0.174 0.465,0.355 l 0.013,0.022 2.176,3.769 v 0.001 c 0.104,0.181 0.127,0.39 0.074,0.58 -0.051,0.191 -0.174,0.362 -0.353,0.466 l -3.09,1.783 c -0.162,0.093 -0.236,0.28 -0.193,0.451 0.113,0.457 0.199,0.926 0.257,1.406 0.057,0.468 0.086,0.947 0.086,1.434 0,0.488 -0.029,0.966 -0.086,1.435 -0.058,0.479 -0.144,0.949 -0.257,1.405 -0.047,0.191 0.046,0.381 0.214,0.464 l 3.069,1.771 c 0.179,0.104 0.302,0.275 0.353,0.466 0.053,0.19 0.03,0.399 -0.074,0.58 l -0.014,0.024 -2.174,3.768 v -0.001 c -0.107,0.182 -0.277,0.305 -0.466,0.356 -0.192,0.052 -0.401,0.031 -0.582,-0.073 V -1.109 L 11.922,-2.895 C 11.758,-2.99 11.553,-2.957 11.426,-2.827 10.74,-2.167 9.977,-1.59 9.146,-1.11 8.328,-0.639 7.449,-0.261 6.52,0.005 6.342,0.057 6.225,0.22 6.225,0.398 v 3.568 c 0,0.21 -0.088,0.4 -0.227,0.54 C 5.857,4.645 5.668,4.73 5.459,4.73 H 1.08 C 0.871,4.73 0.68,4.645 0.541,4.506 0.402,4.366 0.314,4.176 0.314,3.966 V 0.398 C 0.314,0.204 0.182,0.043 0,0 m -1.437,-6.597 c 1.205,1.204 2.869,1.95 4.707,1.95 1.837,0 3.5,-0.746 4.705,-1.95 1.203,-1.204 1.949,-2.868 1.949,-4.706 0,-1.838 -0.746,-3.502 -1.949,-4.706 -1.205,-1.204 -2.868,-1.949 -4.705,-1.949 -1.838,0 -3.502,0.745 -4.707,1.949 -1.204,1.204 -1.948,2.868 -1.948,4.706 0,1.838 0.744,3.502 1.948,4.706 m -3.459,-13.174 z"
         style="fill:#c0cdea;fill-opacity:1;fill-rule:evenodd;stroke:none"
         id="path94"
         inkscape:connector-curvature="0" /></g><g
       id="g96"
       transform="translate(695.3223,229.5479)"><path
         d="m 0,0 c 0,0.629 -0.512,1.141 -1.141,1.141 -0.63,0 -1.14,-0.512 -1.14,-1.141 v -2.686 h -2.686 c -0.631,0 -1.14,-0.51 -1.14,-1.14 0,-0.631 0.509,-1.143 1.14,-1.143 h 2.686 v -2.683 c 0,-0.631 0.51,-1.142 1.14,-1.142 0.629,0 1.141,0.511 1.141,1.142 v 2.683 h 2.684 c 0.63,0 1.142,0.512 1.142,1.143 0,0.63 -0.512,1.14 -1.142,1.14 H 0 Z"
         style="fill:#9fb2d9;fill-opacity:1;fill-rule:evenodd;stroke:none"
         id="path98"
         inkscape:connector-curvature="0" /></g><g
       id="g100"
       transform="translate(448.8613,243.5254)"><path
         d="m 0,0 h -68.018 c -2.466,0 -4.488,-2.02 -4.488,-4.489 0,-2.469 2.022,-4.49 4.488,-4.49 H 0 c 2.471,0 4.49,2.021 4.49,4.49 C 4.49,-2.02 2.471,0 0,0"
         style="fill:#00000f;fill-opacity:1;fill-rule:evenodd;stroke:none"
         id="path102"
         inkscape:connector-curvature="0" /></g><g
       id="g104"
       transform="translate(446.584,275.5234)"><path
         d="m 0,0 h -31.477 c -0.259,0 -0.502,-0.212 -0.537,-0.471 l -5.642,-40.035 c -0.035,-0.258 0.146,-0.471 0.406,-0.471 H 5.775 c 0.26,0 0.44,0.213 0.405,0.471 L 0.537,-0.471 C 0.5,-0.212 0.26,0 0,0"
         style="fill:#3b405f;fill-opacity:1;fill-rule:evenodd;stroke:none"
         id="path106"
         inkscape:connector-curvature="0" /></g><g
       id="g108"
       transform="translate(465.4629,243.5254)"><path
         d="m 0,0 h -68.016 c -2.47,0 -4.49,-2.02 -4.49,-4.489 0,-2.469 2.02,-4.49 4.49,-4.49 H 0 c 2.469,0 4.49,2.021 4.49,4.49 C 4.49,-2.02 2.469,0 0,0"
         style="fill:#3b405f;fill-opacity:1;fill-rule:evenodd;stroke:none"
         id="path110"
         inkscape:connector-curvature="0" /></g><g
       id="g112"
       transform="translate(499.6973,363.7266)"><path
         d="m 0,0 h -150.791 c -1.278,0 -2.325,-1.046 -2.325,-2.324 v -100.84 c 0,-1.279 1.047,-2.325 2.325,-2.325 H 0 c 1.279,0 2.324,1.046 2.324,2.325 V -2.324 C 2.324,-1.046 1.279,0 0,0"
         style="fill:#00000f;fill-opacity:1;fill-rule:evenodd;stroke:none"
         id="path114"
         inkscape:connector-curvature="0" /></g><g
       id="g116"
       transform="translate(507.0684,363.7266)"><path
         d="m 0,0 h -150.791 c -1.277,0 -2.324,-1.046 -2.324,-2.324 v -100.84 c 0,-1.279 1.047,-2.325 2.324,-2.325 H 0 c 1.279,0 2.326,1.046 2.326,2.325 V -2.324 C 2.326,-1.046 1.279,0 0,0"
         style="fill:#3b405f;fill-opacity:1;fill-rule:evenodd;stroke:none"
         id="path118"
         inkscape:connector-curvature="0" /></g><g
       id="g120"
       transform="translate(505.8105,362.2139)"><path
         d="m 0,0 h -148.272 c -0.847,0 -1.541,-0.695 -1.541,-1.54 v -90.926 c 0,-0.529 0.432,-0.959 0.959,-0.959 H 0.58 c 0.529,0 0.959,0.43 0.959,0.959 V -1.54 C 1.539,-0.695 0.846,0 0,0"
         style="fill:#101537;fill-opacity:1;fill-rule:evenodd;stroke:none"
         id="path122"
         inkscape:connector-curvature="0" /></g><path
       d="m 502.994,273.144 h -142.64 v 84.714 h 142.64 z"
       style="fill:#262626;fill-opacity:1;fill-rule:evenodd;stroke:none"
       id="path124"
       inkscape:connector-curvature="0" /><g
       id="g126"
       transform="translate(418.457,254.0869)"><path
         d="M 0,0 -1.488,-10.562 H -8.33 L -6.258,4.15 h 35.303 1.988 l 0.52,-3.678 H 29.564 0.537 C 0.277,0.472 0.037,0.26 0,0"
         style="fill:#101537;fill-opacity:1;fill-rule:evenodd;stroke:none"
         id="path128"
         inkscape:connector-curvature="0" /></g><path
       d="m 360.352,352.985 h 143.134 v 4.872 H 360.352 Z"
       style="fill:#ffffff;fill-opacity:1;fill-rule:evenodd;stroke:none"
       id="path130"
       inkscape:connector-curvature="0" /><path
       d="m 360.352,273.144 h 143.134 v 4.873 H 360.352 Z"
       style="fill:#ffffff;fill-opacity:1;fill-rule:evenodd;stroke:none"
       id="path132"
       inkscape:connector-curvature="0" /><path
       d="m 361.25,354.02 h 35.947 v 2.804 H 361.25 Z"
       style="fill:#e4e1e8;fill-opacity:1;fill-rule:evenodd;stroke:none"
       id="path134"
       inkscape:connector-curvature="0" /><g
       id="g136"
       transform="translate(395.4727,354.8086)"><path
         d="M 0,0 C 0.338,0 0.613,0.274 0.613,0.613 0.613,0.951 0.338,1.228 0,1.228 -0.338,1.228 -0.613,0.951 -0.613,0.613 -0.613,0.274 -0.338,0 0,0"
         style="fill:#d64c47;fill-opacity:1;fill-rule:evenodd;stroke:none"
         id="path138"
         inkscape:connector-curvature="0" /></g><g
       id="g140"
       transform="translate(393.6035,354.8086)"><path
         d="M 0,0 C 0.338,0 0.615,0.274 0.615,0.613 0.615,0.951 0.338,1.228 0,1.228 -0.338,1.228 -0.613,0.951 -0.613,0.613 -0.613,0.274 -0.338,0 0,0"
         style="fill:#d64c47;fill-opacity:1;fill-rule:evenodd;stroke:none"
         id="path142"
         inkscape:connector-curvature="0" /></g><g
       id="g144"
       transform="translate(391.7344,354.8086)"><path
         d="M 0,0 C 0.338,0 0.615,0.274 0.615,0.613 0.615,0.951 0.338,1.228 0,1.228 -0.338,1.228 -0.613,0.951 -0.613,0.613 -0.613,0.274 -0.338,0 0,0"
         style="fill:#d64c47;fill-opacity:1;fill-rule:evenodd;stroke:none"
         id="path146"
         inkscape:connector-curvature="0" /></g><path
       d="m 398.895,354.02 h 35.947 v 2.804 h -35.947 z"
       style="fill:#e4e1e8;fill-opacity:1;fill-rule:evenodd;stroke:none"
       id="path148"
       inkscape:connector-curvature="0" /><g
       id="g150"
       transform="translate(433.1152,354.8086)"><path
         d="M 0,0 C 0.34,0 0.615,0.274 0.615,0.613 0.615,0.951 0.34,1.228 0,1.228 -0.336,1.228 -0.613,0.951 -0.613,0.613 -0.613,0.274 -0.336,0 0,0"
         style="fill:#d64c47;fill-opacity:1;fill-rule:evenodd;stroke:none"
         id="path152"
         inkscape:connector-curvature="0" /></g><g
       id="g154"
       transform="translate(431.248,354.8086)"><path
         d="M 0,0 C 0.338,0 0.613,0.274 0.613,0.613 0.613,0.951 0.338,1.228 0,1.228 -0.338,1.228 -0.615,0.951 -0.615,0.613 -0.615,0.274 -0.338,0 0,0"
         style="fill:#d64c47;fill-opacity:1;fill-rule:evenodd;stroke:none"
         id="path156"
         inkscape:connector-curvature="0" /></g><g
       id="g158"
       transform="translate(429.3789,354.8086)"><path
         d="M 0,0 C 0.338,0 0.615,0.274 0.615,0.613 0.615,0.951 0.338,1.228 0,1.228 -0.338,1.228 -0.613,0.951 -0.613,0.613 -0.613,0.274 -0.338,0 0,0"
         style="fill:#d64c47;fill-opacity:1;fill-rule:evenodd;stroke:none"
         id="path160"
         inkscape:connector-curvature="0" /></g><g
       id="g202"
       transform="translate(430.6152,248.0176)"><path
         d="m 0,0 h 88.424 c 4.939,0 8.982,-4.041 8.982,-8.981 0,-4.94 -4.043,-8.982 -8.982,-8.982 H 0 c -4.937,0 -8.98,4.042 -8.98,8.982 C -8.98,-4.041 -4.937,0 0,0"
         style="fill:#101537;fill-opacity:1;fill-rule:evenodd;stroke:none"
         id="path204"
         inkscape:connector-curvature="0" /></g><g
       id="g206"
       transform="translate(413.7383,248.0176)"><path
         d="m 0,0 h 40.955 c 4.938,0 8.981,-4.041 8.981,-8.981 0,-4.94 -4.043,-8.982 -8.981,-8.982 H 0 c -4.939,0 -8.982,4.042 -8.982,8.982 C -8.982,-4.041 -4.939,0 0,0"
         style="fill:#070725;fill-opacity:1;fill-rule:evenodd;stroke:none"
         id="path208"
         inkscape:connector-curvature="0" /></g><g
       id="g210"
       transform="translate(368.0718,233.3262)"><path
         d="m 0,0 h 274.192 c 2.766,0 5.027,-2.263 5.027,-5.027 v -23.462 c 0,-2.763 -2.261,-5.027 -5.027,-5.027 H 0 c -2.765,0 -5.026,2.264 -5.026,5.027 V -5.027 C -5.026,-2.263 -2.765,0 0,0"
         style="fill:#101537;fill-opacity:1;fill-rule:evenodd;stroke:none"
         id="path212"
         inkscape:connector-curvature="0" /></g><g
       id="g214"
       transform="translate(367.9331,233.3262)"><path
         d="m 0,0 h 274.469 c 2.69,0 4.889,-2.263 4.889,-5.027 v -9.228 c 0,-2.766 -2.199,-5.026 -4.889,-5.026 H 0 c -2.689,0 -4.888,2.26 -4.888,5.026 v 9.228 C -4.888,-2.263 -2.689,0 0,0"
         style="fill:#00000f;fill-opacity:1;fill-rule:evenodd;stroke:none"
         id="path216"
         inkscape:connector-curvature="0" /></g><g
       id="g218"
       transform="translate(292.7275,232.9092)"><path
         d="m 0,0 h 75.864 c 2.867,0 5.213,-2.347 5.213,-5.21 v -172.787 c 0,-2.863 -2.346,-5.211 -5.213,-5.211 H 0 c -2.866,0 -5.212,2.348 -5.212,5.211 V -5.21 C -5.212,-2.347 -2.866,0 0,0"
         style="fill:#00000f;fill-opacity:1;fill-rule:evenodd;stroke:none"
         id="path220"
         inkscape:connector-curvature="0" /></g><g
       id="g222"
       transform="translate(367.6528,232.9092)"><path
         d="m 0,0 h 67.912 c 2.564,0 4.664,-2.097 4.664,-4.665 v -173.877 c 0,-2.568 -2.1,-4.666 -4.664,-4.666 H 0 c -2.567,0 -4.666,2.098 -4.666,4.666 V -4.665 C -4.666,-2.097 -2.567,0 0,0"
         style="fill:#101537;fill-opacity:1;fill-rule:evenodd;stroke:none"
         id="path224"
         inkscape:connector-curvature="0" /></g><g
       id="g226"
       transform="translate(364.7583,239.0361)"><path
         d="m 0,0 h 294.263 c 0.944,0 1.713,-0.771 1.713,-1.713 v -7.995 c 0,-0.942 -0.769,-1.713 -1.713,-1.713 H 0 c -0.943,0 -1.713,0.771 -1.713,1.713 v 7.995 C -1.713,-0.771 -0.943,0 0,0"
         style="fill:#d58750;fill-opacity:1;fill-rule:evenodd;stroke:none"
         id="path228"
         inkscape:connector-curvature="0" /></g><g
       id="g230"
       transform="translate(280.3501,239.0361)"><path
         d="m 0,0 h 84.012 c 0.943,0 1.713,-0.771 1.713,-1.713 v -7.995 c 0,-0.942 -0.77,-1.713 -1.713,-1.713 H 0 c -0.942,0 -1.713,0.771 -1.713,1.713 v 7.995 C -1.713,-0.771 -0.942,0 0,0"
         style="fill:#b56b41;fill-opacity:1;fill-rule:evenodd;stroke:none"
         id="path232"
         inkscape:connector-curvature="0" /></g><g
       id="g234"
       transform="translate(372.6567,221.834)"><path
         d="m 0,0 h 57.902 c 2.139,0 3.89,-1.75 3.89,-3.889 v -44.883 c 0,-2.138 -1.751,-3.889 -3.89,-3.889 H 0 c -2.14,0 -3.891,1.751 -3.891,3.889 V -3.889 C -3.891,-1.75 -2.14,0 0,0"
         style="fill:#ffffff;fill-opacity:1;fill-rule:evenodd;stroke:none"
         id="path236"
         inkscape:connector-curvature="0" /></g><g
       id="g238"
       transform="translate(434.4043,172.4814)"><path
         d="m 0,0 h -57.113 c -1.523,0 -2.849,0.888 -3.487,2.171 -0.259,0.519 -0.403,1.103 -0.403,1.72 v 44.881 c 0,0.198 0.014,0.393 0.044,0.581 h -0.789 c -2.139,0 -3.89,-1.75 -3.89,-3.889 V 0.58 c 0,-2.138 1.751,-3.889 3.89,-3.889 h 1.148 56.754 c 1.942,0 3.563,1.443 3.846,3.309"
         style="fill:#e4e1e8;fill-opacity:1;fill-rule:evenodd;stroke:none"
         id="path240"
         inkscape:connector-curvature="0" /></g><g
       id="g242"
       transform="translate(387.6348,218.7285)"><path
         d="m 0,0 h 27.945 c 0.826,0 1.502,-0.675 1.502,-1.502 v -0.473 c 0,-0.825 -0.676,-1.502 -1.502,-1.502 L 0,-3.477 c -0.826,0 -1.502,0.677 -1.502,1.502 v 0.473 C -1.502,-0.675 -0.826,0 0,0"
         style="fill:#070725;fill-opacity:1;fill-rule:evenodd;stroke:none"
         id="path244"
         inkscape:connector-curvature="0" /></g><g
       id="g246"
       transform="translate(372.6567,166.3838)"><path
         d="m 0,0 h 57.902 c 2.139,0 3.89,-1.75 3.89,-3.891 v -44.881 c 0,-2.139 -1.751,-3.891 -3.89,-3.891 H 0 c -2.14,0 -3.891,1.752 -3.891,3.891 V -3.891 C -3.891,-1.75 -2.14,0 0,0"
         style="fill:#ffffff;fill-opacity:1;fill-rule:evenodd;stroke:none"
         id="path248"
         inkscape:connector-curvature="0" /></g><g
       id="g250"
       transform="translate(434.4043,117.0322)"><path
         d="m 0,0 h -57.113 c -1.523,0 -2.849,0.885 -3.487,2.17 -0.259,0.519 -0.403,1.101 -0.403,1.72 v 44.882 c 0,0.197 0.014,0.39 0.044,0.58 h -0.789 c -2.139,0 -3.89,-1.75 -3.89,-3.891 V 0.579 c 0,-2.139 1.751,-3.891 3.89,-3.891 h 1.148 56.754 c 1.942,0 3.563,1.444 3.846,3.312"
         style="fill:#e4e1e8;fill-opacity:1;fill-rule:evenodd;stroke:none"
         id="path252"
         inkscape:connector-curvature="0" /></g><g
       id="g254"
       transform="translate(387.6348,163.2783)"><path
         d="m 0,0 h 27.945 c 0.826,0 1.502,-0.677 1.502,-1.502 v -0.472 c 0,-0.826 -0.676,-1.502 -1.502,-1.502 H 0 c -0.826,0 -1.502,0.676 -1.502,1.502 v 0.472 C -1.502,-0.677 -0.826,0 0,0"
         style="fill:#070725;fill-opacity:1;fill-rule:evenodd;stroke:none"
         id="path256"
         inkscape:connector-curvature="0" /></g><g
       id="g258"
       transform="translate(372.6567,110.9336)"><path
         d="m 0,0 h 57.902 c 2.139,0 3.89,-1.751 3.89,-3.892 v -44.88 c 0,-2.141 -1.751,-3.891 -3.89,-3.891 H 0 c -2.14,0 -3.891,1.75 -3.891,3.891 v 44.88 C -3.891,-1.751 -2.14,0 0,0"
         style="fill:#ffffff;fill-opacity:1;fill-rule:evenodd;stroke:none"
         id="path260"
         inkscape:connector-curvature="0" /></g><g
       id="g262"
       transform="translate(434.4043,61.5801)"><path
         d="m 0,0 h -57.113 c -1.523,0 -2.849,0.888 -3.487,2.17 -0.259,0.519 -0.403,1.104 -0.403,1.722 v 44.88 c 0,0.199 0.014,0.391 0.044,0.582 h -0.789 c -2.139,0 -3.89,-1.751 -3.89,-3.892 V 0.581 c 0,-2.141 1.751,-3.891 3.89,-3.891 h 1.148 56.754 c 1.942,0 3.563,1.443 3.846,3.31"
         style="fill:#e4e1e8;fill-opacity:1;fill-rule:evenodd;stroke:none"
         id="path264"
         inkscape:connector-curvature="0" /></g><g
       id="g266"
       transform="translate(387.6348,107.8271)"><path
         d="m 0,0 h 27.945 c 0.826,0 1.502,-0.675 1.502,-1.501 v -0.474 c 0,-0.826 -0.676,-1.501 -1.502,-1.501 H 0 c -0.826,0 -1.502,0.675 -1.502,1.501 v 0.474 C -1.502,-0.675 -0.826,0 0,0"
         style="fill:#070725;fill-opacity:1;fill-rule:evenodd;stroke:none"
         id="path268"
         inkscape:connector-curvature="0" /></g><g
       id="g270"
       transform="translate(601.2363,232.9092)"><path
         d="m 0,0 h -10.475 c -0.254,0 -0.463,-0.207 -0.463,-0.463 v -184.498 c 0,-0.256 0.209,-0.465 0.463,-0.465 H 0 c 0.256,0 0.465,0.209 0.465,0.465 V -0.463 C 0.465,-0.207 0.256,0 0,0"
         style="fill:#aeabba;fill-opacity:1;fill-rule:evenodd;stroke:none"
         id="path272"
         inkscape:connector-curvature="0" /></g><g
       id="g274"
       transform="translate(601.1289,232.9092)"><path
         d="m 0,0 h -3.266 c -1.285,0 -2.338,-1.051 -2.338,-2.336 v -180.753 c 0,-1.284 1.053,-2.337 2.338,-2.337 H 0 c 1.285,0 2.338,1.053 2.338,2.337 V -2.336 C 2.338,-1.051 1.285,0 0,0"
         style="fill:#ffffff;fill-opacity:1;fill-rule:evenodd;stroke:none"
         id="path276"
         inkscape:connector-curvature="0" /></g><g
       id="g278"
       transform="translate(650.2832,232.9092)"><path
         d="m 0,0 h -10.475 c -0.255,0 -0.463,-0.207 -0.463,-0.463 v -184.498 c 0,-0.256 0.208,-0.465 0.463,-0.465 H 0 c 0.254,0 0.465,0.209 0.465,0.465 V -0.463 C 0.465,-0.207 0.254,0 0,0"
         style="fill:#aeabba;fill-opacity:1;fill-rule:evenodd;stroke:none"
         id="path280"
         inkscape:connector-curvature="0" /></g><g
       id="g282"
       transform="translate(650.1738,232.9092)"><path
         d="m 0,0 h -3.266 c -1.285,0 -2.336,-1.051 -2.336,-2.336 v -180.753 c 0,-1.284 1.051,-2.337 2.336,-2.337 H 0 c 1.287,0 2.338,1.053 2.338,2.337 V -2.336 C 2.338,-1.051 1.287,0 0,0"
         style="fill:#ffffff;fill-opacity:1;fill-rule:evenodd;stroke:none"
         id="path284"
         inkscape:connector-curvature="0" /></g><g
       id="g286"
       transform="translate(488.168,239.0361)"><path
         d="m 0,0 h 170.854 c 0.943,0 1.712,-0.771 1.712,-1.713 v -7.995 c 0,-0.942 -0.769,-1.713 -1.712,-1.713 H 11.125 C 8.068,-7.232 4.137,-3.389 0,0"
         style="fill:#b56b41;fill-opacity:1;fill-rule:evenodd;stroke:none"
         id="path288"
         inkscape:connector-curvature="0" /></g><g
       id="g290"
       transform="translate(550.2109,288.6133)"><path
         d="m 0,0 2.146,-3.588 c 0,0 0.834,-4.355 -0.408,-7.336 -1.24,-2.978 14.235,-6.206 14.235,-6.206 l 11.998,9.684 2.648,3.309 c 0,0 -5.627,6.124 -5.959,8.773 C 24.33,7.283 0,0 0,0"
         style="fill:#ed7862;fill-opacity:1;fill-rule:evenodd;stroke:none"
         id="path292"
         inkscape:connector-curvature="0" /></g><g
       id="g294"
       transform="translate(523.4766,254.3066)"><path
         d="m 0,0 c 0,0 -8.109,-6.537 -10.924,-7.033 -2.812,-0.497 -15.14,5.213 -17.625,5.875 -2.48,0.662 -8.025,0.662 -11.916,0.662 -3.889,0 -8.027,-1.489 -10.096,-5.793 h 8.276 c 2.234,0 9.765,-6.122 17.047,-11.088 7.283,-4.965 13.074,-9.103 17.877,-8.606 4.798,0.498 21.349,12.91 21.349,12.91 z"
         style="fill:#f5ac83;fill-opacity:1;fill-rule:evenodd;stroke:none"
         id="path296"
         inkscape:connector-curvature="0" /></g><g
       id="g298"
       transform="translate(498.2383,236.9297)"><path
         d="m 0,0 c 7.283,-4.965 13.074,-9.104 17.877,-8.606 4.799,0.498 21.35,12.91 21.35,12.91 L 25.238,17.377 c 0,0 -1.876,-1.51 -4.132,-3.132 C 27,4.881 24.343,0.836 17.429,-1.93 11.885,-4.147 -2.214,3.559 -11.078,7.864 -7.884,5.658 -3.909,2.666 0,0"
         style="fill:#ed7862;fill-opacity:1;fill-rule:evenodd;stroke:none"
         id="path300"
         inkscape:connector-curvature="0" /></g><g
       id="g302"
       transform="translate(589.6445,177.916)"><path
         d="m 0,0 c 0,0 -41.869,0.38 -47.047,-0.063 -5.178,-0.445 -10.168,-5.895 -9.307,-14.31 0.862,-8.416 12.583,-73.994 12.583,-73.994 0,0 0.789,-0.585 1.699,-0.772 0.91,-0.185 8.4,-1.422 8.4,-1.422 l 0.506,6.083 -4.383,63.793 38.617,7.047 z"
         style="fill:#070725;fill-opacity:1;fill-rule:evenodd;stroke:none"
         id="path304"
         inkscape:connector-curvature="0" /></g><g
       id="g306"
       transform="translate(556.4785,93.4395)"><path
         d="m 0,0 c 0,0 0.877,-0.241 1.264,-1.362 0.388,-1.121 1.189,-8.365 1.113,-9.401 -0.074,-1.034 -2.656,-3.036 -7.076,-4.912 -4.42,-1.877 -21.242,-6.788 -21.242,-6.788 l -0.186,0.611 c 0,0 -0.791,0.346 -1.113,1.38 -0.322,1.034 -0.213,3.327 0.709,4.635 0.918,1.308 6.351,5.032 7.344,5.83 0.988,0.799 5.908,7.645 6.308,8.104 0.399,0.459 3,2.105 6.07,0.392 C -3.734,-3.225 -0.256,-2.618 0,0"
         style="fill:#d64c47;fill-opacity:1;fill-rule:evenodd;stroke:none"
         id="path308"
         inkscape:connector-curvature="0" /></g><g
       id="g310"
       transform="translate(530.3516,71.5879)"><path
         d="m 0,0 c 0,0 16.777,6.157 20.457,7.452 3.68,1.294 8.006,4.787 8.006,4.787 0,0 0.596,-0.27 0.721,-0.76 0.127,-0.49 0.224,-2.205 0.267,-2.567 C 29.494,8.549 29.369,6.928 27.531,6.141 25.693,5.352 2.252,-2.906 1.182,-3.26 c -1.073,-0.354 -1.504,2.485 -1.504,2.485 0,0 -0.067,0.606 0.322,0.775"
         style="fill:#ffffff;fill-opacity:1;fill-rule:evenodd;stroke:none"
         id="path312"
         inkscape:connector-curvature="0" /></g><g
       id="g314"
       transform="translate(615.5703,203.9082)"><path
         d="m 0,0 c 0,0 -111.91,-12.923 -118.033,-14.246 -6.125,-1.325 -11.254,-8.607 -8.936,-18.538 2.317,-9.929 27.397,-89.677 27.397,-89.677 0,0 1.035,-0.579 2.152,-0.662 1.117,-0.082 10.264,-0.412 10.264,-0.412 l 3.597,3.681 -20.031,71.184 81.76,4.138 C 1.105,-40.836 4.217,-12.909 0,0"
         style="fill:#181d3b;fill-opacity:1;fill-rule:evenodd;stroke:none"
         id="path316"
         inkscape:connector-curvature="0" /></g><g
       id="g318"
       transform="translate(536.8359,195.3818)"><path
         d="m 0,0 c 0,0 8.938,-6.621 14.316,-4.468 5.379,2.152 31.198,46.756 31.198,46.756 L 33.102,86.975 c 0,0 -8.276,-0.331 -18.123,-2.484 l -1.864,-1.696 c 0,0 -7.279,-1.24 -11.418,-5.874 -4.138,-4.634 -17.709,-16.716 -18.207,-17.708 -0.496,-0.994 11.834,-14.565 14.981,-16.717 0,0 1.488,-0.496 2.398,0.414 l 1.492,1.201 c 0,0 3.311,-17.236 3.311,-22.344 V 16.661 C 5.672,16.661 3.934,3.48 2.611,2.238 1.287,0.997 0,0 0,0"
         style="fill:#d64c47;fill-opacity:1;fill-rule:evenodd;stroke:none"
         id="path320"
         inkscape:connector-curvature="0" /></g><g
       id="g322"
       transform="translate(576.793,186.8867)"><path
         d="M 0,0 C 2.072,0 3.754,1.68 3.754,3.752 3.754,5.825 2.072,7.506 0,7.506 h -33.102 c -4.515,0 -8.625,1.849 -11.605,4.831 -2.178,2.179 -3.754,4.959 -4.443,8.059 -2.192,-0.868 -4.557,-2.047 -6.881,-3.334 1.156,-3.833 3.252,-7.267 6.017,-10.032 C -45.676,2.692 -39.689,0 -33.102,0 Z"
         style="fill:#ffffff;fill-opacity:1;fill-rule:evenodd;stroke:none"
         id="path324"
         inkscape:connector-curvature="0" /></g><path
       d="m 576.996,78.903 h 9.512 v 78.245 h -9.512 z"
       style="fill:#070725;fill-opacity:1;fill-rule:evenodd;stroke:none"
       id="path326"
       inkscape:connector-curvature="0" /><path
       d="m 564.375,162.248 h 9.268 v 21.185 h -9.268 z"
       style="fill:#00000f;fill-opacity:1;fill-rule:evenodd;stroke:none"
       id="path328"
       inkscape:connector-curvature="0" /><path
       d="m 628.426,162.248 h 9.268 v 21.185 h -9.268 z"
       style="fill:#00000f;fill-opacity:1;fill-rule:evenodd;stroke:none"
       id="path330"
       inkscape:connector-curvature="0" /><g
       id="g332"
       transform="translate(576.998,137.8262)"><path
         d="m 0,0 h 9.51 c 3.027,0 5.506,2.479 5.506,5.507 V 15.68 c 0,3.028 -2.479,5.505 -5.506,5.505 H 0 c -3.027,0 -5.506,-2.477 -5.506,-5.505 V 5.507 C -5.506,2.479 -3.027,0 0,0"
         style="fill:#3b405f;fill-opacity:1;fill-rule:evenodd;stroke:none"
         id="path334"
         inkscape:connector-curvature="0" /></g><g
       id="g336"
       transform="translate(569.4277,144.7031)"><path
         d="m 0,0 h 24.648 c 0.87,0 1.579,0.711 1.579,1.579 v 12.793 c 0,0.868 -0.709,1.578 -1.579,1.578 H 0 c -0.867,0 -1.576,-0.71 -1.576,-1.578 V 1.579 C -1.576,0.711 -0.867,0 0,0"
         style="fill:#070725;fill-opacity:1;fill-rule:evenodd;stroke:none"
         id="path338"
         inkscape:connector-curvature="0" /></g><g
       id="g340"
       transform="translate(508.7656,166.7139)"><path
         d="m 0,0 h 77.125 c 2.914,0 5.295,-2.383 5.295,-5.296 v -5.959 c 0,-2.913 -2.381,-5.296 -5.295,-5.296 H 0 c -2.914,0 -5.297,2.383 -5.297,5.296 v 5.959 C -5.297,-2.383 -2.914,0 0,0"
         style="fill:#f18a00;fill-opacity:1;fill-rule:evenodd;stroke:none"
         id="path342"
         inkscape:connector-curvature="0" /></g><g
       id="g344"
       transform="translate(564.8691,166.7139)"><path
         d="m 0,0 h 77.125 c 2.912,0 5.297,-2.383 5.297,-5.296 v -5.959 c 0,-2.913 -2.385,-5.296 -5.297,-5.296 H 0 c -2.914,0 -5.297,2.383 -5.297,5.296 v 5.959 C -5.297,-2.383 -2.914,0 0,0"
         style="fill:#fcc100;fill-opacity:1;fill-rule:evenodd;stroke:none"
         id="path346"
         inkscape:connector-curvature="0" /></g><g
       id="g348"
       transform="translate(576.998,84.0029)"><path
         d="m 0,0 h 9.51 c 3.027,0 5.506,-2.477 5.506,-5.506 v -10.173 c 0,-3.028 -2.479,-5.505 -5.506,-5.505 H 0 c -3.027,0 -5.506,2.477 -5.506,5.505 V -5.506 C -5.506,-2.477 -3.027,0 0,0"
         style="fill:#3b405f;fill-opacity:1;fill-rule:evenodd;stroke:none"
         id="path350"
         inkscape:connector-curvature="0" /></g><g
       id="g352"
       transform="translate(570.1289,73.9131)"><path
         d="m 0,0 h 23.246 c 1.252,0 2.279,-1.023 2.279,-2.279 v -18.474 c 0,-1.253 -1.027,-2.277 -2.279,-2.277 H 0 c -1.252,0 -2.277,1.024 -2.277,2.277 V -2.279 C -2.277,-1.023 -1.252,0 0,0"
         style="fill:#070725;fill-opacity:1;fill-rule:evenodd;stroke:none"
         id="path354"
         inkscape:connector-curvature="0" /></g><g
       id="g356"
       transform="translate(606.9922,56.5273)"><path
         d="m 0,0 v 0 c 0,-3.754 -3.072,-6.826 -6.826,-6.826 h -36.826 c -3.756,0 -6.827,3.072 -6.827,6.826 0,3.755 3.071,6.827 6.827,6.827 H -6.826 C -3.072,6.827 0,3.755 0,0"
         style="fill:#707386;fill-opacity:1;fill-rule:evenodd;stroke:none"
         id="path358"
         inkscape:connector-curvature="0" /></g><g
       id="g360"
       transform="translate(642.8242,49.7012)"><path
         d="m 0,0 v 0 c 0,-3.754 -3.074,-6.827 -6.826,-6.827 h -93.594 c -3.756,0 -6.828,3.073 -6.828,6.827 0,3.756 3.072,6.826 6.828,6.826 H -6.826 C -3.074,6.826 0,3.756 0,0"
         style="fill:#101537;fill-opacity:1;fill-rule:evenodd;stroke:none"
         id="path362"
         inkscape:connector-curvature="0" /></g><g
       id="g364"
       transform="translate(584.2363,49.7012)"><path
         d="m 0,0 v 0 c 0,-3.754 -3.072,-6.827 -6.828,-6.827 h -49.901 c -3.755,0 -6.828,3.073 -6.828,6.827 0,3.756 3.073,6.826 6.828,6.826 H -6.828 C -3.072,6.826 0,3.756 0,0"
         style="fill:#00000f;fill-opacity:1;fill-rule:evenodd;stroke:none"
         id="path366"
         inkscape:connector-curvature="0" /></g><g
       id="g368"
       transform="translate(562.8906,212.043)"><path
         d="M 0,0 C 2.072,0 3.754,-1.681 3.754,-3.753 3.754,-5.826 2.072,-7.507 0,-7.507 h -33.1 c -4.517,0 -8.627,-1.85 -11.607,-4.832 -2.981,-2.979 -4.834,-7.09 -4.834,-11.606 v -29.832 c 0,-2.073 -1.68,-3.753 -3.752,-3.753 -2.072,0 -3.754,1.68 -3.754,3.753 v 29.832 c 0,6.587 2.693,12.575 7.033,16.914 C -45.676,-2.693 -39.689,0 -33.1,0 Z"
         style="fill:#ffffff;fill-opacity:1;fill-rule:evenodd;stroke:none"
         id="path370"
         inkscape:connector-curvature="0" /></g><g
       id="g372"
       transform="translate(636.3672,252.0303)"><path
         d="m 0,0 c 0,22.621 -18.508,41.13 -41.131,41.13 h -5.457 C -69.211,41.13 -87.719,22.621 -87.719,0 v -61.173 c 0,-5.813 4.758,-10.571 10.573,-10.571 h 66.574 c 5.814,0 10.572,4.758 10.572,10.571 z"
         style="fill:#f18a00;fill-opacity:1;fill-rule:evenodd;stroke:none"
         id="path374"
         inkscape:connector-curvature="0" /></g><g
       id="g376"
       transform="translate(647.291,252.0303)"><path
         d="m 0,0 c 0,22.621 -18.508,41.13 -41.131,41.13 h -5.457 C -69.211,41.13 -87.719,22.621 -87.719,0 v -61.173 c 0,-5.813 4.758,-10.571 10.573,-10.571 h 66.574 c 5.814,0 10.572,4.758 10.572,10.571 z"
         style="fill:#fcc100;fill-opacity:1;fill-rule:evenodd;stroke:none"
         id="path378"
         inkscape:connector-curvature="0" /></g><g
       id="g380"
       transform="translate(531.1348,86.9092)"><path
         d="m 0,0 c 0,0 1.432,-0.015 2.342,-1.214 0.91,-1.201 4.138,-9.475 4.304,-10.717 0.165,-1.241 -3.31,-4.385 -9.681,-7.943 -6.373,-3.558 -31.24,-14.481 -31.24,-14.481 l -0.455,0.662 c 0,0 -1.325,0.167 -2.11,1.283 -0.787,1.116 -1.242,3.847 -0.166,5.668 1.074,1.82 8.522,7.861 9.846,9.103 1.326,1.243 7.119,10.799 7.615,11.461 0.496,0.662 4.096,3.394 9.352,2.319 C -4.939,-4.936 0.316,-3.156 0,0"
         style="fill:#d64c47;fill-opacity:1;fill-rule:evenodd;stroke:none"
         id="path382"
         inkscape:connector-curvature="0" /></g><g
       id="g384"
       transform="translate(496.4043,53.2158)"><path
         d="m 0,0 c 0,0 24.455,12.375 29.834,15.022 5.379,2.648 11.164,8.081 11.164,8.081 0,0 1,-0.137 1.332,-0.674 0.33,-0.539 0.951,-2.524 1.117,-2.938 0.164,-0.415 0.414,-2.357 -2.236,-3.847 C 38.564,14.154 4.303,-2.729 2.732,-3.473 c -1.574,-0.744 -3.021,2.462 -3.021,2.462 0,0 -0.268,0.694 0.289,1.011"
         style="fill:#ffffff;fill-opacity:1;fill-rule:evenodd;stroke:none"
         id="path386"
         inkscape:connector-curvature="0" /></g><g
       id="g388"
       transform="translate(543.0859,338.9756)"><path
         d="m 0,0 3.975,0.931 c 9.488,2.219 19.066,-3.728 21.287,-13.217 l 4.445,-18.997 c 2.219,-9.489 -3.728,-19.071 -13.219,-21.29 l -3.97,-0.929 c -9.491,-2.221 -19.071,3.728 -21.291,13.216 l -4.444,18.998 C -15.436,-11.799 -9.488,-2.22 0,0"
         style="fill:#f5ac83;fill-opacity:1;fill-rule:evenodd;stroke:none"
         id="path390"
         inkscape:connector-curvature="0" /></g><g
       id="g392"
       transform="translate(568.8574,324.5098)"><path
         d="m 0,0 3.936,-16.817 c 2.218,-9.49 -3.729,-19.071 -13.219,-21.29 l -3.971,-0.929 c -3.935,-0.921 -7.885,-0.436 -11.318,1.122 0.468,-0.197 3.838,-1.509 4.588,0.97 0.808,2.666 -3.795,11.228 -3.795,11.228 0,0 -0.305,0.567 0.08,1.091 0.383,0.525 3.019,5.229 1.875,10.937 -1.149,5.704 6.228,9.682 6.228,9.682 l -17.07,-4.624 v -3.474 c 0,0 -1.852,3.868 -6.096,4.311 l -0.226,0.971 c -1.045,4.468 -0.28,8.957 1.816,12.688 C -31.506,5.175 -12.963,2.812 0,0"
         style="fill:#ed7862;fill-opacity:1;fill-rule:evenodd;stroke:none"
         id="path394"
         inkscape:connector-curvature="0" /></g><g
       id="g396"
       transform="translate(537.3301,307.0781)"><path
         d="m 0,0 c 0,0 -1.547,0.166 -2.059,2.347 -0.509,2.181 -0.675,2.897 -0.675,2.897 0,0 -1.643,2.181 -2.621,6.364 0,0 -10.098,1.411 -12.059,10.76 -1.961,9.348 6.74,19.229 8.021,20.207 1.28,0.979 6.653,2.839 13.395,-0.185 0,0 1.146,-0.713 3.353,0.179 2.206,0.894 14.588,4.395 20.577,4.589 5.99,0.195 9.851,-5.993 12.66,-13.484 0,0 0.347,3.025 3.369,3.656 3.019,0.631 1.402,-5.029 -0.783,-6.973 0,0 5.146,-2.644 6.131,-8.146 0.984,-5.503 -0.879,-29.777 -5.479,-34.624 -4.6,-4.849 -16.199,-6.913 -19.896,-7.777 -3.696,-0.866 -11.036,2.954 -14.018,13.12 0,0 1.459,5.056 0.258,9.225 C 8.971,6.325 7.877,9.389 6.316,9.929 4.758,10.469 0.91,6.438 0.58,4.626 0.25,2.813 0.979,0.344 0.979,0.344 0.979,0.344 0.557,-0.038 0,0"
         style="fill:#101537;fill-opacity:1;fill-rule:evenodd;stroke:none"
         id="path398"
         inkscape:connector-curvature="0" /></g><g
       id="g400"
       transform="translate(537.3301,307.0781)"><path
         d="m 0,0 c 0,0 -1.547,0.166 -2.059,2.347 -0.509,2.181 -0.675,2.897 -0.675,2.897 0,0 -1.641,2.181 -2.621,6.365 0,0 -10.098,1.41 -12.059,10.759 -1.961,9.348 6.74,19.229 8.021,20.207 0,0 -9.519,-10.387 0.983,-15.721 10.502,-5.331 26.012,-8.723 36.189,-8.077 10.176,0.646 17.409,18.305 17.412,18.316 1.168,-1.112 -0.234,-5.154 -2.013,-6.736 0,0 5.146,-2.644 6.131,-8.146 0.984,-5.503 -0.879,-29.777 -5.479,-34.624 -4.6,-4.848 -16.199,-6.913 -19.896,-7.777 -3.694,-0.866 -11.038,2.954 -14.018,13.12 0,0 1.457,5.056 0.258,9.225 C 8.971,6.325 7.877,9.389 6.318,9.929 4.756,10.469 0.91,6.438 0.58,4.626 0.25,2.814 0.979,0.344 0.979,0.344 0.979,0.344 0.557,-0.037 0,0"
         style="fill:#070725;fill-opacity:1;fill-rule:evenodd;stroke:none"
         id="path402"
         inkscape:connector-curvature="0" /></g><g
       id="g404"
       transform="translate(677.2285,151.9971)"><path
         d="m 0,0 c 0,0.632 -0.512,1.143 -1.143,1.143 -0.628,0 -1.14,-0.511 -1.14,-1.143 v -2.684 h -2.686 c -0.629,0 -1.14,-0.51 -1.14,-1.14 0,-0.632 0.511,-1.142 1.14,-1.142 h 2.686 v -2.683 c 0,-0.632 0.512,-1.144 1.14,-1.144 0.631,0 1.143,0.512 1.143,1.144 v 2.683 h 2.684 c 0.629,0 1.142,0.51 1.142,1.142 0,0.63 -0.513,1.14 -1.142,1.14 H 0 Z"
         style="fill:#9fb2d9;fill-opacity:1;fill-rule:evenodd;stroke:none"
         id="path406"
         inkscape:connector-curvature="0" /></g><g
       id="g408"
       transform="translate(608.7266,388.5225)"><path
         d="M 0,0 C 0,0.63 -0.512,1.142 -1.143,1.142 -1.771,1.142 -2.283,0.63 -2.283,0 v -2.685 h -2.684 c -0.631,0 -1.14,-0.51 -1.14,-1.141 0,-0.63 0.509,-1.141 1.14,-1.141 h 2.684 v -2.684 c 0,-0.631 0.512,-1.142 1.14,-1.142 0.631,0 1.143,0.511 1.143,1.142 v 2.684 h 2.684 c 0.63,0 1.142,0.511 1.142,1.141 0,0.631 -0.512,1.141 -1.142,1.141 H 0 Z"
         style="fill:#9fb2d9;fill-opacity:1;fill-rule:evenodd;stroke:none"
         id="path410"
         inkscape:connector-curvature="0" /></g><g
       id="g412"
       transform="translate(479.4766,431.1748)"><path
         d="M 0,0 C 0,0.629 -0.51,1.141 -1.141,1.141 -1.77,1.141 -2.281,0.629 -2.281,0 v -2.685 h -2.684 c -0.631,0 -1.142,-0.51 -1.142,-1.141 0,-0.631 0.511,-1.142 1.142,-1.142 h 2.684 v -2.684 c 0,-0.63 0.511,-1.141 1.14,-1.141 0.631,0 1.141,0.511 1.141,1.141 v 2.684 h 2.686 c 0.63,0 1.14,0.511 1.14,1.142 0,0.631 -0.51,1.141 -1.14,1.141 H 0 Z"
         style="fill:#9fb2d9;fill-opacity:1;fill-rule:evenodd;stroke:none"
         id="path414"
         inkscape:connector-curvature="0" /></g><g
       id="g416"
       transform="translate(160.2354,203.6973)"><path
         d="M 0,0 C 0,0.63 -0.511,1.141 -1.142,1.141 -1.772,1.141 -2.284,0.63 -2.284,0 v -2.684 h -2.684 c -0.631,0 -1.141,-0.512 -1.141,-1.141 0,-0.631 0.51,-1.143 1.141,-1.143 h 2.684 v -2.684 c 0,-0.629 0.512,-1.141 1.142,-1.141 0.631,0 1.142,0.512 1.142,1.141 v 2.684 h 2.684 c 0.63,0 1.141,0.512 1.141,1.143 0,0.629 -0.511,1.141 -1.141,1.141 H 0 Z"
         style="fill:#9fb2d9;fill-opacity:1;fill-rule:evenodd;stroke:none"
         id="path418"
         inkscape:connector-curvature="0" /></g><g
       id="g420"
       transform="translate(271.3887,351.041)"><path
         d="M 0,0 C 0,0.63 -0.511,1.141 -1.142,1.141 -1.772,1.141 -2.284,0.63 -2.284,0 v -2.686 h -2.683 c -0.631,0 -1.141,-0.509 -1.141,-1.14 0,-0.63 0.51,-1.142 1.141,-1.142 h 2.683 v -2.683 c 0,-0.631 0.512,-1.143 1.142,-1.143 0.631,0 1.142,0.512 1.142,1.143 v 2.683 h 2.684 c 0.63,0 1.142,0.512 1.142,1.142 0,0.631 -0.512,1.14 -1.142,1.14 H 0 Z"
         style="fill:#9fb2d9;fill-opacity:1;fill-rule:evenodd;stroke:none"
         id="path422"
         inkscape:connector-curvature="0" /></g><g
       id="g424"
       transform="translate(140.8477,95.1289)"><path
         d="m 0,0 c 0,0.629 -0.511,1.141 -1.142,1.141 -0.63,0 -1.14,-0.512 -1.14,-1.141 v -2.684 h -2.685 c -0.631,0 -1.141,-0.511 -1.141,-1.142 0,-0.63 0.51,-1.142 1.141,-1.142 h 2.685 v -2.684 c 0,-0.63 0.51,-1.141 1.14,-1.141 0.631,0 1.142,0.511 1.142,1.141 v 2.684 h 2.684 c 0.631,0 1.142,0.512 1.142,1.142 0,0.631 -0.511,1.142 -1.142,1.142 H 0 Z"
         style="fill:#9fb2d9;fill-opacity:1;fill-rule:evenodd;stroke:none"
         id="path426"
         inkscape:connector-curvature="0" /></g><g
       id="g428"
       transform="translate(38.7417,177.8477)"><path
         d="M 0,0 C 0,0.63 -0.511,1.141 -1.142,1.141 -1.772,1.141 -2.283,0.63 -2.283,0 v -2.685 h -2.684 c -0.631,0 -1.141,-0.511 -1.141,-1.14 0,-0.632 0.51,-1.143 1.141,-1.143 h 2.684 v -2.683 c 0,-0.631 0.511,-1.142 1.141,-1.142 0.631,0 1.142,0.511 1.142,1.142 v 2.683 h 2.684 c 0.63,0 1.142,0.511 1.142,1.143 0,0.629 -0.512,1.14 -1.142,1.14 H 0 Z"
         style="fill:#9fb2d9;fill-opacity:1;fill-rule:evenodd;stroke:none"
         id="path430"
         inkscape:connector-curvature="0" /></g><g
       id="g432"
       transform="translate(315.4653,182.1934)"><path
         d="m 0,0 c 16.178,8.599 20.285,-10.11 13.994,-25.603 -6.291,-15.49 -38.564,-67.596 -40.249,-88.262 -0.654,-8.009 -2.147,-7.135 -3.425,-1.519 C -36.056,-87.369 -22.27,-11.835 0,0"
         style="fill:#294d3c;fill-opacity:1;fill-rule:evenodd;stroke:none"
         id="path434"
         inkscape:connector-curvature="0" /></g><g
       id="g436"
       transform="translate(281.2104,253.1748)"><path
         d="m 0,0 c -18.551,16.702 -30.149,-6.676 -26.942,-29.229 3.207,-22.553 28.684,-102.077 24.097,-129.951 -1.778,-10.803 0.485,-10.14 4.027,-3.136 C 18.85,-127.387 25.536,-22.991 0,0"
         style="fill:#4a9075;fill-opacity:1;fill-rule:evenodd;stroke:none"
         id="path438"
         inkscape:connector-curvature="0" /></g><g
       id="g440"
       transform="translate(277.9785,86.251)"><path
         d="m 0,0 c 0.397,-1.036 1.278,-0.523 2.46,1.201 19.333,64.402 -10.784,160.623 -10.879,160.932 -0.164,0.53 -0.727,0.827 -1.256,0.663 -0.531,-0.163 -0.828,-0.726 -0.664,-1.256 C -10.244,161.229 20.284,63.695 0,0"
         style="fill:#1b7154;fill-opacity:1;fill-rule:evenodd;stroke:none"
         id="path442"
         inkscape:connector-curvature="0" /></g><g
       id="g444"
       transform="translate(240.6938,199.665)"><path
         d="m 0,0 c -17.975,7.825 -20.795,-12.477 -12.794,-28.478 8.002,-16.001 46.773,-68.896 50.294,-90.799 1.364,-8.491 2.884,-7.434 3.78,-1.336 C 45.746,-90.197 24.743,-10.77 0,0"
         style="fill:#a6c86b;fill-opacity:1;fill-rule:evenodd;stroke:none"
         id="path446"
         inkscape:connector-curvature="0" /></g><g
       id="g448"
       transform="translate(279.8325,74.5215)"><path
         d="m 0,0 c 0.553,-0.673 1.082,-0.069 1.533,1.508 -1.627,52.783 -48.01,116.961 -48.158,117.169 -0.253,0.353 -0.747,0.433 -1.101,0.179 -0.354,-0.252 -0.435,-0.745 -0.182,-1.1 C -47.759,117.549 -0.744,52.495 0,0"
         style="fill:#5f9850;fill-opacity:1;fill-rule:evenodd;stroke:none"
         id="path450"
         inkscape:connector-curvature="0" /></g><g
       id="g452"
       transform="translate(266.0039,86.209)"><path
         d="m 0,0 h 34.532 l 9.015,-8.137 -7.365,-28.371 H 17.265 -1.652 l -7.364,28.371 z"
         style="fill:#3b405f;fill-opacity:1;fill-rule:evenodd;stroke:none"
         id="path454"
         inkscape:connector-curvature="0" /></g><g
       id="g456"
       transform="translate(256.9878,96.7656)"><path
         d="m 0,0 h 52.563 c 1.572,0 2.858,-1.285 2.858,-2.857 v -12.978 c 0,-1.571 -1.286,-2.858 -2.858,-2.858 H 0 c -1.572,0 -2.859,1.287 -2.859,2.858 V -2.857 C -2.859,-1.285 -1.572,0 0,0"
         style="fill:#3b405f;fill-opacity:1;fill-rule:evenodd;stroke:none"
         id="path458"
         inkscape:connector-curvature="0" /></g><g
       id="g460"
       transform="translate(309.5513,78.0723)"><path
         d="M 0,0 -1.514,-5.831 H -51.05 L -52.563,0 Z"
         style="fill:#101537;fill-opacity:1;fill-rule:evenodd;stroke:none"
         id="path462"
         inkscape:connector-curvature="0" /></g><g
       id="g2297"
       transform="translate(-38.02463,-337.92447)"><path
         id="path2279"
         d="m 465.64095,670.10556 h 65.60091 c 2.0343,0 3.672,-1.39569 3.672,-3.12933 V 639.8747 c 0,-1.73364 -1.6377,-3.12932 -3.672,-3.12932 h -65.60091 c -2.0343,0 -3.672,1.39568 -3.672,3.12932 v 27.10153 c 0,1.73364 1.6377,3.12933 3.672,3.12933 z"
         style="fill:#ffa31a;fill-opacity:1;stroke:none;stroke-width:0.38881278"
         inkscape:connector-curvature="0" /><g
         id="g2287"
         transform="translate(-4.5)"
         style="fill:#ffffff"><path
           d="m 430.53125,642.68817 h -4.7168 l -1.875,4.87793 h -8.58398 l -1.77246,-4.87793 h -4.59961 l 8.36426,21.47461 h 4.58496 z m -7.9834,8.4961 -2.95898,7.96875 -2.90039,-7.96875 z"
           style="font-style:normal;font-variant:normal;font-weight:bold;font-stretch:normal;font-size:30px;line-height:1.25;font-family:Arial;-inkscape-font-specification:'Arial Bold';letter-spacing:0px;word-spacing:0px;fill:#ffffff;fill-opacity:1;stroke:none;stroke-width:0.75"
           id="path2281"
           inkscape:connector-curvature="0" /><path
           d="m 431.36621,647.12665 4.13086,0.62988 q 0.26367,-1.20117 1.06934,-1.83105 0.80566,-0.61524 2.25586,-0.61524 1.59668,0 2.40234,0.58594 0.54199,0.41016 0.54199,1.09863 0,0.46875 -0.29297,0.77637 -0.30761,0.29297 -1.37695,0.54199 -4.98047,1.09863 -6.31348,2.00684 -1.8457,1.25976 -1.8457,3.50097 0,2.02149 1.59668,3.39844 1.59668,1.37695 4.95117,1.37695 3.19336,0 4.7461,-1.04003 1.55273,-1.04004 2.13867,-3.07618 l -3.88184,-0.71777 q -0.24902,0.9082 -0.95215,1.3916 -0.68847,0.4834 -1.97754,0.4834 -1.62597,0 -2.3291,-0.4541 -0.46875,-0.32227 -0.46875,-0.83496 0,-0.43946 0.41016,-0.74707 0.55664,-0.41016 3.83789,-1.15723 3.2959,-0.74707 4.59961,-1.83105 1.28906,-1.09864 1.28906,-3.06153 0,-2.13867 -1.78711,-3.67676 -1.78711,-1.53808 -5.28808,-1.53808 -3.17872,0 -5.03907,1.28906 -1.8457,1.28906 -2.41699,3.50098 z"
           style="font-style:normal;font-variant:normal;font-weight:bold;font-stretch:normal;font-size:30px;line-height:1.25;font-family:Arial;-inkscape-font-specification:'Arial Bold';letter-spacing:0px;word-spacing:0px;fill:#ffffff;fill-opacity:1;stroke:none;stroke-width:0.75"
           id="path2283"
           inkscape:connector-curvature="0" /><path
           d="m 449.36914,642.68817 v 21.47461 h 4.11621 V 652.7663 l 4.81934,5.47851 h 5.06836 l -5.31739,-5.68359 5.69825,-9.87305 h -4.43848 l -3.91113,6.98731 -1.91895,-2.00684 v -4.98047 z"
           style="font-style:normal;font-variant:normal;font-weight:bold;font-stretch:normal;font-size:30px;line-height:1.25;font-family:Arial;-inkscape-font-specification:'Arial Bold';letter-spacing:0px;word-spacing:0px;fill:#ffffff;fill-opacity:1;stroke:none;stroke-width:0.75"
           id="path2285"
           inkscape:connector-curvature="0" /></g><g
         id="g2295"><path
           d="m 466.30273,642.68817 v 21.47461 h 4.33594 v -9.53613 l 8.75977,9.53613 h 5.83008 l -8.08594,-8.36426 8.52539,-13.11035 h -5.61035 l -5.90332,10.07813 -3.51563,-3.58887 v -6.48926 z"
           style="font-style:normal;font-variant:normal;font-weight:bold;font-stretch:normal;font-size:30px;line-height:1.25;font-family:Arial;-inkscape-font-specification:'Arial Bold';letter-spacing:0px;word-spacing:0px;fill:#262626;fill-opacity:1;stroke:none;stroke-width:0.75"
           id="path2289"
           inkscape:connector-curvature="0" /><path
           d="m 497.91406,650.58368 v 3.61816 h 9.34571 v -8.55468 q -1.36231,-1.31836 -3.95508,-2.32911 -2.57813,-0.99609 -5.22949,-0.99609 -3.36915,0 -5.87403,1.40625 -2.50488,1.4209 -3.76465,4.04297 -1.25976,2.63672 -1.25976,5.72754 0,3.35449 1.40625,5.96191 1.40625,2.60742 4.11621,3.99903 2.06543,1.06933 5.1416,1.06933 3.99902,0 6.24023,-1.68457 2.25586,-1.66992 2.9004,-4.6289 l -4.30665,-0.80567 q -0.4541,1.58203 -1.71386,2.49024 -1.24512,0.92285 -3.12012,0.92285 -2.8418,0 -4.52637,-1.80176 -1.66992,-1.80176 -1.66992,-5.34668 0,-3.82324 1.69922,-5.74219 1.69922,-1.90429 4.45312,-1.90429 1.36231,0 2.72461,0.52734 1.37696,0.54199 2.3584,1.30371 v 2.72461 z"
           style="font-style:normal;font-variant:normal;font-weight:bold;font-stretch:normal;font-size:30px;line-height:1.25;font-family:Arial;-inkscape-font-specification:'Arial Bold';letter-spacing:0px;word-spacing:0px;fill:#262626;fill-opacity:1;stroke:none;stroke-width:0.75"
           id="path2291"
           inkscape:connector-curvature="0" /><path
           d="m 521.23437,650.58368 v 3.61816 h 9.34571 v -8.55468 q -1.36231,-1.31836 -3.95508,-2.32911 -2.57813,-0.99609 -5.22949,-0.99609 -3.36914,0 -5.87403,1.40625 -2.50488,1.4209 -3.76464,4.04297 -1.25977,2.63672 -1.25977,5.72754 0,3.35449 1.40625,5.96191 1.40625,2.60742 4.11621,3.99903 2.06543,1.06933 5.1416,1.06933 3.99903,0 6.24024,-1.68457 2.25586,-1.66992 2.90039,-4.6289 l -4.30664,-0.80567 q -0.4541,1.58203 -1.71387,2.49024 -1.24512,0.92285 -3.12012,0.92285 -2.84179,0 -4.52636,-1.80176 -1.66993,-1.80176 -1.66993,-5.34668 0,-3.82324 1.69922,-5.74219 1.69922,-1.90429 4.45313,-1.90429 1.3623,0 2.72461,0.52734 1.37695,0.54199 2.3584,1.30371 v 2.72461 z"
           style="font-style:normal;font-variant:normal;font-weight:bold;font-stretch:normal;font-size:30px;line-height:1.25;font-family:Arial;-inkscape-font-specification:'Arial Bold';letter-spacing:0px;word-spacing:0px;fill:#262626;fill-opacity:1;stroke:none;stroke-width:0.75"
           id="path2293"
           inkscape:connector-curvature="0" /></g></g></g></svg>