<?xml version="1.0" encoding="UTF-8" standalone="no"?>
<svg
   xmlns:dc="http://purl.org/dc/elements/1.1/"
   xmlns:cc="http://creativecommons.org/ns#"
   xmlns:rdf="http://www.w3.org/1999/02/22-rdf-syntax-ns#"
   xmlns:svg="http://www.w3.org/2000/svg"
   xmlns="http://www.w3.org/2000/svg"
   xmlns:sodipodi="http://sodipodi.sourceforge.net/DTD/sodipodi-0.dtd"
   xmlns:inkscape="http://www.inkscape.org/namespaces/inkscape"
   viewBox="0 0 409.11931 149.97014"
   version="1.1"
   id="svg894"
   sodipodi:docname="couch_yellow.svg"
   inkscape:version="0.92.4 (5da689c313, 2019-01-14)">
  <metadata
     id="metadata898">
    <rdf:RDF>
      <cc:Work
         rdf:about="">
        <dc:format>image/svg+xml</dc:format>
        <dc:type
           rdf:resource="http://purl.org/dc/dcmitype/StillImage" />
      </cc:Work>
    </rdf:RDF>
  </metadata>
  <sodipodi:namedview
     pagecolor="#ffffff"
     bordercolor="#666666"
     borderopacity="1"
     objecttolerance="10"
     gridtolerance="10"
     guidetolerance="10"
     inkscape:pageopacity="0"
     inkscape:pageshadow="2"
     inkscape:window-width="1920"
     inkscape:window-height="1001"
     id="namedview896"
     showgrid="false"
     inkscape:zoom="1.527684"
     inkscape:cx="251.79003"
     inkscape:cy="164.2782"
     inkscape:window-x="-9"
     inkscape:window-y="-9"
     inkscape:window-maximized="1"
     inkscape:current-layer="svg894" />
  <defs
     id="defs200">
    <clipPath
       clipPathUnits="userSpaceOnUse"
       id="a">
      <path
         d="M 27.12,62.34 H 461.84 V 42.15 H 27.12 Z"
         id="path2"
         inkscape:connector-curvature="0" />
    </clipPath>
    <clipPath
       clipPathUnits="userSpaceOnUse"
       id="b">
      <path
         d="M 60.43,80.1 H 92.96 V 64.35 H 60.43 Z"
         id="path5"
         inkscape:connector-curvature="0" />
    </clipPath>
    <clipPath
       clipPathUnits="userSpaceOnUse"
       id="c">
      <path
         d="m 36.52,273.66 h 24.99 v -12.1 H 36.52 Z"
         id="path8"
         inkscape:connector-curvature="0" />
    </clipPath>
    <clipPath
       clipPathUnits="userSpaceOnUse"
       id="d">
      <path
         d="m 67.83,272.06 h 9.36 v -6.88 h -9.36 z"
         id="path11"
         inkscape:connector-curvature="0" />
    </clipPath>
    <clipPath
       clipPathUnits="userSpaceOnUse"
       id="e">
      <path
         d="m 47.7,112.77 h 3 V 80.4 h -3 z"
         id="path14"
         inkscape:connector-curvature="0" />
    </clipPath>
    <clipPath
       clipPathUnits="userSpaceOnUse"
       id="f">
      <path
         d="m 48.67,188.86 h 3 v -57.88 h -3 z"
         id="path17"
         inkscape:connector-curvature="0" />
    </clipPath>
    <clipPath
       clipPathUnits="userSpaceOnUse"
       id="g">
      <path
         d="m 94.82,199.66 h 3 v -28.42 h -3 z"
         id="path20"
         inkscape:connector-curvature="0" />
    </clipPath>
    <clipPath
       clipPathUnits="userSpaceOnUse"
       id="h">
      <path
         d="m 407.04,80.1 h 32.53 V 63.9 h -32.53 z"
         id="path23"
         inkscape:connector-curvature="0" />
    </clipPath>
    <clipPath
       clipPathUnits="userSpaceOnUse"
       id="i">
      <path
         d="m 394.8,262.28 h 28.15 V 215.21 H 394.8 Z"
         id="path26"
         inkscape:connector-curvature="0" />
    </clipPath>
    <clipPath
       clipPathUnits="userSpaceOnUse"
       id="j">
      <path
         d="m 428.61,271.9 h 24.45 v -6.48 h -24.45 z"
         id="path29"
         inkscape:connector-curvature="0" />
    </clipPath>
    <clipPath
       clipPathUnits="userSpaceOnUse"
       id="k">
      <path
         d="m 394.3,187.39 h 3 v -46.6 h -3 z"
         id="path32"
         inkscape:connector-curvature="0" />
    </clipPath>
    <clipPath
       clipPathUnits="userSpaceOnUse"
       id="l">
      <path
         d="m 444.74,183.05 h 3 v -52.82 h -3 z"
         id="path35"
         inkscape:connector-curvature="0" />
    </clipPath>
    <clipPath
       clipPathUnits="userSpaceOnUse"
       id="m">
      <path
         d="m 142.2,302.95 h 2.82 v -16.96 h -2.82 z"
         id="path38"
         inkscape:connector-curvature="0" />
    </clipPath>
    <clipPath
       clipPathUnits="userSpaceOnUse"
       id="n">
      <path
         d="m 205.78,269.22 h 9.72 v -5.07 h -9.72 z"
         id="path41"
         inkscape:connector-curvature="0" />
    </clipPath>
    <clipPath
       clipPathUnits="userSpaceOnUse"
       id="o">
      <path
         d="m 132.44,269.22 h 9.72 v -5.07 h -9.72 z"
         id="path44"
         inkscape:connector-curvature="0" />
    </clipPath>
    <clipPath
       clipPathUnits="userSpaceOnUse"
       id="p">
      <path
         d="m 193.81,277.94 h 5.41 v -4.44 h -5.4 z"
         id="path47"
         inkscape:connector-curvature="0" />
    </clipPath>
    <clipPath
       clipPathUnits="userSpaceOnUse"
       id="q">
      <path
         d="m 216.07,257.44 h 5.3 v -13.95 h -5.3 z"
         id="path50"
         inkscape:connector-curvature="0" />
    </clipPath>
    <clipPath
       clipPathUnits="userSpaceOnUse"
       id="r">
      <path
         d="m 126.57,257.44 h 5.3 v -13.95 h -5.3 z"
         id="path53"
         inkscape:connector-curvature="0" />
    </clipPath>
    <clipPath
       clipPathUnits="userSpaceOnUse"
       id="s">
      <path
         d="m 140.67,276.35 h 7.61 v -6.37 h -7.6 z"
         id="path56"
         inkscape:connector-curvature="0" />
    </clipPath>
    <clipPath
       clipPathUnits="userSpaceOnUse"
       id="t">
      <path
         d="m 159.1,286.07 h 1.83 v -6.43 h -1.83 z"
         id="path59"
         inkscape:connector-curvature="0" />
    </clipPath>
    <clipPath
       clipPathUnits="userSpaceOnUse"
       id="u">
      <path
         d="m 127.1,177.33 h 5.29 V 89.14 h -5.28 z"
         id="path62"
         inkscape:connector-curvature="0" />
    </clipPath>
    <clipPath
       clipPathUnits="userSpaceOnUse"
       id="v">
      <path
         d="m 194.13,177.33 h 5.28 V 89.14 h -5.28 z"
         id="path65"
         inkscape:connector-curvature="0" />
    </clipPath>
    <clipPath
       clipPathUnits="userSpaceOnUse"
       id="w">
      <path
         d="m 208.28,243.54 h 20.76 v -26.39 h -20.76 z"
         id="path68"
         inkscape:connector-curvature="0" />
    </clipPath>
    <clipPath
       clipPathUnits="userSpaceOnUse"
       id="x">
      <path
         d="m 197.8,249.12 h 5.37 v -3.47 h -5.37 z"
         id="path71"
         inkscape:connector-curvature="0" />
    </clipPath>
    <clipPath
       clipPathUnits="userSpaceOnUse"
       id="y">
      <path
         d="m 118.9,243.55 h 20.77 v -26.4 H 118.9 Z"
         id="path74"
         inkscape:connector-curvature="0" />
    </clipPath>
    <clipPath
       clipPathUnits="userSpaceOnUse"
       id="z">
      <path
         d="m 144.78,249.12 h 5.37 v -3.47 h -5.37 z"
         id="path77"
         inkscape:connector-curvature="0" />
    </clipPath>
    <clipPath
       clipPathUnits="userSpaceOnUse"
       id="A">
      <path
         d="m 148.67,303.94 h 22.07 v -13.9 h -22.07 z"
         id="path80"
         inkscape:connector-curvature="0" />
    </clipPath>
    <clipPath
       clipPathUnits="userSpaceOnUse"
       id="B">
      <path
         d="m 153.03,315.03 h 6.91 v -5.06 h -6.91 z"
         id="path83"
         inkscape:connector-curvature="0" />
    </clipPath>
    <clipPath
       clipPathUnits="userSpaceOnUse"
       id="C">
      <path
         d="m 183.2,315.04 h 6.94 v -5.07 h -6.94 z"
         id="path86"
         inkscape:connector-curvature="0" />
    </clipPath>
    <clipPath
       clipPathUnits="userSpaceOnUse"
       id="D">
      <path
         d="m 170.19,324.87 h 2.33 V 308.7 h -2.33 z"
         id="path89"
         inkscape:connector-curvature="0" />
    </clipPath>
    <clipPath
       clipPathUnits="userSpaceOnUse"
       id="E">
      <path
         d="m 145.1,358.12 h 18.7 V 339.3 h -18.7 z"
         id="path92"
         inkscape:connector-curvature="0" />
    </clipPath>
    <clipPath
       clipPathUnits="userSpaceOnUse"
       id="F">
      <path
         d="m 166.17,360.13 h 2.26 v -2.34 h -2.26 z"
         id="path95"
         inkscape:connector-curvature="0" />
    </clipPath>
    <clipPath
       clipPathUnits="userSpaceOnUse"
       id="G">
      <path
         d="M 155.37,349.13 H 169.9 V 330.95 H 155.37 Z"
         id="path98"
         inkscape:connector-curvature="0" />
    </clipPath>
    <clipPath
       clipPathUnits="userSpaceOnUse"
       id="H">
      <path
         d="m 148.1,330.47 h 2.43 v -2.33 h -2.42 z"
         id="path101"
         inkscape:connector-curvature="0" />
    </clipPath>
    <clipPath
       clipPathUnits="userSpaceOnUse"
       id="I">
      <path
         d="M 173.53,355.73 H 185.1 V 335.74 H 173.53 Z"
         id="path104"
         inkscape:connector-curvature="0" />
    </clipPath>
    <clipPath
       clipPathUnits="userSpaceOnUse"
       id="J">
      <path
         d="m 179.03,357.36 h 14.41 v -11.57 h -14.41 z"
         id="path107"
         inkscape:connector-curvature="0" />
    </clipPath>
    <clipPath
       clipPathUnits="userSpaceOnUse"
       id="K">
      <path
         d="m 197.7,332.18 h 2.26 v -2.34 h -2.26 z"
         id="path110"
         inkscape:connector-curvature="0" />
    </clipPath>
    <clipPath
       clipPathUnits="userSpaceOnUse"
       id="L">
      <path
         d="m 191.6,341 h 3.14 v -2.7 h -3.13 z"
         id="path113"
         inkscape:connector-curvature="0" />
    </clipPath>
    <clipPath
       clipPathUnits="userSpaceOnUse"
       id="M">
      <path
         d="m 183.98,342.11 h 4.51 v -3.01 h -4.51 z"
         id="path116"
         inkscape:connector-curvature="0" />
    </clipPath>
    <clipPath
       clipPathUnits="userSpaceOnUse"
       id="N">
      <path
         d="m 194,347 h 3.14 v -5.28 h -3.15 z"
         id="path119"
         inkscape:connector-curvature="0" />
    </clipPath>
    <clipPath
       clipPathUnits="userSpaceOnUse"
       id="O">
      <path
         d="m 68.76,310.78 h 3 v -31.43 h -3 z"
         id="path122"
         inkscape:connector-curvature="0" />
    </clipPath>
    <clipPath
       clipPathUnits="userSpaceOnUse"
       id="P">
      <path
         d="m 201.2,348.66 h 40.09 v -3 H 201.2 Z"
         id="path125"
         inkscape:connector-curvature="0" />
    </clipPath>
    <clipPath
       clipPathUnits="userSpaceOnUse"
       id="Q">
      <path
         d="M 248.25,309.01 H 344.8 V 221.4 h -96.55 z"
         id="path128"
         inkscape:connector-curvature="0" />
    </clipPath>
    <clipPath
       clipPathUnits="userSpaceOnUse"
       id="R">
      <path
         d="m 326.62,238.87 h 17.22 V 221.6 h -17.22 z"
         id="path131"
         inkscape:connector-curvature="0" />
    </clipPath>
    <clipPath
       clipPathUnits="userSpaceOnUse"
       id="S">
      <path
         d="m 327.94,176.3 h 4.52 v -54.04 h -4.52 z"
         id="path134"
         inkscape:connector-curvature="0" />
    </clipPath>
    <clipPath
       clipPathUnits="userSpaceOnUse"
       id="T">
      <path
         d="m 364.59,157.3 h 4.26 V 95.12 h -4.26 z"
         id="path137"
         inkscape:connector-curvature="0" />
    </clipPath>
    <clipPath
       clipPathUnits="userSpaceOnUse"
       id="U">
      <path
         d="m 245.12,233.04 h 8.37 v -16.06 h -8.37 z"
         id="path140"
         inkscape:connector-curvature="0" />
    </clipPath>
    <clipPath
       clipPathUnits="userSpaceOnUse"
       id="V">
      <path
         d="m 245.71,191.92 h 5.08 v -36.94 h -5.08 z"
         id="path143"
         inkscape:connector-curvature="0" />
    </clipPath>
    <clipPath
       clipPathUnits="userSpaceOnUse"
       id="W">
      <path
         d="m 256.34,307.4 h 7.4 v -11.2 h -7.4 z"
         id="path146"
         inkscape:connector-curvature="0" />
    </clipPath>
    <clipPath
       clipPathUnits="userSpaceOnUse"
       id="X">
      <path
         d="m 263.55,310.52 h 4.7 v -3.18 h -4.7 z"
         id="path149"
         inkscape:connector-curvature="0" />
    </clipPath>
    <clipPath
       clipPathUnits="userSpaceOnUse"
       id="Y">
      <path
         d="m 275.56,295.68 h 3 v -3.96 h -3 z"
         id="path152"
         inkscape:connector-curvature="0" />
    </clipPath>
    <clipPath
       clipPathUnits="userSpaceOnUse"
       id="Z">
      <path
         d="m 276.76,288.18 h 2.54 v -4.72 h -2.54 z"
         id="path155"
         inkscape:connector-curvature="0" />
    </clipPath>
    <clipPath
       clipPathUnits="userSpaceOnUse"
       id="aa">
      <path
         d="m 278.06,281.6 h 2.32 v -4.87 h -2.32 z"
         id="path158"
         inkscape:connector-curvature="0" />
    </clipPath>
    <clipPath
       clipPathUnits="userSpaceOnUse"
       id="ab">
      <path
         d="m 249.75,288.3 h 3.64 v -44.66 h -3.64 z"
         id="path161"
         inkscape:connector-curvature="0" />
    </clipPath>
    <clipPath
       clipPathUnits="userSpaceOnUse"
       id="ac">
      <path
         d="m 316.67,325.96 h 14.4 v -4.83 h -14.4 z"
         id="path164"
         inkscape:connector-curvature="0" />
    </clipPath>
    <clipPath
       clipPathUnits="userSpaceOnUse"
       id="ad">
      <path
         d="m 315.49,308.97 h 3.83 v -6.81 h -3.83 z"
         id="path167"
         inkscape:connector-curvature="0" />
    </clipPath>
    <clipPath
       clipPathUnits="userSpaceOnUse"
       id="ae">
      <path
         d="m 320.14,300.41 h 5.69 v -5.68 h -5.7 z"
         id="path170"
         inkscape:connector-curvature="0" />
    </clipPath>
    <clipPath
       clipPathUnits="userSpaceOnUse"
       id="af">
      <path
         d="m 325.95,296.1 h 5.36 v -4.68 h -5.36 z"
         id="path173"
         inkscape:connector-curvature="0" />
    </clipPath>
    <clipPath
       clipPathUnits="userSpaceOnUse"
       id="ag">
      <path
         d="m 336.93,319.9 h 30.26 v -25.6 h -30.26 z"
         id="path176"
         inkscape:connector-curvature="0" />
    </clipPath>
    <clipPath
       clipPathUnits="userSpaceOnUse"
       id="ah">
      <path
         d="m 359.53,316.04 h 8.12 v -15.83 h -8.12 z"
         id="path179"
         inkscape:connector-curvature="0" />
    </clipPath>
    <clipPath
       clipPathUnits="userSpaceOnUse"
       id="ai">
      <path
         d="m 263.22,349.5 h 6.14 v -12.26 h -6.14 z"
         id="path182"
         inkscape:connector-curvature="0" />
    </clipPath>
    <clipPath
       clipPathUnits="userSpaceOnUse"
       id="aj">
      <path
         d="m 250.82,378.47 h 9 v -5.63 h -9 z"
         id="path185"
         inkscape:connector-curvature="0" />
    </clipPath>
    <clipPath
       clipPathUnits="userSpaceOnUse"
       id="ak">
      <path
         d="m 282.9,384.94 h 8 v -5.96 h -8 z"
         id="path188"
         inkscape:connector-curvature="0" />
    </clipPath>
    <clipPath
       clipPathUnits="userSpaceOnUse"
       id="al">
      <path
         d="m 266.9,394.17 h 5.26 v -17 h -5.26 z"
         id="path191"
         inkscape:connector-curvature="0" />
    </clipPath>
    <clipPath
       clipPathUnits="userSpaceOnUse"
       id="am">
      <path
         d="m 283.13,370.15 h 4.93 v -5.79 h -4.93 z"
         id="path194"
         inkscape:connector-curvature="0" />
    </clipPath>
    <clipPath
       clipPathUnits="userSpaceOnUse"
       id="an">
      <path
         d="m 403.12,356.95 h 15.1 v -10.07 h -15.1 z"
         id="path197"
         inkscape:connector-curvature="0" />
    </clipPath>
  </defs>
  <g
     id="g206"
     transform="matrix(0.86326664,0,0,1,0,1.4299345e-4)"
     style="fill:#272a87">
    <path
       d="M 426.52,149.97 H 43.96 C 10.92,149.97 0,145.14 0,139.19 0,133.24 10.92,128.42 43.96,128.42 h 382.56 c 33.04,0 47.4,4.82 47.4,10.77 0,5.95 -14.36,10.78 -47.4,10.78"
       id="path202"
       inkscape:connector-curvature="0" />
    <path
       d="M 426.52,149.97 H 43.96 C 10.92,149.97 0,145.14 0,139.19 0,133.24 10.92,128.42 43.96,128.42 h 382.56 c 33.04,0 47.4,4.82 47.4,10.77 0,5.95 -14.36,10.78 -47.4,10.78"
       id="path204"
       inkscape:connector-curvature="0" />
  </g>
  <g
     style="fill:#181a53;fill-opacity:1"
     transform="matrix(0.81638663,0,0,0.65939665,11.108687,44.824263)"
     id="g1709">
    <path
       inkscape:connector-curvature="0"
       id="path1705"
       d="M 426.52,149.97 H 43.96 C 10.92,149.97 0,145.14 0,139.19 0,133.24 10.92,128.42 43.96,128.42 h 382.56 c 33.04,0 47.4,4.82 47.4,10.77 0,5.95 -14.36,10.78 -47.4,10.78"
       style="fill:#181a53;fill-opacity:1" />
    <path
       inkscape:connector-curvature="0"
       id="path1707"
       d="M 426.52,149.97 H 43.96 C 10.92,149.97 0,145.14 0,139.19 0,133.24 10.92,128.42 43.96,128.42 h 382.56 c 33.04,0 47.4,4.82 47.4,10.77 0,5.95 -14.36,10.78 -47.4,10.78"
       style="fill:#181a53;fill-opacity:1" />
  </g>
  <path
     d="m 43.399663,25.700143 188.469997,2.7 c 0.56,0.01 1.1,0.04 1.65,0.1 0.54,-0.06 1.09,-0.1 1.65,-0.1 l 130.54,-2.58 c 6.94,0 11.18,0.51 11.18,9.05 l 1.2,55.23 c 0,5.51 -5.62,9.979997 -12.56,9.979997 h -130.36 c -0.56,0 -1.11,-0.04 -1.65,-0.1 -0.54,0.06 -1.09,0.109997 -1.65,0.1 L 43.399663,97.380143 c -6.93,-0.1 -12.55,-4.48 -12.55,-9.99 v -51.72 c 0,-8.17 5.62,-9.98 12.55,-9.98"
     id="path214"
     inkscape:connector-curvature="0"
     style="fill:#fff6d5" />
  <path
     d="m 43.399663,30.180143 188.469997,2.7 c 0.56,0.02 1.1,0.05 1.65,0.1 0.54,-0.05 1.09,-0.1 1.65,-0.1 l 130.54,-2.57 c 6.94,0 11.18,0.5 11.18,9.05 l 1.2,55.23 c 0,5.499997 -5.62,9.979997 -12.56,9.979997 h -130.36 c -0.56,0 -1.11,-0.04 -1.65,-0.1 -0.54,0.06 -1.09,0.1 -1.65,0.1 l -188.469997,-2.71 c -6.93,-0.1 -12.55,-4.469997 -12.55,-9.979997 v -51.72 c 0,-8.17 5.62,-9.98 12.55,-9.98"
     id="path216"
     inkscape:connector-curvature="0"
     style="fill:#ffeeaa" />
  <path
     d="m 278.32966,43.470143 h 33.71 c 0.51,0 1.02,0.03 1.51,0.07 0.5,-0.04 6.55,-0.07 7.06,-0.07 l 38.88,-2.08 c 6.37,0 10.27,0.42 10.27,7.27 l 1.1,35.88 c 0,4.42 -5.16,8 -11.53,8 h -44.27 c -0.5,0 -1.01,-0.02 -1.5,-0.07 -0.5,0.05 -1,0.08 -1.52,0.08 h -33.7 c -6.38,0 -11.54,-3.59 -11.54,-8.01 v -33.06 c 0,-6.56 5.16,-8.01 11.53,-8.01 m -117.66,-1.68 22.12,-1.13 c 3.78,-0.26 27.9,0.96 50.8,1.5 l 11.79,-0.77 c 6.37,0 10.27,0.42 10.27,7.27 l 1.1,36.11 c 0,4.43 -5.16,8.01 -11.53,8.01 h -51 c -0.5,0 -1.01,-0.03 -1.5,-0.07 -0.5,0.04 -1,0.07 -1.52,0.07 h -30.53 c -6.37,0 -11.53,-3.58 -11.53,-8 v -33.3 c 0,-6.56 5.16,-9.7 11.53,-9.7 m -112.629997,1.69 h 25.48 c 0.52,0 1.02,0.03 1.52,0.07 0.5,-0.04 6.54,-0.07 7.06,-0.07 l 45.419997,-2.08 c 6.37,0 10.27,0.42 10.27,7.27 l 1.1,35.88 c 0,4.42 -5.17,8 -11.54,8 H 76.549663 c -0.51,0 -1.02,-0.02 -1.51,-0.07 -0.5,0.05 -1,0.08 -1.52,0.08 h -25.48 c -6.37,0 -11.53,-3.59 -11.53,-8.01 v -33.06 c 0,-6.56 5.16,-8.01 11.53,-8.01 m 103.329997,52.11 h 220.23 V 131.34014 H 29.609663 V 95.580143 Z"
     id="path218"
     inkscape:connector-curvature="0"
     style="fill:#ffe680" />
  <path
     d="m 151.36966,95.580143 h 220.23 v 7.859997 H 29.609663 v -7.859997 z"
     id="path220"
     inkscape:connector-curvature="0"
     style="fill:#ffd42a" />
  <path
     d="m 31.529663,137.66014 h -2.5 a 4.49,4.49 0 0 1 0,-8.98 h 2.5 a 4.49,4.49 0 1 1 0,8.98"
     id="path222"
     inkscape:connector-curvature="0"
     style="fill:#586ad5" />
  <g
     clip-path="url(#b)"
     transform="matrix(0.35278,0,0,-0.35278,3.229663,156.94014)"
     id="g226">
    <path
       d="M 92.58,64.35 A 12.73,12.73 0 0 1 80.23,80.1 H 73.16 A 12.73,12.73 0 0 1 60.82,64.35 Z"
       id="path224"
       inkscape:connector-curvature="0"
       style="fill:#3d4eb5" />
  </g>
  <path
     d="m 19.299663,90.760143 v 40.579997 h 21.71 V 83.110143 c 0,-9.98 -12.83,-32.74 -25.72,-19.01 -8.52,9.08 4.01,17.35 4.01,26.66"
     id="path228"
     inkscape:connector-curvature="0"
     style="fill:#ffe680" />
  <path
     d="m 23.769663,89.060143 v 37.979997 h 11.93 V 84.860143 c 0,-5.48 -7.04,-17.97 -14.12,-10.44 -4.68,4.98 2.2,9.52 2.2,14.64"
     id="path230"
     inkscape:connector-curvature="0"
     style="fill:#ffd42a" />
  <path
     d="m 14.879663,69.340143 c 10.7,-10.5 21.36,0.36 25.77,10.51 -2.15,-10.83 -13.73,-28.13 -25.35,-15.75 -2.72,2.9 -3.3,5.7 -2.82,8.5 0.52,-1.08 1.3,-2.16 2.41,-3.26"
     id="path232"
     inkscape:connector-curvature="0"
     style="fill:#fff6d5" />
  <g
     id="g238"
     style="fill:#ffffff;fill-opacity:0.38999999"
     transform="translate(-32.400337,1.4299345e-4)">
    <g
       clip-path="url(#c)"
       transform="matrix(0.35278,0,0,-0.35278,35.63,156.94)"
       id="g236"
       style="opacity:0.8">
      <path
         d="m 39.01,262.06 a 23.37,23.37 0 0 0 21.07,8.43 c 1.91,-0.22 1.9,2.78 0,3 a 26.1,26.1 0 0 1 -23.19,-9.31 c -1.22,-1.47 0.89,-3.6 2.12,-2.12"
         id="path234"
         inkscape:connector-curvature="0" />
    </g>
  </g>
  <g
     id="g244"
     style="fill:#ffffff;fill-opacity:0.38999999"
     transform="translate(-32.400337,1.4299345e-4)">
    <g
       clip-path="url(#d)"
       transform="matrix(0.35278,0,0,-0.35278,35.63,156.94)"
       id="g242"
       style="opacity:0.8">
      <path
         d="m 68.54,269.25 6.41,-3.85 c 1.66,-1 3.17,1.6 1.52,2.6 -2.14,1.27 -4.28,2.56 -6.41,3.84 -1.66,1 -3.17,-1.6 -1.52,-2.6"
         id="path240"
         inkscape:connector-curvature="0" />
    </g>
  </g>
  <g
     id="g250"
     style="fill:#ffffff;fill-opacity:0.38999999"
     transform="translate(-32.400337,1.4299345e-4)">
    <g
       clip-path="url(#e)"
       transform="matrix(0.35278,0,0,-0.35278,35.63,156.94)"
       id="g248"
       style="opacity:0.8">
      <path
         d="m 50.7,81.86 v 29.46 c 0,1.93 -3,1.93 -3,0 V 81.86 c 0,-1.93 3,-1.93 3,0"
         id="path246"
         inkscape:connector-curvature="0" />
    </g>
  </g>
  <g
     id="g256"
     style="fill:#ffffff;fill-opacity:0.38999999"
     transform="translate(-32.400337,1.4299345e-4)">
    <g
       clip-path="url(#f)"
       transform="matrix(0.35278,0,0,-0.35278,35.63,156.94)"
       id="g254"
       style="opacity:0.8">
      <path
         d="m 51.67,132.43 v 54.98 c 0,1.93 -3,1.94 -3,0 v -54.98 c 0,-1.93 3,-1.94 3,0"
         id="path252"
         inkscape:connector-curvature="0" />
    </g>
  </g>
  <g
     id="g262"
     style="fill:#ffffff;fill-opacity:0.38999999"
     transform="translate(-32.400337,1.4299345e-4)">
    <g
       clip-path="url(#g)"
       transform="matrix(0.35278,0,0,-0.35278,35.63,156.94)"
       id="g260"
       style="opacity:0.8">
      <path
         d="m 97.82,172.69 v 25.52 c 0,1.93 -3,1.94 -3,0 V 172.7 c 0,-1.94 3,-1.94 3,0"
         id="path258"
         inkscape:connector-curvature="0" />
    </g>
  </g>
  <path
     d="m 376.09966,137.66014 h 2.49 a 4.5,4.5 0 1 0 0,-8.98 h -2.5 a 4.49,4.49 0 1 0 0,8.98"
     id="path264"
     inkscape:connector-curvature="0"
     style="fill:#586ad5" />
  <g
     clip-path="url(#h)"
     transform="matrix(0.35278,0,0,-0.35278,227.99966,156.94014)"
     id="g268">
    <path
       d="m 439.07,63.9 a 12.71,12.71 0 0 1 -12.23,16.2 h -7.08 A 12.73,12.73 0 0 1 407.53,63.9 Z"
       id="path266"
       inkscape:connector-curvature="0"
       style="fill:#3d4eb5" />
  </g>
  <path
     d="m 388.31966,90.760143 v 40.579997 h -21.7 V 83.110143 c 0,-9.98 12.82,-32.74 25.71,-19.01 8.53,9.08 -4,17.35 -4,26.66"
     id="path270"
     inkscape:connector-curvature="0"
     style="fill:#ffe680" />
  <path
     d="m 384.34966,89.060143 v 37.979997 h -11.91 V 84.860143 c 0,-5.48 7.04,-17.97 14.11,-10.44 4.68,4.98 -2.2,9.52 -2.2,14.64"
     id="path272"
     inkscape:connector-curvature="0"
     style="fill:#ffd42a" />
  <path
     d="m 368.23966,87.100143 c 0,-9.97 12.83,-32.74 25.73,-19.01 0.48,0.51 0.89,1.02 1.24,1.53 a 10.11,10.11 0 0 0 -2.88,-5.52 c -12.9,-13.73 -25.72,9.03 -25.72,19.01 v 48.229997 h 1.63 z"
     id="path274"
     inkscape:connector-curvature="0"
     style="fill:#fff6d5" />
  <g
     id="g280"
     style="fill:#ffffff;fill-opacity:0.38999999"
     transform="translate(-32.400337,1.4299345e-4)">
    <g
       clip-path="url(#i)"
       transform="matrix(0.35278,0,0,-0.35278,260.4,156.94)"
       id="g278"
       style="opacity:0.8">
      <path
         d="m 397.72,216.3 a 75.86,75.86 0 0 0 24.74,43.47 c 1.45,1.27 -0.68,3.39 -2.12,2.12 a 78.53,78.53 0 0 1 -25.51,-44.8 c -0.35,-1.89 2.54,-2.7 2.89,-0.8"
         id="path276"
         inkscape:connector-curvature="0" />
    </g>
  </g>
  <g
     id="g286"
     style="fill:#ffffff;fill-opacity:0.38999999"
     transform="translate(-32.400337,1.4299345e-4)">
    <g
       clip-path="url(#j)"
       transform="matrix(0.35278,0,0,-0.35278,260.4,156.94)"
       id="g284"
       style="opacity:0.8">
      <path
         d="m 430.84,265.65 a 22.19,22.19 0 0 0 20.43,1.4 c 1.78,-0.73 2.56,2.17 0.8,2.9 a 25.03,25.03 0 0 1 -22.74,-1.71 c -1.65,-1 -0.15,-3.59 1.51,-2.6"
         id="path282"
         inkscape:connector-curvature="0" />
    </g>
  </g>
  <g
     id="g292"
     style="fill:#ffffff;fill-opacity:0.38999999"
     transform="translate(-32.400337,1.4299345e-4)">
    <g
       clip-path="url(#k)"
       transform="matrix(0.35278,0,0,-0.35278,260.4,156.94)"
       id="g290"
       style="opacity:0.8">
      <path
         d="m 397.3,142.25 v 43.69 c 0,1.93 -3,1.93 -3,0 v -43.7 c 0,-1.92 3,-1.93 3,0"
         id="path288"
         inkscape:connector-curvature="0" />
    </g>
  </g>
  <g
     id="g298"
     style="fill:#ffffff;fill-opacity:0.38999999"
     transform="translate(-32.400337,1.4299345e-4)">
    <g
       clip-path="url(#l)"
       transform="matrix(0.35278,0,0,-0.35278,260.4,156.94)"
       id="g296"
       style="opacity:0.8">
      <path
         d="m 447.74,131.68 v 49.92 c 0,1.93 -3,1.93 -3,0 v -49.92 c 0,-1.93 3,-1.93 3,0"
         id="path294"
         inkscape:connector-curvature="0" />
    </g>
  </g>
  <path
     d="m 67.899663,100.95014 h -7.28 c -3.82,0 -6.92,-4.399997 -6.92,-9.819997 v -4.46 h 21.12 v 4.46 c 0,5.42 -3.1,9.819997 -6.92,9.819997"
     id="path300"
     inkscape:connector-curvature="0"
     style="fill:#211b34" />
  <path
     d="m 75.599663,72.710143 h -24.36 l 2.08,-32.48 c 0.2,-3.08 3.02,-5.5 6.31,-5.5 h 7.58 c 3.29,0 6.11,2.42 6.3,5.5 z"
     id="path302"
     inkscape:connector-curvature="0"
     style="fill:#31284f" />
  <path
     d="m 53.129663,61.800143 c 1.71,0.5 2.7,2.26 2.23,3.96 l -5.23,18.27 a 3.2176738,3.2176738 0 0 1 -6.19,-1.76 l 5.23,-18.27 a 3.2,3.2 0 0 1 3.96,-2.2 m 20.84,0.3 a 3.21,3.21 0 0 0 -2.05,4.05 l 6.02,18.03 a 3.2128803,3.2128803 0 0 0 6.1,-2.02 l -6.01,-18.03 a 3.2,3.2 0 0 0 -4.06,-2.03"
     id="path304"
     inkscape:connector-curvature="0"
     style="fill:#ff8663" />
  <g
     id="g310"
     style="fill:#a7a9e3;fill-opacity:0.38999999"
     transform="translate(-32.400337,1.4299345e-4)">
    <g
       clip-path="url(#m)"
       transform="matrix(0.35278,0,0,-0.35278,35.06,156.94)"
       id="g308">
      <path
         d="m 142.68,301.82 -0.48,-14.7 c -0.04,-1.5 2.3,-1.5 2.34,0 l 0.47,14.7 c 0.05,1.5 -2.28,1.5 -2.33,0"
         id="path306"
         inkscape:connector-curvature="0" />
    </g>
  </g>
  <path
     d="m 73.969663,62.100143 a 3.22,3.22 0 0 0 -2.11,2.28 3.22,3.22 0 0 1 5.05,1.47 l 6.02,18.03 c 0.2,0.6 0.2,1.21 0.06,1.78 a 3.2,3.2 0 0 0 1.06,-3.5 l -6.02,-18.03 a 3.2,3.2 0 0 0 -4.06,-2.03 m -20.84,-0.3 c 1.1,0.32 1.9,1.17 2.21,2.18 a 3.22,3.22 0 0 0 -4.98,1.7 l -5.24,18.27 c -0.17,0.6 -0.15,1.22 0.02,1.78 a 3.2,3.2 0 0 1 -1.2,-3.45 l 5.23,-18.28 a 3.2,3.2 0 0 1 3.96,-2.2"
     id="path312"
     inkscape:connector-curvature="0"
     style="fill:#ffb999" />
  <path
     d="m 74.819663,61.000143 -7.41,-4.81 h -7.87 l -7.4,4.8 a 3.49,3.49 0 0 0 -1.57,3.76 l 3.45,14.23 -3.37,13.93 h 25.66 l -3.37,-13.92 3.45,-14.24 a 3.49,3.49 0 0 0 -1.57,-3.75"
     id="path314"
     inkscape:connector-curvature="0"
     style="fill:#ff407b" />
  <g
     clip-path="url(#n)"
     transform="matrix(0.33284,0.1169,0.1169,-0.33284,-25.200337,127.54014)"
     id="g318">
    <path
       d="m 215.35,265.32 a 9.43,9.43 0 0 1 -8.8,3.83 c -1.02,-0.13 -1.03,-1.76 0,-1.63 2.86,0.36 5.65,-0.7 7.39,-3.02 0.62,-0.84 2.04,-0.02 1.4,0.82"
       id="path316"
       inkscape:connector-curvature="0"
       style="fill:#ffd9ca" />
  </g>
  <g
     clip-path="url(#o)"
     transform="matrix(0.35275291,0.00437148,0.00437148,-0.35275291,1.701797,156.10573)"
     id="g322">
    <path
       d="m 134.01,264.5 a 7.83,7.83 0 0 0 7.38,3.02 c 1.04,-0.13 1.03,1.5 0,1.63 a 9.43,9.43 0 0 1 -8.79,-3.83 c -0.63,-0.84 0.79,-1.66 1.41,-0.82"
       id="path320"
       inkscape:connector-curvature="0"
       style="fill:#ffd9ca" />
  </g>
  <path
     d="m 50.729663,65.400143 c 0.27,-0.66 0.75,-1.25 1.4,-1.67 l 7.41,-4.81 h 7.87 l 7.41,4.81 a 3.66,3.66 0 0 1 1.41,1.68 l 0.16,-0.66 a 3.49,3.49 0 0 0 -1.57,-3.75 l -7.41,-4.81 h -7.87 l -7.4,4.8 a 3.49,3.49 0 0 0 -1.57,3.76 z"
     id="path324"
     inkscape:connector-curvature="0"
     style="fill:#ff6ca1" />
  <g
     clip-path="url(#p)"
     transform="matrix(0.35278,0,0,-0.35278,2.659663,156.94014)"
     id="g328">
    <path
       d="m 194.15,276.47 3.95,-2.83 c 0.81,-0.58 1.59,0.76 0.78,1.34 l -3.95,2.82 c -0.8,0.58 -1.58,-0.76 -0.78,-1.33"
       id="path326"
       inkscape:connector-curvature="0"
       style="fill:#ffd9ca" />
  </g>
  <g
     clip-path="url(#q)"
     transform="matrix(0.35222993,-0.01969271,-0.01969271,-0.35222993,6.807746,161.06714)"
     id="g332">
    <path
       d="m 221.34,244.5 -3.65,12.36 c -0.3,1 -1.88,0.58 -1.58,-0.43 l 3.66,-12.37 c 0.3,-1 1.87,-0.57 1.57,0.44"
       id="path330"
       inkscape:connector-curvature="0"
       style="fill:#ffd9ca" />
  </g>
  <g
     clip-path="url(#r)"
     transform="matrix(0.35275291,0.00437148,0.00437148,-0.35275291,1.701797,156.10573)"
     id="g336">
    <path
       d="m 128.18,244.06 3.66,12.37 c 0.3,1 -1.28,1.44 -1.58,0.43 l -3.65,-12.36 c -0.3,-1.01 1.27,-1.44 1.57,-0.44"
       id="path334"
       inkscape:connector-curvature="0"
       style="fill:#ffd9ca" />
  </g>
  <g
     clip-path="url(#s)"
     transform="matrix(0.35278,0,0,-0.35278,2.659663,156.94014)"
     id="g340">
    <path
       d="m 142,270.16 5.89,4.4 c 0.94,0.71 0.02,2.32 -0.94,1.6 l -5.88,-4.4 c -0.95,-0.7 -0.02,-2.32 0.94,-1.6"
       id="path338"
       inkscape:connector-curvature="0"
       style="fill:#ffd9ca" />
  </g>
  <path
     d="m 60.399663,54.730143 -3.75,3.1 a 3.72,3.72 0 0 0 4.47,5.94 l 2.07,-1.49 z m 6.28,0.2 3.6,2.9 a 3.72,3.72 0 0 1 -4.47,5.94 l -2.07,-1.49 z m -2.62,9.54 a 0.755,0.755 0 1 1 -1.51,0 0.75,0.75 0 0 1 1.5,0 m 0.01,3.59 a 0.755,0.755 0 1 1 -1.51,0 0.75,0.75 0 0 1 1.5,0"
     id="path342"
     inkscape:connector-curvature="0"
     style="fill:#ffffff" />
  <path
     d="m 68.009663,57.800143 v -8.46 h -9.19 v 8.46 a 4.6,4.6 0 1 0 9.2,0"
     id="path344"
     inkscape:connector-curvature="0"
     style="fill:#ffb999" />
  <path
     d="m 58.819663,54.120143 c 0.62,2.25 2.44,3.88 4.6,3.88 2.16,0 3.98,-1.63 4.6,-3.88 v -7.72 h -9.2 z"
     id="path346"
     inkscape:connector-curvature="0"
     style="fill:#ff8663" />
  <g
     clip-path="url(#t)"
     transform="matrix(0.35278,0,0,-0.35278,2.659663,156.94014)"
     id="g350">
    <path
       d="m 160.74,280.43 c 0.03,1.62 0.16,3.23 0.19,4.85 0.02,1.05 -1.62,1.05 -1.64,0 -0.03,-1.62 -0.15,-3.23 -0.18,-4.85 -0.02,-1.05 1.61,-1.05 1.63,0"
       id="path348"
       inkscape:connector-curvature="0"
       style="fill:#ffd9ca" />
  </g>
  <path
     d="m 59.579663,134.57014 h -9.9 v -5.44 a 3.85,3.85 0 0 1 3.84,-3.85 h 2.22 a 3.85,3.85 0 0 1 3.84,3.85 z"
     id="path352"
     inkscape:connector-curvature="0"
     style="fill:#ff407b" />
  <path
     d="m 57.759663,131.40014 h -6.26 v -6.98 h 6.27 z"
     id="path354"
     inkscape:connector-curvature="0"
     style="fill:#ce1d5d" />
  <path
     d="m 58.799663,134.57014 h -8.35 v -1.35 a 4.07,4.07 0 0 1 4.06,-4.07 h 0.23 a 4.07,4.07 0 0 1 4.07,4.07 z"
     id="path356"
     inkscape:connector-curvature="0"
     style="fill:#ffffff" />
  <path
     d="m 49.669663,135.92014 h 9.91 v -1.54 h -9.9 z m 8.57,-6.39 a 4.52,4.52 0 0 0 -7.23,0 c -0.16,0.22 0.2,0.43 0.37,0.21 a 4.09,4.09 0 0 1 6.5,0 c 0.16,0.22 0.52,0 0.36,-0.21"
     id="path358"
     inkscape:connector-curvature="0"
     style="fill:#ffffff" />
  <path
     d="m 59.389663,126.47014 h -9.52 l -1.38,-31.999997 c -0.2,-4.51 2.55,-8.39 6.14,-8.39 3.59,0 6.33,3.88 6.13,8.39 z"
     id="path360"
     inkscape:connector-curvature="0"
     style="fill:#31284f" />
  <g
     id="g366"
     style="fill:#ffffff;fill-opacity:0.38999999"
     transform="translate(-32.400337,1.4299345e-4)">
    <g
       clip-path="url(#u)"
       transform="matrix(0.35278,0,0,-0.35278,36.65,156.94)"
       id="g364"
       style="opacity:0.5">
      <path
         d="m 127.1,176.3 2.76,-75.18 0.4,-10.95 c 0.05,-1.37 2.18,-1.38 2.13,0 l -2.75,75.19 -0.4,10.94 c -0.05,1.37 -2.18,1.38 -2.13,0"
         id="path362"
         inkscape:connector-curvature="0" />
    </g>
  </g>
  <path
     d="m 58.609663,87.990143 c -0.82,2.6 -2.2,4.63 -4.07,5.3 l 0.02,33.179997 h 4.83 l 1.37,-31.999997 a 9.11,9.11 0 0 0 -2.15,-6.48"
     id="path368"
     inkscape:connector-curvature="0"
     style="fill:#605780" />
  <path
     d="m 78.469663,134.48014 h -9.91 v -5.45 a 3.85,3.85 0 0 1 3.84,-3.84 h 2.22 a 3.85,3.85 0 0 1 3.85,3.84 z"
     id="path370"
     inkscape:connector-curvature="0"
     style="fill:#ff407b" />
  <path
     d="m 76.649663,131.31014 h -6.28 v -6.98 h 6.28 z"
     id="path372"
     inkscape:connector-curvature="0"
     style="fill:#ce1d5d" />
  <path
     d="m 77.699663,134.48014 h -8.37 v -1.36 a 4.07,4.07 0 0 1 4.07,-4.07 h 0.22 a 4.07,4.07 0 0 1 4.07,4.07 z"
     id="path374"
     inkscape:connector-curvature="0"
     style="fill:#ffffff" />
  <path
     d="m 68.559663,135.82014 h 9.9 v -1.53 h -9.9 z m 8.56,-6.39 a 4.52,4.52 0 0 0 -7.22,0 c -0.17,0.22 0.2,0.43 0.36,0.22 a 4.09,4.09 0 0 1 6.5,0 c 0.16,0.21 0.53,0 0.36,-0.22"
     id="path376"
     inkscape:connector-curvature="0"
     style="fill:#ffffff" />
  <path
     d="m 78.269663,126.38014 h -9.52 l -1.38,-31.999997 c -0.2,-4.52 2.55,-8.4 6.14,-8.4 3.6,0 6.33,3.88 6.14,8.4 z"
     id="path378"
     inkscape:connector-curvature="0"
     style="fill:#31284f" />
  <g
     id="g384"
     style="fill:#ffffff;fill-opacity:0.38999999"
     transform="translate(-32.400337,1.4299345e-4)">
    <g
       clip-path="url(#v)"
       transform="matrix(0.35278,0,0,-0.35278,31.98,156.94)"
       id="g382"
       style="opacity:0.5">
      <path
         d="m 194.13,176.3 2.75,-75.18 0.4,-10.95 c 0.05,-1.37 2.18,-1.38 2.13,0 l -2.75,75.19 -0.4,10.94 c -0.05,1.37 -2.18,1.38 -2.13,0"
         id="path380"
         inkscape:connector-curvature="0" />
    </g>
  </g>
  <path
     d="m 77.499663,87.900143 c -0.83,2.6 -2.21,4.63 -4.07,5.3 l 0.02,33.179997 h 4.82 l 1.38,-31.999997 a 9.11,9.11 0 0 0 -2.15,-6.49"
     id="path386"
     inkscape:connector-curvature="0"
     style="fill:#605780" />
  <path
     d="m 70.269663,73.000143 -12.2,0.05 -0.02,-3.13 12.2,-0.05 z"
     id="path388"
     inkscape:connector-curvature="0"
     style="fill:#2e2e47" />
  <path
     d="m 58.049663,77.000143 c -1.2,0 -2.16,-0.96 -2.17,-2.15 l -0.02,-4.67 c 0,-1.2 0.95,-2.17 2.15,-2.17 l 1.35,-0.01 a 2.16,2.16 0 0 1 2.09,2.75 l -1.33,4.68 a 2.16,2.16 0 0 1 -2.07,1.57 m 12.07,-0.05 c 1.19,0 2.15,-0.98 2.14,-2.17 l -0.02,-4.68 c 0,-1.2 -0.98,-2.15 -2.17,-2.15 l -1.35,0.01 a 2.16,2.16 0 0 0 -2.06,2.77 l 1.37,4.67 a 2.16,2.16 0 0 0 2.09,1.55"
     id="path390"
     inkscape:connector-curvature="0"
     style="fill:#2e2e47" />
  <path
     d="m 70.249663,70.170143 -12.2,0.06 v -1.45 l 12.2,-0.05 z"
     id="path392"
     inkscape:connector-curvature="0"
     style="fill:#2e2e47" />
  <path
     d="m 59.379663,68.340143 c 0.24,0.01 0.46,0.1 0.65,0.24 0.12,0.1 0.3,-0.07 0.18,-0.18 a 1.4,1.4 0 0 0 -0.83,-0.32 c -0.16,0 -0.16,0.25 0,0.26 m 8.68,0.15 c 0.35,-0.18 0.74,-0.15 1.12,-0.13 0.16,0 0.16,-0.25 0,-0.26 -0.44,-0.01 -0.85,-0.03 -1.25,0.17 -0.15,0.07 -0.02,0.3 0.13,0.22"
     id="path394"
     inkscape:connector-curvature="0"
     style="fill:#47475e" />
  <path
     d="m 65.919663,70.360143 -3.56,0.01 a 0.5,0.5 0 1 1 0,-1 h 3.56 a 0.5,0.5 0 0 1 0,1"
     id="path396"
     inkscape:connector-curvature="0"
     style="fill:#00ffff" />
  <path
     d="m 57.329663,68.900143 c 0.58,-0.1 1.17,-0.11 1.76,-0.03 0.23,0.03 0.33,-0.33 0.1,-0.36 -0.66,-0.1 -1.3,-0.08 -1.96,0.04 -0.24,0.04 -0.14,0.4 0.1,0.36 m 0,0.74 c 0.58,-0.1 1.17,-0.12 1.76,-0.04 0.23,0.04 0.33,-0.33 0.1,-0.36 a 6.17,6.17 0 0 0 -1.96,0.04 c -0.24,0.04 -0.14,0.4 0.1,0.36 m 11.38,-0.75 c 0.58,-0.1 1.17,-0.11 1.76,-0.03 0.23,0.03 0.34,-0.33 0.1,-0.36 -0.66,-0.1 -1.3,-0.08 -1.96,0.04 -0.24,0.04 -0.13,0.4 0.1,0.36 m 0,0.74 c 0.58,-0.1 1.17,-0.12 1.76,-0.04 0.23,0.04 0.34,-0.33 0.1,-0.36 a 6.17,6.17 0 0 0 -1.96,0.04 c -0.24,0.04 -0.13,0.4 0.1,0.36"
     id="path398"
     inkscape:connector-curvature="0"
     style="fill:#e6e6e6" />
  <path
     d="m 76.209663,70.270143 6.98,8.67 c 0,0 3.1,5.75 -0.81,7.55 -1.34,0.62 -2.57,0.22 -3.57,-0.47 a 6.1,6.1 0 0 1 -2.56,-4.58 l -2.09,-7.49 z"
     id="path400"
     inkscape:connector-curvature="0"
     style="fill:#ffb999" />
  <path
     d="m 82.779663,86.230143 c -0.58,-1.18 -1.18,-2.34 -1.77,-3.52 -0.52,-1.05 -4.13,-7.2 -4.6,-8.3 -0.38,-0.86 -0.81,-1.76 -1,-2.7 l -1.25,2.24 1.91,7.47 c 0.76,2.96 1.23,3.56 2.74,4.6 1,0.69 2.23,1.09 3.57,0.47 0.15,-0.07 0.29,-0.14 0.41,-0.22 a 0.84,0.84 0 0 0 -0.01,-0.04"
     id="path402"
     inkscape:connector-curvature="0"
     style="fill:#ff8663" />
  <path
     d="m 77.099663,75.740143 -1.89,2.31 -0.78,-3.06 0.48,0.14 a 12.65,12.65 0 0 0 2.02,0.32 l 0.07,0.13 0.1,0.16"
     id="path404"
     inkscape:connector-curvature="0"
     style="fill:#c6614a" />
  <path
     d="m 77.019663,74.400143 c -0.23,-1.38 -0.66,-2.74 -0.8,-4.13 -0.78,-0.08 -3.6,-1.48 -3.6,-1.48 0,0 -0.4,-0.05 -0.83,0 0.28,0.37 0.45,0.82 0.45,1.31 v 0.52 l 0.34,0.43 c -0.6,1.2 -2.9,1.7 -3.21,1.8 -0.32,0.1 -1.45,0.06 -1.45,0.06 0.35,1.11 2.02,1.2 2.02,1.2 -0.68,0.84 1.15,1.52 1.15,1.52 -0.11,0.16 0.43,0.75 0.43,0.75 l 0.94,0.28 c 0,0 0.76,0.5 0.84,0.47 l 3.91,-1.48 h 0.05 a 34.9,34.9 0 0 1 -0.24,-1.25"
     id="path406"
     inkscape:connector-curvature="0"
     style="fill:#ffb999" />
  <g
     clip-path="url(#w)"
     transform="matrix(0.35278,0,0,-0.35278,2.659663,156.94014)"
     id="g410">
    <path
       d="m 228.87,218.46 c -6.12,8.36 -12.74,16.33 -18.86,24.7 -0.68,0.92 -2.25,0.02 -1.56,-0.92 6.12,-8.36 12.74,-16.34 18.86,-24.7 0.68,-0.93 2.25,-0.02 1.56,0.92"
       id="path408"
       inkscape:connector-curvature="0"
       style="fill:#ffd9ca" />
  </g>
  <g
     clip-path="url(#x)"
     transform="matrix(0.35278,0,0,-0.35278,2.659663,156.94014)"
     id="g414">
    <path
       d="m 202.7,247.31 -3.52,1.71 c -1.05,0.5 -1.97,-1.05 -0.92,-1.56 l 3.53,-1.7 c 1.05,-0.51 1.97,1.04 0.92,1.55"
       id="path412"
       inkscape:connector-curvature="0"
       style="fill:#ffd9ca" />
  </g>
  <path
     d="m 73.819663,76.820143 c -0.05,-0.13 -0.36,-0.24 -0.46,-0.33 a 4.3,4.3 0 0 1 -0.92,-1.15 l -0.43,-0.71 -0.6,-0.98 c -0.3,-0.47 -0.47,-0.88 -0.01,-1.25 0.42,-0.33 0.83,-0.6 1.04,-1.12 -0.75,1.04 -2.77,1.49 -3.07,1.57 -0.32,0.1 -1.45,0.06 -1.45,0.06 0.35,1.11 2.02,1.2 2.02,1.2 -0.68,0.84 1.15,1.52 1.15,1.52 -0.11,0.16 0.43,0.75 0.43,0.75 l 0.94,0.28 c 0,0 0.76,0.5 0.84,0.47 0.12,-0.05 0.48,-0.1 0.52,-0.24 a 0.1,0.1 0 0 0 0,-0.07"
     id="path416"
     inkscape:connector-curvature="0"
     style="fill:#ff8663" />
  <path
     d="m 70.959663,73.940143 c -0.34,0.09 -0.7,0.14 -1.05,0.17 -0.1,0 -0.1,0.17 0,0.16 0.37,-0.03 0.74,-0.08 1.1,-0.17 0.1,-0.03 0.06,-0.19 -0.05,-0.16 m 0.9,1.47 c -0.28,0.03 -0.56,0.1 -0.84,0.13 -0.1,0 -0.11,0.17 0,0.16 0.28,-0.02 0.56,-0.1 0.84,-0.12 0.1,-0.01 0.1,-0.18 0,-0.17 m 1,1.14 c -0.14,0.04 -0.27,0.08 -0.42,0.07 -0.1,0 -0.1,0.16 0,0.17 0.17,0.01 0.3,-0.04 0.46,-0.08 0.1,-0.02 0.06,-0.18 -0.04,-0.16 m -1.93,-3.7 c 0.02,0.19 0.07,0.36 0.19,0.51 0.06,0.09 0.2,0 0.14,-0.08 a 0.85,0.85 0 0 1 -0.17,-0.43 c 0,-0.1 -0.17,-0.11 -0.16,0 m 0.83,1.48 c 0,0.25 0.11,0.45 0.3,0.6 0.1,0.06 0.17,-0.09 0.09,-0.15 a 0.56,0.56 0 0 1 -0.23,-0.45 c 0,-0.1 -0.17,-0.1 -0.16,0 m 0.85,1.5 c 0.05,0.2 0.17,0.34 0.34,0.44 0.1,0.05 0.18,-0.1 0.09,-0.15 a 0.51,0.51 0 0 1 -0.27,-0.34 c -0.03,-0.1 -0.18,-0.06 -0.16,0.05 m 0.68,0.81 c 0.11,0.12 0.24,0.2 0.4,0.23 0.1,0.02 0.15,-0.13 0.05,-0.16 a 0.61,0.61 0 0 1 -0.33,-0.18 c -0.08,-0.08 -0.2,0.04 -0.12,0.11"
     id="path418"
     inkscape:connector-curvature="0"
     style="fill:#c6614a" />
  <path
     d="m 51.869663,70.270143 -6.98,8.67 c 0,0 -3.1,5.75 0.8,7.55 1.34,0.62 2.58,0.22 3.58,-0.47 a 6.1,6.1 0 0 0 2.55,-4.58 l 2.1,-7.49 z"
     id="path420"
     inkscape:connector-curvature="0"
     style="fill:#ffb999" />
  <path
     d="m 45.299663,86.230143 c 0.57,-1.18 1.18,-2.34 1.76,-3.52 0.53,-1.05 4.14,-7.2 4.62,-8.3 0.37,-0.86 0.8,-1.76 0.98,-2.7 l 1.25,2.24 -1.9,7.47 c -0.77,2.96 -1.23,3.56 -2.74,4.6 -1,0.69 -2.24,1.09 -3.57,0.47 a 4,4 0 0 1 -0.42,-0.22 l 0.02,-0.04"
     id="path422"
     inkscape:connector-curvature="0"
     style="fill:#ff8663" />
  <path
     d="m 50.979663,75.740143 1.89,2.31 0.78,-3.06 -0.49,0.14 a 12.65,12.65 0 0 1 -2.01,0.32 l -0.07,0.13 -0.1,0.16"
     id="path424"
     inkscape:connector-curvature="0"
     style="fill:#c6614a" />
  <path
     d="m 51.059663,74.400143 c 0.23,-1.38 0.66,-2.74 0.8,-4.13 0.78,-0.08 3.6,-1.48 3.6,-1.48 0,0 0.39,-0.05 0.83,0 -0.28,0.37 -0.45,0.82 -0.45,1.31 v 0.52 l -0.34,0.43 c 0.6,1.2 2.89,1.7 3.2,1.8 0.33,0.1 1.46,0.06 1.46,0.06 -0.36,1.11 -2.03,1.2 -2.03,1.2 0.69,0.84 -1.14,1.52 -1.14,1.52 0.11,0.16 -0.43,0.75 -0.43,0.75 l -0.94,0.28 c 0,0 -0.76,0.5 -0.84,0.47 l -3.91,-1.48 h -0.05 l 0.24,-1.25"
     id="path426"
     inkscape:connector-curvature="0"
     style="fill:#ffb999" />
  <g
     clip-path="url(#y)"
     transform="matrix(0.35278,0,0,-0.35278,2.659663,156.94014)"
     id="g430">
    <path
       d="m 120.64,217.54 c 6.12,8.36 12.74,16.34 18.86,24.7 0.69,0.94 -0.88,1.85 -1.57,0.91 -6.11,-8.36 -12.74,-16.33 -18.85,-24.7 -0.69,-0.93 0.88,-1.84 1.56,-0.9"
       id="path428"
       inkscape:connector-curvature="0"
       style="fill:#ffd9ca" />
  </g>
  <g
     clip-path="url(#z)"
     transform="matrix(0.35278,0,0,-0.35278,2.659663,156.94014)"
     id="g434">
    <path
       d="m 146.15,245.75 3.53,1.71 c 1.05,0.5 0.14,2.07 -0.9,1.56 l -3.54,-1.7 c -1.05,-0.51 -0.13,-2.08 0.91,-1.57"
       id="path432"
       inkscape:connector-curvature="0"
       style="fill:#ffd9ca" />
  </g>
  <path
     d="m 54.259663,76.820143 c 0.05,-0.13 0.35,-0.24 0.46,-0.33 0.39,-0.3 0.66,-0.74 0.92,-1.15 l 0.43,-0.71 0.6,-0.98 c 0.29,-0.47 0.47,-0.88 0,-1.25 -0.41,-0.33 -0.83,-0.6 -1.03,-1.12 0.75,1.04 2.77,1.49 3.07,1.57 0.32,0.1 1.45,0.06 1.45,0.06 -0.36,1.11 -2.03,1.2 -2.03,1.2 0.69,0.84 -1.14,1.52 -1.14,1.52 0.11,0.16 -0.43,0.75 -0.43,0.75 l -0.94,0.28 c 0,0 -0.76,0.5 -0.84,0.47 -0.12,-0.05 -0.48,-0.1 -0.52,-0.24 a 0.1,0.1 0 0 1 0,-0.07"
     id="path436"
     inkscape:connector-curvature="0"
     style="fill:#ff8663" />
  <path
     d="m 57.069663,74.100143 c 0.36,0.09 0.73,0.14 1.1,0.17 0.1,0 0.1,-0.16 0,-0.16 -0.36,-0.03 -0.71,-0.08 -1.06,-0.17 -0.1,-0.03 -0.14,0.13 -0.04,0.16 m -0.86,1.48 c 0.29,0.02 0.57,0.1 0.85,0.12 0.1,0.01 0.1,-0.15 0,-0.16 -0.28,-0.03 -0.56,-0.1 -0.85,-0.13 -0.1,0 -0.1,0.16 0,0.17 m -1.04,1.13 c 0.16,0.04 0.3,0.09 0.46,0.08 0.1,-0.01 0.1,-0.18 0,-0.17 -0.15,0.01 -0.27,-0.03 -0.41,-0.07 -0.1,-0.02 -0.15,0.14 -0.05,0.16 m 1.81,-3.86 a 0.85,0.85 0 0 1 -0.16,0.43 c -0.06,0.09 0.08,0.17 0.14,0.08 0.11,-0.15 0.17,-0.32 0.19,-0.51 0,-0.1 -0.16,-0.1 -0.17,0 m -0.82,1.48 c 0,0.18 -0.09,0.34 -0.23,0.45 -0.09,0.06 0,0.2 0.08,0.14 0.2,-0.14 0.3,-0.34 0.31,-0.59 0,-0.1 -0.16,-0.1 -0.16,0 m -0.86,1.45 a 0.51,0.51 0 0 1 -0.26,0.34 c -0.1,0.05 0,0.2 0.08,0.15 0.18,-0.1 0.3,-0.25 0.35,-0.44 0.02,-0.1 -0.14,-0.15 -0.16,-0.05 m -0.64,0.75 c -0.1,0.1 -0.2,0.15 -0.33,0.18 -0.1,0.03 -0.06,0.18 0.04,0.16 0.16,-0.03 0.3,-0.1 0.4,-0.23 0.08,-0.07 -0.04,-0.19 -0.1,-0.11"
     id="path438"
     inkscape:connector-curvature="0"
     style="fill:#c6614a" />
  <path
     d="m 72.139663,44.600143 c -0.57,1.8 -0.31,3.3 0.56,3.34 0.88,0.04 2.05,-1.37 2.62,-3.17 0.56,-1.8 0.3,-3.29 -0.57,-3.33 -0.88,-0.05 -2.05,1.37 -2.61,3.16"
     id="path440"
     inkscape:connector-curvature="0"
     style="fill:#ffb999" />
  <path
     d="m 75.039663,43.540143 c 0.1,-0.19 0.06,-0.43 -0.07,-0.6 a 0.57,0.57 0 0 0 -0.58,-0.18 c -0.37,0.1 -0.53,0.54 -0.63,0.92 l -0.35,1.3 c 0.05,-0.07 0.17,-0.09 0.25,-0.04 0.09,0.04 0.14,0.13 0.17,0.22 0.09,0.25 0.05,0.54 -0.1,0.75 a 0.83,0.83 0 0 1 -0.68,0.33"
     stroke-miterlimit="10"
     id="path442"
     inkscape:connector-curvature="0"
     style="fill:none;stroke:#ff8663;stroke-width:0.40569699;stroke-linecap:round;stroke-linejoin:round;stroke-miterlimit:10" />
  <path
     d="m 54.699663,44.600143 c 0.57,1.8 0.31,3.3 -0.57,3.34 -0.87,0.04 -2.04,-1.37 -2.6,-3.17 -0.57,-1.8 -0.32,-3.29 0.56,-3.33 0.88,-0.05 2.05,1.37 2.61,3.16"
     id="path444"
     inkscape:connector-curvature="0"
     style="fill:#ffb999" />
  <path
     d="m 51.949663,43.540143 a 0.57,0.57 0 0 1 0.07,-0.6 0.57,0.57 0 0 1 0.57,-0.18 c 0.38,0.1 0.54,0.54 0.64,0.92 l 0.35,1.3 c -0.05,-0.07 -0.17,-0.09 -0.26,-0.04 a 0.39,0.39 0 0 0 -0.16,0.22 0.83,0.83 0 0 0 0.1,0.75 c 0.16,0.2 0.42,0.34 0.68,0.33"
     stroke-miterlimit="10"
     id="path446"
     inkscape:connector-curvature="0"
     style="fill:none;stroke:#ff8663;stroke-width:0.40569699;stroke-linecap:round;stroke-linejoin:round;stroke-miterlimit:10" />
  <path
     d="m 63.419663,54.920143 c -5.55,0 -10.05,-4.5 -10.05,-10.06 v -3.02 a 10.05,10.05 0 1 1 20.1,0 v 3.02 c 0,5.56 -4.5,10.06 -10.05,10.06"
     id="path448"
     inkscape:connector-curvature="0"
     style="fill:#ffb999" />
  <path
     d="m 58.299663,41.450143 a 13.22,13.22 0 0 0 4.81,-5.24 c 1.23,1.82 2.5,3.67 4.19,5.08 a 9.52,9.52 0 0 0 2.93,1.7 c 0.83,0.29 2.41,0.75 3.24,0.28 v -1.43 a 10.05,10.05 0 1 0 -20.1,0 v 1.18 c 1.58,0.16 3.47,-0.66 4.93,-1.57"
     id="path450"
     inkscape:connector-curvature="0"
     style="fill:#ff8663" />
  <g
     clip-path="url(#A)"
     transform="matrix(0.35278,0,0,-0.35278,2.659663,156.94014)"
     id="g454">
    <path
       d="m 148.85,302.22 a 26.1,26.1 0 0 1 20.77,-12.18 c 1.5,-0.09 1.5,2.25 0,2.33 a 23.62,23.62 0 0 0 -18.75,11.03 c -0.8,1.26 -2.83,0.09 -2.02,-1.18"
       id="path452"
       inkscape:connector-curvature="0"
       style="fill:#ffd9ca" />
  </g>
  <g
     clip-path="url(#B)"
     transform="matrix(0.35278,0,0,-0.35278,2.659663,156.94014)"
     id="g458">
    <path
       d="m 154.15,310.72 c 1.1,-0.5 2.23,-0.8 3.45,-0.74 1.22,0.07 2.4,1.02 2.34,2.33 -0.06,1.21 -1.03,2.41 -2.34,2.34 h -0.54 c -0.44,-0.01 0.27,-0.1 0,-0.02 l -0.44,0.1 c -0.13,0.04 -0.62,0.26 -0.1,0.03 -1.12,0.5 -2.57,0.35 -3.2,-0.84 -0.54,-1.03 -0.35,-2.66 0.83,-3.2"
       id="path456"
       inkscape:connector-curvature="0"
       style="fill:#ffd9ca" />
  </g>
  <g
     clip-path="url(#C)"
     transform="matrix(0.35278,0,0,-0.35278,2.659663,156.94014)"
     id="g462">
    <path
       d="m 186.63,314.76 c 0.52,0.23 -0.01,0 -0.11,-0.02 -0.15,-0.05 -0.3,-0.07 -0.44,-0.1 -0.29,-0.08 0.54,0 0,0 l -0.54,0.01 c -1.22,0.07 -2.4,-1.12 -2.34,-2.34 a 2.39,2.39 0 0 1 2.34,-2.33 7.23,7.23 0 0 1 3.45,0.74 c 1.11,0.51 1.47,2.21 0.83,3.2 -0.74,1.15 -2,1.38 -3.2,0.84"
       id="path460"
       inkscape:connector-curvature="0"
       style="fill:#ffd9ca" />
  </g>
  <g
     clip-path="url(#D)"
     transform="matrix(0.35278,0,0,-0.35278,2.659663,156.94014)"
     id="g466">
    <path
       d="m 170.19,323.74 v -13.9 c 0,-1.5 2.33,-1.5 2.33,0 v 13.9 c 0,1.5 -2.33,1.5 -2.33,0"
       id="path464"
       inkscape:connector-curvature="0"
       style="fill:#ffd9ca" />
  </g>
  <path
     d="m 61.569663,41.450143 0.8,0.68 c 0.07,0.05 0.13,0.1 0.18,0.18 0.06,0.11 0.06,0.25 0.06,0.38 l 0.02,5.15"
     stroke-miterlimit="10"
     id="path468"
     inkscape:connector-curvature="0"
     style="fill:none;stroke:#ff8663;stroke-width:0.40569699;stroke-linecap:round;stroke-linejoin:round;stroke-miterlimit:10" />
  <path
     d="m 60.739663,49.400143 a 2.34,2.34 0 0 0 4.64,0 z"
     id="path470"
     inkscape:connector-curvature="0"
     style="fill:#31284f" />
  <path
     d="m 63.059663,49.940143 c -0.68,0 -1.28,0.3 -1.7,0.76 a 2.31,2.31 0 0 0 3.41,0 2.31,2.31 0 0 0 -1.7,-0.76"
     id="path472"
     inkscape:connector-curvature="0"
     style="fill:#ff407b" />
  <path
     d="m 65.649663,40.300143 c 1.5,-0.18 3.04,0.04 4.43,0.62"
     stroke-miterlimit="10"
     id="path474"
     inkscape:connector-curvature="0"
     style="fill:none;stroke:#31284f;stroke-width:0.6067816;stroke-linecap:round;stroke-linejoin:round;stroke-miterlimit:10" />
  <path
     d="m 68.549663,44.320143 c 0,0.7 -0.3,1.27 -0.69,1.27 -0.37,0 -0.68,-0.57 -0.68,-1.27 0,-0.7 0.3,-1.27 0.68,-1.27 0.38,0 0.7,0.57 0.7,1.27"
     id="path476"
     inkscape:connector-curvature="0"
     style="fill:#31284f" />
  <path
     d="m 68.449663,43.880143 a 0.4,0.4 0 1 1 -0.8,0 0.4,0.4 0 0 1 0.8,0"
     id="path478"
     inkscape:connector-curvature="0"
     style="fill:#ffffff" />
  <path
     d="m 56.759663,40.740143 a 7.3,7.3 0 0 1 3.8,-0.23"
     stroke-miterlimit="10"
     id="path480"
     inkscape:connector-curvature="0"
     style="fill:none;stroke:#31284f;stroke-width:0.6067816;stroke-linecap:round;stroke-linejoin:round;stroke-miterlimit:10" />
  <path
     d="m 59.339663,44.320143 c 0,0.7 -0.3,1.27 -0.69,1.27 -0.37,0 -0.68,-0.57 -0.68,-1.27 0,-0.7 0.3,-1.27 0.68,-1.27 0.38,0 0.69,0.57 0.69,1.27"
     id="path482"
     inkscape:connector-curvature="0"
     style="fill:#31284f" />
  <path
     d="m 59.269663,43.880143 a 0.4,0.4 0 1 1 -0.8,0 0.4,0.4 0 0 1 0.8,0"
     id="path484"
     inkscape:connector-curvature="0"
     style="fill:#ffffff" />
  <path
     d="m 53.849663,39.170143 c -0.31,0.97 -0.48,2 -0.48,3.06 v 3.02 c 0,0.58 0.06,1.13 0.15,1.68 l 2.97,-7.76 z m 19.15,0 c 0.3,0.97 0.47,2 0.47,3.06 v 3.02 c 0,0.58 -0.06,1.13 -0.15,1.68 l -2.97,-7.76 z"
     id="path486"
     inkscape:connector-curvature="0"
     style="fill:#31284f" />
  <path
     d="m 63.479663,29.500143 h -0.12 c -5.93,0 -10.73,4.8 -10.73,10.72 v 0.98 l 0.62,1.1 c 7.35,-0.94 9.67,-6.86 10.17,-9.53 0.48,2.58 2.67,8.36 9.45,9.6 a 0.93,0.93 0 0 0 1.02,-0.51 l 0.32,-0.66 v -0.98 c 0,-5.92 -4.8,-10.72 -10.73,-10.72"
     id="path488"
     inkscape:connector-curvature="0"
     style="fill:#31284f" />
  <g
     id="g494"
     style="fill:#a7a9e3;fill-opacity:0.38999999"
     transform="translate(-32.400337,1.4299345e-4)">
    <g
       clip-path="url(#E)"
       transform="matrix(0.35278,0,0,-0.35278,35.06,156.94)"
       id="g492">
      <path
         d="m 147.43,340.08 a 27.22,27.22 0 0 0 15.58,15.7 c 1.39,0.54 0.78,2.8 -0.62,2.26 a 29.76,29.76 0 0 1 -17.22,-17.33 c -0.53,-1.41 1.73,-2.02 2.26,-0.62"
         id="path490"
         inkscape:connector-curvature="0" />
    </g>
  </g>
  <g
     id="g500"
     style="fill:#a7a9e3;fill-opacity:0.38999999"
     transform="translate(-32.400337,1.4299345e-4)">
    <g
       clip-path="url(#F)"
       transform="matrix(0.35278,0,0,-0.35278,35.06,156.94)"
       id="g498">
      <path
         d="m 167.3,357.8 c 1.5,0 1.5,2.33 0,2.33 -1.5,0 -1.5,-2.34 0,-2.34"
         id="path496"
         inkscape:connector-curvature="0" />
    </g>
  </g>
  <g
     id="g506"
     style="fill:#a7a9e3;fill-opacity:0.38999999"
     transform="translate(-32.400337,1.4299345e-4)">
    <g
       clip-path="url(#G)"
       transform="matrix(0.35278,0,0,-0.35278,35.06,156.94)"
       id="g504">
      <path
         d="m 157.05,331.17 a 37.68,37.68 0 0 1 12.76,16.56 c 0.55,1.4 -1.7,2 -2.25,0.63 a 34.87,34.87 0 0 0 -11.7,-15.17 c -1.19,-0.89 -0.02,-2.91 1.19,-2.02"
         id="path502"
         inkscape:connector-curvature="0" />
    </g>
  </g>
  <g
     id="g512"
     style="fill:#a7a9e3;fill-opacity:0.38999999"
     transform="translate(-32.400337,1.4299345e-4)">
    <g
       clip-path="url(#H)"
       transform="matrix(0.35278,0,0,-0.35278,35.06,156.94)"
       id="g510">
      <path
         d="m 149.4,330.47 h -0.16 c -1.5,0 -1.51,-2.33 0,-2.33 h 0.17 c 1.5,0 1.5,2.33 0,2.33"
         id="path508"
         inkscape:connector-curvature="0" />
    </g>
  </g>
  <g
     id="g518"
     style="fill:#a7a9e3;fill-opacity:0.38999999"
     transform="translate(-32.400337,1.4299345e-4)">
    <g
       clip-path="url(#I)"
       transform="matrix(0.35278,0,0,-0.35278,35.06,156.94)"
       id="g516">
      <path
         d="m 173.58,354.28 a 47.42,47.42 0 0 1 9.58,-18.15 c 0.97,-1.15 2.61,0.5 1.65,1.65 a 44.59,44.59 0 0 0 -8.98,17.12 c -0.4,1.45 -2.65,0.83 -2.25,-0.62"
         id="path514"
         inkscape:connector-curvature="0" />
    </g>
  </g>
  <g
     id="g524"
     style="fill:#a7a9e3;fill-opacity:0.38999999"
     transform="translate(-32.400337,1.4299345e-4)">
    <g
       clip-path="url(#J)"
       transform="matrix(0.35278,0,0,-0.35278,35.06,156.94)"
       id="g522">
      <path
         d="m 179.8,355.01 a 27.16,27.16 0 0 0 11.4,-8.73 c 0.9,-1.18 2.92,-0.01 2.01,1.18 a 30.08,30.08 0 0 1 -12.79,9.8 c -1.39,0.57 -2,-1.69 -0.62,-2.25"
         id="path520"
         inkscape:connector-curvature="0" />
    </g>
  </g>
  <g
     id="g530"
     style="fill:#a7a9e3;fill-opacity:0.38999999"
     transform="translate(-32.400337,1.4299345e-4)">
    <g
       clip-path="url(#K)"
       transform="matrix(0.35278,0,0,-0.35278,35.06,156.94)"
       id="g528">
      <path
         d="m 198.83,329.84 c 1.5,0 1.5,2.34 0,2.34 -1.5,0 -1.5,-2.34 0,-2.34"
         id="path526"
         inkscape:connector-curvature="0" />
    </g>
  </g>
  <g
     id="g534"
     transform="translate(-32.400337,1.4299345e-4)">
    <path
       d="m 102.9,37.74 0.81,-2.78 c 0.33,-1.14 1.68,-0.92 2.44,0.47 l 0.11,0.22 0.45,0.94 c 0.1,0.23 0.19,0.46 0.24,0.69 0.34,1.29 -0.3,2.16 -1.25,1.8 l -2.63,-1 c -0.11,-0.05 -0.2,-0.22 -0.16,-0.34"
       id="path532"
       inkscape:connector-curvature="0"
       style="fill:#ff407b" />
  </g>
  <g
     id="g538"
     transform="translate(-32.400337,1.4299345e-4)">
    <path
       d="m 103.54,37.44 -2.65,-1.15 c -1.1,-0.47 -1.79,0.71 -1.2,2.19 l 0.1,0.22 0.44,0.94 c 0.11,0.23 0.23,0.44 0.37,0.63 0.78,1.08 1.86,1.13 2.19,0.18 l 0.9,-2.67 c 0.04,-0.11 -0.04,-0.29 -0.15,-0.34"
       id="path536"
       inkscape:connector-curvature="0"
       style="fill:#ff407b" />
  </g>
  <g
     id="g542"
     transform="translate(-32.400337,1.4299345e-4)">
    <path
       d="m 102.73,38.25 -0.27,-0.57 a 0.73,0.73 0 1 1 1.32,-0.62 l 0.27,0.57 a 0.73,0.73 0 1 1 -1.32,0.62"
       id="path540"
       inkscape:connector-curvature="0"
       style="fill:#ff407b" />
  </g>
  <g
     id="g548"
     transform="translate(-32.400337,1.4299345e-4)">
    <g
       clip-path="url(#L)"
       transform="matrix(0.35278,0,0,-0.35278,35.06,156.94)"
       id="g546">
      <path
         d="m 192.18,338.84 0.81,-0.4 c 0.57,-0.29 1.27,-0.15 1.6,0.42 0.3,0.51 0.15,1.31 -0.42,1.6 l -0.81,0.4 c -0.57,0.28 -1.27,0.15 -1.6,-0.42 -0.3,-0.52 -0.15,-1.31 0.42,-1.6"
         id="path544"
         inkscape:connector-curvature="0"
         style="fill:#ffd9ca" />
    </g>
  </g>
  <g
     id="g554"
     transform="translate(-32.400337,1.4299345e-4)">
    <g
       clip-path="url(#M)"
       transform="matrix(0.35278,0,0,-0.35278,35.06,156.94)"
       id="g552">
      <path
         d="m 185.15,339.77 c 0.56,-0.06 1.1,-0.25 1.58,-0.52 1.33,-0.72 2.5,1.3 1.18,2.02 -0.87,0.48 -1.77,0.73 -2.76,0.84 -0.63,0.07 -1.17,-0.59 -1.17,-1.17 0,-0.69 0.54,-1.1 1.17,-1.17"
         id="path550"
         inkscape:connector-curvature="0"
         style="fill:#ffd9ca" />
    </g>
  </g>
  <g
     id="g560"
     transform="translate(-32.400337,1.4299345e-4)">
    <g
       clip-path="url(#N)"
       transform="matrix(0.35278,0,0,-0.35278,35.06,156.94)"
       id="g558">
      <path
         d="m 196.29,342.55 0.8,3 c 0.39,1.45 -1.86,2.07 -2.25,0.62 l -0.8,-3 c -0.39,-1.45 1.86,-2.07 2.25,-0.62"
         id="path556"
         inkscape:connector-curvature="0"
         style="fill:#ffd9ca" />
    </g>
  </g>
  <g
     id="g564"
     transform="translate(-32.400337,1.4299345e-4)">
    <path
       d="m 106.23,48.05 a 0.84,0.84 0 1 1 -1.68,0 0.84,0.84 0 0 1 1.68,0"
       id="path562"
       inkscape:connector-curvature="0"
       style="fill:#ff407b" />
  </g>
  <g
     id="g568"
     transform="translate(-32.400337,1.4299345e-4)">
    <path
       d="m 87.02,48.05 a 0.845,0.845 0 1 1 -1.69,0 0.845,0.845 0 0 1 1.69,0"
       id="path566"
       inkscape:connector-curvature="0"
       style="fill:#ff407b" />
  </g>
  <g
     id="g574"
     style="fill:#ffffff;fill-opacity:0.38999999"
     transform="translate(-32.400337,1.4299345e-4)">
    <g
       clip-path="url(#O)"
       transform="matrix(0.35278,0,0,-0.35278,40.67,158.62)"
       id="g572"
       style="opacity:0.8">
      <path
         d="m 71.76,280.8 v 28.53 c 0,1.93 -3,1.93 -3,0 V 280.8 c 0,-1.93 3,-1.93 3,0"
         id="path570"
         inkscape:connector-curvature="0" />
    </g>
  </g>
  <g
     id="g580"
     style="fill:#ffffff;fill-opacity:0.38999999"
     transform="translate(-32.400337,1.4299345e-4)">
    <g
       clip-path="url(#P)"
       transform="matrix(0.35278,0,0,-0.35278,22.56,149.7)"
       id="g578"
       style="opacity:0.8">
      <path
         d="m 202.65,345.66 h 37.19 c 1.93,0 1.93,3 0,3 h -37.19 c -1.93,0 -1.93,-3 0,-3"
         id="path576"
         inkscape:connector-curvature="0" />
    </g>
  </g>
  <g
     id="g586"
     style="fill:#ffffff;fill-opacity:0.38999999"
     transform="translate(-32.400337,1.4299345e-4)">
    <g
       clip-path="url(#P)"
       transform="matrix(0.35278,0,0,-0.35278,125.52,152.69)"
       id="g584"
       style="opacity:0.8">
      <path
         d="m 202.65,345.66 h 37.19 c 1.93,0 1.93,3 0,3 h -37.19 c -1.93,0 -1.93,-3 0,-3"
         id="path582"
         inkscape:connector-curvature="0" />
    </g>
  </g>
  <g
     id="g592"
     style="fill:#ffffff;fill-opacity:0.38999999"
     transform="translate(-32.400337,1.4299345e-4)">
    <g
       clip-path="url(#P)"
       transform="matrix(0.35246277,-0.01495744,-0.01495744,-0.35246277,196.1601,156.79684)"
       id="g590"
       style="opacity:0.8">
      <path
         d="m 202.65,345.66 h 37.19 c 1.93,0 1.93,3 0,3 h -37.19 c -1.93,0 -1.93,-3 0,-3"
         id="path588"
         inkscape:connector-curvature="0" />
    </g>
  </g>
  <g
     id="g614"
     transform="translate(-32.400337,1.4299345e-4)">
    <g
       id="g598"
       style="fill:#d9d9d9">
      <g
         clip-path="url(#c)"
         transform="matrix(-0.18684,0.24202,0.20606,0.28137,58.67,-40.29)"
         id="g596"
         style="opacity:0.8">
        <path
           d="m 39.01,262.06 a 23.37,23.37 0 0 0 21.07,8.43 c 1.91,-0.22 1.9,2.78 0,3 a 26.1,26.1 0 0 1 -23.19,-9.31 c -1.22,-1.47 0.89,-3.6 2.12,-2.12"
           id="path594"
           inkscape:connector-curvature="0" />
      </g>
    </g>
    <g
       id="g604"
       style="fill:#d9d9d9">
      <g
         clip-path="url(#c)"
         transform="matrix(0.18684,0.25914,-0.20606,0.30127,132.71,-46.42)"
         id="g602"
         style="opacity:0.8">
        <path
           d="m 39.01,262.06 a 23.37,23.37 0 0 0 21.07,8.43 c 1.91,-0.22 1.9,2.78 0,3 a 26.1,26.1 0 0 1 -23.19,-9.31 c -1.22,-1.47 0.89,-3.6 2.12,-2.12"
           id="path600"
           inkscape:connector-curvature="0" />
      </g>
    </g>
    <path
       d="m 104.46,48.32 c 0,3.57 -4,6.47 -8.93,6.47 -4.93,0 -8.93,-2.9 -8.93,-6.47 0,-3.57 4.13,-0.32 9.07,-0.32 4.93,0 8.8,-3.25 8.8,0.32 z"
       id="path606"
       inkscape:connector-curvature="0"
       style="fill:#ffffff;stroke:#cfcfcf;stroke-width:0.62442058;stroke-linecap:round" />
    <g
       id="g612"
       style="fill:#e2e2e2;fill-opacity:0.52999998">
      <g
         clip-path="url(#c)"
         transform="matrix(-0.4473,0.0714,0.05514,0.50907,107.82,-88.3)"
         id="g610"
         style="opacity:0.8">
        <path
           d="m 43.54,262.1 a 13.57,13.57 0 0 0 9.98,3.94 c 0.87,-0.03 0.96,1.14 0.1,1.16 -4.06,0.12 -8.14,-1.5 -10.99,-4.34 -0.61,-0.6 0.3,-1.37 0.91,-0.75"
           id="path608"
           inkscape:connector-curvature="0" />
      </g>
    </g>
  </g>
  <g
     id="g892"
     transform="translate(-32.400337,1.4299345e-4)">
    <path
       d="m 375.94,98.86 h -7.29 c -7.2,0 -13.03,-5.83 -13.03,-13.03 v -6.18 h 33.35 v 6.18 c 0,7.2 -5.84,13.03 -13.03,13.03"
       id="path616"
       inkscape:connector-curvature="0"
       style="fill:#211b34" />
    <path
       d="m 386.63,82.07 -2.32,-40.71 a 6.86,6.86 0 0 0 -3.64,-6.18 c -4.83,-2.4 -12.04,-2.99 -12.04,-2.99 l -11.69,2.32 -9.98,7.33 a 6.86,6.86 0 0 0 -1.01,7.1 l 9.22,33.7 z"
       id="path618"
       inkscape:connector-curvature="0"
       style="fill:#ffffff" />
    <path
       d="m 386.63,82.07 -2.32,-40.71 c 0,-0.5 -0.05,-0.99 -0.15,-1.46 a 6.48,6.48 0 0 0 -2.72,-2.65 C 376.61,34.84 369.4,34.26 369.4,34.26 l -11.69,2.31 -9.98,7.33 a 6.86,6.86 0 0 0 -1.02,7.1 l 8.67,31.63 z"
       id="path620"
       inkscape:connector-curvature="0"
       style="fill:#0073ff" />
    <path
       d="m 363.8,46.44 c -1.04,0.35 -2.1,0.66 -3.11,1.05 -0.44,0.26 -0.28,0.78 -0.13,1.16 1.3,3.9 2.59,7.82 3.9,11.72 0.2,0.5 0.76,0.4 1.15,0.22 l 3.2,-1.06 -4.4,-13.3 -0.61,0.2 z m 2.74,-0.91 4.4,13.3 c 1.99,-0.67 4,-1.3 5.97,-2 0.8,-0.24 0.96,-1.33 0.35,-1.85 -0.74,-0.68 -1.71,-1.02 -2.51,-1.62 -1,-0.64 -2.04,-1.52 -2.3,-2.74 -0.3,-1.54 0.4,-3.02 0.97,-4.4 0.3,-0.7 0.78,-1.6 0.26,-2.31 -0.44,-0.62 -1.25,-0.36 -1.84,-0.14 z"
       id="path622"
       inkscape:connector-curvature="0"
       style="fill:#ffffff" />
    <g
       id="g628"
       style="fill-opacity:0.38999999">
      <g
         clip-path="url(#Q)"
         transform="matrix(0.35278,0,0,-0.35278,264.15,156.94)"
         id="g626">
        <path
           d="m 331.29,300.73 c -6,2.06 -11.8,4.71 -17.79,6.8 -11.96,4.18 -23.91,-1.1 -33.68,-7.98 a 87.95,87.95 0 0 1 -12.65,-10.51 c -4.32,-4.48 -5.75,-9.58 -7.24,-15.46 -1.35,-5.33 -2.77,-10.73 -5.2,-15.7 -1.69,-3.44 -4.14,-6.4 -6.48,-9.43 l 0.16,-0.58 c 3.6,-7.15 8.89,-12.62 13.3,-19.1 3.4,-5.02 7.8,-8.47 14.38,-7.06 5.92,1.27 10.6,6.04 13.23,11.49 5.68,11.71 2.35,27.1 -7.66,35.41 0.74,-0.61 5.1,3 5.67,3.52 1.63,1.49 3.02,2.9 3.93,4.92 a 28.68,28.68 0 0 1 2.34,14.85 c 3.45,-0.04 6.9,0.85 9.9,2.54 1.86,-3.82 3.46,-7.06 7.17,-9.41 a 14.86,14.86 0 0 1 10.76,-2.17 c 0.84,0.17 6.45,1.61 6.41,2.7 0.47,-13.06 7.32,-23.09 16.97,-31.22 -0.46,5.75 -0.67,11.55 -1,17.32 l -1,17.4 c -0.03,0.57 -0.04,8.17 -0.47,8.3 -3.7,1.06 -7.4,2.11 -11.05,3.37"
           id="path624"
           inkscape:connector-curvature="0" />
      </g>
    </g>
    <path
       d="m 346.16,45.32 c 3,-1.47 6.62,-0.22 8.08,2.78 l 9.96,19.76 a 6.05,6.05 0 0 1 -10.87,5.3 L 343.37,53.4 a 6.05,6.05 0 0 1 2.79,-8.08"
       id="path630"
       inkscape:connector-curvature="0"
       style="fill:#ff8663" />
    <path
       d="m 346.16,45.32 a 6.04,6.04 0 0 1 5.83,0.3 6.02,6.02 0 0 0 -4.85,8.66 l 9.96,19.75 a 6.01,6.01 0 0 0 2.25,2.49 6.04,6.04 0 0 1 -6.02,-3.36 L 343.37,53.4 a 6.05,6.05 0 0 1 2.79,-8.08"
       id="path632"
       inkscape:connector-curvature="0"
       style="fill:#ffb999" />
    <path
       d="m 346.96,41.84 c 0,0 -8.03,4.46 -2.98,17.25 l 3.16,6.33 12.84,-9.96 L 349.48,40 Z"
       id="path634"
       inkscape:connector-curvature="0"
       style="fill:#ffffff" />
    <path
       d="m 360.61,55.03 -9.3,-13.73 -2.3,1.74 c 0,0 -8.03,4.46 -3,17.25 l 2.17,4.33 z"
       id="path636"
       inkscape:connector-curvature="0"
       style="fill:#0073ff" />
    <path
       d="m 380.5,35.97 a 6.05,6.05 0 0 0 -3,8.01 l 8.2,17.54 a 6.05,6.05 0 1 0 11,-5.02 l -8.2,-17.53 a 6.05,6.05 0 0 0 -8,-3"
       id="path638"
       inkscape:connector-curvature="0"
       style="fill:#ff8663" />
    <path
       d="m 380.5,35.97 c -1.97,0.9 -3.21,2.7 -3.49,4.7 a 6.02,6.02 0 0 1 9.77,1.76 l 8.2,17.53 c 0.49,1.08 0.63,2.23 0.48,3.33 a 6.04,6.04 0 0 0 1.24,-6.8 l -8.2,-17.52 a 6.05,6.05 0 0 0 -8,-3"
       id="path640"
       inkscape:connector-curvature="0"
       style="fill:#ffb999" />
    <path
       d="m 374.3,30.57 c 0,0 8.42,-3.68 15.53,8.08 l 3.11,6.36 -18.15,4.33 -5.95,-17.73 z"
       id="path642"
       inkscape:connector-curvature="0"
       style="fill:#ffffff" />
    <path
       d="m 373.67,32.66 -4.9,0.88 5.33,15.88 17.36,-4.07 -2.27,-4.61 c -7.1,-11.76 -15.52,-8.08 -15.52,-8.08"
       id="path644"
       inkscape:connector-curvature="0"
       style="fill:#0073ff" />
    <path
       d="m 394.41,134.17 h -15 v -6.65 a 5.38,5.38 0 0 1 5.39,-5.38 h 4.23 a 5.38,5.38 0 0 1 5.38,5.38 z"
       id="path646"
       inkscape:connector-curvature="0"
       style="fill:#31284f" />
    <path
       d="m 391.66,130.07 h -9.5 v -9.05 h 9.5 z"
       id="path648"
       inkscape:connector-curvature="0"
       style="fill:#0f0830" />
    <path
       d="m 393.24,134.17 h -12.65 v -1.33 a 5.7,5.7 0 0 1 5.7,-5.7 h 1.25 a 5.7,5.7 0 0 1 5.7,5.7 z"
       id="path650"
       inkscape:connector-curvature="0"
       style="fill:#ffffff" />
    <path
       d="m 379.41,135.92 h 15 v -1.99 h -15 z m 12.9,-8.35 c -2.7,-3.12 -8.1,-3.12 -10.8,0 -0.25,0.28 0.17,0.7 0.42,0.42 a 6.83,6.83 0 0 1 9.96,0 c 0.25,0.29 0.67,-0.14 0.42,-0.42"
       id="path652"
       inkscape:connector-curvature="0"
       style="fill:#ffffff" />
    <path
       d="M 394.12,123.68 H 379.7 L 377.61,82.2 c -0.3,-5.84 3.86,-10.86 9.3,-10.86 5.43,0 9.58,5.02 9.28,10.86 z"
       id="path654"
       inkscape:connector-curvature="0"
       style="fill:#31284f" />
    <path
       d="m 386.91,71.34 h -0.23 v 52.34 h 7.44 L 396.2,82.2 c 0.3,-5.84 -3.85,-10.86 -9.29,-10.86"
       id="path656"
       inkscape:connector-curvature="0"
       style="fill:#605780" />
    <g
       id="g662"
       style="fill:#ffffff;fill-opacity:0.38999999">
      <g
         clip-path="url(#R)"
         transform="matrix(0.35278,0,0,-0.35278,264.15,156.94)"
         id="g660"
         style="opacity:0.5">
        <path
           d="m 328.76,222.3 a 26.25,26.25 0 0 0 14.38,14.43 c 1.25,0.51 0.7,2.58 -0.57,2.05 a 28.63,28.63 0 0 1 -15.87,-15.9 c -0.51,-1.27 1.55,-1.83 2.06,-0.57"
           id="path658"
           inkscape:connector-curvature="0" />
      </g>
    </g>
    <g
       id="g668"
       style="fill:#ffffff;fill-opacity:0.38999999">
      <g
         clip-path="url(#S)"
         transform="matrix(0.35278,0,0,-0.35278,264.15,156.94)"
         id="g666"
         style="opacity:0.5">
        <path
           d="m 327.95,175.27 2.37,-51.98 c 0.07,-1.37 2.2,-1.38 2.14,0 l -2.38,51.98 c -0.06,1.37 -2.2,1.38 -2.13,0"
           id="path664"
           inkscape:connector-curvature="0" />
      </g>
    </g>
    <g
       id="g674"
       style="fill:#ffffff;fill-opacity:0.38999999">
      <g
         clip-path="url(#T)"
         transform="matrix(0.35278,0,0,-0.35278,264.15,156.94)"
         id="g672"
         style="opacity:0.5">
        <path
           d="m 366.71,156.28 -2.12,-60.13 c -0.05,-1.37 2.08,-1.37 2.13,0 l 2.13,60.13 c 0.05,1.37 -2.09,1.37 -2.14,0"
           id="path670"
           inkscape:connector-curvature="0" />
      </g>
    </g>
    <path
       d="m 366.73,134.17 h -15 v -6.65 a 5.39,5.39 0 0 1 5.38,-5.38 h 4.23 a 5.38,5.38 0 0 1 5.39,5.38 z"
       id="path676"
       inkscape:connector-curvature="0"
       style="fill:#31284f" />
    <path
       d="m 363.97,130.07 h -9.5 v -9.05 h 9.5 z"
       id="path678"
       inkscape:connector-curvature="0"
       style="fill:#0f0830" />
    <path
       d="M 365.55,134.17 H 352.9 v -1.33 a 5.7,5.7 0 0 1 5.7,-5.7 h 1.26 a 5.7,5.7 0 0 1 5.7,5.7 z"
       id="path680"
       inkscape:connector-curvature="0"
       style="fill:#ffffff" />
    <path
       d="m 351.72,135.92 h 15 v -1.99 h -15 z m 12.91,-8.35 c -2.7,-3.12 -8.11,-3.12 -10.8,0 -0.25,0.28 0.16,0.7 0.41,0.42 a 6.82,6.82 0 0 1 9.97,0 c 0.25,0.29 0.67,-0.14 0.42,-0.42"
       id="path682"
       inkscape:connector-curvature="0"
       style="fill:#ffffff" />
    <path
       d="m 366.43,123.68 h -14.4 l -2.1,-41.48 c -0.29,-5.84 3.86,-10.86 9.3,-10.86 5.43,0 9.58,5.02 9.29,10.86 z"
       id="path684"
       inkscape:connector-curvature="0"
       style="fill:#31284f" />
    <g
       id="g690"
       style="fill:#ffffff;fill-opacity:0.38999999">
      <g
         clip-path="url(#U)"
         transform="matrix(0.35278,0,0,-0.35278,264.15,156.94)"
         id="g688"
         style="opacity:0.5">
        <path
           d="m 247.19,217.75 a 26.32,26.32 0 0 0 6.03,13.43 c 0.88,1.04 -0.62,2.56 -1.5,1.5 a 28.33,28.33 0 0 1 -6.59,-14.36 c -0.2,-1.34 1.86,-1.92 2.06,-0.57"
           id="path686"
           inkscape:connector-curvature="0" />
      </g>
    </g>
    <g
       id="g696"
       style="fill:#ffffff;fill-opacity:0.38999999">
      <g
         clip-path="url(#V)"
         transform="matrix(0.35278,0,0,-0.35278,264.15,156.94)"
         id="g694"
         style="opacity:0.5">
        <path
           d="m 245.72,190.9 2.94,-34.9 c 0.11,-1.35 2.24,-1.37 2.13,0 l -2.94,34.9 c -0.12,1.35 -2.25,1.36 -2.13,0"
           id="path692"
           inkscape:connector-curvature="0" />
      </g>
    </g>
    <path
       d="m 367.19,76.32 c -1.45,2.93 -4.91,5.25 -8.1,5.78 l 0.04,41.58 h 7.3 l 2.09,-41.48 c 0.1,-2.14 -0.39,-4.17 -1.33,-5.88"
       id="path698"
       inkscape:connector-curvature="0"
       style="fill:#605780" />
    <path
       d="m 374,49.15 -11.7,3.42 -0.93,-3.15 11.7,-3.42 z"
       id="path700"
       inkscape:connector-curvature="0"
       style="fill:#2e2e47" />
    <path
       d="m 363.43,56.57 a 2.27,2.27 0 0 1 -2.82,-1.54 l -1.38,-4.72 a 2.27,2.27 0 0 1 1.54,-2.82 l 1.37,-0.4 c 1.45,-0.42 2.9,0.66 2.9,2.17 l 0.02,5.12 c 0,1.01 -0.66,1.9 -1.63,2.19 M 375,53.19 a 2.27,2.27 0 0 0 1.54,-2.82 l -1.38,-4.72 a 2.27,2.27 0 0 0 -2.82,-1.54 l -1.37,0.4 a 2.27,2.27 0 0 0 -1.27,3.4 l 2.74,4.32 a 2.27,2.27 0 0 0 2.56,0.96"
       id="path702"
       inkscape:connector-curvature="0"
       style="fill:#2e2e47" />
    <path
       d="m 373.17,46.3 -11.71,3.42 -0.43,-1.45 11.71,-3.42 z"
       id="path704"
       inkscape:connector-curvature="0"
       style="fill:#2e2e47" />
    <path
       d="m 362.26,47.43 c 0.24,-0.06 0.49,-0.04 0.72,0.06 0.16,0.06 0.3,-0.17 0.14,-0.23 -0.3,-0.13 -0.61,-0.16 -0.93,-0.09 -0.17,0.04 -0.1,0.3 0.07,0.26 m 8.2,-2.19 c 0.3,-0.29 0.7,-0.36 1.1,-0.46 0.16,-0.04 0.09,-0.3 -0.08,-0.26 -0.44,0.11 -0.87,0.21 -1.21,0.53 -0.13,0.12 0.06,0.3 0.19,0.19"
       id="path706"
       inkscape:connector-curvature="0"
       style="fill:#47475e" />
    <path
       d="m 368.61,47.82 -2.98,0.87 a 0.52201533,0.52201533 0 0 1 -0.3,-1 l 3,-0.88 a 0.52,0.52 0 0 1 0.28,1"
       id="path708"
       inkscape:connector-curvature="0"
       style="fill:#00ffff" />
    <path
       d="m 368.47,47.3 -1.57,0.45 c -0.29,0.08 -1.26,0.27 -1.38,0.38 -0.11,0.13 0.39,-0.05 0.46,-0.07 l 0.92,-0.27 1.07,-0.3 c 0.12,-0.04 0.24,-0.09 0.36,-0.11 0.1,-0.02 0.18,-0.11 0,-0.03 -0.62,0.3 -0.07,1.24 0.56,0.94 0.63,-0.3 0.85,-1.1 0.39,-1.66 -0.37,-0.44 -0.9,-0.4 -1.4,-0.26 -0.9,0.27 -1.96,0.43 -2.82,0.84 -0.6,0.29 -0.86,1.04 -0.44,1.6 0.36,0.47 0.85,0.47 1.36,0.34 0.93,-0.24 1.85,-0.54 2.78,-0.8 0.67,-0.2 0.38,-1.26 -0.3,-1.06"
       id="path710"
       inkscape:connector-curvature="0"
       style="fill:#00ffff" />
    <path
       d="m 360.35,48.6 a 5.96,5.96 0 0 1 1.81,-0.56 c 0.25,-0.03 0.15,-0.41 -0.1,-0.38 -0.67,0.1 -1.3,0.3 -1.91,0.6 -0.23,0.11 -0.03,0.45 0.2,0.34 m 0.21,0.75 a 5.96,5.96 0 0 1 1.82,-0.55 c 0.25,-0.04 0.14,-0.42 -0.1,-0.38 -0.68,0.1 -1.31,0.3 -1.92,0.6 -0.22,0.1 -0.02,0.45 0.2,0.33 m 10.68,-3.88 a 5.96,5.96 0 0 1 1.82,-0.55 c 0.25,-0.04 0.14,-0.42 -0.1,-0.39 -0.68,0.1 -1.31,0.3 -1.92,0.6 -0.23,0.11 -0.03,0.46 0.2,0.34 m 0.22,0.76 a 5.96,5.96 0 0 1 1.81,-0.56 c 0.26,-0.04 0.15,-0.42 -0.1,-0.38 -0.67,0.1 -1.3,0.3 -1.91,0.6 -0.23,0.1 -0.03,0.45 0.2,0.34"
       id="path712"
       inkscape:connector-curvature="0"
       style="fill:#e6e6e6" />
    <path
       d="m 352.77,54.13 -0.51,14.7 c 0,0 1.46,11 8.63,9.59 2.46,-0.48 3.76,-2.26 4.45,-4.21 1.04,-2.94 0.6,-6.2 -1.04,-8.85 l -5.04,-8.2 z"
       id="path714"
       inkscape:connector-curvature="0"
       style="fill:#ffb999" />
    <path
       d="m 360.09,78.46 c -0.4,-2.2 -0.71,-4.4 -1.08,-6.6 -0.33,-1.97 -0.74,-3.92 -1.12,-5.88 -0.39,-1.99 -0.81,-3.97 -1.25,-5.95 -0.35,-1.57 -0.65,-3.24 -1.34,-4.72 l 3.96,1.85 5.04,8.2 a 10.36,10.36 0 0 1 1.04,8.85 c -0.69,1.95 -2,3.73 -4.45,4.2 -0.27,0.06 -0.53,0.1 -0.8,0.12 z"
       id="path716"
       inkscape:connector-curvature="0"
       style="fill:#ff8663" />
    <path
       d="m 356.68,62.17 c -0.12,-0.02 -0.12,-0.02 0,-0.02 l 0.4,-0.25 a 16.67,16.67 0 0 0 2.32,-2.37 l 0.74,-0.94 2.74,4.46 c -1.94,-0.38 -3.94,-0.46 -5.89,-0.82 l -0.3,-0.06"
       id="path718"
       inkscape:connector-curvature="0"
       style="fill:#c6614a" />
    <path
       d="m 366.82,49.5 c 0,0 -1.51,1.19 -2.05,1.37 -0.53,0.19 -4.2,1.79 -6.21,0.71 l 0.1,-2.66 c 0,0 1.68,-1.5 0.38,-1.66 -1.3,-0.16 -2.79,1.25 -2.79,1.25 0,0 -2.49,4.73 -3.47,5.62 1.17,2.06 1.94,4.36 3,6.48 l 0.9,1.96 0.07,-0.04 6.86,-1.85 c 0.15,-0.04 0.7,-1.5 0.7,-1.5 l 1.01,-1.31 c 0,0 0.17,-1.35 -0.15,-1.47 0,0 1.84,-2.74 0.06,-3.23 0,0 2.22,-1.78 1.59,-3.66"
       id="path720"
       inkscape:connector-curvature="0"
       style="fill:#ffb999" />
    <g
       clip-path="url(#W)"
       transform="matrix(0.35278,0,0,-0.35278,264.15,156.94)"
       id="g724">
      <path
         d="m 258.34,296.71 5.25,9.09 c 0.68,1.19 -1.16,2.26 -1.85,1.07 l -5.25,-9.08 c -0.68,-1.19 1.16,-2.26 1.85,-1.08"
         id="path722"
         inkscape:connector-curvature="0"
         style="fill:#ffd9ca" />
    </g>
    <g
       clip-path="url(#X)"
       transform="matrix(0.35278,0,0,-0.35278,264.15,156.94)"
       id="g728">
      <path
         d="m 265.15,307.46 2.58,1.1 c 0.53,0.22 0.65,1 0.39,1.45 -0.33,0.55 -0.93,0.6 -1.46,0.38 l -2.59,-1.09 c -0.53,-0.22 -0.64,-1 -0.38,-1.46 0.32,-0.55 0.93,-0.6 1.46,-0.38"
         id="path726"
         inkscape:connector-curvature="0"
         style="fill:#ffd9ca" />
    </g>
    <g
       clip-path="url(#Y)"
       transform="matrix(0.35278,0,0,-0.35278,264.15,156.94)"
       id="g732">
      <path
         d="m 275.7,294.09 0.88,-1.85 c 0.25,-0.52 1,-0.66 1.46,-0.38 0.53,0.3 0.63,0.93 0.38,1.46 l -0.88,1.84 c -0.25,0.52 -1,0.66 -1.46,0.38 -0.53,-0.3 -0.63,-0.93 -0.38,-1.45"
         id="path730"
         inkscape:connector-curvature="0"
         style="fill:#ffd9ca" />
    </g>
    <g
       clip-path="url(#Z)"
       transform="matrix(0.35278,0,0,-0.35278,264.15,156.94)"
       id="g736">
      <path
         d="m 276.79,286.83 0.44,-2.6 c 0.1,-0.56 0.8,-0.88 1.3,-0.74 0.6,0.16 0.85,0.74 0.75,1.31 l -0.44,2.6 c -0.1,0.57 -0.8,0.89 -1.31,0.74 -0.6,-0.16 -0.84,-0.74 -0.74,-1.3"
         id="path734"
         inkscape:connector-curvature="0"
         style="fill:#ffd9ca" />
    </g>
    <g
       clip-path="url(#aa)"
       transform="matrix(0.35278,0,0,-0.35278,264.15,156.94)"
       id="g740">
      <path
         d="m 278.06,280.54 0.19,-2.74 c 0.03,-0.58 0.46,-1.07 1.06,-1.07 0.55,0 1.1,0.49 1.07,1.07 l -0.18,2.74 c -0.04,0.58 -0.47,1.07 -1.07,1.07 -0.55,0 -1.1,-0.5 -1.07,-1.07"
         id="path738"
         inkscape:connector-curvature="0"
         style="fill:#ffd9ca" />
    </g>
    <g
       clip-path="url(#ab)"
       transform="matrix(0.35278,0,0,-0.35278,264.15,156.94)"
       id="g744">
      <path
         d="m 251.26,287.26 -1.51,-42.6 c -0.05,-1.37 2.08,-1.37 2.13,0 l 1.5,42.6 c 0.06,1.38 -2.08,1.37 -2.12,0"
         id="path742"
         inkscape:connector-curvature="0"
         style="fill:#ffd9ca" />
    </g>
    <path
       d="m 362.6,60.77 c -0.07,-0.24 0.24,-0.69 0.3,-0.9 0.23,-0.82 0.17,-1.69 0.11,-2.51 l -0.1,-1.42 -0.15,-1.94 c -0.07,-0.93 -0.22,-1.68 -1.24,-1.73 -0.9,-0.05 -1.74,0.01 -2.54,-0.5 2.07,0.68 5.3,-0.72 5.8,-0.9 0.53,-0.18 2.04,-1.36 2.04,-1.36 0.63,1.88 -1.6,3.66 -1.6,3.66 1.8,0.49 -0.05,3.23 -0.05,3.23 0.32,0.12 0.15,1.47 0.15,1.47 l -1,1.32 c 0,0 -0.56,1.45 -0.7,1.49 -0.22,0.05 -0.75,0.34 -0.96,0.18 a 0.18,0.18 0 0 1 -0.06,-0.09"
       id="path746"
       inkscape:connector-curvature="0"
       style="fill:#ff8663" />
    <path
       d="m 363.74,54.22 c 0.59,-0.23 1.15,-0.51 1.68,-0.85 0.16,-0.1 0.02,-0.34 -0.14,-0.24 -0.51,0.32 -1.05,0.6 -1.61,0.82 -0.17,0.07 -0.1,0.34 0.07,0.27 m 0.3,2.9 c 0.41,-0.26 0.87,-0.42 1.29,-0.68 0.15,-0.09 0.01,-0.33 -0.14,-0.24 -0.42,0.25 -0.88,0.42 -1.3,0.67 -0.15,0.1 0,0.34 0.15,0.25 m -0.3,2.59 c 0.26,-0.1 0.51,-0.18 0.73,-0.37 0.13,-0.12 -0.06,-0.32 -0.2,-0.2 -0.18,0.16 -0.39,0.21 -0.6,0.3 -0.17,0.07 -0.1,0.34 0.07,0.27 m -1.36,-7.14 c 0.15,0.23 0.22,0.48 0.21,0.76 0,0.18 0.28,0.18 0.28,0 0,-0.32 -0.08,-0.63 -0.25,-0.9 -0.09,-0.16 -0.33,-0.02 -0.24,0.14 m 0.34,2.87 c 0.19,0.27 0.23,0.57 0.13,0.88 -0.05,0.17 0.22,0.24 0.27,0.07 0.12,-0.37 0.07,-0.77 -0.16,-1.09 -0.1,-0.15 -0.34,0 -0.24,0.14 m 0.28,2.84 c 0.1,0.25 0.1,0.5 -0.01,0.74 -0.08,0.16 0.16,0.3 0.24,0.14 0.15,-0.3 0.17,-0.64 0.04,-0.95 -0.07,-0.16 -0.34,-0.1 -0.27,0.07 m -0.13,1.7 a 0.96,0.96 0 0 1 -0.26,0.55 c -0.12,0.13 0.07,0.33 0.2,0.2 0.2,-0.22 0.3,-0.47 0.34,-0.75 0.02,-0.18 -0.26,-0.18 -0.28,0"
       id="path748"
       inkscape:connector-curvature="0"
       style="fill:#c6614a" />
    <path
       d="m 382.17,42.64 11.29,9.42 c 0,0 7.23,8.43 1.4,12.83 -2,1.5 -4.2,1.3 -6.11,0.5 a 10.36,10.36 0 0 1 -5.9,-6.67 L 380.1,49.5 Z"
       id="path750"
       inkscape:connector-curvature="0"
       style="fill:#ffb999" />
    <path
       d="m 395.42,64.32 c -1.38,-1.76 -2.81,-3.47 -4.2,-5.21 -1.25,-1.55 -2.43,-3.17 -3.63,-4.75 a 224.1,224.1 0 0 1 -3.6,-4.9 c -0.94,-1.31 -1.98,-2.65 -2.62,-4.16 l -1.27,4.2 2.75,9.22 c 0.89,2.99 3.02,5.5 5.9,6.68 1.9,0.78 4.1,1 6.1,-0.5 0.22,-0.18 0.42,-0.35 0.61,-0.53 l -0.04,-0.05"
       id="path752"
       inkscape:connector-curvature="0"
       style="fill:#ff8663" />
    <path
       d="m 385.55,50.92 c 0.07,-0.1 0.07,-0.11 0,-0.02 -0.04,0 -0.38,0.11 -0.46,0.12 a 16.84,16.84 0 0 1 -3.32,0.15 c -0.4,-0.01 -0.8,-0.03 -1.19,-0.06 l 1.5,5.01 c 1,-1.7 2.28,-3.25 3.31,-4.93 l 0.16,-0.27"
       id="path754"
       inkscape:connector-curvature="0"
       style="fill:#c6614a" />
    <path
       d="m 369.36,50.02 c 0,0 1.88,-0.34 2.38,-0.61 0.5,-0.28 4.13,-1.94 4.68,-4.16 l -2.06,-1.7 c 0,0 -2.23,0.25 -1.49,-0.82 0.75,-1.08 2.8,-1.25 2.8,-1.25 0,0 5.18,1.3 6.5,1.16 0.75,2.25 1.95,4.36 2.83,6.56 0.27,0.66 0.56,1.32 0.85,1.98 l -0.07,0.03 -5.96,3.87 a 7.76,7.76 0 0 1 -1.58,-0.47 l -1.65,-0.13 c 0,0 -1.12,-0.77 -1,-1.09 0,0 -3.27,-0.46 -2.44,-2.12 0,0 -2.8,0.48 -3.8,-1.25"
       id="path756"
       inkscape:connector-curvature="0"
       style="fill:#ffb999" />
    <g
       clip-path="url(#ac)"
       transform="matrix(0.35278,0,0,-0.35278,264.15,156.94)"
       id="g760">
      <path
         d="m 317.43,323.87 12.3,-2.7 c 1.34,-0.3 1.91,1.75 0.57,2.05 l -12.3,2.71 c -1.34,0.3 -1.91,-1.76 -0.57,-2.06"
         id="path758"
         inkscape:connector-curvature="0"
         style="fill:#ffd9ca" />
    </g>
    <g
       clip-path="url(#ad)"
       transform="matrix(0.35278,0,0,-0.35278,264.15,156.94)"
       id="g764">
      <path
         d="m 315.6,308.2 a 6.15,6.15 0 0 1 1.87,-5.75 c 1.02,-0.92 2.53,0.58 1.51,1.5 a 3.97,3.97 0 0 0 -1.32,3.68 c 0.24,1.34 -1.82,1.92 -2.06,0.57"
         id="path762"
         inkscape:connector-curvature="0"
         style="fill:#ffd9ca" />
    </g>
    <g
       clip-path="url(#ae)"
       transform="matrix(0.35278,0,0,-0.35278,264.15,156.94)"
       id="g768">
      <path
         d="m 320.45,298.6 3.56,-3.56 c 0.97,-0.97 2.47,0.54 1.5,1.51 l -3.55,3.55 c -0.97,0.97 -2.48,-0.54 -1.51,-1.5"
         id="path766"
         inkscape:connector-curvature="0"
         style="fill:#ffd9ca" />
    </g>
    <g
       clip-path="url(#af)"
       transform="matrix(0.35278,0,0,-0.35278,264.15,156.94)"
       id="g772">
      <path
         d="m 326.01,294.75 a 5.36,5.36 0 0 1 3.96,-3.31 c 0.56,-0.1 1.15,0.15 1.31,0.74 0.14,0.52 -0.18,1.21 -0.75,1.31 a 3.23,3.23 0 0 0 -2.46,1.83 c -0.23,0.53 -0.7,0.91 -1.31,0.75 -0.5,-0.14 -0.97,-0.78 -0.75,-1.32"
         id="path770"
         inkscape:connector-curvature="0"
         style="fill:#ffd9ca" />
    </g>
    <g
       clip-path="url(#ag)"
       transform="matrix(0.35278,0,0,-0.35278,264.15,156.94)"
       id="g776">
      <path
         d="m 337.28,318.13 28.05,-23.58 c 1.04,-0.88 2.56,0.63 1.5,1.51 l -28.04,23.58 c -1.04,0.87 -2.56,-0.63 -1.5,-1.51"
         id="path774"
         inkscape:connector-curvature="0"
         style="fill:#ffd9ca" />
    </g>
    <g
       clip-path="url(#ah)"
       transform="matrix(0.35278,0,0,-0.35278,264.15,156.94)"
       id="g780">
      <path
         d="m 359.63,314.4 6.07,-13.63 c 0.56,-1.25 2.4,-0.17 1.85,1.07 l -6.07,13.64 c -0.56,1.26 -2.4,0.17 -1.85,-1.07"
         id="path778"
         inkscape:connector-curvature="0"
         style="fill:#ffd9ca" />
    </g>
    <path
       d="m 380.56,54.4 c -0.13,-0.22 -0.67,-0.29 -0.88,-0.39 a 7.3,7.3 0 0 1 -1.94,-1.59 L 376.76,51.4 375.41,50 c -0.65,-0.68 -1.1,-1.3 -0.46,-2.08 0.57,-0.7 1.17,-1.29 1.32,-2.23 -0.87,2 -4.07,3.46 -4.53,3.72 -0.5,0.27 -2.38,0.61 -2.38,0.61 0.98,1.73 3.79,1.25 3.79,1.25 -0.83,1.66 2.44,2.12 2.44,2.12 -0.12,0.32 1,1.1 1,1.1 l 1.65,0.12 c 0,0 1.46,0.56 1.58,0.47 0.18,-0.12 0.75,-0.32 0.77,-0.58 0,-0.04 0,-0.08 -0.03,-0.1"
       id="path782"
       inkscape:connector-curvature="0"
       style="fill:#ff8663" />
    <path
       d="m 374.78,50.64 c -0.55,0.27 -1.11,0.48 -1.7,0.65 -0.17,0.05 -0.1,0.32 0.08,0.27 0.6,-0.17 1.2,-0.4 1.76,-0.68 0.16,-0.08 0.02,-0.32 -0.14,-0.24 m 2.02,2.12 c -0.46,0.14 -0.9,0.37 -1.36,0.51 -0.17,0.05 -0.1,0.32 0.07,0.27 0.47,-0.14 0.9,-0.37 1.37,-0.51 0.17,-0.06 0.1,-0.33 -0.08,-0.27 m 2.07,1.54 c -0.2,0.1 -0.4,0.22 -0.63,0.25 -0.18,0.02 -0.18,0.3 0,0.28 0.3,-0.04 0.51,-0.17 0.77,-0.3 0.16,-0.07 0.02,-0.31 -0.14,-0.24 m -4.54,-5.45 c 0.1,0.3 0.26,0.57 0.5,0.78 0.14,0.12 0.33,-0.07 0.2,-0.2 a 1.4,1.4 0 0 1 -0.43,-0.66 c -0.05,-0.17 -0.32,-0.1 -0.27,0.08 m 1.91,2.16 c 0.09,0.38 0.35,0.7 0.7,0.85 0.17,0.07 0.3,-0.17 0.14,-0.24 a 0.96,0.96 0 0 1 -0.57,-0.68 c -0.04,-0.17 -0.3,-0.1 -0.27,0.08 m 1.96,2.17 c 0.15,0.3 0.41,0.51 0.73,0.6 0.18,0.05 0.25,-0.22 0.08,-0.27 a 0.86,0.86 0 0 1 -0.56,-0.47 c -0.08,-0.16 -0.32,-0.02 -0.24,0.14 m 1.42,1.1 c 0.22,0.16 0.48,0.24 0.76,0.24 0.18,0 0.18,-0.29 0,-0.28 a 1,1 0 0 1 -0.62,-0.2 c -0.15,-0.1 -0.29,0.14 -0.14,0.24"
       id="path784"
       inkscape:connector-curvature="0"
       style="fill:#c6614a" />
    <path
       d="m 357.04,39.38 c 2.1,0.52 6.23,1.43 7.93,0.92 1.65,-0.5 4.7,-3.52 6.22,-5.11 0.58,-0.6 0.8,-1.4 0.6,-2.1 l -0.05,-0.19 c -0.08,-0.3 -0.35,-0.5 -0.69,-0.55 l -1.83,-0.24 c -0.14,-0.02 -0.3,0 -0.44,0.04 l -10.82,3.2 a 1.1,1.1 0 0 0 -0.4,0.22 l -1.8,1.51 c -0.27,0.23 -0.39,0.56 -0.3,0.85 0.2,0.71 0.78,1.25 1.58,1.45"
       id="path786"
       inkscape:connector-curvature="0"
       style="fill:#ffffff" />
    <path
       d="m 369.86,33.79 c 0.1,0.34 -0.01,0.71 -0.29,1 -1.02,1.09 -3.62,3.74 -4.97,4.15 -1.4,0.42 -4.95,-0.42 -6.37,-0.79 -0.38,-0.1 -0.66,-0.36 -0.75,-0.7 l -2.35,-8.1 12.38,-3.67 z"
       id="path788"
       inkscape:connector-curvature="0"
       style="fill:#ffb999" />
    <path
       d="m 355.71,31.43 c 1.46,2.02 4.38,2.93 7.28,2.07 2.91,-0.86 4.91,-3.23 5.1,-5.74 l -0.58,-2.08 -12.38,3.66 z"
       id="path790"
       inkscape:connector-curvature="0"
       style="fill:#ff8663" />
    <g
       clip-path="url(#ai)"
       transform="matrix(0.35278,0,0,-0.35278,264.15,156.94)"
       id="g794">
      <path
         d="m 263.3,347.34 c 0.82,-2.97 1.8,-5.9 2.62,-8.87 0.6,-2.16 3.97,-1.24 3.37,0.93 -0.83,2.97 -1.8,5.9 -2.63,8.87 -0.6,2.16 -3.96,1.24 -3.36,-0.93"
         id="path792"
         inkscape:connector-curvature="0"
         style="fill:#ffd9ca" />
    </g>
    <path
       d="m 368.96,19.33 c -0.23,2.02 0.36,3.54 1.3,3.4 0.94,-0.13 1.88,-1.87 2.1,-3.9 0.22,-2.01 -0.36,-3.54 -1.3,-3.4 -0.94,0.13 -1.88,1.88 -2.1,3.9"
       id="path796"
       inkscape:connector-curvature="0"
       style="fill:#ff8663" />
    <path
       d="m 371.8,17.6 a 0.62,0.62 0 0 0 -0.2,-0.63 0.62,0.62 0 0 0 -0.64,-0.07 c -0.38,0.18 -0.46,0.68 -0.48,1.1 l -0.1,1.47 c 0.04,-0.1 0.16,-0.14 0.26,-0.11 0.1,0.03 0.18,0.11 0.23,0.2 a 0.9,0.9 0 0 1 0.04,0.81 0.9,0.9 0 0 1 -0.65,0.5"
       stroke-miterlimit="10"
       id="path798"
       inkscape:connector-curvature="0"
       style="fill:none;stroke:#c25b5b;stroke-width:0.43744719;stroke-linecap:round;stroke-linejoin:round;stroke-miterlimit:10" />
    <path
       d="m 349.36,22.58 c 0.82,1.85 0.73,3.49 -0.2,3.64 -0.94,0.16 -2.37,-1.22 -3.2,-3.08 -0.81,-1.86 -0.72,-3.49 0.21,-3.65 0.94,-0.15 2.37,1.23 3.2,3.09"
       id="path800"
       inkscape:connector-curvature="0"
       style="fill:#ff8663" />
    <path
       d="m 346.12,21.8 a 0.62,0.62 0 0 1 0,-0.66 c 0.13,-0.2 0.37,-0.3 0.6,-0.27 0.41,0.06 0.64,0.51 0.8,0.9 l 0.52,1.37 c -0.06,-0.08 -0.2,-0.08 -0.28,-0.02 a 0.42,0.42 0 0 0 -0.15,0.26 0.9,0.9 0 0 0 0.2,0.79 c 0.2,0.2 0.5,0.31 0.77,0.27"
       stroke-miterlimit="10"
       id="path802"
       inkscape:connector-curvature="0"
       style="fill:none;stroke:#c25b5b;stroke-width:0.43744719;stroke-linecap:round;stroke-linejoin:round;stroke-miterlimit:10" />
    <path
       d="m 361.42,31.88 a 10.85,10.85 0 0 1 -12.75,-8.55 l -1.34,-6.74 a 4.5,4.5 0 0 1 3.54,-5.29 l 12.48,-2.46 a 4.5,4.5 0 0 1 5.28,3.54 l 1.33,6.74 a 10.85,10.85 0 0 1 -8.54,12.76"
       id="path804"
       inkscape:connector-curvature="0"
       style="fill:#ffb999" />
    <path
       d="m 363.35,8.84 -12.48,2.46 a 4.5,4.5 0 0 0 -3.54,5.29 l 0.19,0.92 c 0.22,-1.16 0.57,-2.3 1.1,-3.36 0.02,1.25 1.45,2.3 2.74,2 1.29,-0.3 2.06,-1.85 1.48,-2.97 1.56,1.88 3.53,3.62 6,4.2 1.23,0.3 2.65,0.25 3.64,-0.52 a 2.66,2.66 0 0 0 1.03,-2.17 7.63,7.63 0 0 0 6.16,3.26 c 0.28,1.1 0.47,3.7 0.47,3.7 l 0.02,-0.05 a 10.9,10.9 0 0 0 -0.2,-2.48 l -1.33,-6.74 a 4.5,4.5 0 0 0 -5.28,-3.54"
       id="path806"
       inkscape:connector-curvature="0"
       style="fill:#ff8663" />
    <path
       d="m 372.96,8.95 c -0.16,-1.14 -1,-2.08 -1.93,-2.77 -2.32,-1.72 -5.33,-2.25 -8.23,-2.35 a 4.54,4.54 0 0 0 -2.54,0.44 2.44,2.44 0 0 0 0.2,-3.52 c -1.06,-1.04 -2.81,-0.84 -4.22,-0.35 a 15,15 0 0 0 -9.8,12.48 c -0.78,-0.2 -1.57,0.5 -1.75,1.3 -0.17,0.79 0.1,1.6 0.43,2.35 0.9,2.04 2.1,3.95 3.37,5.78 -0.46,-2.67 -0.65,-5.58 0.17,-8.21 0.2,1.24 1.68,2.08 2.84,1.62 1.17,-0.46 1.67,-2.1 0.96,-3.13 1.74,1.66 3.83,3.12 6.22,3.38 1.2,0.13 2.53,-0.1 3.34,-0.99 0.56,-0.6 0.81,-1.48 0.66,-2.29 a 7.17,7.17 0 0 0 6.24,2.42 c 0.42,1.05 0.97,3.6 0.97,3.6 0,0 0.51,-2.18 0.93,-3.25 0.56,0.6 1.57,0.74 2.27,0.29 1.91,-1.24 0.14,-4.42 -1.85,-4.22 1.15,-0.11 1.9,-1.43 1.72,-2.58"
       id="path808"
       inkscape:connector-curvature="0"
       style="fill:#05052d" />
    <path
       d="m 346.77,12.93 c -0.03,-0.68 -0.08,-1.44 0.01,-2.12 0.08,-0.61 0.55,-1.25 0.34,-1.85 -0.08,-0.22 -0.3,-0.37 -0.54,-0.3 -0.8,0.22 -0.95,1.34 -1.02,2.07 -0.08,0.95 0.14,1.68 0.74,2.4 0.15,0.17 0.49,0.03 0.47,-0.2"
       id="path810"
       inkscape:connector-curvature="0"
       style="fill:#05052d" />
    <path
       d="m 347.17,13.48 c -0.1,-0.32 -0.16,-0.58 -0.42,-0.83 a 2.58,2.58 0 0 0 -1,-0.52 c -0.62,-0.2 -1.68,-0.3 -2.05,0.35 -0.17,0.29 0,0.58 0.28,0.7 0.44,0.17 1,-0.1 1.48,-0.02 0.45,0.08 1.05,0.3 1.46,0.51 0.12,0.07 0.3,-0.04 0.25,-0.2"
       id="path812"
       inkscape:connector-curvature="0"
       style="fill:#05052d" />
    <path
       d="m 356.07,14.21 c 1.64,1.69 4.26,1.48 5.98,0.04 0.65,-0.54 -0.28,-1.46 -0.93,-0.93 -1.18,1 -3,1.1 -4.12,-0.04 -0.59,-0.6 -1.52,0.33 -0.93,0.93 m 7.73,-1.17 a 7.32,7.32 0 0 0 5.63,0.81 c 0.82,-0.2 0.48,-1.47 -0.35,-1.26 -1.6,0.4 -3.19,0.16 -4.6,-0.68 -0.74,-0.44 -1.4,0.7 -0.67,1.13 m 8.04,0.32 c 0.23,0.23 0.37,0.53 0.38,0.83 0.02,0.35 0.3,0.65 0.66,0.65 0.34,0 0.67,-0.3 0.66,-0.65 a 2.6,2.6 0 0 0 -0.77,-1.76 c -0.6,-0.6 -1.53,0.34 -0.93,0.93 M 365.7,5.73 c 2.22,0.6 4.89,1.37 5.44,3.92 0.18,0.83 1.44,0.48 1.26,-0.35 -0.65,-3.04 -3.68,-4.12 -6.35,-4.83 -0.82,-0.22 -1.17,1.04 -0.35,1.26 m -8.35,2.72 c 0.99,-0.2 2.02,0.02 2.83,0.64 0.66,0.51 1.6,-0.41 0.92,-0.93 A 4.9,4.9 0 0 0 357,7.19 c -0.83,0.16 -0.48,1.43 0.35,1.26 m -5.81,6.52 c 0.55,-0.69 0.76,-1.52 0.54,-2.38 -0.22,-0.82 -1.48,-0.47 -1.27,0.35 0.1,0.37 0.05,0.79 -0.2,1.1 -0.23,0.27 -0.27,0.66 0,0.93 0.23,0.23 0.7,0.27 0.93,0 m -4.69,-4.15 a 1.1,1.1 0 0 1 0.08,-0.83 0.67,0.67 0 0 0 -0.23,-0.9 c -0.3,-0.17 -0.73,-0.08 -0.9,0.24 -0.3,0.57 -0.38,1.2 -0.22,1.83 0.22,0.82 1.49,0.48 1.27,-0.34 m -2.13,3.43 a 5.03,5.03 0 0 0 1,3.6 c 0.5,0.66 1.64,0 1.13,-0.67 a 3.95,3.95 0 0 1 -0.82,-2.93 c 0.1,-0.84 -1.22,-0.84 -1.3,0 M 357.38,1.76 c 0.54,-0.1 1.06,-0.01 1.56,0.19 0.33,0.12 0.72,-0.15 0.81,-0.46 0.1,-0.38 -0.13,-0.68 -0.46,-0.81 A 4.09,4.09 0 0 0 357.03,0.5 c -0.35,0.06 -0.55,0.48 -0.46,0.8 0.1,0.37 0.46,0.53 0.81,0.46 m -7.73,5.94 c 1.24,-2.04 2.9,-3.72 4.93,-4.98 0.72,-0.44 0.06,-1.58 -0.66,-1.13 a 16.52,16.52 0 0 0 -5.4,5.44 c -0.45,0.72 0.69,1.38 1.13,0.66"
       id="path814"
       inkscape:connector-curvature="0"
       style="fill:#373754" />
    <g
       clip-path="url(#aj)"
       transform="matrix(0.35278,0,0,-0.35278,264.15,156.94)"
       id="g818">
      <path
         d="m 252.66,373.26 a 7.2,7.2 0 0 1 5.91,0.51 2.55,2.55 0 0 1 0.9,3.46 2.58,2.58 0 0 1 -3.45,0.91 c -0.27,-0.13 -0.3,-0.16 -0.1,-0.07 l -0.24,-0.08 a 4.6,4.6 0 0 0 -0.46,-0.1 c -0.12,0 -0.75,0.06 -0.56,0.02 a 4.54,4.54 0 0 0 -0.65,0.22 c -1.24,0.47 -2.83,-0.52 -3.11,-1.76 -0.33,-1.44 0.43,-2.61 1.76,-3.11"
         id="path816"
         inkscape:connector-curvature="0"
         style="fill:#ffd9ca" />
    </g>
    <g
       clip-path="url(#ak)"
       transform="matrix(0.35278,0,0,-0.35278,264.15,156.94)"
       id="g822">
      <path
         d="m 284.73,379.19 a 5.55,5.55 0 0 1 5.43,1.45 c 0.93,0.95 1.02,2.65 0,3.58 -1,0.91 -2.58,1 -3.57,0 a 2.52,2.52 0 0 0 -0.25,-0.24 c 0.3,0.22 0.32,0.25 0.1,0.1 -0.42,-0.25 0.5,0.13 -0.1,-0.04 -0.64,-0.17 0.4,-0.02 -0.1,-0.01 -0.28,0.01 -0.23,0 0.16,-0.05 l -0.33,0.08 c -1.27,0.35 -2.8,-0.43 -3.1,-1.76 -0.31,-1.34 0.4,-2.74 1.76,-3.11"
         id="path820"
         inkscape:connector-curvature="0"
         style="fill:#ffd9ca" />
    </g>
    <g
       clip-path="url(#al)"
       transform="matrix(0.35278,0,0,-0.35278,264.15,156.94)"
       id="g826">
      <path
         d="m 266.93,392.59 2.77,-14.51 c 0.3,-1.6 2.74,-0.92 2.43,0.67 l -2.76,14.51 c -0.3,1.6 -2.74,0.92 -2.44,-0.67"
         id="path824"
         inkscape:connector-curvature="0"
         style="fill:#ffd9ca" />
    </g>
    <g
       clip-path="url(#am)"
       transform="matrix(0.35278,0,0,-0.35278,264.15,156.94)"
       id="g830">
      <path
         d="m 285.03,364.53 a 6.12,6.12 0 0 1 3,4.04 c 0.34,1.6 -2.1,2.27 -2.44,0.68 a 3.66,3.66 0 0 0 -1.84,-2.53 c -1.42,-0.8 -0.14,-2.98 1.28,-2.19"
         id="path828"
         inkscape:connector-curvature="0"
         style="fill:#ffd9ca" />
    </g>
    <g
       id="g834">
      <path
         d="m 350.87,17.64 a 7.88,7.88 0 0 1 4.1,0.17"
         stroke-miterlimit="10"
         id="path832"
         inkscape:connector-curvature="0"
         style="fill:none;stroke:#05052d;stroke-width:0.65617079;stroke-linecap:round;stroke-linejoin:round;stroke-miterlimit:10" />
    </g>
    <g
       id="g838">
      <path
         d="m 362.04,16.7 a 9.54,9.54 0 0 1 4.58,-1.55"
         stroke-miterlimit="10"
         id="path836"
         inkscape:connector-curvature="0"
         style="fill:none;stroke:#05052d;stroke-width:0.65617079;stroke-linecap:round;stroke-linejoin:round;stroke-miterlimit:10" />
    </g>
    <g
       id="g842">
      <path
         d="m 356.67,17.25 1,0.56 a 0.8,0.8 0 0 1 0.21,0.16 c 0.1,0.1 0.13,0.24 0.16,0.38 l 1.1,5.46"
         stroke-miterlimit="10"
         id="path840"
         inkscape:connector-curvature="0"
         style="fill:none;stroke:#ff8663;stroke-width:0.43744719;stroke-linecap:round;stroke-linejoin:round;stroke-miterlimit:10" />
    </g>
    <g
       id="g846">
      <path
         d="m 354.5,21.68 c 0.14,0.7 -0.1,1.35 -0.53,1.43 -0.44,0.09 -0.9,-0.41 -1.04,-1.12 -0.14,-0.7 0.1,-1.35 0.53,-1.43 0.43,-0.09 0.9,0.42 1.04,1.12"
         id="path844"
         inkscape:connector-curvature="0"
         style="fill:#05052d" />
    </g>
    <g
       id="g850">
      <path
         d="m 365.83,19.44 c 0.14,0.7 -0.1,1.35 -0.53,1.43 -0.43,0.09 -0.9,-0.42 -1.04,-1.12 -0.14,-0.7 0.1,-1.35 0.53,-1.43 0.44,-0.09 0.9,0.41 1.04,1.12"
         id="path848"
         inkscape:connector-curvature="0"
         style="fill:#05052d" />
    </g>
    <g
       id="g854">
      <path
         d="m 361.86,24.61 c 0.63,-0.35 1.35,-0.71 2.03,-0.47 0.71,0.25 1.06,1.12 0.9,1.86 -0.15,0.73 -0.7,1.33 -1.32,1.75 -0.58,0.4 -1.24,0.68 -1.94,0.72 -0.96,0.05 -2.6,-0.66 -2.37,-1.89 0.18,-0.96 1.97,-1.56 2.7,-1.97"
         id="path852"
         inkscape:connector-curvature="0"
         style="fill:#05052d" />
    </g>
    <g
       id="g858">
      <path
         d="m 364.4,24.49 c -0.14,-0.16 -0.3,-0.28 -0.5,-0.35 -0.69,-0.24 -1.41,0.12 -2.04,0.47 -0.73,0.41 -2.52,1 -2.7,1.97 -0.03,0.17 -0.02,0.32 0.01,0.47 1.78,-0.79 3.47,-1.74 5.23,-2.56"
         id="path856"
         inkscape:connector-curvature="0"
         style="fill:#ffffff" />
    </g>
    <g
       id="g862">
      <path
         d="m 360.38,28.25 c 0.4,0.16 0.82,0.24 1.15,0.22 0.7,-0.04 1.36,-0.32 1.94,-0.72 A 3,3 0 0 0 364.79,26 v -0.05 c -1.86,-0.11 -3.62,0.34 -4.4,2.3"
         id="path860"
         inkscape:connector-curvature="0"
         style="fill:#ff407b" />
    </g>
    <path
       d="m 341.18,19.27 -6.03,4.28 c -0.56,0.4 -0.02,1.35 0.55,0.94 l 6.03,-4.28 c 0.57,-0.4 0.02,-1.35 -0.55,-0.94 m -0.33,-2.96 -7.3,-1.23 c -0.68,-0.12 -0.97,0.93 -0.28,1.05 l 7.29,1.23 c 0.68,0.12 0.98,-0.93 0.29,-1.05 m 1.85,-2.34 -4.29,-6.02 c -0.4,-0.57 -1.34,-0.03 -0.94,0.55 l 4.29,6.02 c 0.4,0.57 1.34,0.03 0.94,-0.55"
       id="path864"
       inkscape:connector-curvature="0"
       style="fill:#00ffff" />
    <g
       id="g870"
       style="fill:#ffffff;fill-opacity:0.38999999">
      <g
         clip-path="url(#an)"
         transform="matrix(0.35278,0,0,-0.35278,259.75,152.83)"
         id="g868"
         style="opacity:0.8">
        <path
           d="m 404.2,354.04 a 18.73,18.73 0 0 0 11.53,-6.66 c 1.23,-1.49 3.34,0.65 2.12,2.12 A 21.21,21.21 0 0 1 405,356.93 c -1.9,0.32 -2.7,-2.57 -0.8,-2.9"
           id="path866"
           inkscape:connector-curvature="0" />
      </g>
    </g>
    <g
       id="g876"
       style="fill:#d9d9d9">
      <g
         clip-path="url(#c)"
         transform="matrix(-0.1516,0.28993,0.26972,0.25791,304.3,-62.07)"
         id="g874"
         style="opacity:0.8">
        <path
           d="m 39.01,262.06 a 23.37,23.37 0 0 0 21.07,8.43 c 1.91,-0.22 1.9,2.78 0,3 a 26.1,26.1 0 0 1 -23.19,-9.31 c -1.22,-1.47 0.89,-3.6 2.12,-2.12"
           id="path872"
           inkscape:connector-curvature="0" />
      </g>
    </g>
    <g
       id="g882"
       style="fill:#d9d9d9">
      <g
         clip-path="url(#c)"
         transform="matrix(0.24532,0.23808,-0.16076,0.35595,381.16,-82.38)"
         id="g880"
         style="opacity:0.8">
        <path
           d="m 39.01,262.06 a 23.37,23.37 0 0 0 21.07,8.43 c 1.91,-0.22 1.9,2.78 0,3 a 26.1,26.1 0 0 1 -23.19,-9.31 c -1.22,-1.47 0.89,-3.6 2.12,-2.12"
           id="path878"
           inkscape:connector-curvature="0" />
      </g>
    </g>
    <path
       d="m 369.12,22.72 c 0.67,3.76 -2.3,8.12 -7.5,9.04 -5.2,0.93 -10.65,-1.94 -11.32,-5.7 -0.66,-3.76 4.3,-1.11 9.5,-2.04 5.19,-0.92 8.65,-5.06 9.32,-1.3 z"
       id="path884"
       inkscape:connector-curvature="0"
       style="fill:#ffffff;stroke:#cfcfcf;stroke-width:0.66675419;stroke-linecap:round" />
    <g
       id="g890"
       style="fill:#e2e2e2;fill-opacity:0.52999998">
      <g
         clip-path="url(#c)"
         transform="matrix(-0.48372,0.03077,0.00719,0.54787,388.4,-122.98)"
         id="g888"
         style="opacity:0.8">
        <path
           d="m 48.52,261.67 c 2.91,2.4 6.22,3.44 9.97,3.93 0.88,-0.02 0.97,1.14 0.1,1.17 -4.17,-0.78 -7.66,-1.83 -10.98,-4.34 -0.62,-0.61 0.29,-1.37 0.9,-0.76"
           id="path886"
           inkscape:connector-curvature="0" />
      </g>
    </g>
  </g>
</svg>
