<svg xmlns="http://www.w3.org/2000/svg" viewBox="0 0 473.92 149.97"><defs><clipPath clipPathUnits="userSpaceOnUse" id="a"><path d="M27.12 62.34h434.72V42.15H27.12z"/></clipPath><clipPath clipPathUnits="userSpaceOnUse" id="b"><path d="M60.43 80.1h32.53V64.35H60.43z"/></clipPath><clipPath clipPathUnits="userSpaceOnUse" id="c"><path d="M36.52 273.66h24.99v-12.1H36.52z"/></clipPath><clipPath clipPathUnits="userSpaceOnUse" id="d"><path d="M67.83 272.06h9.36v-6.88h-9.36z"/></clipPath><clipPath clipPathUnits="userSpaceOnUse" id="e"><path d="M47.7 112.77h3V80.4h-3z"/></clipPath><clipPath clipPathUnits="userSpaceOnUse" id="f"><path d="M48.67 188.86h3v-57.88h-3z"/></clipPath><clipPath clipPathUnits="userSpaceOnUse" id="g"><path d="M94.82 199.66h3v-28.42h-3z"/></clipPath><clipPath clipPathUnits="userSpaceOnUse" id="h"><path d="M407.04 80.1h32.53V63.9h-32.53z"/></clipPath><clipPath clipPathUnits="userSpaceOnUse" id="i"><path d="M394.8 262.28h28.15v-47.07H394.8z"/></clipPath><clipPath clipPathUnits="userSpaceOnUse" id="j"><path d="M428.61 271.9h24.45v-6.48h-24.45z"/></clipPath><clipPath clipPathUnits="userSpaceOnUse" id="k"><path d="M394.3 187.39h3v-46.6h-3z"/></clipPath><clipPath clipPathUnits="userSpaceOnUse" id="l"><path d="M444.74 183.05h3v-52.82h-3z"/></clipPath><clipPath clipPathUnits="userSpaceOnUse" id="m"><path d="M142.2 302.95h2.82v-16.96h-2.82z"/></clipPath><clipPath clipPathUnits="userSpaceOnUse" id="n"><path d="M205.78 269.22h9.72v-5.07h-9.72z"/></clipPath><clipPath clipPathUnits="userSpaceOnUse" id="o"><path d="M132.44 269.22h9.72v-5.07h-9.72z"/></clipPath><clipPath clipPathUnits="userSpaceOnUse" id="p"><path d="M193.81 277.94h5.41v-4.44h-5.4z"/></clipPath><clipPath clipPathUnits="userSpaceOnUse" id="q"><path d="M216.07 257.44h5.3v-13.95h-5.3z"/></clipPath><clipPath clipPathUnits="userSpaceOnUse" id="r"><path d="M126.57 257.44h5.3v-13.95h-5.3z"/></clipPath><clipPath clipPathUnits="userSpaceOnUse" id="s"><path d="M140.67 276.35h7.61v-6.37h-7.6z"/></clipPath><clipPath clipPathUnits="userSpaceOnUse" id="t"><path d="M159.1 286.07h1.83v-6.43h-1.83z"/></clipPath><clipPath clipPathUnits="userSpaceOnUse" id="u"><path d="M127.1 177.33h5.29V89.14h-5.28z"/></clipPath><clipPath clipPathUnits="userSpaceOnUse" id="v"><path d="M194.13 177.33h5.28V89.14h-5.28z"/></clipPath><clipPath clipPathUnits="userSpaceOnUse" id="w"><path d="M208.28 243.54h20.76v-26.39h-20.76z"/></clipPath><clipPath clipPathUnits="userSpaceOnUse" id="x"><path d="M197.8 249.12h5.37v-3.47h-5.37z"/></clipPath><clipPath clipPathUnits="userSpaceOnUse" id="y"><path d="M118.9 243.55h20.77v-26.4H118.9z"/></clipPath><clipPath clipPathUnits="userSpaceOnUse" id="z"><path d="M144.78 249.12h5.37v-3.47h-5.37z"/></clipPath><clipPath clipPathUnits="userSpaceOnUse" id="A"><path d="M148.67 303.94h22.07v-13.9h-22.07z"/></clipPath><clipPath clipPathUnits="userSpaceOnUse" id="B"><path d="M153.03 315.03h6.91v-5.06h-6.91z"/></clipPath><clipPath clipPathUnits="userSpaceOnUse" id="C"><path d="M183.2 315.04h6.94v-5.07h-6.94z"/></clipPath><clipPath clipPathUnits="userSpaceOnUse" id="D"><path d="M170.19 324.87h2.33V308.7h-2.33z"/></clipPath><clipPath clipPathUnits="userSpaceOnUse" id="E"><path d="M145.1 358.12h18.7V339.3h-18.7z"/></clipPath><clipPath clipPathUnits="userSpaceOnUse" id="F"><path d="M166.17 360.13h2.26v-2.34h-2.26z"/></clipPath><clipPath clipPathUnits="userSpaceOnUse" id="G"><path d="M155.37 349.13h14.53v-18.18h-14.53z"/></clipPath><clipPath clipPathUnits="userSpaceOnUse" id="H"><path d="M148.1 330.47h2.43v-2.33h-2.42z"/></clipPath><clipPath clipPathUnits="userSpaceOnUse" id="I"><path d="M173.53 355.73h11.57v-19.99h-11.57z"/></clipPath><clipPath clipPathUnits="userSpaceOnUse" id="J"><path d="M179.03 357.36h14.41v-11.57h-14.41z"/></clipPath><clipPath clipPathUnits="userSpaceOnUse" id="K"><path d="M197.7 332.18h2.26v-2.34h-2.26z"/></clipPath><clipPath clipPathUnits="userSpaceOnUse" id="L"><path d="M191.6 341h3.14v-2.7h-3.13z"/></clipPath><clipPath clipPathUnits="userSpaceOnUse" id="M"><path d="M183.98 342.11h4.51v-3.01h-4.51z"/></clipPath><clipPath clipPathUnits="userSpaceOnUse" id="N"><path d="M194 347h3.14v-5.28h-3.15z"/></clipPath><clipPath clipPathUnits="userSpaceOnUse" id="O"><path d="M68.76 310.78h3v-31.43h-3z"/></clipPath><clipPath clipPathUnits="userSpaceOnUse" id="P"><path d="M201.2 348.66h40.09v-3H201.2z"/></clipPath><clipPath clipPathUnits="userSpaceOnUse" id="Q"><path d="M248.25 309.01h96.55V221.4h-96.55z"/></clipPath><clipPath clipPathUnits="userSpaceOnUse" id="R"><path d="M326.62 238.87h17.22V221.6h-17.22z"/></clipPath><clipPath clipPathUnits="userSpaceOnUse" id="S"><path d="M327.94 176.3h4.52v-54.04h-4.52z"/></clipPath><clipPath clipPathUnits="userSpaceOnUse" id="T"><path d="M364.59 157.3h4.26V95.12h-4.26z"/></clipPath><clipPath clipPathUnits="userSpaceOnUse" id="U"><path d="M245.12 233.04h8.37v-16.06h-8.37z"/></clipPath><clipPath clipPathUnits="userSpaceOnUse" id="V"><path d="M245.71 191.92h5.08v-36.94h-5.08z"/></clipPath><clipPath clipPathUnits="userSpaceOnUse" id="W"><path d="M256.34 307.4h7.4v-11.2h-7.4z"/></clipPath><clipPath clipPathUnits="userSpaceOnUse" id="X"><path d="M263.55 310.52h4.7v-3.18h-4.7z"/></clipPath><clipPath clipPathUnits="userSpaceOnUse" id="Y"><path d="M275.56 295.68h3v-3.96h-3z"/></clipPath><clipPath clipPathUnits="userSpaceOnUse" id="Z"><path d="M276.76 288.18h2.54v-4.72h-2.54z"/></clipPath><clipPath clipPathUnits="userSpaceOnUse" id="aa"><path d="M278.06 281.6h2.32v-4.87h-2.32z"/></clipPath><clipPath clipPathUnits="userSpaceOnUse" id="ab"><path d="M249.75 288.3h3.64v-44.66h-3.64z"/></clipPath><clipPath clipPathUnits="userSpaceOnUse" id="ac"><path d="M316.67 325.96h14.4v-4.83h-14.4z"/></clipPath><clipPath clipPathUnits="userSpaceOnUse" id="ad"><path d="M315.49 308.97h3.83v-6.81h-3.83z"/></clipPath><clipPath clipPathUnits="userSpaceOnUse" id="ae"><path d="M320.14 300.41h5.69v-5.68h-5.7z"/></clipPath><clipPath clipPathUnits="userSpaceOnUse" id="af"><path d="M325.95 296.1h5.36v-4.68h-5.36z"/></clipPath><clipPath clipPathUnits="userSpaceOnUse" id="ag"><path d="M336.93 319.9h30.26V294.3h-30.26z"/></clipPath><clipPath clipPathUnits="userSpaceOnUse" id="ah"><path d="M359.53 316.04h8.12v-15.83h-8.12z"/></clipPath><clipPath clipPathUnits="userSpaceOnUse" id="ai"><path d="M263.22 349.5h6.14v-12.26h-6.14z"/></clipPath><clipPath clipPathUnits="userSpaceOnUse" id="aj"><path d="M250.82 378.47h9v-5.63h-9z"/></clipPath><clipPath clipPathUnits="userSpaceOnUse" id="ak"><path d="M282.9 384.94h8v-5.96h-8z"/></clipPath><clipPath clipPathUnits="userSpaceOnUse" id="al"><path d="M266.9 394.17h5.26v-17h-5.26z"/></clipPath><clipPath clipPathUnits="userSpaceOnUse" id="am"><path d="M283.13 370.15h4.93v-5.79h-4.93z"/></clipPath><clipPath clipPathUnits="userSpaceOnUse" id="an"><path d="M403.12 356.95h15.1v-10.07h-15.1z"/></clipPath></defs><g fill="#272a87"><path d="M426.52 149.97H43.96C10.92 149.97 0 145.14 0 139.19c0-5.95 10.92-10.77 43.96-10.77h382.56c33.04 0 47.4 4.82 47.4 10.77 0 5.95-14.36 10.78-47.4 10.78"/><path d="M426.52 149.97H43.96C10.92 149.97 0 145.14 0 139.19c0-5.95 10.92-10.77 43.96-10.77h382.56c33.04 0 47.4 4.82 47.4 10.77 0 5.95-14.36 10.78-47.4 10.78"/></g><g fill-opacity=".39"><g clip-path="url(#a)" transform="matrix(.8634 0 0 -.35278 25.13 156.94)"><path d="M461.84 52.25c0-5.58-97.32-10.1-217.36-10.1-120.05 0-217.36 4.52-217.36 10.1 0 5.57 97.31 10.1 217.36 10.1 120.04 0 217.36-4.53 217.36-10.1"/></g></g><path d="M75.8 25.7l188.47 2.7c.56.01 1.1.04 1.65.1.54-.06 1.09-.1 1.65-.1l130.54-2.58c6.94 0 11.18.51 11.18 9.05l1.2 55.23c0 5.51-5.62 9.98-12.56 9.98H267.57c-.56 0-1.11-.04-1.65-.1-.54.06-1.09.11-1.65.1L75.8 97.38c-6.93-.1-12.55-4.48-12.55-9.99V35.67c0-8.17 5.62-9.98 12.55-9.98" fill="#fff6d5"/><path d="M75.8 30.18l188.47 2.7c.56.02 1.1.05 1.65.1.54-.05 1.09-.1 1.65-.1l130.54-2.57c6.94 0 11.18.5 11.18 9.05l1.2 55.23c0 5.5-5.62 9.98-12.56 9.98H267.57c-.56 0-1.11-.04-1.65-.1-.54.06-1.09.1-1.65.1L75.8 101.86c-6.93-.1-12.55-4.47-12.55-9.98V40.16c0-8.17 5.62-9.98 12.55-9.98" fill="#fea"/><path d="M310.73 43.47h33.71c.51 0 1.02.03 1.51.07.5-.04 6.55-.07 7.06-.07l38.88-2.08c6.37 0 10.27.42 10.27 7.27l1.1 35.88c0 4.42-5.16 8-11.53 8h-44.27c-.5 0-1.01-.02-1.5-.07-.5.05-1 .08-1.52.08h-33.7c-6.38 0-11.54-3.59-11.54-8.01V51.48c0-6.56 5.16-8.01 11.53-8.01M193.07 41.79l22.12-1.13c3.78-.26 27.9.96 50.8 1.5l11.79-.77c6.37 0 10.27.42 10.27 7.27l1.1 36.11c0 4.43-5.16 8.01-11.53 8.01h-51c-.5 0-1.01-.03-1.5-.07-.5.04-1 .07-1.52.07h-30.53c-6.37 0-11.53-3.58-11.53-8v-33.3c0-6.56 5.16-9.7 11.53-9.7M80.44 43.47h25.48c.52 0 1.02.03 1.52.07.5-.04 6.54-.07 7.06-.07l45.42-2.08c6.37 0 10.27.42 10.27 7.27l1.1 35.88c0 4.42-5.17 8-11.54 8h-50.8c-.51 0-1.02-.02-1.51-.07-.5.05-1 .08-1.52.08H80.44c-6.37 0-11.53-3.59-11.53-8.01V51.48c0-6.56 5.16-8.01 11.53-8.01M183.77 95.58H404v35.76H62.01V95.58z" fill="#ffe680"/><path d="M183.77 95.58H404v7.86H62.01v-7.86z" fill="#ffd42a"/><path d="M63.93 137.66h-2.5a4.49 4.49 0 010-8.98h2.5a4.49 4.49 0 110 8.98" fill="#586ad5"/><g clip-path="url(#b)" transform="matrix(.35278 0 0 -.35278 35.63 156.94)"><path d="M92.58 64.35A12.73 12.73 0 0180.23 80.1h-7.07a12.73 12.73 0 01-12.34-15.75z" fill="#3d4eb5"/></g><path d="M51.7 90.76v40.58h21.71V83.11c0-9.98-12.83-32.74-25.72-19.01-8.52 9.08 4.01 17.35 4.01 26.66" fill="#ffe680"/><path d="M56.17 89.06v37.98H68.1V84.86c0-5.48-7.04-17.97-14.12-10.44-4.68 4.98 2.2 9.52 2.2 14.64" fill="#ffd42a"/><path d="M47.28 69.34c10.7-10.5 21.36.36 25.77 10.51C70.9 69.02 59.32 51.72 47.7 64.1c-2.72 2.9-3.3 5.7-2.82 8.5.52-1.08 1.3-2.16 2.41-3.26" fill="#fff6d5"/><g fill="#fff" fill-opacity=".39"><g clip-path="url(#c)" opacity=".8" transform="matrix(.35278 0 0 -.35278 35.63 156.94)"><path d="M39.01 262.06a23.37 23.37 0 0021.07 8.43c1.91-.22 1.9 2.78 0 3a26.1 26.1 0 01-23.19-9.31c-1.22-1.47.89-3.6 2.12-2.12"/></g></g><g fill="#fff" fill-opacity=".39"><g clip-path="url(#d)" opacity=".8" transform="matrix(.35278 0 0 -.35278 35.63 156.94)"><path d="M68.54 269.25l6.41-3.85c1.66-1 3.17 1.6 1.52 2.6-2.14 1.27-4.28 2.56-6.41 3.84-1.66 1-3.17-1.6-1.52-2.6"/></g></g><g fill="#fff" fill-opacity=".39"><g clip-path="url(#e)" opacity=".8" transform="matrix(.35278 0 0 -.35278 35.63 156.94)"><path d="M50.7 81.86v29.46c0 1.93-3 1.93-3 0V81.86c0-1.93 3-1.93 3 0"/></g></g><g fill="#fff" fill-opacity=".39"><g clip-path="url(#f)" opacity=".8" transform="matrix(.35278 0 0 -.35278 35.63 156.94)"><path d="M51.67 132.43v54.98c0 1.93-3 1.94-3 0v-54.98c0-1.93 3-1.94 3 0"/></g></g><g fill="#fff" fill-opacity=".39"><g clip-path="url(#g)" opacity=".8" transform="matrix(.35278 0 0 -.35278 35.63 156.94)"><path d="M97.82 172.69v25.52c0 1.93-3 1.94-3 0V172.7c0-1.94 3-1.94 3 0"/></g></g><path d="M408.5 137.66h2.49a4.5 4.5 0 100-8.98h-2.5a4.49 4.49 0 100 8.98" fill="#586ad5"/><g clip-path="url(#h)" transform="matrix(.35278 0 0 -.35278 260.4 156.94)"><path d="M439.07 63.9a12.71 12.71 0 01-12.23 16.2h-7.08a12.73 12.73 0 01-12.23-16.2z" fill="#3d4eb5"/></g><path d="M420.72 90.76v40.58h-21.7V83.11c0-9.98 12.82-32.74 25.71-19.01 8.53 9.08-4 17.35-4 26.66" fill="#ffe680"/><path d="M416.75 89.06v37.98h-11.91V84.86c0-5.48 7.04-17.97 14.11-10.44 4.68 4.98-2.2 9.52-2.2 14.64" fill="#ffd42a"/><path d="M400.64 87.1c0-9.97 12.83-32.74 25.73-19.01.48.51.89 1.02 1.24 1.53a10.11 10.11 0 00-2.88-5.52c-12.9-13.73-25.72 9.03-25.72 19.01v48.23h1.63z" fill="#fff6d5"/><g fill="#fff" fill-opacity=".39"><g clip-path="url(#i)" opacity=".8" transform="matrix(.35278 0 0 -.35278 260.4 156.94)"><path d="M397.72 216.3a75.86 75.86 0 0024.74 43.47c1.45 1.27-.68 3.39-2.12 2.12a78.53 78.53 0 01-25.51-44.8c-.35-1.89 2.54-2.7 2.89-.8"/></g></g><g fill="#fff" fill-opacity=".39"><g clip-path="url(#j)" opacity=".8" transform="matrix(.35278 0 0 -.35278 260.4 156.94)"><path d="M430.84 265.65a22.19 22.19 0 0020.43 1.4c1.78-.73 2.56 2.17.8 2.9a25.03 25.03 0 01-22.74-1.71c-1.65-1-.15-3.59 1.51-2.6"/></g></g><g fill="#fff" fill-opacity=".39"><g clip-path="url(#k)" opacity=".8" transform="matrix(.35278 0 0 -.35278 260.4 156.94)"><path d="M397.3 142.25v43.69c0 1.93-3 1.93-3 0v-43.7c0-1.92 3-1.93 3 0"/></g></g><g fill="#fff" fill-opacity=".39"><g clip-path="url(#l)" opacity=".8" transform="matrix(.35278 0 0 -.35278 260.4 156.94)"><path d="M447.74 131.68v49.92c0 1.93-3 1.93-3 0v-49.92c0-1.93 3-1.93 3 0"/></g></g><path d="M100.3 100.95h-7.28c-3.82 0-6.92-4.4-6.92-9.82v-4.46h21.12v4.46c0 5.42-3.1 9.82-6.92 9.82" fill="#211b34"/><path d="M108 72.71H83.64l2.08-32.48c.2-3.08 3.02-5.5 6.31-5.5h7.58c3.29 0 6.11 2.42 6.3 5.5z" fill="#31284f"/><path d="M85.53 61.8c1.71.5 2.7 2.26 2.23 3.96l-5.23 18.27a3.21 3.21 0 01-6.19-1.76L81.57 64a3.2 3.2 0 013.96-2.2M106.37 62.1a3.21 3.21 0 00-2.05 4.05l6.02 18.03a3.21 3.21 0 006.1-2.02l-6.01-18.03a3.2 3.2 0 00-4.06-2.03" fill="#ff8663"/><g fill="#a7a9e3" fill-opacity=".39"><g clip-path="url(#m)" transform="matrix(.35278 0 0 -.35278 35.06 156.94)"><path d="M142.68 301.82l-.48-14.7c-.04-1.5 2.3-1.5 2.34 0l.47 14.7c.05 1.5-2.28 1.5-2.33 0"/></g></g><path d="M106.37 62.1a3.22 3.22 0 00-2.11 2.28 3.22 3.22 0 015.05 1.47l6.02 18.03c.2.6.2 1.21.06 1.78a3.2 3.2 0 001.06-3.5l-6.02-18.03a3.2 3.2 0 00-4.06-2.03M85.53 61.8c1.1.32 1.9 1.17 2.21 2.18a3.22 3.22 0 00-4.98 1.7l-5.24 18.27c-.17.6-.15 1.22.02 1.78a3.2 3.2 0 01-1.2-3.45L81.57 64a3.2 3.2 0 013.96-2.2" fill="#ffb999"/><path d="M107.22 61l-7.41-4.81h-7.87l-7.4 4.8a3.49 3.49 0 00-1.57 3.76l3.45 14.23-3.37 13.93h25.66l-3.37-13.92 3.45-14.24a3.49 3.49 0 00-1.57-3.75" fill="#ff407b"/><g clip-path="url(#n)" transform="matrix(.33284 .1169 .1169 -.33284 7.2 127.54)"><path d="M215.35 265.32a9.43 9.43 0 01-8.8 3.83c-1.02-.13-1.03-1.76 0-1.63 2.86.36 5.65-.7 7.39-3.02.62-.84 2.04-.02 1.4.82" fill="#ffd9ca"/></g><g clip-path="url(#o)" transform="scale(.35278 -.35278) rotate(-.71 -35660.3 -8022)"><path d="M134.01 264.5a7.83 7.83 0 007.38 3.02c1.04-.13 1.03 1.5 0 1.63a9.43 9.43 0 01-8.79-3.83c-.63-.84.79-1.66 1.41-.82" fill="#ffd9ca"/></g><path d="M83.13 65.4c.27-.66.75-1.25 1.4-1.67l7.41-4.81h7.87l7.41 4.81a3.66 3.66 0 011.41 1.68l.16-.66a3.49 3.49 0 00-1.57-3.75l-7.41-4.81h-7.87l-7.4 4.8a3.49 3.49 0 00-1.57 3.76z" fill="#ff6ca1"/><g clip-path="url(#p)" transform="matrix(.35278 0 0 -.35278 35.06 156.94)"><path d="M194.15 276.47l3.95-2.83c.81-.58 1.59.76.78 1.34l-3.95 2.82c-.8.58-1.58-.76-.78-1.33" fill="#ffd9ca"/></g><g clip-path="url(#q)" transform="scale(.35278 -.35278) rotate(3.2 8228.21 1761.16)"><path d="M221.34 244.5l-3.65 12.36c-.3 1-1.88.58-1.58-.43l3.66-12.37c.3-1 1.87-.57 1.57.44" fill="#ffd9ca"/></g><g clip-path="url(#r)" transform="scale(.35278 -.35278) rotate(-.71 -35660.3 -8022)"><path d="M128.18 244.06l3.66 12.37c.3 1-1.28 1.44-1.58.43l-3.65-12.36c-.3-1.01 1.27-1.44 1.57-.44" fill="#ffd9ca"/></g><g clip-path="url(#s)" transform="matrix(.35278 0 0 -.35278 35.06 156.94)"><path d="M142 270.16l5.89 4.4c.94.71.02 2.32-.94 1.6l-5.88-4.4c-.95-.7-.02-2.32.94-1.6" fill="#ffd9ca"/></g><path d="M92.8 54.73l-3.75 3.1a3.72 3.72 0 004.47 5.94l2.07-1.49zM99.08 54.93l3.6 2.9a3.72 3.72 0 01-4.47 5.94l-2.07-1.49zM96.46 64.47a.75.75 0 11-1.51 0 .75.75 0 011.5 0M96.46 68.06a.75.75 0 11-1.51 0 .75.75 0 011.5 0" fill="#fff"/><path d="M100.41 57.8v-8.46h-9.19v8.46a4.6 4.6 0 109.2 0" fill="#ffb999"/><path d="M91.22 54.12c.62 2.25 2.44 3.88 4.6 3.88 2.16 0 3.98-1.63 4.6-3.88V46.4h-9.2z" fill="#ff8663"/><g clip-path="url(#t)" transform="matrix(.35278 0 0 -.35278 35.06 156.94)"><path d="M160.74 280.43c.03 1.62.16 3.23.19 4.85.02 1.05-1.62 1.05-1.64 0-.03-1.62-.15-3.23-.18-4.85-.02-1.05 1.61-1.05 1.63 0" fill="#ffd9ca"/></g><path d="M91.98 134.57h-9.9v-5.44a3.85 3.85 0 013.84-3.85h2.22a3.85 3.85 0 013.84 3.85z" fill="#ff407b"/><path d="M90.16 131.4H83.9v-6.98h6.27z" fill="#ce1d5d"/><path d="M91.2 134.57h-8.35v-1.35a4.07 4.07 0 014.06-4.07h.23a4.07 4.07 0 014.07 4.07z" fill="#fff"/><path d="M82.07 135.92h9.91v-1.54h-9.9zM90.64 129.53a4.52 4.52 0 00-7.23 0c-.16.22.2.43.37.21a4.09 4.09 0 016.5 0c.16.22.52 0 .36-.21" fill="#fff"/><path d="M91.79 126.47h-9.52l-1.38-32c-.2-4.51 2.55-8.39 6.14-8.39s6.33 3.88 6.13 8.39z" fill="#31284f"/><g fill="#fff" fill-opacity=".39"><g clip-path="url(#u)" opacity=".5" transform="matrix(.35278 0 0 -.35278 36.65 156.94)"><path d="M127.1 176.3l2.76-75.18.4-10.95c.05-1.37 2.18-1.38 2.13 0l-2.75 75.19-.4 10.94c-.05 1.37-2.18 1.38-2.13 0"/></g></g><path d="M91.01 87.99c-.82 2.6-2.2 4.63-4.07 5.3l.02 33.18h4.83l1.37-32a9.11 9.11 0 00-2.15-6.48" fill="#605780"/><path d="M110.87 134.48h-9.91v-5.45a3.85 3.85 0 013.84-3.84h2.22a3.85 3.85 0 013.85 3.84z" fill="#ff407b"/><path d="M109.05 131.31h-6.28v-6.98h6.28z" fill="#ce1d5d"/><path d="M110.1 134.48h-8.37v-1.36a4.07 4.07 0 014.07-4.07h.22a4.07 4.07 0 014.07 4.07z" fill="#fff"/><path d="M100.96 135.82h9.9v-1.53h-9.9zM109.52 129.43a4.52 4.52 0 00-7.22 0c-.17.22.2.43.36.22a4.09 4.09 0 016.5 0c.16.21.53 0 .36-.22" fill="#fff"/><path d="M110.67 126.38h-9.52l-1.38-32c-.2-4.52 2.55-8.4 6.14-8.4 3.6 0 6.33 3.88 6.14 8.4z" fill="#31284f"/><g fill="#fff" fill-opacity=".39"><g clip-path="url(#v)" opacity=".5" transform="matrix(.35278 0 0 -.35278 31.98 156.94)"><path d="M194.13 176.3l2.75-75.18.4-10.95c.05-1.37 2.18-1.38 2.13 0l-2.75 75.19-.4 10.94c-.05 1.37-2.18 1.38-2.13 0"/></g></g><path d="M109.9 87.9c-.83 2.6-2.21 4.63-4.07 5.3l.02 33.18h4.82l1.38-32a9.11 9.11 0 00-2.15-6.49" fill="#605780"/><path d="M102.67 73l-12.2.05-.02-3.13 12.2-.05z" fill="#2e2e47"/><path d="M90.45 77c-1.2 0-2.16-.96-2.17-2.15l-.02-4.67c0-1.2.95-2.17 2.15-2.17l1.35-.01a2.16 2.16 0 012.09 2.75l-1.33 4.68A2.16 2.16 0 0190.45 77M102.52 76.95c1.19 0 2.15-.98 2.14-2.17l-.02-4.68c0-1.2-.98-2.15-2.17-2.15l-1.35.01a2.16 2.16 0 00-2.06 2.77l1.37 4.67a2.16 2.16 0 002.09 1.55" fill="#2e2e47"/><path d="M102.65 70.17l-12.2.06v-1.45l12.2-.05z" fill="#2e2e47"/><path d="M91.78 68.34c.24.01.46.1.65.24.12.1.3-.07.18-.18a1.4 1.4 0 00-.83-.32c-.16 0-.16.25 0 .26M100.46 68.49c.35-.18.74-.15 1.12-.13.16 0 .16-.25 0-.26-.44-.01-.85-.03-1.25.17-.15.07-.02.3.13.22" fill="#47475e"/><path d="M98.32 70.36l-3.56.01a.5.5 0 110-1h3.56a.5.5 0 010 1" fill="#0ff"/><path d="M89.73 68.9c.58-.1 1.17-.11 1.76-.03.23.03.33-.33.1-.36-.66-.1-1.3-.08-1.96.04-.24.04-.14.4.1.36M89.73 69.65c.58-.1 1.17-.12 1.76-.04.23.04.33-.33.1-.36a6.17 6.17 0 00-1.96.04c-.24.04-.14.4.1.36M101.11 68.9c.58-.1 1.17-.11 1.76-.03.23.03.34-.33.1-.36-.66-.1-1.3-.08-1.96.04-.24.04-.13.4.1.36M101.11 69.65c.58-.1 1.17-.12 1.76-.04.23.04.34-.33.1-.36a6.17 6.17 0 00-1.96.04c-.24.04-.13.4.1.36" fill="#e6e6e6"/><path d="M108.61 70.27l6.98 8.67s3.1 5.75-.81 7.55c-1.34.62-2.57.22-3.57-.47a6.1 6.1 0 01-2.56-4.58l-2.09-7.49z" fill="#ffb999"/><path d="M115.18 86.23c-.58-1.18-1.18-2.34-1.77-3.52-.52-1.05-4.13-7.2-4.6-8.3-.38-.86-.81-1.76-1-2.7l-1.25 2.24 1.91 7.47c.76 2.96 1.23 3.56 2.74 4.6 1 .69 2.23 1.09 3.57.47.15-.07.29-.14.41-.22a.84.84 0 00-.01-.04" fill="#ff8663"/><path d="M109.5 75.74l-1.89 2.31-.78-3.06.48.14a12.65 12.65 0 002.02.32l.07.13.1.16" fill="#c6614a"/><path d="M109.42 74.4c-.23-1.38-.66-2.74-.8-4.13-.78-.08-3.6-1.48-3.6-1.48s-.4-.05-.83 0c.28.37.45.82.45 1.31v.52l.34.43c-.6 1.2-2.9 1.7-3.21 1.8-.32.1-1.45.06-1.45.06.35 1.11 2.02 1.2 2.02 1.2-.68.84 1.15 1.52 1.15 1.52-.11.16.43.75.43.75l.94.28s.76.5.84.47l3.91-1.48h.05a34.9 34.9 0 01-.24-1.25" fill="#ffb999"/><g clip-path="url(#w)" transform="matrix(.35278 0 0 -.35278 35.06 156.94)"><path d="M228.87 218.46c-6.12 8.36-12.74 16.33-18.86 24.7-.68.92-2.25.02-1.56-.92 6.12-8.36 12.74-16.34 18.86-24.7.68-.93 2.25-.02 1.56.92" fill="#ffd9ca"/></g><g clip-path="url(#x)" transform="matrix(.35278 0 0 -.35278 35.06 156.94)"><path d="M202.7 247.31l-3.52 1.71c-1.05.5-1.97-1.05-.92-1.56l3.53-1.7c1.05-.51 1.97 1.04.92 1.55" fill="#ffd9ca"/></g><path d="M106.22 76.82c-.05-.13-.36-.24-.46-.33a4.3 4.3 0 01-.92-1.15l-.43-.71-.6-.98c-.3-.47-.47-.88-.01-1.25.42-.33.83-.6 1.04-1.12-.75 1.04-2.77 1.49-3.07 1.57-.32.1-1.45.06-1.45.06.35 1.11 2.02 1.2 2.02 1.2-.68.84 1.15 1.52 1.15 1.52-.11.16.43.75.43.75l.94.28s.76.5.84.47c.12-.05.48-.1.52-.24a.1.1 0 000-.07" fill="#ff8663"/><path d="M103.36 73.94c-.34.09-.7.14-1.05.17-.1 0-.1.17 0 .16.37-.03.74-.08 1.1-.17.1-.03.06-.19-.05-.16M104.26 75.41c-.28.03-.56.1-.84.13-.1 0-.11.17 0 .16.28-.02.56-.1.84-.12.1-.01.1-.18 0-.17M105.26 76.55c-.14.04-.27.08-.42.07-.1 0-.1.16 0 .17.17.01.3-.04.46-.08.1-.02.06-.18-.04-.16M103.33 72.85c.02.19.07.36.19.51.06.09.2 0 .14-.08a.85.85 0 01-.17-.43c0-.1-.17-.11-.16 0M104.16 74.33c0 .25.11.45.3.6.1.06.17-.09.09-.15a.56.56 0 01-.23-.45c0-.1-.17-.1-.16 0M105.01 75.83c.05.2.17.34.34.44.1.05.18-.1.09-.15a.51.51 0 01-.27-.34c-.03-.1-.18-.06-.16.05M105.69 76.64c.11.12.24.2.4.23.1.02.15-.13.05-.16a.61.61 0 01-.33-.18c-.08-.08-.2.04-.12.11" fill="#c6614a"/><path d="M84.27 70.27l-6.98 8.67s-3.1 5.75.8 7.55c1.34.62 2.58.22 3.58-.47a6.1 6.1 0 002.55-4.58l2.1-7.49z" fill="#ffb999"/><path d="M77.7 86.23c.57-1.18 1.18-2.34 1.76-3.52.53-1.05 4.14-7.2 4.62-8.3.37-.86.8-1.76.98-2.7l1.25 2.24-1.9 7.47c-.77 2.96-1.23 3.56-2.74 4.6-1 .69-2.24 1.09-3.57.47a4 4 0 01-.42-.22l.02-.04" fill="#ff8663"/><path d="M83.38 75.74l1.89 2.31.78-3.06-.49.14a12.65 12.65 0 01-2.01.32l-.07.13-.1.16" fill="#c6614a"/><path d="M83.46 74.4c.23-1.38.66-2.74.8-4.13.78-.08 3.6-1.48 3.6-1.48s.39-.05.83 0c-.28.37-.45.82-.45 1.31v.52l-.34.43c.6 1.2 2.89 1.7 3.2 1.8.33.1 1.46.06 1.46.06-.36 1.11-2.03 1.2-2.03 1.2.69.84-1.14 1.52-1.14 1.52.11.16-.43.75-.43.75l-.94.28s-.76.5-.84.47l-3.91-1.48h-.05l.24-1.25" fill="#ffb999"/><g clip-path="url(#y)" transform="matrix(.35278 0 0 -.35278 35.06 156.94)"><path d="M120.64 217.54c6.12 8.36 12.74 16.34 18.86 24.7.69.94-.88 1.85-1.57.91-6.11-8.36-12.74-16.33-18.85-24.7-.69-.93.88-1.84 1.56-.9" fill="#ffd9ca"/></g><g clip-path="url(#z)" transform="matrix(.35278 0 0 -.35278 35.06 156.94)"><path d="M146.15 245.75l3.53 1.71c1.05.5.14 2.07-.9 1.56l-3.54-1.7c-1.05-.51-.13-2.08.91-1.57" fill="#ffd9ca"/></g><path d="M86.66 76.82c.05-.13.35-.24.46-.33.39-.3.66-.74.92-1.15l.43-.71.6-.98c.29-.47.47-.88 0-1.25-.41-.33-.83-.6-1.03-1.12.75 1.04 2.77 1.49 3.07 1.57.32.1 1.45.06 1.45.06-.36 1.11-2.03 1.2-2.03 1.2.69.84-1.14 1.52-1.14 1.52.11.16-.43.75-.43.75l-.94.28s-.76.5-.84.47c-.12-.05-.48-.1-.52-.24a.1.1 0 010-.07" fill="#ff8663"/><path d="M89.47 74.1c.36.09.73.14 1.1.17.1 0 .1-.16 0-.16-.36-.03-.71-.08-1.06-.17-.1-.03-.14.13-.04.16M88.61 75.58c.29.02.57.1.85.12.1.01.1-.15 0-.16-.28-.03-.56-.1-.85-.13-.1 0-.1.16 0 .17M87.57 76.71c.16.04.3.09.46.08.1-.01.1-.18 0-.17-.15.01-.27-.03-.41-.07-.1-.02-.15.14-.05.16M89.38 72.85a.85.85 0 01-.16.43c-.06.09.08.17.14.08.11-.15.17-.32.19-.51 0-.1-.16-.1-.17 0M88.56 74.33c0 .18-.09.34-.23.45-.09.06 0 .2.08.14.2-.14.3-.34.31-.59 0-.1-.16-.1-.16 0M87.7 75.78a.51.51 0 01-.26.34c-.1.05 0 .2.08.15.18-.1.3-.25.35-.44.02-.1-.14-.15-.16-.05M87.07 76.53c-.1.1-.2.15-.33.18-.1.03-.06.18.04.16.16-.03.3-.1.4-.23.08-.07-.04-.19-.1-.11" fill="#c6614a"/><path d="M104.54 44.6c-.57 1.8-.31 3.3.56 3.34.88.04 2.05-1.37 2.62-3.17.56-1.8.3-3.29-.57-3.33-.88-.05-2.05 1.37-2.61 3.16" fill="#ffb999"/><path d="M107.44 43.54c.1-.19.06-.43-.07-.6a.57.57 0 00-.58-.18c-.37.1-.53.54-.63.92l-.35 1.3c.05-.07.17-.09.25-.04.09.04.14.13.17.22.09.25.05.54-.1.75a.83.83 0 01-.68.33" fill="none" stroke="#ff8663" stroke-width=".405697" stroke-linecap="round" stroke-linejoin="round" stroke-miterlimit="10"/><path d="M87.1 44.6c.57 1.8.31 3.3-.57 3.34-.87.04-2.04-1.37-2.6-3.17-.57-1.8-.32-3.29.56-3.33.88-.05 2.05 1.37 2.61 3.16" fill="#ffb999"/><path d="M84.35 43.54a.57.57 0 01.07-.6.57.57 0 01.57-.18c.38.1.54.54.64.92l.35 1.3c-.05-.07-.17-.09-.26-.04a.39.39 0 00-.16.22.83.83 0 00.1.75c.16.2.42.34.68.33" fill="none" stroke="#ff8663" stroke-width=".405697" stroke-linecap="round" stroke-linejoin="round" stroke-miterlimit="10"/><path d="M95.82 54.92c-5.55 0-10.05-4.5-10.05-10.06v-3.02a10.05 10.05 0 1120.1 0v3.02c0 5.56-4.5 10.06-10.05 10.06" fill="#ffb999"/><path d="M90.7 41.45a13.22 13.22 0 004.81-5.24c1.23 1.82 2.5 3.67 4.19 5.08a9.52 9.52 0 002.93 1.7c.83.29 2.41.75 3.24.28v-1.43a10.05 10.05 0 10-20.1 0v1.18c1.58.16 3.47-.66 4.93-1.57" fill="#ff8663"/><g clip-path="url(#A)" transform="matrix(.35278 0 0 -.35278 35.06 156.94)"><path d="M148.85 302.22a26.1 26.1 0 0120.77-12.18c1.5-.09 1.5 2.25 0 2.33a23.62 23.62 0 00-18.75 11.03c-.8 1.26-2.83.09-2.02-1.18" fill="#ffd9ca"/></g><g clip-path="url(#B)" transform="matrix(.35278 0 0 -.35278 35.06 156.94)"><path d="M154.15 310.72c1.1-.5 2.23-.8 3.45-.74 1.22.07 2.4 1.02 2.34 2.33-.06 1.21-1.03 2.41-2.34 2.34h-.54c-.44-.01.27-.1 0-.02l-.44.1c-.13.04-.62.26-.1.03-1.12.5-2.57.35-3.2-.84-.54-1.03-.35-2.66.83-3.2" fill="#ffd9ca"/></g><g clip-path="url(#C)" transform="matrix(.35278 0 0 -.35278 35.06 156.94)"><path d="M186.63 314.76c.52.23-.01 0-.11-.02-.15-.05-.3-.07-.44-.1-.29-.08.54 0 0 0l-.54.01c-1.22.07-2.4-1.12-2.34-2.34a2.39 2.39 0 012.34-2.33 7.23 7.23 0 013.45.74c1.11.51 1.47 2.21.83 3.2-.74 1.15-2 1.38-3.2.84" fill="#ffd9ca"/></g><g clip-path="url(#D)" transform="matrix(.35278 0 0 -.35278 35.06 156.94)"><path d="M170.19 323.74v-13.9c0-1.5 2.33-1.5 2.33 0v13.9c0 1.5-2.33 1.5-2.33 0" fill="#ffd9ca"/></g><path d="M93.97 41.45l.8.68c.07.05.13.1.18.18.06.11.06.25.06.38l.02 5.15" fill="none" stroke="#ff8663" stroke-width=".405697" stroke-linecap="round" stroke-linejoin="round" stroke-miterlimit="10"/><path d="M93.14 49.4a2.34 2.34 0 004.64 0z" fill="#31284f"/><path d="M95.46 49.94c-.68 0-1.28.3-1.7.76a2.31 2.31 0 003.41 0 2.31 2.31 0 00-1.7-.76" fill="#ff407b"/><path d="M98.05 40.3c1.5-.18 3.04.04 4.43.62" fill="none" stroke="#31284f" stroke-width=".6067815999999999" stroke-linecap="round" stroke-linejoin="round" stroke-miterlimit="10"/><path d="M100.95 44.32c0 .7-.3 1.27-.69 1.27-.37 0-.68-.57-.68-1.27 0-.7.3-1.27.68-1.27.38 0 .7.57.7 1.27" fill="#31284f"/><path d="M100.85 43.88a.4.4 0 11-.8 0 .4.4 0 01.8 0" fill="#fff"/><path d="M89.16 40.74a7.3 7.3 0 013.8-.23" fill="none" stroke="#31284f" stroke-width=".6067815999999999" stroke-linecap="round" stroke-linejoin="round" stroke-miterlimit="10"/><path d="M91.74 44.32c0 .7-.3 1.27-.69 1.27-.37 0-.68-.57-.68-1.27 0-.7.3-1.27.68-1.27.38 0 .69.57.69 1.27" fill="#31284f"/><path d="M91.67 43.88a.4.4 0 11-.8 0 .4.4 0 01.8 0" fill="#fff"/><path d="M86.25 39.17c-.31.97-.48 2-.48 3.06v3.02c0 .58.06 1.13.15 1.68l2.97-7.76zM105.4 39.17c.3.97.47 2 .47 3.06v3.02c0 .58-.06 1.13-.15 1.68l-2.97-7.76z" fill="#31284f"/><path d="M95.88 29.5h-.12c-5.93 0-10.73 4.8-10.73 10.72v.98l.62 1.1c7.35-.94 9.67-6.86 10.17-9.53.48 2.58 2.67 8.36 9.45 9.6a.93.93 0 001.02-.51l.32-.66v-.98c0-5.92-4.8-10.72-10.73-10.72" fill="#31284f"/><g fill="#a7a9e3" fill-opacity=".39"><g clip-path="url(#E)" transform="matrix(.35278 0 0 -.35278 35.06 156.94)"><path d="M147.43 340.08a27.22 27.22 0 0015.58 15.7c1.39.54.78 2.8-.62 2.26a29.76 29.76 0 01-17.22-17.33c-.53-1.41 1.73-2.02 2.26-.62"/></g></g><g fill="#a7a9e3" fill-opacity=".39"><g clip-path="url(#F)" transform="matrix(.35278 0 0 -.35278 35.06 156.94)"><path d="M167.3 357.8c1.5 0 1.5 2.33 0 2.33s-1.5-2.34 0-2.34"/></g></g><g fill="#a7a9e3" fill-opacity=".39"><g clip-path="url(#G)" transform="matrix(.35278 0 0 -.35278 35.06 156.94)"><path d="M157.05 331.17a37.68 37.68 0 0112.76 16.56c.55 1.4-1.7 2-2.25.63a34.87 34.87 0 00-11.7-15.17c-1.19-.89-.02-2.91 1.19-2.02"/></g></g><g fill="#a7a9e3" fill-opacity=".39"><g clip-path="url(#H)" transform="matrix(.35278 0 0 -.35278 35.06 156.94)"><path d="M149.4 330.47h-.16c-1.5 0-1.51-2.33 0-2.33h.17c1.5 0 1.5 2.33 0 2.33"/></g></g><g fill="#a7a9e3" fill-opacity=".39"><g clip-path="url(#I)" transform="matrix(.35278 0 0 -.35278 35.06 156.94)"><path d="M173.58 354.28a47.42 47.42 0 019.58-18.15c.97-1.15 2.61.5 1.65 1.65a44.59 44.59 0 00-8.98 17.12c-.4 1.45-2.65.83-2.25-.62"/></g></g><g fill="#a7a9e3" fill-opacity=".39"><g clip-path="url(#J)" transform="matrix(.35278 0 0 -.35278 35.06 156.94)"><path d="M179.8 355.01a27.16 27.16 0 0011.4-8.73c.9-1.18 2.92-.01 2.01 1.18a30.08 30.08 0 01-12.79 9.8c-1.39.57-2-1.69-.62-2.25"/></g></g><g fill="#a7a9e3" fill-opacity=".39"><g clip-path="url(#K)" transform="matrix(.35278 0 0 -.35278 35.06 156.94)"><path d="M198.83 329.84c1.5 0 1.5 2.34 0 2.34s-1.5-2.34 0-2.34"/></g></g><g><path d="M102.9 37.74l.81-2.78c.33-1.14 1.68-.92 2.44.47l.11.22.45.94c.1.23.19.46.24.69.34 1.29-.3 2.16-1.25 1.8l-2.63-1c-.11-.05-.2-.22-.16-.34" fill="#ff407b"/></g><g><path d="M103.54 37.44l-2.65-1.15c-1.1-.47-1.79.71-1.2 2.19l.1.22.44.94c.11.23.23.44.37.63.78 1.08 1.86 1.13 2.19.18l.9-2.67c.04-.11-.04-.29-.15-.34" fill="#ff407b"/></g><g><path d="M102.73 38.25l-.27-.57a.73.73 0 111.32-.62l.27.57a.73.73 0 11-1.32.62" fill="#ff407b"/></g><g><g clip-path="url(#L)" transform="matrix(.35278 0 0 -.35278 35.06 156.94)"><path d="M192.18 338.84l.81-.4c.57-.29 1.27-.15 1.6.42.3.51.15 1.31-.42 1.6l-.81.4c-.57.28-1.27.15-1.6-.42-.3-.52-.15-1.31.42-1.6" fill="#ffd9ca"/></g></g><g><g clip-path="url(#M)" transform="matrix(.35278 0 0 -.35278 35.06 156.94)"><path d="M185.15 339.77c.56-.06 1.1-.25 1.58-.52 1.33-.72 2.5 1.3 1.18 2.02-.87.48-1.77.73-2.76.84-.63.07-1.17-.59-1.17-1.17 0-.69.54-1.1 1.17-1.17" fill="#ffd9ca"/></g></g><g><g clip-path="url(#N)" transform="matrix(.35278 0 0 -.35278 35.06 156.94)"><path d="M196.29 342.55l.8 3c.39 1.45-1.86 2.07-2.25.62l-.8-3c-.39-1.45 1.86-2.07 2.25-.62" fill="#ffd9ca"/></g></g><g><path d="M106.23 48.05a.84.84 0 11-1.68 0 .84.84 0 011.68 0" fill="#ff407b"/></g><g><path d="M87.02 48.05a.84.84 0 11-1.69 0 .84.84 0 011.69 0" fill="#ff407b"/></g><g fill="#fff" fill-opacity=".39"><g clip-path="url(#O)" opacity=".8" transform="matrix(.35278 0 0 -.35278 40.67 158.62)"><path d="M71.76 280.8v28.53c0 1.93-3 1.93-3 0V280.8c0-1.93 3-1.93 3 0"/></g></g><g fill="#fff" fill-opacity=".39"><g clip-path="url(#P)" opacity=".8" transform="matrix(.35278 0 0 -.35278 22.56 149.7)"><path d="M202.65 345.66h37.19c1.93 0 1.93 3 0 3h-37.19c-1.93 0-1.93-3 0-3"/></g></g><g fill="#fff" fill-opacity=".39"><g clip-path="url(#P)" opacity=".8" transform="matrix(.35278 0 0 -.35278 125.52 152.69)"><path d="M202.65 345.66h37.19c1.93 0 1.93 3 0 3h-37.19c-1.93 0-1.93-3 0-3"/></g></g><g fill="#fff" fill-opacity=".39"><g clip-path="url(#P)" opacity=".8" transform="scale(.35278 -.35278) rotate(2.43 10756.17 12886.42)"><path d="M202.65 345.66h37.19c1.93 0 1.93 3 0 3h-37.19c-1.93 0-1.93-3 0-3"/></g></g><g><g fill="#d9d9d9"><g clip-path="url(#c)" opacity=".8" transform="matrix(-.18684 .24202 .20606 .28137 58.67 -40.29)"><path d="M39.01 262.06a23.37 23.37 0 0021.07 8.43c1.91-.22 1.9 2.78 0 3a26.1 26.1 0 01-23.19-9.31c-1.22-1.47.89-3.6 2.12-2.12"/></g></g><g fill="#d9d9d9"><g clip-path="url(#c)" opacity=".8" transform="matrix(.18684 .25914 -.20606 .30127 132.71 -46.42)"><path d="M39.01 262.06a23.37 23.37 0 0021.07 8.43c1.91-.22 1.9 2.78 0 3a26.1 26.1 0 01-23.19-9.31c-1.22-1.47.89-3.6 2.12-2.12"/></g></g><path d="M104.46 48.32c0 3.57-4 6.47-8.93 6.47s-8.93-2.9-8.93-6.47 4.13-.32 9.07-.32c4.93 0 8.8-3.25 8.8.32z" fill="#fff" stroke="#cfcfcf" stroke-width=".6244206" stroke-linecap="round"/><g fill="#e2e2e2" fill-opacity=".53"><g clip-path="url(#c)" opacity=".8" transform="matrix(-.4473 .0714 .05514 .50907 107.82 -88.3)"><path d="M43.54 262.1a13.57 13.57 0 009.98 3.94c.87-.03.96 1.14.1 1.16-4.06.12-8.14-1.5-10.99-4.34-.61-.6.3-1.37.91-.75"/></g></g></g><g><path d="M375.94 98.86h-7.29c-7.2 0-13.03-5.83-13.03-13.03v-6.18h33.35v6.18c0 7.2-5.84 13.03-13.03 13.03" fill="#211b34"/><path d="M386.63 82.07l-2.32-40.71a6.86 6.86 0 00-3.64-6.18c-4.83-2.4-12.04-2.99-12.04-2.99l-11.69 2.32-9.98 7.33a6.86 6.86 0 00-1.01 7.1l9.22 33.7z" fill="#fff"/><path d="M386.63 82.07l-2.32-40.71c0-.5-.05-.99-.15-1.46a6.48 6.48 0 00-2.72-2.65c-4.83-2.41-12.04-2.99-12.04-2.99l-11.69 2.31-9.98 7.33a6.86 6.86 0 00-1.02 7.1l8.67 31.63z" fill="#0073ff"/><path d="M363.8 46.44c-1.04.35-2.1.66-3.11 1.05-.44.26-.28.78-.13 1.16 1.3 3.9 2.59 7.82 3.9 11.72.2.5.76.4 1.15.22l3.2-1.06-4.4-13.3-.61.2zm2.74-.91l4.4 13.3c1.99-.67 4-1.3 5.97-2 .8-.24.96-1.33.35-1.85-.74-.68-1.71-1.02-2.51-1.62-1-.64-2.04-1.52-2.3-2.74-.3-1.54.4-3.02.97-4.4.3-.7.78-1.6.26-2.31-.44-.62-1.25-.36-1.84-.14l-5.3 1.76z" fill="#fff"/><g fill-opacity=".39"><g clip-path="url(#Q)" transform="matrix(.35278 0 0 -.35278 264.15 156.94)"><path d="M331.29 300.73c-6 2.06-11.8 4.71-17.79 6.8-11.96 4.18-23.91-1.1-33.68-7.98a87.95 87.95 0 01-12.65-10.51c-4.32-4.48-5.75-9.58-7.24-15.46-1.35-5.33-2.77-10.73-5.2-15.7-1.69-3.44-4.14-6.4-6.48-9.43l.16-.58c3.6-7.15 8.89-12.62 13.3-19.1 3.4-5.02 7.8-8.47 14.38-7.06 5.92 1.27 10.6 6.04 13.23 11.49 5.68 11.71 2.35 27.1-7.66 35.41.74-.61 5.1 3 5.67 3.52 1.63 1.49 3.02 2.9 3.93 4.92a28.68 28.68 0 012.34 14.85c3.45-.04 6.9.85 9.9 2.54 1.86-3.82 3.46-7.06 7.17-9.41a14.86 14.86 0 0110.76-2.17c.84.17 6.45 1.61 6.41 2.7.47-13.06 7.32-23.09 16.97-31.22-.46 5.75-.67 11.55-1 17.32l-1 17.4c-.03.57-.04 8.17-.47 8.3-3.7 1.06-7.4 2.11-11.05 3.37"/></g></g><path d="M346.16 45.32c3-1.47 6.62-.22 8.08 2.78l9.96 19.76a6.05 6.05 0 01-10.87 5.3l-9.96-19.76a6.05 6.05 0 012.79-8.08" fill="#ff8663"/><path d="M346.16 45.32a6.04 6.04 0 015.83.3 6.02 6.02 0 00-4.85 8.66l9.96 19.75a6.01 6.01 0 002.25 2.49 6.04 6.04 0 01-6.02-3.36l-9.96-19.76a6.05 6.05 0 012.79-8.08" fill="#ffb999"/><path d="M346.96 41.84s-8.03 4.46-2.98 17.25l3.16 6.33 12.84-9.96L349.48 40z" fill="#fff"/><path d="M360.61 55.03l-9.3-13.73-2.3 1.74s-8.03 4.46-3 17.25l2.17 4.33z" fill="#0073ff"/><path d="M380.5 35.97a6.05 6.05 0 00-3 8.01l8.2 17.54a6.05 6.05 0 1011-5.02l-8.2-17.53a6.05 6.05 0 00-8-3" fill="#ff8663"/><path d="M380.5 35.97c-1.97.9-3.21 2.7-3.49 4.7a6.02 6.02 0 019.77 1.76l8.2 17.53c.49 1.08.63 2.23.48 3.33a6.04 6.04 0 001.24-6.8l-8.2-17.52a6.05 6.05 0 00-8-3" fill="#ffb999"/><path d="M374.3 30.57s8.42-3.68 15.53 8.08l3.11 6.36-18.15 4.33-5.95-17.73z" fill="#fff"/><path d="M373.67 32.66l-4.9.88 5.33 15.88 17.36-4.07-2.27-4.61c-7.1-11.76-15.52-8.08-15.52-8.08" fill="#0073ff"/><path d="M394.41 134.17h-15v-6.65a5.38 5.38 0 015.39-5.38h4.23a5.38 5.38 0 015.38 5.38z" fill="#31284f"/><path d="M391.66 130.07h-9.5v-9.05h9.5z" fill="#0f0830"/><path d="M393.24 134.17h-12.65v-1.33a5.7 5.7 0 015.7-5.7h1.25a5.7 5.7 0 015.7 5.7z" fill="#fff"/><path d="M379.41 135.92h15v-1.99h-15zM392.31 127.57c-2.7-3.12-8.1-3.12-10.8 0-.25.28.17.7.42.42a6.83 6.83 0 019.96 0c.25.29.67-.14.42-.42" fill="#fff"/><path d="M394.12 123.68H379.7l-2.09-41.48c-.3-5.84 3.86-10.86 9.3-10.86 5.43 0 9.58 5.02 9.28 10.86z" fill="#31284f"/><path d="M386.91 71.34h-.23v52.34h7.44l2.08-41.48c.3-5.84-3.85-10.86-9.29-10.86" fill="#605780"/><g fill="#fff" fill-opacity=".39"><g clip-path="url(#R)" opacity=".5" transform="matrix(.35278 0 0 -.35278 264.15 156.94)"><path d="M328.76 222.3a26.25 26.25 0 0014.38 14.43c1.25.51.7 2.58-.57 2.05a28.63 28.63 0 01-15.87-15.9c-.51-1.27 1.55-1.83 2.06-.57"/></g></g><g fill="#fff" fill-opacity=".39"><g clip-path="url(#S)" opacity=".5" transform="matrix(.35278 0 0 -.35278 264.15 156.94)"><path d="M327.95 175.27l2.37-51.98c.07-1.37 2.2-1.38 2.14 0l-2.38 51.98c-.06 1.37-2.2 1.38-2.13 0"/></g></g><g fill="#fff" fill-opacity=".39"><g clip-path="url(#T)" opacity=".5" transform="matrix(.35278 0 0 -.35278 264.15 156.94)"><path d="M366.71 156.28l-2.12-60.13c-.05-1.37 2.08-1.37 2.13 0l2.13 60.13c.05 1.37-2.09 1.37-2.14 0"/></g></g><path d="M366.73 134.17h-15v-6.65a5.39 5.39 0 015.38-5.38h4.23a5.38 5.38 0 015.39 5.38z" fill="#31284f"/><path d="M363.97 130.07h-9.5v-9.05h9.5z" fill="#0f0830"/><path d="M365.55 134.17H352.9v-1.33a5.7 5.7 0 015.7-5.7h1.26a5.7 5.7 0 015.7 5.7z" fill="#fff"/><path d="M351.72 135.92h15v-1.99h-15zM364.63 127.57c-2.7-3.12-8.11-3.12-10.8 0-.25.28.16.7.41.42a6.82 6.82 0 019.97 0c.25.29.67-.14.42-.42" fill="#fff"/><path d="M366.43 123.68h-14.4l-2.1-41.48c-.29-5.84 3.86-10.86 9.3-10.86 5.43 0 9.58 5.02 9.29 10.86z" fill="#31284f"/><g fill="#fff" fill-opacity=".39"><g clip-path="url(#U)" opacity=".5" transform="matrix(.35278 0 0 -.35278 264.15 156.94)"><path d="M247.19 217.75a26.32 26.32 0 006.03 13.43c.88 1.04-.62 2.56-1.5 1.5a28.33 28.33 0 01-6.59-14.36c-.2-1.34 1.86-1.92 2.06-.57"/></g></g><g fill="#fff" fill-opacity=".39"><g clip-path="url(#V)" opacity=".5" transform="matrix(.35278 0 0 -.35278 264.15 156.94)"><path d="M245.72 190.9l2.94-34.9c.11-1.35 2.24-1.37 2.13 0l-2.94 34.9c-.12 1.35-2.25 1.36-2.13 0"/></g></g><path d="M367.19 76.32c-1.45 2.93-4.91 5.25-8.1 5.78l.04 41.58h7.3l2.09-41.48c.1-2.14-.39-4.17-1.33-5.88" fill="#605780"/><path d="M374 49.15l-11.7 3.42-.93-3.15 11.7-3.42z" fill="#2e2e47"/><path d="M363.43 56.57a2.27 2.27 0 01-2.82-1.54l-1.38-4.72a2.27 2.27 0 011.54-2.82l1.37-.4c1.45-.42 2.9.66 2.9 2.17l.02 5.12c0 1.01-.66 1.9-1.63 2.19M375 53.19a2.27 2.27 0 001.54-2.82l-1.38-4.72a2.27 2.27 0 00-2.82-1.54l-1.37.4a2.27 2.27 0 00-1.27 3.4l2.74 4.32a2.27 2.27 0 002.56.96" fill="#2e2e47"/><path d="M373.17 46.3l-11.71 3.42-.43-1.45 11.71-3.42z" fill="#2e2e47"/><path d="M362.26 47.43c.24-.06.49-.04.72.06.16.06.3-.17.14-.23-.3-.13-.61-.16-.93-.09-.17.04-.1.3.07.26M370.46 45.24c.3-.29.7-.36 1.1-.46.16-.04.09-.3-.08-.26-.44.11-.87.21-1.21.53-.13.12.06.3.19.19" fill="#47475e"/><path d="M368.61 47.82l-2.98.87a.52.52 0 01-.3-1l3-.88a.52.52 0 01.28 1" fill="#0ff"/><path d="M368.47 47.3l-1.57.45c-.29.08-1.26.27-1.38.38-.11.13.39-.05.46-.07l.92-.27 1.07-.3c.12-.04.24-.09.36-.11.1-.02.18-.11 0-.03-.62.3-.07 1.24.56.94.63-.3.85-1.1.39-1.66-.37-.44-.9-.4-1.4-.26-.9.27-1.96.43-2.82.84-.6.29-.86 1.04-.44 1.6.36.47.85.47 1.36.34.93-.24 1.85-.54 2.78-.8.67-.2.38-1.26-.3-1.06" fill="#0ff"/><path d="M360.35 48.6a5.96 5.96 0 011.81-.56c.25-.03.15-.41-.1-.38-.67.1-1.3.3-1.91.6-.23.11-.03.45.2.34M360.56 49.35a5.96 5.96 0 011.82-.55c.25-.04.14-.42-.1-.38-.68.1-1.31.3-1.92.6-.22.1-.02.45.2.33M371.24 45.47a5.96 5.96 0 011.82-.55c.25-.04.14-.42-.1-.39-.68.1-1.31.3-1.92.6-.23.11-.03.46.2.34M371.46 46.23a5.96 5.96 0 011.81-.56c.26-.04.15-.42-.1-.38-.67.1-1.3.3-1.91.6-.23.1-.03.45.2.34" fill="#e6e6e6"/><path d="M352.77 54.13l-.51 14.7s1.46 11 8.63 9.59c2.46-.48 3.76-2.26 4.45-4.21 1.04-2.94.6-6.2-1.04-8.85l-5.04-8.2z" fill="#ffb999"/><path d="M360.09 78.46c-.4-2.2-.71-4.4-1.08-6.6-.33-1.97-.74-3.92-1.12-5.88-.39-1.99-.81-3.97-1.25-5.95-.35-1.57-.65-3.24-1.34-4.72l3.96 1.85 5.04 8.2a10.36 10.36 0 011.04 8.85c-.69 1.95-2 3.73-4.45 4.2-.27.06-.53.1-.8.12z" fill="#ff8663"/><path d="M356.68 62.17c-.12-.02-.12-.02 0-.02l.4-.25a16.67 16.67 0 002.32-2.37l.74-.94 2.74 4.46c-1.94-.38-3.94-.46-5.89-.82l-.3-.06" fill="#c6614a"/><path d="M366.82 49.5s-1.51 1.19-2.05 1.37c-.53.19-4.2 1.79-6.21.71l.1-2.66s1.68-1.5.38-1.66c-1.3-.16-2.79 1.25-2.79 1.25s-2.49 4.73-3.47 5.62c1.17 2.06 1.94 4.36 3 6.48l.9 1.96.07-.04 6.86-1.85c.15-.04.7-1.5.7-1.5l1.01-1.31s.17-1.35-.15-1.47c0 0 1.84-2.74.06-3.23 0 0 2.22-1.78 1.59-3.66" fill="#ffb999"/><g clip-path="url(#W)" transform="matrix(.35278 0 0 -.35278 264.15 156.94)"><path d="M258.34 296.71l5.25 9.09c.68 1.19-1.16 2.26-1.85 1.07l-5.25-9.08c-.68-1.19 1.16-2.26 1.85-1.08" fill="#ffd9ca"/></g><g clip-path="url(#X)" transform="matrix(.35278 0 0 -.35278 264.15 156.94)"><path d="M265.15 307.46l2.58 1.1c.53.22.65 1 .39 1.45-.33.55-.93.6-1.46.38l-2.59-1.09c-.53-.22-.64-1-.38-1.46.32-.55.93-.6 1.46-.38" fill="#ffd9ca"/></g><g clip-path="url(#Y)" transform="matrix(.35278 0 0 -.35278 264.15 156.94)"><path d="M275.7 294.09l.88-1.85c.25-.52 1-.66 1.46-.38.53.3.63.93.38 1.46l-.88 1.84c-.25.52-1 .66-1.46.38-.53-.3-.63-.93-.38-1.45" fill="#ffd9ca"/></g><g clip-path="url(#Z)" transform="matrix(.35278 0 0 -.35278 264.15 156.94)"><path d="M276.79 286.83l.44-2.6c.1-.56.8-.88 1.3-.74.6.16.85.74.75 1.31l-.44 2.6c-.1.57-.8.89-1.31.74-.6-.16-.84-.74-.74-1.3" fill="#ffd9ca"/></g><g clip-path="url(#aa)" transform="matrix(.35278 0 0 -.35278 264.15 156.94)"><path d="M278.06 280.54l.19-2.74c.03-.58.46-1.07 1.06-1.07.55 0 1.1.49 1.07 1.07l-.18 2.74c-.04.58-.47 1.07-1.07 1.07-.55 0-1.1-.5-1.07-1.07" fill="#ffd9ca"/></g><g clip-path="url(#ab)" transform="matrix(.35278 0 0 -.35278 264.15 156.94)"><path d="M251.26 287.26l-1.51-42.6c-.05-1.37 2.08-1.37 2.13 0l1.5 42.6c.06 1.38-2.08 1.37-2.12 0" fill="#ffd9ca"/></g><path d="M362.6 60.77c-.07-.24.24-.69.3-.9.23-.82.17-1.69.11-2.51l-.1-1.42-.15-1.94c-.07-.93-.22-1.68-1.24-1.73-.9-.05-1.74.01-2.54-.5 2.07.68 5.3-.72 5.8-.9.53-.18 2.04-1.36 2.04-1.36.63 1.88-1.6 3.66-1.6 3.66 1.8.49-.05 3.23-.05 3.23.32.12.15 1.47.15 1.47l-1 1.32s-.56 1.45-.7 1.49c-.22.05-.75.34-.96.18a.18.18 0 01-.06-.09" fill="#ff8663"/><path d="M363.74 54.22c.59-.23 1.15-.51 1.68-.85.16-.1.02-.34-.14-.24-.51.32-1.05.6-1.61.82-.17.07-.1.34.07.27M364.04 57.12c.41-.26.87-.42 1.29-.68.15-.09.01-.33-.14-.24-.42.25-.88.42-1.3.67-.15.1 0 .34.15.25M363.74 59.71c.26-.1.51-.18.73-.37.13-.12-.06-.32-.2-.2-.18.16-.39.21-.6.3-.17.07-.1.34.07.27M362.38 52.57c.15.23.22.48.21.76 0 .18.28.18.28 0 0-.32-.08-.63-.25-.9-.09-.16-.33-.02-.24.14M362.72 55.44c.19.27.23.57.13.88-.05.17.22.24.27.07.12-.37.07-.77-.16-1.09-.1-.15-.34 0-.24.14M363 58.28c.1.25.1.5-.01.74-.08.16.16.3.24.14.15-.3.17-.64.04-.95-.07-.16-.34-.1-.27.07M362.87 59.98a.96.96 0 01-.26.55c-.12.13.07.33.2.2.2-.22.3-.47.34-.75.02-.18-.26-.18-.28 0" fill="#c6614a"/><path d="M382.17 42.64l11.29 9.42s7.23 8.43 1.4 12.83c-2 1.5-4.2 1.3-6.11.5a10.36 10.36 0 01-5.9-6.67l-2.75-9.22z" fill="#ffb999"/><path d="M395.42 64.32c-1.38-1.76-2.81-3.47-4.2-5.21-1.25-1.55-2.43-3.17-3.63-4.75a224.1 224.1 0 01-3.6-4.9c-.94-1.31-1.98-2.65-2.62-4.16l-1.27 4.2 2.75 9.22c.89 2.99 3.02 5.5 5.9 6.68 1.9.78 4.1 1 6.1-.5.22-.18.42-.35.61-.53l-.04-.05" fill="#ff8663"/><path d="M385.55 50.92c.07-.1.07-.11 0-.02-.04 0-.38.11-.46.12a16.84 16.84 0 01-3.32.15c-.4-.01-.8-.03-1.19-.06l1.5 5.01c1-1.7 2.28-3.25 3.31-4.93l.16-.27" fill="#c6614a"/><path d="M369.36 50.02s1.88-.34 2.38-.61c.5-.28 4.13-1.94 4.68-4.16l-2.06-1.7s-2.23.25-1.49-.82c.75-1.08 2.8-1.25 2.8-1.25s5.18 1.3 6.5 1.16c.75 2.25 1.95 4.36 2.83 6.56.27.66.56 1.32.85 1.98l-.07.03-5.96 3.87a7.76 7.76 0 01-1.58-.47l-1.65-.13s-1.12-.77-1-1.09c0 0-3.27-.46-2.44-2.12 0 0-2.8.48-3.8-1.25" fill="#ffb999"/><g clip-path="url(#ac)" transform="matrix(.35278 0 0 -.35278 264.15 156.94)"><path d="M317.43 323.87l12.3-2.7c1.34-.3 1.91 1.75.57 2.05l-12.3 2.71c-1.34.3-1.91-1.76-.57-2.06" fill="#ffd9ca"/></g><g clip-path="url(#ad)" transform="matrix(.35278 0 0 -.35278 264.15 156.94)"><path d="M315.6 308.2a6.15 6.15 0 011.87-5.75c1.02-.92 2.53.58 1.51 1.5a3.97 3.97 0 00-1.32 3.68c.24 1.34-1.82 1.92-2.06.57" fill="#ffd9ca"/></g><g clip-path="url(#ae)" transform="matrix(.35278 0 0 -.35278 264.15 156.94)"><path d="M320.45 298.6l3.56-3.56c.97-.97 2.47.54 1.5 1.51l-3.55 3.55c-.97.97-2.48-.54-1.51-1.5" fill="#ffd9ca"/></g><g clip-path="url(#af)" transform="matrix(.35278 0 0 -.35278 264.15 156.94)"><path d="M326.01 294.75a5.36 5.36 0 013.96-3.31c.56-.1 1.15.15 1.31.74.14.52-.18 1.21-.75 1.31a3.23 3.23 0 00-2.46 1.83c-.23.53-.7.91-1.31.75-.5-.14-.97-.78-.75-1.32" fill="#ffd9ca"/></g><g clip-path="url(#ag)" transform="matrix(.35278 0 0 -.35278 264.15 156.94)"><path d="M337.28 318.13l28.05-23.58c1.04-.88 2.56.63 1.5 1.51l-28.04 23.58c-1.04.87-2.56-.63-1.5-1.51" fill="#ffd9ca"/></g><g clip-path="url(#ah)" transform="matrix(.35278 0 0 -.35278 264.15 156.94)"><path d="M359.63 314.4l6.07-13.63c.56-1.25 2.4-.17 1.85 1.07l-6.07 13.64c-.56 1.26-2.4.17-1.85-1.07" fill="#ffd9ca"/></g><path d="M380.56 54.4c-.13-.22-.67-.29-.88-.39a7.3 7.3 0 01-1.94-1.59l-.98-1.02-1.35-1.4c-.65-.68-1.1-1.3-.46-2.08.57-.7 1.17-1.29 1.32-2.23-.87 2-4.07 3.46-4.53 3.72-.5.27-2.38.61-2.38.61.98 1.73 3.79 1.25 3.79 1.25-.83 1.66 2.44 2.12 2.44 2.12-.12.32 1 1.1 1 1.1l1.65.12s1.46.56 1.58.47c.18-.12.75-.32.77-.58 0-.04 0-.08-.03-.1" fill="#ff8663"/><path d="M374.78 50.64c-.55.27-1.11.48-1.7.65-.17.05-.1.32.08.27.6-.17 1.2-.4 1.76-.68.16-.08.02-.32-.14-.24M376.8 52.76c-.46.14-.9.37-1.36.51-.17.05-.1.32.07.27.47-.14.9-.37 1.37-.51.17-.06.1-.33-.08-.27M378.87 54.3c-.2.1-.4.22-.63.25-.18.02-.18.3 0 .28.3-.04.51-.17.77-.3.16-.07.02-.31-.14-.24M374.33 48.84c.1.3.26.57.5.78.14.12.33-.07.2-.2a1.4 1.4 0 01-.43-.66c-.05-.17-.32-.1-.27.08M376.24 51c.09.38.35.7.7.85.17.07.3-.17.14-.24a.96.96 0 01-.57-.68c-.04-.17-.3-.1-.27.08M378.2 53.18c.15.3.41.51.73.6.18.05.25-.22.08-.27a.86.86 0 01-.56-.47c-.08-.16-.32-.02-.24.14M379.63 54.28c.22.16.48.24.76.24.18 0 .18-.29 0-.28a1 1 0 01-.62-.2c-.15-.1-.29.14-.14.24" fill="#c6614a"/><path d="M357.04 39.38c2.1.52 6.23 1.43 7.93.92 1.65-.5 4.7-3.52 6.22-5.11.58-.6.8-1.4.6-2.1l-.05-.19c-.08-.3-.35-.5-.69-.55l-1.83-.24c-.14-.02-.3 0-.44.04l-10.82 3.2a1.1 1.1 0 00-.4.22l-1.8 1.51c-.27.23-.39.56-.3.85.2.71.78 1.25 1.58 1.45" fill="#fff"/><path d="M369.86 33.79c.1.34-.01.71-.29 1-1.02 1.09-3.62 3.74-4.97 4.15-1.4.42-4.95-.42-6.37-.79-.38-.1-.66-.36-.75-.7l-2.35-8.1 12.38-3.67z" fill="#ffb999"/><path d="M355.71 31.43c1.46 2.02 4.38 2.93 7.28 2.07 2.91-.86 4.91-3.23 5.1-5.74l-.58-2.08-12.38 3.66z" fill="#ff8663"/><g clip-path="url(#ai)" transform="matrix(.35278 0 0 -.35278 264.15 156.94)"><path d="M263.3 347.34c.82-2.97 1.8-5.9 2.62-8.87.6-2.16 3.97-1.24 3.37.93-.83 2.97-1.8 5.9-2.63 8.87-.6 2.16-3.96 1.24-3.36-.93" fill="#ffd9ca"/></g><path d="M368.96 19.33c-.23 2.02.36 3.54 1.3 3.4.94-.13 1.88-1.87 2.1-3.9.22-2.01-.36-3.54-1.3-3.4-.94.13-1.88 1.88-2.1 3.9" fill="#ff8663"/><path d="M371.8 17.6a.62.62 0 00-.2-.63.62.62 0 00-.64-.07c-.38.18-.46.68-.48 1.1l-.1 1.47c.04-.1.16-.14.26-.11.1.03.18.11.23.2a.9.9 0 01.04.81.9.9 0 01-.65.5" fill="none" stroke="#c25b5b" stroke-width=".4374472" stroke-linecap="round" stroke-linejoin="round" stroke-miterlimit="10"/><path d="M349.36 22.58c.82 1.85.73 3.49-.2 3.64-.94.16-2.37-1.22-3.2-3.08-.81-1.86-.72-3.49.21-3.65.94-.15 2.37 1.23 3.2 3.09" fill="#ff8663"/><path d="M346.12 21.8a.62.62 0 010-.66c.13-.2.37-.3.6-.27.41.06.64.51.8.9l.52 1.37c-.06-.08-.2-.08-.28-.02a.42.42 0 00-.15.26.9.9 0 00.2.79c.2.2.5.31.77.27" fill="none" stroke="#c25b5b" stroke-width=".4374472" stroke-linecap="round" stroke-linejoin="round" stroke-miterlimit="10"/><path d="M361.42 31.88a10.85 10.85 0 01-12.75-8.55l-1.34-6.74a4.5 4.5 0 013.54-5.29l12.48-2.46a4.5 4.5 0 015.28 3.54l1.33 6.74a10.85 10.85 0 01-8.54 12.76" fill="#ffb999"/><path d="M363.35 8.84l-12.48 2.46a4.5 4.5 0 00-3.54 5.29l.19.92c.22-1.16.57-2.3 1.1-3.36.02 1.25 1.45 2.3 2.74 2 1.29-.3 2.06-1.85 1.48-2.97 1.56 1.88 3.53 3.62 6 4.2 1.23.3 2.65.25 3.64-.52a2.66 2.66 0 001.03-2.17 7.63 7.63 0 006.16 3.26c.28 1.1.47 3.7.47 3.7l.02-.05a10.9 10.9 0 00-.2-2.48l-1.33-6.74a4.5 4.5 0 00-5.28-3.54" fill="#ff8663"/><path d="M372.96 8.95c-.16-1.14-1-2.08-1.93-2.77-2.32-1.72-5.33-2.25-8.23-2.35a4.54 4.54 0 00-2.54.44 2.44 2.44 0 00.2-3.52c-1.06-1.04-2.81-.84-4.22-.35a15 15 0 00-9.8 12.48c-.78-.2-1.57.5-1.75 1.3-.17.79.1 1.6.43 2.35.9 2.04 2.1 3.95 3.37 5.78-.46-2.67-.65-5.58.17-8.21.2 1.24 1.68 2.08 2.84 1.62 1.17-.46 1.67-2.1.96-3.13 1.74 1.66 3.83 3.12 6.22 3.38 1.2.13 2.53-.1 3.34-.99.56-.6.81-1.48.66-2.29a7.17 7.17 0 006.24 2.42c.42 1.05.97 3.6.97 3.6s.51-2.18.93-3.25c.56.6 1.57.74 2.27.29 1.91-1.24.14-4.42-1.85-4.22 1.15-.11 1.9-1.43 1.72-2.58" fill="#05052d"/><path d="M346.77 12.93c-.03-.68-.08-1.44.01-2.12.08-.61.55-1.25.34-1.85-.08-.22-.3-.37-.54-.3-.8.22-.95 1.34-1.02 2.07-.08.95.14 1.68.74 2.4.15.17.49.03.47-.2" fill="#05052d"/><path d="M347.17 13.48c-.1-.32-.16-.58-.42-.83a2.58 2.58 0 00-1-.52c-.62-.2-1.68-.3-2.05.35-.17.29 0 .58.28.7.44.17 1-.1 1.48-.02.45.08 1.05.3 1.46.51.12.07.3-.04.25-.2" fill="#05052d"/><path d="M356.07 14.21c1.64 1.69 4.26 1.48 5.98.04.65-.54-.28-1.46-.93-.93-1.18 1-3 1.1-4.12-.04-.59-.6-1.52.33-.93.93M363.8 13.04a7.32 7.32 0 005.63.81c.82-.2.48-1.47-.35-1.26-1.6.4-3.19.16-4.6-.68-.74-.44-1.4.7-.67 1.13M371.85 13.36c.23.23.37.53.38.83.02.35.3.65.66.65.34 0 .67-.3.66-.65a2.6 2.6 0 00-.77-1.76c-.6-.6-1.53.34-.93.93M365.7 5.73c2.22.6 4.89 1.37 5.44 3.92.18.83 1.44.48 1.26-.35-.65-3.04-3.68-4.12-6.35-4.83-.82-.22-1.17 1.04-.35 1.26M357.35 8.45c.99-.2 2.02.02 2.83.64.66.51 1.6-.41.92-.93a4.9 4.9 0 00-4.1-.97c-.83.16-.48 1.43.35 1.26M351.54 14.97c.55-.69.76-1.52.54-2.38-.22-.82-1.48-.47-1.27.35.1.37.05.79-.2 1.1-.23.27-.27.66 0 .93.23.23.7.27.93 0M346.85 10.82a1.1 1.1 0 01.08-.83.67.67 0 00-.23-.9c-.3-.17-.73-.08-.9.24-.3.57-.38 1.2-.22 1.83.22.82 1.49.48 1.27-.34M344.72 14.25a5.03 5.03 0 001 3.6c.5.66 1.64 0 1.13-.67a3.95 3.95 0 01-.82-2.93c.1-.84-1.22-.84-1.3 0M357.38 1.76c.54-.1 1.06-.01 1.56.19.33.12.72-.15.81-.46.1-.38-.13-.68-.46-.81a4.09 4.09 0 00-2.26-.18c-.35.06-.55.48-.46.8.1.37.46.53.81.46M349.65 7.7c1.24-2.04 2.9-3.72 4.93-4.98.72-.44.06-1.58-.66-1.13a16.52 16.52 0 00-5.4 5.44c-.45.72.69 1.38 1.13.66" fill="#373754"/><g clip-path="url(#aj)" transform="matrix(.35278 0 0 -.35278 264.15 156.94)"><path d="M252.66 373.26a7.2 7.2 0 015.91.51 2.55 2.55 0 01.9 3.46 2.58 2.58 0 01-3.45.91c-.27-.13-.3-.16-.1-.07l-.24-.08a4.6 4.6 0 00-.46-.1c-.12 0-.75.06-.56.02a4.54 4.54 0 00-.65.22c-1.24.47-2.83-.52-3.11-1.76-.33-1.44.43-2.61 1.76-3.11" fill="#ffd9ca"/></g><g clip-path="url(#ak)" transform="matrix(.35278 0 0 -.35278 264.15 156.94)"><path d="M284.73 379.19a5.55 5.55 0 015.43 1.45c.93.95 1.02 2.65 0 3.58-1 .91-2.58 1-3.57 0a2.52 2.52 0 00-.25-.24c.3.22.32.25.1.1-.42-.25.5.13-.1-.04-.64-.17.4-.02-.1-.01-.28.01-.23 0 .16-.05l-.33.08c-1.27.35-2.8-.43-3.1-1.76-.31-1.34.4-2.74 1.76-3.11" fill="#ffd9ca"/></g><g clip-path="url(#al)" transform="matrix(.35278 0 0 -.35278 264.15 156.94)"><path d="M266.93 392.59l2.77-14.51c.3-1.6 2.74-.92 2.43.67l-2.76 14.51c-.3 1.6-2.74.92-2.44-.67" fill="#ffd9ca"/></g><g clip-path="url(#am)" transform="matrix(.35278 0 0 -.35278 264.15 156.94)"><path d="M285.03 364.53a6.12 6.12 0 013 4.04c.34 1.6-2.1 2.27-2.44.68a3.66 3.66 0 00-1.84-2.53c-1.42-.8-.14-2.98 1.28-2.19" fill="#ffd9ca"/></g><g><path d="M350.87 17.64a7.88 7.88 0 014.1.17" fill="none" stroke="#05052d" stroke-width=".6561708" stroke-linecap="round" stroke-linejoin="round" stroke-miterlimit="10"/></g><g><path d="M362.04 16.7a9.54 9.54 0 014.58-1.55" fill="none" stroke="#05052d" stroke-width=".6561708" stroke-linecap="round" stroke-linejoin="round" stroke-miterlimit="10"/></g><g><path d="M356.67 17.25l1 .56a.8.8 0 01.21.16c.1.1.13.24.16.38l1.1 5.46" fill="none" stroke="#ff8663" stroke-width=".4374472" stroke-linecap="round" stroke-linejoin="round" stroke-miterlimit="10"/></g><g><path d="M354.5 21.68c.14.7-.1 1.35-.53 1.43-.44.09-.9-.41-1.04-1.12-.14-.7.1-1.35.53-1.43.43-.09.9.42 1.04 1.12" fill="#05052d"/></g><g><path d="M365.83 19.44c.14.7-.1 1.35-.53 1.43-.43.09-.9-.42-1.04-1.12-.14-.7.1-1.35.53-1.43.44-.09.9.41 1.04 1.12" fill="#05052d"/></g><g><path d="M361.86 24.61c.63-.35 1.35-.71 2.03-.47.71.25 1.06 1.12.9 1.86-.15.73-.7 1.33-1.32 1.75-.58.4-1.24.68-1.94.72-.96.05-2.6-.66-2.37-1.89.18-.96 1.97-1.56 2.7-1.97" fill="#05052d"/></g><g><path d="M364.4 24.49c-.14-.16-.3-.28-.5-.35-.69-.24-1.41.12-2.04.47-.73.41-2.52 1-2.7 1.97-.03.17-.02.32.01.47 1.78-.79 3.47-1.74 5.23-2.56" fill="#fff"/></g><g><path d="M360.38 28.25c.4.16.82.24 1.15.22.7-.04 1.36-.32 1.94-.72a3 3 0 001.32-1.75v-.05c-1.86-.11-3.62.34-4.4 2.3" fill="#ff407b"/></g><path d="M341.18 19.27l-6.03 4.28c-.56.4-.02 1.35.55.94l6.03-4.28c.57-.4.02-1.35-.55-.94M340.85 16.31l-7.3-1.23c-.68-.12-.97.93-.28 1.05l7.29 1.23c.68.12.98-.93.29-1.05M342.7 13.97l-4.29-6.02c-.4-.57-1.34-.03-.94.55l4.29 6.02c.4.57 1.34.03.94-.55" fill="#0ff"/><g fill="#fff" fill-opacity=".39"><g clip-path="url(#an)" opacity=".8" transform="matrix(.35278 0 0 -.35278 259.75 152.83)"><path d="M404.2 354.04a18.73 18.73 0 0011.53-6.66c1.23-1.49 3.34.65 2.12 2.12a21.21 21.21 0 01-12.85 7.43c-1.9.32-2.7-2.57-.8-2.9"/></g></g><g fill="#d9d9d9"><g clip-path="url(#c)" opacity=".8" transform="matrix(-.1516 .28993 .26972 .25791 304.3 -62.07)"><path d="M39.01 262.06a23.37 23.37 0 0021.07 8.43c1.91-.22 1.9 2.78 0 3a26.1 26.1 0 01-23.19-9.31c-1.22-1.47.89-3.6 2.12-2.12"/></g></g><g fill="#d9d9d9"><g clip-path="url(#c)" opacity=".8" transform="matrix(.24532 .23808 -.16076 .35595 381.16 -82.38)"><path d="M39.01 262.06a23.37 23.37 0 0021.07 8.43c1.91-.22 1.9 2.78 0 3a26.1 26.1 0 01-23.19-9.31c-1.22-1.47.89-3.6 2.12-2.12"/></g></g><path d="M369.12 22.72c.67 3.76-2.3 8.12-7.5 9.04-5.2.93-10.65-1.94-11.32-5.7-.66-3.76 4.3-1.11 9.5-2.04 5.19-.92 8.65-5.06 9.32-1.3z" fill="#fff" stroke="#cfcfcf" stroke-width=".6667542" stroke-linecap="round"/><g fill="#e2e2e2" fill-opacity=".53"><g clip-path="url(#c)" opacity=".8" transform="matrix(-.48372 .03077 .00719 .54787 388.4 -122.98)"><path d="M48.52 261.67c2.91 2.4 6.22 3.44 9.97 3.93.88-.02.97 1.14.1 1.17-4.17-.78-7.66-1.83-10.98-4.34-.62-.61.29-1.37.9-.76"/></g></g></g></svg>