<svg xmlns="http://www.w3.org/2000/svg" viewBox="0 0 356.61282 104.3063"><g fill="#fff"><path d="M28.082138.04065c-8.1435.098-16.3176-.1918-24.4412.1536-3.6737.8345-3.7878 4.8922-3.5778 7.9015.023 30.6266-.046 61.2571.034 91.8814.3189 3.9322 4.5368 4.5825 7.6865 4.2556h25.0717V.04065h-4.7733zm21.4472 0v104.1884c15.6149-.067 31.2389.1359 46.8478-.105 6.1704.1796 9.8954-7.1647 6.7755-12.2421-3.6248-6.5409-9.7269-11.207-13.9596-17.327-5.5852-6.9036-10.8092-15.5245-9.7919-24.7504 1.4706-11.5603 9.8822-20.3678 17.1303-28.8281 3.815-4.2464 9.2472-9.394 7.2247-15.6843-1.6994-5.3623-7.9968-5.4107-12.6735-5.2515h-41.5533zM131.049038.04145c-2.66564 0-4.81211 2.14596-4.81211 4.81161v94.56479c0 2.6656 2.14647 4.8116 4.81211 4.8116h27.66652c2.66564 0 4.8116-2.146 4.8116-4.8116V37.33169h62.08613c2.66564 0 4.81159-2.14596 4.81159-4.81161V4.85306c0-2.66565-2.14595-4.81161-4.81159-4.81161h-75.36439z"/><path d="M156.958138 24.20275c-2.6592 0-4.8002 2.1406-4.8002 4.7998v12.3707c0 2.6593 2.141 4.8003 4.8002 4.8003h6.5691v-4.0421c0-2.6593 2.1405-4.7998 4.7997-4.7998h4.3057v-8.3291c0-2.6592-2.1405-4.7998-4.7997-4.7998zM257.236938.04145c-2.6656 0-4.8121 2.1459-4.8121 4.8116v94.5648c0 2.6656 2.1465 4.8116 4.8121 4.8116h27.6666c2.6656 0 4.8116-2.146 4.8116-4.8116v-62.0862h62.0861c2.6656 0 4.8116-2.1459 4.8116-4.8116v-27.667c0-2.6657-2.146-4.8116-4.8116-4.8116h-75.3644z"/><path d="M283.146038 24.20275c-2.6592 0-4.8002 2.1406-4.8002 4.7998v12.3707c0 2.6593 2.141 4.8003 4.8002 4.8003h6.5691v-4.0421c0-2.6593 2.1405-4.7998 4.7997-4.7998h4.3057v-8.3291c0-2.6592-2.1405-4.7998-4.7997-4.7998z"/></g><g fill="#ffe680"><path d="M230.424838 64.35335v35.6301c0 2.3523-1.8937 4.246-4.2459 4.246h-35.6302c-2.3523 0-4.246-1.8937-4.246-4.246v-35.6301c0-2.3524 1.8937-4.2461 4.246-4.2461h35.6302c2.3522 0 4.2459 1.8937 4.2459 4.2461zM356.612838 64.35335v35.6301c0 2.3523-1.8937 4.246-4.246 4.246h-35.6302c-2.3522 0-4.246-1.8937-4.246-4.246v-35.6301c0-2.3524 1.8938-4.2461 4.246-4.2461h35.6302c2.3523 0 4.246 1.8937 4.246 4.2461z"/></g></svg>