<svg xmlns="http://www.w3.org/2000/svg" viewBox="0 0 417.6 299.4"><g transform="matrix(1.04179 0 0 1.04179 -79.2 103.9)"><path d="M465 165H353.8a8 8 0 01-8-8v-5.2a8 8 0 018-8H465a8 8 0 018 8v5.2a8 8 0 01-8 8z" fill="#5e54ac"/><path d="M465 143.8H441a8 8 0 018 8v5.2a8 8 0 01-8 8H465a8 8 0 008-8v-5.2a8 8 0 00-8-8z" fill="#524798"/><path d="M450 143.8h-81.3a7 7 0 01-7-7v-7.2a7 7 0 017-7h81.4a7 7 0 017 7v7.2a7 7 0 01-7 7z" fill="#8078bc"/><path d="M450 122.6h-18a7 7 0 017 7v7.2a7 7 0 01-7 7h18a7 7 0 007.1-7v-7.2a7 7 0 00-7-7z" fill="#6b61b1"/><path d="M434.8 1.8H384a8.5 8.5 0 000 17h50.8a8.5 8.5 0 000-17z" fill="#5e54ac"/><path d="M434.8 18.7H420a8.5 8.5 0 000-17h14.8a8.5 8.5 0 010 17z" fill="#524798"/><path d="M446.5 18.7h-74.2c-3 0-5.3 2.4-5.3 5.3v6.4c0 3 2.4 5.3 5.3 5.3h74.2c3 0 5.3-2.4 5.3-5.3V24c0-3-2.4-5.3-5.3-5.3z" fill="#8078bc"/><path d="M446.5 35.7h-17c3 0 5.3-2.4 5.3-5.3V24c0-3-2.3-5.3-5.3-5.3h17c3 0 5.3 2.4 5.3 5.3v6.4c0 3-2.4 5.3-5.3 5.3z" fill="#6b61b1"/><path d="M439 122.6l-7.3-87H387l-7.4 87z" fill="#5e54ac"/><circle cx="357" cy="142.9" r="50.5" fill="#5e54ac" transform="matrix(.5247 0 0 .5247 222 -99.7)"/><path d="M422.7-47.6a26.5 26.5 0 01-36.2 36.2 26.5 26.5 0 1036.2-36.2zM433.7 59.8c-1.3 27.9-22.6 50-48.7 50l-4.2-.1-1 12.9H439z" fill="#524798"/><circle r="16.4" cy="-79.3" cx="308.7" fill="#f9efda"/><path d="M316.5-93.8a16.4 16.4 0 01-22.2 22.2 16.4 16.4 0 1022.2-22.2z" fill="#f6e4c1"/><path d="M332-32.2l9.8-19.5a7.7 7.7 0 00-7-11.2h-52.3a7.7 7.7 0 00-7 11.2l9.9 19.5z" fill="#f9efda"/><path d="M334.9-62.9h-10a7.7 7.7 0 016.8 11.2L322-32.2H332l9.8-19.5a7.7 7.7 0 00-7-11.2z" fill="#f6e4c1"/><path d="M334.1-15.2h-50.9a8.5 8.5 0 010-17h51a8.5 8.5 0 010 17zM334.1 18.7h-50.9a8.5 8.5 0 010-17h51a8.5 8.5 0 010 17z" fill="#f1cb86"/><path d="M334.1-32.2h-14.8a8.5 8.5 0 010 17H334a8.5 8.5 0 000-17zM334.1 1.8h-14.8a8.5 8.5 0 010 17H334a8.5 8.5 0 000-17z" fill="#ecbe6b"/><path d="M345.8 1.8h-74.2c-3 0-5.3-2.4-5.3-5.3V-10c0-3 2.4-5.3 5.3-5.3h74.2c3 0 5.3 2.4 5.3 5.3v6.4c0 2.9-2.4 5.3-5.3 5.3z" fill="#f9efda"/><path d="M345.8-15.2h-17c3 0 5.3 2.4 5.3 5.3v6.4c0 2.9-2.3 5.3-5.3 5.3h17c3 0 5.3-2.4 5.3-5.3V-10c0-3-2.4-5.3-5.3-5.3z" fill="#f6e4c1"/><path d="M369.6 165H247.8a8 8 0 01-8-8v-5.2a8 8 0 018-8h121.8a8 8 0 018 8v5.2a8 8 0 01-8 8z" fill="#eab14d"/><path d="M369.6 143.8h-23.9a8 8 0 018 8v5.2a8 8 0 01-8 8h23.9a8 8 0 008-8v-5.2a8 8 0 00-8-8z" fill="#e7a52e"/><path d="M349.3 122.6L338 88.4a74.2 74.2 0 01-3.8-23.4V18.7h-50.9V65c0 8-1.2 15.9-3.8 23.4l-11.3 34.2z" fill="#f9efda"/><path d="M354.7 143.8h-92a7 7 0 01-7-7v-7.2a7 7 0 017-7h92a7 7 0 017 7v7.2a7 7 0 01-7 7z" fill="#f1cb86"/><path d="M354.7 122.6h-18a7 7 0 017 7v7.2a7 7 0 01-7 7h18a7 7 0 007-7v-7.2a7 7 0 00-7-7z" fill="#ecbe6b"/><path d="M338 88.4A74.2 74.2 0 01334 65v-9.5c-7.4 33-29.4 57-55.4 57-2.4 0-4.7-.2-7-.6l-3.6 10.7h81.2z" fill="#f6e4c1"/><path d="M465 139.9h-4.4c.3-1 .4-2 .4-3.1v-7.2c0-6-4.9-11-11-11h-7.3l-6.8-79h10.6c5 0 9.2-4.1 9.2-9.2V24c0-5-4.1-9.2-9.2-9.2h-.1a12.4 12.4 0 00-11.5-17h-5.1a30.4 30.4 0 10-40.8 0h-5a12.4 12.4 0 00-11.6 17h-.1c-5.1 0-9.2 4.1-9.2 9.2v6.4c0 5 4.1 9.2 9.2 9.2h10.5l-6.7 79h-7.4a11 11 0 00-7 2.6 11 11 0 00-7-2.5h-2.5l-10.5-31.5A70.1 70.1 0 01338 65V22a12.4 12.4 0 007.6-16.3c5.2 0 9.3-4.1 9.3-9.2V-10c0-5-4.1-9.2-9.2-9.2h-.1a12.4 12.4 0 00-7.6-16.4l7.2-14.5A11.7 11.7 0 00335-66.9h-10.1a20.4 20.4 0 10-32.1 0h-10.2a11.7 11.7 0 00-10.4 17l7.2 14.4a12.4 12.4 0 00-7.6 16.4h-.1c-5.1 0-9.2 4.1-9.2 9.2v6.4c0 5 4.1 9.2 9.2 9.2h.1a12.3 12.3 0 007.6 16.3v43c0 7.5-1.2 15-3.6 22.2l-10.5 31.5h-2.5c-6 0-11 4.9-11 11v7c0 1.2.2 2.2.5 3.2h-4.4a12 12 0 00-12 12v5a12 12 0 0012 12H465a12 12 0 0012-12v-5a12 12 0 00-12-12zM386.8-24.7a22.6 22.6 0 1145.2 0 22.6 22.6 0 01-45.2 0zm-15.9 55V24c0-.7.6-1.3 1.4-1.3h27.9a4 4 0 100-8H384a4.6 4.6 0 010-9h50.8a4.6 4.6 0 010 9h-16.2a4 4 0 100 8h27.9c.8 0 1.4.6 1.4 1.3v6.4c0 .7-.6 1.3-1.4 1.3h-74.2c-.8 0-1.4-.6-1.4-1.3zm19.8 9.3H428l6.8 79H384zm-94.5-119a12.5 12.5 0 1125 0 12.5 12.5 0 01-25 0zm-17.5 24.2c0-2 1.7-3.8 3.8-3.8h52.4a3.8 3.8 0 013.4 5.5L329.6-36h-41.8l-8.7-17.4c-.3-.5-.4-1.1-.4-1.7zm0 31.5c0-2.5 2-4.5 4.5-4.5h51a4.6 4.6 0 010 9h-51c-2.5 0-4.5-2-4.5-4.5zm-8.5 20.2V-10c0-.8.6-1.4 1.4-1.4h74.2c.7 0 1.4.6 1.4 1.4v6.4c0 .7-.7 1.3-1.4 1.3h-74.2c-.8 0-1.4-.6-1.4-1.3zm13 9.2h51a4.6 4.6 0 010 9h-51a4.6 4.6 0 010-9zm-20.5 134.2a3 3 0 01-3-3.1v-7.2a3 3 0 013-3h32.6a4 4 0 100-8h-21.8l9.7-29a78 78 0 004-24.6V22.7h43V65a78 78 0 004 24.7l9.7 29h-30.1a4 4 0 100 7.8h40.9a3 3 0 013 3.1v7.2a3 3 0 01-3 3h-92zM369.6 161H247.8a4 4 0 01-4-4.1v-5.2a4 4 0 014-4h121.8a4 4 0 014 4v5.2a4 4 0 01-4 4zM469 157a4 4 0 01-4.1 4h-84.2c.5-1.2.7-2.6.7-4v-5.2c0-1.4-.2-2.8-.7-4h39.8a4 4 0 100-8h-51.9c-1.7 0-3-1.3-3-3v-7.2c0-1.7 1.3-3 3-3h81.4c1.7 0 3 1.3 3 3v7.2c0 1.7-1.3 3-3 3h-11a4 4 0 100 8H465a4 4 0 014 4z" fill="#222"/></g><path d="M269 273.3l-.1-.6-.1-.4v-.1l-.2-.4-21.1-41.6V93.5c0-4.2-3.4-7.7-7.6-7.7H29a7.6 7.6 0 00-7.6 7.7v136.7l-21 41.6H.3l-.1.4v.1l-.2.4v.6l-.1.3v10c0 5 4 9 9 9h251c5 0 9-4 9-9v-10-.3zM29.4 93.7h210.2v133.5H29.4zm-1.5 141.4H241l17.5 34.5h-86.5l-4.4-15.7a7.4 7.4 0 00-7.1-5.5h-52.2a7.4 7.4 0 00-7.1 5.5l-4.4 15.7H10.4zm136 34.5H105l3.7-13.3h51.4zm97.2 14c0 .6-.5 1.1-1.2 1.1H9.1c-.7 0-1.2-.5-1.2-1.1v-6H261z" fill="#222"/><path d="M239.5 90.1h-27.3c2 0 3.6 1.7 3.6 3.7v124.9c0 2.4-2 4.3-4.3 4.3H25.8v17.3h217.3V93.8c0-2-1.6-3.7-3.6-3.7z" fill="#bfcfd6"/><path d="M243.1 240.3H25.8V93.8c0-2 1.7-3.7 3.7-3.7h210c2 0 3.6 1.7 3.6 3.7z" fill="#dfeaef"/><path d="M42 212.6v-104c0-1.2 1-2.2 2.3-2.2h180.4c1.2 0 2.2 1 2.2 2.2v104c0 1.2-1 2.2-2.2 2.2H44.3c-1.2 0-2.2-1-2.2-2.2z" fill="#aaf"/><path d="M224.7 106.4h-8.9V202c0 1.2-1 2.2-2.2 2.2H42.1v8.3c0 1.2 1 2.2 2.2 2.2h180.4c1.2 0 2.2-1 2.2-2.2v-104c0-1.2-1-2.2-2.2-2.2z" fill="#8787de"/><path d="M259.5 288.3H9.5a5.1 5.1 0 01-5-5v-10h260v10c0 2.7-2.2 5-5 5z" fill="#959db0"/><path fill="#beb7c8" d="M4.4 273.2L25.8 231h217.4l21.4 42.2z"/><path style="line-height:normal;font-variant-ligatures:normal;font-variant-position:normal;font-variant-caps:normal;font-variant-numeric:normal;font-variant-alternates:normal;font-feature-settings:normal;text-indent:0;text-align:start;text-decoration-line:none;text-decoration-style:solid;text-decoration-color:#000;text-transform:none;text-orientation:mixed;white-space:normal;shape-padding:0;isolation:auto;mix-blend-mode:normal;solid-color:#000;solid-opacity:1" d="M23.7 229a2 2 0 100 4H244a2 2 0 100-4z" color="#000" font-weight="400" font-family="sans-serif" overflow="visible" fill="#222"/><path d="M243.1 231h-30.7l14.1 27.8a4.7 4.7 0 01-4.1 6.8H8.4l-4 7.7h260.2z" fill="#959db0"/><path d="M169 273.3l-5.2-18.6a3.5 3.5 0 00-3.3-2.6h-52c-1.5 0-3 1-3.3 2.6l-5.1 18.6z" fill="#dfeaef"/><path fill="#bfcfd6" d="M100 273.2h69l-2.2-7.6h-64.6z"/><path d="M227 167.1a4 4 0 00-4 4v39.8H46V171a4 4 0 10-7.9 0v41.6c0 3.3 2.8 6.1 6.2 6.1h180.4c3.4 0 6.1-2.8 6.1-6.1V171a4 4 0 00-3.9-3.9zM224.7 102.4H44.3a6.2 6.2 0 00-6.2 6.2v41.5a4 4 0 107.9 0v-39.8h177v39.8a4 4 0 107.8 0v-41.5c0-3.4-2.7-6.2-6.1-6.2z" fill="#222"/><path d="M133.3 139.3H199c2 0 3.6 1.6 3.6 3.6v31.9c0 2-1.6 3.6-3.6 3.6h-65.7c-2 0-3.7-1.6-3.7-3.6v-31.9c0-2 1.7-3.6 3.7-3.6z" fill="#ffa31a"/><g aria-label="Join" style="line-height:1.25" font-weight="700" font-size="40" font-family="sans-serif" letter-spacing="0" word-spacing="0" fill="#fff"><path d="M76.4 162.5q0 1.3-.5 2.5-.5 1.1-1.4 1.9-1 .8-2.4 1.3t-3.4.5l-2.7-.1-2.1-.3v-4h.5l1.3.4q.7.2 1.8.2 1.4 0 2.2-.4.8-.4 1-1 .4-.7.4-1.5v-10h-4.5v-3.8h9.8zM96.5 160.8q0 3.7-2.2 5.9-2.2 2.1-6.1 2.1-4 0-6.2-2.1-2.1-2.2-2.1-6 0-3.7 2.1-5.8 2.3-2.2 6.2-2.2 4 0 6.1 2.2 2.2 2.1 2.2 5.9zm-6 3.7q.5-.6.7-1.4.2-.8.2-2.3 0-1.3-.2-2.2-.2-1-.7-1.5-.4-.5-1-.8-.6-.2-1.3-.2-.7 0-1.3.2-.5.2-1 .8-.5.5-.7 1.4-.3 1-.3 2.3 0 1.3.2 2.2.3.9.7 1.4.4.6 1 .8.6.3 1.4.3.7 0 1.3-.3.6-.2 1-.7zM104.9 168.4H100v-15.2h4.9zm.1-17.4H100v-3.7h5.1zM124.7 168.4h-4.9v-7.6-1.8q-.2-1-.4-1.3-.3-.5-.8-.8-.5-.2-1.4-.2l-1.4.2q-.7.2-1.5.7v10.8h-4.8v-15.2h4.8v1.7q1.3-1 2.5-1.6 1.2-.5 2.7-.5 2.5 0 3.8 1.4 1.4 1.4 1.4 4.3z"/></g><g aria-label="KGG" style="line-height:1.25" font-weight="700" font-size="40" font-family="sans-serif" letter-spacing="0" word-spacing="0" fill="#222"><path d="M153.8 168.4h-6.4l-6-8-1.2 1.4v6.6H135v-20.2h5.2v9.1l7.2-9h6l-7.8 9.3zM174.2 167.2q-1.4.5-3.6 1-2.2.6-4.4.6-5.2 0-8-2.8-3-2.8-3-7.7 0-4.7 3-7.6 2.9-2.9 8.1-2.9 2 0 3.8.4 1.8.4 4 1.4v4.7h-.6l-1-.8-1.5-.8q-.8-.5-1.8-.8-1-.3-2.2-.3-1.4 0-2.5.4-1.2.4-2 1.3-1 .8-1.4 2-.5 1.3-.5 2.9 0 3.3 1.8 5.1 1.7 1.8 5.2 1.8H169v-4h-4v-3.8h9.3zM196.6 167.2q-1.3.5-3.5 1-2.3.6-4.5.6-5.1 0-8-2.8-3-2.8-3-7.7 0-4.7 3-7.6 3-2.9 8.2-2.9 2 0 3.8.4 1.8.4 4 1.4v4.7h-.6l-1.1-.8-1.4-.8q-.8-.5-1.9-.8-1-.3-2.2-.3-1.4 0-2.5.4t-2 1.3q-.9.8-1.4 2-.4 1.3-.4 2.9 0 3.3 1.7 5.1 1.8 1.8 5.3 1.8H191.4v-4h-4v-3.8h9.2z"/></g><path d="M407.6 288.9c0 4-3.3 7.4-7.3 7.4h-59.1c-4 0-7.4-3.3-7.4-7.4v-96c0-4 3.3-7.4 7.4-7.4h59c4.1 0 7.4 3.3 7.4 7.4z" fill="#394d5c"/><path d="M398.6 284.2h-55.5c-1 0-1.8-1-1.8-2v-82.5c0-1.1.8-2 1.8-2h55.5c1 0 1.8.9 1.8 2v82.4c0 1.2-.8 2.1-1.8 2.1z" fill="#bed8fb"/><path d="M398.5 198.3h-5.1c1 0 1.7 1 1.7 2v82.5c0 1.2-.8 2.1-1.7 2.1h5c1 0 1.9-1 1.9-2v-82.5c0-1.2-.8-2.1-1.8-2.1z" fill="#80b3ff"/><path d="M400.3 185.5H395c4.1 0 7.4 3.3 7.4 7.4v96c0 4-3.3 7.4-7.4 7.4h5.2c4 0 7.3-3.3 7.3-7.4v-96c0-4-3.3-7.4-7.3-7.4z" fill="#2c4252"/><path d="M407.6 276.1c1 0 1.7-.7 1.7-1.6v-81.6c0-5-4-9-9-9h-59.1c-5 0-9 4-9 9v96c0 5 4 9 9 9h59c5 0 9.1-4 9.1-9v-7.7a1.7 1.7 0 10-3.3 0v7.7c0 3.1-2.6 5.7-5.7 5.7h-59.1a5.7 5.7 0 01-5.7-5.7v-96c0-3.1 2.5-5.7 5.7-5.7h59c3.2 0 5.8 2.6 5.8 5.7v81.6c0 .9.7 1.6 1.6 1.6z" fill="#222"/><path d="M402 283.7V199c0-2.3-1.6-4.1-3.5-4.1H343c-2 0-3.5 1.8-3.5 4.1v7.5c0 1.2.8 2 1.7 2 1 0 1.7-.8 1.7-2V199v-.1h55.6v85H343l-.1-.2v-69.1c0-1.1-.8-2-1.7-2-1 0-1.7.9-1.7 2v69.1c0 2.3 1.6 4.2 3.5 4.2h55.5c1.9 0 3.4-1.9 3.4-4.2zM354.5 192.7a1.7 1.7 0 100-3.3H347a1.7 1.7 0 100 3.3z" fill="#222"/><g transform="matrix(.14602 0 0 .14602 294.8 204.8)"><circle cx="520" cy="247.4" r="120.1" fill="#1a1a1a"/><path d="M489.6 181.5c-10.3 0-20.6-.3-30.9.2-4.6 1-4.8 6.1-4.5 10v116.2c.4 5 5.8 5.8 9.7 5.3h31.8V181.5h-6zm27.1 0v131.7c19.8 0 39.6.2 59.3 0 7.8.1 12.5-9.2 8.6-15.6-4.6-8.2-12.3-14.2-17.7-21.9-7-8.7-13.7-19.6-12.4-31.3 1.9-14.6 12.5-25.8 21.7-36.5 4.8-5.3 11.7-11.8 9.1-19.8-2.1-6.8-10-6.8-16-6.6h-52.6z" fill="#fff"/></g><g><path d="M-79.2-78h-92c-9.7 0-17.5-7.7-17.5-17.4v-32.8c0-9.6 7.8-17.5 17.4-17.5h92.1c9.6 0 17.5 7.9 17.5 17.5v32.8c0 9.7-7.9 17.5-17.5 17.5z" fill="#a4c9ff"/><path d="M-150.1-85.3h49.7c2 0 3.7-1.7 3.7-3.7v-45.5c0-2-1.6-3.7-3.7-3.7H-150c-2 0-3.7 1.6-3.7 3.7V-89c0 2 1.6 3.7 3.7 3.7z" fill="#4671c6"/><path d="M-170.5-125.5h-2.2c-.5 0-.9.4-.9.9v7.4c0 .3.2.5.4.7l2.1 1.7c.3.3.8.3 1.1 0l2.2-1.7c.2-.2.3-.4.3-.7v-7.4c0-.5-.4-1-.9-1zM-170.5-96.6h2.1c.5 0 .9-.4.9-.9v-7.4c0-.3-.1-.5-.3-.7l-2.2-1.7a.9.9 0 00-1.1 0l-2.1 1.7c-.2.2-.4.4-.4.7v7.4c0 .5.4.9 1 .9h2zM-157.1-111v-2.2c0-.5-.4-.9-1-.9h-7.3c-.3 0-.6.1-.7.3l-1.8 2.2c-.2.3-.2.8 0 1.1l1.8 2.1c.1.2.4.4.7.4h7.4c.5 0 .9-.4.9-1v-2zM-184-111v2c0 .6.5 1 1 1h7.4c.3 0 .5-.2.7-.4l1.7-2c.3-.4.3-.9 0-1.2l-1.7-2.2a.9.9 0 00-.7-.3h-7.4c-.5 0-1 .4-1 1z" fill="#f9a7a7"/><circle r="9.3" cy="135.1" cx="229.6" fill="#f9cfcf" transform="matrix(.52917 0 0 .52917 -193 -182.5)"/><circle r="9.3" cy="117.8" cx="213.5" fill="#f9cfcf" transform="matrix(.52917 0 0 .52917 -193 -182.5)"/><circle r="9.3" cy="152.4" cx="213.6" fill="#f9cfcf" transform="matrix(.52917 0 0 .52917 -193 -182.5)"/><circle r="9.3" cy="135.1" cx="197.5" fill="#f9cfcf" transform="matrix(.52917 0 0 .52917 -193 -182.5)"/><path d="M-144.6-145.7H-163v-3.9c0-1.2 1-2.1 2.1-2.1h14.3c1.2 0 2.1 1 2.1 2.1zM-87.4-145.7h-18.5v-3.9c0-1.2 1-2.1 2-2.1h14.4c1.2 0 2.1 1 2.1 2.1z" fill="#6bdddd"/><path d="M-144.6-144.6H-163a1 1 0 01-1-1v-4c0-1.7 1.4-3.2 3.1-3.2h14.3c1.8 0 3.2 1.5 3.2 3.2v4c0 .5-.5 1-1 1zm-17.4-2.1h16.4v-2.9c0-.6-.5-1-1-1H-161a1 1 0 00-1 1zM-87.4-144.6h-18.5a1 1 0 01-1-1v-4c0-1.7 1.3-3.2 3-3.2h14.4c1.7 0 3.2 1.5 3.2 3.2v4c0 .5-.5 1-1.1 1zm-17.5-2.1h16.4v-2.9c0-.6-.4-1-1-1h-14.3a1 1 0 00-1 1z" fill="#3762cc"/><path d="M-79.2-76.9h-92a18.5 18.5 0 01-18.6-18.5v-32.8c0-10.2 8.3-18.5 18.5-18.5h92.1c10.2 0 18.5 8.3 18.5 18.5v32.8c0 10.2-8.3 18.5-18.5 18.5zm-92-67.7c-9.1 0-16.5 7.4-16.5 16.4v32.8c0 9 7.4 16.4 16.4 16.4h92.1c9 0 16.4-7.3 16.4-16.4v-32.8c0-9-7.4-16.4-16.4-16.4z" fill="#3762cc"/><path d="M-100.4-84.3H-150A4.8 4.8 0 01-155-89v-45.5c0-2.7 2.2-4.8 4.8-4.8h49.7c2.7 0 4.8 2.1 4.8 4.8V-89c0 2.6-2.1 4.7-4.8 4.7zm-49.7-52.9a2.6 2.6 0 00-2.7 2.7V-89c0 1.4 1.2 2.6 2.7 2.6h49.7c1.5 0 2.7-1.2 2.7-2.6v-45.5c0-1.5-1.2-2.7-2.7-2.7zM-170.5-113.5a2 2 0 01-1.3-.5l-2.1-1.7a2 2 0 01-.7-1.5v-7.4c0-1.1.9-2 2-2h4.2c1 0 2 .9 2 2v7.4a2 2 0 01-.8 1.5l-2.1 1.7a2 2 0 01-1.2.5zm-2-3.8l2 1.6 2-1.6v-7.2h-4v7.2zm4-7.2h.1zM-168.4-95.5h-4.3c-1 0-2-1-2-2v-7.4c0-.6.3-1.2.8-1.5l2.1-1.8a2 2 0 012.5 0l2.1 1.8c.5.3.7.9.7 1.5v7.4c0 1-.8 2-2 2zm-4.1-2.2h4v-7.1l-2-1.6-2 1.6v7.1zM-158-107h-7.4a2 2 0 01-1.5-.7l-1.8-2.1a2 2 0 010-2.5l1.8-2.1a2 2 0 011.5-.7h7.4c1 0 2 .8 2 2v4.2c0 1-1 2-2 2zm-7.4-2h7.2v-4h-7.2l-1.6 2zM-175.6-107h-7.4c-1.1 0-2-.9-2-2v-4.2c0-1 .9-2 2-2h7.4a2 2 0 011.5.8l1.7 2.1a2 2 0 010 2.5l-1.7 2.1a2 2 0 01-1.5.7zm-7.3-2h7.2l1.6-2-1.6-2h-7.2zM-71.5-105a6 6 0 110-12 6 6 0 010 12zm0-9.9a3.9 3.9 0 100 7.7 3.9 3.9 0 000-7.7zM-80-114.2a6 6 0 110-12 6 6 0 010 12zm0-9.9a3.9 3.9 0 100 7.8 3.9 3.9 0 000-7.8z" fill="#3762cc"/><path d="M-80-96a6 6 0 110-12 6 6 0 010 12zm0-9.8a3.9 3.9 0 100 7.7 3.9 3.9 0 000-7.7zM-88.4-105a6 6 0 110-12 6 6 0 010 12zm0-9.9a3.9 3.9 0 100 7.7 3.9 3.9 0 000-7.7z" fill="#3762cc"/></g><g><path d="M165.5-97.3h-9.8c-5.2 0-10-2.6-13-7l-2.2-3.3a33.8 33.8 0 00-28.2-15.1h-13a33.8 33.8 0 00-28.2 15l-2.3 3.5C66-100 61.1-97.3 56-97.3h-9.8a15.5 15.5 0 01-15.4-18l7.9-50a29.5 29.5 0 0129.3-25.1h75.8c14.7 0 27 10.5 29.3 25l7.8 50.2a15.5 15.5 0 01-15.3 17.9zm-66.2-28.2h13c12.3 0 23.7 6 30.5 16.3l2.3 3.4c2.4 3.5 6.3 5.7 10.6 5.7h9.8a12.7 12.7 0 0012.6-14.7l-7.9-50.2a26.7 26.7 0 00-26.5-22.6H68A26.7 26.7 0 0041.4-165l-7.9 50.2a12.7 12.7 0 0012.6 14.7h9.8c4.3 0 8.2-2.2 10.6-5.7l2.2-3.4a36.6 36.6 0 0130.6-16.3zm0 0" fill="#263238"/><path d="M73-141h-5.6a4.2 4.2 0 01-4.2-4.3v-7h-7a4.2 4.2 0 01-4.3-4.3v-5.6c0-2.4 1.9-4.3 4.2-4.3h7v-7c0-2.4 2-4.2 4.3-4.2h5.7c2.3 0 4.2 1.8 4.2 4.2v7h7c2.4 0 4.3 2 4.3 4.3v5.6c0 2.4-2 4.3-4.3 4.3h-7v7c0 2.3-2 4.2-4.2 4.2zm-16.9-22.6c-.8 0-1.4.6-1.4 1.4v5.6c0 .8.6 1.4 1.4 1.4H66v10c0 .7.6 1.3 1.4 1.3h5.7c.7 0 1.4-.6 1.4-1.4v-9.9h9.8c.8 0 1.5-.6 1.5-1.4v-5.6c0-.8-.7-1.4-1.5-1.4h-9.8v-10c0-.7-.7-1.3-1.4-1.3h-5.7c-.8 0-1.4.6-1.4 1.4v9.9zm0 0" fill="#263238"/><path d="M147.8-172.1a5.6 5.6 0 11-11.2 0 5.6 5.6 0 0111.2 0zm0 0" fill="#ffd740"/><path d="M142.2-165a7 7 0 110-14.2 7 7 0 010 14.2zm0-11.3a4.2 4.2 0 100 8.4 4.2 4.2 0 000-8.4zm0 0" fill="#263238"/><path d="M147.8-146.7a5.6 5.6 0 11-11.2 0 5.6 5.6 0 0111.2 0zm0 0" fill="#ffd740"/><path d="M142.2-139.6a7 7 0 110-14.2 7 7 0 010 14.2zm0-11.3a4.2 4.2 0 100 8.4 4.2 4.2 0 000-8.4zm0 0" fill="#263238"/><path d="M160.5-159.4a5.6 5.6 0 11-11.2 0 5.6 5.6 0 0111.2 0zm0 0" fill="#ffd740"/><path d="M154.9-152.3a7 7 0 110-14.2 7 7 0 010 14.2zm0-11.3a4.2 4.2 0 100 8.4 4.2 4.2 0 000-8.4zm0 0" fill="#263238"/><path d="M135.1-159.4a5.6 5.6 0 11-11.2 0 5.6 5.6 0 0111.2 0zm0 0" fill="#ffd740"/><path d="M129.5-152.3a7 7 0 110-14.2 7 7 0 010 14.2zm0-11.3a4.2 4.2 0 100 8.4 4.2 4.2 0 000-8.4zm0 0" fill="#263238"/><path d="M111.4-135.4h-11.2a2.8 2.8 0 01-2.9-2.8v-2.9c0-1.5 1.3-2.8 2.9-2.8h11.2c1.6 0 2.9 1.3 2.9 2.8v2.9c0 1.5-1.3 2.8-2.9 2.8zm0 0" fill="#ff5252"/><path d="M111.4-134h-11.2a4.2 4.2 0 01-4.3-4.2v-2.9c0-2.3 2-4.2 4.3-4.2h11.2c2.4 0 4.3 1.9 4.3 4.2v2.9c0 2.3-2 4.2-4.3 4.2zm-11.2-8.5c-.8 0-1.5.7-1.5 1.4v2.9c0 .7.7 1.4 1.5 1.4h11.2c.8 0 1.5-.7 1.5-1.4v-2.9c0-.7-.7-1.4-1.5-1.4zm0 0" fill="#263238"/><path d="M91.7-189H69v-5.7c0-1.5 1.3-2.8 2.8-2.8h17c1.5 0 2.8 1.3 2.8 2.8zm0 0" fill="#40c4ff"/><path d="M91.7-187.6H69c-.8 0-1.4-.7-1.4-1.4v-5.7c0-2.3 1.9-4.2 4.2-4.2h17c2.3 0 4.2 1.9 4.2 4.2v5.7c0 .7-.6 1.4-1.4 1.4zm-21.2-2.8h19.8v-4.3c0-.8-.7-1.4-1.4-1.4h-17c-.8 0-1.4.6-1.4 1.4zm0 0" fill="#263238"/><path d="M142.5-189h-22.6v-5.7c0-1.5 1.3-2.8 2.8-2.8h17c1.5 0 2.8 1.3 2.8 2.8zm0 0" fill="#40c4ff"/><g fill="#263238"><path d="M142.5-187.6h-22.6c-.8 0-1.4-.7-1.4-1.4v-5.7c0-2.3 1.9-4.2 4.2-4.2h17c2.3 0 4.2 1.9 4.2 4.2v5.7c0 .7-.6 1.4-1.4 1.4zm-21.2-2.8h19.8v-4.3c0-.8-.7-1.4-1.4-1.4h-17c-.8 0-1.4.6-1.4 1.4zm0 0M172.1-217.3h-11.3a1.4 1.4 0 010-2.8h11.3a1.4 1.4 0 010 2.8zm0 0"/><path d="M166.5-211.6c-.8 0-1.4-.6-1.4-1.4v-11.3a1.4 1.4 0 012.8 0v11.3c0 .8-.6 1.4-1.4 1.4zm0 0M187.6-203.1h-11.2a1.4 1.4 0 010-2.9h11.2a1.4 1.4 0 010 2.9zm0 0"/><path d="M182-197.5c-.8 0-1.4-.6-1.4-1.4v-11.3a1.4 1.4 0 012.8 0v11.3c0 .8-.6 1.4-1.4 1.4zm0 0M29.6-217.3H24a1.4 1.4 0 010-2.8h5.6a1.4 1.4 0 010 2.8zm0 0M62-217.3H35.3a1.4 1.4 0 010-2.8h26.9a1.4 1.4 0 010 2.8zm0 0M187.6-76.1H182a1.4 1.4 0 010-2.9h5.6a1.4 1.4 0 010 2.9zm0 0M176.4-76.1h-26.9a1.4 1.4 0 010-2.9h26.9a1.4 1.4 0 010 2.9zm0 0"/></g></g><g><path d="M240.8-136.4h102.6v32.5H240.8z" fill="#87796f"/><path d="M343.4-137.2H240.8c-.4 0-.8.4-.8.8v32.5c0 .5.4.8.8.8h102.6c.4 0 .7-.3.7-.8v-32.5c0-.4-.3-.8-.7-.8zm-.8 32.5h-101v-30.9h101z" fill="#3a312a"/><path d="M249-129.8h55v19.3h-55z" fill="#ed6e7a"/><path d="M304-130.6h-55c-.5 0-.8.4-.8.8v19.3c0 .5.3.8.8.8h55c.4 0 .8-.3.8-.8v-19.3c0-.4-.4-.8-.8-.8zm-.8 19.3h-53.5V-129h53.5z" fill="#3a312a"/><path d="M314.6-129.8h20v19.3h-20z" fill="#ed6e7a"/><path d="M334.7-130.6h-20.1c-.5 0-.8.4-.8.8v19.3c0 .5.3.8.8.8h20c.5 0 .9-.3.9-.8v-19.3c0-.4-.4-.8-.8-.8zm-.8 19.3h-18.5V-129h18.5z" fill="#3a312a"/><path d="M335.6-221.5H248a7.5 7.5 0 00-7.6 7.5v51.5h102.6V-214c0-4.1-3.4-7.5-7.5-7.5z" fill="#87796f"/><path d="M335.6-222.3H248a8.3 8.3 0 00-8.4 8.3v18.7a.8.8 0 101.6 0V-214c0-3.7 3-6.7 6.8-6.7h87.5c3.7 0 6.7 3 6.7 6.7v50.7h-101v-24.1a.8.8 0 10-1.6 0v24.9c0 .4.4.7.8.7h102.6c.4 0 .8-.3.8-.7V-214c0-4.6-3.7-8.3-8.3-8.3z" fill="#3a312a"/><path d="M343-162.5H240.6l-7.7 19.4h118z" fill="#87796f"/><path d="M351.5-143.4l-7.7-19.4a.8.8 0 00-.7-.5H240.5c-.3 0-.6.2-.7.5l-7.7 19.4a.8.8 0 00.7 1.1h118a.8.8 0 00.7-1zm-117.5-.5l7-17.9h101.6l7 18z" fill="#3a312a"/><path d="M232.8-143h118v6.6h-118z" fill="#87796f"/><path d="M350.8-143.9h-118c-.4 0-.8.4-.8.8v6.7c0 .4.4.8.8.8h118c.4 0 .8-.4.8-.8v-6.7c0-.4-.4-.8-.8-.8zm-.8 6.7H233.6v-5H350z" fill="#3a312a"/><path d="M333.2-215h-82.8a2.7 2.7 0 00-2.7 2.7v43.3H336v-43.3c0-1.5-1.2-2.7-2.7-2.7z" fill="#8ac3da"/><path d="M333.2-215.8H318a.8.8 0 100 1.6h15.3c1 0 2 .8 2 1.9v42.5h-86.7v-42.5c0-1 .9-2 1.9-2h59.8a.8.8 0 100-1.5h-59.8c-2 0-3.5 1.5-3.5 3.5v43.3c0 .4.4.8.8.8H336c.5 0 .8-.4.8-.8v-43.3c0-2-1.6-3.5-3.5-3.5z" fill="#3a312a"/><circle r="10.3" cy="146.7" cx="50.9" fill="#ed6e7a" transform="matrix(.52917 0 0 .52917 224 -230.4)"/><path d="M251-159a6.2 6.2 0 100 12.5 6.2 6.2 0 000-12.5zm0 10.9a4.7 4.7 0 110-9.3 4.7 4.7 0 010 9.3z" fill="#3a312a"/><circle transform="rotate(-67.5 -6.3 -205.3) scale(.52929)" cy="146.7" cx="102.4" r="10.3" fill="#d4d752"/><path d="M278.2-159a6.2 6.2 0 100 12.5 6.2 6.2 0 000-12.5zm0 10.9a4.7 4.7 0 110-9.3 4.7 4.7 0 010 9.3z" fill="#3a312a"/><circle transform="scale(.5291) rotate(-9.2 -2338.4 -2699.9)" cy="146.7" cx="153.8" r="10.3" fill="#d4d752"/><path d="M305.4-159a6.2 6.2 0 100 12.5 6.2 6.2 0 000-12.5zm0 10.9a4.7 4.7 0 110-9.3 4.7 4.7 0 010 9.3z" fill="#3a312a"/><circle r="10.3" cy="146.7" cx="205.2" fill="#ed6e7a" transform="matrix(.52917 0 0 .52917 224 -230.4)"/><path d="M332.6-159a6.2 6.2 0 100 12.5 6.2 6.2 0 000-12.5zm0 10.9a4.7 4.7 0 110-9.3 4.7 4.7 0 010 9.3z" fill="#3a312a"/><path d="M334.6-135.6v5c.5 0 .9.4.9.8v19.3c0 .5-.4.8-.8.8v5h7.9v-30.9zM342-142.3h8v5.1h-8z" fill="#6a5c52"/><path d="M251-166c-.8 0-1.5.7-1.5 1.5v10.2a1.5 1.5 0 003 0v-10.2c0-.8-.7-1.5-1.5-1.5z" fill="#f8e4c8"/><path d="M251-166.8c-1.3 0-2.3 1-2.3 2.3v10.2a2.3 2.3 0 004.6 0v-10.2c0-1.3-1-2.3-2.3-2.3zm.7 12.5a.7.7 0 01-1.4 0v-10.2a.7.7 0 011.4 0z" fill="#3a312a"/><path d="M251-173.1c-2.7 0-4.8 2-4.8 5.9 0 3.8 2.1 9 4.8 9 2.7 0 4.8-5.2 4.8-9 0-3.9-2.1-6-4.8-6z" fill="#ed6e7a"/><path d="M251-173.9c-2.8 0-5.6 2-5.6 6.7 0 3.9 2.2 9.8 5.6 9.8 3.4 0 5.6-6 5.6-9.8 0-4.6-2.8-6.7-5.6-6.7zm0 14.9c-1.9 0-4-4.4-4-8.2 0-3.1 1.5-5.1 4-5.1 2.4 0 4 2 4 5 0 4-2.1 8.3-4 8.3z" fill="#3a312a"/><path d="M332.7-166c-.9 0-1.6.7-1.6 1.5v10.2a1.5 1.5 0 003 0v-10.2c0-.8-.6-1.5-1.4-1.5z" fill="#f8e4c8"/><path d="M332.7-166.8c-1.3 0-2.3 1-2.3 2.3v10.2a2.3 2.3 0 004.6 0v-10.2c0-1.3-1-2.3-2.3-2.3zm.7 12.5a.7.7 0 01-1.5 0v-10.2a.7.7 0 011.5 0z" fill="#3a312a"/><path d="M332.7-173.1c-2.7 0-4.9 2-4.9 5.9 0 3.8 2.2 9 4.9 9 2.6 0 4.8-5.2 4.8-9 0-3.9-2.2-6-4.8-6z" fill="#ed6e7a"/><path d="M332.7-173.9c-2.8 0-5.7 2-5.7 6.7 0 3.9 2.3 9.8 5.7 9.8 3.3 0 5.6-6 5.6-9.8 0-4.6-2.8-6.7-5.6-6.7zm0 14.9c-2 0-4-4.4-4-8.2 0-3.1 1.5-5.1 4-5.1 2.4 0 4 2 4 5 0 4-2.1 8.3-4 8.3z" fill="#3a312a"/><path d="M335.6-220.7h-8c3.2 0 5.8 2.1 6.5 5 1.5.4 2.6 1.8 2.6 3.4v40.2c1 1.1 1.6 2.7 1.6 4.9 0 1.2-.2 2.5-.6 3.9h4.6V-214c0-3.7-3-6.7-6.7-6.7zM342.6-161.8H337a10.7 10.7 0 01-2 3.3l1 .5a6.2 6.2 0 012.6 6.6l3 7.5h8z" fill="#6a5c52"/></g><g><g transform="translate(170.2 170.5) scale(.2883)"><g fill="#edc963"><path d="M384.6 102c9.6 0 19 1.7 27.6 4.6v-19a15 15 0 00-15-15H369a15 15 0 00-15 15v20.1a85.3 85.3 0 0130.6-5.6zM127.4 102c10.8 0 21.1 2 30.6 5.7v-20a15 15 0 00-15-15h-28.2a15 15 0 00-15 15v19c8.6-3 18-4.6 27.6-4.6z"/><path d="M127.4 102c10.8 0 21.1 2 30.6 5.7v-20a15 15 0 00-15-15h-28.2a15 15 0 00-15 15v19c8.6-3 18-4.6 27.6-4.6z"/></g><path d="M469.4 176.1a85.7 85.7 0 00-147-47.3H189.6a85.7 85.7 0 00-147 47.3L8.6 377.5a53.1 53.1 0 00102.8 25.7l29.8-88.7A54.6 54.6 0 00213 308h85.8a54.7 54.7 0 0071.8 6.4l29.8 88.7a53.1 53.1 0 00102.8-25.7z" fill="#454d58"/><path d="M412.2 106.6v-18a85.5 85.5 0 00-58.2 1.1v18a85.3 85.3 0 0158.2-1zM158 107.7v-18a85.3 85.3 0 00-58.2-1v18a85.5 85.5 0 0158.2 1z" fill="#e7b93e"/><g fill="#3b434d"><path d="M40.8 417.3a53.1 53.1 0 01-32-40v.2a53.1 53.1 0 00102.7 25.7l6-18c-9.8 29.2-48.3 44-76.7 32.1zM503.2 377.3c-3 17.5-14.8 32.9-32 40-28.4 11.8-66.9-3-76.7-32.1l6 18a53.1 53.1 0 00102.8-25.7zM366.9 302.9a5 5 0 00-7.6-2.6 32.5 32.5 0 01-20.8 6.7c-14.9 0-28.4-6-38.2-15.5a5 5 0 00-3.5-1.4h-81.6a5 5 0 00-3.5 1.4 54.7 54.7 0 01-38.2 15.5c-9.4 0-14.6-2.4-20.8-6.7a5 5 0 00-7.5 2.6l-4 11.6a54.6 54.6 0 0071.9-6.4h85.8a54.7 54.7 0 0071.8 6.4z"/></g><circle r="23.5" cy="270.7" cx="175.4" fill="#dad8db"/><circle r="23.5" cy="270.7" cx="336.6" fill="#dad8db"/><path d="M175.4 276.2c-9.8 0-18.1-6-21.7-14.5a23.4 23.4 0 0021.7 32.5 23.5 23.5 0 0021.7-32.5 23.5 23.5 0 01-21.7 14.5zM336.6 276.2c-9.8 0-18.2-6-21.7-14.5a23.4 23.4 0 0021.7 32.5 23.5 23.5 0 0021.7-32.5 23.5 23.5 0 01-21.7 14.5z" fill="#c8c5c9"/><path d="M153.2 173.8H144v-9.2a16 16 0 10-31.9 0v9.2H103a16 16 0 100 31.8h9.2v9.2a16 16 0 1031.9 0v-9.2h9.2a16 16 0 100-31.8z" fill="#b3e59f"/><path d="M153.2 173.8H144v-9.2a16 16 0 10-31.9 0v9.2H103a16 16 0 100 31.8h9.2v9.2a16 16 0 1031.9 0v-9.2h9.2a16 16 0 100-31.8z" fill="#dad8db"/><path d="M389 138.4c-7.8 0-14.3 6.5-14.3 14.4 0 8 6.5 14.4 14.4 14.4 8 0 14.4-6.5 14.4-14.4s-6.5-14.4-14.4-14.4z" fill="#bed8fb"/><path d="M389 138.4c-7.8 0-14.3 6.5-14.3 14.4 0 8 6.5 14.4 14.4 14.4 8 0 14.4-6.5 14.4-14.4s-6.5-14.4-14.4-14.4z" fill="#b3e59f"/><path d="M389 212.2c-7.8 0-14.3 6.4-14.3 14.4 0 7.9 6.5 14.4 14.4 14.4 8 0 14.4-6.5 14.4-14.4 0-8-6.5-14.4-14.4-14.4z" fill="#bed8fb"/><path d="M440.4 189.7c0-8-6.5-14.4-14.4-14.4-8 0-14.4 6.5-14.4 14.4 0 8 6.4 14.4 14.4 14.4 7.9 0 14.4-6.5 14.4-14.4z" fill="#edc963"/><path d="M366.6 189.7c0-8-6.4-14.4-14.4-14.4-7.9 0-14.4 6.5-14.4 14.4 0 8 6.5 14.4 14.4 14.4 8 0 14.4-6.5 14.4-14.4z" fill="#df667c"/><path d="M189.6 128.8h132.8v13.4c0 11-9 20-20 20h-92.8c-11 0-20-9-20-20z" fill="#a6aec4"/><path d="M302.4 144.2h-92.8a20 20 0 01-19.4-15.4h-.6v13.4c0 11 9 20 20 20h92.8c11 0 20-9 20-20v-13.4h-.6a20 20 0 01-19.4 15.4z" fill="#959db0"/></g><g fill="#222"><path d="M220.7 239.6a9 9 0 100 17.9 9 9 0 000-18zm0 13.5a4.6 4.6 0 110-9.2 4.6 4.6 0 010 9.2zM258.3 248.5a9 9 0 1018 0 9 9 0 00-18 0zm9-4.6a4.6 4.6 0 110 9.3 4.6 4.6 0 010-9.3z"/><path d="M317.5 279l-9.7-58.2a27 27 0 00-16.5-21.1v-4c0-3.7-3-6.6-6.5-6.6h-8.2c-3.6 0-6.5 3-6.5 6.5v4.4a26.8 26.8 0 00-7.9 5.4h-36.5c-2.3-2.3-5-4.1-7.9-5.4v-4.4c0-3.6-2.9-6.5-6.5-6.5h-8.1c-3.6 0-6.5 3-6.5 6.5v4a27 27 0 00-16.5 21.2l-3.2 18.8a2.2 2.2 0 104.3.7l3.1-18.6v-.2a22.6 22.6 0 0138.2-13v2.9a8 8 0 008 8h9a2.2 2.2 0 100-4.4h-9c-2 0-3.7-1.6-3.7-3.6v-1.7h34v1.7c0 2-1.5 3.6-3.5 3.6h-9.1a2.2 2.2 0 100 4.3h9a8 8 0 008-8v-2.9a22.6 22.6 0 0138.2 13.3l9.7 58a13.1 13.1 0 01-18.4 14.2 13 13 0 01-7-7.8l-2-6a2.2 2.2 0 10-4.1 1.4l2 6A17.6 17.6 0 00307 298c7.5-3.2 11.9-11 10.5-19.1zM201 198.3v-2.7c0-1.2 1-2.1 2.2-2.1h8.1c1.2 0 2.2 1 2.2 2.1v2.9a27.1 27.1 0 00-12.5-.2zm73.4.2v-2.9c0-1.2 1-2.1 2.2-2.1h8.2c1.2 0 2.1 1 2.1 2.1v2.7a26.7 26.7 0 00-12.5.2z"/><path d="M283 272l-3.8-11.5a2.2 2.2 0 00-3.4-1 13.6 13.6 0 01-17.9-1.7c-.4-.4-1-.6-1.5-.6h-24.8c-.6 0-1.2.2-1.6.6a13.6 13.6 0 01-18 1.6 2.2 2.2 0 00-3.2 1l-8.6 25.7a13 13 0 01-7 7.8 13.1 13.1 0 01-18.4-14.2l5-30.9a2.2 2.2 0 10-4.2-.7l-5.2 30.9a17.4 17.4 0 0024.5 18.8c4.4-2 7.8-5.7 9.4-10.3l7.7-23a17.9 17.9 0 0020.5-3h23a17.9 17.9 0 0020.4 3l3 8.8a2.2 2.2 0 104.1-1.4zM207 211.1c-3.7 0-6.8 3-6.8 6.8v.5h-.5a6.8 6.8 0 000 13.5h.5v.5a6.8 6.8 0 0013.6 0v-.5h.5a6.8 6.8 0 000-13.5h-.5v-.5c0-3.8-3-6.8-6.8-6.8zm7.3 11.6a2.4 2.4 0 010 4.8h-2.7c-1.2 0-2.2 1-2.2 2.2v2.7a2.4 2.4 0 01-4.8 0v-2.7c0-1.2-1-2.2-2.2-2.2h-2.7a2.4 2.4 0 010-4.8h2.7c1.2 0 2.2-1 2.2-2.2V218a2.4 2.4 0 014.8 0v2.6c0 1.2 1 2.2 2.2 2.2zM282.4 208.1a6.3 6.3 0 100 12.7 6.3 6.3 0 000-12.7zm0 8.4a2 2 0 110-4 2 2 0 010 4zM282.4 229.4a6.3 6.3 0 100 12.7 6.3 6.3 0 000-12.7zm0 8.4a2 2 0 110-4 2 2 0 010 4zM299.4 225.1a6.3 6.3 0 10-12.7 0 6.3 6.3 0 0012.7 0zm-8.3 0a2 2 0 114 0 2 2 0 01-4 0zM265.4 225.1a6.3 6.3 0 1012.7 0 6.3 6.3 0 00-12.7 0zm8.3 0a2 2 0 11-4 0 2 2 0 014 0zM237.6 233.5a2.2 2.2 0 100-4.3H231a2.2 2.2 0 100 4.3zM256.8 229.2h-6.4a2.2 2.2 0 100 4.3h6.4a2.2 2.2 0 100-4.3z"/></g></g></svg>