<?xml version="1.0" encoding="UTF-8" standalone="no"?>
<!-- Created with Inkscape (http://www.inkscape.org/) -->

<svg
   xmlns:dc="http://purl.org/dc/elements/1.1/"
   xmlns:cc="http://creativecommons.org/ns#"
   xmlns:rdf="http://www.w3.org/1999/02/22-rdf-syntax-ns#"
   xmlns:svg="http://www.w3.org/2000/svg"
   xmlns="http://www.w3.org/2000/svg"
   xmlns:xlink="http://www.w3.org/1999/xlink"
   xmlns:sodipodi="http://sodipodi.sourceforge.net/DTD/sodipodi-0.dtd"
   xmlns:inkscape="http://www.inkscape.org/namespaces/inkscape"
   viewBox="0 0 160.97186 166.26924"
   version="1.1"
   id="svg4523"
   inkscape:version="0.92.4 (5da689c313, 2019-01-14)"
   sodipodi:docname="mascotv2.svg">
  <defs
     id="defs4517">
    <clipPath
       clipPathUnits="userSpaceOnUse"
       id="clipPath276">
      <path
         d="M 345.525,424.972 H 387.97 V 402.508 H 345.525 Z"
         id="path274"
         inkscape:connector-curvature="0" />
    </clipPath>
    <linearGradient
       inkscape:collect="always"
       xlink:href="#linearGradient4305"
       id="linearGradient4307"
       x1="284.15823"
       y1="69.92527"
       x2="256.59134"
       y2="382.82004"
       gradientUnits="userSpaceOnUse" />
    <linearGradient
       id="linearGradient4305"
       inkscape:collect="always">
      <stop
         id="stop4309"
         offset="0"
         style="stop-color:#bdceee;stop-opacity:1" />
      <stop
         id="stop4311"
         offset="1"
         style="stop-color:#ff96ca;stop-opacity:1" />
    </linearGradient>
    <clipPath
       clipPathUnits="userSpaceOnUse"
       id="clipPath20">
      <path
         d="M 0,500 H 750 V 0 H 0 Z"
         id="path18"
         inkscape:connector-curvature="0" />
    </clipPath>
    <linearGradient
       inkscape:collect="always"
       xlink:href="#linearGradient4305"
       id="linearGradient5764"
       gradientUnits="userSpaceOnUse"
       x1="284.15823"
       y1="69.92527"
       x2="256.59134"
       y2="382.82004" />
    <linearGradient
       inkscape:collect="always"
       xlink:href="#linearGradient4305"
       id="linearGradient5766"
       gradientUnits="userSpaceOnUse"
       x1="284.15823"
       y1="69.92527"
       x2="256.59134"
       y2="382.82004" />
  </defs>
  <sodipodi:namedview
     id="base"
     pagecolor="#ffffff"
     bordercolor="#666666"
     borderopacity="1.0"
     inkscape:pageopacity="0.0"
     inkscape:pageshadow="2"
     inkscape:zoom="0.7"
     inkscape:cx="269.88593"
     inkscape:cy="303.2226"
     inkscape:document-units="mm"
     inkscape:current-layer="layer1"
     showgrid="false"
     inkscape:window-width="1920"
     inkscape:window-height="1001"
     inkscape:window-x="-9"
     inkscape:window-y="-9"
     inkscape:window-maximized="1" />
  <metadata
     id="metadata4520">
    <rdf:RDF>
      <cc:Work
         rdf:about="">
        <dc:format>image/svg+xml</dc:format>
        <dc:type
           rdf:resource="http://purl.org/dc/dcmitype/StillImage" />
        <dc:title></dc:title>
      </cc:Work>
    </rdf:RDF>
  </metadata>
  <g
     inkscape:label="Layer 1"
     inkscape:groupmode="layer"
     id="layer1"
     transform="translate(-14.008113,-52.847519)">
    <g
       id="g5978">
      <g
         style="fill:url(#linearGradient4307);fill-opacity:1"
         id="g2309"
         clip-path="url(#clipPath20)"
         transform="matrix(0.35277777,0,0,-0.35277777,-7.5873685,231.11182)">
        <g
           style="fill:url(#linearGradient5766);fill-opacity:1"
           id="g2307"
           transform="translate(663.5273,183.0957)">
          <path
             sodipodi:nodetypes="cssccsssssssscsssssssssc"
             d="m -186.07695,-3.7500001 c -19.438,0 -21.095,-15.9039999 -21.095,-35.3419999 0,-35.467 -29.018,-60.736 -64.485,-60.736 h -3.558 -168.05181 -75.273 c -46.074,0 -83.772,37.697 -83.772,83.771 0,46.075 37.699,83.771 83.772,83.771 h 2.202 c 9.248,0 16.811,7.567 16.811,16.812 0,9.245 -7.563,16.813 -16.811,16.813 h -9.247 c -22.477,0 -40.868,18.389 -40.868,40.866 0,22.452 18.349,40.827 40.79,40.867 h 39.877 c 19.438,0 35.343,15.906 35.343,35.344 0,35.468 29.02,64.486 64.486,64.486 h 142.85881 c 46.075,0 83.771,-37.698 83.771,-83.771 0,-46.073 -37.696,-83.772 -83.771,-83.772 -9.248,0 -16.813,-7.567 -16.813,-16.812 0,-9.245 7.58493,-16.203114 16.813,-16.81 l 57.021,-3.75 c 53.35873,-3.50915 53.477,-81.7370001 0,-81.7370001"
             style="fill:url(#linearGradient5764);fill-opacity:1;fill-rule:evenodd;stroke:none"
             id="path2305"
             inkscape:connector-curvature="0" />
        </g>
      </g>
      <path
         inkscape:connector-curvature="0"
         id="path3049"
         style="fill:#5252b8;fill-opacity:1;fill-rule:evenodd;stroke:none;stroke-width:0.35277775"
         d="m 20.529493,219.11667 c 1.416402,0 2.575277,-1.15817 2.575277,-2.57492 v -0.21414 c 0,-1.41676 -1.158875,-2.57492 -2.575277,-2.57492 -1.41605,0 -2.574573,1.15816 -2.574573,2.57492 v 0.21414 c 0,1.41675 1.158523,2.57492 2.574573,2.57492 M 18.518307,201.73743 H 167.04437 c 2.12372,0 3.86256,1.73778 3.86256,3.86221 0,2.12337 -1.73778,3.86186 -3.86256,3.86186 h -13.02985 c -1.18074,0 -2.14594,0.9652 -2.14594,2.14559 v 8e-4 c 0,1.17898 0.9652,2.14489 2.14594,2.14489 h 4.76744 c 1.47391,0 2.68147,1.20791 2.68147,2.68146 0,1.47461 -1.20686,2.68252 -2.68147,2.68252 H 27.207928 c -1.474964,0 -2.681816,-1.2072 -2.681816,-2.68252 0,-1.47426 1.206852,-2.68146 2.681816,-2.68146 h 3.754967 c 1.180041,0 2.145594,-0.9652 2.145594,-2.14489 v -8e-4 c 0,-1.18039 -0.965553,-2.14559 -2.145594,-2.14559 H 18.518307 c -2.124428,0 -3.861506,-1.73779 -3.861506,-3.86186 0,-2.12443 1.738489,-3.86221 3.861506,-3.86221"
         sodipodi:nodetypes="csssssccsssssssssssssssssssc" />
      <g
         id="g3053"
         transform="matrix(0.35277777,0,0,-0.35277777,109.83416,115.88751)">
        <path
           d="M 0,0 C -0.182,0.19 -0.174,0.494 0.017,0.675 0.206,0.857 0.51,0.85 0.692,0.658 0.819,0.525 45.391,-45.321 -5.657,-96.37 c -0.186,-0.188 -0.489,-0.188 -0.677,0 -0.187,0.187 -0.187,0.492 0,0.68 C 44.049,-45.308 0.124,-0.132 0,0"
           style="fill:#350a3d;fill-opacity:1;fill-rule:evenodd;stroke:none"
           id="path3051"
           inkscape:connector-curvature="0" />
      </g>
      <g
         id="g3057"
         transform="matrix(0.35277777,0,0,-0.35277777,108.38996,91.242319)">
        <path
           d="m 0,0 c -23.768,-19.829 -12.19,-56.104 7.1,-75.231 22.315,-22.128 30.429,-57.532 -9.128,-84.576 -39.559,-27.045 21.807,-49.66 45.643,-19.668 23.836,29.995 32.601,102.825 30.937,120.962 -1.661,18.136 -1.015,26.061 -14.708,33.927 C 46.151,-16.717 0,0 0,0"
           style="fill:#350a3d;fill-opacity:1;fill-rule:evenodd;stroke:none"
           id="path3055"
           inkscape:connector-curvature="0" />
      </g>
      <g
         id="g3061"
         transform="matrix(0.35277777,0,0,-0.35277777,87.455176,136.34863)">
        <path
           d="m 0,0 c 0,0 -3.423,4.564 -4.12,5.262 -0.697,0.697 -5.262,0.824 -7.988,1.014 -2.726,0.191 -3.233,-2.282 -3.296,-3.297 -0.064,-1.013 -0.191,-2.282 -0.191,-2.282 0,0 -15.693,-1.299 -16.834,-1.552 -1.14,-0.254 -2.662,-4.628 -2.979,-5.516 -0.318,-0.887 0.285,-2.916 1.458,-3.011 1.173,-0.095 2.662,0.603 3.138,1.363 0.475,0.761 0.887,-0.286 0.887,-0.286 0,0 -1.204,-2.028 -1.267,-3.486 -0.064,-1.458 0.254,-2.219 1.425,-2.726 1.173,-0.507 3.012,-0.856 3.012,-0.856 0,0 0.064,-2.408 0.476,-3.296 0.412,-0.888 0.539,-1.269 2.345,-1.807 1.807,-0.539 8.178,-2.029 8.178,-2.029 z"
           style="fill:#cb6459;fill-opacity:1;fill-rule:evenodd;stroke:none"
           id="path3059"
           inkscape:connector-curvature="0" />
      </g>
      <g
         id="g3065"
         transform="matrix(0.35277777,0,0,-0.35277777,77.995264,141.90488)">
        <path
           d="m 0,0 c -0.209,0.034 -0.352,0.229 -0.317,0.437 0.032,0.209 0.227,0.35 0.435,0.318 L 3.18,0.267 C 3.386,0.234 3.528,0.039 3.497,-0.17 3.463,-0.378 3.268,-0.521 3.059,-0.486 Z"
           style="fill:#b24949;fill-opacity:1;fill-rule:evenodd;stroke:none"
           id="path3063"
           inkscape:connector-curvature="0" />
      </g>
      <g
         id="g3069"
         transform="matrix(0.35277777,0,0,-0.35277777,136.35345,190.61403)">
        <path
           d="m 0,0 c 0,0 -4.058,-31.529 -30.43,-31.529 h -29.671 c -10.903,0 -36.007,27.978 -55.28,52.322 -19.271,24.344 -28.422,41.586 -28.422,41.586 -4.662,-7.932 -54.482,-47.699 -66.144,-58.067 -2.281,-2.029 -12.192,-13.568 -13.967,-13.568 0,0 -13.186,-0.885 -23.075,5.961 0,0 3.147,13.379 3.803,14.197 29.663,37.032 62.705,78.705 79.087,95.278 16.382,16.57 33.184,7.425 71.221,-19.455 C -54.842,59.846 0,0 0,0"
           style="fill:#350a3d;fill-opacity:1;fill-rule:evenodd;stroke:none"
           id="path3067"
           inkscape:connector-curvature="0" />
      </g>
      <g
         id="g3073"
         transform="matrix(0.35277777,0,0,-0.35277777,73.87736,133.27801)">
        <path
           d="m 0,0 0.922,0.993 c 0.722,0.774 1.941,0.819 2.716,0.101 l 28.485,-26.473 c 0.773,-0.722 0.818,-1.941 0.098,-2.716 l -0.922,-0.993 c -0.722,-0.773 -1.942,-0.818 -2.716,-0.101 L 0.101,-2.716 C -0.676,-1.994 -0.719,-0.774 0,0"
           style="fill:#350a3d;fill-opacity:1;fill-rule:evenodd;stroke:none"
           id="path3071"
           inkscape:connector-curvature="0" />
      </g>
      <g
         id="g3077"
         transform="matrix(0.35277777,0,0,-0.35277777,95.324448,141.68058)">
        <path
           d="m 0,0 c 0,0 -3.473,1.591 -4.678,2.352 -1.204,0.76 -10.46,12.488 -11.664,12.995 -1.205,0.507 -9.573,1.395 -10.777,1.395 -1.204,0 -2.98,-1.141 -3.55,-2.409 -0.571,-1.269 -1.521,-4.882 -1.521,-4.882 0,0 -12.101,-0.305 -15.548,-0.39 l -3.553,3.301 c 0,0 -1.31,-0.452 -1.817,-1.18 -0.507,-0.73 -0.539,-2.916 -0.476,-4.026 0.063,-1.109 2.121,-3.836 2.692,-4.437 0.571,-0.603 1.996,-0.951 3.043,-1.11 0,0 -0.035,-2.63 2.12,-3.518 2.154,-0.888 4.785,-2.061 4.785,-2.061 0,0 0.127,-2.219 1.712,-3.233 1.585,-1.014 5.832,-4.248 5.832,-4.248 0,0 1.521,-0.602 2.536,-0.539 0,0 1.204,-2.565 3.169,-3.389 1.966,-0.824 9.065,-3.933 10.08,-4.185 1.014,-0.252 4.963,0.464 8.822,-1.766 3.856,-2.229 4.363,-2.354 4.363,-2.354 l 7.228,19.908 z"
           style="fill:#e6ad83;fill-opacity:1;fill-rule:evenodd;stroke:none"
           id="path3075"
           inkscape:connector-curvature="0" />
      </g>
      <g
         id="g3081"
         transform="matrix(0.35277777,0,0,-0.35277777,50.631915,200.73505)">
        <path
           d="m 0,0 c 0,0 -58.687,-1.4 -60.961,2.795 v 5.598 c 0,2.236 2.679,5.453 9.975,7.55 7.296,2.1 22.859,6.159 27.641,7.627 4.783,1.469 18.482,16.434 20.428,18.252 1.945,1.817 11.024,-4.056 12.969,-5.035 1.946,-0.98 0.649,-3.357 -0.325,-6.154 C 8.755,27.836 0,0 0,0"
           style="fill:#b02539;fill-opacity:1;fill-rule:evenodd;stroke:none"
           id="path3079"
           inkscape:connector-curvature="0" />
      </g>
      <g
         id="g3085"
         transform="matrix(0.35277777,0,0,-0.35277777,29.12609,201.73686)">
        <path
           d="M 0,0 H 93.878 C 94.99,0 95.9,0.518 95.9,1.152 v 3.33 c 0,0.635 -0.91,1.155 -2.022,1.155 L 0,5.637 c -1.112,0 -2.022,-0.52 -2.022,-1.155 V 1.152 C -2.022,0.518 -1.112,0 0,0"
           style="fill:#ecd8da;fill-opacity:1;fill-rule:evenodd;stroke:none"
           id="path3083"
           inkscape:connector-curvature="0" />
      </g>
      <g
         id="g3089"
         transform="matrix(0.35277777,0,0,-0.35277777,29.12609,201.73757)">
        <path
           d="m 0,0 h 31.903 c 1.112,0 2.022,0.52 2.022,1.154 v 3.33 c 0,0.635 -0.91,1.155 -2.022,1.155 H 0 c -1.113,0 -2.023,-0.52 -2.023,-1.155 V 1.154 C -2.023,0.52 -1.113,0 0,0"
           style="fill:#df9aa3;fill-opacity:1;fill-rule:evenodd;stroke:none"
           id="path3087"
           inkscape:connector-curvature="0" />
      </g>
      <g
         id="g3093"
         transform="matrix(0.35277777,0,0,-0.35277777,43.768941,193.06213)">
        <path
           d="m 0,0 c 0.324,-0.979 3.243,-5.875 1.216,-7.064 -2.027,-1.188 -8.511,-5.454 -12.159,-5.454 h -20.994 c -9.647,0 -7.419,2.903 -7.419,2.903 -1.51,-1.319 -2.151,-2.647 -2.151,-3.742 v -5.598 h 93.875 c 0,0 3.973,3.988 3.973,13.359 0,9.373 0.525,14.758 -1.056,16.262 -1.58,1.502 -2.674,0.734 -2.674,0.734 -7.296,-5.455 -16.132,-1.537 -20.754,0.629 -0.491,0.233 -0.958,0.465 -1.404,0.694 -3.748,1.933 -6.045,3.66 -9.377,2.035 C 17.348,12.939 4.216,4.896 2.108,3.637 0,2.377 -0.323,0.98 0,0"
           style="fill:#b02539;fill-opacity:1;fill-rule:evenodd;stroke:none"
           id="path3091"
           inkscape:connector-curvature="0" />
      </g>
      <g
         id="g3097"
         transform="matrix(0.35277777,0,0,-0.35277777,29.12609,198.26285)">
        <path
           d="m 0,0 v -4.213 h 93.876 c 0,0 3.972,3.988 3.972,13.359 0,9.374 0.526,14.758 -1.056,16.262 0.214,-3.004 -1.632,-6.365 -4.877,-6.365 H 73.208 c -6.862,0 -8.249,-3.17 -8.249,-3.17 0,0 -3.465,-5.92 -5.961,-10.107 C 56.501,1.58 52.344,-1.281 49.293,-1.281 H 4.152 C 2.022,-1.281 0.753,-0.684 0,0"
           style="fill:#c73048;fill-opacity:1;fill-rule:evenodd;stroke:none"
           id="path3095"
           inkscape:connector-curvature="0" />
      </g>
      <g
         id="g3101"
         transform="matrix(0.35277777,0,0,-0.35277777,46.70571,188.9232)">
        <path
           d="M 0,0 C 0.531,0.523 1.054,1.047 1.563,1.557 L 6.669,-1.734 C 7.051,-1.98 7.188,-2.436 6.975,-2.746 6.761,-3.059 6.276,-3.113 5.893,-2.865 L 1.657,-0.137 3.392,-4.445 C 3.549,-4.834 3.343,-5.217 2.935,-5.299 2.524,-5.381 2.064,-5.129 1.907,-4.74 Z m -4.076,-3.893 4.129,-2.66 c 0.382,-0.246 0.866,-0.193 1.08,0.119 0.214,0.311 0.078,0.766 -0.305,1.012 L -3.039,-2.93 C -3.386,-3.254 -3.732,-3.576 -4.076,-3.893 M -5.31,-5.008 c 0.388,0.346 0.781,0.699 1.176,1.063 l 1.684,-4.188 c 0.157,-0.388 -0.048,-0.771 -0.458,-0.853 -0.41,-0.082 -0.869,0.17 -1.025,0.558 z m 17.044,5.83 c 0.384,-0.248 0.868,-0.193 1.082,0.119 0.214,0.311 0.077,0.766 -0.306,1.012 L 6.613,5.756 6.337,6.439 5.062,5.123 5.334,4.947 l 2.415,-6 c 0.157,-0.388 0.615,-0.64 1.026,-0.558 0.409,0.082 0.615,0.465 0.458,0.853 L 7.499,3.551 Z"
           style="fill:#cf4a60;fill-opacity:1;fill-rule:evenodd;stroke:none"
           id="path3099"
           inkscape:connector-curvature="0" />
      </g>
      <g
         id="g3105"
         transform="matrix(0.35277777,0,0,-0.35277777,98.375412,142.80506)">
        <path
           d="m 0,0 -6.091,3.476 c 0,0 -1.268,0.317 -2.155,-0.127 0,0 -1.522,-15.595 -8.813,-21.492 0,0 -0.189,-1.013 0.349,-1.521 0.539,-0.506 7.071,-5.061 7.071,-5.061 0,0 2.724,-0.486 5.259,1.163 2.536,1.648 8.242,12.615 8.115,14.009 C 3.608,-8.158 0,0 0,0"
           style="fill:#d4a037;fill-opacity:1;fill-rule:evenodd;stroke:none"
           id="path3103"
           inkscape:connector-curvature="0" />
      </g>
      <g
         id="g3109"
         transform="matrix(0.35277777,0,0,-0.35277777,142.24456,190.61403)">
        <path
           d="m 0,0 c 0,0 -4.058,-31.529 -30.43,-31.529 h -29.668 c -10.904,0 -36.01,27.978 -55.283,52.322 -19.271,24.344 -28.422,41.586 -28.422,41.586 -4.662,-7.932 -54.481,-47.699 -66.143,-58.067 -2.283,-2.029 -12.193,-13.568 -13.968,-13.568 0,0 -13.186,-0.885 -23.075,5.961 0,0 3.148,13.379 3.803,14.197 29.663,37.032 62.705,78.705 79.087,95.278 16.385,16.57 33.184,7.425 71.221,-19.455 C -54.842,59.846 0,0 0,0"
           style="fill:#472055;fill-opacity:1;fill-rule:evenodd;stroke:none"
           id="path3107"
           inkscape:connector-curvature="0" />
      </g>
      <g
         id="g3113"
         transform="matrix(0.35277777,0,0,-0.35277777,121.93885,134.43625)">
        <path
           d="m 0,0 -2.607,2.211 c 0,0 -14.382,-31.119 -17.425,-48.869 -3.043,-17.752 10.396,-15.723 10.396,-15.723 0,0 9.636,5.578 9.89,12.68 C 0.507,-42.602 0,0 0,0"
           style="fill:#d4a037;fill-opacity:1;fill-rule:evenodd;stroke:none"
           id="path3111"
           inkscape:connector-curvature="0" />
      </g>
      <g
         id="g3117"
         transform="matrix(0.35277777,0,0,-0.35277777,127.13198,97.082097)">
        <path
           d="m 0,0 c 0,0 14.076,-22.263 35.287,-31.283 0,0 2.428,-15.425 -8.104,-21.989 -10.532,-6.564 -26.745,-1.246 -26.745,-1.246 l -10.692,15.726 z"
           style="fill:#e6ad83;fill-opacity:1;fill-rule:evenodd;stroke:none"
           id="path3115"
           inkscape:connector-curvature="0" />
      </g>
      <g
         id="g3121"
         transform="matrix(0.35277777,0,0,-0.35277777,124.40554,112.07723)">
        <path
           d="m 0,0 -1.688,2.483 c 1.445,5.915 3.941,16.237 3.941,16.956 0,1.015 6.72,10.651 6.72,10.651 L 14.425,29.963 14.298,8.536 Z"
           style="fill:#cb6459;fill-opacity:1;fill-rule:evenodd;stroke:none"
           id="path3119"
           inkscape:connector-curvature="0" />
      </g>
      <g
         id="g3125"
         transform="matrix(0.35277777,0,0,-0.35277777,145.51707,121.6477)">
        <path
           d="m 0,0 c 0,0 40.572,-72.128 4.058,-180.548 0,0 -3.804,-9.637 -3.297,-17.75 0.508,-8.115 -27.389,-12.424 -39.815,9.131 -12.425,21.555 -4.056,20.793 -17.75,34.232 -13.693,13.44 -35.247,29.922 -35.247,29.922 0,0 5.827,10.651 17.491,12.68 0,0 0,6.846 3.931,8.242 0,0 -6.467,23.328 -5.959,39.303 0.507,15.976 9.633,43.363 25.102,63.648 0,0 1.901,5.962 -0.508,10.527 -2.408,4.564 -2.789,6.339 -1.648,8.621 0,0 4.565,0 8.369,2.79 3.802,2.789 13.312,3.043 13.312,3.043 z"
           style="fill:#f3ce63;fill-opacity:1;fill-rule:evenodd;stroke:none"
           id="path3123"
           inkscape:connector-curvature="0" />
      </g>
      <g
         id="g3129"
         transform="matrix(0.35277777,0,0,-0.35277777,140.90545,193.93786)">
        <path
           d="m 0,0 c -8.698,0.258 -19.468,4.445 -25.981,15.75 -12.425,21.555 -4.057,20.793 -17.75,34.232 -13.694,13.44 -35.248,29.922 -35.248,29.922 0,0 5.828,10.651 17.492,12.68 0,0 0,6.846 3.93,8.242 l -0.094,0.348 30.642,-10.778 32.458,47.674 5.344,-14.631 c 0,0 -22.08,-67.529 -26.645,-81.728 C -19.998,28.812 -20.793,10.475 0,0"
           style="fill:#d4a037;fill-opacity:1;fill-rule:evenodd;stroke:none"
           id="path3127"
           inkscape:connector-curvature="0" />
      </g>
      <g
         id="g3133"
         transform="matrix(0.35277777,0,0,-0.35277777,128.36671,135.15663)">
        <path
           d="m 0,0 c -7.172,-26.087 -5.325,-54.013 -5.325,-54.013 0,0 -2.6,1.459 -2.789,-2.408 -11.605,12.955 -37.52,10.666 -61.686,34.993 -4.715,4.75 -15.215,-0.253 -15.215,-0.253 0,0 2.534,-14.074 -9.638,-24.724 0,0 -4.058,-14.707 19.525,-27.895 23.583,-13.185 48.437,-16.988 62.127,-26.625 13.693,-9.635 24.851,-7.861 32.965,0.762 8.114,8.621 35.755,69.223 32.458,92.049 C 46.951,29.764 7.174,26.084 0,0"
           style="fill:#f3ce63;fill-opacity:1;fill-rule:evenodd;stroke:none"
           id="path3131"
           inkscape:connector-curvature="0" />
      </g>
      <g
         id="g3137"
         transform="matrix(0.35277777,0,0,-0.35277777,126.50393,147.60132)">
        <path
           d="M 0,0 C 10.61,-1.477 29.946,-5.139 49.644,-13.746 48.801,-16.15 47.918,-18.555 47.01,-20.941 28.408,-12.738 10.104,-9.17 -0.24,-7.687 -0.211,-5.389 -0.14,-2.803 0,0 M 1.255,14.522 C 0.927,11.91 0.666,9.361 0.46,6.914 10.196,5.691 30.929,2.16 51.814,-7.283 c 0.8,2.498 1.545,4.969 2.219,7.388 C 32.524,9.654 11.308,13.263 1.255,14.522"
           style="fill:#ffffff;fill-opacity:1;fill-rule:evenodd;stroke:none"
           id="path3135"
           inkscape:connector-curvature="0" />
      </g>
      <g
         id="g3141"
         transform="matrix(0.35277777,0,0,-0.35277777,109.46999,91.31192)">
        <path
           d="m 0,0 c 0,0 -7.473,-6.549 -2.309,-20.397 5.162,-13.848 8.905,-19.409 3.947,-25.746 0,0 -0.634,-1.135 0.256,-1.874 0.887,-0.739 4.112,-1.998 5.956,-2.98 1.846,-0.982 8.476,-10.931 12.526,-14.026 4.049,-3.095 12.956,-0.646 20.415,8.026 7.463,8.672 13.34,29.99 10.751,38.473 C 48.953,-10.045 14.879,3.324 0,0"
           style="fill:#e6ad83;fill-opacity:1;fill-rule:evenodd;stroke:none"
           id="path3139"
           inkscape:connector-curvature="0" />
      </g>
      <g
         id="g3145"
         transform="matrix(0.35277777,0,0,-0.35277777,120.49637,98.351991)">
        <path
           d="m 0,0 c 0,0 -14.271,-5.309 -26.911,2.842 -12.639,8.15 -17.367,20.159 -6.379,30.831 10.991,10.67 36.972,24.526 59.131,8.778 C 48,26.703 37.355,2.869 70.268,-11.129 87.638,-18.517 101.212,-23.558 110.021,-33 157.453,-83.844 65.46,-158.446 33.276,-90.582 12.111,-45.951 36.282,-9.311 0,0"
           style="fill:#472055;fill-opacity:1;fill-rule:evenodd;stroke:none"
           id="path3143"
           inkscape:connector-curvature="0" />
      </g>
      <g
         id="g3149"
         transform="matrix(0.35277777,0,0,-0.35277777,56.523551,200.73505)">
        <path
           d="m 0,0 c 0,0 -58.689,-1.4 -60.963,2.795 v 5.598 c 0,2.236 2.68,5.453 9.975,7.55 7.296,2.1 22.86,6.159 27.642,7.627 4.782,1.469 18.482,16.434 20.427,18.252 1.945,1.817 11.024,-4.056 12.97,-5.035 1.945,-0.98 0.648,-3.357 -0.324,-6.154 C 8.753,27.836 0,0 0,0"
           style="fill:#cf4a60;fill-opacity:1;fill-rule:evenodd;stroke:none"
           id="path3147"
           inkscape:connector-curvature="0" />
      </g>
      <g
         id="g3153"
         transform="matrix(0.35277777,0,0,-0.35277777,35.017197,201.73686)">
        <path
           d="m 0,0 h 93.878 c 1.113,0 2.021,0.518 2.021,1.152 v 3.33 c 0,0.635 -0.908,1.155 -2.021,1.155 L 0,5.637 c -1.112,0 -2.021,-0.52 -2.021,-1.155 V 1.152 C -2.021,0.518 -1.112,0 0,0"
           style="fill:#f2dbdf;fill-opacity:1;fill-rule:evenodd;stroke:none"
           id="path3151"
           inkscape:connector-curvature="0" />
      </g>
      <g
         id="g3157"
         transform="matrix(0.35277777,0,0,-0.35277777,35.017197,201.73757)">
        <path
           d="m 0,0 h 31.903 c 1.114,0 2.022,0.52 2.022,1.154 v 3.33 c 0,0.635 -0.908,1.155 -2.022,1.155 H 0 c -1.113,0 -2.022,-0.52 -2.022,-1.155 V 1.154 C -2.022,0.52 -1.113,0 0,0"
           style="fill:#ffffff;fill-opacity:1;fill-rule:evenodd;stroke:none"
           id="path3155"
           inkscape:connector-curvature="0" />
      </g>
      <g
         id="g3161"
         transform="matrix(0.35277777,0,0,-0.35277777,49.660577,193.06213)">
        <path
           d="m 0,0 c 0.323,-0.979 3.241,-5.875 1.215,-7.064 -2.026,-1.188 -8.512,-5.454 -12.16,-5.454 h -20.994 c -9.646,0 -7.418,2.903 -7.418,2.903 -1.51,-1.319 -2.152,-2.647 -2.152,-3.742 v -5.598 h 93.876 c 0,0 3.972,3.988 3.972,13.359 0,9.373 0.527,14.758 -1.053,16.262 C 53.704,12.168 52.61,11.4 52.61,11.4 45.313,5.945 36.477,9.863 31.857,12.029 c -0.491,0.233 -0.959,0.465 -1.405,0.694 -3.748,1.933 -6.044,3.66 -9.376,2.035 C 17.346,12.939 4.214,4.896 2.106,3.637 0,2.377 -0.325,0.98 0,0"
           style="fill:#c73048;fill-opacity:1;fill-rule:evenodd;stroke:none"
           id="path3159"
           inkscape:connector-curvature="0" />
      </g>
      <g
         id="g3165"
         transform="matrix(0.35277777,0,0,-0.35277777,35.017197,198.26285)">
        <path
           d="m 0,0 v -4.213 h 93.875 c 0,0 3.973,3.988 3.973,13.359 0,9.374 0.527,14.758 -1.054,16.262 0.211,-3.004 -1.634,-6.365 -4.878,-6.365 H 73.208 c -6.862,0 -8.249,-3.17 -8.249,-3.17 0,0 -3.465,-5.92 -5.961,-10.107 C 56.503,1.58 52.344,-1.281 49.293,-1.281 H 4.152 C 2.022,-1.281 0.754,-0.684 0,0"
           style="fill:#bd263e;fill-opacity:1;fill-rule:evenodd;stroke:none"
           id="path3163"
           inkscape:connector-curvature="0" />
      </g>
      <g
         id="g3169"
         transform="matrix(0.35277777,0,0,-0.35277777,52.596817,188.9232)">
        <path
           d="M 0,0 C 0.532,0.523 1.055,1.047 1.563,1.557 L 6.669,-1.734 C 7.052,-1.98 7.188,-2.436 6.976,-2.746 6.761,-3.059 6.277,-3.113 5.893,-2.865 L 1.659,-0.137 3.393,-4.445 C 3.548,-4.834 3.344,-5.217 2.935,-5.299 2.524,-5.381 2.065,-5.129 1.907,-4.74 Z m -4.076,-3.893 4.129,-2.66 c 0.383,-0.246 0.867,-0.193 1.081,0.119 0.213,0.311 0.077,0.766 -0.305,1.012 L -3.039,-2.93 C -3.385,-3.254 -3.731,-3.576 -4.076,-3.893 M -5.31,-5.008 c 0.389,0.346 0.781,0.699 1.176,1.063 l 1.685,-4.188 c 0.156,-0.388 -0.049,-0.771 -0.458,-0.853 -0.411,-0.082 -0.87,0.17 -1.026,0.558 z m 17.044,5.83 c 0.383,-0.248 0.868,-0.193 1.082,0.119 0.214,0.311 0.077,0.766 -0.305,1.012 L 6.613,5.756 6.338,6.439 5.062,5.123 5.334,4.947 l 2.415,-6 c 0.157,-0.388 0.616,-0.64 1.026,-0.558 0.409,0.082 0.615,0.465 0.458,0.853 L 7.499,3.551 Z"
           style="fill:#ffffff;fill-opacity:1;fill-rule:evenodd;stroke:none"
           id="path3167"
           inkscape:connector-curvature="0" />
      </g>
      <g
         id="g3173"
         transform="matrix(0.35277777,0,0,-0.35277777,81.81934,136.08471)">
        <path
           d="m 0,0 c 0.029,0.209 0.22,0.354 0.429,0.327 0.211,-0.026 0.356,-0.219 0.33,-0.428 0,-0.004 -0.273,-1.93 -0.321,-2.545 -0.02,-0.281 0.019,-0.659 0.251,-0.959 0.169,-0.214 0.447,-0.4 0.888,-0.492 0.132,-0.026 0.322,-0.032 0.558,-0.01 0.716,0.063 1.754,0.375 2.705,1.072 0.942,0.694 1.793,1.777 2.126,3.384 C 7.111,1.057 7.158,1.865 7.077,2.784 7.056,2.995 7.212,3.18 7.42,3.198 7.632,3.217 7.816,3.064 7.835,2.855 7.928,1.852 7.874,0.967 7.713,0.192 7.336,-1.63 6.369,-2.86 5.291,-3.65 4.219,-4.44 3.027,-4.794 2.203,-4.868 1.892,-4.897 1.619,-4.887 1.422,-4.848 0.777,-4.713 0.354,-4.422 0.085,-4.076 -0.293,-3.59 -0.358,-3.009 -0.324,-2.586 -0.279,-2 0,-0.008 0,0"
           style="fill:#b24949;fill-opacity:1;fill-rule:evenodd;stroke:none"
           id="path3171"
           inkscape:connector-curvature="0" />
      </g>
      <g
         id="g3177"
         transform="matrix(0.35277777,0,0,-0.35277777,84.361456,136.41096)">
        <path
           d="m 0,0 c -0.206,-0.053 -0.412,0.074 -0.465,0.277 -0.05,0.206 0.074,0.415 0.28,0.465 0.002,0 1.342,0.325 1.775,2.034 C 1.644,2.982 1.852,3.104 2.056,3.054 2.261,3.001 2.386,2.792 2.333,2.589 1.786,0.431 0.006,0 0,0"
           style="fill:#b24949;fill-opacity:1;fill-rule:evenodd;stroke:none"
           id="path3175"
           inkscape:connector-curvature="0" />
      </g>
      <g
         id="g3181"
         transform="matrix(0.35277777,0,0,-0.35277777,83.969063,138.48046)">
        <path
           d="m 0,0 c -0.211,-0.003 -0.383,0.166 -0.385,0.378 -0.003,0.211 0.169,0.383 0.377,0.385 L 8.475,0.832 C 8.686,0.834 8.857,0.663 8.857,0.454 8.859,0.243 8.69,0.071 8.479,0.068 Z"
           style="fill:#cb6459;fill-opacity:1;fill-rule:evenodd;stroke:none"
           id="path3179"
           inkscape:connector-curvature="0" />
      </g>
      <g
         id="g3185"
         transform="matrix(0.35277777,0,0,-0.35277777,85.82185,138.20554)">
        <path
           d="m 0,0 c 0.197,-0.074 0.296,-0.296 0.222,-0.491 -0.077,-0.198 -0.296,-0.296 -0.494,-0.223 -0.005,0.003 -1.918,0.695 -2.512,2.753 -0.059,0.2 0.06,0.414 0.261,0.47 C -2.319,2.567 -2.108,2.451 -2.05,2.248 -1.566,0.564 -0.003,0.002 0,0"
           style="fill:#cb6459;fill-opacity:1;fill-rule:evenodd;stroke:none"
           id="path3183"
           inkscape:connector-curvature="0" />
      </g>
      <g
         id="g3189"
         transform="matrix(0.35277777,0,0,-0.35277777,78.434861,141.24719)">
        <path
           d="m 0,0 c -0.211,0.014 -0.369,0.198 -0.354,0.409 0.016,0.212 0.199,0.37 0.41,0.355 L 9.198,0.056 C 9.406,0.04 9.565,-0.146 9.549,-0.356 9.536,-0.565 9.352,-0.724 9.14,-0.708 Z"
           style="fill:#cb6459;fill-opacity:1;fill-rule:evenodd;stroke:none"
           id="path3187"
           inkscape:connector-curvature="0" />
      </g>
      <g
         id="g3193"
         transform="matrix(0.35277777,0,0,-0.35277777,80.828845,143.20504)">
        <path
           d="m 0,0 c -0.195,0.079 -0.288,0.304 -0.206,0.5 0.079,0.195 0.304,0.287 0.499,0.205 L 5.444,-1.429 C 5.64,-1.511 5.732,-1.735 5.652,-1.931 5.571,-2.126 5.347,-2.216 5.151,-2.138 Z"
           style="fill:#cb6459;fill-opacity:1;fill-rule:evenodd;stroke:none"
           id="path3191"
           inkscape:connector-curvature="0" />
      </g>
      <g
         id="g3197"
         transform="matrix(0.35277777,0,0,-0.35277777,84.441749,146.04416)">
        <path
           d="m 0,0 c -0.212,-0.008 -0.389,0.154 -0.396,0.367 -0.008,0.207 0.156,0.387 0.364,0.395 L 1.999,0.848 C 2.208,0.855 2.388,0.691 2.396,0.48 2.403,0.27 2.239,0.092 2.028,0.084 Z"
           style="fill:#cb6459;fill-opacity:1;fill-rule:evenodd;stroke:none"
           id="path3195"
           inkscape:connector-curvature="0" />
      </g>
      <g
         id="g3201"
         transform="matrix(0.35277777,0,0,-0.35277777,75.306711,134.35702)">
        <path
           d="M 0,0 0.217,0.232 C 0.386,0.414 0.674,0.425 0.856,0.256 L 7.539,-5.957 C 7.722,-6.126 7.731,-6.411 7.562,-6.594 L 7.346,-6.826 C 7.177,-7.008 6.892,-7.019 6.71,-6.85 L 0.024,-0.637 C -0.158,-0.468 -0.166,-0.183 0,0"
           style="fill:#472055;fill-opacity:1;fill-rule:evenodd;stroke:none"
           id="path3199"
           inkscape:connector-curvature="0" />
      </g>
      <g
         id="g3205"
         transform="matrix(0.35277777,0,0,-0.35277777,129.68892,183.91058)">
        <path
           d="m 0,0 c 0.251,-0.084 0.383,-0.357 0.299,-0.605 -0.088,-0.25 -0.36,-0.383 -0.608,-0.299 -1.292,0.449 -2.636,1.047 -4.034,1.824 -1.312,0.73 -2.67,1.621 -4.07,2.685 -16.905,12.868 -84.981,67.174 -85.952,67.948 -0.656,0.367 -9.137,4.935 -16.948,-0.51 -8.326,-5.803 -75.291,-80.096 -75.484,-80.309 -0.178,-0.195 -0.48,-0.213 -0.674,-0.035 -0.196,0.178 -0.211,0.479 -0.034,0.674 0.193,0.213 67.238,74.596 75.646,80.457 8.344,5.815 17.382,0.883 17.974,0.547 0.032,-0.016 0.064,-0.033 0.096,-0.057 C -93.591,72.16 -24.811,17.291 -7.834,4.365 -6.469,3.326 -5.148,2.461 -3.878,1.756 -2.527,1.004 -1.233,0.428 0,0"
           style="fill:#350a3d;fill-opacity:1;fill-rule:evenodd;stroke:none"
           id="path3203"
           inkscape:connector-curvature="0" />
      </g>
      <g
         id="g3209"
         transform="matrix(0.35277777,0,0,-0.35277777,58.913233,183.72177)">
        <path
           d="M 0,0 C -0.222,0.146 -0.283,0.441 -0.139,0.664 0.005,0.885 0.302,0.947 0.524,0.805 0.57,0.771 16.92,-9.924 21.326,-17.299 c 0.134,-0.226 0.062,-0.519 -0.165,-0.654 -0.226,-0.137 -0.519,-0.063 -0.656,0.164 C 16.216,-10.607 0.046,-0.027 0,0"
           style="fill:#350a3d;fill-opacity:1;fill-rule:evenodd;stroke:none"
           id="path3207"
           inkscape:connector-curvature="0" />
      </g>
      <g
         id="g3213"
         transform="matrix(0.35277777,0,0,-0.35277777,91.591672,168.97538)">
        <path
           d="m 0,0 c -0.104,-0.242 -0.386,-0.355 -0.626,-0.252 -0.243,0.102 -0.356,0.383 -0.254,0.625 0.006,0.016 2.409,5.404 2.409,11.199 0,0.268 0.214,0.481 0.481,0.481 0.264,0 0.478,-0.213 0.478,-0.481 C 2.488,5.58 0.005,0.016 0,0"
           style="fill:#350a3d;fill-opacity:1;fill-rule:evenodd;stroke:none"
           id="path3211"
           inkscape:connector-curvature="0" />
      </g>
      <g
         id="g3217"
         transform="matrix(0.35277777,0,0,-0.35277777,126.65379,154.14496)">
        <path
           d="M 0,0 C -0.135,2.271 -1.531,28.795 5.317,53.698 5.387,53.954 5.235,54.216 4.982,54.284 4.729,54.354 4.465,54.205 4.396,53.949 -2.129,30.227 -1.217,5.059 -0.987,0.51 -1.849,0.719 -3.188,0.654 -3.613,-1.521 -8.661,3.619 -16.02,6.283 -24.631,9.4 c -11.91,4.315 -26.237,9.504 -39.973,23.333 -4.958,4.99 -15.727,-0.142 -15.756,-0.156 -0.241,-0.113 -0.343,-0.396 -0.233,-0.637 0.114,-0.237 0.397,-0.34 0.637,-0.229 0.029,0.014 10.196,4.857 14.674,0.349 13.886,-13.98 28.323,-19.208 40.326,-23.558 8.884,-3.217 16.419,-5.945 21.311,-11.383 0.12,-0.183 1.02,-1.588 1.445,-3.455 0.058,-0.258 0.311,-0.42 0.571,-0.363 0.256,0.058 0.42,0.314 0.361,0.57 -0.412,1.817 -1.236,3.231 -1.505,3.662 0.185,2.6 1.688,2.041 2.004,1.895 0.276,-0.321 1.303,-1.559 1.522,-2.362 0.069,-0.254 0.33,-0.404 0.584,-0.336 0.256,0.069 0.404,0.332 0.336,0.586 C 1.405,-1.703 0.336,-0.393 0,0 m -90.26,7.535 c 0.064,0.258 0.322,0.412 0.578,0.348 0.256,-0.065 0.412,-0.322 0.349,-0.58 -0.011,-0.041 -3.962,-14.356 19.293,-27.36 11.811,-6.603 23.955,-10.853 34.849,-14.662 10.845,-3.797 20.455,-7.158 27.323,-11.99 6.476,-4.559 12.361,-6.529 17.604,-6.408 5.664,0.131 10.601,2.711 14.738,7.105 4.299,4.571 14.158,23.932 21.923,44.467 5.711,15.102 10.278,30.815 10.651,41.7 0.008,0.262 0.229,0.471 0.491,0.463 0.264,-0.008 0.47,-0.23 0.462,-0.494 C 57.626,29.119 53.032,13.299 47.293,-1.881 39.487,-22.518 29.534,-42.027 25.168,-46.666 c -4.311,-4.58 -9.472,-7.27 -15.413,-7.404 -5.442,-0.127 -11.522,1.896 -18.176,6.578 -6.762,4.76 -16.31,8.099 -27.085,11.869 -10.93,3.826 -23.115,8.088 -34.996,14.732 C -94.412,-7.523 -90.273,7.49 -90.26,7.535"
           style="fill:#d4a037;fill-opacity:1;fill-rule:evenodd;stroke:none"
           id="path3215"
           inkscape:connector-curvature="0" />
      </g>
      <g
         id="g3221"
         transform="matrix(0.35277777,0,0,-0.35277777,116.56484,103.64951)">
        <path
           d="m 0,0 c -3.059,-1.014 -4.718,-4.316 -3.703,-7.374 1.012,-3.059 4.313,-4.716 7.372,-3.703 3.059,1.014 4.718,4.316 3.703,7.375 C 6.358,-0.645 3.057,1.014 0,0"
           style="fill:#cb6459;fill-opacity:1;fill-rule:evenodd;stroke:none"
           id="path3219"
           inkscape:connector-curvature="0" />
      </g>
      <g
         id="g3225"
         transform="matrix(0.35277777,0,0,-0.35277777,113.61654,99.935326)">
        <path
           d="m 0,0 c -2.081,0.224 -4.363,-0.317 -5.75,-1.99 -0.319,-0.387 -0.901,-0.442 -1.286,-0.12 -0.389,0.321 -0.442,0.9 -0.122,1.289 1.724,2.081 4.749,2.999 7.38,2.635 C 0.724,1.753 1.078,1.294 1.018,0.794 0.954,0.293 0.494,-0.062 0,0"
           style="fill:#350a3d;fill-opacity:1;fill-rule:evenodd;stroke:none"
           id="path3223"
           inkscape:connector-curvature="0" />
      </g>
      <g
         id="g3229"
         transform="matrix(0.35277777,0,0,-0.35277777,113.06014,101.70267)">
        <path
           d="M 0,0 V 0 C 0.492,0.175 1.007,0.157 1.461,-0.01 1.599,0.081 1.817,0.273 1.862,0.602 1.889,0.789 2.063,0.921 2.251,0.895 2.438,0.868 2.57,0.693 2.544,0.506 2.491,0.123 2.301,-0.159 2.105,-0.354 L 2.13,-0.368 c 0.25,0.16 0.519,0.416 0.662,0.817 0.066,0.179 0.262,0.273 0.438,0.207 0.18,-0.062 0.273,-0.26 0.209,-0.439 -0.161,-0.449 -0.435,-0.772 -0.72,-1 l 0.005,-0.004 c 0.298,0.127 0.607,0.33 0.864,0.656 0.116,0.15 0.332,0.176 0.483,0.059 C 4.219,-0.189 4.245,-0.406 4.126,-0.556 3.865,-0.892 3.562,-1.126 3.255,-1.291 L 2.827,-1.515 3.693,-3.975 C 4.089,-5.097 3.495,-6.337 2.375,-6.731 1.255,-7.126 0.014,-6.533 -0.38,-5.412 l -0.937,2.657 C -1.714,-1.634 -1.119,-0.395 0,0"
           style="fill:#350a3d;fill-opacity:1;fill-rule:evenodd;stroke:none"
           id="path3227"
           inkscape:connector-curvature="0" />
      </g>
      <g
         id="g3233"
         transform="matrix(0.35277777,0,0,-0.35277777,107.11322,92.192843)">
        <path
           d="M 0,0 C -0.039,0.262 0.138,0.506 0.399,0.547 0.658,0.588 0.903,0.411 0.943,0.151 0.959,0.067 5.28,-29.072 37.072,-17.855 c 0.251,0.086 0.524,-0.044 0.611,-0.292 0.089,-0.25 -0.042,-0.524 -0.29,-0.611 C 4.507,-30.36 0.016,-0.085 0,0"
           style="fill:#472055;fill-opacity:1;fill-rule:evenodd;stroke:none"
           id="path3231"
           inkscape:connector-curvature="0" />
      </g>
      <g
         id="g3237"
         transform="matrix(0.35277777,0,0,-0.35277777,120.05367,99.307629)">
        <path
           d="M 0,0 C 0.801,16.128 22.249,2.842 10.109,-10.012 10.109,-10.012 1.432,-9.358 0,0"
           style="fill:#e6ad83;fill-opacity:1;fill-rule:evenodd;stroke:none"
           id="path3235"
           inkscape:connector-curvature="0" />
      </g>
      <g
         id="g3241"
         transform="matrix(0.35277777,0,0,-0.35277777,120.22248,99.315566)">
        <path
           d="M 0,0 C -0.014,-0.263 -0.238,-0.467 -0.502,-0.454 -0.764,-0.442 -0.97,-0.218 -0.956,0.045 -0.75,4.202 0.8,6.521 2.829,7.452 4.593,8.261 6.698,8.005 8.59,6.983 10.446,5.982 12.108,4.24 13.038,2.055 c 1.458,-3.427 1.128,-7.938 -3.061,-12.37 -0.18,-0.193 -0.484,-0.203 -0.674,-0.021 -0.193,0.181 -0.203,0.483 -0.022,0.675 3.875,4.103 4.2,8.227 2.877,11.341 C 11.318,3.659 9.815,5.236 8.138,6.141 6.498,7.024 4.701,7.26 3.225,6.584 1.503,5.794 0.185,3.74 0,0"
           style="fill:#cb6459;fill-opacity:1;fill-rule:evenodd;stroke:none"
           id="path3239"
           inkscape:connector-curvature="0" />
      </g>
      <g
         id="g3245"
         transform="matrix(0.35277777,0,0,-0.35277777,133.59706,88.686055)">
        <path
           d="M 0,0 C -0.103,0.244 0.014,0.524 0.256,0.626 0.502,0.727 0.782,0.611 0.883,0.367 0.909,0.304 10.08,-21.68 24.148,-30.474 c 4.559,-2.848 9.982,-5.394 15.389,-7.937 11.517,-5.408 22.976,-10.791 26.14,-19.051 0.093,-0.247 -0.032,-0.523 -0.278,-0.617 -0.248,-0.094 -0.525,0.03 -0.618,0.277 -3.027,7.901 -14.308,13.201 -25.648,18.528 -5.444,2.556 -10.902,5.122 -15.489,7.989 C 9.313,-22.33 0.026,-0.063 0,0"
           style="fill:#472055;fill-opacity:1;fill-rule:evenodd;stroke:none"
           id="path3243"
           inkscape:connector-curvature="0" />
      </g>
      <g
         id="g3249"
         transform="matrix(0.35277777,0,0,-0.35277777,107.57935,87.864754)">
        <path
           d="M 0,0 C 0.887,1.329 1.988,2.646 3.325,3.945 5.518,6.072 8.31,8.327 11.545,10.449 30.65,-11.063 58.742,-8.397 75.983,-3.933 76.517,-5.052 77.021,-6.18 77.51,-7.312 29.243,-25.342 8.178,-10.309 0,0"
           style="fill:#542763;fill-opacity:1;fill-rule:evenodd;stroke:none"
           id="path3247"
           inkscape:connector-curvature="0" />
      </g>
      <g
         id="g3253"
         transform="matrix(0.35277777,0,0,-0.35277777,76.007468,122.88518)">
        <path
           d="M 0,0 V 0 C 1.512,1.51 3.981,1.51 5.492,0 L 6.865,-1.373 8.239,0 c 1.508,1.51 3.981,1.51 5.491,0 1.511,-1.511 1.511,-3.981 0,-5.492 L 12.357,-6.865 6.865,-12.357 1.374,-6.865 0,-5.492 C -1.511,-3.981 -1.511,-1.511 0,0"
           style="fill:#ffffff;fill-opacity:1;fill-rule:evenodd;stroke:none"
           id="path3251"
           inkscape:connector-curvature="0" />
      </g>
      <g
         id="g3257"
         transform="matrix(0.35277777,0,0,-0.35277777,149.97501,88.660901)">
        <path
           d="m 0,0 c -2.222,-0.517 -4.479,-1.267 -6.517,-2.32 0.426,-0.506 0.872,-0.995 1.34,-1.463 C -2.52,-6.438 0.745,-8.384 4.324,-9.446 3.31,-8.18 2.491,-6.72 1.839,-5.288 1.067,-3.594 0.468,-1.806 0,0 m 27.979,-2.32 c -2.038,1.051 -4.295,1.802 -6.514,2.32 -0.468,-1.806 -1.068,-3.594 -1.839,-5.288 -0.652,-1.434 -1.474,-2.892 -2.488,-4.158 3.579,1.062 6.843,3.008 9.501,5.663 0.467,0.468 0.914,0.957 1.34,1.463 m -6.221,25.362 c 2.366,0.579 4.809,1.427 6.933,2.635 -0.629,0.831 -1.315,1.619 -2.052,2.356 -2.658,2.656 -5.922,4.602 -9.498,5.665 1.011,-1.268 1.833,-2.726 2.485,-4.158 0.94,-2.066 1.63,-4.279 2.132,-6.498 m -28.985,2.635 c 2.123,-1.208 4.565,-2.056 6.931,-2.635 0.505,2.219 1.192,4.432 2.135,6.498 0.652,1.432 1.471,2.89 2.485,4.158 C 0.745,32.635 -2.52,30.69 -5.177,28.033 -5.914,27.296 -6.598,26.508 -7.227,25.677 M 9.388,21.793 V 34.379 C 6.997,33.512 5.232,30.525 4.276,28.427 3.418,26.541 2.792,24.517 2.33,22.487 4.657,22.077 7.026,21.854 9.388,21.793 m 0,-31.921 V 1.175 C 7.127,1.116 4.863,0.91 2.631,0.533 c 0.423,-1.607 0.959,-3.2 1.648,-4.71 0.953,-2.099 2.718,-5.083 5.109,-5.951 m 2.689,11.303 v -11.303 c 2.39,0.868 4.152,3.853 5.109,5.951 0.686,1.51 1.222,3.103 1.645,4.71 -2.229,0.377 -4.496,0.583 -6.754,0.642 m 0,33.204 V 21.793 c 2.361,0.061 4.731,0.284 7.055,0.694 -0.459,2.03 -1.088,4.054 -1.946,5.94 -0.957,2.098 -2.719,5.085 -5.109,5.952 M 22.909,13.47 h 10.28 c -0.208,3.518 -1.233,6.922 -3.005,9.966 -2.417,-1.407 -5.204,-2.378 -7.912,-3.034 0.375,-2.289 0.582,-4.613 0.637,-6.932 m -3.267,6.382 C 17.148,19.407 14.607,19.169 12.077,19.106 V 13.47 h 8.146 c -0.055,2.134 -0.241,4.273 -0.581,6.382 m -17.822,0 C 1.482,17.743 1.295,15.605 1.241,13.47 h 8.147 v 5.636 C 6.854,19.169 4.316,19.407 1.82,19.852 M -11.726,13.47 h 10.279 c 0.055,2.319 0.263,4.643 0.636,6.932 -2.712,0.657 -5.501,1.63 -7.908,3.034 -1.775,-3.044 -2.801,-6.448 -3.007,-9.966 m 10.279,-2.688 h -10.279 c 0.231,-3.898 1.461,-7.648 3.593,-10.92 2.34,1.266 4.963,2.154 7.541,2.757 -0.514,2.685 -0.787,5.431 -0.855,8.163 m 10.835,0 H 1.241 C 1.305,8.23 1.559,5.663 2.039,3.155 c 2.425,0.42 4.89,0.649 7.349,0.708 z m 10.835,0 H 12.077 V 3.863 C 14.536,3.804 17,3.575 19.426,3.155 c 0.477,2.509 0.731,5.075 0.797,7.627 m 12.966,0 H 22.912 C 22.844,8.05 22.571,5.304 22.054,2.619 c 2.578,-0.603 5.201,-1.491 7.541,-2.757 2.134,3.272 3.365,7.022 3.594,10.92 M 10.732,37.31 c 6.702,0 13.07,-2.639 17.806,-7.376 4.739,-4.738 7.378,-11.108 7.378,-17.809 0,-6.701 -2.639,-13.069 -7.378,-17.807 -4.736,-4.739 -11.104,-7.378 -17.806,-7.378 -6.701,0 -13.07,2.639 -17.808,7.378 -4.738,4.738 -7.378,11.106 -7.378,17.807 0,6.701 2.64,13.071 7.378,17.809 4.738,4.737 11.107,7.376 17.808,7.376"
           style="fill:#ffffff;fill-opacity:1;fill-rule:evenodd;stroke:none"
           id="path3255"
           inkscape:connector-curvature="0" />
      </g>
      <g
         style="fill:#b8b8b8;fill-opacity:1"
         id="g3261"
         transform="matrix(0.35277777,0,0,-0.35277777,32.923778,117.70513)">
        <path
           d="m 0,0 h 5.664 c 1.363,0 2.477,1.113 2.477,2.479 v 5.664 c 0,1.363 -1.114,2.477 -2.477,2.477 L 0,10.62 c -1.365,0 -2.478,-1.114 -2.478,-2.477 V 2.479 C -2.478,1.113 -1.365,0 0,0"
           style="fill:#b8b8b8;fill-opacity:1;fill-rule:evenodd;stroke:none"
           id="path3259"
           inkscape:connector-curvature="0" />
      </g>
      <g
         style="fill:#b8b8b8;fill-opacity:1"
         id="g3265"
         transform="matrix(0.35277777,0,0,-0.35277777,39.853744,117.70513)">
        <path
           d="m 0,0 h 5.665 c 1.363,0 2.477,1.113 2.477,2.479 v 5.664 c 0,1.363 -1.114,2.477 -2.477,2.477 L 0,10.62 c -1.364,0 -2.478,-1.114 -2.478,-2.477 V 2.479 C -2.478,1.113 -1.364,0 0,0"
           style="fill:#b8b8b8;fill-opacity:1;fill-rule:evenodd;stroke:none"
           id="path3263"
           inkscape:connector-curvature="0" />
      </g>
      <g
         style="fill:#b8b8b8;fill-opacity:1"
         id="g3269"
         transform="matrix(0.35277777,0,0,-0.35277777,46.783921,117.70513)">
        <path
           d="m 0,0 h 5.665 c 1.364,0 2.479,1.113 2.479,2.479 v 5.664 c 0,1.363 -1.115,2.477 -2.479,2.477 L 0,10.62 c -1.362,0 -2.478,-1.114 -2.478,-2.477 V 2.479 C -2.478,1.113 -1.362,0 0,0"
           style="fill:#b8b8b8;fill-opacity:1;fill-rule:evenodd;stroke:none"
           id="path3267"
           inkscape:connector-curvature="0" />
      </g>
      <g
         style="fill:#b8b8b8;fill-opacity:1"
         id="g3281"
         transform="matrix(0.35277777,0,0,-0.35277777,40.104923,110.14937)">
        <path
           d="m 0,0 h 5.665 c 1.364,0 2.477,1.114 2.477,2.479 v 5.664 c 0,1.363 -1.113,2.476 -2.477,2.476 H 0 c -1.364,0 -2.478,-1.113 -2.478,-2.476 V 2.479 C -2.478,1.114 -1.364,0 0,0"
           style="fill:#b8b8b8;fill-opacity:1;fill-rule:evenodd;stroke:none"
           id="path3279"
           inkscape:connector-curvature="0" />
      </g>
      <g
         id="g3285"
         transform="matrix(0.35277777,0,0,-0.35277777,47.035064,110.14937)">
        <path
           d="m 0,0 h 5.665 c 1.364,0 2.477,1.114 2.477,2.479 v 5.664 c 0,1.363 -1.113,2.476 -2.477,2.476 H 0 c -1.363,0 -2.478,-1.113 -2.478,-2.476 V 2.479 C -2.478,1.114 -1.363,0 0,0"
           style="fill:#ffffff;fill-opacity:1;fill-rule:evenodd;stroke:none"
           id="path3283"
           inkscape:connector-curvature="0" />
      </g>
      <g
         style="fill:#b8b8b8;fill-opacity:1"
         id="g3289"
         transform="matrix(0.35277777,0,0,-0.35277777,53.96503,110.14937)">
        <path
           d="m 0,0 h 5.665 c 1.364,0 2.478,1.114 2.478,2.479 v 5.664 c 0,1.363 -1.114,2.476 -2.478,2.476 H 0 c -1.363,0 -2.476,-1.113 -2.476,-2.476 V 2.479 C -2.476,1.114 -1.363,0 0,0"
           style="fill:#b8b8b8;fill-opacity:1;fill-rule:evenodd;stroke:none"
           id="path3287"
           inkscape:connector-curvature="0" />
      </g>
      <g
         id="g3329"
         transform="matrix(0.35277777,0,0,-0.35277777,26.3631,181.3226)">
        <path
           d="m 0,0 h 5.665 c 1.363,0 2.479,1.113 2.479,2.477 v 5.666 c 0,1.363 -1.116,2.474 -2.479,2.474 H 0 c -1.361,0 -2.478,-1.111 -2.478,-2.474 V 2.477 C -2.478,1.113 -1.361,0 0,0"
           style="fill:#c7c0dd;fill-opacity:1;fill-rule:evenodd;stroke:none"
           id="path3327"
           inkscape:connector-curvature="0" />
      </g>
      <g
         id="g3333"
         transform="matrix(0.35277777,0,0,-0.35277777,33.293772,181.3226)">
        <path
           d="m 0,0 h 5.666 c 1.363,0 2.476,1.113 2.476,2.477 v 5.666 c 0,1.363 -1.113,2.474 -2.476,2.474 H 0 c -1.363,0 -2.477,-1.111 -2.477,-2.474 V 2.477 C -2.477,1.113 -1.363,0 0,0"
           style="fill:#ffffff;fill-opacity:1;fill-rule:evenodd;stroke:none"
           id="path3331"
           inkscape:connector-curvature="0" />
      </g>
      <g
         id="g3337"
         transform="matrix(0.35277777,0,0,-0.35277777,40.224266,181.3226)">
        <path
           d="m 0,0 h 5.665 c 1.362,0 2.476,1.113 2.476,2.477 v 5.666 c 0,1.363 -1.114,2.474 -2.476,2.474 H 0 c -1.364,0 -2.478,-1.111 -2.478,-2.474 V 2.477 C -2.478,1.113 -1.364,0 0,0"
           style="fill:#c7c0dd;fill-opacity:1;fill-rule:evenodd;stroke:none"
           id="path3335"
           inkscape:connector-curvature="0" />
      </g>
      <g
         id="g3341"
         transform="matrix(0.35277777,0,0,-0.35277777,26.614277,173.76684)">
        <path
           d="m 0,0 h 5.665 c 1.363,0 2.477,1.113 2.477,2.475 v 5.666 c 0,1.363 -1.114,2.478 -2.477,2.478 H 0 c -1.364,0 -2.478,-1.115 -2.478,-2.478 V 2.475 C -2.478,1.113 -1.364,0 0,0"
           style="fill:#ffffff;fill-opacity:1;fill-rule:evenodd;stroke:none"
           id="path3339"
           inkscape:connector-curvature="0" />
      </g>
      <g
         id="g3345"
         transform="matrix(0.35277777,0,0,-0.35277777,33.54442,173.76684)">
        <path
           d="m 0,0 h 5.665 c 1.364,0 2.477,1.113 2.477,2.475 v 5.666 c 0,1.363 -1.113,2.478 -2.477,2.478 H 0 c -1.363,0 -2.478,-1.115 -2.478,-2.478 V 2.475 C -2.478,1.113 -1.363,0 0,0"
           style="fill:#c7c0dd;fill-opacity:1;fill-rule:evenodd;stroke:none"
           id="path3343"
           inkscape:connector-curvature="0" />
      </g>
      <g
         id="g3349"
         transform="matrix(0.35277777,0,0,-0.35277777,26.3631,189.43924)">
        <path
           d="m 0,0 h 5.665 c 1.363,0 2.478,1.115 2.478,2.479 v 5.662 c 0,1.365 -1.115,2.478 -2.478,2.478 H 0 c -1.364,0 -2.478,-1.113 -2.478,-2.478 V 2.479 C -2.478,1.115 -1.364,0 0,0"
           style="fill:#ffffff;fill-opacity:1;fill-rule:evenodd;stroke:none"
           id="path3347"
           inkscape:connector-curvature="0" />
      </g>
      <g
         id="g3353"
         transform="matrix(0.35277777,0,0,-0.35277777,33.293772,189.43924)">
        <path
           d="m 0,0 h 5.666 c 1.363,0 2.476,1.115 2.476,2.479 v 5.662 c 0,1.365 -1.113,2.478 -2.476,2.478 H 0 c -1.363,0 -2.477,-1.113 -2.477,-2.478 V 2.479 C -2.477,1.115 -1.363,0 0,0"
           style="fill:#c7c0dd;fill-opacity:1;fill-rule:evenodd;stroke:none"
           id="path3351"
           inkscape:connector-curvature="0" />
      </g>
      <circle
         style="opacity:1;fill:#b8b8b8;fill-opacity:1;stroke:none;stroke-width:0.07937501;stroke-linecap:round;stroke-miterlimit:4;stroke-dasharray:none;stroke-opacity:1"
         id="circle4423"
         cx="142.51526"
         cy="71.640167"
         r="1.6837981" />
      <g
         id="g3399"
         transform="matrix(0.35277777,0,0,-0.35277777,-76.367759,221.79074)">
        <rect
           style="opacity:1;fill:#aaffaa;fill-opacity:1;stroke:none;stroke-width:2.08049011;stroke-linecap:round;stroke-miterlimit:4;stroke-dasharray:none;stroke-opacity:1"
           id="rect3367"
           width="67.789368"
           height="67.789368"
           x="620.97534"
           y="-431.48318"
           transform="scale(1,-1)"
           rx="10.241852" />
        <g
           id="g3397"
           transform="translate(309.185,-625.7035)">
          <g
             id="g3371"
             transform="translate(364.45369,1020.5644)">
            <path
               d="m 0,0 c -3.371,8.163 -12.523,20.228 -12.523,20.228 0,0 -21.648,-12.065 -25.02,-20.228 0,0 -2.994,-0.599 -2.484,-4.081 0.622,-4.247 4.082,-4.79 5.678,-3.371 -0.177,-4.791 3.83,-16.68 15.578,-16.857 11.748,0.177 15.755,12.066 15.578,16.857 1.596,-1.419 5.146,-0.887 5.678,3.371 C 3.018,0.178 0,0 0,0"
               style="fill:#ffae8d;fill-opacity:1;fill-rule:nonzero;stroke:none"
               id="path3369"
               inkscape:connector-curvature="0" />
          </g>
          <g
             id="g3375"
             transform="translate(357.22229,1030.6787)">
            <path
               d="m 0,0 c 0,0 -2.476,-5.855 -8.527,-10.646 -6.054,-4.791 -8.53,-3.993 -6.328,0 -5.227,-5.324 -9.905,-3.727 -7.154,2.395 -3.301,-5.057 -4.4,-3.992 -5.225,-2.129 -0.551,1.331 -3.028,0.266 -3.028,0.266 0,0 -5.185,7.483 -0.404,18.631 5.403,12.598 24.311,14.018 29.263,6.706 3.301,2.928 9.329,0.599 10.929,-11.202 1.19,-8.772 -2.295,-14.135 -2.295,-14.135 0,0 -1.877,0.532 -3.105,-1.863 C 3.338,-13.514 0,-14.106 0,0"
               style="fill:#9f857a;fill-opacity:1;fill-rule:nonzero;stroke:none"
               id="path3373"
               inkscape:connector-curvature="0" />
          </g>
          <g
             transform="translate(-20.973507,614.22414)"
             id="g3387">
            <g
               id="g3377" />
            <g
               id="g3385">
              <g
                 clip-path="url(#clipPath276)"
                 id="g3383"
                 style="opacity:0.30000299">
                <g
                   transform="translate(347.9341,406.3403)"
                   id="g3381">
                  <path
                     d="m 0,0 c 0,0 2.477,1.065 3.027,-0.266 0.826,-1.863 1.925,-2.928 5.226,2.129 -2.751,-6.121 1.927,-7.718 7.153,-2.395 -2.201,-3.992 0.275,-4.791 6.328,0 6.052,4.791 8.528,10.646 8.528,10.646 0,-14.106 3.338,-13.513 4.126,-11.977 C 35.615,0.533 37.493,0 37.493,0 c 0,0 3.485,5.363 2.295,14.136 -0.12,0.881 -0.27,1.693 -0.436,2.47 0.372,-3.77 -6.14,-5.241 -9.769,1.027 C 27.809,12.842 19.647,10.89 19.482,15.503 15.946,12.665 8.469,10.89 9.78,16.213 2.754,9.825 -0.404,18.631 -0.404,18.631 L -1.926,13.822 C -3.705,5.391 0,0 0,0"
                     style="fill:#21456f;fill-opacity:1;fill-rule:nonzero;stroke:none"
                     id="path3379"
                     inkscape:connector-curvature="0" />
                </g>
              </g>
            </g>
          </g>
          <g
             id="g3391"
             transform="translate(328.64119,1018.5244)">
            <path
               d="m 0,0 c 0,0 -2.861,0 -1.819,-3.572 0.727,-2.495 2.041,-7.363 2.573,-7.807 0.532,-0.444 0.887,0.532 0.354,2.396 -0.532,1.863 -1.398,5.145 -1.398,5.145 0,0 2.087,0.887 0.29,3.838"
               style="fill:#17324d;fill-opacity:1;fill-rule:nonzero;stroke:none"
               id="path3389"
               inkscape:connector-curvature="0" />
          </g>
          <g
             id="g3395"
             transform="translate(362.73009,1018.5244)">
            <path
               d="m 0,0 c 0,0 2.861,0 1.819,-3.572 -0.727,-2.495 -2.041,-7.363 -2.573,-7.807 -0.532,-0.444 -0.887,0.532 -0.354,2.396 0.532,1.863 1.398,5.145 1.398,5.145 0,0 -2.087,0.887 -0.29,3.838"
               style="fill:#17324d;fill-opacity:1;fill-rule:nonzero;stroke:none"
               id="path3393"
               inkscape:connector-curvature="0" />
          </g>
        </g>
      </g>
      <g
         transform="matrix(0.35277777,0,0,-0.35277777,-62.895004,231.11182)"
         id="g3421">
        <rect
           rx="10.241852"
           transform="scale(1,-1)"
           y="-476.2262"
           x="407.64999"
           height="67.789368"
           width="67.789368"
           id="rect3401"
           style="opacity:1;fill:#ffccaa;fill-opacity:1;stroke:none;stroke-width:2.08049011;stroke-linecap:round;stroke-miterlimit:4;stroke-dasharray:none;stroke-opacity:1" />
        <g
           transform="translate(297.19641,-384.27734)"
           id="g3419">
          <g
             transform="translate(163.25939,822.54254)"
             id="g3405">
            <path
               inkscape:connector-curvature="0"
               id="path3403"
               style="fill:#ffae8d;fill-opacity:1;fill-rule:nonzero;stroke:none"
               d="m 0,0 c -3.372,8.162 -8.478,23.744 -8.478,23.744 0,0 -21.825,-6.387 -29.065,-23.744 0,0 -2.994,-0.6 -2.485,-4.082 0.622,-4.246 4.082,-4.789 5.679,-3.371 -0.178,-4.791 3.83,-16.68 15.578,-16.858 11.747,0.178 15.755,12.067 15.577,16.858 1.597,-1.418 5.146,-0.887 5.679,3.371 C 3.017,0.178 0,0 0,0" />
          </g>
          <g
             transform="translate(151.76529,839.89994)"
             id="g3409">
            <path
               inkscape:connector-curvature="0"
               id="path3407"
               style="fill:#ed8b6f;fill-opacity:1;fill-rule:nonzero;stroke:none"
               d="m 0,0 c 0,0 -0.975,1.197 -3.771,-1.73 -4.577,-4.791 -8.682,-24.383 -12.924,-17.182 0,0 -2.456,-7.42 -6.278,1.287 -0.626,6.047 6.427,7.512 6.427,7.512 0,0 15.595,14.353 15.383,14.961 C -1.375,5.457 0,0 0,0" />
          </g>
          <g
             transform="translate(165.86929,826.38824)"
             id="g3413">
            <path
               inkscape:connector-curvature="0"
               id="path3411"
               style="fill:#17324d;fill-opacity:1;fill-rule:nonzero;stroke:none"
               d="M 0,0 C 5.591,23.447 -11.676,27.111 -21.521,26.818 -30.114,26.564 -47.906,23.803 -43.042,0 c -2.064,-0.756 -3.875,-2.637 -3.875,-6.916 0,-8.826 6.02,-8.494 9.801,-7.252 -0.3,3.016 0,14.195 0,14.195 0,0 -1.895,0.582 -4.019,0.389 -0.667,5.139 -2.157,22.012 19.614,22.5 C 2.125,23.445 -1.24,5.555 -1.907,0.416 -4.03,0.609 -5.925,0.027 -5.925,0.027 c 0,0 0.3,-11.179 0,-14.195 3.781,-1.242 9.8,-1.574 9.8,7.252 C 3.875,-2.637 2.064,-0.756 0,0" />
          </g>
          <g
             transform="translate(164.62949,837.90384)"
             id="g3417">
            <path
               inkscape:connector-curvature="0"
               id="path3415"
               style="fill:#784b51;fill-opacity:1;fill-rule:nonzero;stroke:none"
               d="m 0,0 c -0.92,6.789 -3.5,8.393 -5.988,9.715 1.261,0.721 4.356,3.027 2.706,4.687 -2.307,2.321 -4.791,0.369 -6.477,-2.47 0,0 0.266,5.324 -3.105,5.146 -2.856,-0.15 -2.139,-2.896 -0.577,-5.101 -5.58,3.3 -20.342,2.212 -24.886,-8.383 -4.781,-11.149 -0.536,-18.955 -0.536,-18.955 0,0 2.311,-4.502 3.026,-0.268 0.681,-1.92 3.809,-5.619 5.227,2.129 4.075,-9.879 5.55,4.779 11.445,12.971 5.138,7.136 6.301,2.525 6.301,2.525 6.033,5.5 0,-24.619 8.388,-19.221 0.617,-2.638 3.106,1.864 3.106,1.864 0,0 2.559,6.59 1.37,15.361" />
          </g>
        </g>
      </g>
      <g
         id="g3457"
         transform="matrix(0.35277777,0,0,-0.35277777,-79.407099,231.03595)">
        <rect
           style="opacity:1;fill:#eeaaff;fill-opacity:1;stroke:none;stroke-width:2.08049011;stroke-linecap:round;stroke-miterlimit:4;stroke-dasharray:none;stroke-opacity:1"
           id="rect3423"
           width="67.789368"
           height="67.789368"
           x="545.29205"
           y="-505.10107"
           transform="scale(1,-1)"
           rx="10.241852" />
        <g
           id="g3455">
          <g
             id="g3451"
             transform="translate(1147.6383,-672.8744)">
            <g
               transform="translate(-910.88125,311.35739)"
               id="g3437">
              <g
                 id="g3427"
                 transform="translate(357.71739,828.80424)">
                <path
                   d="m 0,0 c -0.995,12.869 -8.271,16.596 -8.271,16.596 0,0 -20.573,1.58 -27.813,-15.778 0,0 -5.103,0.164 -3.514,-6.283 1.028,-4.168 4.082,-4.789 5.679,-3.371 -0.178,-4.791 3.83,-16.678 15.577,-16.855 11.747,0.177 15.756,12.064 15.578,16.855 1.597,-1.418 5.576,0.391 5.622,4.682 C 2.915,1.049 0,0 0,0"
                   style="fill:#ffae8d;fill-opacity:1;fill-rule:nonzero;stroke:none"
                   id="path3425"
                   inkscape:connector-curvature="0" />
              </g>
              <g
                 id="g3431"
                 transform="translate(349.62369,834.39994)">
                <path
                   d="m 0,0 c 0,0 -5.412,-15.525 -18.854,-13.264 -0.797,0.399 0,1.891 0,1.891 0,0 -6.34,-7.959 -8.694,5.148 0.178,3.741 3.371,-5.841 6.166,-2.248 2.795,3.592 5.96,5.323 5.96,5.323 l 4.749,-3.735 5.926,8.526 c 0,0 5.323,6.787 5.19,-1.731"
                   style="fill:#ed8b6f;fill-opacity:1;fill-rule:nonzero;stroke:none"
                   id="path3429"
                   inkscape:connector-curvature="0" />
              </g>
              <g
                 id="g3435"
                 transform="translate(366.16959,846.65284)">
                <path
                   d="m 0,0 c -0.816,-7.73 -4.154,-7.711 -6.262,-6.863 -0.055,0.368 -0.115,0.742 -0.181,1.129 2.168,-0.462 4.64,0.687 6.443,5.735 z m -17.679,12.659 c -0.889,-1.295 -1.085,-2.747 -1.041,-3.941 -0.771,0.22 -1.562,0.405 -2.372,0.546 -0.241,1.059 0.018,2.678 3.413,3.395 m 3.753,2.608 c -0.208,-0.069 -0.381,-0.153 -0.572,-0.228 -1.494,0.344 -3.772,0.439 -6.663,-0.772 -4.369,-1.83 -3.998,-2.999 -2.307,-4.717 -4.666,0.333 -9.689,-0.655 -14.193,-3.172 -12.194,-6.815 -9.316,-21.914 -9.006,-23.988 0.643,0.502 2.131,0.58 2.131,0.58 2.042,-6.819 2.749,-7.783 4.878,-7.301 2.748,0.623 6.471,4.978 6.471,4.978 0,0 -2.522,-3.902 -1.28,-4.611 9.582,-2.84 17.921,11.711 17.921,11.711 6.033,-15.262 8.094,-5.596 8.094,-5.596 l 1.843,-0.412 c 0,0 1.13,2.54 0.703,8.276 6.986,-1.731 7.12,6.768 6.547,12.132 1.876,8.463 -7.841,15.315 -14.567,13.12"
                   style="fill:#17324d;fill-opacity:1;fill-rule:nonzero;stroke:none"
                   id="path3433"
                   inkscape:connector-curvature="0" />
              </g>
            </g>
            <g
               id="g3441"
               transform="translate(-561.25756,1145.7573)">
              <path
                 d="m 0,0 c 0,0 -5.412,-15.525 -18.854,-13.264 -0.797,0.399 0,1.891 0,1.891 0,0 -6.34,-7.959 -8.694,5.148 0.178,3.741 3.371,-5.841 6.166,-2.248 2.795,3.592 5.96,5.323 5.96,5.323 l 4.749,-3.735 5.926,8.526 c 0,0 5.323,6.787 5.19,-1.731"
                 style="fill:#ed8b6f;fill-opacity:1;fill-rule:nonzero;stroke:none"
                 id="path3439"
                 inkscape:connector-curvature="0" />
            </g>
            <g
               id="g3449">
              <g
                 transform="translate(-553.16387,1140.1616)"
                 id="g3445">
                <path
                   inkscape:connector-curvature="0"
                   id="path3443"
                   style="fill:#ffae8d;fill-opacity:1;fill-rule:nonzero;stroke:none"
                   d="m 0,0 c -0.995,12.869 -8.271,16.596 -8.271,16.596 0,0 -20.573,1.58 -27.813,-15.778 0,0 -5.103,0.164 -3.514,-6.283 1.028,-4.168 4.082,-4.789 5.679,-3.371 -0.178,-4.791 3.83,-16.678 15.577,-16.855 11.747,0.177 15.756,12.064 15.578,16.855 1.597,-1.418 5.576,0.391 5.622,4.682 C 2.915,1.049 0,0 0,0" />
              </g>
              <path
                 d="m -544.71166,1158.0102 c -0.816,-7.73 -4.154,-7.711 -6.262,-6.863 -0.055,0.368 -0.115,0.742 -0.181,1.129 2.168,-0.462 4.64,0.687 6.443,5.735 z m -17.679,12.659 c -0.889,-1.295 -1.085,-2.747 -1.041,-3.941 -0.771,0.22 -1.562,0.405 -2.372,0.546 -0.241,1.059 0.018,2.678 3.413,3.395 m 3.753,2.608 c -0.208,-0.069 -0.381,-0.153 -0.572,-0.228 -1.494,0.344 -3.772,0.439 -6.663,-0.772 -4.369,-1.83 -3.998,-2.999 -2.307,-4.717 -4.666,0.333 -9.689,-0.655 -14.193,-3.172 -12.194,-6.815 -9.316,-21.914 -9.006,-23.988 0.643,0.502 2.131,0.58 2.131,0.58 2.042,-6.819 2.749,-7.783 4.878,-7.301 2.748,0.623 6.471,4.978 6.471,4.978 0,0 -2.522,-3.902 -1.28,-4.611 9.582,-2.84 17.921,11.711 17.921,11.711 6.033,-15.262 8.094,-5.596 8.094,-5.596 l 1.843,-0.412 c 0,0 1.13,2.54 0.703,8.276 6.986,-1.731 7.12,6.768 6.547,12.132 1.876,8.463 -7.841,15.315 -14.567,13.12"
                 style="fill:#17324d;fill-opacity:1;fill-rule:nonzero;stroke:none"
                 id="path3447"
                 inkscape:connector-curvature="0" />
            </g>
          </g>
          <path
             inkscape:connector-curvature="0"
             id="path3453"
             d="m 558.68028,461.50845 c -0.26625,5e-4 -0.52667,-0.17016 -0.51416,-0.51416 0.3019,-7.98579 1.15554,-15.91548 2.98535,-23.68213 h 1.07812 c -1.88031,7.74687 -2.69752,15.72124 -2.99707,23.68213 -0.0135,0.342 -0.28599,0.51366 -0.55224,0.51416 z m 35.3833,-0.005 c -0.26612,-7.5e-4 -0.55044,-0.17177 -0.58594,-0.50977 -0.85447,-8.18939 -2.99591,-16.04644 -5.85205,-23.68213 h 1.14844 c 2.82842,7.64079 4.91611,15.51195 5.76855,23.68213 0.035,0.342 -0.21288,0.51077 -0.479,0.50977 z"
             style="fill:#17324d;fill-opacity:1;fill-rule:nonzero;stroke:none;stroke-width:0.99999994" />
        </g>
      </g>
      <path
         inkscape:connector-curvature="0"
         id="path3459"
         style="fill:#ffdf5a;fill-opacity:1;fill-rule:evenodd;stroke:#ffd531;stroke-width:0.07937501;stroke-miterlimit:4;stroke-dasharray:none;stroke-opacity:1"
         d="m 62.679334,90.507658 h 14.133335 c 1.764948,0 3.210279,1.444274 3.210279,3.21028 v 13.867692 c 0,1.76565 -1.445331,3.21063 -3.210279,3.21063 h -3.27801 l -2.958748,4.78402 c -0.127,0.20461 -0.332669,0.31997 -0.572911,0.31997 -0.240593,0 -0.447675,-0.11536 -0.573968,-0.31997 l -2.958042,-4.78402 h -3.791656 c -1.766004,0 -3.210629,-1.44498 -3.210629,-3.21063 V 93.717938 c 0,-1.766006 1.444625,-3.21028 3.210629,-3.21028"
         sodipodi:nodetypes="cssssccsccsssc" />
      <g
         aria-label="?"
         transform="matrix(0.55179397,0,0,0.55179397,125.65563,42.868115)"
         style="font-style:normal;font-variant:normal;font-weight:bold;font-stretch:normal;font-size:40px;line-height:1.25;font-family:sans-serif;-inkscape-font-specification:'sans-serif Bold';letter-spacing:0px;word-spacing:0px;fill:#ffffff;fill-opacity:1;stroke:none;stroke-width:1.52767622;stroke-miterlimit:4;stroke-dasharray:none;stroke-opacity:1"
         id="g3463">
        <path
           d="m -92.947266,99.600635 q 0,1.601565 -0.46875,2.890625 -0.449218,1.28906 -1.289062,2.22656 -0.820313,0.9375 -1.992188,1.50391 -1.152343,0.5664 -2.558593,0.72265 l -0.15625,3.8086 q -0.01953,0.35156 -0.566407,0.52734 -0.527344,0.17578 -1.542964,0.17578 -0.64454,0 -1.09375,-0.0195 -0.42969,-0.0391 -0.6836,-0.11719 -0.2539,-0.0781 -0.37109,-0.21484 -0.11719,-0.13672 -0.13672,-0.35156 l -0.17578,-4.60938 q -0.0195,-0.625 0.0586,-1.01562 0.0781,-0.39063 0.27344,-0.625 0.21484,-0.23438 0.52734,-0.3125 0.3125,-0.0977 0.74219,-0.0977 h 0.27344 q 1.03515,0 1.77734,-0.33203 0.761721,-0.33203 1.250002,-0.87891 0.488281,-0.54687 0.703125,-1.28906 0.234375,-0.74219 0.234375,-1.58203 0,-0.937499 -0.273438,-1.718749 -0.253906,-0.78125 -0.800781,-1.347656 -0.527344,-0.566407 -1.347653,-0.859375 -0.80078,-0.3125 -1.89453,-0.3125 -0.9961,0 -1.75782,0.195312 -0.76172,0.195313 -1.30859,0.429688 -0.54688,0.234375 -0.91797,0.429687 -0.35156,0.195313 -0.54687,0.195313 -0.13672,0 -0.25391,-0.07813 -0.11719,-0.09766 -0.19531,-0.332032 -0.0781,-0.234375 -0.13672,-0.664062 -0.0391,-0.429688 -0.0391,-1.09375 0,-0.683594 0.0586,-0.996094 0.0586,-0.3125 0.25391,-0.507812 0.19531,-0.195313 0.74218,-0.449219 0.54688,-0.273438 1.3086,-0.488281 0.76172,-0.234375 1.69922,-0.390625 0.9375,-0.15625 1.95312,-0.15625 2.304688,0 3.945313,0.644531 1.640625,0.625 2.675781,1.699219 1.054688,1.074218 1.542969,2.460937 0.488281,1.386719 0.488281,2.929688 z m -5.78125,16.738285 q 0,0.80078 -0.136718,1.34765 -0.117188,0.54688 -0.449219,0.87891 -0.3125,0.33203 -0.859377,0.46875 -0.52734,0.15625 -1.30859,0.15625 -0.82031,0 -1.34766,-0.15625 -0.52734,-0.13672 -0.85937,-0.46875 -0.3125,-0.33203 -0.44922,-0.87891 -0.11719,-0.54687 -0.11719,-1.34765 0,-0.82032 0.11719,-1.36719 0.13672,-0.56641 0.44922,-0.89844 0.33203,-0.35156 0.85937,-0.48828 0.52735,-0.15625 1.34766,-0.15625 0.78125,0 1.30859,0.15625 0.546877,0.13672 0.859377,0.48828 0.332031,0.33203 0.449219,0.89844 0.136718,0.54687 0.136718,1.36719 z"
           style="font-style:normal;font-variant:normal;font-weight:bold;font-stretch:normal;font-family:Calibri;-inkscape-font-specification:'Calibri Bold';fill:#ffffff;stroke:none;stroke-width:1.52767622;stroke-miterlimit:4;stroke-dasharray:none;stroke-opacity:1"
           id="path3461"
           inkscape:connector-curvature="0" />
      </g>
      <path
         sodipodi:nodetypes="cssssccsccsssc"
         d="m 88.371696,104.66088 h 8.397234 c 1.048637,0 1.907368,0.85811 1.907368,1.90737 v 8.23941 c 0,1.04905 -0.858731,1.90758 -1.907368,1.90758 h -1.947611 l -1.757921,2.84239 c -0.07545,0.12157 -0.197654,0.19011 -0.340391,0.19011 -0.142949,0 -0.265983,-0.0685 -0.341019,-0.19011 l -1.757503,-2.84239 h -2.252789 c -1.049264,0 -1.90758,-0.85853 -1.90758,-1.90758 v -8.23941 c 0,-1.04926 0.858316,-1.90737 1.90758,-1.90737"
         style="fill:#ffdf5a;fill-opacity:1;fill-rule:evenodd;stroke:none;stroke-width:0.20960082"
         id="path3467"
         inkscape:connector-curvature="0" />
      <g
         id="g3471"
         style="font-style:normal;font-variant:normal;font-weight:bold;font-stretch:normal;font-size:40px;line-height:1.25;font-family:sans-serif;-inkscape-font-specification:'sans-serif Bold';letter-spacing:0px;word-spacing:0px;fill:#ffffff;fill-opacity:1;stroke:none"
         transform="matrix(0.32784516,0,0,0.32784516,125.78869,76.356127)"
         aria-label="?">
        <path
           inkscape:connector-curvature="0"
           id="path3469"
           style="font-style:normal;font-variant:normal;font-weight:bold;font-stretch:normal;font-family:Calibri;-inkscape-font-specification:'Calibri Bold';fill:#ffffff"
           d="m -92.947266,99.600635 q 0,1.601565 -0.46875,2.890625 -0.449218,1.28906 -1.289062,2.22656 -0.820313,0.9375 -1.992188,1.50391 -1.152343,0.5664 -2.558593,0.72265 l -0.15625,3.8086 q -0.01953,0.35156 -0.566407,0.52734 -0.527344,0.17578 -1.542964,0.17578 -0.64454,0 -1.09375,-0.0195 -0.42969,-0.0391 -0.6836,-0.11719 -0.2539,-0.0781 -0.37109,-0.21484 -0.11719,-0.13672 -0.13672,-0.35156 l -0.17578,-4.60938 q -0.0195,-0.625 0.0586,-1.01562 0.0781,-0.39063 0.27344,-0.625 0.21484,-0.23438 0.52734,-0.3125 0.3125,-0.0977 0.74219,-0.0977 h 0.27344 q 1.03515,0 1.77734,-0.33203 0.761721,-0.33203 1.250002,-0.87891 0.488281,-0.54687 0.703125,-1.28906 0.234375,-0.74219 0.234375,-1.58203 0,-0.937499 -0.273438,-1.718749 -0.253906,-0.78125 -0.800781,-1.347656 -0.527344,-0.566407 -1.347653,-0.859375 -0.80078,-0.3125 -1.89453,-0.3125 -0.9961,0 -1.75782,0.195312 -0.76172,0.195313 -1.30859,0.429688 -0.54688,0.234375 -0.91797,0.429687 -0.35156,0.195313 -0.54687,0.195313 -0.13672,0 -0.25391,-0.07813 -0.11719,-0.09766 -0.19531,-0.332032 -0.0781,-0.234375 -0.13672,-0.664062 -0.0391,-0.429688 -0.0391,-1.09375 0,-0.683594 0.0586,-0.996094 0.0586,-0.3125 0.25391,-0.507812 0.19531,-0.195313 0.74218,-0.449219 0.54688,-0.273438 1.3086,-0.488281 0.76172,-0.234375 1.69922,-0.390625 0.9375,-0.15625 1.95312,-0.15625 2.304688,0 3.945313,0.644531 1.640625,0.625 2.675781,1.699219 1.054688,1.074218 1.542969,2.460937 0.488281,1.386719 0.488281,2.929688 z m -5.78125,16.738285 q 0,0.80078 -0.136718,1.34765 -0.117188,0.54688 -0.449219,0.87891 -0.3125,0.33203 -0.859377,0.46875 -0.52734,0.15625 -1.30859,0.15625 -0.82031,0 -1.34766,-0.15625 -0.52734,-0.13672 -0.85937,-0.46875 -0.3125,-0.33203 -0.44922,-0.87891 -0.11719,-0.54687 -0.11719,-1.34765 0,-0.82032 0.11719,-1.36719 0.13672,-0.56641 0.44922,-0.89844 0.33203,-0.35156 0.85937,-0.48828 0.52735,-0.15625 1.34766,-0.15625 0.78125,0 1.30859,0.15625 0.546877,0.13672 0.859377,0.48828 0.332031,0.33203 0.449219,0.89844 0.136718,0.54687 0.136718,1.36719 z" />
      </g>
      <path
         inkscape:connector-curvature="0"
         id="path3475"
         style="fill:#ffdf5a;fill-opacity:1;fill-rule:evenodd;stroke:none;stroke-width:0.15629198"
         d="m 75.315937,120.17361 h 6.261523 c 0.781931,0 1.422257,0.63986 1.422257,1.42226 v 6.14384 c 0,0.78224 -0.640326,1.42241 -1.422257,1.42241 h -1.452263 l -1.310823,2.11947 c -0.05627,0.0907 -0.147381,0.14176 -0.253817,0.14176 -0.106593,0 -0.198335,-0.0511 -0.254286,-0.14176 l -1.31051,-2.11947 h -1.679824 c -0.782399,0 -1.422416,-0.64017 -1.422416,-1.42241 v -6.14384 c 0,-0.7824 0.640017,-1.42226 1.422416,-1.42226"
         sodipodi:nodetypes="cssssccsccsssc" />
      <g
         aria-label="?"
         transform="matrix(0.2444626,0,0,0.2444626,103.21648,99.067747)"
         style="font-style:normal;font-variant:normal;font-weight:bold;font-stretch:normal;font-size:40px;line-height:1.25;font-family:sans-serif;-inkscape-font-specification:'sans-serif Bold';letter-spacing:0px;word-spacing:0px;fill:#ffffff;fill-opacity:1;stroke:none"
         id="g3479">
        <path
           d="m -92.947266,99.600635 q 0,1.601565 -0.46875,2.890625 -0.449218,1.28906 -1.289062,2.22656 -0.820313,0.9375 -1.992188,1.50391 -1.152343,0.5664 -2.558593,0.72265 l -0.15625,3.8086 q -0.01953,0.35156 -0.566407,0.52734 -0.527344,0.17578 -1.542964,0.17578 -0.64454,0 -1.09375,-0.0195 -0.42969,-0.0391 -0.6836,-0.11719 -0.2539,-0.0781 -0.37109,-0.21484 -0.11719,-0.13672 -0.13672,-0.35156 l -0.17578,-4.60938 q -0.0195,-0.625 0.0586,-1.01562 0.0781,-0.39063 0.27344,-0.625 0.21484,-0.23438 0.52734,-0.3125 0.3125,-0.0977 0.74219,-0.0977 h 0.27344 q 1.03515,0 1.77734,-0.33203 0.761721,-0.33203 1.250002,-0.87891 0.488281,-0.54687 0.703125,-1.28906 0.234375,-0.74219 0.234375,-1.58203 0,-0.937499 -0.273438,-1.718749 -0.253906,-0.78125 -0.800781,-1.347656 -0.527344,-0.566407 -1.347653,-0.859375 -0.80078,-0.3125 -1.89453,-0.3125 -0.9961,0 -1.75782,0.195312 -0.76172,0.195313 -1.30859,0.429688 -0.54688,0.234375 -0.91797,0.429687 -0.35156,0.195313 -0.54687,0.195313 -0.13672,0 -0.25391,-0.07813 -0.11719,-0.09766 -0.19531,-0.332032 -0.0781,-0.234375 -0.13672,-0.664062 -0.0391,-0.429688 -0.0391,-1.09375 0,-0.683594 0.0586,-0.996094 0.0586,-0.3125 0.25391,-0.507812 0.19531,-0.195313 0.74218,-0.449219 0.54688,-0.273438 1.3086,-0.488281 0.76172,-0.234375 1.69922,-0.390625 0.9375,-0.15625 1.95312,-0.15625 2.304688,0 3.945313,0.644531 1.640625,0.625 2.675781,1.699219 1.054688,1.074218 1.542969,2.460937 0.488281,1.386719 0.488281,2.929688 z m -5.78125,16.738285 q 0,0.80078 -0.136718,1.34765 -0.117188,0.54688 -0.449219,0.87891 -0.3125,0.33203 -0.859377,0.46875 -0.52734,0.15625 -1.30859,0.15625 -0.82031,0 -1.34766,-0.15625 -0.52734,-0.13672 -0.85937,-0.46875 -0.3125,-0.33203 -0.44922,-0.87891 -0.11719,-0.54687 -0.11719,-1.34765 0,-0.82032 0.11719,-1.36719 0.13672,-0.56641 0.44922,-0.89844 0.33203,-0.35156 0.85937,-0.48828 0.52735,-0.15625 1.34766,-0.15625 0.78125,0 1.30859,0.15625 0.546877,0.13672 0.859377,0.48828 0.332031,0.33203 0.449219,0.89844 0.136718,0.54687 0.136718,1.36719 z"
           style="font-style:normal;font-variant:normal;font-weight:bold;font-stretch:normal;font-family:Calibri;-inkscape-font-specification:'Calibri Bold';fill:#ffffff"
           id="path3477"
           inkscape:connector-curvature="0" />
      </g>
      <g
         style="fill:#ffffff;fill-opacity:1"
         id="g4361"
         transform="matrix(0.35277777,0,0,-0.35277777,157.58848,157.65171)">
        <path
           d="m 0,0 h 5.663 c 1.364,0 2.478,1.113 2.478,2.477 v 5.666 c 0,1.363 -1.114,2.474 -2.478,2.474 H 0 c -1.364,0 -2.478,-1.111 -2.478,-2.474 V 2.477 C -2.478,1.113 -1.364,0 0,0"
           style="fill:#ffffff;fill-opacity:1;fill-rule:evenodd;stroke:none"
           id="path4359"
           inkscape:connector-curvature="0" />
      </g>
      <g
         style="fill:#ffffff;fill-opacity:1"
         id="g4365"
         transform="matrix(0.35277777,0,0,-0.35277777,164.51862,157.65171)">
        <path
           d="m 0,0 h 5.665 c 1.362,0 2.476,1.113 2.476,2.477 v 5.666 c 0,1.363 -1.114,2.474 -2.476,2.474 H 0 c -1.364,0 -2.478,-1.111 -2.478,-2.474 V 2.477 C -2.478,1.113 -1.364,0 0,0"
           style="fill:#ffffff;fill-opacity:1;fill-rule:evenodd;stroke:none"
           id="path4363"
           inkscape:connector-curvature="0" />
      </g>
      <g
         style="fill:#ffffff;fill-opacity:1"
         id="g4369"
         transform="matrix(0.35277777,0,0,-0.35277777,164.76976,150.09596)">
        <path
           d="m 0,0 h 5.665 c 1.362,0 2.476,1.113 2.476,2.475 v 5.666 c 0,1.363 -1.114,2.478 -2.476,2.478 H 0 c -1.364,0 -2.478,-1.115 -2.478,-2.478 V 2.475 C -2.478,1.113 -1.364,0 0,0"
           style="fill:#ffffff;fill-opacity:1;fill-rule:evenodd;stroke:none"
           id="path4367"
           inkscape:connector-curvature="0" />
      </g>
      <path
         inkscape:transform-center-y="-2.0082086"
         inkscape:transform-center-x="0.67495357"
         d="m 51.332306,150.54867 c -0.06157,0.081 -5.007762,-0.54689 -5.047135,-0.64072 -0.03937,-0.0938 2.977504,-4.0634 3.078447,-4.05058 0.100942,0.0128 2.030257,4.61029 1.968688,4.6913 z"
         inkscape:randomized="0"
         inkscape:rounded="0.02"
         inkscape:flatsided="true"
         sodipodi:arg2="1.697068"
         sodipodi:arg1="0.64987045"
         sodipodi:r2="1.4686757"
         sodipodi:r1="2.9373515"
         sodipodi:cy="148.77133"
         sodipodi:cx="48.993698"
         sodipodi:sides="3"
         id="path4399"
         style="opacity:1;fill:#ffffff;fill-opacity:1;stroke:none;stroke-width:0.07937501;stroke-linecap:round;stroke-miterlimit:4;stroke-dasharray:none;stroke-opacity:1"
         sodipodi:type="star" />
      <path
         sodipodi:type="star"
         style="opacity:1;fill:#b8b8b8;fill-opacity:1;stroke:none;stroke-width:0.07937501;stroke-linecap:round;stroke-miterlimit:4;stroke-dasharray:none;stroke-opacity:1"
         id="path4401"
         sodipodi:sides="3"
         sodipodi:cx="56.08445"
         sodipodi:cy="141.65076"
         sodipodi:r1="2.9373515"
         sodipodi:r2="1.4686757"
         sodipodi:arg1="0.64987045"
         sodipodi:arg2="1.697068"
         inkscape:flatsided="true"
         inkscape:rounded="0.02"
         inkscape:randomized="0"
         d="m 58.423058,143.4281 c -0.06157,0.081 -5.007762,-0.54689 -5.047136,-0.64072 -0.03937,-0.0938 2.977504,-4.0634 3.078447,-4.05059 0.100943,0.0128 2.030258,4.6103 1.968689,4.69131 z"
         inkscape:transform-center-x="0.67495357"
         inkscape:transform-center-y="-2.0082086" />
      <path
         inkscape:transform-center-y="-2.0082086"
         inkscape:transform-center-x="0.67495357"
         d="m 56.772786,134.97653 c -0.06157,0.081 -5.007762,-0.54689 -5.047136,-0.64072 -0.03937,-0.0938 2.977504,-4.0634 3.078447,-4.05059 0.100943,0.0128 2.030258,4.6103 1.968689,4.69131 z"
         inkscape:randomized="0"
         inkscape:rounded="0.02"
         inkscape:flatsided="true"
         sodipodi:arg2="1.697068"
         sodipodi:arg1="0.64987045"
         sodipodi:r2="1.4686757"
         sodipodi:r1="2.9373515"
         sodipodi:cy="133.19919"
         sodipodi:cx="54.434177"
         sodipodi:sides="3"
         id="path4403"
         style="opacity:1;fill:#ffffff;fill-opacity:1;stroke:none;stroke-width:0.07937501;stroke-linecap:round;stroke-miterlimit:4;stroke-dasharray:none;stroke-opacity:1"
         sodipodi:type="star" />
      <path
         sodipodi:type="star"
         style="opacity:1;fill:#b8b8b8;fill-opacity:1;stroke:none;stroke-width:0.07937501;stroke-linecap:round;stroke-miterlimit:4;stroke-dasharray:none;stroke-opacity:1"
         id="path4405"
         sodipodi:sides="3"
         sodipodi:cx="63.016617"
         sodipodi:cy="147.47757"
         sodipodi:r1="2.9373515"
         sodipodi:r2="1.4686757"
         sodipodi:arg1="0.64987045"
         sodipodi:arg2="1.697068"
         inkscape:flatsided="true"
         inkscape:rounded="0.02"
         inkscape:randomized="0"
         d="m 65.355225,149.25491 c -0.06157,0.081 -5.007762,-0.54689 -5.047136,-0.64072 -0.03937,-0.0938 2.977505,-4.0634 3.078447,-4.05059 0.100943,0.0128 2.030258,4.6103 1.968689,4.69131 z"
         inkscape:transform-center-x="0.67495357"
         inkscape:transform-center-y="-2.0082086" />
      <path
         inkscape:transform-center-y="-2.0082086"
         inkscape:transform-center-x="0.67495357"
         d="m 86.22683,186.90874 c -0.06157,0.081 -5.007762,-0.5469 -5.047136,-0.64072 -0.03937,-0.0938 2.977504,-4.06341 3.078447,-4.05059 0.100943,0.0128 2.030258,4.61029 1.968689,4.69131 z"
         inkscape:randomized="0"
         inkscape:rounded="0.02"
         inkscape:flatsided="true"
         sodipodi:arg2="1.697068"
         sodipodi:arg1="0.64987045"
         sodipodi:r2="1.4686757"
         sodipodi:r1="2.9373515"
         sodipodi:cy="185.13139"
         sodipodi:cx="83.888222"
         sodipodi:sides="3"
         id="path4407"
         style="opacity:1;fill:#ffffff;fill-opacity:1;stroke:none;stroke-width:0.07937501;stroke-linecap:round;stroke-miterlimit:4;stroke-dasharray:none;stroke-opacity:1"
         sodipodi:type="star" />
      <path
         sodipodi:type="star"
         style="opacity:1;fill:#ffffff;fill-opacity:1;stroke:none;stroke-width:0.07937501;stroke-linecap:round;stroke-miterlimit:4;stroke-dasharray:none;stroke-opacity:1"
         id="path4409"
         sodipodi:sides="3"
         sodipodi:cx="75.924126"
         sodipodi:cy="198.62354"
         sodipodi:r1="2.9373515"
         sodipodi:r2="1.4686757"
         sodipodi:arg1="0.64987045"
         sodipodi:arg2="1.697068"
         inkscape:flatsided="true"
         inkscape:rounded="0.02"
         inkscape:randomized="0"
         d="m 78.262734,200.40088 c -0.06157,0.081 -5.007762,-0.5469 -5.047136,-0.64072 -0.03937,-0.0938 2.977504,-4.0634 3.078447,-4.05059 0.100943,0.0128 2.030258,4.6103 1.968689,4.69131 z"
         inkscape:transform-center-x="0.67495357"
         inkscape:transform-center-y="-2.0082086" />
      <circle
         r="1.6837981"
         cy="151.59921"
         cx="71.306931"
         id="path4411"
         style="opacity:1;fill:#ffffff;fill-opacity:1;stroke:none;stroke-width:0.07937501;stroke-linecap:round;stroke-miterlimit:4;stroke-dasharray:none;stroke-opacity:1" />
      <circle
         style="opacity:1;fill:#b8b8b8;fill-opacity:1;stroke:none;stroke-width:0.07937501;stroke-linecap:round;stroke-miterlimit:4;stroke-dasharray:none;stroke-opacity:1"
         id="circle4413"
         cx="82.494057"
         cy="197.87138"
         r="1.6837981" />
      <circle
         style="opacity:1;fill:#ffffff;fill-opacity:1;stroke:none;stroke-width:0.07937501;stroke-linecap:round;stroke-miterlimit:4;stroke-dasharray:none;stroke-opacity:1"
         id="circle4415"
         cx="148.01367"
         cy="97.597069"
         r="1.6837981" />
      <circle
         r="1.6837981"
         cy="192.70108"
         cx="89.451576"
         id="circle4417"
         style="opacity:1;fill:#b8b8b8;fill-opacity:1;stroke:none;stroke-width:0.07937501;stroke-linecap:round;stroke-miterlimit:4;stroke-dasharray:none;stroke-opacity:1" />
      <circle
         style="opacity:1;fill:#b8b8b8;fill-opacity:1;stroke:none;stroke-width:0.07937501;stroke-linecap:round;stroke-miterlimit:4;stroke-dasharray:none;stroke-opacity:1"
         id="circle4419"
         cx="55.29697"
         cy="156.28717"
         r="1.6837981" />
      <circle
         r="1.6837981"
         cy="80.070847"
         cx="131.89297"
         id="circle4421"
         style="opacity:1;fill:#ffffff;fill-opacity:1;stroke:none;stroke-width:0.07937501;stroke-linecap:round;stroke-miterlimit:4;stroke-dasharray:none;stroke-opacity:1" />
      <circle
         r="1.6837981"
         cy="103.65475"
         cx="159.44859"
         id="circle4425"
         style="opacity:1;fill:#b8b8b8;fill-opacity:1;stroke:none;stroke-width:0.07937501;stroke-linecap:round;stroke-miterlimit:4;stroke-dasharray:none;stroke-opacity:1" />
      <path
         sodipodi:type="star"
         style="opacity:1;fill:#ffffff;fill-opacity:1;stroke:none;stroke-width:0.07937501;stroke-linecap:round;stroke-miterlimit:4;stroke-dasharray:none;stroke-opacity:1"
         id="path4427"
         sodipodi:sides="3"
         sodipodi:cx="137.27534"
         sodipodi:cy="85.629257"
         sodipodi:r1="2.9373515"
         sodipodi:r2="1.4686757"
         sodipodi:arg1="0.64987045"
         sodipodi:arg2="1.697068"
         inkscape:flatsided="true"
         inkscape:rounded="0.02"
         inkscape:randomized="0"
         d="m 139.61395,87.406599 c -0.0616,0.08101 -5.00776,-0.546893 -5.04713,-0.640719 -0.0394,-0.09383 2.9775,-4.063402 3.07844,-4.050588 0.10095,0.01281 2.03026,4.610296 1.96869,4.691307 z"
         inkscape:transform-center-x="0.67495357"
         inkscape:transform-center-y="-2.0082086" />
    </g>
  </g>
</svg>
