<?xml version="1.0" encoding="UTF-8" standalone="no"?>
<!-- Created with Inkscape (http://www.inkscape.org/) -->

<svg
   xmlns:dc="http://purl.org/dc/elements/1.1/"
   xmlns:cc="http://creativecommons.org/ns#"
   xmlns:rdf="http://www.w3.org/1999/02/22-rdf-syntax-ns#"
   xmlns:svg="http://www.w3.org/2000/svg"
   xmlns="http://www.w3.org/2000/svg"
   xmlns:sodipodi="http://sodipodi.sourceforge.net/DTD/sodipodi-0.dtd"
   xmlns:inkscape="http://www.inkscape.org/namespaces/inkscape"
   version="1.1"
   id="svg2"
   xml:space="preserve"
   viewBox="0 0 566.79633 491.07599"
   sodipodi:docname="think.svg"
   inkscape:version="0.92.4 (5da689c313, 2019-01-14)"><metadata
     id="metadata8"><rdf:RDF><cc:Work
         rdf:about=""><dc:format>image/svg+xml</dc:format><dc:type
           rdf:resource="http://purl.org/dc/dcmitype/StillImage" /><dc:title></dc:title></cc:Work></rdf:RDF></metadata><defs
     id="defs6"><clipPath
       clipPathUnits="userSpaceOnUse"
       id="clipPath20"><path
         d="M 0,500 H 500 V 0 H 0 Z"
         id="path18"
         inkscape:connector-curvature="0" /></clipPath><clipPath
       clipPathUnits="userSpaceOnUse"
       id="clipPath446"><path
         d="M 0,500 H 500 V 0 H 0 Z"
         id="path444"
         inkscape:connector-curvature="0" /></clipPath></defs><sodipodi:namedview
     pagecolor="#ffffff"
     bordercolor="#666666"
     borderopacity="1"
     objecttolerance="10"
     gridtolerance="10"
     guidetolerance="10"
     inkscape:pageopacity="0"
     inkscape:pageshadow="2"
     inkscape:window-width="1682"
     inkscape:window-height="801"
     id="namedview4"
     showgrid="false"
     inkscape:zoom="0.50063159"
     inkscape:cx="413.15972"
     inkscape:cy="275.03495"
     inkscape:window-x="0"
     inkscape:window-y="0"
     inkscape:window-maximized="0"
     inkscape:current-layer="g10" /><g
     id="g10"
     inkscape:groupmode="layer"
     inkscape:label="2787861"
     transform="matrix(1.3333333,0,0,-1.3333333,-49.935065,582.83105)"><g
       id="g14"><g
         id="g16"
         clip-path="url(#clipPath20)"><g
           id="g22"
           transform="translate(426.1953,180.6963)"><path
             d="m 0,0 c -17.62,0 -32.036,-14.416 -32.036,-32.036 0,-32.149 -26.303,-58.451 -58.451,-58.451 h -17.474 -135.778 -68.229 c -41.763,0 -75.932,34.169 -75.932,75.931 0,41.763 34.169,75.933 75.932,75.933 8.381,0 15.239,6.856 15.239,15.238 0,8.381 -6.858,15.239 -15.239,15.239 h -39.733 c -20.373,0 -37.043,16.669 -37.043,37.042 0,20.351 16.631,37.005 36.973,37.043 h 36.146 c 17.619,0 32.035,14.416 32.035,32.037 0,32.148 26.303,58.451 58.451,58.451 h 185.407 c 41.762,0 75.932,-34.17 75.932,-75.932 0,-41.763 -34.17,-75.932 -75.932,-75.932 -8.381,0 -15.239,-6.858 -15.239,-15.239 0,-8.381 6.858,-15.238 15.239,-15.238 H 0 C 48.471,74.086 48.471,0 0,0"
             style="fill:#c6e3f1;fill-opacity:1;fill-rule:evenodd;stroke:none"
             id="path24"
             inkscape:connector-curvature="0" /></g><g
           id="g26"
           transform="translate(187.4551,369.9023)"><path
             d="m 0,0 c -0.589,-0.722 -0.032,-1.799 0.898,-1.736 0.305,0.026 0.553,0.152 0.75,0.387 C 2.09,-0.808 2.542,-0.28 3,0.247 3.717,1.077 2.879,2.314 1.838,1.951 1.662,1.884 1.526,1.794 1.4,1.652 0.923,1.112 0.457,0.558 0,0 m -4.957,-7.124 c -0.217,-0.38 -0.186,-0.844 0.083,-1.19 0.46,-0.591 1.388,-0.527 1.76,0.124 0.346,0.601 0.706,1.194 1.079,1.779 0.249,0.391 0.221,0.896 -0.077,1.254 -0.457,0.553 -1.331,0.501 -1.716,-0.106 -0.39,-0.612 -0.766,-1.232 -1.129,-1.861 m -3.536,-7.987 c -0.071,-0.235 -0.064,-0.453 0.016,-0.684 0.364,-0.953 1.7,-0.92 2.017,0.05 0.19,0.621 0.418,1.355 0.67,1.949 0.154,0.409 0.049,0.87 -0.275,1.166 -0.553,0.504 -1.449,0.297 -1.714,-0.404 -0.262,-0.678 -0.501,-1.384 -0.714,-2.077 m -1.404,-8.669 c -0.022,-1.093 1.419,-1.521 1.994,-0.547 0.084,0.153 0.131,0.318 0.134,0.493 0.016,0.687 0.05,1.372 0.109,2.057 0.094,1.121 -1.379,1.61 -1.974,0.642 -0.085,-0.144 -0.129,-0.284 -0.146,-0.45 -0.066,-0.727 -0.101,-1.465 -0.117,-2.195 m 0.982,-8.719 c 0.089,-0.347 0.327,-0.615 0.661,-0.743 0.806,-0.3 1.601,0.421 1.407,1.252 -0.167,0.666 -0.312,1.336 -0.434,2.011 -0.209,1.11 -1.752,1.19 -2.073,0.103 -0.045,-0.158 -0.051,-0.311 -0.024,-0.473 0.13,-0.721 0.286,-1.438 0.463,-2.15 m 3.232,-8.151 c 0.211,-0.385 0.627,-0.594 1.061,-0.545 0.753,0.099 1.164,0.898 0.806,1.568 -0.333,0.604 -0.647,1.212 -0.944,1.835 -0.213,0.446 -0.689,0.685 -1.174,0.59 -0.673,-0.135 -1.048,-0.877 -0.753,-1.497 0.315,-0.661 0.649,-1.31 1.004,-1.951 m 5.121,-7.09 c 0.733,-0.799 2.05,-0.132 1.831,0.941 -0.042,0.187 -0.124,0.344 -0.251,0.487 -0.467,0.513 -0.916,1.036 -1.355,1.571 -0.293,0.359 -0.785,0.488 -1.216,0.318 -0.67,-0.265 -0.889,-1.105 -0.435,-1.663 0.463,-0.563 0.935,-1.114 1.426,-1.654 M 5.9,-53.572 c 0.839,-0.623 1.975,0.192 1.651,1.19 -0.073,0.205 -0.191,0.378 -0.368,0.509 -0.557,0.418 -1.102,0.847 -1.642,1.286 -0.73,0.597 -1.821,0.02 -1.735,-0.921 0.032,-0.294 0.156,-0.533 0.384,-0.724 0.563,-0.458 1.13,-0.905 1.71,-1.34 m 7.317,-4.648 c 0.302,-0.161 0.648,-0.172 0.959,-0.028 0.788,0.365 0.822,1.49 0.056,1.9 -0.613,0.33 -1.222,0.671 -1.823,1.023 -0.284,0.169 -0.635,0.194 -0.941,0.07 -0.817,-0.339 -0.899,-1.453 -0.141,-1.904 0.622,-0.364 1.255,-0.718 1.89,-1.061 m 7.831,-3.636 c 0.394,-0.158 0.847,-0.068 1.148,0.233 0.539,0.54 0.355,1.459 -0.355,1.742 -0.651,0.26 -1.298,0.527 -1.941,0.804 -1.047,0.442 -1.973,-0.829 -1.21,-1.694 0.102,-0.112 0.226,-0.2 0.365,-0.26 0.66,-0.284 1.325,-0.559 1.993,-0.825 m 8.141,-2.808 c 0.996,-0.297 1.784,0.874 1.135,1.685 -0.132,0.17 -0.323,0.292 -0.527,0.355 -0.672,0.198 -1.344,0.405 -2.011,0.619 -0.981,0.32 -1.802,-0.821 -1.178,-1.654 0.132,-0.176 0.314,-0.304 0.522,-0.371 0.683,-0.22 1.371,-0.431 2.059,-0.634 m 8.324,-2.131 c 0.987,-0.21 1.688,0.92 1.047,1.722 -0.161,0.187 -0.349,0.302 -0.589,0.357 -0.688,0.151 -1.374,0.308 -2.059,0.469 -0.918,0.215 -1.64,-0.77 -1.156,-1.589 0.155,-0.245 0.38,-0.416 0.664,-0.483 0.697,-0.163 1.394,-0.324 2.093,-0.476 m 8.432,-1.574 c 0.892,-0.13 1.532,0.8 1.089,1.585 -0.166,0.281 -0.431,0.464 -0.753,0.517 -0.694,0.11 -1.397,0.215 -2.086,0.342 -0.343,0.058 -0.677,-0.045 -0.928,-0.287 -0.617,-0.617 -0.296,-1.649 0.561,-1.81 0.701,-0.126 1.412,-0.236 2.117,-0.347 m 8.495,-1.11 c 1.103,-0.116 1.633,1.318 0.702,1.948 -0.14,0.092 -0.304,0.15 -0.47,0.168 -0.702,0.075 -1.403,0.153 -2.105,0.236 -0.389,0.049 -0.774,-0.128 -0.999,-0.447 -0.456,-0.667 -0.055,-1.568 0.746,-1.667 0.708,-0.084 1.417,-0.162 2.126,-0.238 m 8.506,-0.759 c 1.04,-0.086 1.573,1.217 0.768,1.884 -0.17,0.136 -0.364,0.219 -0.582,0.237 -0.709,0.062 -1.418,0.122 -2.127,0.18 -0.458,0.04 -0.886,-0.221 -1.067,-0.643 -0.28,-0.669 0.166,-1.418 0.892,-1.479 0.706,-0.057 1.411,-0.118 2.116,-0.179 m 8.452,-0.831 c 0.468,-0.049 0.923,0.212 1.1,0.651 0.273,0.65 -0.166,1.392 -0.868,1.465 -0.708,0.077 -1.415,0.154 -2.123,0.226 -1.034,0.108 -1.595,-1.191 -0.797,-1.871 0.168,-0.14 0.359,-0.223 0.578,-0.246 0.703,-0.075 1.407,-0.149 2.11,-0.225 m 8.428,-1.031 c 0.941,-0.118 1.558,0.942 0.992,1.696 -0.188,0.235 -0.409,0.371 -0.709,0.415 -0.705,0.094 -1.411,0.187 -2.117,0.279 -1.072,0.134 -1.645,-1.23 -0.778,-1.904 0.149,-0.114 0.321,-0.185 0.507,-0.208 0.702,-0.091 1.403,-0.183 2.105,-0.278 m 8.391,-1.256 c 1.03,-0.172 1.665,1.109 0.903,1.825 -0.156,0.146 -0.346,0.24 -0.557,0.275 -0.704,0.116 -1.407,0.23 -2.11,0.34 -1.143,0.167 -1.706,-1.328 -0.726,-1.957 0.125,-0.077 0.251,-0.122 0.396,-0.147 0.698,-0.11 1.397,-0.222 2.094,-0.336 m 8.346,-1.515 c 1.006,-0.189 1.674,0.989 1.001,1.753 -0.163,0.178 -0.352,0.286 -0.587,0.336 -0.7,0.138 -1.399,0.274 -2.099,0.407 -1.06,0.199 -1.717,-1.125 -0.892,-1.854 0.148,-0.122 0.305,-0.202 0.494,-0.237 0.695,-0.133 1.388,-0.267 2.083,-0.405 m 8.279,-1.809 c 1.07,-0.25 1.774,1.086 0.958,1.828 -0.134,0.12 -0.288,0.203 -0.464,0.244 -0.665,0.121 -1.412,0.333 -2.084,0.486 -0.946,0.222 -1.673,-0.866 -1.102,-1.657 0.15,-0.213 0.376,-0.36 0.629,-0.418 0.663,-0.153 1.405,-0.363 2.063,-0.483 m 8.194,-2.142 c 0.404,-0.112 0.848,0.016 1.113,0.345 0.486,0.587 0.207,1.498 -0.529,1.703 -0.687,0.195 -1.374,0.386 -2.063,0.576 -0.27,0.074 -0.553,0.037 -0.797,-0.097 -0.833,-0.47 -0.681,-1.704 0.237,-1.958 0.681,-0.186 1.359,-0.376 2.039,-0.569 m 8.072,-2.527 c 0.934,-0.325 1.772,0.707 1.257,1.558 -0.126,0.213 -0.331,0.375 -0.564,0.455 l -0.154,0.054 c -0.626,0.213 -1.252,0.423 -1.881,0.63 -0.896,0.292 -1.703,-0.646 -1.282,-1.49 0.136,-0.258 0.342,-0.444 0.622,-0.535 0.619,-0.202 1.233,-0.41 1.849,-0.618 z m 7.842,-3.077 c 0.847,-0.365 1.712,0.413 1.443,1.305 -0.104,0.297 -0.295,0.513 -0.583,0.642 l -1.015,0.443 -0.962,0.406 c -0.95,0.381 -1.832,-0.626 -1.328,-1.519 0.125,-0.206 0.288,-0.352 0.51,-0.446 l 0.941,-0.398 z m 7.548,-3.737 c 0.481,-0.258 1.062,-0.127 1.381,0.317 0.367,0.518 0.2,1.244 -0.357,1.549 l -0.197,0.109 -0.911,0.495 -0.788,0.415 c -0.907,0.465 -1.884,-0.473 -1.453,-1.401 0.106,-0.217 0.258,-0.374 0.47,-0.487 l 0.767,-0.405 0.891,-0.483 z m 7.179,-4.402 c 0.379,-0.257 0.876,-0.236 1.239,0.04 0.577,0.449 0.549,1.32 -0.058,1.729 l -0.571,0.387 -0.838,0.554 -0.385,0.248 c -0.9,0.571 -1.989,-0.395 -1.532,-1.358 0.088,-0.181 0.218,-0.33 0.389,-0.438 l 0.364,-0.236 0.819,-0.541 z m 6.72,-5.053 c 0.731,-0.597 1.819,-0.022 1.736,0.92 -0.033,0.294 -0.156,0.534 -0.384,0.724 l -0.326,0.272 -0.756,0.614 -0.591,0.47 c -0.307,0.243 -0.715,0.292 -1.074,0.142 -0.745,-0.319 -0.876,-1.316 -0.241,-1.817 l 0.572,-0.454 0.738,-0.601 z m 6.198,-5.681 c 0.752,-0.752 2.029,-0.058 1.788,1.003 -0.048,0.192 -0.141,0.36 -0.281,0.5 l -0.279,0.282 -0.675,0.67 -0.577,0.561 c -0.772,0.727 -2.009,0.02 -1.774,-1.012 0.052,-0.208 0.146,-0.375 0.3,-0.524 l 0.561,-0.545 0.658,-0.653 z m 5.604,-6.269 c 0.7,-0.835 2.042,-0.232 1.873,0.856 -0.033,0.184 -0.107,0.348 -0.225,0.493 l -0.355,0.438 -0.594,0.717 -0.424,0.501 c -0.619,0.715 -1.787,0.339 -1.87,-0.602 -0.02,-0.296 0.061,-0.554 0.252,-0.781 l 0.41,-0.485 0.579,-0.699 z m 4.95,-6.799 c 0.221,-0.327 0.591,-0.503 0.984,-0.468 0.801,0.07 1.235,0.987 0.786,1.651 l -0.488,0.739 -0.513,0.758 -0.2,0.289 c -0.244,0.35 -0.684,0.524 -1.102,0.429 -0.74,-0.165 -1.077,-1.029 -0.642,-1.65 l 0.187,-0.271 0.5,-0.739 z m 4.237,-7.254 c 0.524,-0.982 2.007,-0.613 2.007,0.507 -0.004,0.176 -0.041,0.325 -0.122,0.483 l -0.204,0.391 -0.423,0.796 -0.388,0.711 c -0.549,0.962 -1.996,0.583 -1.996,-0.537 0.004,-0.179 0.049,-0.335 0.133,-0.494 l 0.378,-0.691 0.412,-0.775 z m 3.493,-7.643 c 0.13,-0.324 0.41,-0.565 0.751,-0.642 0.836,-0.191 1.544,0.637 1.225,1.432 l -0.376,0.933 -0.343,0.822 -0.105,0.243 c -0.37,0.815 -1.483,0.863 -1.913,0.08 -0.157,-0.297 -0.17,-0.62 -0.039,-0.93 l 0.096,-0.224 0.335,-0.802 z m 2.72,-7.964 c 0.134,-0.44 0.53,-0.751 0.994,-0.761 0.721,-0.016 1.254,0.674 1.047,1.367 l -0.211,0.726 -0.256,0.845 -0.152,0.489 c -0.345,1.056 -1.87,0.955 -2.066,-0.15 -0.026,-0.168 -0.017,-0.335 0.037,-0.497 l 0.147,-0.468 0.249,-0.824 z m 1.917,-8.184 c 0.062,-0.335 0.286,-0.623 0.596,-0.767 0.786,-0.364 1.655,0.314 1.495,1.164 l -0.109,0.591 -0.167,0.859 -0.137,0.661 c -0.097,0.458 -0.48,0.8 -0.948,0.842 -0.711,0.061 -1.283,-0.583 -1.135,-1.281 l 0.131,-0.64 0.164,-0.838 z m 1.099,-8.334 c 0.081,-0.974 1.348,-1.327 1.919,-0.535 0.154,0.205 0.223,0.467 0.202,0.721 l -0.043,0.515 -0.08,0.863 -0.079,0.763 c -0.022,0.219 -0.117,0.434 -0.265,0.597 -0.699,0.765 -1.958,0.198 -1.852,-0.825 l 0.077,-0.742 0.078,-0.842 z m 0.267,-8.402 c 0,-1.169 1.586,-1.5 2.051,-0.416 0.051,0.127 0.075,0.252 0.078,0.389 l 0.009,0.497 0.006,0.862 -0.003,0.792 c -0.017,0.898 -1.036,1.378 -1.737,0.816 -0.254,-0.21 -0.391,-0.504 -0.391,-0.833 l 10e-4,-0.771 -0.005,-0.839 z m -0.578,-8.385 c -0.045,-0.428 0.153,-0.824 0.523,-1.042 0.669,-0.385 1.496,0.036 1.592,0.801 l 0.063,0.535 0.093,0.85 0.074,0.753 c 0.086,1.032 -1.18,1.572 -1.863,0.798 -0.15,-0.177 -0.233,-0.369 -0.257,-0.6 l -0.072,-0.732 -0.09,-0.829 z m -1.437,-8.28 c -0.224,-1.06 1.081,-1.741 1.82,-0.954 0.135,0.149 0.214,0.301 0.26,0.497 l 0.14,0.621 0.179,0.832 0.131,0.65 c 0.204,1.083 -1.148,1.727 -1.86,0.892 -0.118,-0.144 -0.19,-0.296 -0.228,-0.478 l -0.128,-0.63 -0.174,-0.809 z m -2.301,-8.08 c -0.332,-1.018 0.87,-1.836 1.695,-1.152 0.15,0.129 0.263,0.291 0.325,0.48 l 0.252,0.741 0.263,0.804 0.158,0.499 c 0.108,0.359 0.027,0.74 -0.221,1.022 -0.547,0.618 -1.573,0.397 -1.814,-0.393 l -0.151,-0.476 -0.256,-0.783 z m -3.165,-7.763 c -0.185,-0.388 -0.115,-0.844 0.169,-1.165 0.516,-0.566 1.427,-0.436 1.756,0.255 l 0.412,0.882 0.349,0.77 0.139,0.316 c 0.432,1.024 -0.777,1.947 -1.656,1.244 -0.13,-0.108 -0.231,-0.243 -0.299,-0.398 l -0.129,-0.296 -0.338,-0.748 z m -4.029,-7.362 c -0.479,-0.787 0.175,-1.754 1.093,-1.608 0.31,0.064 0.548,0.219 0.718,0.487 l 0.171,0.274 0.441,0.72 0.51,0.859 c 0.22,0.387 0.178,0.867 -0.106,1.21 -0.474,0.569 -1.375,0.492 -1.743,-0.153 l -0.484,-0.815 -0.428,-0.7 z m -4.861,-6.834 c -0.241,-0.305 -0.294,-0.693 -0.157,-1.055 0.307,-0.759 1.317,-0.909 1.824,-0.269 l 0.309,0.386 0.525,0.668 0.493,0.643 c 0.529,0.713 0.026,1.708 -0.862,1.708 -0.329,-0.008 -0.639,-0.157 -0.836,-0.423 l -0.478,-0.623 -0.509,-0.649 z m -5.65,-6.193 c -0.35,-0.35 -0.416,-0.87 -0.17,-1.298 0.36,-0.598 1.165,-0.703 1.665,-0.218 l 0.43,0.42 0.608,0.607 0.486,0.498 c 0.225,0.232 0.333,0.558 0.29,0.879 -0.121,0.884 -1.201,1.238 -1.821,0.599 l -0.469,-0.479 -0.589,-0.589 z m -6.364,-5.451 c -0.921,-0.727 -0.188,-2.176 0.942,-1.867 0.136,0.04 0.242,0.094 0.355,0.178 l 0.464,0.352 0.69,0.537 0.546,0.437 c 0.731,0.596 0.398,1.759 -0.551,1.885 -0.297,0.028 -0.553,-0.045 -0.788,-0.23 l -0.525,-0.42 -0.669,-0.521 z m -6.982,-4.632 c -0.963,-0.573 -0.512,-2.055 0.626,-1.979 0.165,0.014 0.307,0.06 0.451,0.143 l 0.317,0.183 0.772,0.459 0.76,0.466 c 0.941,0.596 0.468,2.04 -0.642,1.965 -0.179,-0.015 -0.328,-0.063 -0.481,-0.157 l -0.738,-0.451 -0.748,-0.445 z m -7.497,-3.77 c -0.376,-0.171 -0.615,-0.523 -0.632,-0.935 -0.035,-0.779 0.787,-1.333 1.496,-1.011 l 0.719,0.314 0.844,0.382 0.404,0.188 c 0.964,0.46 0.72,1.902 -0.342,2.021 -0.203,0.017 -0.387,-0.009 -0.571,-0.097 l -0.38,-0.178 -0.82,-0.37 z m -7.882,-2.889 c -1.069,-0.349 -0.95,-1.895 0.173,-2.069 0.159,-0.021 0.319,-0.01 0.471,0.04 l 0.862,0.267 0.917,0.298 0.274,0.093 c 0.336,0.116 0.584,0.384 0.68,0.725 0.224,0.825 -0.57,1.568 -1.374,1.287 l -0.25,-0.084 -0.892,-0.29 z m -8.151,-2.027 c -0.342,-0.072 -0.623,-0.297 -0.764,-0.619 -0.344,-0.785 0.349,-1.643 1.188,-1.468 l 0.631,0.124 0.987,0.207 0.491,0.109 c 1.016,0.237 1.127,1.635 0.154,2.028 -0.202,0.078 -0.414,0.098 -0.626,0.047 l -0.467,-0.102 -0.963,-0.202 z m -8.327,-1.216 c -0.441,-0.046 -0.824,-0.382 -0.921,-0.817 -0.164,-0.718 0.419,-1.377 1.152,-1.3 l 0.969,0.1 1.172,0.136 c 0.951,0.119 1.264,1.37 0.477,1.923 -0.22,0.158 -0.489,0.221 -0.757,0.188 l -1.123,-0.131 z m -8.408,-0.461 c -1.007,-0.021 -1.425,-1.31 -0.611,-1.919 0.195,-0.142 0.414,-0.215 0.656,-0.209 l 0.884,0.014 1.111,0.029 0.157,0.006 c 1.046,0.044 1.403,1.43 0.505,1.974 -0.177,0.11 -0.388,0.161 -0.597,0.153 l -1.221,-0.034 z M 8.91,6.19 C 9.689,6.884 9.098,8.179 8.058,8.04 7.847,8.013 7.652,7.922 7.493,7.78 6.956,7.301 6.425,6.814 5.903,6.319 5.56,5.997 5.476,5.5 5.676,5.078 5.991,4.433 6.843,4.28 7.364,4.771 7.872,5.252 8.388,5.725 8.91,6.19"
             style="fill:#ffffff;fill-opacity:1;fill-rule:evenodd;stroke:none"
             id="path28"
             inkscape:connector-curvature="0" /></g><g
           id="g30"
           transform="translate(206.3657,287.8281)"><path
             d="M 0,0 C 0.199,0.314 0.617,0.408 0.932,0.208 1.247,0.009 1.34,-0.409 1.14,-0.724 c -0.076,-0.12 -26.818,-41.673 -5.696,-65.894 0.245,-0.279 0.217,-0.705 -0.063,-0.95 -0.28,-0.245 -0.706,-0.217 -0.951,0.063 C -27.364,-42.514 -0.078,-0.123 0,0"
             style="fill:#000618;fill-opacity:1;fill-rule:evenodd;stroke:none"
             id="path32"
             inkscape:connector-curvature="0" /></g><g
           id="g34"
           transform="translate(284.3477,293.6162)"><path
             d="M 0,0 C -0.199,0.315 -0.104,0.731 0.211,0.93 0.525,1.128 0.941,1.033 1.14,0.718 1.184,0.649 16.458,-23.061 0.348,-41.275 c -0.246,-0.278 -0.672,-0.304 -0.951,-0.058 -0.278,0.246 -0.304,0.672 -0.057,0.95 C 14.772,-22.935 0.041,-0.066 0,0"
             style="fill:#000618;fill-opacity:1;fill-rule:evenodd;stroke:none"
             id="path36"
             inkscape:connector-curvature="0" /></g><g
           id="g38"
           transform="translate(210.687,315.8867)"><path
             d="m 0,0 -11.264,-12.384 c 0,0 5.393,-9.546 4.857,-22.063 -0.536,-12.517 -42.738,-81.899 35.227,-81.541 77.965,0.357 34.588,40.581 34.588,40.581 0,0 25.718,8.327 12.731,45.565 C 63.153,7.396 0,0 0,0"
             style="fill:#000618;fill-opacity:1;fill-rule:evenodd;stroke:none"
             id="path40"
             inkscape:connector-curvature="0" /></g><g
           id="g42"
           transform="translate(274.8135,239.7793)"><path
             d="m 0,0 c -0.453,0.454 -0.719,0.7 -0.719,0.7 0,0 0.925,0.3 2.334,1.038 2.22,2.484 4.472,5.397 6.661,8.798 C 18.909,27.064 7.594,49.79 7.594,49.79 l -6.018,1.797 c 0,0 -11.981,4.291 -15.199,5.364 -3.219,1.073 -40.413,-1.252 -50.963,-21.1 -10.551,-19.849 1.202,-48.624 1.202,-48.624 0,0 43.86,1.416 46.363,1.594 C -15.158,-11.045 -7.948,-8.237 0,0"
             style="fill:#01020e;fill-opacity:1;fill-rule:evenodd;stroke:none"
             id="path44"
             inkscape:connector-curvature="0" /></g><g
           id="g46"
           transform="translate(295.7793,228.9541)"><path
             d="m 0,0 c 12.525,-5.469 14.15,-16.921 15.778,-29.665 1.444,-11.302 1.896,-28.356 -1.081,-54.263 -2.975,-25.906 -50.324,34.176 -50.324,34.176 z"
             style="fill:#ef8871;fill-opacity:1;fill-rule:evenodd;stroke:none"
             id="path48"
             inkscape:connector-curvature="0" /></g><g
           id="g50"
           transform="translate(222.1211,229.293)"><path
             d="m 0,0 -12.158,6.22 c 0,0 -12.846,-3.197 -19.419,-11.458 -6.571,-8.263 -26.476,-78.867 -27.227,-87.505 -0.751,-8.638 5.1,-41.544 15.804,-41.544 10.703,0 16.028,71.943 16.028,71.943 l 8.742,26.965 z"
             style="fill:#f4ad85;fill-opacity:1;fill-rule:evenodd;stroke:none"
             id="path52"
             inkscape:connector-curvature="0" /></g><g
           id="g54"
           transform="translate(222.1211,229.293)"><path
             d="m 0,0 -12.158,6.22 c 0,0 -4.114,-1.025 -8.877,-3.41 1.575,-0.761 2.806,-2.706 2.662,-7.017 -0.376,-11.268 -17.558,-54.268 -21.313,-66.286 -3.756,-12.018 -6.76,-19.153 -6.76,-19.153 l -7.826,16.413 c -0.707,-2.652 -1.352,-5.137 -1.921,-7.401 2.928,-15.776 6.569,-37.403 7.064,-49.766 1.815,-2.408 3.862,-3.887 6.129,-3.887 10.703,0 16.028,71.943 16.028,71.943 l 8.742,26.965 z"
             style="fill:#ef8871;fill-opacity:1;fill-rule:evenodd;stroke:none"
             id="path56"
             inkscape:connector-curvature="0" /></g><g
           id="g58"
           transform="translate(254.3467,244.8057)"><path
             d="m 0,0 c 0,0 32.309,-11.515 41.433,-15.852 -0.017,-0.016 -1.745,-1.822 -3.706,-11.726 -1.972,-9.952 0,-24.411 -2.065,-38.683 -1.493,-10.311 -8.475,-62.48 -12.234,-90.636 l -79.642,6.424 c -0.024,1.255 -0.076,2.763 -0.149,4.473 6.542,-5.093 12.811,-5.319 8.93,9.558 -6.76,25.914 -5.446,70.98 -3.193,84.501 2.253,13.519 5.61,27.75 2.418,41.457 C -46.064,-8.554 0,0 0,0"
             style="fill:#d84f50;fill-opacity:1;fill-rule:evenodd;stroke:none"
             id="path60"
             inkscape:connector-curvature="0" /></g><g
           id="g62"
           transform="translate(275.5664,237.042)"><path
             d="m 0,0 c 8.083,-3.032 16.291,-6.223 20.213,-8.088 -0.017,-0.016 -1.744,-1.822 -3.706,-11.726 -1.972,-9.953 0,-24.412 -2.065,-38.683 -0.298,-2.065 -0.818,-5.81 -1.487,-10.7 -17.994,-2.804 -71.144,-8.892 -83.899,-7.762 -0.922,0.082 -1.83,0.221 -2.723,0.411 0.001,14.062 0.817,26.347 1.821,32.37 0.058,0.346 0.117,0.693 0.176,1.039 4.502,-13.287 61.181,-20.715 61.181,-20.715 0,0 9.398,20.789 6.957,28.488 -2.441,7.699 -13.712,7.484 -13.712,7.484 l 0.286,6.881 c 0,0 11.269,15.258 13.976,19.901 0.339,0.584 1.393,0.935 2.982,1.1"
             style="fill:#c23e3e;fill-opacity:1;fill-rule:evenodd;stroke:none"
             id="path64"
             inkscape:connector-curvature="0" /></g><g
           id="g66"
           transform="translate(203.1807,188.8467)"><path
             d="M 0,0 C 0.05,0.455 0.102,0.894 0.154,1.313 1.969,4.887 8.879,20.606 4.94,46.271 5.155,46.337 5.381,46.403 5.626,46.474 10.155,17.122 0.574,0.567 0.351,0.186 0.332,0.149 0.306,0.116 0.273,0.087 0.195,0.019 0.096,-0.01 0,0 m 90.236,41.171 c 0.202,-0.087 0.399,-0.173 0.59,-0.257 -1.554,-2.753 -3.743,-8.535 -5.757,-20.633 -2.412,-14.5 0.352,-21.039 2.468,-23.791 -0.022,-0.331 -0.047,-0.662 -0.073,-0.993 -2.27,2.575 -5.7,9.233 -3.093,24.901 1.978,11.885 4.213,17.821 5.865,20.773 m -13.27,5.293 0.666,-0.254 C 76.196,40.42 74.273,33.628 71.588,29.626 69.167,26.02 66.341,22.695 62.234,20.315 58.134,17.937 52.769,16.511 45.278,16.7 c -6.527,0.165 -11.773,2.571 -15.833,5.988 -5.285,4.447 -8.558,10.604 -10.033,15.75 -2.064,7.198 -4.006,9.596 -4.668,10.247 l 0.787,0.173 c 0.923,-1.082 2.732,-3.841 4.563,-10.226 1.444,-5.036 4.642,-11.06 9.805,-15.403 3.949,-3.322 9.049,-5.662 15.396,-5.822 7.345,-0.185 12.589,1.204 16.585,3.521 3.992,2.314 6.752,5.563 9.12,9.092 2.638,3.93 4.543,10.691 5.966,16.444"
             style="fill:#b23539;fill-opacity:1;fill-rule:evenodd;stroke:none"
             id="path68"
             inkscape:connector-curvature="0" /></g><g
           id="g70"
           transform="translate(251.8428,279.3682)"><path
             d="M 0,0 0.243,0.002 C 7.257,0.08 13.101,-5.59 13.145,-12.604 l 0.162,-25.867 c 4.689,-1.715 10.3,-3.792 15.555,-5.8 -8.268,-17.854 -18.02,-29.653 -33.605,-26.273 -21.348,4.63 -20.588,22.555 -27.09,29.164 6.073,1.316 13.199,2.747 19.381,3.956 l -0.154,24.523 C -12.65,-5.887 -7.014,-0.078 0,0"
             style="fill:#ef8871;fill-opacity:1;fill-rule:evenodd;stroke:none"
             id="path72"
             inkscape:connector-curvature="0" /></g><g
           id="g74"
           transform="translate(264.1953,271.0713)"><path
             d="m 0,0 c 0.503,-1.344 0.782,-2.794 0.792,-4.308 l 0.162,-25.866 c 4.69,-1.715 10.301,-3.792 15.556,-5.8 -6.081,-13.131 -12.966,-22.987 -22.383,-25.937 14.975,10.098 10.372,22.573 7.18,23.888 -3.193,1.314 -28.535,8.42 -28.535,8.42 0.82,0.162 1.63,0.321 2.423,0.476 l -0.153,24.523 c -0.025,3.958 1.76,7.534 4.581,9.911 C -13.625,5.37 -6.898,3.275 0,0"
             style="fill:#ea745d;fill-opacity:1;fill-rule:evenodd;stroke:none"
             id="path76"
             inkscape:connector-curvature="0" /></g><g
           id="g78"
           transform="translate(280.6885,303.8701)"><path
             d="m 0,0 c 0.249,-0.001 0.495,-0.009 0.74,-0.026 l 0.008,-0.002 -0.001,0.001 c 4.53,-0.337 8.393,-3.758 9.107,-8.44 0.83,-5.442 -2.911,-10.527 -8.352,-11.357 -5.442,-0.829 -10.528,2.91 -11.357,8.351 -0.484,3.163 0.578,6.205 2.62,8.361 0.136,-2.95 1.081,-6.499 4.851,-6.366 l -0.865,5.683 C -3.6,-1.494 -1.59,-0.147 0,0"
             style="fill:#ea745d;fill-opacity:1;fill-rule:evenodd;stroke:none"
             id="path80"
             inkscape:connector-curvature="0" /></g><g
           id="g82"
           transform="translate(209.4609,292.6338)"><path
             d="m 0,0 c -0.24,-0.065 -0.476,-0.138 -0.708,-0.22 l -0.007,-0.003 0.001,0.001 c -4.285,-1.509 -7.118,-5.822 -6.583,-10.528 0.624,-5.469 5.564,-9.399 11.032,-8.776 5.471,0.623 9.401,5.562 8.778,11.031 -0.361,3.18 -2.181,5.838 -4.715,7.385 0.639,-2.885 0.656,-6.557 -3.019,-7.414 L 4.128,-2.813 C 3.866,-0.5 1.574,0.274 0,0"
             style="fill:#ea745d;fill-opacity:1;fill-rule:evenodd;stroke:none"
             id="path84"
             inkscape:connector-curvature="0" /></g><g
           id="g86"
           transform="translate(240.2466,347.6328)"><path
             d="m 0,0 v 0 c 18.607,2.477 35.859,-10.721 38.335,-29.327 l 4.095,-30.771 c 2.478,-18.606 -10.722,-35.857 -29.329,-38.334 -18.603,-2.476 -35.854,10.721 -38.331,29.328 l -4.096,30.771 C -31.802,-19.726 -18.604,-2.476 0,0"
             style="fill:#f4ad85;fill-opacity:1;fill-rule:evenodd;stroke:none"
             id="path88"
             inkscape:connector-curvature="0" /></g><g
           id="g90"
           transform="translate(240.2466,347.6328)"><path
             d="m 0,0 v 0 c 17.648,2.35 34.073,-9.401 37.833,-26.493 -0.18,-1.641 -0.678,-3.312 -1.557,-5.009 l -15.77,0.921 c 0,0 -10.379,-19.842 -31.697,-24.663 -5.731,-1.296 -7.528,-7.071 -6.358,-12.559 2.851,-13.364 14.324,-32.514 42.577,-26.698 -3.602,-1.99 -7.619,-3.357 -11.927,-3.931 -18.603,-2.476 -35.854,10.722 -38.331,29.328 l -4.096,30.771 C -31.802,-19.726 -18.604,-2.476 0,0"
             style="fill:#ef8871;fill-opacity:1;fill-rule:evenodd;stroke:none"
             id="path92"
             inkscape:connector-curvature="0" /></g><g
           id="g94"
           transform="translate(234.0601,279.8184)"><path
             d="m 0,0 c 2.45,0.373 4.74,-1.312 5.113,-3.761 0.374,-2.45 -1.31,-4.74 -3.76,-5.114 -2.45,-0.372 -4.741,1.312 -5.114,3.761 C -4.134,-2.664 -2.45,-0.374 0,0"
             style="fill:#ea745d;fill-opacity:1;fill-rule:evenodd;stroke:none"
             id="path96"
             inkscape:connector-curvature="0" /></g><g
           id="g98"
           transform="translate(270.8486,285.6387)"><path
             d="M 0,0 C 2.45,0.373 4.74,-1.312 5.114,-3.761 5.487,-6.212 3.804,-8.5 1.354,-8.875 -1.097,-9.248 -3.387,-7.564 -3.761,-5.114 -4.134,-2.664 -2.45,-0.374 0,0"
             style="fill:#ea745d;fill-opacity:1;fill-rule:evenodd;stroke:none"
             id="path100"
             inkscape:connector-curvature="0" /></g><g
           id="g102"
           transform="translate(228.8076,297.665)"><path
             d="m 0,0 c -0.701,0.086 -1.342,-0.414 -1.429,-1.115 -0.086,-0.7 0.414,-1.343 1.111,-1.429 1.156,-0.157 2.534,-0.087 3.675,0.104 2.511,0.418 4.781,1.539 6.419,3.526 0.448,0.543 0.371,1.356 -0.172,1.805 C 9.061,3.34 8.246,3.263 7.798,2.719 5.926,0.448 2.816,-0.298 0,0"
             style="fill:#01020e;fill-opacity:1;fill-rule:evenodd;stroke:none"
             id="path104"
             inkscape:connector-curvature="0" /></g><g
           id="g106"
           transform="translate(285.3965,221.9756)"><path
             d="m 0,0 c 0,0 1.303,0.188 1.597,-0.833 0.293,-1.021 -4.027,-6.514 -4.308,-6.701 -0.281,-0.188 -8.849,0.891 -8.849,0.891 0,0 -0.452,0.423 -0.355,0.748 0.097,0.327 0.414,0.611 0.414,0.611 z"
             style="fill:#000618;fill-opacity:1;fill-rule:evenodd;stroke:none"
             id="path108"
             inkscape:connector-curvature="0" /></g><g
           id="g110"
           transform="translate(271.5479,307.6084)"><path
             d="m 0,0 c -2.801,0.507 -5.938,0.05 -8.002,-2.075 -0.492,-0.507 -1.307,-0.519 -1.813,-0.026 -0.506,0.494 -0.518,1.307 -0.026,1.814 1.795,1.849 4.148,2.781 6.684,2.994 1.152,0.097 2.532,0.055 3.668,-0.195 C 1.203,2.369 1.649,1.689 1.506,0.997 1.362,0.305 0.684,-0.141 0,0"
             style="fill:#01020e;fill-opacity:1;fill-rule:evenodd;stroke:none"
             id="path112"
             inkscape:connector-curvature="0" /></g><g
           id="g114"
           transform="translate(219.3877,293.8906)"><path
             d="M 0,0 C 0,0 0.302,-2.262 0.581,-4.361 0.86,-6.461 -3.17,-12.08 -4.78,-12.294 L -5.8,-4.63 c 0,0 -1.15,3.424 -5.49,2.846 -15.354,13.537 -16.832,38.071 -4.294,52.563 12.538,14.492 42.959,19.363 48.525,18.295 5.568,-1.067 12.262,-9.38 12.262,-9.38 0,0 3.986,4.64 8.465,3.1 C 58.147,61.253 75.727,36.635 76.608,30.012 77.49,23.389 66.416,8.559 66.416,8.559 62.076,7.981 61.861,4.376 61.861,4.376 l 0.634,-4.765 c -1.609,-0.215 -2.798,1.824 -3.077,3.923 -0.28,2.1 -0.581,4.362 -0.581,4.362 C 44.677,12.054 36.996,29.342 36.996,29.342 36.996,29.342 22.24,-0.293 0,0"
             style="fill:#000618;fill-opacity:1;fill-rule:evenodd;stroke:none"
             id="path116"
             inkscape:connector-curvature="0" /></g><g
           id="g118"
           transform="translate(195.3809,320.8828)"><path
             d="M 0,0 C -0.022,6.278 1.436,12.496 4.38,17.928 18.264,7.171 40.691,-0.031 59.371,41.23 60.575,40.64 61.779,39.826 62.911,38.935 55.675,17.951 37.192,-18.691 0,0"
             style="fill:#0f1630;fill-opacity:1;fill-rule:evenodd;stroke:none"
             id="path120"
             inkscape:connector-curvature="0" /></g><g
           id="g122"
           transform="translate(219.3877,293.8906)"><path
             d="M 0,0 C 0,0 0.302,-2.262 0.581,-4.361 0.86,-6.461 -3.17,-12.08 -4.78,-12.294 L -5.8,-4.63 c 0,0 -1.15,3.424 -5.49,2.846 -6.009,5.298 -9.892,12.28 -11.643,19.685 0.02,-0.013 26.302,-18.267 58.656,15.696 0,0 14.802,-23.086 36.46,-16.209 C 69.426,12.59 66.416,8.559 66.416,8.559 62.076,7.981 61.861,4.376 61.861,4.376 l 0.635,-4.765 c -1.61,-0.215 -2.799,1.824 -3.078,3.923 -0.279,2.1 -0.581,4.362 -0.581,4.362 C 44.677,12.054 36.996,29.342 36.996,29.342 36.996,29.342 22.24,-0.293 0,0"
             style="fill:#01020e;fill-opacity:1;fill-rule:evenodd;stroke:none"
             id="path124"
             inkscape:connector-curvature="0" /></g><g
           id="g126"
           transform="translate(284.5947,248.2578)"><path
             d="m 0,0 2.215,-0.604 c 0,0 1.298,11.559 1.286,12.679 -0.014,1.119 -0.585,2.731 -1.438,4.618 -0.855,1.888 -3.988,9.024 -4.156,9.252 -0.169,0.229 -2.194,-1.53 -1.281,-4.656 0.913,-3.127 2.46,-7.358 2.446,-8.263 -0.013,-0.905 -2.083,-8.912 -2.083,-8.912 z"
             style="fill:#ef8871;fill-opacity:1;fill-rule:evenodd;stroke:none"
             id="path128"
             inkscape:connector-curvature="0" /></g><g
           id="g130"
           transform="translate(286.8164,248.1572)"><path
             d="m 0,0 c -0.005,1.058 -0.36,2.944 -2.581,4.291 -2.221,1.347 -7.463,5.499 -8.581,5.984 -1.118,0.487 -2.399,0.267 -3.727,-0.581 -1.328,-0.848 -5.521,-3.728 -6.405,-4.647 -0.884,-0.918 -3.085,-6.574 -3.355,-7.168 -0.27,-0.594 1.945,-1.132 3.712,0.206 0,0 -0.925,-1.856 -1.222,-2.485 -0.297,-0.628 -0.706,-5.412 -0.742,-6.381 -0.037,-0.97 2.643,-0.486 3.552,1.744 0,0 -0.145,-1.606 -0.146,-2.105 -10e-4,-0.498 1.533,-0.31 1.533,-0.31 0,0 1.768,-9.591 2.164,-10.788 0.396,-1.197 15.623,-55.949 15.623,-55.949 l 22.027,1.33 c 0,0 -24.029,53.737 -24.187,54.527 C -3.697,-15.57 0.028,-5.684 0,0"
             style="fill:#f4ad85;fill-opacity:1;fill-rule:evenodd;stroke:none"
             id="path132"
             inkscape:connector-curvature="0" /></g><g
           id="g134"
           transform="translate(268.8545,236.7061)"><path
             d="M 0,0 0.094,-0.507 0.128,-0.691 0.131,-0.709 0.133,-0.717 0.138,-0.743 0.143,-0.77 0.147,-0.797 0.152,-0.82 v -0.004 l 0.006,-0.028 0.01,-0.056 0.006,-0.029 V -0.939 L 0.19,-1.026 0.196,-1.057 c 0.472,-2.526 1.654,-8.78 1.968,-9.732 0.294,-0.888 8.742,-31.224 13.09,-46.845 4.731,1.897 8.41,4.14 8.41,4.14 0,0 -17.04,39.667 -17.438,41.23 -0.398,1.563 0.539,2.803 0.21,3.225 -0.329,0.423 -1.644,1.033 -1.972,2.16 -0.328,1.127 -1.127,5.117 -0.61,6.713 C 4.252,1.066 5.546,0.915 6.116,0.782 6.768,0.599 7.392,0.415 7.787,0.363 8.642,0.25 8.577,0.771 8.577,0.771 8.766,2.538 10.48,5.053 10.48,5.053 9.547,5.561 8.1,7.968 8.1,7.968 7.146,8.38 6.396,8.91 5.651,8.384 4.905,7.856 2.834,5.703 2.826,5.515 2.818,5.327 2.61,3.216 2.254,1.802 1.898,0.388 0,0 0,0"
             style="fill:#ef8871;fill-opacity:1;fill-rule:evenodd;stroke:none"
             id="path136"
             inkscape:connector-curvature="0" /></g><g
           id="g138"
           transform="translate(170.3276,85.4102)"><path
             d="m 0,0 h 159.681 c 2.454,0 4.46,2.158 4.46,4.798 v 0.001 c 0,2.638 -2.007,4.797 -4.46,4.797 H 0 c -2.453,0 -4.459,-2.16 -4.459,-4.797 V 4.798 C -4.459,2.16 -2.453,0 0,0"
             style="fill:#000618;fill-opacity:1;fill-rule:evenodd;stroke:none"
             id="path140"
             inkscape:connector-curvature="0" /></g><g
           id="g142"
           transform="translate(332.9053,187.1807)"><path
             d="m 0,0 h -52.562 -60.351 -52.562 c -2.461,0 -4.171,-2.013 -3.8,-4.474 l 12.647,-83.998 c 0.37,-2.461 2.688,-4.474 5.148,-4.474 h 24.572 88.342 24.571 c 2.461,0 4.778,2.013 5.148,4.474 L 3.801,-4.474 C 4.172,-2.013 2.461,0 0,0"
             style="fill:#000618;fill-opacity:1;fill-rule:evenodd;stroke:none"
             id="path144"
             inkscape:connector-curvature="0" /></g><g
           id="g146"
           transform="translate(329.2256,183.2109)"><path
             d="m 0,0 h -50.225 -57.666 -50.223 c -2.352,0 -3.986,-1.924 -3.633,-4.274 l 12.086,-80.262 c 0.353,-2.352 2.567,-4.276 4.919,-4.276 h 23.478 84.412 23.479 c 2.352,0 4.565,1.924 4.92,4.276 L 3.632,-4.274 C 3.985,-1.924 2.352,0 0,0"
             style="fill:#0f1630;fill-opacity:1;fill-rule:evenodd;stroke:none"
             id="path148"
             inkscape:connector-curvature="0" /></g><g
           id="g150"
           transform="translate(176.4648,119.2598)"><path
             d="m 0,0 3.1,-20.585 c 0.353,-2.352 2.567,-4.275 4.919,-4.275 h 23.478 84.412 23.479 c 2.351,0 4.565,1.923 4.92,4.275 l 12.085,80.262 c 0.284,1.888 -0.715,3.502 -2.338,4.062 C 135.956,32.519 91.481,-18.62 0,0"
             style="fill:#000618;fill-opacity:1;fill-rule:evenodd;stroke:none"
             id="path152"
             inkscape:connector-curvature="0" /></g><g
           id="g154"
           transform="translate(250.1685,115.7354)"><path
             d="M 0,0 C 9.687,0 17.586,6.595 17.586,14.681 17.586,22.766 9.687,29.36 0,29.36 -9.687,29.36 -17.586,22.766 -17.586,14.681 -17.586,6.595 -9.687,0 0,0"
             style="fill:#000618;fill-opacity:1;fill-rule:evenodd;stroke:none"
             id="path156"
             inkscape:connector-curvature="0" /></g><g
           id="g158"
           transform="translate(261.0244,123.9111)"><path
             d="M 0,0 -6.141,3.38 -16.38,-3.655 c 1.684,-0.64 3.554,-0.995 5.524,-0.995 4.472,0 8.431,1.834 10.856,4.65 m -10.856,17.66 c 4.919,0 9.217,-2.22 11.537,-5.524 L -19.765,-1.809 c -2.734,2.042 -4.455,5.01 -4.455,8.314 0,6.16 5.983,11.155 13.364,11.155"
             style="fill:#ffffff;fill-opacity:1;fill-rule:evenodd;stroke:none"
             id="path160"
             inkscape:connector-curvature="0" /></g><g
           id="g162"
           transform="translate(267.9609,298.3662)"><path
             d="m 0,0 v 0 c -1.551,-0.247 -2.616,-1.716 -2.369,-3.265 l 0.585,-3.674 c 0.246,-1.55 1.716,-2.616 3.265,-2.37 1.549,0.247 2.617,1.716 2.37,3.267 L 3.266,-2.368 C 3.019,-0.818 1.55,0.247 0,0"
             style="fill:#01020e;fill-opacity:1;fill-rule:evenodd;stroke:none"
             id="path164"
             inkscape:connector-curvature="0" /></g><g
           id="g166"
           transform="translate(233.7778,293.1875)"><path
             d="m 0,0 v 0 c -1.55,-0.246 -2.615,-1.716 -2.369,-3.266 l 0.585,-3.673 c 0.247,-1.549 1.716,-2.617 3.266,-2.37 1.549,0.246 2.616,1.717 2.368,3.266 L 3.265,-2.368 C 3.019,-0.819 1.549,0.247 0,0"
             style="fill:#01020e;fill-opacity:1;fill-rule:evenodd;stroke:none"
             id="path168"
             inkscape:connector-curvature="0" /></g><g
           id="g170"
           transform="translate(264.9619,273.0576)"><path
             d="m 0,0 c 0.446,-0.37 0.536,-1.011 0.202,-1.43 -0.335,-0.419 -0.968,-0.458 -1.414,-0.087 -0.01,0.009 -3.419,2.984 -9.495,-2.612 -0.394,-0.363 -1.034,-0.313 -1.43,0.113 -0.396,0.426 -0.398,1.066 -0.005,1.429 C -4.807,4.168 -0.014,0.012 0,0"
             style="fill:#ef8871;fill-opacity:1;fill-rule:evenodd;stroke:none"
             id="path172"
             inkscape:connector-curvature="0" /></g><g
           id="g174"
           transform="translate(286.209,221.7822)"><path
             d="m 0,0 c 0,0 0.442,-0.053 0.513,-0.616 0.07,-0.564 -3.335,-4.988 -12.864,-5.323 0,0 -0.228,0.071 -0.263,0.217 -0.036,0.147 0.115,0.31 0.115,0.31 l -0.049,0.178 c 0,0 -0.343,-0.246 -0.343,-0.54 0,-0.293 1.409,-6.179 1.691,-7.659 0.281,-1.478 3.178,-1.136 5.626,-0.544 2.448,0.592 8.286,2.637 9.819,5.802 0,0 0.188,0.798 -0.047,1.48 -0.235,0.68 -3.192,6.161 -3.344,6.49 C 0.701,0.123 0.233,0.29 -0.097,0.222 Z"
             style="fill:#0f1630;fill-opacity:1;fill-rule:evenodd;stroke:none"
             id="path176"
             inkscape:connector-curvature="0" /></g><g
           id="g178"
           transform="translate(278.3818,216.3672)"><path
             d="m 0,0 c -1.324,-0.274 -2.826,-0.465 -4.523,-0.524 0,0 -0.229,0.071 -0.264,0.217 -0.036,0.147 0.115,0.31 0.115,0.31 l -0.049,0.178 c 0,0 -0.342,-0.246 -0.342,-0.54 0,-0.293 1.408,-6.179 1.69,-7.659 0.281,-1.478 3.178,-1.136 5.626,-0.544 0.348,0.084 0.766,0.198 1.229,0.34 L 0,-0.001 Z"
             style="fill:#000618;fill-opacity:1;fill-rule:evenodd;stroke:none"
             id="path180"
             inkscape:connector-curvature="0" /></g><g
           id="g182"
           transform="translate(118.1206,80.8643)"><path
             d="m 0,0 h 263.769 c 3.313,0 6.023,-2.711 6.023,-6.024 0,-3.313 -2.71,-6.024 -6.023,-6.024 H 0 c -3.313,0 -6.024,2.71 -6.024,6.024 C -6.024,-2.711 -3.313,0 0,0"
             style="fill:#000618;fill-opacity:1;fill-rule:evenodd;stroke:none"
             id="path184"
             inkscape:connector-curvature="0" /></g><g
           id="g186"
           transform="translate(105.2974,90.209)"><path
             d="m 0,0 h 289.416 c 4.225,0 7.683,-3.458 7.683,-7.684 v -10e-4 c 0,-4.225 -3.458,-7.684 -7.683,-7.684 H 0 c -4.226,0 -7.684,3.458 -7.684,7.684 v 10e-4 C -7.684,-3.458 -4.226,0 0,0"
             style="fill:#be865e;fill-opacity:1;fill-rule:evenodd;stroke:none"
             id="path188"
             inkscape:connector-curvature="0" /></g><path
           d="m 280.718,90.209 h 15.988 V 74.84 h -15.988 z"
           style="fill:#915e40;fill-opacity:1;fill-rule:evenodd;stroke:none"
           id="path190"
           inkscape:connector-curvature="0" /><path
           d="m 305.012,90.209 h 8.306 V 74.84 h -8.306 z"
           style="fill:#915e40;fill-opacity:1;fill-rule:evenodd;stroke:none"
           id="path192"
           inkscape:connector-curvature="0" /><path
           d="m 322.039,90.209 h 4.153 V 74.84 h -4.153 z"
           style="fill:#915e40;fill-opacity:1;fill-rule:evenodd;stroke:none"
           id="path194"
           inkscape:connector-curvature="0" /><path
           d="M 340.415,90.209 H 358.3 V 74.84 h -17.885 z"
           style="fill:#915e40;fill-opacity:1;fill-rule:evenodd;stroke:none"
           id="path196"
           inkscape:connector-curvature="0" /><path
           d="m 371.783,90.209 h 8.942 V 74.84 h -8.942 z"
           style="fill:#915e40;fill-opacity:1;fill-rule:evenodd;stroke:none"
           id="path198"
           inkscape:connector-curvature="0" /><g
           id="g200"
           transform="translate(105.918,87.7139)"><path
             d="m 0,0 h 140.662 c 2.511,0 4.567,-2.056 4.567,-4.567 v -10e-4 c 0,-2.512 -2.056,-4.568 -4.567,-4.568 H 0 c -2.511,0 -4.567,2.056 -4.567,4.568 v 10e-4 C -4.567,-2.056 -2.512,0 0,0"
             style="fill:#d49d80;fill-opacity:1;fill-rule:evenodd;stroke:none"
             id="path202"
             inkscape:connector-curvature="0" /></g><g
           id="g204"
           transform="translate(199.1836,401.5908)"><path
             d="M 0,0 3.288,-18.927 45.958,15.394 1.403,4.437 Z"
             style="fill:#d5eaf5;fill-opacity:1;fill-rule:evenodd;stroke:none"
             id="path206"
             inkscape:connector-curvature="0" /></g><g
           id="g208"
           transform="translate(202.4717,382.6641)"><path
             d="m 0,0 16.455,13.235 c 0.22,1.548 0.77,3.356 0.77,3.356 L 3.399,12.876 Z"
             style="fill:#ecf6fc;fill-opacity:1;fill-rule:evenodd;stroke:none"
             id="path210"
             inkscape:connector-curvature="0" /></g><g
           id="g212"
           transform="translate(245.1411,416.9844)"><path
             d="m 0,0 -57.705,-10.674 11.747,-4.72 z"
             style="fill:#ffffff;fill-opacity:1;fill-rule:evenodd;stroke:none"
             id="path214"
             inkscape:connector-curvature="0" /></g><g
           id="g216"
           transform="translate(245.1411,416.9844)"><path
             d="m 0,0 -25.932,-34.453 -13.339,13.009 z"
             style="fill:#ffffff;fill-opacity:1;fill-rule:evenodd;stroke:none"
             id="path218"
             inkscape:connector-curvature="0" /></g><g
           id="g220"
           transform="translate(97.0703,239.6943)"><path
             d="m 0,0 c 5.619,1.338 11.473,2.05 17.485,2.05 8.382,0 15.239,6.857 15.239,15.238 0,0.73 -0.053,1.447 -0.153,2.149 h 24.098 c 3.636,0 6.611,-2.974 6.611,-6.61 v -27.263 -2.016 -17.355 c 0,-0.304 -0.174,-0.565 -0.456,-0.681 -0.282,-0.117 -0.589,-0.056 -0.804,0.159 L 50.755,-23.063 H 6.611 C 2.975,-23.063 0,-20.089 0,-16.452 Z"
             style="fill:#a6cae4;fill-opacity:1;fill-rule:evenodd;stroke:none"
             id="path222"
             inkscape:connector-curvature="0" /></g><g
           id="g224"
           transform="translate(101.167,261.6465)"><path
             d="m 0,0 h 50.058 c 3.636,0 6.611,-2.975 6.611,-6.61 v -27.264 -2.017 -17.353 c 0,-0.306 -0.174,-0.566 -0.456,-0.683 -0.282,-0.116 -0.588,-0.055 -0.804,0.16 L 44.144,-42.501 H 0 c -3.636,0 -6.611,2.975 -6.611,6.61 V -6.61 C -6.611,-2.975 -3.636,0 0,0"
             style="fill:#dc5645;fill-opacity:1;fill-rule:evenodd;stroke:none"
             id="path226"
             inkscape:connector-curvature="0" /></g><g
           id="g228"
           transform="translate(141.4277,247.6143)"><path
             d="m 0,0 -8.532,0.033 c -0.159,0 -0.321,0.037 -0.473,0.114 l -14.686,7.499 -0.097,-26.723 14.712,7.37 c 0.148,0.08 0.318,0.126 0.498,0.125 l 8.441,-0.033 0.112,0.004 c 1.518,0 2.903,0.641 3.911,1.674 1.001,1.028 1.633,2.439 1.661,3.996 l -0.003,0.108 c 0,1.607 -0.627,3.068 -1.64,4.125 C 2.899,-0.659 1.519,-0.006 0,0 M -8.282,2.109 0,2.077 C 2.114,2.069 4.024,1.172 5.403,-0.266 6.778,-1.701 7.629,-3.673 7.629,-5.833 v -0.028 c 0,-0.035 -0.002,-0.069 -0.005,-0.103 -0.034,-2.114 -0.89,-4.029 -2.248,-5.422 -1.389,-1.427 -3.302,-2.31 -5.401,-2.31 H -0.05 c -0.032,0 -0.064,0.002 -0.095,0.005 l -8.194,0.032 -14.606,-7.318 c -0.325,-0.163 -0.667,-0.234 -1.007,-0.214 -0.343,0.019 -0.677,0.129 -0.98,0.326 -0.3,0.195 -0.535,0.455 -0.696,0.758 -0.156,0.295 -0.238,0.628 -0.237,0.982 l 0.097,26.827 c 0.001,0.361 0.086,0.696 0.245,0.99 0.163,0.303 0.399,0.559 0.699,0.751 0.304,0.195 0.639,0.302 0.985,0.319 0.344,0.017 0.687,-0.055 1.006,-0.218 L -22.756,9.5 Z"
             style="fill:#ffffff;fill-opacity:1;fill-rule:evenodd;stroke:none"
             id="path230"
             inkscape:connector-curvature="0" /></g><g
           id="g232"
           transform="translate(143.2681,235.2393)"><path
             d="m 0,0 v -9.351 c 0,-1.833 -1.5,-3.333 -3.333,-3.333 -1.834,0 -3.334,1.5 -3.334,3.333 V -0.26 L -1.89,-0.278 C -1.235,-0.281 -0.6,-0.184 0,0"
             style="fill:#ffffff;fill-opacity:1;fill-rule:evenodd;stroke:none"
             id="path234"
             inkscape:connector-curvature="0" /></g><path
           d="m 134.441,234.981 h 1.563 v 13.696 h -1.563 z"
           style="fill:#ffffff;fill-opacity:1;fill-rule:evenodd;stroke:none"
           id="path236"
           inkscape:connector-curvature="0" /><path
           d="m 139.452,234.981 h 1.563 v 13.696 h -1.563 z"
           style="fill:#ffffff;fill-opacity:1;fill-rule:evenodd;stroke:none"
           id="path238"
           inkscape:connector-curvature="0" /><g
           id="g240"
           transform="translate(112.2002,239.5264)"><path
             d="M 0,0 C 0.567,0.097 1.105,-0.284 1.201,-0.851 1.298,-1.417 0.917,-1.955 0.351,-2.052 l -7.999,-1.392 c -0.567,-0.097 -1.105,0.284 -1.202,0.85 -0.097,0.567 0.284,1.105 0.851,1.201 z M 0.627,12.733 C 1.145,12.484 1.361,11.862 1.112,11.345 0.862,10.828 0.241,10.611 -0.277,10.86 L -6.3,13.769 c -0.517,0.249 -0.734,0.871 -0.484,1.388 0.249,0.517 0.871,0.735 1.388,0.485 z M -0.277,-6.114 C 0.241,-5.865 0.862,-6.082 1.112,-6.6 1.361,-7.116 1.145,-7.738 0.627,-7.987 l -5.269,-2.544 c -0.518,-0.25 -1.139,-0.033 -1.389,0.484 -0.249,0.517 -0.032,1.139 0.485,1.389 z M 0.351,6.798 C 0.917,6.701 1.298,6.163 1.201,5.597 1.105,5.03 0.567,4.649 0,4.745 l -7.999,1.394 c -0.567,0.095 -0.948,0.634 -0.851,1.201 0.097,0.566 0.635,0.947 1.202,0.85 z"
             style="fill:#ffffff;fill-opacity:1;fill-rule:evenodd;stroke:none"
             id="path242"
             inkscape:connector-curvature="0" /></g><g
           id="g244"
           transform="translate(380.0166,380.8164)"><path
             d="m 0,0 h -52.08 c -3.783,0 -6.878,-3.095 -6.878,-6.878 v -28.363 -2.099 -18.055 c 0,-0.317 0.181,-0.587 0.475,-0.709 0.293,-0.122 0.612,-0.058 0.836,0.166 l 11.72,11.72 H 0 c 3.782,0 6.877,3.095 6.877,6.878 V -6.878 C 6.877,-3.095 3.782,0 0,0"
             style="fill:#a6cae4;fill-opacity:1;fill-rule:evenodd;stroke:none"
             id="path246"
             inkscape:connector-curvature="0" /></g><g
           id="g248"
           transform="translate(377.0264,380.8164)"><path
             d="m 0,0 h -52.079 c -3.783,0 -6.878,-3.095 -6.878,-6.878 v -28.363 -2.099 -18.055 c 0,-0.317 0.181,-0.587 0.474,-0.709 0.293,-0.122 0.612,-0.058 0.837,0.166 l 11.719,11.72 H 0 c 3.783,0 6.878,3.095 6.878,6.878 V -6.878 C 6.878,-3.095 3.783,0 0,0"
             style="fill:#dc5645;fill-opacity:1;fill-rule:evenodd;stroke:none"
             id="path250"
             inkscape:connector-curvature="0" /></g><g
           id="g252"
           transform="translate(337.9834,359.6523)"><path
             d="M 0,0 C 2.729,0 4.954,2.227 4.954,4.955 4.954,7.685 2.729,9.911 0,9.911 -2.729,9.911 -4.956,7.685 -4.956,4.955 -4.956,2.227 -2.729,0 0,0"
             style="fill:#f09a9b;fill-opacity:1;fill-rule:evenodd;stroke:none"
             id="path254"
             inkscape:connector-curvature="0" /></g><g
           id="g256"
           transform="translate(337.9834,358.083)"><path
             d="m 0,0 v 0 c 3.864,0 7.026,-3.162 7.026,-7.026 v -3.023 -1.843 -1.989 c 0,-0.432 -0.353,-0.786 -0.787,-0.786 h -12.48 c -0.432,0 -0.785,0.354 -0.785,0.786 v 1.989 1.843 3.023 C -7.026,-3.162 -3.864,0 0,0"
             style="fill:#f09a9b;fill-opacity:1;fill-rule:evenodd;stroke:none"
             id="path258"
             inkscape:connector-curvature="0" /></g><g
           id="g260"
           transform="translate(363.9902,359.6523)"><path
             d="M 0,0 C 2.729,0 4.955,2.227 4.955,4.955 4.955,7.685 2.729,9.911 0,9.911 -2.729,9.911 -4.955,7.685 -4.955,4.955 -4.955,2.227 -2.729,0 0,0"
             style="fill:#f09a9b;fill-opacity:1;fill-rule:evenodd;stroke:none"
             id="path262"
             inkscape:connector-curvature="0" /></g><g
           id="g264"
           transform="translate(363.9902,358.083)"><path
             d="m 0,0 v 0 c 3.864,0 7.026,-3.162 7.026,-7.026 v -3.023 -1.843 -1.989 c 0,-0.432 -0.353,-0.786 -0.786,-0.786 H -6.24 c -0.433,0 -0.785,0.354 -0.785,0.786 v 1.989 1.843 3.023 C -7.025,-3.162 -3.864,0 0,0"
             style="fill:#f09a9b;fill-opacity:1;fill-rule:evenodd;stroke:none"
             id="path266"
             inkscape:connector-curvature="0" /></g><g
           id="g268"
           transform="translate(350.9873,362.9463)"><path
             d="m 0,0 c 3.283,0 5.96,2.678 5.96,5.961 0,3.282 -2.677,5.96 -5.96,5.96 -3.283,0 -5.961,-2.678 -5.961,-5.96 C -5.961,2.678 -3.283,0 0,0"
             style="fill:#ffffff;fill-opacity:1;fill-rule:evenodd;stroke:none"
             id="path270"
             inkscape:connector-curvature="0" /></g><g
           id="g272"
           transform="translate(350.9873,361.0576)"><path
             d="m 0,0 v 0 c 4.648,0 8.451,-3.803 8.451,-8.451 v -3.635 -2.217 -2.393 c 0,-0.521 -0.425,-0.946 -0.945,-0.946 H -7.507 c -0.52,0 -0.945,0.425 -0.945,0.946 v 2.393 2.217 3.635 C -8.452,-3.803 -4.648,0 0,0"
             style="fill:#ffffff;fill-opacity:1;fill-rule:evenodd;stroke:none"
             id="path274"
             inkscape:connector-curvature="0" /></g><g
           id="g276"
           transform="translate(415.8838,209.2031)"><path
             d="m 0,0 c -1.559,-0.363 -3.146,-0.89 -4.576,-1.631 0.299,-0.355 0.612,-0.698 0.941,-1.027 C -1.77,-4.524 0.525,-5.891 3.04,-6.637 2.327,-5.746 1.751,-4.722 1.292,-3.716 0.75,-2.524 0.329,-1.269 0,0 m 19.658,-1.631 c -1.429,0.74 -3.016,1.267 -4.576,1.631 -0.329,-1.269 -0.75,-2.524 -1.291,-3.715 -0.459,-1.008 -1.036,-2.031 -1.749,-2.922 2.515,0.746 4.81,2.113 6.676,3.979 0.328,0.329 0.641,0.672 0.94,1.027 m -4.369,17.819 c 1.662,0.408 3.378,1.003 4.87,1.852 -0.441,0.584 -0.924,1.138 -1.441,1.656 -1.866,1.866 -4.16,3.234 -6.675,3.98 0.712,-0.891 1.289,-1.915 1.748,-2.921 0.66,-1.452 1.145,-3.007 1.498,-4.567 M -5.077,18.04 c 1.492,-0.849 3.208,-1.444 4.87,-1.852 0.353,1.56 0.838,3.115 1.5,4.567 0.458,1.006 1.034,2.03 1.747,2.921 C 0.525,22.93 -1.77,21.562 -3.635,19.696 -4.153,19.178 -4.636,18.624 -5.077,18.04 M 6.598,15.312 v 8.842 C 4.918,23.545 3.679,21.447 3.007,19.973 2.403,18.647 1.962,17.225 1.639,15.8 3.273,15.512 4.937,15.355 6.598,15.312 m 0,-22.427 v 7.94 C 5.009,0.784 3.417,0.64 1.851,0.375 c 0.296,-1.13 0.673,-2.249 1.157,-3.309 0.671,-1.475 1.91,-3.572 3.59,-4.181 m 1.887,7.94 v -7.94 c 1.68,0.61 2.918,2.707 3.59,4.181 0.483,1.06 0.86,2.179 1.156,3.309 -1.566,0.265 -3.158,0.409 -4.746,0.45 m 0,23.329 v -8.842 c 1.66,0.043 3.324,0.2 4.958,0.488 -0.323,1.425 -0.764,2.847 -1.368,4.173 -0.672,1.474 -1.91,3.572 -3.59,4.181 m 7.613,-14.69 h 7.221 c -0.145,2.472 -0.865,4.862 -2.111,7.002 -1.698,-0.988 -3.655,-1.671 -5.559,-2.131 0.264,-1.608 0.409,-3.241 0.449,-4.871 m -2.296,4.484 c -1.753,-0.312 -3.536,-0.48 -5.317,-0.524 v -3.96 h 5.725 c -0.038,1.5 -0.17,3.002 -0.408,4.484 m -12.521,0 C 1.043,12.466 0.911,10.964 0.873,9.464 h 5.725 v 3.96 C 4.817,13.468 3.033,13.636 1.281,13.948 M -8.237,9.464 h 7.221 c 0.04,1.63 0.185,3.263 0.449,4.871 -1.907,0.461 -3.867,1.144 -5.558,2.131 -1.247,-2.14 -1.967,-4.53 -2.112,-7.002 m 7.221,-1.889 h -7.221 c 0.161,-2.739 1.026,-5.373 2.524,-7.673 1.645,0.89 3.487,1.514 5.299,1.938 -0.362,1.886 -0.554,3.815 -0.602,5.735 m 7.614,0 H 0.873 C 0.918,5.782 1.097,3.979 1.435,2.217 3.138,2.512 4.869,2.672 6.598,2.714 Z m 7.612,0 H 8.485 V 2.714 c 1.729,-0.042 3.46,-0.202 5.163,-0.497 0.337,1.762 0.516,3.565 0.562,5.358 m 9.109,0 h -7.22 C 16.051,5.655 15.858,3.726 15.496,1.84 c 1.812,-0.424 3.654,-1.048 5.299,-1.938 1.498,2.3 2.363,4.934 2.524,7.673 M 7.541,26.214 c 4.709,0 9.183,-1.855 12.512,-5.183 3.329,-3.329 5.182,-7.803 5.182,-12.511 0,-4.709 -1.853,-9.184 -5.182,-12.512 -3.329,-3.329 -7.803,-5.183 -12.512,-5.183 -4.709,0 -9.183,1.854 -12.512,5.183 -3.328,3.328 -5.182,7.803 -5.182,12.512 0,4.708 1.854,9.182 5.182,12.511 3.329,3.328 7.803,5.183 12.512,5.183"
             style="fill:#ffffff;fill-opacity:1;fill-rule:evenodd;stroke:none"
             id="path278"
             inkscape:connector-curvature="0" /></g><g
           id="g280"
           transform="translate(75.1006,314.8047)"><path
             d="M 0,0 H -3.545 C -3.602,0 -3.65,-0.016 -3.68,-0.043 L -3.703,-0.067 C -3.745,-0.108 -3.77,-0.165 -3.77,-0.224 v -11.195 c 0,-0.06 0.025,-0.116 0.067,-0.158 0.043,-0.042 0.098,-0.067 0.158,-0.067 H 0 c 0.057,0 0.104,0.015 0.134,0.041 l 0.024,0.026 c 0.041,0.042 0.066,0.098 0.066,0.158 v 11.195 c 0,0.06 -0.025,0.117 -0.067,0.159 C 0.115,-0.024 0.059,0 0,0 M 2.207,-9.456 C 3.1,-10.357 4.6,-11.54 5.875,-11.54 h 7.799 c 1.135,0 2.057,0.773 2.273,1.893 0.062,0.296 0.255,0.548 0.527,0.684 0.72,0.36 0.741,1.544 0.638,2.205 -0.082,0.381 0.068,0.77 0.383,1.001 0.94,0.693 0.622,2.197 0.219,3.091 -0.122,0.224 -0.149,0.478 -0.083,0.724 0.095,0.353 0.167,0.733 0.167,1.1 0,0.323 -0.058,0.681 -0.279,0.933 -0.186,0.212 -0.468,0.335 -0.735,0.407 -0.301,0.081 -0.622,0.109 -0.932,0.109 h -4.254 c -0.95,0 -1.719,0.314 -2.105,1.246 C 9.048,2.926 9.463,4.538 9.792,5.59 9.949,6.095 10.034,6.617 10.035,7.146 10.036,7.893 9.861,8.661 9.491,9.313 9.376,9.517 9.055,10 8.811,10.104 H 8.149 C 8.125,8.812 8.036,7.475 7.689,6.237 7.225,4.582 6.339,3.277 4.8,2.448 3.333,1.658 2.457,-0.261 2.207,-1.855 Z M 1.318,1.542 c 0.598,1.094 1.428,2.049 2.543,2.649 1.044,0.562 1.609,1.462 1.922,2.58 0.377,1.345 0.392,2.932 0.392,4.324 0,0.547 0.444,0.99 0.992,0.99 h 1.696 c 0.173,0 0.345,-0.03 0.51,-0.081 0.784,-0.245 1.448,-1.025 1.839,-1.715 C 11.75,9.341 12.013,8.232 12.015,7.146 12.016,6.418 11.899,5.695 11.682,5.001 11.531,4.52 11.114,3.111 11.308,2.63 11.357,2.595 11.539,2.59 11.598,2.59 h 4.254 c 0.484,0 0.976,-0.053 1.444,-0.179 0.658,-0.177 1.257,-0.501 1.711,-1.016 0.552,-0.63 0.773,-1.411 0.773,-2.237 0,-0.429 -0.059,-0.859 -0.153,-1.278 0.613,-1.58 0.736,-3.544 -0.509,-4.838 0.077,-1.307 -0.246,-2.731 -1.354,-3.527 -0.604,-1.843 -2.084,-3.037 -4.09,-3.037 H 5.875 c -1.332,0 -2.663,0.706 -3.746,1.523 -0.102,-0.368 -0.299,-0.709 -0.583,-0.992 L 1.512,-13.022 C 1.102,-13.409 0.564,-13.626 0,-13.626 h -3.545 c -0.586,0 -1.145,0.232 -1.559,0.647 -0.415,0.415 -0.647,0.973 -0.647,1.56 v 11.195 c 0,0.586 0.232,1.145 0.661,1.573 l 0.033,0.029 c 0.41,0.388 0.948,0.603 1.512,0.603 H 0 c 0.479,0 0.939,-0.156 1.318,-0.439"
             style="fill:#ffffff;fill-opacity:1;fill-rule:evenodd;stroke:none"
             id="path282"
             inkscape:connector-curvature="0" /></g><g
           id="g284"
           transform="translate(358.6299,392.6094)"><path
             d="m 0,0 h 3.005 c 0.723,0 1.314,0.592 1.314,1.314 v 3.005 c 0,0.723 -0.591,1.315 -1.314,1.315 H 0 c -0.724,0 -1.314,-0.592 -1.314,-1.315 V 1.314 C -1.314,0.592 -0.724,0 0,0"
             style="fill:#ffffff;fill-opacity:1;fill-rule:evenodd;stroke:none"
             id="path286"
             inkscape:connector-curvature="0" /></g><g
           id="g288"
           transform="translate(369.0508,392.6094)"><path
             d="m 0,0 h 3.005 c 0.724,0 1.314,0.592 1.314,1.314 v 3.005 c 0,0.723 -0.59,1.315 -1.314,1.315 H 0 c -0.723,0 -1.314,-0.592 -1.314,-1.315 V 1.314 C -1.314,0.592 -0.723,0 0,0"
             style="fill:#a6cae4;fill-opacity:1;fill-rule:evenodd;stroke:none"
             id="path290"
             inkscape:connector-curvature="0" /></g><g
           id="g292"
           transform="translate(379.4717,392.6094)"><path
             d="m 0,0 h 3.005 c 0.724,0 1.314,0.592 1.314,1.314 v 3.005 c 0,0.723 -0.59,1.315 -1.314,1.315 H 0 c -0.723,0 -1.313,-0.592 -1.313,-1.315 V 1.314 C -1.313,0.592 -0.723,0 0,0"
             style="fill:#ffffff;fill-opacity:1;fill-rule:evenodd;stroke:none"
             id="path294"
             inkscape:connector-curvature="0" /></g><g
           id="g296"
           transform="translate(389.8936,392.6094)"><path
             d="m 0,0 h 3.005 c 0.723,0 1.314,0.592 1.314,1.314 v 3.005 c 0,0.723 -0.591,1.315 -1.314,1.315 H 0 c -0.723,0 -1.314,-0.592 -1.314,-1.315 V 1.314 C -1.314,0.592 -0.723,0 0,0"
             style="fill:#a6cae4;fill-opacity:1;fill-rule:evenodd;stroke:none"
             id="path298"
             inkscape:connector-curvature="0" /></g><g
           id="g300"
           transform="translate(400.3145,392.6094)"><path
             d="m 0,0 h 3.005 c 0.724,0 1.314,0.592 1.314,1.314 v 3.005 c 0,0.723 -0.59,1.315 -1.314,1.315 H 0 c -0.723,0 -1.313,-0.592 -1.313,-1.315 V 1.314 C -1.313,0.592 -0.723,0 0,0"
             style="fill:#ffffff;fill-opacity:1;fill-rule:evenodd;stroke:none"
             id="path302"
             inkscape:connector-curvature="0" /></g><g
           id="g304"
           transform="translate(410.7354,392.6094)"><path
             d="M 0,0 H 3.006 C 3.729,0 4.32,0.592 4.32,1.314 v 3.005 c 0,0.723 -0.591,1.315 -1.314,1.315 H 0 c -0.723,0 -1.313,-0.592 -1.313,-1.315 V 1.314 C -1.313,0.592 -0.723,0 0,0"
             style="fill:#ffffff;fill-opacity:1;fill-rule:evenodd;stroke:none"
             id="path306"
             inkscape:connector-curvature="0" /></g><g
           id="g308"
           transform="translate(421.1572,392.6094)"><path
             d="m 0,0 h 3.005 c 0.723,0 1.314,0.592 1.314,1.314 v 3.005 c 0,0.723 -0.591,1.315 -1.314,1.315 H 0 c -0.723,0 -1.314,-0.592 -1.314,-1.315 V 1.314 C -1.314,0.592 -0.723,0 0,0"
             style="fill:#ffffff;fill-opacity:1;fill-rule:evenodd;stroke:none"
             id="path310"
             inkscape:connector-curvature="0" /></g><g
           id="g312"
           transform="translate(390.2705,403.9707)"><path
             d="m 0,0 h 3.005 c 0.723,0 1.314,0.591 1.314,1.313 v 3.006 c 0,0.723 -0.591,1.314 -1.314,1.314 H 0 c -0.723,0 -1.314,-0.591 -1.314,-1.314 V 1.313 C -1.314,0.591 -0.723,0 0,0"
             style="fill:#ffffff;fill-opacity:1;fill-rule:evenodd;stroke:none"
             id="path314"
             inkscape:connector-curvature="0" /></g><g
           id="g316"
           transform="translate(400.6924,403.9707)"><path
             d="m 0,0 h 3.005 c 0.723,0 1.314,0.591 1.314,1.313 v 3.006 c 0,0.723 -0.591,1.314 -1.314,1.314 H 0 c -0.724,0 -1.314,-0.591 -1.314,-1.314 V 1.313 C -1.314,0.591 -0.724,0 0,0"
             style="fill:#a6cae4;fill-opacity:1;fill-rule:evenodd;stroke:none"
             id="path318"
             inkscape:connector-curvature="0" /></g><g
           id="g320"
           transform="translate(411.1133,403.9707)"><path
             d="m 0,0 h 3.005 c 0.724,0 1.314,0.591 1.314,1.313 v 3.006 c 0,0.723 -0.59,1.314 -1.314,1.314 H 0 c -0.723,0 -1.314,-0.591 -1.314,-1.314 V 1.313 C -1.314,0.591 -0.723,0 0,0"
             style="fill:#ffffff;fill-opacity:1;fill-rule:evenodd;stroke:none"
             id="path322"
             inkscape:connector-curvature="0" /></g><g
           id="g324"
           transform="translate(400.3145,380.4043)"><path
             d="m 0,0 h 3.005 c 0.723,0 1.314,0.591 1.314,1.313 v 3.006 c 0,0.723 -0.591,1.314 -1.314,1.314 H 0 c -0.723,0 -1.313,-0.591 -1.313,-1.314 V 1.313 C -1.313,0.591 -0.723,0 0,0"
             style="fill:#ffffff;fill-opacity:1;fill-rule:evenodd;stroke:none"
             id="path326"
             inkscape:connector-curvature="0" /></g><g
           id="g328"
           transform="translate(410.7354,380.4043)"><path
             d="m 0,0 h 3.006 c 0.723,0 1.313,0.591 1.313,1.313 v 3.006 c 0,0.723 -0.59,1.314 -1.313,1.314 H 0 c -0.723,0 -1.313,-0.591 -1.313,-1.314 V 1.313 C -1.313,0.591 -0.723,0 0,0"
             style="fill:#a6cae4;fill-opacity:1;fill-rule:evenodd;stroke:none"
             id="path330"
             inkscape:connector-curvature="0" /></g><g
           id="g332"
           transform="translate(147.4316,306.666)"><path
             d="M 0,0 V 0 C 3.003,3.004 7.918,3.004 10.921,0 L 11.663,-0.741 12.404,0 c 3.003,3.004 7.917,3.004 10.921,0 3.004,-3.003 3.004,-7.917 0,-10.921 L 22.583,-11.662 11.663,-22.583 0.741,-11.662 0,-10.921 C -3.003,-7.917 -3.003,-3.003 0,0"
             style="fill:#ffffff;fill-opacity:1;fill-rule:evenodd;stroke:none"
             id="path334"
             inkscape:connector-curvature="0" /></g><g
           id="g336"
           transform="translate(132.6899,178.3848)"><path
             d="m 0,0 c -8.01,8.155 -13.968,-2.204 -13.136,-12.604 0.788,-9.859 9.287,-43.688 7.712,-57.92 H -2.17 C 5.791,-52.274 10.254,-10.44 0,0"
             style="fill:#63a9ba;fill-opacity:1;fill-rule:evenodd;stroke:none"
             id="path338"
             inkscape:connector-curvature="0" /></g><g
           id="g340"
           transform="translate(129.3232,107.8604)"><path
             d="M 0,0 C 7.748,28.765 -2.061,68.526 -2.094,68.662 -2.153,68.909 -2.402,69.061 -2.649,69 -2.896,68.94 -3.048,68.691 -2.988,68.444 -2.955,68.31 6.866,28.503 -0.941,0 Z"
             style="fill:#80b9c9;fill-opacity:1;fill-rule:evenodd;stroke:none"
             id="path342"
             inkscape:connector-curvature="0" /></g><g
           id="g344"
           transform="translate(112.9292,160.4111)"><path
             d="m 0,0 c -8.44,4.472 -10.569,-5.285 -7.278,-13.358 2.727,-6.69 14.775,-26.479 19.33,-39.193 h 4.29 C 16.707,-34.98 9.964,-5.278 0,0"
             style="fill:#ffffff;fill-opacity:1;fill-rule:evenodd;stroke:none"
             id="path346"
             inkscape:connector-curvature="0" /></g><g
           id="g348"
           transform="translate(127.7036,107.8604)"><path
             d="m 0,0 c -2.792,23.764 -18.596,49.594 -18.653,49.688 -0.11,0.181 -0.347,0.239 -0.528,0.129 -0.181,-0.11 -0.239,-0.346 -0.129,-0.528 C -19.254,49.195 -3.551,23.532 -0.763,0 Z"
             style="fill:#b8b8c1;fill-opacity:1;fill-rule:evenodd;stroke:none"
             id="path350"
             inkscape:connector-curvature="0" /></g><g
           id="g352"
           transform="translate(148.604,149.1328)"><path
             d="M 0,0 C 8.181,3.573 9.478,-5.669 5.843,-12.961 3.384,-17.895 -5.478,-30.526 -11.446,-41.272 h -6.811 C -15.928,-25.016 -8.456,-3.694 0,0"
             style="fill:#3a7f80;fill-opacity:1;fill-rule:evenodd;stroke:none"
             id="path354"
             inkscape:connector-curvature="0" /></g><g
           id="g356"
           transform="translate(132.7788,107.8604)"><path
             d="m 0,0 c 5.808,19.695 19.185,38.256 19.238,38.331 0.115,0.161 0.34,0.198 0.501,0.083 0.162,-0.115 0.199,-0.34 0.084,-0.501 C 19.77,37.839 6.535,19.472 0.74,0 Z"
             style="fill:#51a5a5;fill-opacity:1;fill-rule:evenodd;stroke:none"
             id="path358"
             inkscape:connector-curvature="0" /></g><g
           id="g360"
           transform="translate(116.0913,115.5332)"><path
             d="m 0,0 h 28.284 c 0.846,0 1.538,-0.691 1.538,-1.538 v -6.983 c 0,-0.846 -0.692,-1.539 -1.538,-1.539 L 0,-10.06 c -0.846,0 -1.538,0.693 -1.538,1.539 v 6.983 C -1.538,-0.691 -0.846,0 0,0"
             style="fill:#2f365c;fill-opacity:1;fill-rule:evenodd;stroke:none"
             id="path362"
             inkscape:connector-curvature="0" /></g><g
           id="g364"
           transform="translate(120.9424,109.8535)"><path
             d="m 0,0 h 18.581 l 4.852,-4.379 -3.964,-15.266 H 9.291 -0.888 l -3.963,15.266 z"
             style="fill:#2f365c;fill-opacity:1;fill-rule:evenodd;stroke:none"
             id="path366"
             inkscape:connector-curvature="0" /></g><g
           id="g368"
           transform="translate(144.375,105.4746)"><path
             d="M 0,0 -0.815,-3.138 H -27.469 L -28.284,0 Z"
             style="fill:#121c39;fill-opacity:1;fill-rule:evenodd;stroke:none"
             id="path370"
             inkscape:connector-curvature="0" /></g><g
           id="g372"
           transform="translate(278.9199,395.5205)"><path
             d="M 0,0 C 1.448,0 2.629,1.181 2.629,2.629 2.629,4.077 1.448,5.258 0,5.258 -1.448,5.258 -2.629,4.077 -2.629,2.629 -2.629,1.181 -1.448,0 0,0"
             style="fill:#a6cae4;fill-opacity:1;fill-rule:evenodd;stroke:none"
             id="path374"
             inkscape:connector-curvature="0" /></g><g
           id="g376"
           transform="translate(321.7334,244.9229)"><path
             d="M 0,0 C 1.447,0 2.629,1.181 2.629,2.629 2.629,4.076 1.447,5.258 0,5.258 -1.448,5.258 -2.629,4.076 -2.629,2.629 -2.629,1.181 -1.448,0 0,0"
             style="fill:#a6cae4;fill-opacity:1;fill-rule:evenodd;stroke:none"
             id="path378"
             inkscape:connector-curvature="0" /></g><g
           id="g380"
           transform="translate(375.0625,135.2598)"><path
             d="M 0,0 C 1.447,0 2.629,1.182 2.629,2.629 2.629,4.077 1.447,5.258 0,5.258 -1.448,5.258 -2.629,4.077 -2.629,2.629 -2.629,1.182 -1.448,0 0,0"
             style="fill:#a6cae4;fill-opacity:1;fill-rule:evenodd;stroke:none"
             id="path382"
             inkscape:connector-curvature="0" /></g><g
           id="g384"
           transform="translate(68.6089,156.291)"><path
             d="M 0,0 C 1.448,0 2.629,1.182 2.629,2.629 2.629,4.077 1.448,5.258 0,5.258 -1.448,5.258 -2.629,4.077 -2.629,2.629 -2.629,1.182 -1.448,0 0,0"
             style="fill:#a6cae4;fill-opacity:1;fill-rule:evenodd;stroke:none"
             id="path386"
             inkscape:connector-curvature="0" /></g><g
           id="g388"
           transform="translate(384.0752,315.5273)"><path
             d="M 0,0 C 1.448,0 2.629,1.181 2.629,2.629 2.629,4.077 1.448,5.258 0,5.258 -1.447,5.258 -2.629,4.077 -2.629,2.629 -2.629,1.181 -1.447,0 0,0"
             style="fill:#a6cae4;fill-opacity:1;fill-rule:evenodd;stroke:none"
             id="path390"
             inkscape:connector-curvature="0" /></g><g
           id="g392"
           transform="translate(147.4756,332.8027)"><path
             d="M 0,0 C 1.448,0 2.629,1.181 2.629,2.629 2.629,4.077 1.448,5.258 0,5.258 -1.448,5.258 -2.629,4.077 -2.629,2.629 -2.629,1.181 -1.448,0 0,0"
             style="fill:#a6cae4;fill-opacity:1;fill-rule:evenodd;stroke:none"
             id="path394"
             inkscape:connector-curvature="0" /></g><g
           id="g396"
           transform="translate(141.0908,181.8291)"><path
             d="M 0,0 C 1.448,0 2.629,1.181 2.629,2.629 2.629,4.077 1.448,5.258 0,5.258 -1.448,5.258 -2.629,4.077 -2.629,2.629 -2.629,1.181 -1.448,0 0,0"
             style="fill:#ffffff;fill-opacity:1;fill-rule:evenodd;stroke:none"
             id="path398"
             inkscape:connector-curvature="0" /></g><g
           id="g400"
           transform="translate(392.3379,194.9736)"><path
             d="M 0,0 C 1.448,0 2.629,1.181 2.629,2.629 2.629,4.077 1.448,5.258 0,5.258 -1.448,5.258 -2.629,4.077 -2.629,2.629 -2.629,1.181 -1.448,0 0,0"
             style="fill:#ffffff;fill-opacity:1;fill-rule:evenodd;stroke:none"
             id="path402"
             inkscape:connector-curvature="0" /></g><g
           id="g404"
           transform="translate(339.7607,306.1387)"><path
             d="M 0,0 C 1.447,0 2.629,1.181 2.629,2.629 2.629,4.076 1.447,5.258 0,5.258 -1.449,5.258 -2.63,4.076 -2.63,2.629 -2.63,1.181 -1.449,0 0,0"
             style="fill:#ffffff;fill-opacity:1;fill-rule:evenodd;stroke:none"
             id="path406"
             inkscape:connector-curvature="0" /></g><g
           id="g408"
           transform="translate(318.3535,403.4072)"><path
             d="M 0,0 C 1.447,0 2.629,1.181 2.629,2.629 2.629,4.077 1.447,5.258 0,5.258 -1.448,5.258 -2.629,4.077 -2.629,2.629 -2.629,1.181 -1.448,0 0,0"
             style="fill:#ffffff;fill-opacity:1;fill-rule:evenodd;stroke:none"
             id="path410"
             inkscape:connector-curvature="0" /></g><g
           id="g412"
           transform="translate(424.2607,337.3096)"><path
             d="M 0,0 C 1.447,0 2.629,1.181 2.629,2.629 2.629,4.077 1.447,5.258 0,5.258 -1.448,5.258 -2.629,4.077 -2.629,2.629 -2.629,1.181 -1.448,0 0,0"
             style="fill:#ffffff;fill-opacity:1;fill-rule:evenodd;stroke:none"
             id="path414"
             inkscape:connector-curvature="0" /></g><g
           id="g416"
           transform="translate(386.0117,110.6201)"><path
             d="M 0,0 C -0.987,0.986 -2.311,1.535 -3.706,1.535 -5.101,1.535 -6.425,0.986 -7.41,0 c -0.987,-0.986 -1.536,-2.31 -1.536,-3.705 0,-1.396 0.549,-2.719 1.536,-3.705 0.985,-0.986 2.309,-1.535 3.704,-1.535 1.395,0 2.719,0.549 3.706,1.535 0.985,0.986 1.534,2.309 1.534,3.705 C 1.534,-2.31 0.985,-0.986 0,0 m -3.706,4.89 c 2.287,0 4.461,-0.902 6.077,-2.518 1.616,-1.616 2.518,-3.791 2.518,-6.077 0,-2.286 -0.902,-4.461 -2.518,-6.077 -1.616,-1.616 -3.79,-2.518 -6.077,-2.518 -2.286,0 -4.46,0.902 -6.077,2.518 -1.616,1.616 -2.517,3.791 -2.517,6.077 0,2.286 0.901,4.461 2.517,6.077 1.617,1.616 3.791,2.518 6.077,2.518"
             style="fill:#a62a34;fill-opacity:1;fill-rule:evenodd;stroke:none"
             id="path418"
             inkscape:connector-curvature="0" /></g><g
           id="g420"
           transform="translate(368.6211,90.084)"><path
             d="m 0,0 v 0 c 7.415,0 13.48,6.063 13.48,13.48 v 0.752 12.292 1.006 c 0,0.657 -0.536,1.192 -1.193,1.192 h -24.573 c -0.656,0 -1.193,-0.535 -1.193,-1.192 V 26.524 14.232 13.48 C -13.479,6.063 -7.413,0 0,0"
             style="fill:#d84f50;fill-opacity:1;fill-rule:evenodd;stroke:none"
             id="path422"
             inkscape:connector-curvature="0" /></g><g
           id="g424"
           transform="translate(377.4863,105.249)"><path
             d="m 0,0 c 0,-1.439 -0.229,-2.828 -0.651,-4.132 -0.239,-0.736 -0.539,-1.445 -0.897,-2.121 -1.464,-2.774 -3.867,-4.984 -6.779,-6.198 -1.589,-0.662 -3.33,-1.029 -5.153,-1.029 -0.752,0 -1.49,0.062 -2.209,0.182 2.004,-1.185 4.338,-1.867 6.824,-1.867 3.029,0 5.832,1.012 8.09,2.714 1.468,1.108 2.707,2.51 3.625,4.116 0.372,0.65 0.691,1.335 0.952,2.047 0.525,1.437 0.813,2.988 0.813,4.603 v 0.752 7.791 2.146 2.355 1.006 c 0,0.656 -0.536,1.192 -1.193,1.192 L 0,13.557 V 13.044 7.917 5.326 0.752 Z"
             style="fill:#a62a34;fill-opacity:1;fill-rule:evenodd;stroke:none"
             id="path426"
             inkscape:connector-curvature="0" /></g><g
           id="g428"
           transform="translate(356.9385,90.084)"><path
             d="m 0,0 h 23.366 c 0.989,0 1.797,0.809 1.797,1.797 0,0.989 -0.808,1.798 -1.797,1.798 L 0,3.595 C -0.988,3.595 -1.797,2.786 -1.797,1.797 -1.797,0.809 -0.988,0 0,0"
             style="fill:#d84f50;fill-opacity:1;fill-rule:evenodd;stroke:none"
             id="path430"
             inkscape:connector-curvature="0" /></g><g
           id="g432"
           transform="translate(359.459,116.2441)"><path
             d="m 0,0 h 0.001 c 1.249,0 2.27,-1.021 2.27,-2.271 v -8.132 c 0,-1.249 -1.021,-2.271 -2.27,-2.271 H 0 c -1.248,0 -2.271,1.022 -2.271,2.271 v 8.132 C -2.271,-1.021 -1.248,0 0,0"
             style="fill:#de7272;fill-opacity:1;fill-rule:evenodd;stroke:none"
             id="path434"
             inkscape:connector-curvature="0" /></g><g
           id="g436"
           transform="translate(357.1084,135.4268)"><path
             d="m 0,0 h 10.276 c 0.78,0 1.417,0.638 1.417,1.417 0,0.779 -0.637,1.416 -1.417,1.416 H -3.547 c -2.035,0 -3.701,1.666 -3.701,3.701 0,2.035 1.665,3.7 3.701,3.7 H 32.4 c 2.036,0 3.701,-1.665 3.701,-3.7 0,-2.035 -1.665,-3.701 -3.701,-3.701 H 19.862 C 19.083,2.833 18.445,2.196 18.445,1.417 18.445,0.638 19.083,0 19.862,0 h 4.825 c 1.571,0 2.856,-1.285 2.856,-2.855 0,-1.571 -1.285,-2.856 -2.856,-2.856 h -7.979 c -3.122,0 -5.678,-2.556 -5.678,-5.678 v -2.603 c 0,-0.737 -0.603,-1.34 -1.341,-1.34 -0.737,0 -1.34,0.603 -1.34,1.34 v 4.952 c 0,1.831 -1.498,3.329 -3.328,3.329 H 0 c -1.57,0 -2.855,1.285 -2.855,2.856 C -2.855,-1.285 -1.57,0 0,0"
             style="fill:#ffffff;fill-opacity:1;fill-rule:evenodd;stroke:none"
             id="path438"
             inkscape:connector-curvature="0" /></g></g></g></g></svg>