<?xml version="1.0" encoding="UTF-8" standalone="no"?>
<svg
   xmlns:dc="http://purl.org/dc/elements/1.1/"
   xmlns:cc="http://creativecommons.org/ns#"
   xmlns:rdf="http://www.w3.org/1999/02/22-rdf-syntax-ns#"
   xmlns:svg="http://www.w3.org/2000/svg"
   xmlns="http://www.w3.org/2000/svg"
   xmlns:sodipodi="http://sodipodi.sourceforge.net/DTD/sodipodi-0.dtd"
   xmlns:inkscape="http://www.inkscape.org/namespaces/inkscape"
   viewBox="0 0 284.91 9.6647784"
   version="1.1"
   id="svg4"
   sodipodi:docname="wave.svg"
   inkscape:version="0.92.4 (5da689c313, 2019-01-14)"
>
  <metadata
     id="metadata10">
    <rdf:RDF>
      <cc:Work
         rdf:about="">
        <dc:format>image/svg+xml</dc:format>
        <dc:type
           rdf:resource="http://purl.org/dc/dcmitype/StillImage" />
        <dc:title />
      </cc:Work>
    </rdf:RDF>
  </metadata>
  <defs
     id="defs8" />
  <sodipodi:namedview
     pagecolor="#ffffff"
     bordercolor="#666666"
     borderopacity="1"
     objecttolerance="10"
     gridtolerance="10"
     guidetolerance="10"
     inkscape:pageopacity="0"
     inkscape:pageshadow="2"
     inkscape:window-width="1920"
     inkscape:window-height="1001"
     id="namedview6"
     showgrid="false"
     inkscape:zoom="2.5411533"
     inkscape:cx="127.25632"
     inkscape:cy="-40.572905"
     inkscape:window-x="1911"
     inkscape:window-y="-9"
     inkscape:window-maximized="1"
     inkscape:current-layer="svg4" />
  <path
     d="m 284.91,0 c -0.97,0.22 -1.88,0.42 -2.88,0.66 l -8.39,1.98 c -2.94964,0.6910834 -5.90647,1.3511199 -8.87,1.98 -4.65485,0.9830727 -9.33675,1.8334172 -14.04,2.55 -5.00791,0.70472 -10.03717,1.2483339 -15.08,1.63 -3.13,0.23 -6,0.36 -8.7,0.42 -6.91182,0.1554517 -13.82539,-0.2189777 -20.68,-1.12 -2.1,-0.25 -4.2,-0.54 -6.37,-0.83 -2.16,-0.3 -4.4,-0.6 -6.75,-0.9 -2.36,-0.29 -4.84,-0.58 -7.51,-0.85 -2.68457,-0.2734587 -5.38155,-0.4069727 -8.08,-0.4 -2.71559,-0.012187 -5.43072,0.074537 -8.14,0.26 -2.72,0.17 -5.44,0.4 -8.15,0.67 -2.71,0.27 -5.41,0.57 -8.09,0.85 -2.67,0.29 -5.32,0.56 -7.94,0.79 -2.62,0.22 -5.2,0.4 -7.73,0.48 -2.4865,0.07713 -4.97506,0.057115 -7.46,-0.06 -2.38766,-0.1356534 -4.76516,-0.4128068 -7.12,-0.83 -2.15,-0.4 -4.42,-0.83 -6.8,-1.24 C 113.66475,5.6050092 111.19458,5.1983158 108.72,4.82 106.16,4.42 103.51,4.06 100.8,3.74 98.09,3.42 95.31,3.14 92.5,2.92 88.197929,2.5910885 83.884617,2.4309656 79.57,2.44 76.643591,2.459233 73.718635,2.5759647 70.8,2.79 67.870921,3.0134203 64.95193,3.3536913 62.05,3.81 60.6,4.04 59.15,4.31 57.72,4.61 54.85,5.21 52.17,5.72 49.63,6.16 42.789346,7.3475715 35.88915,6.9794944 28.96,7.4173859 15.182252,8.1311205 7.3297343,4.4891925 0,4.7530192 V 9.664779 h 284.91 z"
     id="path2"
     inkscape:connector-curvature="0"
     sodipodi:nodetypes="cccccccccccccscccccccsccccccccccc" />
</svg>
