<svg xmlns="http://www.w3.org/2000/svg" viewBox="0 0 284.91 13.6"><path d="M284.91 0c-.97.22-1.88.42-2.88.66l-8.39 1.98a432 432 0 01-8.87 1.98 250.65 250.65 0 01-14.04 2.55 236.07 236.07 0 01-15.08 1.63c-3.13.23-6 .36-8.7.42a135.33 135.33 0 01-20.68-1.12c-2.1-.25-4.2-.54-6.37-.83-2.16-.3-4.4-.6-6.75-.9-2.36-.29-4.84-.58-7.51-.85a77.75 77.75 0 00-8.08-.4 111.84 111.84 0 00-8.14.26c-2.72.17-5.44.4-8.15.67s-5.41.57-8.09.85c-2.67.29-5.32.56-7.94.79-2.62.22-5.2.4-7.73.48a95.54 95.54 0 01-7.46-.06 60.48 60.48 0 01-7.12-.83c-2.15-.4-4.42-.83-6.8-1.24a327.3 327.3 0 00-7.41-1.22c-2.56-.4-5.21-.76-7.92-1.08-2.71-.32-5.49-.6-8.3-.82a165.08 165.08 0 00-12.93-.48 131.75 131.75 0 00-8.77.35 110.37 110.37 0 00-8.75 1.02c-1.45.23-2.9.5-4.33.8-2.87.6-5.55 1.11-8.09 1.55A191.43 191.43 0 0128.96 8.6c-4.45.3-9.04.5-14.21.72-4.3.19-9.37.43-14.75.72v3.56h284.91z"/></svg>