<?xml version="1.0" encoding="UTF-8" standalone="no"?>
<svg
   xmlns:dc="http://purl.org/dc/elements/1.1/"
   xmlns:cc="http://creativecommons.org/ns#"
   xmlns:rdf="http://www.w3.org/1999/02/22-rdf-syntax-ns#"
   xmlns:svg="http://www.w3.org/2000/svg"
   xmlns="http://www.w3.org/2000/svg"
   xmlns:sodipodi="http://sodipodi.sourceforge.net/DTD/sodipodi-0.dtd"
   xmlns:inkscape="http://www.inkscape.org/namespaces/inkscape"
   viewBox="0 0 285 9.9999997"
   version="1.1"
   id="svg4"
   sodipodi:docname="wave.svg"
   inkscape:version="0.92.4 (5da689c313, 2019-01-14)"
   width="285"
   height="10">
  <metadata
     id="metadata10">
    <rdf:RDF>
      <cc:Work
         rdf:about="">
        <dc:format>image/svg+xml</dc:format>
        <dc:type
           rdf:resource="http://purl.org/dc/dcmitype/StillImage" />
        <dc:title></dc:title>
      </cc:Work>
    </rdf:RDF>
  </metadata>
  <defs
     id="defs8" />
  <sodipodi:namedview
     pagecolor="#ffffff"
     bordercolor="#666666"
     borderopacity="1"
     objecttolerance="10"
     gridtolerance="10"
     guidetolerance="10"
     inkscape:pageopacity="0"
     inkscape:pageshadow="2"
     inkscape:window-width="1920"
     inkscape:window-height="1001"
     id="namedview6"
     showgrid="false"
     inkscape:zoom="5.0823066"
     inkscape:cx="134.95943"
     inkscape:cy="-5.3729663"
     inkscape:window-x="-9"
     inkscape:window-y="-9"
     inkscape:window-maximized="1"
     inkscape:current-layer="svg4" />
  <path
     d="m 285,0 c -0.97031,0.2230889 -1.88059,0.42589698 -2.88092,0.66926669 l -8.39265,2.00780011 c -2.95057,0.7007865 -5.90833,1.3700902 -8.87279,2.0078 -4.65633,0.9968755 -9.3397,1.8591592 -14.04444,2.5858031 -5.00949,0.7146146 -10.04034,1.2658611 -15.08476,1.6528859 -3.131,0.2332293 -6.0019,0.3650546 -8.70276,0.425897 -6.91399,0.1576343 -13.82975,-0.2220522 -20.68653,-1.1357253 -2.10066,-0.2535101 -4.20132,-0.5475818 -6.37201,-0.8416535 -2.16068,-0.3042122 -4.40139,-0.6084243 -6.75213,-0.9126364 -2.36075,-0.2940718 -4.84153,-0.5881435 -7.51237,-0.8619344 -2.68542,-0.2772982 -5.38325,-0.4126868 -8.08256,-0.4056162 -2.71644,-0.012358 -5.43243,0.075584 -8.14256,0.2636505 -2.72087,0.1723869 -5.44172,0.4056162 -8.15258,0.6794071 -2.71085,0.2737909 -5.4117,0.5780031 -8.09256,0.8619344 -2.67084,0.2940717 -5.32168,0.5678626 -7.94251,0.8010919 -2.62082,0.2230889 -5.20164,0.4056162 -7.73243,0.4867394 -2.48729,0.078213 -4.97664,0.057917 -7.46236,-0.060842 -2.38842,-0.137558 -4.76667,-0.4186028 -7.12225,-0.8416535 -2.15068,-0.4056166 -4.42139,-0.841654 -6.80214,-1.2574106 C 113.70065,5.683706 111.2297,5.2713024 108.75435,4.8876749 106.19353,4.4820587 103.54269,4.1170042 100.83184,3.7925112 98.120984,3.4680183 95.340106,3.184087 92.529218,2.9609981 88.225788,2.6274685 83.911114,2.4650974 79.595134,2.4742587 76.667801,2.4937617 73.741921,2.6121324 70.822364,2.8291728 67.89236,3.05573 64.972446,3.4007786 62.0696,3.8634941 60.619142,4.0967234 59.168683,4.3705143 57.738232,4.6747264 54.867326,5.2831507 52.186479,5.8003113 49.645677,6.2464891 42.802862,7.4507346 35.900486,7.0774895 28.969148,7.5215292 15.187048,8.245285 7.3320496,4.5522227 0,4.8197537 V 10 h 285 z"
     id="path2"
     inkscape:connector-curvature="0"
     sodipodi:nodetypes="cccccccccccccscccccccsccccccccccc"
     style="stroke-width:1.00715482" />
</svg>
