<svg
   xmlns="http://www.w3.org/2000/svg"
   viewBox="0 0 284.91 13.6"
>
  <path
     d="m 284.91,13.6 c -0.97,-0.22 -1.88,-0.42 -2.88,-0.66 l -8.39,-1.98 A 432,432 0 0 0 264.77,8.98 250.65,250.65 0 0 0 250.73,6.43 236.07,236.07 0 0 0 235.65,4.8 c -3.13,-0.23 -6,-0.36 -8.7,-0.42 A 135.33,135.33 0 0 0 206.27,5.5 c -2.1,0.25 -4.2,0.54 -6.37,0.83 -2.16,0.3 -4.4,0.6 -6.75,0.9 -2.36,0.29 -4.84,0.58 -7.51,0.85 a 77.75,77.75 0 0 1 -8.08,0.4 111.84,111.84 0 0 1 -8.14,-0.26 c -2.72,-0.17 -5.44,-0.4 -8.15,-0.67 -2.71,-0.27 -5.41,-0.57 -8.09,-0.85 -2.67,-0.29 -5.32,-0.56 -7.94,-0.79 -2.62,-0.22 -5.2,-0.4 -7.73,-0.48 a 95.54,95.54 0 0 0 -7.46,0.06 60.48,60.48 0 0 0 -7.12,0.83 c -2.15,0.4 -4.42,0.83 -6.8,1.24 a 327.3,327.3 0 0 1 -7.41,1.22 c -2.56,0.4 -5.21,0.76 -7.92,1.08 -2.71,0.32 -5.49,0.6 -8.3,0.82 A 165.08,165.08 0 0 1 79.57,11.16 131.75,131.75 0 0 1 70.8,10.81 110.37,110.37 0 0 1 62.05,9.79 C 60.6,9.56 59.15,9.29 57.72,8.99 54.85,8.39 52.17,7.88 49.63,7.44 A 191.43,191.43 0 0 0 28.96,5 C 24.51,4.7 19.92,4.5 14.75,4.28 10.45,4.09 5.38,3.85 0,3.56 V 0 h 284.91 z"
 />
</svg>
