<svg xmlns="http://www.w3.org/2000/svg" viewBox="0 0 512 512"><path d="M462.961 504.5H251.067c-8.435 0-15.272-6.838-15.272-15.272v-9.862c0-8.435 6.838-15.272 15.272-15.272h211.895c8.435 0 15.272 6.838 15.272 15.272v9.862c-.001 8.434-6.838 15.272-15.273 15.272z" fill="#5e54ac"/><path d="M462.961 464.094h-45.457c8.435 0 15.272 6.838 15.272 15.272v9.862c0 8.435-6.838 15.272-15.272 15.272h45.457c8.435 0 15.272-6.838 15.272-15.272v-9.862c0-8.435-6.837-15.272-15.272-15.272z" fill="#524798"/><path d="M434.534 464.094h-155.04c-7.398 0-13.395-5.997-13.395-13.395v-13.617c0-7.398 5.997-13.395 13.395-13.395h155.04c7.398 0 13.395 5.997 13.395 13.395v13.617c-.001 7.398-5.998 13.395-13.395 13.395z" fill="#8078bc"/><path d="M434.534 423.687h-34.346c7.398 0 13.395 5.997 13.395 13.395v13.617c0 7.398-5.997 13.395-13.395 13.395h34.346c7.398 0 13.395-5.997 13.395-13.395v-13.617c-.001-7.398-5.997-13.395-13.395-13.395z" fill="#6b61b1"/><path d="M405.502 193.37h-96.976c-8.926 0-16.163 7.236-16.163 16.163 0 8.926 7.236 16.163 16.163 16.163h96.976c8.926 0 16.163-7.236 16.163-16.163-.001-8.927-7.237-16.163-16.163-16.163z" fill="#5e54ac"/><path d="M405.502 225.695h-28.285c8.926 0 16.163-7.236 16.163-16.163 0-8.926-7.236-16.163-16.163-16.163h28.285c8.926 0 16.163 7.236 16.163 16.163-.001 8.927-7.237 16.163-16.163 16.163z" fill="#524798"/><path d="M427.725 225.695H286.302c-5.579 0-10.102 4.523-10.102 10.102v12.122c0 5.579 4.523 10.102 10.102 10.102h141.423c5.579 0 10.102-4.523 10.102-10.102v-12.122c0-5.579-4.523-10.102-10.102-10.102z" fill="#8078bc"/><path d="M427.725 258.02H395.4c5.579 0 10.102-4.523 10.102-10.102v-12.122c0-5.579-4.523-10.102-10.102-10.102h32.325c5.579 0 10.102 4.523 10.102 10.102v12.122c0 5.58-4.523 10.102-10.102 10.102z" fill="#6b61b1"/><path d="M413.583 423.687L399.441 258.02h-84.854l-14.142 165.667z" fill="#5e54ac"/><circle cx="357.014" cy="142.862" fill="#5e54ac" r="50.508"/><path d="M382.457 99.236c4.368 7.473 6.882 16.162 6.882 25.443 0 27.895-22.613 50.508-50.508 50.508-9.281 0-17.97-2.514-25.443-6.882 8.76 14.989 25.012 25.065 43.626 25.065 27.895 0 50.508-22.613 50.508-50.508 0-18.614-10.077-34.865-25.065-43.626zM403.364 303.986c-2.434 53.163-43.059 95.457-92.818 95.457-2.696 0-5.363-.131-8-.375l-2.102 24.618h113.138z" fill="#524798"/><g><circle cx="165.083" cy="38.815" fill="#f9efda" r="31.315"/><path d="M179.89 11.218c2.371 4.409 3.719 9.45 3.719 14.807 0 17.295-14.02 31.315-31.315 31.315-5.357 0-10.398-1.348-14.807-3.719 5.283 9.826 15.659 16.508 27.597 16.508 17.295 0 31.315-14.02 31.315-31.315-.001-11.937-6.683-22.312-16.509-27.596z" fill="#f6e4c1"/><path d="M209.53 128.72l18.65-37.3c1.021-2.043 1.553-4.295 1.553-6.579 0-8.124-6.586-14.71-14.71-14.71h-99.88c-8.124 0-14.71 6.586-14.71 14.71 0 2.284.532 4.536 1.553 6.579l18.65 37.3z" fill="#f9efda"/><path d="M215.023 70.13H195.83c8.124 0 14.71 6.586 14.71 14.71 0 2.284-.532 4.536-1.553 6.579l-18.65 37.301h19.193l18.65-37.301c1.021-2.043 1.553-4.295 1.553-6.579 0-8.124-6.586-14.71-14.71-14.71z" fill="#f6e4c1"/><path d="M213.571 161.045h-96.976c-8.926 0-16.163-7.236-16.163-16.163 0-8.926 7.236-16.163 16.163-16.163h96.976c8.926 0 16.163 7.236 16.163 16.163-.001 8.926-7.237 16.163-16.163 16.163zM213.571 225.695h-96.976c-8.926 0-16.163-7.236-16.163-16.163 0-8.926 7.236-16.163 16.163-16.163h96.976c8.926 0 16.163 7.236 16.163 16.163-.001 8.927-7.237 16.163-16.163 16.163z" fill="#f1cb86"/><path d="M213.571 128.72h-28.285c8.926 0 16.163 7.236 16.163 16.163 0 8.926-7.236 16.163-16.163 16.163h28.285c8.926 0 16.163-7.236 16.163-16.163-.001-8.927-7.237-16.163-16.163-16.163zM213.571 193.37h-28.285c8.926 0 16.163 7.236 16.163 16.163 0 8.926-7.236 16.163-16.163 16.163h28.285c8.926 0 16.163-7.236 16.163-16.163-.001-8.927-7.237-16.163-16.163-16.163z" fill="#ecbe6b"/><path d="M235.794 193.37H94.372c-5.579 0-10.102-4.523-10.102-10.102v-12.122c0-5.579 4.523-10.102 10.102-10.102h141.423c5.579 0 10.102 4.523 10.102 10.102v12.122c-.001 5.579-4.524 10.102-10.103 10.102z" fill="#f9efda"/><path d="M235.794 161.045h-32.325c5.579 0 10.102 4.523 10.102 10.102v12.122c0 5.579-4.523 10.102-10.102 10.102h32.325c5.579 0 10.102-4.523 10.102-10.102v-12.122c0-5.58-4.523-10.102-10.102-10.102z" fill="#f6e4c1"/><path d="M281.132 504.5H49.034c-8.435 0-15.272-6.838-15.272-15.272v-9.862c0-8.435 6.838-15.272 15.272-15.272h232.098c8.435 0 15.272 6.838 15.272 15.272v9.862c0 8.434-6.838 15.272-15.272 15.272z" fill="#eab14d"/><path d="M281.132 464.094h-45.457c8.435 0 15.272 6.838 15.272 15.272v9.862c0 8.435-6.838 15.272-15.272 15.272h45.457c8.435 0 15.272-6.838 15.272-15.272v-9.862c0-8.435-6.838-15.272-15.272-15.272z" fill="#e7a52e"/><path d="M242.529 423.687l-21.701-65.102c-4.807-14.42-7.257-29.521-7.257-44.722v-88.168h-96.976v88.168c0 15.2-2.451 30.301-7.257 44.722l-21.701 65.102z" fill="#f9efda"/><path d="M252.705 464.094H77.461c-7.398 0-13.395-5.997-13.395-13.395v-13.617c0-7.398 5.997-13.395 13.395-13.395h175.243c7.398 0 13.395 5.997 13.395 13.395v13.617c0 7.398-5.997 13.395-13.394 13.395z" fill="#f1cb86"/><path d="M252.705 423.687h-34.346c7.398 0 13.395 5.997 13.395 13.395v13.617c0 7.398-5.997 13.395-13.395 13.395h34.346c7.398 0 13.395-5.997 13.395-13.395v-13.617c-.001-7.398-5.998-13.395-13.395-13.395z" fill="#ecbe6b"/><path d="M220.828 358.585c-4.807-14.42-7.257-29.521-7.257-44.722V295.88c-14.08 62.946-56.015 108.614-105.562 108.614-4.6 0-9.133-.401-13.586-1.165l-6.786 20.358h154.892z" fill="#f6e4c1"/><path d="M462.958 456.59h-8.389c.551-1.871.859-3.844.859-5.891v-13.617c0-11.521-9.373-20.896-20.895-20.896h-14.064L407.608 265.52h20.12c9.704 0 17.6-7.896 17.6-17.6V235.8c0-9.704-7.896-17.6-17.6-17.6h-.215c1.062-2.686 1.652-5.609 1.652-8.668 0-13.047-10.615-23.662-23.663-23.662h-9.605c11.738-10.622 19.126-25.968 19.126-43.009 0-31.985-26.022-58.008-58.008-58.008s-58.009 26.022-58.009 58.008c0 17.041 7.388 32.386 19.126 43.009h-9.606c-13.047 0-23.662 10.615-23.662 23.662 0 3.059.59 5.982 1.652 8.668h-.218c-9.704 0-17.6 7.896-17.6 17.6v12.12c0 9.704 7.896 17.6 17.6 17.6h20.123l-12.862 150.667h-14.064c-5.095 0-9.766 1.838-13.396 4.88-3.629-3.04-8.297-4.876-13.39-4.876h-4.771l-19.993-59.978c-4.56-13.68-6.872-27.928-6.872-42.35V231.97c9.381-3.145 16.162-12.011 16.162-22.438 0-3.057-.589-5.977-1.649-8.662h.211c9.705 0 17.602-7.896 17.602-17.602v-12.122c0-9.705-7.896-17.602-17.602-17.602h-.211c1.06-2.685 1.65-5.606 1.65-8.663 0-10.432-6.789-19.302-16.178-22.442l13.833-27.667c1.534-3.068 2.345-6.503 2.345-9.933 0-12.247-9.963-22.211-22.21-22.211H195.7c5.13-6.58 8.198-14.844 8.198-23.814C203.898 17.412 186.486 0 165.083 0c-21.402 0-38.814 17.412-38.814 38.815 0 8.971 3.068 17.234 8.198 23.814h-19.323c-12.247 0-22.211 9.964-22.211 22.211 0 3.429.812 6.863 2.346 9.933l13.833 27.666c-9.39 3.14-16.179 12.01-16.179 22.442 0 3.057.589 5.978 1.65 8.663h-.21c-9.705 0-17.602 7.896-17.602 17.602v12.122c0 9.705 7.896 17.602 17.602 17.602h.21c-1.06 2.685-1.649 5.605-1.649 8.662 0 10.427 6.781 19.293 16.163 22.438v81.893c0 14.423-2.312 28.671-6.873 42.35L82.23 416.19h-4.772c-11.519 0-20.89 9.371-20.89 20.89v13.62c0 2.048.309 4.022.86 5.894h-8.395c-12.557 0-22.771 10.215-22.771 22.771v9.862c0 12.557 10.215 22.772 22.771 22.772h413.924c12.562 0 22.78-10.214 22.78-22.77v-9.86c.001-12.56-10.218-22.779-22.779-22.779zM314.005 142.861c0-23.715 19.294-43.008 43.009-43.008s43.008 19.293 43.008 43.008-19.293 43.009-43.008 43.009-43.009-19.294-43.009-43.009zM283.698 247.92V235.8c0-1.434 1.166-2.6 2.6-2.6h53.12c4.143 0 7.5-3.357 7.5-7.5s-3.357-7.5-7.5-7.5h-30.795c-.032 0-.064-.005-.097-.005-4.776 0-8.662-3.887-8.662-8.663s3.886-8.662 8.662-8.662h96.976c4.776 0 8.663 3.886 8.663 8.662s-3.887 8.663-8.663 8.663c-.033 0-.064.004-.097.005h-30.787c-4.143 0-7.5 3.357-7.5 7.5s3.357 7.5 7.5 7.5h53.11c1.434 0 2.6 1.166 2.6 2.6v12.12c0 1.434-1.166 2.6-2.6 2.6H286.297c-1.433 0-2.599-1.166-2.599-2.6zm37.776 17.6h71.08l12.861 150.667h-96.803zM141.268 38.815c0-13.132 10.684-23.815 23.814-23.815 13.132 0 23.815 10.684 23.815 23.815s-10.684 23.814-23.815 23.814c-13.13.001-23.814-10.683-23.814-23.814zm-33.336 46.026c0-3.977 3.234-7.211 7.211-7.211h99.88c3.976 0 7.21 3.234 7.21 7.211 0 1.113-.263 2.229-.761 3.224l-16.578 33.155h-79.623l-16.578-33.155c-.497-.997-.761-2.112-.761-3.224zm0 60.041c0-4.776 3.887-8.662 8.663-8.662h96.976c4.776 0 8.662 3.886 8.662 8.662s-3.886 8.663-8.662 8.663h-96.976c-4.776 0-8.663-3.887-8.663-8.663zM91.77 183.269v-12.122c0-1.435 1.167-2.602 2.602-2.602h141.423c1.435 0 2.602 1.167 2.602 2.602v12.122c0 1.435-1.167 2.602-2.602 2.602H94.372c-1.435-.001-2.602-1.168-2.602-2.602zm24.825 17.601h96.976c4.776 0 8.662 3.886 8.662 8.662s-3.886 8.663-8.662 8.663h-96.976c-4.776 0-8.663-3.887-8.663-8.663s3.887-8.662 8.663-8.662zM77.458 456.59c-3.247 0-5.89-2.642-5.89-5.89v-13.62c0-3.248 2.643-5.89 5.89-5.89h62.13c4.143 0 7.5-3.357 7.5-7.5s-3.357-7.5-7.5-7.5H98.042l18.411-55.233c5.071-15.211 7.643-31.056 7.643-47.094v-80.668h81.976v80.668c0 16.037 2.571 31.882 7.642 47.094l18.412 55.233H174.79c-4.143 0-7.5 3.357-7.5 7.5s3.357 7.5 7.5 7.5h77.92c3.247 0 5.89 2.642 5.89 5.89v13.62c0 3.248-2.643 5.89-5.89 5.89-.026 0-.051.004-.077.004H77.535c-.026 0-.051-.004-.077-.004zM281.127 497H49.034c-4.285 0-7.771-3.486-7.771-7.772v-9.862c0-4.285 3.486-7.771 7.771-7.771h232.099c4.285 0 7.771 3.486 7.771 7.771v9.862c0 4.286-3.486 7.772-7.771 7.772zm189.611-7.77c0 4.284-3.49 7.77-7.78 7.77H302.537c.884-2.427 1.367-5.044 1.367-7.772v-9.862c0-2.729-.484-5.348-1.368-7.775h75.862c4.143 0 7.5-3.357 7.5-7.5s-3.357-7.5-7.5-7.5l-98.904.004c-3.25 0-5.895-2.645-5.895-5.895v-13.617c0-3.251 2.645-5.896 5.895-5.896h155.04c3.25 0 5.895 2.645 5.895 5.896V450.7c0 3.224-2.603 5.849-5.817 5.891h-21.014c-4.143 0-7.5 3.357-7.5 7.5s3.357 7.5 7.5 7.5h49.36c4.29 0 7.78 3.49 7.78 7.78z"/></g></svg>