<svg xmlns="http://www.w3.org/2000/svg" viewBox="0 0 512 512"><path d="M463.577 353.5H48.423V73.72c0-3.876 3.142-7.018 7.018-7.018h401.118c3.876 0 7.018 3.142 7.018 7.018V353.5z" fill="#dfeaef"/><path d="M456.559 66.701h-52.198c3.876 0 7.018 3.142 7.018 7.018v238.532c0 4.556-3.693 8.249-8.249 8.249H48.423v33h415.155V73.72c-.001-3.876-3.143-7.019-7.019-7.019z" fill="#bfcfd6"/><path d="M79.423 300.55V101.962c0-2.353 1.908-4.261 4.261-4.261h344.633c2.353 0 4.261 1.908 4.261 4.261V300.55c0 2.353-1.908 4.261-4.261 4.261H83.684c-2.354 0-4.261-1.907-4.261-4.261z" fill="#acf"/><path d="M428.316 97.702h-16.937v182.874c0 2.353-1.908 4.261-4.261 4.261H79.423v15.714c0 2.353 1.908 4.261 4.261 4.261h344.633c2.353 0 4.261-1.908 4.261-4.261V101.962c-.001-2.353-1.908-4.26-4.262-4.26z" fill="#59f"/><path d="M494.756 445.298H17.244c-5.382 0-9.744-4.363-9.744-9.744v-19.026h497v19.026c0 5.382-4.363 9.744-9.744 9.744z" fill="#6f98a3"/><path fill="#afdde9" d="M504.5 416.529H7.5l40.923-80.718h415.154z"/><path d="M463.577 335.811H404.91l26.893 53.044c3.006 5.929-1.302 12.944-7.95 12.944H14.967L7.5 416.529h497l-40.923-80.718z" fill="#86aebc"/><path d="M321.797 416.529l-9.789-35.496c-.792-2.872-3.405-4.862-6.384-4.862h-99.247c-2.979 0-5.592 1.99-6.384 4.862l-9.789 35.496h131.593z" fill="#dfeaef"/><path fill="#bfcfd6" d="M194.265 401.799l-4.062 14.73h131.594l-4.062-14.73z"/><path d="M511.976 416.063c-.005-.075-.004-.149-.011-.224-.027-.297-.07-.588-.131-.873-.006-.028-.015-.056-.022-.084-.059-.262-.132-.518-.218-.768-.023-.067-.048-.132-.073-.198-.084-.227-.179-.448-.284-.663-.018-.038-.03-.077-.049-.115l-40.112-79.118V73.72c0-8.006-6.513-14.519-14.519-14.519H55.441c-8.006 0-14.519 6.513-14.519 14.519v260.298L.811 413.136c-.019.038-.031.077-.049.115-.105.215-.199.436-.284.662-.025.066-.05.132-.073.199-.085.251-.159.508-.218.77-.006.027-.015.054-.021.081-.061.286-.104.577-.131.874-.007.074-.007.149-.011.223-.01.157-.024.31-.024.469v19.026c0 9.509 7.735 17.244 17.244 17.244h477.512c9.509 0 17.244-7.735 17.244-17.244v-19.026c0-.159-.014-.312-.024-.466zM55.923 74.202h400.154v254.109H55.923V74.202zm-2.894 269.109H458.97l33.318 65.717h-164.78l-8.271-29.989c-1.684-6.105-7.282-10.369-13.615-10.369h-99.246c-6.333 0-11.932 4.264-13.615 10.368l-8.271 29.99H19.711l33.318-65.717zm258.919 65.718H200.052l6.993-25.358h97.91l6.993 25.358zM497 435.554c0 1.237-1.007 2.244-2.244 2.244H17.244c-1.237 0-2.244-1.007-2.244-2.244v-11.526h482v11.526z"/><path d="M432.577 213.756c-4.143 0-7.5 3.357-7.5 7.5v76.055H86.923v-76.055c0-4.143-3.357-7.5-7.5-7.5s-7.5 3.357-7.5 7.5v79.294c0 6.485 5.275 11.761 11.761 11.761h344.633c6.485 0 11.761-5.275 11.761-11.761v-79.294c-.001-4.142-3.358-7.5-7.501-7.5zM428.316 90.202H83.684c-6.485 0-11.761 5.275-11.761 11.761v79.294c0 4.143 3.357 7.5 7.5 7.5s7.5-3.357 7.5-7.5v-76.055h338.154v76.055c0 4.143 3.357 7.5 7.5 7.5s7.5-3.357 7.5-7.5v-79.294c0-6.486-5.275-11.761-11.761-11.761z"/><path d="M253.73957 160.54239h125.43156c3.88963 0 7.02099 3.13136 7.02099 7.02099v60.80548c0 3.88963-3.13136 7.02099-7.02099 7.02099H253.73957c-3.88963 0-7.02099-3.13136-7.02099-7.02099v-60.80548c0-3.88963 3.13136-7.02099 7.02099-7.02099z" fill="#ffa31a"/><g aria-label="Join" style="line-height:1.25" font-weight="700" font-size="40" font-family="sans-serif" letter-spacing="0" word-spacing="0" fill="#fff"><path d="M144.95348364 204.85629057q0 2.53211572-.90433649 4.75418266-.90432326 2.19621741-2.68714672 3.72066469-1.88616863 1.62779245-4.54747906 2.53211571-2.66131042.87848697-6.5886787.87848697-2.66131043 0-5.01255884-.2067036-2.35124842-.1808673-4.13407188-.54258866v-7.80306397h.93017279q1.24022156.46507978 2.5837883.87848696 1.34357998.3875709 3.43645221.3875709 2.71298302 0 4.15990817-.7234692 1.47276145-.72345596 2.09287224-2.01535011.59427448-1.26605786.67178337-2.76466884.07752211-1.52443404.07752211-3.87568246v-15.32191546h-8.81074564v-7.07959478h18.73251814zM183.40035208 201.65237826q0 7.15711689-4.1857577 11.29118877-4.15990816 4.10823557-11.70458272 4.10823557-7.54468779 0-11.73043225-4.10823557-4.15990817-4.13407188-4.15990817-11.29118877 0-7.20878949 4.18574446-11.31702507 4.21158076-4.10822235 11.70459596-4.10822235 7.59634715 0 11.73041902 4.13407188 4.1599214 4.13407187 4.1599214 11.29117554zm-11.44621977 7.05375848q.9043365-1.11102686 1.34357997-2.66131042.46507978-1.57610664.46507978-4.34077547 0-2.55795202-.46507978-4.28908965-.465093-1.73115087-1.29190738-2.76466884-.82681437-1.05935426-1.98951382-1.49859774-1.16271268-.43924349-2.50627942-.43924349-1.34357998 0-2.40293424.3617346-1.03351797.36172137-1.98952705 1.44692516-.85265067 1.00768167-1.36940304 2.7646556-.4909293 1.75698716-.4909293 4.41828436 0 2.37709794.4392567 4.13407187.4392435 1.73115087 1.29189416 2.79050513.82681438 1.00768168 1.96367753 1.47276145 1.16271267.46507978 2.63547413.46507978 1.26605785 0 2.40293423-.41340719 1.16269945-.43924348 1.96367753-1.44692515zM199.41987398 216.14746611h-9.30166172v-29.016012h9.30166172zm.25837619-33.15008388h-9.8184141v-7.05375849h9.8184141zM237.34999005 216.14746611h-9.35334754v-14.39172944q0-1.75698716-.1808673-3.4881248-.18085407-1.75698716-.62011078-2.58380154-.51675237-.95599585-1.52443404-1.39523933-.98184538-.43925672-2.7646556-.43925672-1.26605786 0-2.58380154.4134072-1.29189416.41340718-2.8163282 1.31774367v20.56700096h-9.30166172v-29.016012h9.30166172v3.20389908q2.48044313-1.93784123 4.75418266-2.9713592 2.29957582-1.03351797 5.09006772-1.03351797 4.70251007 0 7.3379842 2.73881931 2.66131042 2.73883254 2.66131042 8.19063487z" style="-inkscape-font-specification:'sans-serif Bold'"/></g><g aria-label="KGG" style="line-height:1.25" font-weight="700" font-size="40" font-family="sans-serif" letter-spacing="0" word-spacing="0"><path d="M292.91216554 216.14746611h-12.16967573L269.24461067 200.748055l-2.32541212 2.8163282v12.58308292h-9.9217725v-38.47270473h9.9217725v17.41477447l13.74578237-17.41477447h11.49789236l-15.03768975 17.80234536zM331.84996328 213.9512487q-2.58380153 1.00768167-6.84705489 2.01535012-4.26326658.98184537-8.50069686.98184537-9.8184141 0-15.37357483-5.32262084-5.55516073-5.34844392-5.55516073-14.75346405 0-8.96576341 5.60683332-14.44341526 5.60683333-5.50347492 15.63196424-5.50347492 3.79817358 0 7.23462578.69761967 3.4364522.67178337 7.64803297 2.71298301v9.01744924h-1.11102685q-.7234692-.5426019-2.11872176-1.52444727-1.39523934-1.00768167-2.68714672-1.70530134-1.49859775-.82681438-3.5139611-1.42108886-1.98951382-.59427449-4.23741705-.59427449-2.63547413 0-4.78001895.77514179-2.14455806.77514178-3.8498594 2.37709794-1.62779245 1.55027034-2.5837883 3.95320458-.9301728 2.3770847-.9301728 5.50347491 0 6.38197511 3.3847664 9.76675473 3.38477961 3.38476638 9.99929461 3.38476638.5684382 0 1.24022156-.0257966.69761967-.02579661 1.26605786-.07752212v-7.54467456h-7.67386926v-7.26046207h17.75067276zM374.74095237 213.9512487q-2.5837883 1.00768167-6.84705489 2.01535012-4.26326658.98184537-8.50068364.98184537-9.81842731 0-15.37357482-5.32262084-5.55516074-5.34844392-5.55516074-14.75346405 0-8.96576341 5.60683333-14.44341526 5.60683333-5.50347492 15.63195101-5.50347492 3.7981868 0 7.23462578.69761967 3.4364522.67178337 7.64803297 2.71298301v9.01744924h-1.11102686q-.72345596-.5426019-2.11870852-1.52444727-1.39525257-1.00768167-2.68714672-1.70530134-1.49859775-.82681438-3.5139611-1.42108886-1.98952705-.59427449-4.23743028-.59427449-2.6354609 0-4.78001896.77514179-2.14454482.77514178-3.84984616 2.37709794-1.62779245 1.55027034-2.58380154 3.95320458-.93015955 2.3770847-.93015955 5.50347491 0 6.38197511 3.38476638 9.76675473 3.38476639 3.38476638 9.99928139 3.38476638.56843819 0 1.24022156-.0257966.6976329-.02579661 1.26605786-.07752212v-7.54467456h-7.67386926v-7.26046207h17.75067276z" style="-inkscape-font-specification:'sans-serif Bold'"/></g></svg>