<svg xmlns="http://www.w3.org/2000/svg" viewBox="0 0 512 512"><path d="M421.666 471.367c0 18.299-14.834 33.133-33.133 33.133H123.466c-18.299 0-33.133-14.834-33.133-33.133V40.633c0-18.299 14.834-33.133 33.133-33.133h265.067c18.299 0 33.133 14.834 33.133 33.133z" fill="#394d5c"/><path d="M380.533 405.1H131.466c-4.418 0-8-3.582-8-8V81.767c0-4.418 3.582-8 8-8h249.066c4.418 0 8 3.582 8 8V397.1c.001 4.418-3.581 8-7.999 8z" fill="#8bdeff"/><circle r="16.564497" transform="rotate(-45)" cy="502.54233" cx="-140.61273" fill="#d0e2ed"/><path d="M297.699 140.033h-83.4c-4.418 0-8-3.582-8-8V114.9c0-4.418 3.582-8 8-8h83.4c4.418 0 8 3.582 8 8v17.133c0 4.419-3.581 8-8 8z" fill="#118df0"/><path d="M298.903 106.9h-23c4.418 0 8 3.582 8 8v17.133c0 4.418-3.582 8-8 8h23c4.418 0 8-3.582 8-8V114.9c0-4.418-3.582-8-8-8z" fill="#1179f0"/><path d="M380.533 73.767h-23c4.418 0 8 3.582 8 8V397.1c0 4.418-3.582 8-8 8h23c4.418 0 8-3.582 8-8V81.767c0-4.418-3.582-8-8-8z" fill="#6bcbff"/><path d="M388.533 7.5h-23c18.299 0 33.133 14.834 33.133 33.133v430.733c0 18.299-14.834 33.133-33.133 33.133h23c18.299 0 33.133-14.834 33.133-33.133V40.633c0-18.299-14.834-33.133-33.133-33.133z" fill="#2c4252"/><path d="M421.667 414.167c4.143 0 7.5-3.358 7.5-7.5V40.633C429.167 18.228 410.938 0 388.533 0H123.466c-22.405 0-40.633 18.228-40.633 40.633v430.733c0 22.405 18.227 40.633 40.633 40.633h265.066c22.405 0 40.634-18.228 40.634-40.633v-34.7c0-4.142-3.357-7.5-7.5-7.5s-7.5 3.358-7.5 7.5v34.7c0 14.134-11.499 25.633-25.634 25.633H123.466c-14.134 0-25.633-11.499-25.633-25.633V40.633C97.834 26.499 109.332 15 123.466 15h265.066c14.135 0 25.634 11.499 25.634 25.633v366.034c.001 4.142 3.358 7.5 7.501 7.5z"/><path d="M396.033 397.1V81.767c0-8.547-6.953-15.5-15.5-15.5H131.466c-8.547 0-15.5 6.953-15.5 15.5v27.95c0 4.142 3.357 7.5 7.5 7.5s7.5-3.358 7.5-7.5v-27.95c0-.276.225-.5.5-.5h249.066c.275 0 .5.224.5.5V397.1c0 .276-.225.5-.5.5H131.466c-.275 0-.5-.224-.5-.5V139.717c0-4.142-3.357-7.5-7.5-7.5s-7.5 3.358-7.5 7.5V397.1c0 8.547 6.953 15.5 15.5 15.5h249.066c8.548 0 15.501-6.953 15.501-15.5zM231.933 454.8c0 13.271 10.796 24.067 24.066 24.067s24.066-10.796 24.066-24.067c0-13.27-10.796-24.066-24.066-24.066s-24.066 10.795-24.066 24.066zm33.133 0c0 5-4.067 9.067-9.066 9.067-4.999 0-9.066-4.067-9.066-9.067 0-4.999 4.067-9.066 9.066-9.066 4.999-.001 9.066 4.067 9.066 9.066z"/><path d="M297.7 147.533c8.547 0 15.5-6.953 15.5-15.5V114.9c0-8.547-6.953-15.5-15.5-15.5h-83.4c-8.547 0-15.5 6.953-15.5 15.5v17.133c0 8.547 6.953 15.5 15.5 15.5zm-83.901-15.5V114.9c0-.276.225-.5.5-.5h83.4c.275 0 .5.224.5.5v17.133c0 .276-.225.5-.5.5h-83.4c-.275 0-.5-.224-.5-.5zM289.132 48.133c4.143 0 7.5-3.358 7.5-7.5 0-4.142-3.357-7.5-7.5-7.5h-66.266c-4.143 0-7.5 3.358-7.5 7.5 0 4.142 3.357 7.5 7.5 7.5zM189.733 48.133c4.143 0 7.5-3.358 7.5-7.5 0-4.142-3.357-7.5-7.5-7.5H156.6c-4.143 0-7.5 3.358-7.5 7.5 0 4.142 3.357 7.5 7.5 7.5z"/><g transform="matrix(.65523 0 0 .65523 -84.75032 77.346975)"><circle r="120.13638" cy="247.37428" cx="520.04706" fill="#1a1a1a"/><path d="M489.61974 181.46257c-10.29966.12487-20.63855-.24258-30.91298.19417-4.64669 1.05558-4.79079 6.18782-4.5254 9.99388.0293 38.73672-.0586 77.47802.0421 116.21168.40337 4.9735 5.73807 5.79604 9.72185 5.38247h31.71068v-131.7822h-6.03722zm27.12655 0v131.77762c19.74975-.0841 39.51084.172 59.25333-.13289 7.80399.2273 12.51553-9.06201 8.56946-15.48388-4.58465-8.27285-12.30251-14.17439-17.65606-21.91518-7.06413-8.73165-13.6715-19.63534-12.38481-31.30438 1.8599-14.62146 12.49909-25.76111 21.66647-36.46172 4.8252-5.37075 11.69579-11.88168 9.1377-19.83741-2.1495-6.78231-10.1144-6.84359-16.02945-6.64216h-52.55664z" fill="#fff"/></g></svg>