<svg xmlns="http://www.w3.org/2000/svg" xmlns:xlink="http://www.w3.org/1999/xlink" viewBox="0 0 912.98 556.79"><defs><linearGradient id="contact_a"><stop offset="0" stop-color="#eccdfb"/><stop offset="1" stop-color="#bbf1f4"/></linearGradient><linearGradient xlink:href="#contact_a" id="contact_b" x1="-518.27" y1="-189.54" x2="-18.32" y2="-189.54" gradientUnits="userSpaceOnUse"/></defs><g transform="matrix(1.33333 0 0 -1.33333 -43.51 611.73)"><path d="M406.04 421.58a.91.91 0 11-1.83 0v-2.15h-2.15a.91.91 0 010-1.83h2.15v-2.15a.91.91 0 111.83 0v2.15h2.15a.92.92 0 110 1.83h-2.15z" fill="#9fb2d9" fill-rule="evenodd"/><path d="M0 0a11.23 11.23 0 100 22.46A11.23 11.23 0 000 0m-476.88-269.27h-60.01c-32.3 0-58.71-26.42-58.71-58.72s26.42-58.71 58.72-58.71H-29.5c52.3 0 95.08 42.78 95.08 95.07 0 52.3-42.79 95.09-95.08 95.09a40.32 40.32 0 00-40.2 40.2 40.32 40.32 0 0040.2 40.2h48.38c23 0 41.8 18.8 41.8 41.8 0 22.99-18.8 41.8-41.8 41.8H-42.3a16.32 16.32 0 00-16.27 16.27C-58.57-7.32-51.25 0-42.3 0h10.78c6.18 0 11.23 5.05 11.23 11.23 0 6.18-5.05 11.23-11.23 11.23H-102.29c-14.9 0-16.56-17.6-54.21-17.6h-87.3A14.7 14.7 0 01-258.45-9.8a14.7 14.7 0 0114.65-14.65h14.07a21.3 21.3 0 0021.24-21.24 21.3 21.3 0 00-21.24-21.23h-42.35c-57.2 0-65.27-14.95-75.29-44.68-10.02-29.72-62.04-32.12-62.04-32.12h-71.13c-17.6 0-32-14.4-32-32s14.4-32 32-32h3.66a30.87 30.87 0 0030.78-30.77 30.87 30.87 0 00-30.78-30.78" fill-rule="evenodd" transform="translate(651.79 436.34)" fill="url(#contact_b)"/><circle transform="scale(1 -1)" cx="638.97" cy="-86.04" r="4.77" fill="#b8b8b8"/><circle transform="scale(1 -1)" r="4.77" cy="-129.65" cx="651.25" fill="#fff"/><path d="M643.33 137.85c-.17-.23-14.2 1.55-14.3 1.82-.12.27 8.43 11.52 8.72 11.48.29-.03 5.76-13.07 5.58-13.3z" fill="#b8b8b8"/><path d="M573.51 264c6.08 8.82 18.83 23.49 43.2 38.08 38.53 23.1 67.73 53.7 54.9 71.8-12.6 17.77-69.04-16.55-115.9-102.33 6.88-3.6 12.77-6.04 17.8-7.55" fill="#b4c5e6" fill-rule="evenodd"/><path d="M565.99 271.84c1.06.06 3.89.06 7.6-1.04a.49.49 0 11.28.94c-3.25.96-5.88 1.1-7.3 1.1.83 1.4 1.66 2.8 2.5 4.18 1.7.03 7.18.14 9.24.03.27-.02.5.2.52.46a.5.5 0 01-.46.52c-1.9.1-6.55.02-8.7-.02 1.56 2.56 3.13 5.05 4.69 7.47 1.64-.03 6.75-.18 12.4-.94a.49.49 0 01.13.97c-5.12.69-9.81.88-11.91.94 1.57 2.43 3.15 4.79 4.73 7.08 2.26-.04 9.6-.24 17.7-1.33.28-.04.52.15.56.42a.49.49 0 01-.42.55 162.85 162.85 0 01-17.17 1.33c2.07 3 4.14 5.88 6.2 8.64 2.35.1 12.14.36 19.48-2a.49.49 0 11.3.93c-6.84 2.2-15.72 2.18-19.04 2.08 2.53 3.38 5.04 6.58 7.53 9.62 3.22-.18 16.17-1.17 22.23-5.46a.49.49 0 01.56.8c-5.88 4.17-17.85 5.31-22.02 5.6 2.65 3.2 5.26 6.21 7.84 9.06 2.35-.54 12.18-2.92 21.42-7.57a.49.49 0 11.44.87c-8.75 4.4-18.02 6.8-21.1 7.53 1.52 1.67 3.04 3.27 4.54 4.82 2.25-.46 11.82-2.65 24.5-8.78a.49.49 0 11.42.88c-11.82 5.72-21 8.05-24.11 8.73 3.56 3.64 7.03 6.95 10.39 9.95 2.84-.94 17.25-5.81 24.82-10.63a.49.49 0 01.67.15c.15.23.08.53-.15.67-7.27 4.63-20.67 9.28-24.5 10.56 1.97 1.73 3.89 3.36 5.76 4.88 2.44-.82 13.6-4.75 23.78-10.65a.49.49 0 11.5.84c-9.6 5.56-20.05 9.38-23.38 10.54a163.9 163.9 0 0012.32 9.03c2.41-.57 13.29-3.29 21.45-8.03a.49.49 0 01.5.85c-7.51 4.35-17.25 7.02-20.82 7.91 1.57 1.02 3.09 1.96 4.54 2.83 1.95-.2 9.18-1.13 18.53-4.72a.5.5 0 11.35.91 79.8 79.8 0 01-17.48 4.62c11.72 6.78 19 8.5 19.07 8.51a.73.73 0 01-.36 1.43c-.04-.01-3.24-.77-8.8-3.23 1.52 1.92 3.68 4.57 4.25 4.92a.49.49 0 11-.51.84c-.88-.54-4.46-5.08-5.69-6.65a114.1 114.1 0 01-7.66-3.97l4.83 9.6a.49.49 0 01-.87.45l-5.5-10.94a140.4 140.4 0 01-6.19-3.84l5.21 11.4a.49.49 0 01-.89.4l-5.87-12.83c-3.25-2.19-6.71-4.7-10.36-7.6l4.52 11.81a.5.5 0 01-.92.35L626 347.24a191.11 191.11 0 01-5.09-4.28l3.83 10.63a.49.49 0 11-.92.34l-4.43-12.31c-3.21-2.85-6.53-5.98-9.92-9.41l2.88 10.38a.49.49 0 11-.94.26l-3.36-12.08c-1.34-1.39-2.7-2.82-4.07-4.3l1.62 7.93a.49.49 0 01-.96.2l-1.94-9.53c-2.55-2.79-5.13-5.76-7.74-8.9l1.5 8.84a.49.49 0 11-.96.16l-1.8-10.5a286.27 286.27 0 01-6.9-8.8l.98 7.85a.49.49 0 01-.42.55.5.5 0 01-.55-.43l-1.2-9.55a314.97 314.97 0 01-6.1-8.49l.05 7.1a.49.49 0 01-.98 0l-.06-8.53a334.69 334.69 0 01-4.44-6.63l-.76 6.04a.49.49 0 01-.97-.12l.9-7.2c-1.35-2.1-2.72-4.26-4.08-6.47l-.71 3.9a.49.49 0 11-.97-.18l.9-4.98a410.95 410.95 0 01-3.04-5.09l-1.62 3.2a.49.49 0 01-.87-.44l1.9-3.76c-.83-1.42-1.66-2.85-2.49-4.31l1.35-.6c.79 1.39 1.58 2.76 2.38 4.11" fill="#fff" fill-rule="evenodd"/><path d="M566.53 259.01c6.5 4.12 18 9.64 35.35 12.1 29.45 4.2 55.73 16.28 53.74 32.38-1.91 15.5-43.66 9.53-95.61-32.55l6.49-11.88z" fill="#9fb2d9" fill-rule="evenodd"/><path d="M647.68 301.09a1.01 1.01 0 11-.02 2.02c-.04 0-3.31 0-8.92-.75l4.8 3.24a.67.67 0 11-.75 1.11l-7.14-4.82c-2.6-.43-5.58-1-8.86-1.79l5.05 4.82a.67.67 0 01-.93.98l-6.77-6.46c-3.4-.89-7.08-2-10.99-3.36l4.22 4.34a.67.67 0 01-.96.94l-6.17-6.34a147.57 147.57 0 01-12.82-5.53l3.57 4.59a.67.67 0 11-1.06.82l-5.3-6.81c-4.18-2.15-8.46-4.6-12.8-7.4l1.45 3.13a.67.67 0 01-1.21.57l-2.4-5.1c-3.3-2.2-6.63-4.6-9.97-7.22l1.34 3.18a.67.67 0 11-1.24.52l-2.3-5.46c-1.63-1.32-3.26-2.7-4.89-4.13l1-1.82c1.62 1.44 3.25 2.83 4.87 4.15 1.67-.1 5.66-.44 7.34-1.32a.67.67 0 01.9.28c.18.33.05.73-.27.9-1.49.79-4.4 1.18-6.44 1.37 1.29 1.03 2.57 2.02 3.86 2.98 1.63-.27 5.65-1.06 8.32-2.58a.67.67 0 01.92.26c.18.32.07.73-.26.92-2.3 1.3-5.47 2.09-7.5 2.5 2.64 1.93 5.28 3.72 7.89 5.4 2.24-.93 9.33-3.95 12.12-6.24.28-.23.7-.2.94.1.24.28.2.7-.09.94-2.6 2.15-8.7 4.85-11.59 6.07 2.8 1.75 5.57 3.35 8.3 4.82 2.23-.86 9.52-3.81 14.33-7.62a.67.67 0 01.83 1.06c-4.33 3.42-10.58 6.17-13.61 7.4 1.34.7 2.68 1.38 4 2.02a65.32 65.32 0 0017.47-8.74.67.67 0 01.8 1.08 66.64 66.64 0 01-16.52 8.5c4.8 2.25 9.4 4.1 13.72 5.62 2.57-1.6 12.53-7.86 16.89-12a.67.67 0 01.92.98c-4.03 3.83-12.64 9.37-16.16 11.58 3.23 1.1 6.3 1.99 9.17 2.73 2.3-1.76 10.84-8.3 12.82-10a.67.67 0 11.88 1.01 498.6 498.6 0 01-12.04 9.41c3.75.93 7.11 1.58 10 2.04 2.07-1.8 7.07-6.16 8.23-7.33a.67.67 0 01.96.96 277.37 277.37 0 01-7.45 6.63c5.96.86 9.48.85 9.52.85" fill="#b4c5e6" fill-rule="evenodd"/><path d="M549.25 396.39v-.17c0-.02-.68-7.27.17-14.45 14.19 8.1 24.84 12.71 29.13 14.46a205.67 205.67 0 01-29.3.16m-30.64-4.72c.03-.09.04-.18.04-.28 0-.05-.38-14.25 2.79-27.53a330.89 330.89 0 0025.94 16.73 78.92 78.92 0 00-.31 15.64 177.66 177.66 0 01-28.46-4.56m-34.9-13.38c.06-.1.1-.23.13-.36.01-.08 4.33-26.3 8.82-37.07a332.3 332.3 0 0026.87 21.63c-3.18 12.68-3.1 26.42-3.07 28.64-4.9-1.29-9.73-2.8-14.44-4.54a137.68 137.68 0 01-18.3-8.3M458 359.5c.19-.19.3-.45.31-.74 0-.06.2-18.02 10.93-41.15a318.48 318.48 0 0021.71 21.7c-4.39 9.9-8.63 34.52-9.2 37.89a121.03 121.03 0 01-17.14-11.8 114.49 114.49 0 01-6.61-5.9m-16.22-19.66c.3-.19.5-.51.52-.88.58-15.19 7.12-36.21 9.24-42.68a307.33 307.33 0 0016.12 19.58c-9.8 20.74-11.27 37.64-11.49 41.84a111.77 111.77 0 01-14.39-17.86m-12.12-24.58c.4-.14.7-.5.73-.95 1.18-17.15 5.18-33 6.78-38.81a298.48 298.48 0 0012.78 18.66c-1.28 3.79-8.72 26.37-9.76 43.16a116.64 116.64 0 01-5.2-9.46c-1.96-4-3.74-8.2-5.33-12.6m-7.09-29.44c.5-.06.9-.45.95-.96 0-.05 1.74-15.77 4.5-24.91 2.45 4.48 5 8.83 7.6 13.06-.88 3-5.61 19.76-7.2 38.63a146.3 146.3 0 01-5.85-25.82m-1.15-38.64a294.5 294.5 0 005.17 10.14c-2.23 6.18-3.88 16.89-4.69 22.9l-.2-2.23c-.47-5.14-.71-10.49-.74-16.03-.01-4.76.14-9.68.46-14.78m50.77-4.53c-16.53 2.58-39.15 11.32-43.9 13.2-1.92-3.6-3.79-7.28-5.6-11.04 18.57-4.16 34.99-4.58 49.5-2.16m27.85 8.96c-7.83 2.05-49.6 13.2-62.84 19.8-2.7-4.4-5.34-8.94-7.88-13.63 5.58-2.2 30.56-11.78 46.7-13.43.46-.05.82-.37.94-.79 8.33 1.8 16 4.54 23.08 8.05m25.31 17.76c-6.51 2.03-64.06 19.95-73.79 23.3a296.39 296.39 0 01-13.21-19.4c14.52-7.17 63.36-19.85 63.5-19.88.3-.08.53-.27.67-.5a105.86 105.86 0 0122.83 16.48m18.2 21.33l-74.28 23.7a303.8 303.8 0 01-16.34-19.9c12-4.05 73.49-23.18 73.67-23.24.17-.06.32-.15.44-.27a135.78 135.78 0 0116.5 19.71m14.6 25.46c-7.99 4.1-59.76 19.88-65.61 21.66a317.6 317.6 0 01-21.66-21.63l73.68-23.52c.1-.03.18-.07.25-.12 3.17 4.7 6.07 9.56 8.73 14.48 1.63 3.03 3.17 6.08 4.62 9.13m12.27 31.68l-49.47 13a330.25 330.25 0 01-26.53-21.32c9.8-3 56.7-17.37 64.65-21.39a244.64 244.64 0 0111.35 29.7m6.56 25.04h-.02c-7.07 2.31-25.5 5.52-28.24 6a328.87 328.87 0 01-25.47-16.38l47.8-12.57c2.56 8.41 4.49 16.23 5.93 22.95m3.77 21.9c-2.67-1.05-13.65-5.51-29.06-14.2 6-1.08 19.63-3.6 25.75-5.56a241.87 241.87 0 013.31 19.76m-161.54-149.9c-.43 5.87-.62 11.56-.6 17.09.02 5.61.27 11.02.73 16.24 1.74 19.5 6.48 36.33 13.54 50.7 7.64 15.55 18 28.23 30.23 38.32 11.33 9.35 24.25 16.47 38.1 21.6 14.84 5.48 30.75 8.67 46.9 9.86 5.44.4 10.93.56 16.43.52a209.1 209.1 0 0016.65-.82 2.27 2.27 0 002.07-2.46l-.02-.16c-.22-2.15-5.19-48.22-27.63-89.85-22.7-42.1-63.23-79.69-134.64-63.14a2.27 2.27 0 00-1.76 2.1zM246.8 107.01s-21.67 11.18-17.7 38.62c3.97 27.45-12.81 36.13-17.07 44.3-4.26 8.16 5.29 21.33 4.2 32.86-1.08 11.53-14.38 14.61-8.15 30.43 6.23 15.81.96 21.82-7.24 38.76-8.2 16.94 3.95 42.83 9.73 42.68 5.78-.14-1.27-6.2 3.81-17.46 5.08-11.25 26.5-14.68 33.2-24.1 6.7-9.42-5.08-21.9 2.57-34.6 7.65-12.71 30.44-8.77 36.46-21.1 6.03-12.34-8.34-27.12-4.16-40.05 4.18-12.94 19.57-20.26 26.04-30.65 6.48-10.39 18.61-30.3-1.25-54.05C287.37 88.89 246.8 107 246.8 107" fill="#9fb2d9" fill-rule="evenodd"/><path d="M208.2 311.17a1.4 1.4 0 002.62 1.01l89.66-232.9-3.37.91z" fill="#b4c5e6" fill-rule="evenodd"/><path d="M228.83 134.85c-.11 1.08-.18 2.2-.2 3.35l58.89-33.1-5.21 13.54-.07.17-2.67 6.94-49.87 28.02c0 1.14-.04 2.25-.12 3.31l48.4-27.2-4.71 12.24-46.07 25.9c-.6 1.55-1.27 3-2 4.35l46.48-26.12-2.34 6.08-.08.19-10.23 26.58-46.11 25.91.84 2.77 43.68-24.55-5.1 13.27L216 216.92c.16 1.02.26 2.05.3 3.06l34.44-19.35-3.84 9.98-.05.14-11.17 29.01-26.96 15.15c.34.95.63 1.86.89 2.74l24.48-13.76-9.75 25.32-.05.15-16.1 41.8a1.41 1.41 0 002.63 1.02l14.63-37.99 8.35 28.55c.87-.43 1.72-.87 2.56-1.3l-9.24-31.59 10.99-28.54a.98.98 0 00.04-.12l10.16-26.4 16.05 34.4c.9-.29 1.8-.56 2.72-.83l-17.36-37.23 3.87-10.06 21.14 44.97c.91-.3 1.8-.64 2.66-1l-22.09-46.97.34-.19a1.41 1.41 0 00.1-2.4l5.71-14.82.05-.13 9.24-24 15.66 33.3c.62-.84 1.27-1.66 1.96-2.46l-16.21-34.5 2.37-6.17 17.37 36.93c.7-.69 1.43-1.37 2.16-2.05l-18.12-38.54L282 127.3l.05-.12 1.67-4.36 22.25 47.32c.7-.82 1.35-1.67 1.94-2.53l-22.78-48.44 6.41-16.65.04-.11.02-.05a39.68 39.68 0 00-3.36-.9z" fill="#b4c5e6" fill-rule="evenodd"/><path d="M236.72 49.47c-5.96 4.64-12.09 6.74-15.33 9.74-6.46 5.98-2.11 20.9-6.8 30.92-4.68 10.03-17.64 8.52-17.12 24.75.51 16.24-6.16 19.94-19 32.55-12.83 12.6-10.22 39.8-4.98 41.53 5.25 1.73.86-5.98 9.05-14.48 8.2-8.5 28.57-4.69 37.63-11 9.06-6.32 2.47-21.33 13.44-30.3 10.97-8.98 30.2 1.9 39.6-7.26 9.39-9.16 1.22-27.08 9.14-37.37 7.92-10.29 24.12-11.93 33.3-19.19 5.15-4.08 12.88-10.3 16.84-19.89z" fill="#c0cdea" fill-rule="evenodd"/><path d="M310.12 49.47l2.14 22.17c.89-.52 1.74-1.07 2.55-1.65l-1.97-20.52zm-17.73 0l2.87 29.78c.86-.4 1.73-.77 2.6-1.15l-2.76-28.63zm-7.3 0l3.24 33.6c.82-.57 1.68-1.1 2.55-1.6l-3.08-32zm-4.9 0L267.14 64.6l-49.82 8.48-.14 2.75 47.2-8.03-8.86 10.3-39.26 6.68c-.19.97-.42 1.93-.72 2.85l37.22-6.33-6.67 7.75-.1.1-19.38 22.5-29.13 4.97a43 43 0 01-.08 2.74l26.46-4.5-16.92 19.65-.1.12-27.93 32.43a1.35 1.35 0 002.04 1.76l25.38-29.47-1.67 28.37 2.72-.35 1.85-31.4 19.07-22.14.07-.09 17.64-20.48 3.37 36.11c.9.03 1.81.08 2.72.13l-3.64-39.08 6.72-7.8 4.55 47.26c.92 0 1.82 0 2.7-.04l-4.75-49.37.37-.07a1.35 1.35 0 00.86-2.12l9.91-11.5.09-.1 14.82-17.21z" fill="#e1e8f6" fill-rule="evenodd"/><path d="M55.52 41.2h-5.45a4.14 4.14 0 00-4.13 4.14 4.15 4.15 0 004.13 4.13h5.45a4.15 4.15 0 004.13-4.13 4.15 4.15 0 00-4.13-4.14M68.8 41.2h599.25a4.15 4.15 0 014.14 4.14 4.15 4.15 0 01-4.14 4.13H68.8a4.15 4.15 0 01-4.13-4.13 4.14 4.14 0 014.13-4.14" fill="#00000f" fill-rule="evenodd"/><path d="M114.23 213.42a11.67 11.67 0 01-4.9-2.83.4.4 0 00-.48-.06l-3.1 1.79h-.01a.77.77 0 01-1.03-.28l-.02-.03-2.17-3.76a.77.77 0 01.28-1.05l.02-.02 3.07-1.77a.4.4 0 00.2-.45 11.89 11.89 0 010-5.68.41.41 0 00-.22-.46l-3.07-1.77a.77.77 0 01-.28-1.05l2.19-3.79a.76.76 0 011.05-.28l.02.01 3.07 1.77c.16.1.36.07.48-.05a11.81 11.81 0 014.92-2.84c.18-.06.3-.22.3-.4v-3.57a.76.76 0 01.77-.76h4.37a.77.77 0 01.76.76v3.57c0 .2.14.36.32.4a11.65 11.65 0 014.9 2.84.4.4 0 00.5.04l3.07-1.77a.77.77 0 011.05.28l.02.02 2.17 3.77a.77.77 0 01-.28 1.05l-3.09 1.78a.4.4 0 00-.2.45 11.86 11.86 0 010 5.68.4.4 0 00.22.47l3.07 1.77a.77.77 0 01.28 1.04l-.01.03-2.18 3.77a.77.77 0 01-1.04.28l-3.1-1.79a.4.4 0 00-.5.07 11.85 11.85 0 01-4.9 2.83.41.41 0 00-.3.4v3.56a.77.77 0 01-.76.76h-4.38a.76.76 0 01-.54-.22.76.76 0 01-.22-.54v-3.57a.4.4 0 00-.32-.4m-1.44-6.6a6.63 6.63 0 009.42 0 6.63 6.63 0 000-9.4 6.64 6.64 0 00-9.42 0 6.63 6.63 0 000 9.4m-3.46-13.16zM66.58 285.56a26.83 26.83 0 01-8.21-5.45.18.18 0 00-.11-.05.2.2 0 00-.12.02l-7 4.05a2.39 2.39 0 01-1.8.2 2.48 2.48 0 01-1.5-1.13c-1.69-2.74-3.3-5.71-4.91-8.52a2.44 2.44 0 01.18-2.71c.19-.25.43-.47.72-.63 2.23-1.38 4.65-2.69 6.94-4.01a.18.18 0 00.08-.09.2.2 0 000-.12l-.15-.65a26.69 26.69 0 01-.59-7.57 27.72 27.72 0 01.75-4.9.18.18 0 00-.02-.12.19.19 0 00-.08-.09c-2.55-1.36-5.14-2.97-7.66-4.42l.09-.12-.08-.09a2.47 2.47 0 01-.18-2.72l5.28-9.15.1.06c.05-.05.1-.1.17-.14a2.48 2.48 0 012.68-.2c2.32 1.23 4.7 2.72 6.98 4.03a.2.2 0 00.12.03c.04 0 .08-.03.11-.06a27.06 27.06 0 0111.34-6.55.2.2 0 00.1-.07.18.18 0 00.04-.12v-8.01a2.41 2.41 0 01.72-1.73 2.4 2.4 0 011.73-.72h9.83a2.4 2.4 0 011.73.72 2.45 2.45 0 01.72 1.73v8.01c0 .05.01.1.04.12.02.04.06.06.1.07l.04.01a27.01 27.01 0 0111.3 6.55c.04.03.08.05.12.05.04 0 .09 0 .12-.03l6.95-4a2.4 2.4 0 011.85-.25 2.46 2.46 0 011.47 1.12c1.83 2.93 3.55 6.14 5.29 9.15l-.1.06.05.23a2.49 2.49 0 01-.49 1.81c-.19.25-.43.46-.71.63l-6.94 4a.2.2 0 00-.1.22l.19.73h-.01a28.53 28.53 0 01.62 5.82 27.66 27.66 0 01-.8 6.56.2.2 0 00.02.12c.02.04.05.08.09.1l6.93 4a2.49 2.49 0 011.2 2.44c-.04.3-.14.6-.3.88-1.65 3.06-3.54 6.15-5.3 9.17l-.09-.05-.16.13a2.48 2.48 0 01-2.71.19l-.52-.3-6.43-3.72a.19.19 0 00-.13-.02.19.19 0 00-.1.05l-.03.02a27.4 27.4 0 01-11.42 6.6.17.17 0 00-.04.12v8.02a2.44 2.44 0 01-2.45 2.44H72.3a2.44 2.44 0 01-1.73-.71 2.43 2.43 0 01-.72-1.73v-8.02a.21.21 0 00-.04-.12.2.2 0 00-.1-.07h-.04c-1.06-.31-2.1-.68-3.09-1.1m3.46-.3a25.35 25.35 0 01-10.67-6.2 1.64 1.64 0 00-1.96-.23c-2.3 1.33-4.72 2.64-6.98 4.03a.97.97 0 01-.72.07 1 1 0 01-.61-.46c-1.68-2.54-3.36-5.82-4.92-8.51a.95.95 0 01-.1-.76c.04-.13.1-.25.18-.35a1 1 0 01.29-.26c2.07-1.37 4.74-2.74 6.94-4a1.64 1.64 0 00.8-1.13l.13-.04-.16-.65a26.44 26.44 0 01-.75-6.2 25.57 25.57 0 01.76-6.22 1.64 1.64 0 00-.85-1.85l-6.14-3.54-.73-.43a1 1 0 01-.37-1.36l4.55-7.88.37-.64a.97.97 0 01.6-.46c.14-.03.27-.04.4-.03.12.02.25.06.36.13 2.2 1.38 4.68 2.7 6.95 4a1.65 1.65 0 001.96-.23 25.95 25.95 0 0110.74-6.2 1.65 1.65 0 001.2-1.59v-8.01a.97.97 0 01.29-.7.99.99 0 01.7-.3h9.83a1 1 0 01.7.3.97.97 0 01.3.7v8.01a1.63 1.63 0 001.27 1.6 25.2 25.2 0 018.27 4.15c.84.63 1.64 1.32 2.39 2.04a1.64 1.64 0 002.04.19l6.87-3.96a.97.97 0 01.76-.1 1.02 1.02 0 01.6.46c1.63 2.85 3.29 5.68 4.92 8.52a.98.98 0 01.1.76 1.03 1.03 0 01-.46.6l-6.94 4.01a1.63 1.63 0 00-.78 1.04l-.18.04.18.73a24.87 24.87 0 01.75 6.21 26.4 26.4 0 01-.75 6.21 1.65 1.65 0 00.84 1.85l6.87 3.97a.98.98 0 01.46.6.98.98 0 01-.1.76c-1.67 2.5-3.35 5.84-4.9 8.52a.99.99 0 01-.61.46.95.95 0 01-.76-.1l-6.95-4a1.63 1.63 0 00-1.98.25 25.65 25.65 0 01-10.72 6.2 1.64 1.64 0 00-1.19 1.57v8.02a.96.96 0 01-.3.7.98.98 0 01-.7.3H72.3a1 1 0 01-1-1v-8.02a1.65 1.65 0 00-1.26-1.6m1.73-11.54a14.27 14.27 0 01-7.7-18.59 14.28 14.28 0 0118.59-7.7 14.25 14.25 0 010 26.3 14.17 14.17 0 01-10.89 0m-5.64-2.07a15.7 15.7 0 0022.17 0 15.7 15.7 0 000-22.17 15.7 15.7 0 00-25.57 5.09 15.61 15.61 0 000 11.99 15.7 15.7 0 003.4 5.1M347.27 402.06a11.7 11.7 0 01-4.9-2.84.4.4 0 00-.48-.06l-3.1 1.79a.77.77 0 01-1.04-.29l-.01-.02-2.18-3.76a.77.77 0 01.28-1.05l.02-.02 3.07-1.77a.4.4 0 00.2-.45 11.6 11.6 0 010-5.68.41.41 0 00-.22-.46l-3.07-1.77a.77.77 0 01-.28-1.05l2.2-3.79a.77.77 0 011.04-.28l.02.01 3.07 1.78c.16.09.36.06.49-.06a11.77 11.77 0 014.91-2.84c.18-.06.3-.22.3-.4v-3.56a.76.76 0 01.77-.77h4.37c.21 0 .4.09.54.23.14.13.23.33.23.54v3.56c0 .2.13.36.31.4a11.68 11.68 0 014.9 2.84.4.4 0 00.5.04l3.08-1.77a.77.77 0 011.05.28v.02l2.19 3.77a.77.77 0 01-.29 1.05l-3.09 1.78a.41.41 0 00-.19.45 11.3 11.3 0 01.35 2.84 11.47 11.47 0 01-.35 2.84.4.4 0 00.22.47l3.06 1.77a.77.77 0 01.28 1.04v.03l-2.18 3.77c-.11.18-.28.3-.47.35-.2.05-.4.03-.58-.07l-3.1-1.79a.4.4 0 00-.49.07 11.86 11.86 0 01-4.9 2.83.41.41 0 00-.3.4v3.56c0 .21-.09.4-.23.54a.76.76 0 01-.54.23h-4.38a.76.76 0 01-.54-.23.76.76 0 01-.22-.54v-3.57a.4.4 0 00-.32-.4m-1.43-6.6a6.63 6.63 0 009.41 0 6.63 6.63 0 000-9.4 6.64 6.64 0 00-9.41 0 6.63 6.63 0 000 9.4m-3.46-13.16zM671.69 275.4a11.7 11.7 0 01-4.9-2.84.41.41 0 00-.49-.06l-3.09 1.78-.01.01a.76.76 0 01-.57.07.76.76 0 01-.47-.36v-.02l-2.18-3.77a.77.77 0 01.28-1.05h.02l3.07-1.78c.16-.1.23-.28.19-.45a11.48 11.48 0 01-.26-4.27c.06-.48.15-.95.26-1.41a.41.41 0 00-.22-.46l-3.06-1.77a.77.77 0 01-.28-1.05l2.18-3.8c.1-.17.28-.3.47-.35.19-.05.4-.03.58.08l.02.01 3.07 1.77c.17.1.36.07.5-.06a11.8 11.8 0 014.9-2.84c.18-.05.3-.21.3-.4v-3.56c0-.2.09-.4.23-.54a.76.76 0 01.54-.22h4.38a.76.76 0 01.77.77v3.56c0 .2.12.36.3.4a11.61 11.61 0 014.9 2.83.4.4 0 00.51.05l3.07-1.77c.18-.1.4-.13.58-.08.2.05.36.18.47.36l.01.02 2.18 3.77c.1.18.12.39.07.58a.77.77 0 01-.35.47l-3.1 1.78a.4.4 0 00-.18.45 11.7 11.7 0 010 5.68.4.4 0 00.2.46l3.08 1.77c.18.1.3.28.35.47.05.2.03.4-.07.58l-.02.02-2.17 3.77a.77.77 0 01-1.05.28l-3.1-1.78a.4.4 0 00-.49.07 11.8 11.8 0 01-4.9 2.83.41.41 0 00-.3.4v3.56a.77.77 0 01-.76.76h-4.38a.77.77 0 01-.77-.76v-3.57a.4.4 0 00-.31-.4m-1.44-6.6a6.64 6.64 0 0011.36-4.7 6.64 6.64 0 00-11.36-4.7 6.63 6.63 0 000 9.4m-3.46-13.17z" fill="#c0cdea" fill-rule="evenodd"/><path d="M695.32 229.55a1.14 1.14 0 01-2.28 0v-2.69h-2.68a1.14 1.14 0 110-2.28h2.68v-2.68a1.14 1.14 0 112.28 0v2.68h2.69a1.14 1.14 0 010 2.28h-2.69z" fill="#9fb2d9" fill-rule="evenodd"/><path d="M448.86 243.53h-68.02a4.5 4.5 0 01-4.48-4.5 4.5 4.5 0 014.48-4.48h68.02a4.5 4.5 0 014.5 4.49 4.5 4.5 0 01-4.5 4.49" fill="#00000f" fill-rule="evenodd"/><path d="M446.58 275.52h-31.47a.56.56 0 01-.54-.47l-5.64-40.03a.4.4 0 01.4-.47h43.03a.4.4 0 01.4.47l-5.64 40.03a.56.56 0 01-.54.47" fill="#3b405f" fill-rule="evenodd"/><path d="M465.46 243.53h-68.01a4.5 4.5 0 01-4.5-4.5 4.5 4.5 0 014.5-4.48h68.01a4.5 4.5 0 014.5 4.49 4.5 4.5 0 01-4.5 4.49" fill="#3b405f" fill-rule="evenodd"/><path d="M499.7 363.73H348.9a2.33 2.33 0 01-2.32-2.33V260.56a2.33 2.33 0 012.33-2.32H499.7a2.33 2.33 0 012.32 2.32V361.4a2.33 2.33 0 01-2.32 2.33" fill="#00000f" fill-rule="evenodd"/><path d="M507.07 363.73h-150.8a2.33 2.33 0 01-2.32-2.33V260.56a2.33 2.33 0 012.33-2.32h150.79a2.33 2.33 0 012.32 2.32V361.4a2.33 2.33 0 01-2.32 2.33" fill="#3b405f" fill-rule="evenodd"/><path d="M505.81 362.21H357.54c-.85 0-1.54-.7-1.54-1.54v-90.92c0-.53.43-.96.96-.96h149.43c.53 0 .96.43.96.96v90.92c0 .85-.7 1.54-1.54 1.54" fill="#101537" fill-rule="evenodd"/><path d="M503 273.14H360.34v84.72H503z" fill-rule="evenodd"/><path d="M418.46 254.09l-1.5-10.57h-6.83l2.07 14.72h37.29l.52-3.68h-31.02a.56.56 0 01-.53-.47" fill="#101537" fill-rule="evenodd"/><path d="M360.35 352.99H503.5v4.87H360.35zM360.35 273.14H503.5v4.88H360.35z" fill="#fff" fill-rule="evenodd"/><path d="M361.25 354.02h35.95v2.8h-35.95z" fill="#e4e1e8" fill-rule="evenodd"/><path d="M395.47 354.8a.61.61 0 110 1.23.61.61 0 010-1.22M393.6 354.8a.61.61 0 110 1.24.61.61 0 010-1.23M391.73 354.8a.61.61 0 110 1.24.61.61 0 010-1.23" fill="#d64c47" fill-rule="evenodd"/><path d="M398.9 354.02h35.94v2.8H398.9z" fill="#e4e1e8" fill-rule="evenodd"/><path d="M433.12 354.8a.61.61 0 110 1.24.61.61 0 010-1.23M431.25 354.8a.61.61 0 110 1.23.61.61 0 010-1.22M429.38 354.8a.61.61 0 110 1.24.61.61 0 010-1.23" fill="#d64c47" fill-rule="evenodd"/><path d="M430.62 248.02h88.42a9 9 0 008.98-8.98 9 9 0 00-8.98-8.99h-88.42a9 9 0 00-8.98 8.99 9 9 0 008.98 8.98" fill="#101537" fill-rule="evenodd"/><path d="M413.74 248.02h40.95a9 9 0 008.98-8.98 9 9 0 00-8.98-8.99h-40.95a9 9 0 00-8.98 8.99 9 9 0 008.98 8.98" fill="#070725" fill-rule="evenodd"/><path d="M368.07 233.33h274.2a5.04 5.04 0 005.02-5.03v-23.46a5.04 5.04 0 00-5.03-5.03H368.07a5.04 5.04 0 00-5.02 5.03v23.46a5.04 5.04 0 005.02 5.03" fill="#101537" fill-rule="evenodd"/><path d="M367.93 233.33H642.4a4.97 4.97 0 004.9-5.03v-9.23c0-2.76-2.2-5.02-4.9-5.02H367.93a4.97 4.97 0 00-4.88 5.02v9.23c0 2.76 2.2 5.03 4.88 5.03" fill="#00000f" fill-rule="evenodd"/><path d="M292.73 232.9h75.86a5.23 5.23 0 005.21-5.2V54.9a5.23 5.23 0 00-5.2-5.2h-75.87a5.23 5.23 0 00-5.21 5.2V227.7a5.23 5.23 0 005.2 5.2" fill="#00000f" fill-rule="evenodd"/><path d="M367.65 232.9h67.91c2.57 0 4.67-2.09 4.67-4.66V54.37c0-2.57-2.1-4.67-4.67-4.67h-67.9a4.68 4.68 0 00-4.67 4.67v173.87c0 2.57 2.1 4.67 4.66 4.67" fill="#101537" fill-rule="evenodd"/><path d="M364.76 239.04h294.26c.95 0 1.71-.77 1.71-1.72v-8c0-.93-.76-1.7-1.7-1.7H364.75c-.94 0-1.71.77-1.71 1.7v8c0 .95.77 1.72 1.7 1.72" fill="#d58750" fill-rule="evenodd"/><path d="M280.35 239.04h84.01c.95 0 1.72-.77 1.72-1.72v-8c0-.93-.77-1.7-1.72-1.7h-84.01c-.94 0-1.71.77-1.71 1.7v8c0 .95.77 1.72 1.71 1.72" fill="#b56b41" fill-rule="evenodd"/><path d="M372.66 221.83h57.9a3.9 3.9 0 003.89-3.89v-44.88a3.9 3.9 0 00-3.9-3.89h-57.9a3.9 3.9 0 00-3.88 3.9v44.87a3.9 3.9 0 003.89 3.9" fill="#fff" fill-rule="evenodd"/><path d="M434.4 172.48h-57.1a3.9 3.9 0 00-3.9 3.9v44.87c0 .2.02.4.05.58h-.8a3.9 3.9 0 01-3.88-3.88v-44.89a3.9 3.9 0 013.89-3.89h57.9a3.9 3.9 0 013.84 3.31" fill="#e4e1e8" fill-rule="evenodd"/><path d="M387.63 218.73h27.95c.83 0 1.5-.68 1.5-1.5v-.48c0-.82-.67-1.5-1.5-1.5h-27.95c-.82 0-1.5.68-1.5 1.5v.48c0 .82.68 1.5 1.5 1.5" fill="#070725" fill-rule="evenodd"/><path d="M372.66 166.38h57.9a3.9 3.9 0 003.89-3.89v-44.88a3.9 3.9 0 00-3.9-3.89h-57.9a3.9 3.9 0 00-3.88 3.9v44.87a3.9 3.9 0 003.89 3.9" fill="#fff" fill-rule="evenodd"/><path d="M434.4 117.03h-57.1a3.9 3.9 0 00-3.9 3.9v44.87c0 .2.02.4.05.58h-.8a3.9 3.9 0 01-3.88-3.89v-44.88a3.9 3.9 0 013.89-3.89h57.9a3.9 3.9 0 013.84 3.31" fill="#e4e1e8" fill-rule="evenodd"/><path d="M387.63 163.28h27.95c.83 0 1.5-.68 1.5-1.5v-.48c0-.82-.67-1.5-1.5-1.5h-27.95c-.82 0-1.5.68-1.5 1.5v.48c0 .82.68 1.5 1.5 1.5" fill="#070725" fill-rule="evenodd"/><path d="M372.66 110.93h57.9a3.9 3.9 0 003.89-3.89V62.16a3.9 3.9 0 00-3.9-3.89h-57.9a3.9 3.9 0 00-3.88 3.9v44.87a3.9 3.9 0 003.89 3.9" fill="#fff" fill-rule="evenodd"/><path d="M434.4 61.58h-57.1a3.9 3.9 0 00-3.9 3.9v44.87c0 .2.02.4.05.58h-.8a3.9 3.9 0 01-3.88-3.89V62.16a3.9 3.9 0 013.89-3.89h57.9a3.9 3.9 0 013.84 3.31" fill="#e4e1e8" fill-rule="evenodd"/><path d="M387.63 107.83h27.95c.83 0 1.5-.68 1.5-1.5v-.48c0-.82-.67-1.5-1.5-1.5h-27.95c-.82 0-1.5.68-1.5 1.5v.48c0 .82.68 1.5 1.5 1.5" fill="#070725" fill-rule="evenodd"/><path d="M601.24 232.9h-10.48a.46.46 0 01-.46-.45V47.95c0-.26.2-.47.46-.47h10.48c.25 0 .46.21.46.47v184.5c0 .25-.2.46-.46.46" fill="#aeabba" fill-rule="evenodd"/><path d="M601.13 232.9h-3.27a2.34 2.34 0 01-2.34-2.33V49.82a2.35 2.35 0 012.34-2.34h3.27a2.35 2.35 0 012.34 2.34v180.75a2.34 2.34 0 01-2.34 2.34" fill="#fff" fill-rule="evenodd"/><path d="M650.28 232.9h-10.47a.46.46 0 01-.46-.45V47.95c0-.26.2-.47.46-.47h10.47c.26 0 .47.21.47.47v184.5c0 .25-.21.46-.47.46" fill="#aeabba" fill-rule="evenodd"/><path d="M650.17 232.9h-3.26a2.34 2.34 0 01-2.34-2.33V49.82a2.34 2.34 0 012.34-2.34h3.26a2.34 2.34 0 012.34 2.34v180.75a2.34 2.34 0 01-2.34 2.34" fill="#fff" fill-rule="evenodd"/><path d="M488.17 239.04h170.85c.95 0 1.71-.77 1.71-1.72v-8c0-.93-.76-1.7-1.7-1.7H499.28a63.87 63.87 0 01-11.12 11.42" fill="#b56b41" fill-rule="evenodd"/><path d="M550.21 288.61l2.15-3.58s.83-4.36-.41-7.34c-1.24-2.98 14.23-6.2 14.23-6.2l12 9.68 2.65 3.3s-5.63 6.13-5.96 8.78c-.33 2.65-24.66-4.64-24.66-4.64" fill="#ed7862" fill-rule="evenodd"/><path d="M523.48 254.3s-8.11-6.53-10.93-7.03c-2.8-.5-15.14 5.22-17.62 5.88-2.48.66-8.03.66-11.92.66-3.89 0-8.03-1.49-10.1-5.8h8.28c2.24 0 9.77-6.11 17.05-11.08 7.28-4.97 13.07-9.1 17.88-8.6 4.8.5 21.34 12.9 21.34 12.9z" fill="#f5ac83" fill-rule="evenodd"/><path d="M498.24 236.93c7.28-4.97 13.07-9.1 17.88-8.6 4.8.5 21.35 12.9 21.35 12.9l-14 13.08s-1.87-1.51-4.13-3.14c5.9-9.36 3.24-13.4-3.67-16.17-5.55-2.22-19.65 5.49-28.51 9.8 3.2-2.21 7.17-5.2 11.08-7.87" fill="#ed7862" fill-rule="evenodd"/><path d="M589.64 177.92s-41.86.38-47.04-.07c-5.18-.44-10.17-5.9-9.31-14.3.86-8.42 12.58-74 12.58-74s.8-.59 1.7-.77c.91-.19 8.4-1.43 8.4-1.43l.5 6.09-4.37 63.8 38.61 7.04z" fill="#070725" fill-rule="evenodd"/><path d="M556.48 93.44s.88-.24 1.26-1.36c.4-1.12 1.2-8.37 1.12-9.4-.08-1.04-2.66-3.04-7.08-4.92-4.42-1.87-21.24-6.78-21.24-6.78l-.19.6s-.79.35-1.11 1.39a6.36 6.36 0 00.7 4.63c.93 1.31 6.36 5.03 7.35 5.83.99.8 5.91 7.65 6.31 8.1.4.47 3 2.11 6.07.4 3.07-1.72 6.55-1.1 6.8 1.5" fill="#d64c47" fill-rule="evenodd"/><path d="M530.35 71.59s16.78 6.15 20.46 7.45c3.68 1.3 8 4.79 8 4.79s.6-.27.73-.76c.12-.5.22-2.2.26-2.57.05-.36-.08-1.98-1.92-2.77-1.84-.79-25.28-9.05-26.35-9.4-1.07-.36-1.5 2.48-1.5 2.48s-.07.6.32.78" fill="#fff" fill-rule="evenodd"/><path d="M615.57 203.9S503.66 191 497.54 189.67c-6.13-1.32-11.26-8.6-8.94-18.54 2.32-9.92 27.4-89.67 27.4-89.67s1.03-.58 2.15-.66c1.12-.09 10.26-.42 10.26-.42l3.6 3.68-20.03 71.19 81.76 4.14c22.94 3.7 26.05 31.62 21.83 44.53" fill="#181d3b" fill-rule="evenodd"/><path d="M536.84 195.38s8.93-6.62 14.31-4.47c5.38 2.16 31.2 46.76 31.2 46.76l-12.41 44.69s-8.28-.33-18.13-2.49l-1.86-1.7s-7.28-1.23-11.42-5.87c-4.14-4.63-17.7-16.71-18.2-17.7-.5-1 11.83-14.57 14.98-16.72 0 0 1.48-.5 2.4.41l1.49 1.2s3.3-17.23 3.3-22.34v-5.1s-1.73-13.19-3.05-14.43c-1.33-1.24-2.61-2.24-2.61-2.24" fill="#d64c47" fill-rule="evenodd"/><path d="M576.8 186.89a3.75 3.75 0 110 7.5h-33.1c-4.52 0-8.63 1.85-11.61 4.83a16.47 16.47 0 00-4.45 8.06 61 61 0 01-6.88-3.33 24 24 0 0122.93-17.06z" fill="#fff" fill-rule="evenodd"/><path d="M577 78.9h9.5v78.25H577z" fill="#070725" fill-rule="evenodd"/><path d="M564.38 162.25h9.26v21.18h-9.26zM628.43 162.25h9.26v21.18h-9.26z" fill="#00000f" fill-rule="evenodd"/><path d="M577 137.83h9.5c3.04 0 5.51 2.48 5.51 5.5v10.18c0 3.02-2.47 5.5-5.5 5.5H577a5.52 5.52 0 01-5.5-5.5v-10.18c0-3.02 2.47-5.5 5.5-5.5" fill="#3b405f" fill-rule="evenodd"/><path d="M569.43 144.7h24.65c.87 0 1.57.71 1.57 1.58v12.8c0 .86-.7 1.57-1.57 1.57h-24.65c-.87 0-1.58-.7-1.58-1.57v-12.8c0-.87.71-1.58 1.58-1.58" fill="#070725" fill-rule="evenodd"/><path d="M508.77 166.71h77.12c2.91 0 5.3-2.38 5.3-5.3v-5.95c0-2.91-2.39-5.3-5.3-5.3h-77.12a5.31 5.31 0 00-5.3 5.3v5.96c0 2.91 2.38 5.3 5.3 5.3" fill-rule="evenodd" fill="#d4aa00"/><path d="M564.87 166.71h77.12c2.92 0 5.3-2.38 5.3-5.3v-5.95c0-2.91-2.38-5.3-5.3-5.3h-77.12a5.31 5.31 0 00-5.3 5.3v5.96c0 2.91 2.39 5.3 5.3 5.3" fill-rule="evenodd" fill="#ffe680"/><path d="M577 84h9.5c3.04 0 5.51-2.47 5.51-5.5V68.32c0-3.02-2.47-5.5-5.5-5.5H577a5.52 5.52 0 00-5.5 5.5V78.5c0 3.03 2.47 5.5 5.5 5.5" fill="#3b405f" fill-rule="evenodd"/><path d="M570.13 73.91h23.24a2.28 2.28 0 002.28-2.28V53.16a2.29 2.29 0 00-2.28-2.28h-23.24a2.28 2.28 0 00-2.28 2.28v18.47a2.28 2.28 0 002.28 2.28" fill="#070725" fill-rule="evenodd"/><path d="M607 56.53a6.85 6.85 0 00-6.83-6.83h-36.83a6.85 6.85 0 00-6.83 6.83 6.85 6.85 0 006.83 6.82h36.83a6.85 6.85 0 006.82-6.82" fill="#707386" fill-rule="evenodd"/><path d="M642.82 49.7a6.85 6.85 0 00-6.82-6.83h-93.6a6.85 6.85 0 00-6.82 6.83 6.85 6.85 0 006.82 6.83H636a6.85 6.85 0 006.82-6.83" fill="#101537" fill-rule="evenodd"/><path d="M584.24 49.7a6.85 6.85 0 00-6.83-6.83h-49.9a6.85 6.85 0 00-6.83 6.83 6.85 6.85 0 006.83 6.83h49.9a6.85 6.85 0 006.83-6.83" fill="#00000f" fill-rule="evenodd"/><path d="M562.9 212.04a3.75 3.75 0 000-7.5h-33.1c-4.53 0-8.64-1.85-11.62-4.84a16.38 16.38 0 01-4.83-11.6v-29.83a3.75 3.75 0 10-7.5 0v29.83c0 6.59 2.69 12.57 7.03 16.91a23.87 23.87 0 0016.91 7.03z" fill="#fff" fill-rule="evenodd"/><path d="M636.37 252.03a41.25 41.25 0 01-41.13 41.13h-5.46a41.25 41.25 0 01-41.13-41.13v-61.17a10.6 10.6 0 0110.57-10.57h66.58a10.6 10.6 0 0110.57 10.57z" fill-rule="evenodd" fill="#d4aa00"/><path d="M647.3 252.03a41.25 41.25 0 01-41.14 41.13h-5.46a41.25 41.25 0 01-41.13-41.13v-61.17a10.6 10.6 0 0110.58-10.57h66.57a10.6 10.6 0 0110.57 10.57z" fill-rule="evenodd" fill="#ffe680"/><path d="M531.13 86.9s1.44 0 2.35-1.2c.9-1.2 4.13-9.48 4.3-10.72.17-1.24-3.3-4.39-9.68-7.94-6.37-3.56-31.24-14.49-31.24-14.49l-.46.67s-1.32.16-2.1 1.28c-.8 1.12-1.25 3.85-.17 5.67 1.07 1.82 8.52 7.86 9.84 9.1 1.33 1.24 7.12 10.8 7.62 11.46.5.66 4.1 3.4 9.35 2.32 5.26-1.08 10.51.7 10.2 3.86" fill="#d64c47" fill-rule="evenodd"/><path d="M496.4 53.22s24.46 12.37 29.84 15.02c5.38 2.65 11.16 8.08 11.16 8.08s1-.14 1.33-.68c.33-.53.96-2.52 1.12-2.93.17-.42.42-2.36-2.23-3.85-2.65-1.49-36.91-18.37-38.48-19.12-1.58-.74-3.02 2.46-3.02 2.46s-.27.7.28 1.02" fill="#fff" fill-rule="evenodd"/><path d="M543.09 338.98l3.97.93a17.77 17.77 0 0021.29-13.22l4.44-19a17.77 17.77 0 00-13.22-21.29l-3.97-.93a17.77 17.77 0 00-21.29 13.22l-4.44 19a17.77 17.77 0 0013.22 21.29" fill="#f5ac83" fill-rule="evenodd"/><path d="M568.86 324.51l3.93-16.82a17.77 17.77 0 00-13.22-21.29l-3.97-.93a17.6 17.6 0 00-11.31 1.13c.46-.2 3.83-1.51 4.58.97.81 2.66-3.8 11.22-3.8 11.22s-.3.57.09 1.1c.38.52 3.02 5.22 1.87 10.93-1.15 5.7 6.23 9.68 6.23 9.68l-17.07-4.62v-3.47s-1.85 3.86-6.1 4.3l-.22.98a17.64 17.64 0 001.82 12.69c5.66-.7 24.2-3.06 37.17-5.87" fill="#ed7862" fill-rule="evenodd"/><path d="M537.33 307.08s-1.55.16-2.06 2.35l-.67 2.9s-1.65 2.17-2.62 6.36c0 0-10.1 1.4-12.06 10.76-1.96 9.34 6.74 19.23 8.02 20.2 1.28.98 6.65 2.84 13.4-.18 0 0 1.14-.71 3.35.18 2.2.9 14.58 4.4 20.57 4.59 6 .2 9.85-6 12.66-13.49 0 0 .35 3.03 3.37 3.66 3.02.63 1.4-5.03-.78-6.97 0 0 5.14-2.65 6.13-8.15.98-5.5-.88-29.78-5.48-34.62-4.6-4.85-16.2-6.92-19.9-7.78-3.7-.87-11.03 2.95-14.01 13.12 0 0 1.46 5.05.25 9.22-1.2 4.17-2.3 7.24-3.85 7.78-1.56.54-5.41-3.5-5.74-5.3-.33-1.82.4-4.29.4-4.29s-.42-.38-.98-.34" fill="#101537" fill-rule="evenodd"/><path d="M537.33 307.08s-1.55.16-2.06 2.35l-.67 2.9s-1.64 2.17-2.62 6.36c0 0-10.1 1.4-12.06 10.76-1.96 9.34 6.74 19.23 8.02 20.2 0 0-9.52-10.38.98-15.72 10.5-5.33 26.01-8.72 36.19-8.07 10.18.64 17.4 18.3 17.41 18.31 1.17-1.11-.23-5.15-2.01-6.73 0 0 5.14-2.65 6.13-8.15.98-5.5-.88-29.78-5.48-34.62-4.6-4.85-16.2-6.92-19.9-7.78-3.69-.87-11.03 2.95-14.01 13.12 0 0 1.45 5.05.25 9.22-1.2 4.17-2.3 7.24-3.85 7.78-1.56.54-5.41-3.5-5.74-5.3-.33-1.82.4-4.29.4-4.29s-.42-.38-.98-.34" fill="#070725" fill-rule="evenodd"/><path d="M677.23 152a1.14 1.14 0 11-2.28 0v-2.69h-2.7a1.14 1.14 0 01.01-2.28h2.69v-2.68a1.14 1.14 0 112.28 0v2.68h2.68a1.14 1.14 0 010 2.28h-2.68zM608.73 388.52a1.14 1.14 0 01-2.29 0v-2.68h-2.68a1.14 1.14 0 110-2.28h2.68v-2.69a1.14 1.14 0 112.29 0v2.69h2.68a1.14 1.14 0 010 2.28h-2.68zM479.48 431.17a1.14 1.14 0 01-2.28 0v-2.68h-2.69a1.14 1.14 0 110-2.28h2.69v-2.69a1.14 1.14 0 112.28 0v2.69h2.68a1.14 1.14 0 010 2.28h-2.68zM160.24 203.7a1.14 1.14 0 01-2.29 0V201h-2.68a1.14 1.14 0 010-2.28h2.68v-2.68a1.14 1.14 0 012.29 0v2.68h2.68a1.14 1.14 0 010 2.28h-2.68zM271.39 351.04a1.14 1.14 0 01-2.29 0v-2.69h-2.68a1.14 1.14 0 110-2.28h2.68v-2.68a1.14 1.14 0 012.29 0v2.68h2.68a1.14 1.14 0 010 2.29h-2.68zM140.85 95.13a1.14 1.14 0 01-2.28 0v-2.69h-2.69a1.14 1.14 0 110-2.28h2.69v-2.68a1.14 1.14 0 112.28 0v2.68h2.68a1.14 1.14 0 010 2.28h-2.68zM38.74 177.85a1.14 1.14 0 01-2.28 0v-2.69h-2.69a1.14 1.14 0 110-2.28h2.69v-2.68a1.14 1.14 0 112.28 0v2.68h2.69a1.14 1.14 0 010 2.28h-2.69z" fill="#9fb2d9" fill-rule="evenodd"/><path d="M315.47 182.2c16.17 8.6 20.28-10.12 13.99-25.61-6.3-15.49-38.56-67.6-40.25-88.26-.65-8.01-2.15-7.14-3.42-1.52-6.38 28.01 7.4 103.55 29.68 115.38" fill="#294d3c" fill-rule="evenodd"/><path d="M281.21 253.17c-18.55 16.7-30.15-6.67-26.94-29.22 3.2-22.56 28.68-102.08 24.1-129.96-1.78-10.8.48-10.14 4.02-3.13 17.67 34.93 24.36 139.32-1.18 162.31" fill="#4a9075" fill-rule="evenodd"/><path d="M277.98 86.25c.4-1.03 1.28-.52 2.46 1.2 19.33 64.4-10.79 160.63-10.88 160.93a1 1 0 01-1.92-.59c.1-.31 30.62-97.84 10.34-161.54" fill="#1b7154" fill-rule="evenodd"/><path d="M240.7 199.66c-17.98 7.83-20.8-12.47-12.8-28.47 8-16 46.77-68.9 50.3-90.8 1.36-8.5 2.88-7.44 3.77-1.34 4.47 30.42-16.53 109.84-41.28 120.61" fill="#a6c86b" fill-rule="evenodd"/><path d="M279.83 74.52c.56-.67 1.08-.07 1.54 1.51-1.63 52.78-48.01 116.96-48.16 117.17a.79.79 0 01-1.29-.92c.15-.2 47.17-65.26 47.91-117.76" fill="#5f9850" fill-rule="evenodd"/><path d="M266 86.2h34.54l9.01-8.13-7.36-28.37h-37.84L257 78.07z" fill="#3b405f" fill-rule="evenodd"/><path d="M256.99 96.77h52.56a2.87 2.87 0 002.86-2.86V80.93a2.87 2.87 0 00-2.86-2.86H257a2.87 2.87 0 00-2.86 2.86v12.98a2.87 2.87 0 002.86 2.86" fill="#3b405f" fill-rule="evenodd"/><path d="M309.55 78.07l-1.51-5.83H258.5L257 78.07z" fill="#101537" fill-rule="evenodd"/><path d="M427.62 332.18h65.6c2.03 0 3.67-1.4 3.67-3.13v-27.1c0-1.73-1.64-3.13-3.67-3.13h-65.6c-2.04 0-3.68 1.4-3.68 3.13v27.1c0 1.74 1.64 3.13 3.68 3.13z" fill="#ffa31a"/><g fill="#fff" font-weight="700" font-size="30" font-family="Arial" letter-spacing="0" word-spacing="0"><path d="M388 304.76h-4.71l-1.88 4.88h-8.58l-1.77-4.88h-4.6l8.36 21.48h4.59zm-7.98 8.5l-2.96 7.97-2.9-7.97zM388.84 309.2l4.13.63q.27-1.2 1.07-1.83.8-.61 2.26-.61 1.6 0 2.4.58.54.41.54 1.1 0 .47-.3.78-.3.29-1.37.54-4.98 1.1-6.31 2-1.85 1.27-1.85 3.5 0 2.03 1.6 3.4 1.6 1.38 4.95 1.38 3.2 0 4.75-1.04 1.55-1.04 2.14-3.07l-3.89-.72q-.25.9-.95 1.39-.69.48-1.98.48-1.62 0-2.33-.45-.46-.32-.46-.84 0-.44.4-.74.56-.41 3.84-1.16 3.3-.75 4.6-1.83 1.3-1.1 1.3-3.06 0-2.14-1.8-3.68-1.78-1.54-5.28-1.54-3.18 0-5.04 1.3-1.85 1.28-2.42 3.5zM406.84 304.76v21.48h4.12v-11.4l4.82 5.48h5.07l-5.32-5.68 5.7-9.88h-4.44l-3.91 7-1.92-2.02v-4.98z" style="line-height:1.25;-inkscape-font-specification:'Arial Bold'"/></g><g font-weight="700" font-size="30" font-family="Arial" letter-spacing="0" word-spacing="0"><path d="M428.28 304.76v21.48h4.33v-9.54l8.76 9.54h5.83l-8.08-8.37 8.52-13.1h-5.6l-5.91 10.07-3.52-3.59v-6.49zM459.89 312.66v3.62h9.35v-8.56q-1.37-1.32-3.96-2.33-2.58-1-5.23-1-3.37 0-5.87 1.41-2.5 1.42-3.77 4.05-1.26 2.63-1.26 5.72 0 3.36 1.4 5.97 1.41 2.6 4.12 4 2.07 1.06 5.15 1.06 4 0 6.24-1.68 2.25-1.67 2.9-4.63l-4.31-.8q-.45 1.58-1.71 2.49-1.25.92-3.12.92-2.85 0-4.53-1.8-1.67-1.8-1.67-5.35 0-3.82 1.7-5.74 1.7-1.9 4.45-1.9 1.36 0 2.73.52 1.37.54 2.36 1.3v2.73zM483.21 312.66v3.62h9.35v-8.56q-1.37-1.32-3.96-2.33-2.58-1-5.23-1-3.37 0-5.87 1.41-2.5 1.42-3.77 4.05-1.26 2.63-1.26 5.72 0 3.36 1.4 5.97 1.41 2.6 4.12 4 2.07 1.06 5.15 1.06 4 0 6.24-1.68 2.25-1.67 2.9-4.63l-4.31-.8q-.45 1.58-1.71 2.49-1.25.92-3.12.92-2.85 0-4.53-1.8-1.67-1.8-1.67-5.35 0-3.82 1.7-5.74 1.7-1.9 4.45-1.9 1.36 0 2.73.52 1.37.54 2.36 1.3v2.73z" style="line-height:1.25;-inkscape-font-specification:'Arial Bold'"/></g><path d="M71.89 114.32h5.66a2.48 2.48 0 012.48 2.48v5.66a2.48 2.48 0 01-2.48 2.48H71.9a2.48 2.48 0 01-2.48-2.48v-5.66a2.48 2.48 0 012.48-2.48" fill-rule="evenodd" fill="#b8b8b8"/><path d="M91.53 114.32h5.67a2.48 2.48 0 012.47 2.48v5.66a2.48 2.48 0 01-2.47 2.48h-5.67a2.48 2.48 0 01-2.48-2.48v-5.66a2.48 2.48 0 012.48-2.48M111.18 114.32h5.66a2.48 2.48 0 012.48 2.48v5.66a2.48 2.48 0 01-2.48 2.48h-5.66a2.48 2.48 0 01-2.48-2.48v-5.66a2.48 2.48 0 012.48-2.48" fill-rule="evenodd" fill="#fff"/><path d="M92.24 135.74h5.67a2.48 2.48 0 012.48 2.48v5.66a2.48 2.48 0 01-2.48 2.48h-5.67a2.48 2.48 0 01-2.47-2.48v-5.66a2.48 2.48 0 012.47-2.48" fill-rule="evenodd" fill="#b8b8b8"/><path d="M300.4 274.6c-.17-.24-14.2 1.54-14.3 1.8-.11.27 8.44 11.53 8.72 11.49.29-.04 5.76-13.07 5.58-13.3z" fill="#fff"/><path d="M330.04 281c-.18-.23-14.2 1.55-14.3 1.82-.12.27 8.43 11.52 8.72 11.48.28-.03 5.75-13.07 5.58-13.3z" fill="#b8b8b8"/><path d="M341.25 309.73c-.17-.23-14.2 1.55-14.3 1.81-.12.27 8.43 11.52 8.72 11.49.29-.04 5.75-13.07 5.58-13.3z" fill="#fff"/><circle cx="306.71" cy="-299.16" r="4.77" transform="scale(1 -1)" fill="#fff"/><circle r="4.77" cy="-258.32" cx="311.64" transform="scale(1 -1)" fill="#b8b8b8"/><path d="M454.65 80.61h5.67a2.48 2.48 0 012.48 2.48v5.67a2.48 2.48 0 01-2.48 2.47h-5.67a2.48 2.48 0 01-2.47-2.47v-5.67a2.48 2.48 0 012.47-2.48M493.94 80.61h5.67a2.48 2.48 0 012.48 2.48v5.67a2.48 2.48 0 01-2.48 2.47h-5.67a2.48 2.48 0 01-2.47-2.47v-5.67a2.48 2.48 0 012.47-2.48M475.01 102.03h5.67a2.48 2.48 0 012.47 2.48v5.66a2.48 2.48 0 01-2.47 2.48H475a2.48 2.48 0 01-2.48-2.48v-5.66a2.48 2.48 0 012.48-2.48M538.2 420.23h5.66a2.48 2.48 0 012.48 2.48v5.67a2.48 2.48 0 01-2.48 2.47h-5.66a2.48 2.48 0 01-2.48-2.47v-5.67a2.48 2.48 0 012.48-2.48M557.84 420.23h5.66a2.48 2.48 0 012.48 2.48v5.67a2.48 2.48 0 01-2.48 2.47h-5.66a2.48 2.48 0 01-2.48-2.47v-5.67a2.48 2.48 0 012.48-2.48M577.48 420.23h5.67a2.48 2.48 0 012.48 2.48v5.67a2.48 2.48 0 01-2.48 2.47h-5.67a2.48 2.48 0 01-2.47-2.47v-5.67a2.48 2.48 0 012.47-2.48M558.55 441.65h5.67a2.48 2.48 0 012.47 2.48v5.66a2.48 2.48 0 01-2.47 2.48h-5.67a2.48 2.48 0 01-2.48-2.48v-5.66a2.48 2.48 0 012.48-2.48" fill-rule="evenodd" fill="#b8b8b8"/><path d="M578.2 441.65h5.66a2.48 2.48 0 012.48 2.48v5.66a2.48 2.48 0 01-2.48 2.48h-5.66a2.48 2.48 0 01-2.48-2.48v-5.66a2.48 2.48 0 012.48-2.48" fill="#fff" fill-rule="evenodd"/><path d="M597.84 441.65h5.67a2.48 2.48 0 012.47 2.48v5.66a2.48 2.48 0 01-2.47 2.48h-5.67a2.48 2.48 0 01-2.48-2.48v-5.66a2.48 2.48 0 012.48-2.48" fill-rule="evenodd" fill="#b8b8b8"/><path d="M632.24 102.3c-.18-.22-14.2 1.56-14.31 1.82-.11.27 8.44 11.52 8.72 11.49.3-.04 5.76-13.07 5.59-13.3zM673.08 137.45c-.17-.23-14.2 1.55-14.3 1.81-.12.27 8.43 11.52 8.72 11.48.29-.03 5.76-13.06 5.58-13.3zM193.94 87.62c-.17-.23-14.2 1.55-14.3 1.82-.12.26 8.44 11.52 8.72 11.48.29-.04 5.76-13.07 5.58-13.3zM181.23 54.25c-.17-.23-14.2 1.55-14.3 1.82-.12.26 8.43 11.52 8.72 11.48.29-.04 5.76-13.07 5.58-13.3z" fill="#fff"/><circle transform="scale(1 -1)" cx="202" cy="-54.4" r="4.77" fill="#b8b8b8"/></g></svg>