<svg xmlns="http://www.w3.org/2000/svg" xmlns:xlink="http://www.w3.org/1999/xlink" viewBox="0 0 441.1 239.64"><defs><clipPath clipPathUnits="userSpaceOnUse" id="couch_d"><path d="M27.12 62.34h434.72V42.15H27.12z"/></clipPath><clipPath clipPathUnits="userSpaceOnUse" id="couch_e"><path d="M60.43 80.1h32.53V64.35H60.43z"/></clipPath><clipPath clipPathUnits="userSpaceOnUse" id="couch_f"><path d="M36.52 273.66h24.99v-12.1H36.52z"/></clipPath><clipPath clipPathUnits="userSpaceOnUse" id="couch_g"><path d="M67.83 272.06h9.36v-6.88h-9.36z"/></clipPath><clipPath clipPathUnits="userSpaceOnUse" id="couch_h"><path d="M47.7 112.77h3V80.4h-3z"/></clipPath><clipPath clipPathUnits="userSpaceOnUse" id="couch_i"><path d="M48.67 188.86h3v-57.88h-3z"/></clipPath><clipPath clipPathUnits="userSpaceOnUse" id="couch_j"><path d="M94.82 199.66h3v-28.42h-3z"/></clipPath><clipPath clipPathUnits="userSpaceOnUse" id="couch_k"><path d="M407.04 80.1h32.53V63.9h-32.53z"/></clipPath><clipPath clipPathUnits="userSpaceOnUse" id="couch_l"><path d="M394.8 262.28h28.15v-47.07H394.8z"/></clipPath><clipPath clipPathUnits="userSpaceOnUse" id="couch_m"><path d="M428.61 271.9h24.45v-6.48h-24.45z"/></clipPath><clipPath clipPathUnits="userSpaceOnUse" id="couch_n"><path d="M394.3 187.39h3v-46.6h-3z"/></clipPath><clipPath clipPathUnits="userSpaceOnUse" id="couch_o"><path d="M444.74 183.05h3v-52.82h-3z"/></clipPath><clipPath clipPathUnits="userSpaceOnUse" id="couch_p"><path d="M142.2 302.95h2.82v-16.96h-2.82z"/></clipPath><clipPath clipPathUnits="userSpaceOnUse" id="couch_q"><path d="M205.78 269.22h9.72v-5.07h-9.72z"/></clipPath><clipPath clipPathUnits="userSpaceOnUse" id="couch_r"><path d="M132.44 269.22h9.72v-5.07h-9.72z"/></clipPath><clipPath clipPathUnits="userSpaceOnUse" id="couch_s"><path d="M193.81 277.94h5.41v-4.44h-5.4z"/></clipPath><clipPath clipPathUnits="userSpaceOnUse" id="couch_t"><path d="M216.07 257.44h5.3v-13.95h-5.3z"/></clipPath><clipPath clipPathUnits="userSpaceOnUse" id="couch_u"><path d="M126.57 257.44h5.3v-13.95h-5.3z"/></clipPath><clipPath clipPathUnits="userSpaceOnUse" id="couch_v"><path d="M140.67 276.35h7.61v-6.37h-7.6z"/></clipPath><clipPath clipPathUnits="userSpaceOnUse" id="couch_w"><path d="M159.1 286.07h1.83v-6.43h-1.83z"/></clipPath><clipPath clipPathUnits="userSpaceOnUse" id="couch_x"><path d="M127.1 177.33h5.29V89.14h-5.28z"/></clipPath><clipPath clipPathUnits="userSpaceOnUse" id="couch_y"><path d="M194.13 177.33h5.28V89.14h-5.28z"/></clipPath><clipPath clipPathUnits="userSpaceOnUse" id="couch_z"><path d="M208.28 243.54h20.76v-26.39h-20.76z"/></clipPath><clipPath clipPathUnits="userSpaceOnUse" id="couch_A"><path d="M197.8 249.12h5.37v-3.47h-5.37z"/></clipPath><clipPath clipPathUnits="userSpaceOnUse" id="couch_B"><path d="M118.9 243.55h20.77v-26.4H118.9z"/></clipPath><clipPath clipPathUnits="userSpaceOnUse" id="couch_C"><path d="M144.78 249.12h5.37v-3.47h-5.37z"/></clipPath><clipPath clipPathUnits="userSpaceOnUse" id="couch_D"><path d="M148.67 303.94h22.07v-13.9h-22.07z"/></clipPath><clipPath clipPathUnits="userSpaceOnUse" id="couch_E"><path d="M153.03 315.03h6.91v-5.06h-6.91z"/></clipPath><clipPath clipPathUnits="userSpaceOnUse" id="couch_F"><path d="M183.2 315.04h6.94v-5.07h-6.94z"/></clipPath><clipPath clipPathUnits="userSpaceOnUse" id="couch_G"><path d="M170.19 324.87h2.33V308.7h-2.33z"/></clipPath><clipPath clipPathUnits="userSpaceOnUse" id="couch_H"><path d="M145.1 358.12h18.7V339.3h-18.7z"/></clipPath><clipPath clipPathUnits="userSpaceOnUse" id="couch_I"><path d="M166.17 360.13h2.26v-2.34h-2.26z"/></clipPath><clipPath clipPathUnits="userSpaceOnUse" id="couch_J"><path d="M155.37 349.13h14.53v-18.18h-14.53z"/></clipPath><clipPath clipPathUnits="userSpaceOnUse" id="couch_K"><path d="M148.1 330.47h2.43v-2.33h-2.42z"/></clipPath><clipPath clipPathUnits="userSpaceOnUse" id="couch_L"><path d="M173.53 355.73h11.57v-19.99h-11.57z"/></clipPath><clipPath clipPathUnits="userSpaceOnUse" id="couch_M"><path d="M179.03 357.36h14.41v-11.57h-14.41z"/></clipPath><clipPath clipPathUnits="userSpaceOnUse" id="couch_N"><path d="M197.7 332.18h2.26v-2.34h-2.26z"/></clipPath><clipPath clipPathUnits="userSpaceOnUse" id="couch_O"><path d="M191.6 341h3.14v-2.7h-3.13z"/></clipPath><clipPath clipPathUnits="userSpaceOnUse" id="couch_P"><path d="M183.98 342.11h4.51v-3.01h-4.51z"/></clipPath><clipPath clipPathUnits="userSpaceOnUse" id="couch_Q"><path d="M194 347h3.14v-5.28h-3.15z"/></clipPath><clipPath clipPathUnits="userSpaceOnUse" id="couch_R"><path d="M68.76 310.78h3v-31.43h-3z"/></clipPath><clipPath clipPathUnits="userSpaceOnUse" id="couch_S"><path d="M201.2 348.66h40.09v-3H201.2z"/></clipPath><clipPath clipPathUnits="userSpaceOnUse" id="couch_T"><path d="M248.25 309.01h96.55V221.4h-96.55z"/></clipPath><clipPath clipPathUnits="userSpaceOnUse" id="couch_U"><path d="M326.62 238.87h17.22V221.6h-17.22z"/></clipPath><clipPath clipPathUnits="userSpaceOnUse" id="couch_V"><path d="M327.94 176.3h4.52v-54.04h-4.52z"/></clipPath><clipPath clipPathUnits="userSpaceOnUse" id="couch_W"><path d="M364.59 157.3h4.26V95.12h-4.26z"/></clipPath><clipPath clipPathUnits="userSpaceOnUse" id="couch_X"><path d="M245.12 233.04h8.37v-16.06h-8.37z"/></clipPath><clipPath clipPathUnits="userSpaceOnUse" id="couch_Y"><path d="M245.71 191.92h5.08v-36.94h-5.08z"/></clipPath><clipPath clipPathUnits="userSpaceOnUse" id="couch_Z"><path d="M256.34 307.4h7.4v-11.2h-7.4z"/></clipPath><clipPath clipPathUnits="userSpaceOnUse" id="couch_aa"><path d="M263.55 310.52h4.7v-3.18h-4.7z"/></clipPath><clipPath clipPathUnits="userSpaceOnUse" id="couch_ab"><path d="M275.56 295.68h3v-3.96h-3z"/></clipPath><clipPath clipPathUnits="userSpaceOnUse" id="couch_ac"><path d="M276.76 288.18h2.54v-4.72h-2.54z"/></clipPath><clipPath clipPathUnits="userSpaceOnUse" id="couch_ad"><path d="M278.06 281.6h2.32v-4.87h-2.32z"/></clipPath><clipPath clipPathUnits="userSpaceOnUse" id="couch_ae"><path d="M249.75 288.3h3.64v-44.66h-3.64z"/></clipPath><clipPath clipPathUnits="userSpaceOnUse" id="couch_af"><path d="M316.67 325.96h14.4v-4.83h-14.4z"/></clipPath><clipPath clipPathUnits="userSpaceOnUse" id="couch_ag"><path d="M315.49 308.97h3.83v-6.81h-3.83z"/></clipPath><clipPath clipPathUnits="userSpaceOnUse" id="couch_ah"><path d="M320.14 300.41h5.69v-5.68h-5.7z"/></clipPath><clipPath clipPathUnits="userSpaceOnUse" id="couch_ai"><path d="M325.95 296.1h5.36v-4.68h-5.36z"/></clipPath><clipPath clipPathUnits="userSpaceOnUse" id="couch_aj"><path d="M336.93 319.9h30.26V294.3h-30.26z"/></clipPath><clipPath clipPathUnits="userSpaceOnUse" id="couch_ak"><path d="M359.53 316.04h8.12v-15.83h-8.12z"/></clipPath><clipPath clipPathUnits="userSpaceOnUse" id="couch_al"><path d="M263.22 349.5h6.14v-12.26h-6.14z"/></clipPath><clipPath clipPathUnits="userSpaceOnUse" id="couch_am"><path d="M250.82 378.47h9v-5.63h-9z"/></clipPath><clipPath clipPathUnits="userSpaceOnUse" id="couch_an"><path d="M282.9 384.94h8v-5.96h-8z"/></clipPath><clipPath clipPathUnits="userSpaceOnUse" id="couch_ao"><path d="M266.9 394.17h5.26v-17h-5.26z"/></clipPath><clipPath clipPathUnits="userSpaceOnUse" id="couch_ap"><path d="M283.13 370.15h4.93v-5.79h-4.93z"/></clipPath><clipPath clipPathUnits="userSpaceOnUse" id="couch_aq"><path d="M403.12 356.95h15.1v-10.07h-15.1z"/></clipPath><linearGradient id="couch_b"><stop offset="0" stop-color="#9455de" stop-opacity="0"/><stop offset="1" stop-color="#fbeb8b" stop-opacity=".47"/></linearGradient><linearGradient id="couch_a"><stop offset="0" stop-color="#7af9cf"/><stop offset="1" stop-color="#9455de"/></linearGradient><linearGradient xlink:href="#couch_a" id="couch_c" x1="199.64" y1="26.48" x2="-195.81" y2="43.59" gradientUnits="userSpaceOnUse"/><linearGradient xlink:href="#couch_b" id="couch_ar" x1="-172.14" y1="1.06" x2="-142.46" y2="-3.35" gradientUnits="userSpaceOnUse" gradientTransform="translate(16.63 1.51)"/><linearGradient xlink:href="#couch_b" id="couch_as" gradientUnits="userSpaceOnUse" x1="-172.14" y1="1.06" x2="-142.46" y2="-3.35" gradientTransform="matrix(1.5862 0 0 1.5862 388.16 -47.93)"/><linearGradient xlink:href="#couch_b" id="couch_at" gradientUnits="userSpaceOnUse" gradientTransform="translate(210.53 -42.71)" x1="-172.14" y1="1.06" x2="-142.46" y2="-3.35"/><linearGradient xlink:href="#couch_b" id="couch_au" gradientUnits="userSpaceOnUse" gradientTransform="matrix(.82759 0 0 .82759 153.09 18.7)" x1="-172.14" y1="1.06" x2="-142.46" y2="-3.35"/><linearGradient xlink:href="#couch_b" id="couch_av" gradientUnits="userSpaceOnUse" gradientTransform="matrix(.82759 0 0 .82759 327.71 30.8)" x1="-172.14" y1="1.06" x2="-142.46" y2="-3.35"/><linearGradient xlink:href="#couch_b" id="couch_aw" gradientUnits="userSpaceOnUse" gradientTransform="matrix(.43103 0 0 .43103 -138.13 113.95)" x1="-172.14" y1="1.06" x2="-142.46" y2="-3.35"/><linearGradient xlink:href="#couch_b" id="couch_ax" gradientUnits="userSpaceOnUse" x1="-172.14" y1="1.06" x2="-142.46" y2="-3.35" gradientTransform="matrix(5.73446 0 0 5.73446 977.3 249.2)"/><linearGradient xlink:href="#couch_b" id="couch_ay" gradientUnits="userSpaceOnUse" gradientTransform="matrix(4.82216 0 0 4.82216 1258.75 316.14)" x1="-172.14" y1="1.06" x2="-142.46" y2="-3.35"/><linearGradient xlink:href="#couch_b" id="couch_az" gradientUnits="userSpaceOnUse" gradientTransform="matrix(2.5414 0 0 2.5414 1580.97 36.36)" x1="-172.14" y1="1.06" x2="-142.46" y2="-3.35"/><linearGradient xlink:href="#couch_b" id="couch_aA" gradientUnits="userSpaceOnUse" gradientTransform="matrix(1.36207 0 0 1.36207 310.5 -18.63)" x1="-172.14" y1="1.06" x2="-142.46" y2="-3.35"/></defs><g transform="translate(218.9 94.44)"><path d="M89.68-86.5C-27.27-86.5 54.83.06-8.55.06c-139.15 0-33-57.18-154.62-57.18-54.9 4.03-40 54.27-40.01 109.32 0 27.87-28.49 54.6-8.78 74.3 19.7 19.71 67.32 16.88 95.19 16.88 97.82 1.07 299.87 0 299.87 0 47.18 0 27.16-30.76 27.16-77.94-.01-30.92 26.92-57.34-.08-72.43-75.47-43.58 39.66-16.82-3.63-61.44C185.78-89.2 119.05-86.5 89.68-86.5z" fill="url(#couch_c)"/><g fill="#272a87"><path d="M169 145.2H-162.9c-28.66 0-38.14-4.15-38.14-9.27 0-5.11 9.48-9.26 38.14-9.26H169c28.66 0 41.12 4.15 41.12 9.26 0 5.12-12.46 9.27-41.12 9.27"/><path d="M169 145.2H-162.9c-28.66 0-38.14-4.15-38.14-9.27 0-5.11 9.48-9.26 38.14-9.26H169c28.66 0 41.12 4.15 41.12 9.26 0 5.12-12.46 9.27-41.12 9.27"/></g><g fill-opacity=".39"><g clip-path="url(#couch_d)" transform="matrix(.8634 0 0 -.70427 -207.3 170)"><path d="M461.84 52.25c0-5.58-97.32-10.1-217.36-10.1-120.05 0-217.36 4.52-217.36 10.1 0 5.57 97.31 10.1 217.36 10.1 120.04 0 217.36-4.53 217.36-10.1"/></g></g><path d="M-156.62 23.95l188.47 2.7c.56.02 1.1.05 1.65.1.54-.05 1.08-.1 1.64-.1l130.55-2.57c6.93 0 11.18.5 11.18 9.05l1.2 55.23c0 5.5-5.63 9.98-12.56 9.98H35.14c-.56 0-1.1-.04-1.64-.1-.54.06-1.1.1-1.65.1l-188.47-2.71c-6.94-.1-12.56-4.47-12.56-9.98V33.93c0-8.17 5.62-9.98 12.56-9.98" fill="#fff6d5"/><path d="M-156.62 28.43l188.47 2.71c.56.01 1.1.04 1.65.1.54-.06 1.08-.1 1.64-.1l130.55-2.58c6.93 0 11.18.51 11.18 9.05l1.2 55.23c0 5.51-5.63 9.98-12.56 9.98H35.14c-.56 0-1.1-.04-1.64-.1-.54.06-1.1.1-1.65.1l-188.47-2.7c-6.94-.1-12.56-4.48-12.56-9.99V38.41c0-8.17 5.62-9.98 12.56-9.98" fill="#fea"/><path d="M78.31 41.72h33.7c.52 0 1.02.03 1.52.08.5-.05 6.55-.08 7.06-.08l38.88-2.07c6.37 0 10.27.41 10.27 7.26l1.1 35.88c0 4.43-5.16 8.01-11.53 8.01h-44.27c-.51 0-1.01-.03-1.51-.07-.5.04-1 .07-1.51.07h-33.7c-6.38 0-11.54-3.58-11.54-8V49.72c0-6.56 5.16-8 11.53-8M-39.35 40.04l22.12-1.12c3.78-.27 27.9.96 50.8 1.5l11.79-.77c6.37 0 10.27.41 10.27 7.26l1.1 36.12c0 4.42-5.17 8-11.54 8H-5.8c-.51 0-1.01-.02-1.51-.07-.5.05-1 .08-1.51.08h-30.53c-6.37 0-11.53-3.59-11.53-8.01v-33.3c0-6.56 5.16-9.69 11.53-9.69M-151.98 41.72h25.48c.51 0 1.02.03 1.51.08.5-.05 6.55-.08 7.07-.08l45.41-2.07c6.37 0 10.27.41 10.27 7.26l1.1 35.88c0 4.43-5.16 8.01-11.53 8.01h-50.8c-.52 0-1.02-.03-1.52-.07-.5.04-1 .07-1.51.07h-25.48c-6.37 0-11.54-3.58-11.54-8V49.72c0-6.56 5.17-8 11.54-8M-48.65 93.83h220.22v35.77H-170.4V93.83z" fill="#ffe680"/><path d="M-48.65 93.83h220.22v7.87H-170.4v-7.87z" fill="#ffd42a"/><path d="M-168.5 135.92h-2.49a4.49 4.49 0 010-8.99h2.5a4.49 4.49 0 110 8.99" fill="#586ad5"/><g clip-path="url(#couch_e)" transform="matrix(.35278 0 0 -.35278 -196.8 155.2)"><path d="M92.58 64.35A12.73 12.73 0 0180.23 80.1h-7.07a12.73 12.73 0 01-12.34-15.75z" fill="#3d4eb5"/></g><path d="M-180.72 89.02v40.58h21.7V81.37c0-9.98-12.82-32.75-25.71-19.02-8.53 9.08 4 17.35 4 26.67" fill="#ffe680"/><path d="M-176.25 87.31v37.99h11.91V83.1c0-5.47-7.04-17.97-14.11-10.43-4.68 4.98 2.2 9.52 2.2 14.63" fill="#ffd42a"/><path d="M-185.14 67.6c10.7-10.51 21.35.35 25.77 10.5-2.16-10.83-13.73-28.13-25.36-15.75-2.72 2.9-3.3 5.71-2.82 8.5.51-1.07 1.3-2.16 2.41-3.26" fill="#fff6d5"/><g fill="#fff" fill-opacity=".39"><g clip-path="url(#couch_f)" opacity=".8" transform="matrix(.35278 0 0 -.35278 -196.8 155.2)"><path d="M39.01 262.06a23.37 23.37 0 0021.07 8.43c1.91-.22 1.9 2.78 0 3a26.1 26.1 0 01-23.19-9.31c-1.22-1.47.89-3.6 2.12-2.12"/></g></g><g fill="#fff" fill-opacity=".39"><g clip-path="url(#couch_g)" opacity=".8" transform="matrix(.35278 0 0 -.35278 -196.8 155.2)"><path d="M68.54 269.25l6.41-3.85c1.66-1 3.17 1.6 1.52 2.6-2.14 1.27-4.28 2.56-6.41 3.84-1.66 1-3.17-1.6-1.52-2.6"/></g></g><g fill="#fff" fill-opacity=".39"><g clip-path="url(#couch_h)" opacity=".8" transform="matrix(.35278 0 0 -.35278 -196.8 155.2)"><path d="M50.7 81.86v29.46c0 1.93-3 1.93-3 0V81.86c0-1.93 3-1.93 3 0"/></g></g><g fill="#fff" fill-opacity=".39"><g clip-path="url(#couch_i)" opacity=".8" transform="matrix(.35278 0 0 -.35278 -196.8 155.2)"><path d="M51.67 132.43v54.98c0 1.93-3 1.94-3 0v-54.98c0-1.93 3-1.94 3 0"/></g></g><g fill="#fff" fill-opacity=".39"><g clip-path="url(#couch_j)" opacity=".8" transform="matrix(.35278 0 0 -.35278 -196.8 155.2)"><path d="M97.82 172.69v25.52c0 1.93-3 1.94-3 0V172.7c0-1.94 3-1.94 3 0"/></g></g><path d="M176.07 135.92h2.5a4.5 4.5 0 100-8.99h-2.5a4.49 4.49 0 100 8.99" fill="#586ad5"/><g clip-path="url(#couch_k)" transform="matrix(.35278 0 0 -.35278 27.99 155.2)"><path d="M439.07 63.9a12.71 12.71 0 01-12.23 16.2h-7.08a12.73 12.73 0 01-12.23-16.2z" fill="#3d4eb5"/></g><path d="M188.3 89.02v40.58h-21.71V81.37c0-9.98 12.83-32.75 25.72-19.02 8.52 9.08-4.01 17.35-4.01 26.67" fill="#ffe680"/><path d="M184.33 87.31v37.99h-11.91V83.1c0-5.47 7.04-17.97 14.11-10.43 4.68 4.98-2.2 9.52-2.2 14.63" fill="#ffd42a"/><path d="M168.22 85.36c0-9.98 12.83-32.75 25.72-19.02.48.52.9 1.03 1.25 1.53a10.11 10.11 0 00-2.88-5.52c-12.9-13.73-25.72 9.04-25.72 19.02v48.23h1.63z" fill="#fff6d5"/><g fill="#fff" fill-opacity=".39"><g clip-path="url(#couch_l)" opacity=".8" transform="matrix(.35278 0 0 -.35278 27.99 155.2)"><path d="M397.72 216.3a75.86 75.86 0 0024.74 43.47c1.45 1.27-.68 3.39-2.12 2.12a78.53 78.53 0 01-25.51-44.8c-.35-1.89 2.54-2.7 2.89-.8"/></g></g><g fill="#fff" fill-opacity=".39"><g clip-path="url(#couch_m)" opacity=".8" transform="matrix(.35278 0 0 -.35278 27.99 155.2)"><path d="M430.84 265.65a22.19 22.19 0 0020.43 1.4c1.78-.73 2.56 2.17.8 2.9a25.03 25.03 0 01-22.74-1.71c-1.65-1-.15-3.59 1.51-2.6"/></g></g><g fill="#fff" fill-opacity=".39"><g clip-path="url(#couch_n)" opacity=".8" transform="matrix(.35278 0 0 -.35278 27.99 155.2)"><path d="M397.3 142.25v43.69c0 1.93-3 1.93-3 0v-43.7c0-1.92 3-1.93 3 0"/></g></g><g fill="#fff" fill-opacity=".39"><g clip-path="url(#couch_o)" opacity=".8" transform="matrix(.35278 0 0 -.35278 27.99 155.2)"><path d="M447.74 131.68v49.92c0 1.93-3 1.93-3 0v-49.92c0-1.93 3-1.93 3 0"/></g></g><path d="M-132.13 99.2h-7.28c-3.82 0-6.92-4.4-6.92-9.81v-4.47h21.12v4.47c0 5.42-3.1 9.81-6.92 9.81" fill="#211b34"/><path d="M-124.43 70.97h-24.35l2.08-32.49c.2-3.08 3.02-5.5 6.31-5.5h7.57c3.3 0 6.12 2.42 6.32 5.5z" fill="#31284f"/><path d="M-146.9 60.06c1.72.49 2.71 2.26 2.23 3.96l-5.23 18.27a3.21 3.21 0 01-6.19-1.76l5.24-18.27a3.2 3.2 0 013.96-2.2M-126.05 60.36a3.21 3.21 0 00-2.05 4.05l6.02 18.03a3.21 3.21 0 006.1-2.02L-122 62.37a3.2 3.2 0 00-4.05-2.02" fill="#ff8663"/><g fill="#a7a9e3" fill-opacity=".39"><g clip-path="url(#couch_p)" transform="matrix(.35278 0 0 -.35278 -197.36 155.2)"><path d="M142.68 301.82l-.48-14.7c-.04-1.5 2.3-1.5 2.34 0l.47 14.7c.05 1.5-2.28 1.5-2.33 0"/></g></g><path d="M-126.05 60.36a3.22 3.22 0 00-2.12 2.27 3.22 3.22 0 015.06 1.48l6.02 18.03c.2.6.2 1.2.06 1.77a3.2 3.2 0 001.05-3.5L-122 62.38a3.2 3.2 0 00-4.05-2.02M-146.9 60.06c1.11.31 1.91 1.16 2.22 2.18a3.22 3.22 0 00-4.99 1.7l-5.23 18.27c-.17.6-.15 1.21.02 1.78a3.2 3.2 0 01-1.2-3.46l5.23-18.27a3.2 3.2 0 013.96-2.2" fill="#ffb999"/><path d="M-125.2 59.26l-7.41-4.82h-7.87l-7.4 4.81a3.49 3.49 0 00-1.57 3.75l3.45 14.24-3.38 13.92h25.67l-3.37-13.92 3.45-14.23a3.49 3.49 0 00-1.57-3.75" fill="#ff407b"/><g clip-path="url(#couch_q)" transform="matrix(.33284 .1169 .1169 -.33284 -225.22 125.8)"><path d="M215.35 265.32a9.43 9.43 0 01-8.8 3.83c-1.02-.13-1.03-1.76 0-1.63 2.86.36 5.65-.7 7.39-3.02.62-.84 2.04-.02 1.4.82" fill="#ffd9ca"/></g><g clip-path="url(#couch_r)" transform="matrix(.35275 .00438 .00438 -.35275 -198.26 154.63)"><path d="M134.01 264.5a7.83 7.83 0 007.38 3.02c1.04-.13 1.03 1.5 0 1.63a9.43 9.43 0 01-8.79-3.83c-.63-.84.79-1.66 1.41-.82" fill="#ffd9ca"/></g><path d="M-149.3 63.66c.28-.66.76-1.25 1.42-1.68l7.4-4.8h7.87l7.41 4.8a3.66 3.66 0 011.4 1.68l.17-.65a3.49 3.49 0 00-1.57-3.75l-7.41-4.82h-7.87l-7.4 4.81a3.49 3.49 0 00-1.57 3.75z" fill="#ff6ca1"/><g clip-path="url(#couch_s)" transform="matrix(.35278 0 0 -.35278 -197.36 155.2)"><path d="M194.15 276.47l3.95-2.83c.81-.58 1.59.76.78 1.34l-3.95 2.82c-.8.58-1.58-.76-.78-1.33" fill="#ffd9ca"/></g><g clip-path="url(#couch_t)" transform="scale(.35278 -.35278) rotate(3.2 7810.3 -10018.92)"><path d="M221.34 244.5l-3.65 12.36c-.3 1-1.88.58-1.58-.43l3.66-12.37c.3-1 1.87-.57 1.57.44" fill="#ffd9ca"/></g><g clip-path="url(#couch_u)" transform="matrix(.35275 .00438 .00438 -.35275 -198.26 154.63)"><path d="M128.18 244.06l3.66 12.37c.3 1-1.28 1.44-1.58.43l-3.65-12.36c-.3-1.01 1.27-1.44 1.57-.44" fill="#ffd9ca"/></g><g clip-path="url(#couch_v)" transform="matrix(.35278 0 0 -.35278 -197.36 155.2)"><path d="M142 270.16l5.89 4.4c.94.71.02 2.32-.94 1.6l-5.88-4.4c-.95-.7-.02-2.32.94-1.6" fill="#ffd9ca"/></g><path d="M-139.62 52.98l-3.75 3.11a3.72 3.72 0 004.47 5.93l2.07-1.48zM-133.34 53.19l3.6 2.9a3.72 3.72 0 01-4.47 5.93l-2.07-1.48zM-135.97 62.72a.75.75 0 11-1.5 0 .75.75 0 011.5 0M-135.97 66.32a.75.75 0 11-1.5 0 .75.75 0 011.5 0" fill="#fff"/><path d="M-132 56.06V47.6h-9.2v8.46a4.6 4.6 0 109.2 0" fill="#ffb999"/><path d="M-141.2 52.38c.61 2.25 2.44 3.88 4.6 3.88 2.15 0 3.98-1.63 4.6-3.88v-7.72h-9.2z" fill="#ff8663"/><g clip-path="url(#couch_w)" transform="matrix(.35278 0 0 -.35278 -197.36 155.2)"><path d="M160.74 280.43c.03 1.62.16 3.23.19 4.85.02 1.05-1.62 1.05-1.64 0-.03-1.62-.15-3.23-.18-4.85-.02-1.05 1.61-1.05 1.63 0" fill="#ffd9ca"/></g><path d="M-140.44 132.83h-9.91v-5.45a3.85 3.85 0 013.84-3.84h2.22a3.85 3.85 0 013.85 3.84z" fill="#ff407b"/><path d="M-142.26 129.66h-6.27v-6.98h6.27z" fill="#ce1d5d"/><path d="M-141.22 132.83h-8.36v-1.36a4.07 4.07 0 014.07-4.07h.23a4.07 4.07 0 014.06 4.07z" fill="#fff"/><path d="M-150.35 134.17h9.9v-1.53h-9.9zM-141.78 127.78a4.52 4.52 0 00-7.23 0c-.16.22.2.43.37.22a4.09 4.09 0 016.49 0c.16.21.53 0 .37-.22" fill="#fff"/><path d="M-140.64 124.73h-9.52l-1.38-32c-.19-4.52 2.55-8.4 6.14-8.4 3.6 0 6.34 3.88 6.14 8.4z" fill="#31284f"/><g fill="#fff" fill-opacity=".39"><g clip-path="url(#couch_x)" opacity=".5" transform="matrix(.35278 0 0 -.35278 -195.77 155.2)"><path d="M127.1 176.3l2.76-75.18.4-10.95c.05-1.37 2.18-1.38 2.13 0l-2.75 75.19-.4 10.94c-.05 1.37-2.18 1.38-2.13 0"/></g></g><path d="M-141.41 86.24c-.82 2.6-2.21 4.64-4.07 5.31l.02 33.18h4.82l1.38-32a9.11 9.11 0 00-2.15-6.49" fill="#605780"/><path d="M-121.56 132.73h-9.9v-5.44a3.85 3.85 0 013.84-3.85h2.22a3.85 3.85 0 013.84 3.85z" fill="#ff407b"/><path d="M-123.37 129.56h-6.28v-6.98h6.28z" fill="#ce1d5d"/><path d="M-122.33 132.73h-8.36v-1.36a4.07 4.07 0 014.07-4.06h.22a4.07 4.07 0 014.07 4.06z" fill="#fff"/><path d="M-131.47 134.07h9.91v-1.53h-9.9zM-122.9 127.69a4.52 4.52 0 00-7.22 0c-.17.21.2.43.36.21a4.09 4.09 0 016.5 0c.16.22.53 0 .36-.21" fill="#fff"/><path d="M-121.75 124.63h-9.52l-1.38-32c-.2-4.51 2.55-8.39 6.14-8.39s6.33 3.88 6.14 8.39z" fill="#31284f"/><g fill="#fff" fill-opacity=".39"><g clip-path="url(#couch_y)" opacity=".5" transform="matrix(.35278 0 0 -.35278 -200.44 155.2)"><path d="M194.13 176.3l2.75-75.18.4-10.95c.05-1.37 2.18-1.38 2.13 0l-2.75 75.19-.4 10.94c-.05 1.37-2.18 1.38-2.13 0"/></g></g><path d="M-122.53 86.15c-.82 2.6-2.2 4.63-4.07 5.3l.02 33.18h4.83l1.38-32a9.11 9.11 0 00-2.16-6.48" fill="#605780"/><path d="M-129.76 71.25l-12.2.05-.02-3.12 12.2-.06z" fill="#2e2e47"/><path d="M-141.97 75.25c-1.2.01-2.17-.95-2.17-2.15l-.03-4.67c0-1.2.96-2.16 2.15-2.17h1.36a2.16 2.16 0 012.09 2.74l-1.34 4.68a2.16 2.16 0 01-2.06 1.57M-129.9 75.2c1.18 0 2.15-.98 2.14-2.17l-.02-4.67c0-1.2-.98-2.16-2.17-2.15h-1.36a2.16 2.16 0 00-2.06 2.78l1.38 4.66a2.16 2.16 0 002.08 1.55" fill="#2e2e47"/><path d="M-129.77 68.43l-12.2.05-.01-1.44 12.2-.06z" fill="#2e2e47"/><path d="M-140.64 66.6c.24 0 .46.09.64.24.13.1.31-.08.18-.18a1.4 1.4 0 00-.82-.32c-.16-.01-.16.24 0 .25M-131.97 66.74c.36-.18.74-.14 1.12-.13.17 0 .17-.25 0-.25-.43-.02-.85-.04-1.24.16-.15.08-.02.3.12.22" fill="#47475e"/><path d="M-134.1 68.62h-3.56a.5.5 0 110-1h3.56a.5.5 0 010 1" fill="#0ff"/><path d="M-142.7 67.16c.59-.1 1.18-.12 1.76-.04.24.04.34-.33.1-.36-.66-.09-1.3-.08-1.95.04-.24.04-.14.4.1.36M-142.7 67.9c.59-.1 1.18-.11 1.76-.03.24.03.34-.33.1-.36a6.17 6.17 0 00-1.95.03c-.24.05-.14.4.1.37M-131.31 67.16c.58-.1 1.17-.12 1.75-.04.24.04.34-.33.1-.36-.65-.09-1.3-.08-1.95.04-.24.04-.14.4.1.36M-131.31 67.9c.58-.1 1.17-.11 1.75-.03.24.03.34-.33.1-.36a6.17 6.17 0 00-1.95.03c-.24.05-.14.4.1.37" fill="#e6e6e6"/><path d="M-123.81 68.53l6.97 8.67s3.1 5.75-.8 7.55c-1.34.61-2.58.21-3.58-.48a6.1 6.1 0 01-2.55-4.57l-2.09-7.5z" fill="#ffb999"/><path d="M-117.25 84.49c-.57-1.18-1.18-2.35-1.76-3.52-.52-1.05-4.14-7.2-4.61-8.3-.38-.87-.8-1.77-.99-2.71l-1.25 2.25 1.9 7.46c.77 2.97 1.24 3.56 2.74 4.6 1 .7 2.24 1.1 3.58.48l.41-.23a.84.84 0 00-.02-.03" fill="#ff8663"/><path d="M-122.92 74l-1.9 2.3-.77-3.05.48.13a12.65 12.65 0 002.02.33l.07.12.1.17" fill="#c6614a"/><path d="M-123 72.65c-.24-1.37-.66-2.74-.81-4.12-.78-.08-3.6-1.48-3.6-1.48s-.39-.06-.83 0c.29.36.45.81.46 1.3v.53l.33.43c-.59 1.2-2.89 1.7-3.2 1.8-.32.1-1.45.05-1.45.05.35 1.12 2.02 1.2 2.02 1.2-.68.85 1.14 1.52 1.14 1.52-.1.17.44.75.44.75l.93.28s.77.5.85.47l3.9-1.48h.05a34.9 34.9 0 01-.24-1.25" fill="#ffb999"/><g clip-path="url(#couch_z)" transform="matrix(.35278 0 0 -.35278 -197.36 155.2)"><path d="M228.87 218.46c-6.12 8.36-12.74 16.33-18.86 24.7-.68.92-2.25.02-1.56-.92 6.12-8.36 12.74-16.34 18.86-24.7.68-.93 2.25-.02 1.56.92" fill="#ffd9ca"/></g><g clip-path="url(#couch_A)" transform="matrix(.35278 0 0 -.35278 -197.36 155.2)"><path d="M202.7 247.31l-3.52 1.71c-1.05.5-1.97-1.05-.92-1.56l3.53-1.7c1.05-.51 1.97 1.04.92 1.55" fill="#ffd9ca"/></g><path d="M-126.2 75.08c-.06-.14-.36-.25-.47-.33a4.3 4.3 0 01-.91-1.16l-.44-.7-.6-.98c-.28-.47-.47-.88 0-1.25.41-.34.83-.6 1.03-1.12-.75 1.04-2.77 1.48-3.06 1.57-.32.1-1.45.05-1.45.05.35 1.12 2.02 1.2 2.02 1.2-.68.85 1.14 1.52 1.14 1.52-.1.17.44.75.44.75l.93.28s.77.5.85.47c.12-.05.47-.09.51-.24a.1.1 0 000-.06" fill="#ff8663"/><path d="M-129.06 72.2c-.35.08-.7.14-1.05.16-.1 0-.1.17 0 .16.37-.02.73-.08 1.1-.17.1-.02.05-.18-.05-.16M-128.16 73.67c-.28.02-.56.1-.85.12-.1.01-.1.17 0 .17.29-.03.57-.1.85-.13.1 0 .1-.17 0-.16M-127.16 74.8c-.15.04-.27.09-.42.08-.1-.01-.1.15 0 .16.17.01.3-.03.46-.07.1-.03.06-.19-.04-.16M-129.1 71.1c.02.2.08.36.2.52.05.08.2 0 .14-.09a.85.85 0 01-.17-.43c0-.1-.17-.1-.16 0M-128.27 72.59c.01.24.12.44.31.59.09.06.17-.08.09-.15a.56.56 0 01-.23-.44c0-.1-.17-.1-.17 0M-127.41 74.08c.05.2.17.35.34.44.1.05.18-.1.08-.14a.51.51 0 01-.26-.34c-.03-.1-.19-.06-.16.04M-126.73 74.9c.1.12.24.2.4.23.1.02.15-.14.05-.16a.61.61 0 01-.34-.19c-.07-.08-.19.04-.11.12" fill="#c6614a"/><path d="M-148.16 68.53l-6.97 8.67s-3.1 5.75.8 7.55c1.34.61 2.58.21 3.58-.48a6.1 6.1 0 002.55-4.57l2.1-7.5z" fill="#ffb999"/><path d="M-154.72 84.49c.57-1.18 1.18-2.35 1.76-3.52.52-1.05 4.14-7.2 4.61-8.3.38-.87.8-1.77.99-2.71l1.25 2.25-1.9 7.46c-.77 2.97-1.24 3.56-2.74 4.6-1 .7-2.24 1.1-3.57.48a4 4 0 01-.42-.23l.02-.03" fill="#ff8663"/><path d="M-149.05 74l1.9 2.3.78-3.05-.49.13a12.65 12.65 0 01-2.02.33l-.07.12-.1.17" fill="#c6614a"/><path d="M-148.96 72.65c.23-1.37.65-2.74.8-4.12.78-.08 3.6-1.48 3.6-1.48s.39-.06.83 0c-.28.36-.45.81-.46 1.3v.53l-.33.43c.59 1.2 2.89 1.7 3.2 1.8.32.1 1.45.05 1.45.05-.35 1.12-2.02 1.2-2.02 1.2.68.85-1.14 1.52-1.14 1.52.1.17-.44.75-.44.75l-.93.28s-.76.5-.85.47l-3.9-1.48h-.05l.24-1.25" fill="#ffb999"/><g clip-path="url(#couch_B)" transform="matrix(.35278 0 0 -.35278 -197.36 155.2)"><path d="M120.64 217.54c6.12 8.36 12.74 16.34 18.86 24.7.69.94-.88 1.85-1.57.91-6.11-8.36-12.74-16.33-18.85-24.7-.69-.93.88-1.84 1.56-.9" fill="#ffd9ca"/></g><g clip-path="url(#couch_C)" transform="matrix(.35278 0 0 -.35278 -197.36 155.2)"><path d="M146.15 245.75l3.53 1.71c1.05.5.14 2.07-.9 1.56l-3.54-1.7c-1.05-.51-.13-2.08.91-1.57" fill="#ffd9ca"/></g><path d="M-145.76 75.08c.05-.14.35-.25.46-.33.39-.3.66-.74.91-1.16l.44-.7.6-.98c.29-.47.47-.88 0-1.25-.41-.34-.83-.6-1.03-1.12.75 1.04 2.77 1.48 3.07 1.57.31.1 1.44.05 1.44.05-.35 1.12-2.02 1.2-2.02 1.2.68.85-1.14 1.52-1.14 1.52.1.17-.44.75-.44.75l-.93.28s-.77.5-.85.47c-.11-.05-.47-.09-.51-.24a.1.1 0 010-.06" fill="#ff8663"/><path d="M-142.95 72.35c.36.1.72.15 1.1.17.1.01.1-.15 0-.16-.36-.02-.71-.08-1.06-.17-.1-.02-.15.14-.04.16M-143.8 73.83c.28.02.55.1.84.13.1 0 .1-.16 0-.17-.29-.02-.56-.1-.85-.12-.1-.01-.1.15 0 .16M-144.85 74.97c.16.04.3.08.46.07.1-.01.1-.17 0-.16-.15 0-.27-.04-.41-.07-.1-.03-.15.13-.05.16M-143.04 71.1a.85.85 0 01-.16.43c-.07.1.08.17.14.09.11-.16.17-.33.19-.52 0-.1-.16-.1-.17 0M-143.87 72.59c0 .18-.08.34-.23.44-.08.07 0 .21.09.15.2-.15.3-.35.3-.6.01-.1-.15-.1-.16 0M-144.72 74.04a.51.51 0 01-.26.34c-.1.05-.01.2.08.14.18-.1.3-.24.34-.44.03-.1-.13-.14-.16-.04M-145.35 74.78c-.1.1-.2.16-.33.19-.1.02-.06.18.04.16.16-.04.3-.11.4-.23.08-.08-.04-.2-.11-.12" fill="#c6614a"/><path d="M-127.89 42.86c-.56 1.8-.3 3.29.57 3.33.88.05 2.05-1.37 2.61-3.17.57-1.8.31-3.28-.56-3.33-.88-.04-2.05 1.37-2.62 3.17" fill="#ffb999"/><path d="M-124.99 41.8c.1-.2.07-.44-.06-.6a.57.57 0 00-.58-.19c-.38.1-.54.54-.64.92l-.35 1.31c.05-.08.18-.1.26-.05.09.05.14.14.17.23.08.24.04.53-.11.74a.83.83 0 01-.68.33" fill="none" stroke="#ff8663" stroke-width=".405697" stroke-linecap="round" stroke-linejoin="round" stroke-miterlimit="10"/><path d="M-145.32 42.86c.56 1.8.31 3.29-.57 3.33-.88.05-2.05-1.37-2.61-3.17-.57-1.8-.31-3.28.57-3.33.88-.04 2.05 1.37 2.61 3.17" fill="#ffb999"/><path d="M-148.07 41.8a.57.57 0 01.07-.6.57.57 0 01.57-.19c.38.1.54.54.64.92l.35 1.31c-.05-.08-.17-.1-.26-.05a.39.39 0 00-.17.23.83.83 0 00.11.74c.16.21.42.34.68.33" fill="none" stroke="#ff8663" stroke-width=".405697" stroke-linecap="round" stroke-linejoin="round" stroke-miterlimit="10"/><path d="M-136.6 53.17c-5.56 0-10.06-4.5-10.06-10.05V40.1a10.05 10.05 0 1120.1 0v3.02c0 5.55-4.5 10.05-10.04 10.05" fill="#ffb999"/><path d="M-141.72 39.7a13.22 13.22 0 004.81-5.24c1.23 1.82 2.5 3.67 4.18 5.08a9.52 9.52 0 002.94 1.7c.83.29 2.4.75 3.24.28V40.1a10.05 10.05 0 10-20.1 0v1.17c1.58.17 3.47-.65 4.93-1.57" fill="#ff8663"/><g clip-path="url(#couch_D)" transform="matrix(.35278 0 0 -.35278 -197.36 155.2)"><path d="M148.85 302.22a26.1 26.1 0 0120.77-12.18c1.5-.09 1.5 2.25 0 2.33a23.62 23.62 0 00-18.75 11.03c-.8 1.26-2.83.09-2.02-1.18" fill="#ffd9ca"/></g><g clip-path="url(#couch_E)" transform="matrix(.35278 0 0 -.35278 -197.36 155.2)"><path d="M154.15 310.72c1.1-.5 2.23-.8 3.45-.74 1.22.07 2.4 1.02 2.34 2.33-.06 1.21-1.03 2.41-2.34 2.34h-.54c-.44-.01.27-.1 0-.02l-.44.1c-.13.04-.62.26-.1.03-1.12.5-2.57.35-3.2-.84-.54-1.03-.35-2.66.83-3.2" fill="#ffd9ca"/></g><g clip-path="url(#couch_F)" transform="matrix(.35278 0 0 -.35278 -197.36 155.2)"><path d="M186.63 314.76c.52.23-.01 0-.11-.02-.15-.05-.3-.07-.44-.1-.29-.08.54 0 0 0l-.54.01c-1.22.07-2.4-1.12-2.34-2.34a2.39 2.39 0 012.34-2.33 7.23 7.23 0 013.45.74c1.11.51 1.47 2.21.83 3.2-.74 1.15-2 1.38-3.2.84" fill="#ffd9ca"/></g><g clip-path="url(#couch_G)" transform="matrix(.35278 0 0 -.35278 -197.36 155.2)"><path d="M170.19 323.74v-13.9c0-1.5 2.33-1.5 2.33 0v13.9c0 1.5-2.33 1.5-2.33 0" fill="#ffd9ca"/></g><path d="M-138.46 39.7l.81.68c.07.06.13.11.17.19.07.1.07.24.07.37l.02 5.16" fill="none" stroke="#ff8663" stroke-width=".405697" stroke-linecap="round" stroke-linejoin="round" stroke-miterlimit="10"/><path d="M-139.28 47.65a2.34 2.34 0 004.64 0z" fill="#31284f"/><path d="M-136.96 48.2c-.68 0-1.28.3-1.7.76a2.31 2.31 0 003.4 0 2.31 2.31 0 00-1.7-.76" fill="#ff407b"/><path d="M-134.38 38.55c1.5-.18 3.05.04 4.44.63" fill="none" stroke="#31284f" stroke-width=".6067815999999999" stroke-linecap="round" stroke-linejoin="round" stroke-miterlimit="10"/><path d="M-131.47 42.57c0 .7-.31 1.27-.69 1.27-.38 0-.68-.57-.68-1.27 0-.7.3-1.27.68-1.27.38 0 .69.57.69 1.27" fill="#31284f"/><path d="M-131.58 42.13a.4.4 0 11-.8 0 .4.4 0 01.8 0" fill="#fff"/><path d="M-143.27 39a7.3 7.3 0 013.8-.24" fill="none" stroke="#31284f" stroke-width=".6067815999999999" stroke-linecap="round" stroke-linejoin="round" stroke-miterlimit="10"/><path d="M-140.68 42.57c0 .7-.31 1.27-.69 1.27-.38 0-.68-.57-.68-1.27 0-.7.3-1.27.68-1.27.38 0 .69.57.69 1.27" fill="#31284f"/><path d="M-140.75 42.13a.4.4 0 11-.8 0 .4.4 0 01.8 0" fill="#fff"/><path d="M-146.18 37.43c-.3.96-.48 1.99-.48 3.06v3.02c0 .57.06 1.13.16 1.67l2.96-7.75zM-127.03 37.43c.31.96.48 1.99.48 3.06v3.02c0 .57-.06 1.13-.15 1.67l-2.97-7.75z" fill="#31284f"/><path d="M-136.54 27.75h-.13c-5.92 0-10.72 4.8-10.72 10.72v.98l.62 1.1c7.35-.94 9.67-6.86 10.17-9.53.48 2.58 2.67 8.37 9.45 9.6a.93.93 0 001.01-.5l.32-.67v-.98c0-5.92-4.8-10.72-10.72-10.72" fill="#31284f"/><g fill="#a7a9e3" fill-opacity=".39"><g clip-path="url(#couch_H)" transform="matrix(.35278 0 0 -.35278 -197.36 155.2)"><path d="M147.43 340.08a27.22 27.22 0 0015.58 15.7c1.39.54.78 2.8-.62 2.26a29.76 29.76 0 01-17.22-17.33c-.53-1.41 1.73-2.02 2.26-.62"/></g></g><g fill="#a7a9e3" fill-opacity=".39"><g clip-path="url(#couch_I)" transform="matrix(.35278 0 0 -.35278 -197.36 155.2)"><path d="M167.3 357.8c1.5 0 1.5 2.33 0 2.33s-1.5-2.34 0-2.34"/></g></g><g fill="#a7a9e3" fill-opacity=".39"><g clip-path="url(#couch_J)" transform="matrix(.35278 0 0 -.35278 -197.36 155.2)"><path d="M157.05 331.17a37.68 37.68 0 0112.76 16.56c.55 1.4-1.7 2-2.25.63a34.87 34.87 0 00-11.7-15.17c-1.19-.89-.02-2.91 1.19-2.02"/></g></g><g fill="#a7a9e3" fill-opacity=".39"><g clip-path="url(#couch_K)" transform="matrix(.35278 0 0 -.35278 -197.36 155.2)"><path d="M149.4 330.47h-.16c-1.5 0-1.51-2.33 0-2.33h.17c1.5 0 1.5 2.33 0 2.33"/></g></g><g fill="#a7a9e3" fill-opacity=".39"><g clip-path="url(#couch_L)" transform="matrix(.35278 0 0 -.35278 -197.36 155.2)"><path d="M173.58 354.28a47.42 47.42 0 019.58-18.15c.97-1.15 2.61.5 1.65 1.65a44.59 44.59 0 00-8.98 17.12c-.4 1.45-2.65.83-2.25-.62"/></g></g><g fill="#a7a9e3" fill-opacity=".39"><g clip-path="url(#couch_M)" transform="matrix(.35278 0 0 -.35278 -197.36 155.2)"><path d="M179.8 355.01a27.16 27.16 0 0011.4-8.73c.9-1.18 2.92-.01 2.01 1.18a30.08 30.08 0 01-12.79 9.8c-1.39.57-2-1.69-.62-2.25"/></g></g><g fill="#a7a9e3" fill-opacity=".39"><g clip-path="url(#couch_N)" transform="matrix(.35278 0 0 -.35278 -197.36 155.2)"><path d="M198.83 329.84c1.5 0 1.5 2.34 0 2.34s-1.5-2.34 0-2.34"/></g></g><g><path d="M-129.52 36l.8-2.78c.34-1.15 1.69-.92 2.45.47l.11.22.44.94c.11.23.2.46.25.68.33 1.3-.31 2.16-1.25 1.8l-2.63-1c-.11-.05-.2-.22-.17-.33" fill="#ff407b"/></g><g><path d="M-128.89 35.7l-2.65-1.15c-1.1-.48-1.78.7-1.2 2.18l.1.22.45.95c.1.22.23.43.37.62.78 1.08 1.86 1.14 2.18.18l.9-2.67c.04-.1-.04-.28-.15-.33" fill="#ff407b"/></g><g><path d="M-129.7 36.5l-.26-.56a.73.73 0 111.32-.63l.27.58a.73.73 0 11-1.32.62" fill="#ff407b"/></g><g><g clip-path="url(#couch_O)" transform="matrix(.35278 0 0 -.35278 -197.36 155.2)"><path d="M192.18 338.84l.81-.4c.57-.29 1.27-.15 1.6.42.3.51.15 1.31-.42 1.6l-.81.4c-.57.28-1.27.15-1.6-.42-.3-.52-.15-1.31.42-1.6" fill="#ffd9ca"/></g></g><g><g clip-path="url(#couch_P)" transform="matrix(.35278 0 0 -.35278 -197.36 155.2)"><path d="M185.15 339.77c.56-.06 1.1-.25 1.58-.52 1.33-.72 2.5 1.3 1.18 2.02-.87.48-1.77.73-2.76.84-.63.07-1.17-.59-1.17-1.17 0-.69.54-1.1 1.17-1.17" fill="#ffd9ca"/></g></g><g><g clip-path="url(#couch_Q)" transform="matrix(.35278 0 0 -.35278 -197.36 155.2)"><path d="M196.29 342.55l.8 3c.39 1.45-1.86 2.07-2.25.62l-.8-3c-.39-1.45 1.86-2.07 2.25-.62" fill="#ffd9ca"/></g></g><g><path d="M-126.2 46.3a.84.84 0 11-1.68 0 .84.84 0 011.69 0" fill="#ff407b"/></g><g><path d="M-145.4 46.3a.84.84 0 11-1.69 0 .84.84 0 011.68 0" fill="#ff407b"/></g><g fill="#fff" fill-opacity=".39"><g clip-path="url(#couch_R)" opacity=".8" transform="matrix(.35278 0 0 -.35278 -191.75 156.87)"><path d="M71.76 280.8v28.53c0 1.93-3 1.93-3 0V280.8c0-1.93 3-1.93 3 0"/></g></g><g fill="#fff" fill-opacity=".39"><g clip-path="url(#couch_S)" opacity=".8" transform="matrix(.35278 0 0 -.35278 -209.86 147.95)"><path d="M202.65 345.66h37.19c1.93 0 1.93 3 0 3h-37.19c-1.93 0-1.93-3 0-3"/></g></g><g fill="#fff" fill-opacity=".39"><g clip-path="url(#couch_S)" opacity=".8" transform="matrix(.35278 0 0 -.35278 -106.9 150.94)"><path d="M202.65 345.66h37.19c1.93 0 1.93 3 0 3h-37.19c-1.93 0-1.93-3 0-3"/></g></g><g fill="#fff" fill-opacity=".39"><g clip-path="url(#couch_S)" opacity=".8" transform="scale(.35278 -.35278) rotate(2.43 10309.94 -2664.7)"><path d="M202.65 345.66h37.19c1.93 0 1.93 3 0 3h-37.19c-1.93 0-1.93-3 0-3"/></g></g><g><g fill="#d9d9d9"><g clip-path="url(#couch_f)" opacity=".8" transform="matrix(-.18684 .24202 .20606 .28137 -173.76 -42.03)"><path d="M39.01 262.06a23.37 23.37 0 0021.07 8.43c1.91-.22 1.9 2.78 0 3a26.1 26.1 0 01-23.19-9.31c-1.22-1.47.89-3.6 2.12-2.12"/></g></g><g fill="#d9d9d9"><g clip-path="url(#couch_f)" opacity=".8" transform="matrix(.18684 .25914 -.20606 .30127 -99.71 -48.17)"><path d="M39.01 262.06a23.37 23.37 0 0021.07 8.43c1.91-.22 1.9 2.78 0 3a26.1 26.1 0 01-23.19-9.31c-1.22-1.47.89-3.6 2.12-2.12"/></g></g><path d="M-127.96 46.57c0 3.57-4 6.47-8.93 6.47s-8.93-2.9-8.93-6.47 4.13-.32 9.06-.32c4.94 0 8.8-3.25 8.8.32z" fill="#fff" stroke="#cfcfcf" stroke-width=".6244206" stroke-linecap="round"/><g fill="#e2e2e2" fill-opacity=".53"><g clip-path="url(#couch_f)" opacity=".8" transform="matrix(-.4473 .0714 .05514 .50907 -124.6 -90.05)"><path d="M43.54 262.1a13.57 13.57 0 009.98 3.94c.87-.03.96 1.14.1 1.16-4.06.12-8.14-1.5-10.99-4.34-.61-.6.3-1.37.91-.75"/></g></g></g><g><path d="M143.52 97.11h-7.29c-7.2 0-13.03-5.83-13.03-13.03v-6.17h33.34v6.17c0 7.2-5.83 13.03-13.02 13.03" fill="#211b34"/><path d="M154.2 80.33l-2.32-40.72a6.86 6.86 0 00-3.64-6.17c-4.82-2.41-12.03-3-12.03-3l-11.69 2.32-9.98 7.33a6.86 6.86 0 00-1.02 7.1l9.23 33.7z" fill="#fff"/><path d="M154.2 80.33l-2.32-40.72c0-.5-.04-.98-.14-1.46a6.48 6.48 0 00-2.73-2.65c-4.82-2.4-12.03-2.99-12.03-2.99l-11.7 2.32-9.97 7.33a6.86 6.86 0 00-1.02 7.1l8.66 31.63z" fill="#0073ff"/><path d="M131.38 44.69c-1.04.36-2.1.67-3.12 1.05-.43.26-.27.79-.12 1.16 1.3 3.91 2.58 7.82 3.89 11.73.2.49.77.39 1.16.22l3.2-1.06-4.4-13.3-.61.2zm2.73-.9l4.4 13.29c2-.67 4-1.3 5.98-2 .8-.23.96-1.33.35-1.84-.74-.68-1.72-1.02-2.52-1.62-1-.65-2.03-1.53-2.3-2.75-.3-1.54.4-3.02.98-4.4.3-.7.78-1.6.26-2.3-.45-.62-1.25-.36-1.84-.14l-5.3 1.75z" fill="#fff"/><g fill-opacity=".39"><g clip-path="url(#couch_T)" transform="matrix(.35278 0 0 -.35278 31.72 155.2)"><path d="M331.29 300.73c-6 2.06-11.8 4.71-17.79 6.8-11.96 4.18-23.91-1.1-33.68-7.98a87.95 87.95 0 01-12.65-10.51c-4.32-4.48-5.75-9.58-7.24-15.46-1.35-5.33-2.77-10.73-5.2-15.7-1.69-3.44-4.14-6.4-6.48-9.43l.16-.58c3.6-7.15 8.89-12.62 13.3-19.1 3.4-5.02 7.8-8.47 14.38-7.06 5.92 1.27 10.6 6.04 13.23 11.49 5.68 11.71 2.35 27.1-7.66 35.41.74-.61 5.1 3 5.67 3.52 1.63 1.49 3.02 2.9 3.93 4.92a28.68 28.68 0 012.34 14.85c3.45-.04 6.9.85 9.9 2.54 1.86-3.82 3.46-7.06 7.17-9.41a14.86 14.86 0 0110.76-2.17c.84.17 6.45 1.61 6.41 2.7.47-13.06 7.32-23.09 16.97-31.22-.46 5.75-.67 11.55-1 17.32l-1 17.4c-.03.57-.04 8.17-.47 8.3-3.7 1.06-7.4 2.11-11.05 3.37"/></g></g><path d="M113.74 43.57c3-1.46 6.62-.22 8.08 2.79l9.95 19.75a6.05 6.05 0 01-10.87 5.3l-9.95-19.75a6.05 6.05 0 012.79-8.09" fill="#ff8663"/><path d="M113.74 43.57a6.04 6.04 0 015.83.3 6.02 6.02 0 00-4.85 8.66l9.95 19.76a6.01 6.01 0 002.26 2.48 6.04 6.04 0 01-6.03-3.36l-9.95-19.75a6.05 6.05 0 012.79-8.09" fill="#ffb999"/><path d="M114.54 40.1s-8.03 4.46-2.99 17.24l3.17 6.33 12.83-9.95-10.5-15.48z" fill="#fff"/><path d="M128.19 53.28l-9.3-13.72-2.31 1.73s-8.03 4.47-2.98 17.25l2.16 4.33z" fill="#0073ff"/><path d="M148.07 34.23a6.05 6.05 0 00-3 8l8.2 17.54a6.05 6.05 0 1011-5.02l-8.19-17.53a6.05 6.05 0 00-8.01-3" fill="#ff8663"/><path d="M148.07 34.23c-1.96.9-3.2 2.7-3.48 4.69a6.02 6.02 0 019.77 1.77l8.2 17.53c.49 1.08.63 2.23.48 3.32a6.04 6.04 0 001.24-6.79l-8.2-17.53a6.05 6.05 0 00-8.01-3" fill="#ffb999"/><path d="M141.87 28.82s8.42-3.67 15.53 8.08l3.12 6.36-18.15 4.34-5.95-17.74z" fill="#fff"/><path d="M141.24 30.91l-4.89.89 5.32 15.87 17.37-4.06-2.27-4.62c-7.11-11.76-15.53-8.08-15.53-8.08" fill="#0073ff"/><path d="M161.99 132.43h-15v-6.65a5.38 5.38 0 015.38-5.39h4.23a5.38 5.38 0 015.39 5.39z" fill="#31284f"/><path d="M159.24 128.33h-9.5v-9.05h9.5z" fill="#0f0830"/><path d="M160.82 132.43h-12.66v-1.33a5.7 5.7 0 015.7-5.7h1.26a5.7 5.7 0 015.7 5.7z" fill="#fff"/><path d="M146.99 134.17h15v-1.98h-15zM159.9 125.82c-2.7-3.11-8.12-3.11-10.81 0-.25.29.17.71.42.42a6.83 6.83 0 019.96 0c.25.29.67-.13.42-.42" fill="#fff"/><path d="M161.7 121.93h-14.41l-2.1-41.47c-.29-5.85 3.87-10.87 9.3-10.87 5.43 0 9.58 5.02 9.29 10.87z" fill="#31284f"/><path d="M154.49 69.6h-.23v52.33h7.43l2.09-41.47c.3-5.85-3.86-10.87-9.3-10.87" fill="#605780"/><g fill="#fff" fill-opacity=".39"><g clip-path="url(#couch_U)" opacity=".5" transform="matrix(.35278 0 0 -.35278 31.72 155.2)"><path d="M328.76 222.3a26.25 26.25 0 0014.38 14.43c1.25.51.7 2.58-.57 2.05a28.63 28.63 0 01-15.87-15.9c-.51-1.27 1.55-1.83 2.06-.57"/></g></g><g fill="#fff" fill-opacity=".39"><g clip-path="url(#couch_V)" opacity=".5" transform="matrix(.35278 0 0 -.35278 31.72 155.2)"><path d="M327.95 175.27l2.37-51.98c.07-1.37 2.2-1.38 2.14 0l-2.38 51.98c-.06 1.37-2.2 1.38-2.13 0"/></g></g><g fill="#fff" fill-opacity=".39"><g clip-path="url(#couch_W)" opacity=".5" transform="matrix(.35278 0 0 -.35278 31.72 155.2)"><path d="M366.71 156.28l-2.12-60.13c-.05-1.37 2.08-1.37 2.13 0l2.13 60.13c.05 1.37-2.09 1.37-2.14 0"/></g></g><path d="M134.3 132.43h-15v-6.65a5.39 5.39 0 015.39-5.39h4.23a5.38 5.38 0 015.38 5.39z" fill="#31284f"/><path d="M131.55 128.33h-9.5v-9.05h9.5z" fill="#0f0830"/><path d="M133.13 132.43h-12.65v-1.33a5.7 5.7 0 015.7-5.7h1.25a5.7 5.7 0 015.7 5.7z" fill="#fff"/><path d="M119.3 134.17h15v-1.98h-15zM132.2 125.82c-2.69-3.11-8.1-3.11-10.8 0-.25.29.17.71.42.42a6.82 6.82 0 019.97 0c.25.29.66-.13.41-.42" fill="#fff"/><path d="M134 121.93h-14.4l-2.09-41.47c-.3-5.85 3.86-10.87 9.3-10.87 5.43 0 9.58 5.02 9.28 10.87z" fill="#31284f"/><g fill="#fff" fill-opacity=".39"><g clip-path="url(#couch_X)" opacity=".5" transform="matrix(.35278 0 0 -.35278 31.72 155.2)"><path d="M247.19 217.75a26.32 26.32 0 006.03 13.43c.88 1.04-.62 2.56-1.5 1.5a28.33 28.33 0 01-6.59-14.36c-.2-1.34 1.86-1.92 2.06-.57"/></g></g><g fill="#fff" fill-opacity=".39"><g clip-path="url(#couch_Y)" opacity=".5" transform="matrix(.35278 0 0 -.35278 31.72 155.2)"><path d="M245.72 190.9l2.94-34.9c.11-1.35 2.24-1.37 2.13 0l-2.94 34.9c-.12 1.35-2.25 1.36-2.13 0"/></g></g><path d="M134.76 74.57c-1.44 2.94-4.9 5.25-8.09 5.79l.03 41.57h7.3l2.1-41.47c.1-2.14-.4-4.17-1.34-5.89" fill="#605780"/><path d="M141.58 47.4l-11.7 3.43-.93-3.16 11.7-3.42z" fill="#2e2e47"/><path d="M131 54.82a2.27 2.27 0 01-2.81-1.54l-1.38-4.72a2.27 2.27 0 011.54-2.81l1.37-.4c1.45-.43 2.9.66 2.9 2.17l.02 5.12c0 1-.66 1.9-1.63 2.18M142.57 51.44a2.27 2.27 0 001.54-2.81l-1.38-4.72a2.27 2.27 0 00-2.81-1.54l-1.37.4a2.27 2.27 0 00-1.28 3.4l2.75 4.31a2.27 2.27 0 002.55.96" fill="#2e2e47"/><path d="M140.75 44.56l-11.71 3.42-.43-1.46 11.7-3.42z" fill="#2e2e47"/><path d="M129.83 45.68c.25-.05.5-.04.73.06.15.07.29-.16.13-.23-.3-.13-.6-.16-.93-.08-.16.03-.1.3.07.25M138.03 43.5c.3-.3.71-.37 1.1-.47.17-.04.1-.3-.07-.25-.44.1-.87.2-1.21.52-.13.12.06.31.18.2" fill="#47475e"/><path d="M136.2 46.07l-3 .87a.52.52 0 01-.3-1l3-.87a.52.52 0 01.3 1" fill="#0ff"/><path d="M136.05 45.55l-1.57.45c-.29.09-1.27.27-1.38.39-.12.12.39-.05.45-.07l.93-.27 1.07-.31c.12-.04.24-.08.36-.1.1-.03.17-.12 0-.04-.63.3-.07 1.24.55.94.64-.3.86-1.1.4-1.66-.37-.44-.9-.4-1.4-.25-.91.26-1.97.42-2.82.84-.6.28-.86 1.03-.44 1.6.35.46.85.47 1.36.34.93-.24 1.85-.54 2.78-.81.67-.2.38-1.25-.3-1.05" fill="#0ff"/><path d="M127.92 46.86a5.96 5.96 0 011.82-.56c.25-.04.15-.42-.1-.38-.67.1-1.3.3-1.92.6-.22.1-.02.45.2.34M128.14 47.6a5.96 5.96 0 011.82-.55c.25-.03.14-.42-.1-.38-.68.1-1.31.3-1.92.6-.23.11-.03.45.2.34M138.82 43.73a5.96 5.96 0 011.81-.56c.26-.04.15-.42-.1-.38-.67.1-1.3.3-1.91.6-.23.1-.03.45.2.34M139.03 44.48a5.96 5.96 0 011.82-.56c.25-.03.15-.41-.1-.38-.67.1-1.3.3-1.92.6-.22.11-.02.45.2.34" fill="#e6e6e6"/><path d="M120.35 52.39l-.51 14.69s1.45 11 8.63 9.6c2.45-.49 3.76-2.27 4.45-4.22 1.04-2.93.6-6.2-1.04-8.85l-5.04-8.2z" fill="#ffb999"/><path d="M127.66 76.71c-.38-2.2-.7-4.4-1.07-6.6-.33-1.97-.75-3.92-1.12-5.87-.39-2-.81-3.97-1.25-5.95-.35-1.58-.66-3.24-1.35-4.73l3.97 1.86 5.04 8.2a10.36 10.36 0 011.04 8.84c-.69 1.95-2 3.73-4.45 4.21-.27.06-.54.1-.8.11z" fill="#ff8663"/><path d="M124.26 60.43c-.12-.02-.12-.03 0-.02.01-.03.33-.2.39-.26a16.67 16.67 0 002.32-2.37c.26-.3.5-.62.75-.93l2.74 4.45c-1.94-.38-3.94-.46-5.9-.82l-.3-.05" fill="#c6614a"/><path d="M134.4 47.76s-1.52 1.18-2.05 1.37c-.53.18-4.2 1.78-6.21.7l.1-2.66s1.68-1.5.38-1.66c-1.3-.16-2.8 1.26-2.8 1.26s-2.48 4.73-3.47 5.62c1.18 2.06 1.95 4.36 3 6.48.31.63.6 1.3.9 1.95.03 0 .05-.02.08-.03l6.86-1.86c.14-.03.7-1.49.7-1.49l1-1.32s.17-1.34-.14-1.46c0 0 1.84-2.75.05-3.24 0 0 2.23-1.77 1.6-3.66" fill="#ffb999"/><g clip-path="url(#couch_Z)" transform="matrix(.35278 0 0 -.35278 31.72 155.2)"><path d="M258.34 296.71l5.25 9.09c.68 1.19-1.16 2.26-1.85 1.07l-5.25-9.08c-.68-1.19 1.16-2.26 1.85-1.08" fill="#ffd9ca"/></g><g clip-path="url(#couch_aa)" transform="matrix(.35278 0 0 -.35278 31.72 155.2)"><path d="M265.15 307.46l2.58 1.1c.53.22.65 1 .39 1.45-.33.55-.93.6-1.46.38l-2.59-1.09c-.53-.22-.64-1-.38-1.46.32-.55.93-.6 1.46-.38" fill="#ffd9ca"/></g><g clip-path="url(#couch_ab)" transform="matrix(.35278 0 0 -.35278 31.72 155.2)"><path d="M275.7 294.09l.88-1.85c.25-.52 1-.66 1.46-.38.53.3.63.93.38 1.46l-.88 1.84c-.25.52-1 .66-1.46.38-.53-.3-.63-.93-.38-1.45" fill="#ffd9ca"/></g><g clip-path="url(#couch_ac)" transform="matrix(.35278 0 0 -.35278 31.72 155.2)"><path d="M276.79 286.83l.44-2.6c.1-.56.8-.88 1.3-.74.6.16.85.74.75 1.31l-.44 2.6c-.1.57-.8.89-1.31.74-.6-.16-.84-.74-.74-1.3" fill="#ffd9ca"/></g><g clip-path="url(#couch_ad)" transform="matrix(.35278 0 0 -.35278 31.72 155.2)"><path d="M278.06 280.54l.19-2.74c.03-.58.46-1.07 1.06-1.07.55 0 1.1.49 1.07 1.07l-.18 2.74c-.04.58-.47 1.07-1.07 1.07-.55 0-1.1-.5-1.07-1.07" fill="#ffd9ca"/></g><g clip-path="url(#couch_ae)" transform="matrix(.35278 0 0 -.35278 31.72 155.2)"><path d="M251.26 287.26l-1.51-42.6c-.05-1.37 2.08-1.37 2.13 0l1.5 42.6c.06 1.38-2.08 1.37-2.12 0" fill="#ffd9ca"/></g><path d="M130.18 59.02c-.07-.23.24-.68.3-.9.23-.81.17-1.68.1-2.51l-.1-1.41-.14-1.94c-.07-.94-.23-1.68-1.24-1.73-.9-.05-1.74 0-2.54-.51 2.07.68 5.3-.72 5.79-.9.53-.18 2.05-1.36 2.05-1.36.63 1.89-1.6 3.66-1.6 3.66 1.79.49-.05 3.24-.05 3.24.31.12.15 1.46.15 1.46l-1.01 1.32s-.56 1.46-.7 1.49c-.21.05-.74.35-.95.19a.18.18 0 01-.06-.1" fill="#ff8663"/><path d="M131.32 52.48c.59-.24 1.15-.52 1.68-.85.15-.1.01-.34-.14-.25-.51.33-1.05.6-1.61.83-.17.06-.1.33.07.27M131.61 55.37c.42-.25.88-.42 1.3-.67.15-.1 0-.34-.15-.24-.41.25-.87.42-1.29.67-.15.1-.01.33.14.24M131.31 57.97c.27-.11.52-.18.74-.38.13-.12-.07-.32-.2-.2-.18.17-.4.22-.61.3-.16.08-.1.35.07.28M129.96 50.82c.14.24.21.49.21.76 0 .18.28.18.28 0 0-.32-.08-.63-.25-.9-.1-.15-.34-.01-.24.14M130.3 53.7c.18.26.23.56.13.87-.06.17.21.24.27.07.12-.37.06-.77-.16-1.08-.1-.15-.34-.01-.24.14M130.58 56.54c.1.24.1.5-.02.73-.08.16.16.3.24.14.15-.3.18-.63.05-.94-.07-.17-.34-.1-.27.07M130.44 58.23a.96.96 0 01-.25.55c-.13.14.07.33.2.2.2-.21.3-.46.33-.75.02-.18-.26-.18-.28 0" fill="#c6614a"/><path d="M149.75 40.9l11.29 9.41s7.23 8.43 1.39 12.84c-2 1.5-4.2 1.29-6.1.5a10.36 10.36 0 01-5.9-6.67l-2.75-9.23z" fill="#ffb999"/><path d="M163 62.57c-1.38-1.75-2.81-3.46-4.2-5.2-1.25-1.56-2.43-3.17-3.63-4.76a224.1 224.1 0 01-3.6-4.9c-.94-1.3-1.98-2.64-2.63-4.15l-1.26 4.2 2.74 9.22c.9 2.98 3.02 5.49 5.9 6.67 1.91.79 4.11 1 6.1-.5.23-.17.43-.35.62-.52l-.04-.06" fill="#ff8663"/><path d="M153.13 49.17c.07-.1.06-.1-.01-.01-.03-.01-.37.1-.45.12a16.84 16.84 0 01-3.32.15l-1.2-.07 1.5 5.01c1.01-1.7 2.29-3.24 3.32-4.93l.16-.27" fill="#c6614a"/><path d="M136.93 48.28s1.9-.35 2.39-.62c.5-.27 4.13-1.94 4.67-4.15l-2.05-1.71s-2.24.26-1.49-.82c.75-1.08 2.8-1.24 2.8-1.24s5.18 1.3 6.5 1.16c.75 2.25 1.95 4.36 2.83 6.55.26.66.55 1.32.85 1.99l-.07.02-5.97 3.88a7.76 7.76 0 01-1.57-.48l-1.66-.12s-1.11-.78-.99-1.1c0 0-3.27-.45-2.45-2.11 0 0-2.8.47-3.79-1.25" fill="#ffb999"/><g clip-path="url(#couch_af)" transform="matrix(.35278 0 0 -.35278 31.72 155.2)"><path d="M317.43 323.87l12.3-2.7c1.34-.3 1.91 1.75.57 2.05l-12.3 2.71c-1.34.3-1.91-1.76-.57-2.06" fill="#ffd9ca"/></g><g clip-path="url(#couch_ag)" transform="matrix(.35278 0 0 -.35278 31.72 155.2)"><path d="M315.6 308.2a6.15 6.15 0 011.87-5.75c1.02-.92 2.53.58 1.51 1.5a3.97 3.97 0 00-1.32 3.68c.24 1.34-1.82 1.92-2.06.57" fill="#ffd9ca"/></g><g clip-path="url(#couch_ah)" transform="matrix(.35278 0 0 -.35278 31.72 155.2)"><path d="M320.45 298.6l3.56-3.56c.97-.97 2.47.54 1.5 1.51l-3.55 3.55c-.97.97-2.48-.54-1.51-1.5" fill="#ffd9ca"/></g><g clip-path="url(#couch_ai)" transform="matrix(.35278 0 0 -.35278 31.72 155.2)"><path d="M326.01 294.75a5.36 5.36 0 013.96-3.31c.56-.1 1.15.15 1.31.74.14.52-.18 1.21-.75 1.31a3.23 3.23 0 00-2.46 1.83c-.23.53-.7.91-1.31.75-.5-.14-.97-.78-.75-1.32" fill="#ffd9ca"/></g><g clip-path="url(#couch_aj)" transform="matrix(.35278 0 0 -.35278 31.72 155.2)"><path d="M337.28 318.13l28.05-23.58c1.04-.88 2.56.63 1.5 1.51l-28.04 23.58c-1.04.87-2.56-.63-1.5-1.51" fill="#ffd9ca"/></g><g clip-path="url(#couch_ak)" transform="matrix(.35278 0 0 -.35278 31.72 155.2)"><path d="M359.63 314.4l6.07-13.63c.56-1.25 2.4-.17 1.85 1.07l-6.07 13.64c-.56 1.26-2.4.17-1.85-1.07" fill="#ffd9ca"/></g><path d="M148.14 52.65c-.13-.21-.67-.28-.88-.38a7.3 7.3 0 01-1.94-1.6l-.98-1.02-1.35-1.4c-.65-.67-1.1-1.29-.46-2.08.57-.7 1.17-1.28 1.31-2.23-.87 2-4.06 3.47-4.52 3.72-.5.27-2.39.62-2.39.62.99 1.72 3.8 1.25 3.8 1.25-.83 1.66 2.44 2.12 2.44 2.12-.12.31 1 1.09 1 1.09l1.65.12s1.45.56 1.57.48c.18-.13.76-.33.78-.58 0-.04-.01-.08-.03-.11" fill="#ff8663"/><path d="M142.35 48.9c-.54.26-1.1.48-1.69.65-.17.05-.1.31.08.26.6-.17 1.19-.4 1.75-.68.16-.08.02-.32-.14-.24M144.38 51.01c-.47.14-.9.37-1.36.51-.18.06-.1.33.07.27.47-.14.9-.37 1.36-.51.17-.05.1-.32-.07-.27M146.45 52.55c-.21.1-.4.23-.63.25-.18.02-.18.3 0 .28.3-.03.5-.17.77-.29.16-.08.02-.32-.14-.24M141.9 47.1c.1.3.27.57.5.78.14.12.34-.08.2-.2a1.4 1.4 0 01-.42-.66c-.05-.18-.32-.1-.27.07M143.82 49.26c.09.38.34.7.7.85.16.07.3-.17.14-.24a.96.96 0 01-.57-.68c-.04-.18-.3-.1-.27.07M145.78 51.43c.15.3.41.52.73.6.18.05.25-.22.08-.27a.86.86 0 01-.57-.47c-.07-.16-.32-.02-.24.14M147.2 52.54c.23.16.49.24.76.23.18 0 .18-.28 0-.28a1 1 0 01-.61-.2c-.15-.1-.29.15-.14.25" fill="#c6614a"/><path d="M124.62 37.64c2.1.52 6.23 1.42 7.92.91 1.66-.5 4.7-3.52 6.23-5.1.58-.61.8-1.4.6-2.11l-.05-.18c-.08-.3-.35-.51-.7-.56l-1.82-.23c-.15-.02-.3 0-.44.03l-10.83 3.2a1.1 1.1 0 00-.4.22l-1.8 1.52c-.27.22-.38.55-.3.84.2.71.79 1.26 1.59 1.46" fill="#fff"/><path d="M137.43 32.04c.1.34 0 .72-.28 1-1.02 1.1-3.62 3.74-4.98 4.15-1.39.42-4.94-.42-6.36-.79-.38-.1-.66-.35-.76-.69l-2.34-8.11 12.37-3.67z" fill="#ffb999"/><path d="M123.29 29.68c1.46 2.02 4.37 2.93 7.28 2.07 2.9-.86 4.9-3.23 5.1-5.73l-.59-2.09-12.37 3.67z" fill="#ff8663"/><g clip-path="url(#couch_al)" transform="matrix(.35278 0 0 -.35278 31.72 155.2)"><path d="M263.3 347.34c.82-2.97 1.8-5.9 2.62-8.87.6-2.16 3.97-1.24 3.37.93-.83 2.97-1.8 5.9-2.63 8.87-.6 2.16-3.96 1.24-3.36-.93" fill="#ffd9ca"/></g><path d="M136.53 17.58c-.22 2.02.36 3.55 1.3 3.41.94-.13 1.88-1.88 2.1-3.9.23-2.02-.35-3.55-1.3-3.41-.93.13-1.88 1.88-2.1 3.9" fill="#ff8663"/><path d="M139.38 15.85a.62.62 0 00-.2-.62.62.62 0 00-.64-.08c-.38.19-.46.69-.49 1.11l-.1 1.46c.04-.1.17-.14.27-.1.1.02.17.1.23.2a.9.9 0 01.03.8.9.9 0 01-.64.5" fill="none" stroke="#c25b5b" stroke-width=".4374472" stroke-linecap="round" stroke-linejoin="round" stroke-miterlimit="10"/><path d="M116.94 20.83c.82 1.86.73 3.5-.2 3.65-.94.15-2.37-1.23-3.2-3.08-.82-1.86-.73-3.5.21-3.65.94-.16 2.36 1.22 3.19 3.08" fill="#ff8663"/><path d="M113.7 20.05a.62.62 0 010-.66c.12-.19.36-.3.6-.27.41.06.63.52.79.91l.53 1.37c-.06-.08-.2-.09-.28-.03a.42.42 0 00-.15.26.9.9 0 00.2.8c.2.2.5.3.77.27" fill="none" stroke="#c25b5b" stroke-width=".4374472" stroke-linecap="round" stroke-linejoin="round" stroke-miterlimit="10"/><path d="M129 30.13a10.85 10.85 0 01-12.76-8.54l-1.33-6.75a4.5 4.5 0 013.54-5.28l12.47-2.47a4.5 4.5 0 015.29 3.54l1.33 6.75A10.85 10.85 0 01129 30.13" fill="#ffb999"/><path d="M130.92 7.1l-12.47 2.46a4.5 4.5 0 00-3.54 5.28l.18.92c.22-1.16.57-2.3 1.1-3.36.03 1.26 1.45 2.3 2.74 2 1.3-.3 2.06-1.85 1.48-2.97 1.57 1.89 3.54 3.62 6 4.2 1.23.3 2.66.26 3.64-.51a2.66 2.66 0 001.04-2.18 7.63 7.63 0 006.16 3.26c.28 1.1.47 3.7.47 3.7l.02-.05a10.9 10.9 0 00-.2-2.47l-1.33-6.75a4.5 4.5 0 00-5.29-3.54" fill="#ff8663"/><path d="M140.54 7.2c-.17-1.13-1-2.07-1.93-2.76-2.33-1.73-5.33-2.26-8.23-2.36a4.54 4.54 0 00-2.55.45 2.44 2.44 0 00.21-3.52c-1.06-1.05-2.82-.85-4.23-.36a15 15 0 00-9.79 12.49c-.78-.2-1.57.5-1.75 1.29-.17.8.1 1.6.43 2.35.9 2.05 2.09 3.95 3.36 5.79-.46-2.68-.65-5.59.17-8.22.2 1.24 1.68 2.09 2.85 1.63 1.17-.47 1.67-2.1.96-3.14 1.74 1.66 3.83 3.13 6.22 3.39 1.2.13 2.53-.1 3.34-1 .56-.6.8-1.47.66-2.28a7.17 7.17 0 006.24 2.42c.42 1.05.97 3.6.97 3.6s.51-2.18.93-3.25c.56.6 1.57.73 2.27.28 1.9-1.23.14-4.42-1.85-4.21 1.15-.12 1.89-1.44 1.72-2.58" fill="#05052d"/><path d="M114.35 11.18c-.04-.68-.08-1.44 0-2.11.08-.62.56-1.25.35-1.85-.08-.23-.3-.37-.54-.3-.8.21-.95 1.34-1.02 2.06-.08.95.14 1.69.74 2.4.15.18.48.03.47-.2" fill="#05052d"/><path d="M114.74 11.73c-.1-.32-.15-.58-.42-.82a2.58 2.58 0 00-1-.53c-.6-.19-1.67-.3-2.04.35-.17.3 0 .58.28.7.44.18.99-.1 1.47-.02.45.08 1.05.3 1.46.52.13.06.3-.05.25-.2" fill="#05052d"/><path d="M123.65 12.47c1.64 1.68 4.26 1.47 5.98.04.65-.54-.29-1.47-.93-.93-1.18.99-3 1.1-4.12-.04-.6-.6-1.52.32-.93.93M131.39 11.3a7.32 7.32 0 005.62.8c.82-.2.47-1.47-.35-1.26-1.6.4-3.19.17-4.61-.68-.73-.43-1.39.7-.66 1.13M139.43 11.62c.23.23.37.52.38.82.02.36.29.66.66.66.34 0 .67-.3.65-.66a2.6 2.6 0 00-.77-1.75c-.6-.6-1.53.33-.92.93M133.28 3.99c2.21.59 4.88 1.36 5.43 3.91.18.83 1.45.48 1.27-.34-.66-3.04-3.68-4.13-6.35-4.84-.82-.22-1.17 1.05-.35 1.27M124.93 6.7c.98-.2 2.02.02 2.82.64.66.51 1.6-.4.93-.92a4.9 4.9 0 00-4.1-.98c-.83.17-.48 1.43.35 1.27M119.11 13.22c.55-.68.77-1.52.54-2.38-.21-.81-1.48-.47-1.26.35.1.38.04.8-.2 1.1-.23.28-.27.66 0 .93.22.23.7.28.92 0M114.43 9.07a1.1 1.1 0 01.08-.82.67.67 0 00-.23-.9c-.3-.18-.74-.08-.9.23-.3.58-.38 1.21-.22 1.84.22.82 1.48.47 1.27-.35M112.3 12.5a5.03 5.03 0 001 3.6c.5.66 1.64 0 1.13-.66a3.95 3.95 0 01-.82-2.94c.1-.84-1.22-.83-1.31 0M124.96.02c.54-.1 1.06-.02 1.56.18.33.13.72-.14.8-.46.11-.37-.12-.68-.45-.8a4.09 4.09 0 00-2.26-.19c-.35.06-.55.49-.46.8.1.37.46.53.8.47M117.23 5.95c1.24-2.04 2.9-3.71 4.93-4.97.71-.45.06-1.58-.66-1.14a16.52 16.52 0 00-5.4 5.44c-.45.73.69 1.39 1.13.67" fill="#373754"/><g clip-path="url(#couch_am)" transform="matrix(.35278 0 0 -.35278 31.72 155.2)"><path d="M252.66 373.26a7.2 7.2 0 015.91.51 2.55 2.55 0 01.9 3.46 2.58 2.58 0 01-3.45.91c-.27-.13-.3-.16-.1-.07l-.24-.08a4.6 4.6 0 00-.46-.1c-.12 0-.75.06-.56.02a4.54 4.54 0 00-.65.22c-1.24.47-2.83-.52-3.11-1.76-.33-1.44.43-2.61 1.76-3.11" fill="#ffd9ca"/></g><g clip-path="url(#couch_an)" transform="matrix(.35278 0 0 -.35278 31.72 155.2)"><path d="M284.73 379.19a5.55 5.55 0 015.43 1.45c.93.95 1.02 2.65 0 3.58-1 .91-2.58 1-3.57 0a2.52 2.52 0 00-.25-.24c.3.22.32.25.1.1-.42-.25.5.13-.1-.04-.64-.17.4-.02-.1-.01-.28.01-.23 0 .16-.05l-.33.08c-1.27.35-2.8-.43-3.1-1.76-.31-1.34.4-2.74 1.76-3.11" fill="#ffd9ca"/></g><g clip-path="url(#couch_ao)" transform="matrix(.35278 0 0 -.35278 31.72 155.2)"><path d="M266.93 392.59l2.77-14.51c.3-1.6 2.74-.92 2.43.67l-2.76 14.51c-.3 1.6-2.74.92-2.44-.67" fill="#ffd9ca"/></g><g clip-path="url(#couch_ap)" transform="matrix(.35278 0 0 -.35278 31.72 155.2)"><path d="M285.03 364.53a6.12 6.12 0 013 4.04c.34 1.6-2.1 2.27-2.44.68a3.66 3.66 0 00-1.84-2.53c-1.42-.8-.14-2.98 1.28-2.19" fill="#ffd9ca"/></g><g><path d="M118.45 15.89a7.88 7.88 0 014.1.18" fill="none" stroke="#05052d" stroke-width=".6561708" stroke-linecap="round" stroke-linejoin="round" stroke-miterlimit="10"/></g><g><path d="M129.62 14.96a9.54 9.54 0 014.58-1.56" fill="none" stroke="#05052d" stroke-width=".6561708" stroke-linecap="round" stroke-linejoin="round" stroke-miterlimit="10"/></g><g><path d="M124.24 15.5l1 .56a.8.8 0 01.22.16c.1.1.12.25.15.38l1.1 5.46" fill="none" stroke="#ff8663" stroke-width=".4374472" stroke-linecap="round" stroke-linejoin="round" stroke-miterlimit="10"/></g><g><path d="M122.07 19.94c.14.7-.1 1.34-.53 1.43-.43.08-.9-.42-1.03-1.12-.14-.71.1-1.35.53-1.44.43-.08.9.42 1.03 1.13" fill="#05052d"/></g><g><path d="M133.4 17.7c.15.7-.1 1.34-.52 1.43-.44.08-.9-.42-1.04-1.13-.14-.7.1-1.34.53-1.43.43-.08.9.42 1.04 1.12" fill="#05052d"/></g><g><path d="M129.44 22.87c.62-.35 1.35-.72 2.03-.48.7.25 1.06 1.13.9 1.86-.16.74-.7 1.33-1.33 1.76-.57.4-1.23.68-1.93.71-.96.06-2.6-.66-2.37-1.88.18-.97 1.96-1.56 2.7-1.97" fill="#05052d"/></g><g><path d="M131.98 22.74c-.14-.15-.31-.28-.51-.35-.68-.24-1.4.13-2.03.48-.74.4-2.52 1-2.7 1.97-.03.16-.02.32 0 .47 1.78-.8 3.48-1.74 5.24-2.57" fill="#fff"/></g><g><path d="M127.96 26.5c.4.17.81.24 1.15.22.7-.03 1.36-.32 1.93-.71a3 3 0 001.33-1.76v-.05c-1.86-.1-3.62.35-4.41 2.3" fill="#ff407b"/></g><path d="M108.76 17.53l-6.03 4.28c-.57.4-.02 1.35.55.94l6.03-4.28c.56-.4.02-1.35-.55-.94M108.42 14.56l-7.29-1.23c-.68-.12-.98.93-.28 1.05l7.29 1.24c.68.11.98-.94.28-1.06M110.27 12.23L106 6.2c-.4-.57-1.35-.02-.94.55l4.28 6.03c.4.56 1.35.02.94-.55" fill="#0ff"/><g fill="#fff" fill-opacity=".39"><g clip-path="url(#couch_aq)" opacity=".8" transform="matrix(.35278 0 0 -.35278 27.33 151.08)"><path d="M404.2 354.04a18.73 18.73 0 0011.53-6.66c1.23-1.49 3.34.65 2.12 2.12a21.21 21.21 0 01-12.85 7.43c-1.9.32-2.7-2.57-.8-2.9"/></g></g><g fill="#d9d9d9"><g clip-path="url(#couch_f)" opacity=".8" transform="matrix(-.1516 .28993 .26972 .25791 71.88 -63.82)"><path d="M39.01 262.06a23.37 23.37 0 0021.07 8.43c1.91-.22 1.9 2.78 0 3a26.1 26.1 0 01-23.19-9.31c-1.22-1.47.89-3.6 2.12-2.12"/></g></g><g fill="#d9d9d9"><g clip-path="url(#couch_f)" opacity=".8" transform="matrix(.24532 .23808 -.16076 .35595 148.74 -84.13)"><path d="M39.01 262.06a23.37 23.37 0 0021.07 8.43c1.91-.22 1.9 2.78 0 3a26.1 26.1 0 01-23.19-9.31c-1.22-1.47.89-3.6 2.12-2.12"/></g></g><path d="M136.7 20.97c.67 3.77-2.31 8.13-7.5 9.05-5.2.92-10.65-1.94-11.32-5.7-.67-3.77 4.3-1.12 9.49-2.04 5.2-.92 8.66-5.07 9.33-1.3z" fill="#fff" stroke="#cfcfcf" stroke-width=".6667542" stroke-linecap="round"/><g fill="#e2e2e2" fill-opacity=".53"><g clip-path="url(#couch_f)" opacity=".8" transform="matrix(-.48372 .03077 .00719 .54787 155.98 -124.72)"><path d="M48.52 261.67c2.91 2.4 6.22 3.44 9.97 3.93.88-.02.97 1.14.1 1.17-4.17-.78-7.66-1.83-10.98-4.34-.62-.61.29-1.37.9-.76"/></g></g></g><circle cx="-136.8" cy="-1.83" r="10.96" fill="url(#couch_ar)"/><circle r="17.39" cy="-53.24" cx="144.8" fill="url(#couch_as)"/><circle cx="57.11" cy="-46.06" r="10.96" fill="url(#couch_at)"/><circle cx="26.11" cy="15.93" r="9.07" fill="url(#couch_au)"/><circle r="9.07" cy="28.03" cx="200.74" fill="url(#couch_av)"/><circle cx="-204.26" cy="112.5" r="4.72" fill="url(#couch_aw)"/><path d="M115.42 169.79c-35.2 24.1-51.66 61.65-58.56 108.16a62.86 62.86 0 0040.62 14.9A62.86 62.86 0 00160.34 230a62.86 62.86 0 00-44.92-60.21z" transform="matrix(.26458 0 0 .26458 -218.9 -94.44)" fill="url(#couch_ax)"/><path d="M483.3 261.01A52.86 52.86 0 00466.05 300a52.86 52.86 0 0052.86 52.86 52.86 52.86 0 0043.53-22.9c-48.9-18-66.91-43-79.14-68.95z" transform="matrix(.26458 0 0 .26458 -218.9 -94.44)" fill="url(#couch_ay)"/><path d="M1218.82 29.7c-19.53.12-37.4.3-52.5.3l-3.03.02a27.86 27.86 0 0027.76 25.7 27.86 27.86 0 0027.77-26.03z" transform="matrix(.26458 0 0 .26458 -218.9 -94.44)" fill="url(#couch_az)"/><g fill="#b8b8b8"><path d="M-200.24 10.52h2c.48 0 .87-.4.87-.88v-2c0-.47-.4-.87-.87-.87h-2c-.48 0-.88.4-.88.88v2c0 .48.4.87.88.87" fill-rule="evenodd"/></g><g fill="#b8b8b8"><path d="M-193.31 10.52h2c.48 0 .87-.4.87-.88v-2c0-.47-.4-.87-.87-.87h-2c-.48 0-.88.4-.88.88v2c0 .48.4.87.88.87" fill-rule="evenodd"/></g><g fill="#b8b8b8"><path d="M-186.38 10.52h2c.48 0 .87-.4.87-.88v-2c0-.47-.4-.87-.87-.87h-2c-.48 0-.88.4-.88.88v2c0 .48.4.87.88.87" fill-rule="evenodd"/></g><g fill="#b8b8b8"><path d="M-193.06 2.96h2c.48 0 .87-.39.87-.87v-2c0-.48-.4-.87-.87-.87h-2c-.48 0-.88.39-.88.87v2c0 .48.4.87.88.87" fill-rule="evenodd"/></g><g><path d="M-186.13 2.96h2c.48 0 .87-.39.87-.87v-2c0-.48-.4-.87-.87-.87h-2c-.48 0-.88.39-.88.87v2c0 .48.4.87.88.87" fill="#fff" fill-rule="evenodd"/></g><g fill="#b8b8b8"><path d="M-179.2 2.96h2c.48 0 .87-.39.87-.87v-2c0-.48-.4-.87-.87-.87h-2c-.48 0-.87.39-.87.87v2c0 .48.39.87.87.87" fill-rule="evenodd"/></g><path d="M-195.25 48.28c-.06.08-5-.55-5.04-.64-.04-.1 2.97-4.07 3.07-4.05a49 49 0 011.97 4.69z" fill="#fff"/><path d="M-188.16 41.16c-.06.08-5-.55-5.04-.64-.04-.1 2.97-4.07 3.08-4.06.1.02 2.03 4.62 1.96 4.7z" fill="#b8b8b8"/><path d="M-189.8 32.7c-.07.09-5.01-.54-5.05-.64-.04-.09 2.97-4.06 3.08-4.05.1.02 2.03 4.61 1.96 4.7z" fill="#fff"/><path d="M-181.22 46.98c-.07.08-5.01-.54-5.05-.64-.04-.1 2.98-4.06 3.08-4.05.1.01 2.03 4.61 1.97 4.7z" fill="#b8b8b8"/><circle cx="-175.27" cy="49.33" r="1.68" fill="#fff"/><circle r="1.68" cy="54.02" cx="-191.28" fill="#b8b8b8"/><g fill="#b8b8b8"><path d="M-36.77 22.24h2c.48 0 .87-.4.87-.88v-2c0-.48-.39-.87-.87-.87h-2c-.48 0-.87.4-.87.87v2c0 .48.4.88.87.88" fill-rule="evenodd"/></g><g><path d="M-22.66 14.68h2c.48 0 .88-.4.88-.87v-2c0-.48-.4-.88-.88-.88h-2c-.48 0-.87.4-.87.88v2c0 .48.4.87.87.87" fill="#fff" fill-rule="evenodd"/></g><g fill="#b8b8b8"><path d="M-15.73 14.68h2c.48 0 .88-.4.88-.87v-2c0-.48-.4-.88-.88-.88h-2c-.48 0-.87.4-.87.88v2c0 .48.4.87.87.87" fill-rule="evenodd"/></g><g fill="#b8b8b8"><path d="M60.63-63.56h2c.47 0 .87-.4.87-.88v-2c0-.48-.4-.87-.88-.87h-2c-.48 0-.87.4-.87.87v2c0 .48.4.88.88.88" fill-rule="evenodd"/></g><g fill="#b8b8b8"><path d="M53.95-71.12h2c.48 0 .87-.4.87-.87v-2c0-.48-.4-.88-.88-.88h-2c-.47 0-.87.4-.87.88v2c0 .48.4.87.88.87" fill-rule="evenodd"/></g><g><path d="M60.88-71.12h2c.48 0 .87-.4.87-.87v-2c0-.48-.4-.88-.88-.88h-2c-.47 0-.87.4-.87.88v2c0 .48.4.87.88.87" fill="#fff" fill-rule="evenodd"/></g><g fill="#b8b8b8"><path d="M67.8-71.12h2c.49 0 .88-.4.88-.87v-2c0-.48-.4-.88-.88-.88h-2c-.47 0-.87.4-.87.88v2c0 .48.4.87.88.87" fill-rule="evenodd"/></g><g fill="#b8b8b8"><path d="M173.39-48.44h2c.48 0 .87-.4.87-.88v-2c0-.48-.4-.87-.87-.87h-2c-.48 0-.88.4-.88.87v2c0 .48.4.88.88.88" fill-rule="evenodd"/></g><g fill="#b8b8b8"><path d="M180.32-48.44h2c.48 0 .87-.4.87-.88v-2c0-.48-.4-.87-.87-.87h-2c-.48 0-.88.4-.88.87v2c0 .48.4.88.88.88" fill-rule="evenodd"/></g><g fill="#b8b8b8"><path d="M187.25-48.44h2c.48 0 .87-.4.87-.88v-2c0-.48-.4-.87-.87-.87h-2c-.48 0-.88.4-.88.87v2c0 .48.4.88.88.88" fill-rule="evenodd"/></g><g fill="#b8b8b8"><path d="M180.57-56h2c.48 0 .87-.4.87-.88v-2c0-.47-.4-.87-.87-.87h-2c-.48 0-.88.4-.88.88v2c0 .48.4.87.88.87" fill-rule="evenodd"/></g><path d="M-116.96-16.43c-.06.09-5.01-.54-5.05-.64-.04-.09 2.98-4.06 3.08-4.05.1.02 2.03 4.61 1.97 4.7z" fill="#fff"/><path d="M-130.05-27.69c-.06.08-5-.55-5.05-.64-.04-.1 2.98-4.06 3.08-4.05.1.01 2.03 4.61 1.97 4.7z" fill="#b8b8b8"/><path d="M-130.63-39.08c-.06.08-5-.55-5.05-.64-.04-.1 2.98-4.06 3.08-4.05.1.01 2.03 4.6 1.97 4.69z" fill="#fff"/><path d="M-113.63-32.95c-.06.08-5-.55-5.05-.64-.04-.1 2.98-4.07 3.08-4.05.1 0 2.03 4.6 1.97 4.69z" fill="#b8b8b8"/><circle r="1.68" cy="-27.4" cx="-121.98" fill="#fff"/><circle cx="-137.99" cy="-22.71" r="1.68" fill="#b8b8b8"/><path d="M53.08-5.96c-.06.08-5-.55-5.04-.64-.04-.1 2.97-4.07 3.08-4.05.1 0 2.03 4.6 1.96 4.69z" fill="#fff"/><path d="M39.2.52c-.06.08-5.01-.54-5.05-.64-.04-.1 2.98-4.06 3.08-4.05.1.02 2.03 4.61 1.97 4.7z" fill="#b8b8b8"/><path d="M57.01-17.19c-.06.08-5-.55-5.04-.64-.04-.1 2.97-4.06 3.07-4.05.1.01 2.03 4.61 1.97 4.7z" fill="#fff"/><path d="M60.3 4.27c-.06.08-5-.55-5.04-.64-.04-.1 2.97-4.06 3.07-4.05.1.01 2.03 4.61 1.97 4.7z" fill="#b8b8b8"/><circle cx="71.55" cy="-.57" r="1.68" fill="#fff"/><circle r="1.68" cy="-14.4" cx="65.55" fill="#b8b8b8"/><path d="M179.7 13.7c-.06.07-5-.55-5.04-.65-.04-.1 2.98-4.06 3.08-4.05.1.01 2.03 4.61 1.97 4.7zM159.26 9.46c-.07.08-5.01-.55-5.05-.64-.04-.1 2.98-4.07 3.08-4.05.1.01 2.03 4.6 1.97 4.69z" fill="#fff"/><path d="M178.23 1.25c-.06.08-5-.55-5.05-.64-.03-.1 2.98-4.07 3.08-4.05.1 0 2.03 4.6 1.97 4.69z" fill="#b8b8b8"/><circle r="1.68" cy="3.59" cx="184.18" fill="#fff"/><circle cx="168.17" cy="8.28" r="1.68" fill="#b8b8b8"/><circle cx="101.52" cy="-23.19" r="14.93" fill="url(#couch_aA)"/><circle r="1.68" cy="8.28" cx="168.17" fill="#b8b8b8"/><circle cx="159.1" cy="-7.78" r="1.68" fill="#b8b8b8"/></g></svg>