<svg xmlns="http://www.w3.org/2000/svg" xmlns:xlink="http://www.w3.org/1999/xlink" viewBox="0 0 295.16 190.58"><defs><clipPath clipPathUnits="userSpaceOnUse" id="everyone_bO"><path d="M387.03 295.94h8v-3.39h-8z"/></clipPath><clipPath clipPathUnits="userSpaceOnUse" id="everyone_bN"><path d="M384.7 320.55h11.8V303.6h-11.8z"/></clipPath><clipPath clipPathUnits="userSpaceOnUse" id="everyone_bM"><path d="M386.8 322.53h19.42v-20.07H386.8z"/></clipPath><clipPath clipPathUnits="userSpaceOnUse" id="everyone_bL"><path d="M388.9 317.4h16.43v-38.47h-16.42z"/></clipPath><clipPath clipPathUnits="userSpaceOnUse" id="everyone_bK"><path d="M375.83 315.25h14.36V281.1h-14.36z"/></clipPath><clipPath clipPathUnits="userSpaceOnUse" id="everyone_bJ"><path d="M383.97 293.19h14.11v-16.47h-14.1z"/></clipPath><clipPath clipPathUnits="userSpaceOnUse" id="everyone_bI"><path d="M384.17 287.63h5.21v-21.1h-5.2z"/></clipPath><clipPath clipPathUnits="userSpaceOnUse" id="everyone_bH"><path d="M396.08 287.3h2.2v-19.06h-2.2z"/></clipPath><clipPath clipPathUnits="userSpaceOnUse" id="everyone_bG"><path d="M401.94 293.78h11.1v-11.1h-11.1z"/></clipPath><clipPath clipPathUnits="userSpaceOnUse" id="everyone_bF"><path d="M369.02 293.78h11.1v-11.1h-11.1z"/></clipPath><clipPath clipPathUnits="userSpaceOnUse" id="everyone_bE"><path d="M374.12 324.82h14.22V287h-14.22z"/></clipPath><clipPath clipPathUnits="userSpaceOnUse" id="everyone_bD"><path d="M387.47 327.96h20.47v-44.1h-20.47z"/></clipPath><clipPath clipPathUnits="userSpaceOnUse" id="everyone_bC"><path d="M405.03 299.7h17.66v-26.47h-17.66z"/></clipPath><clipPath clipPathUnits="userSpaceOnUse" id="everyone_bB"><path d="M396.21 299.7h18.21V277.6h-18.2z"/></clipPath><clipPath clipPathUnits="userSpaceOnUse" id="everyone_bA"><path d="M359.37 299.71h26.48v-26.48h-26.48z"/></clipPath><clipPath clipPathUnits="userSpaceOnUse" id="everyone_bz"><path d="M418.42 364.47h20.53v-22.22h-20.53z"/></clipPath><clipPath clipPathUnits="userSpaceOnUse" id="everyone_by"><path d="M384.66 277.31h14.85v-10.76h-14.85z"/></clipPath><clipPath clipPathUnits="userSpaceOnUse" id="everyone_bx"><path d="M391.86 277.3h25.29v-61.09h-25.3z"/></clipPath><clipPath clipPathUnits="userSpaceOnUse" id="everyone_bw"><path d="M376.1 272.98h6.5v-27.55h-6.5z"/></clipPath><clipPath clipPathUnits="userSpaceOnUse" id="everyone_bv"><path d="M376.1 277.31h41.04v-61.1h-41.03z"/></clipPath><clipPath clipPathUnits="userSpaceOnUse" id="everyone_bu"><path d="M392.12 314.38h31.61v-46.01h-31.61z"/></clipPath><clipPath clipPathUnits="userSpaceOnUse" id="everyone_bt"><path d="M392.12 347.29h41.4v-90h-41.4z"/></clipPath><clipPath clipPathUnits="userSpaceOnUse" id="everyone_bs"><path d="M382.86 226.54h18.81v-13.56h-18.82z"/></clipPath><clipPath clipPathUnits="userSpaceOnUse" id="everyone_br"><path d="M328.6 225.79h64.27V112.04H328.6z"/></clipPath><clipPath clipPathUnits="userSpaceOnUse" id="everyone_bq"><path d="M385.66 222.77h17.51v-62.7h-17.51z"/></clipPath><clipPath clipPathUnits="userSpaceOnUse" id="everyone_bp"><path d="M390.48 223.13h19.4v-10.54h-19.4z"/></clipPath><clipPath clipPathUnits="userSpaceOnUse" id="everyone_bo"><path d="M384.7 108.76h13.51V78.67h-13.5z"/></clipPath><clipPath clipPathUnits="userSpaceOnUse" id="everyone_bn"><path d="M274 410.65h12.62v-20.33H274z"/></clipPath><clipPath clipPathUnits="userSpaceOnUse" id="everyone_bm"><path d="M281.26 393.92h4.44V378.8h-4.44z"/></clipPath><clipPath clipPathUnits="userSpaceOnUse" id="everyone_bl"><path d="M249.4 391.24h4.45v-15.12h-4.44z"/></clipPath><clipPath clipPathUnits="userSpaceOnUse" id="everyone_bk"><path d="M246.18 408.96h20.33v-20.34h-20.33z"/></clipPath><clipPath clipPathUnits="userSpaceOnUse" id="everyone_bj"><path d="M280.69 384.68h13.41v-13.41h-13.42z"/></clipPath><clipPath clipPathUnits="userSpaceOnUse" id="everyone_bi"><path d="M241.88 381.42h13.42V368h-13.42z"/></clipPath><clipPath clipPathUnits="userSpaceOnUse" id="everyone_bh"><path d="M263.68 382.24h7.75v-3.63h-7.75z"/></clipPath><clipPath clipPathUnits="userSpaceOnUse" id="everyone_bg"><path d="M250.92 397.88h15.73V364.1h-15.73z"/></clipPath><clipPath clipPathUnits="userSpaceOnUse" id="everyone_bf"><path d="M265.01 403.38h18.8v-40.09h-18.8z"/></clipPath><clipPath clipPathUnits="userSpaceOnUse" id="everyone_be"><path d="M275.69 369.43h45.34v-83.29H275.7z"/></clipPath><clipPath clipPathUnits="userSpaceOnUse" id="everyone_bd"><path d="M271.17 400.49h20.34v-20.34h-20.34z"/></clipPath><clipPath clipPathUnits="userSpaceOnUse" id="everyone_bc"><path d="M242.43 398.07h20.33v-20.34h-20.33z"/></clipPath><clipPath clipPathUnits="userSpaceOnUse" id="everyone_bb"><path d="M259.8 380.11h18.81V361.3h-18.8z"/></clipPath><clipPath clipPathUnits="userSpaceOnUse" id="everyone_ba"><path d="M259.83 373.32h12.92V350.5h-12.92z"/></clipPath><clipPath clipPathUnits="userSpaceOnUse" id="everyone_aZ"><path d="M259.83 380.11h20.22v-25.4h-20.22z"/></clipPath><clipPath clipPathUnits="userSpaceOnUse" id="everyone_aY"><path d="M264.58 369.43h21.98v-18.76h-21.98z"/></clipPath><clipPath clipPathUnits="userSpaceOnUse" id="everyone_aX"><path d="M254.3 362.5h44.2v-76.36h-44.2z"/></clipPath><clipPath clipPathUnits="userSpaceOnUse" id="everyone_aW"><path d="M326.5 440.15h20.54v-22.22h-20.53z"/></clipPath><clipPath clipPathUnits="userSpaceOnUse" id="everyone_aV"><path d="M279.07 387.45h23.65V358.2h-23.65z"/></clipPath><clipPath clipPathUnits="userSpaceOnUse" id="everyone_aU"><path d="M272.06 297.19h33.6v-13.65h-33.6z"/></clipPath><clipPath clipPathUnits="userSpaceOnUse" id="everyone_aT"><path d="M208.07 244.47h21.24V222.8h-21.24z"/></clipPath><clipPath clipPathUnits="userSpaceOnUse" id="everyone_aS"><path d="M287.53 299.55h29.8v-16.01h-29.8z"/></clipPath><clipPath clipPathUnits="userSpaceOnUse" id="everyone_aR"><path d="M260.24 296.79h42.72v-80.37h-42.72z"/></clipPath><clipPath clipPathUnits="userSpaceOnUse" id="everyone_aQ"><path d="M260.24 299.55h58.84v-86.99h-58.84z"/></clipPath><clipPath clipPathUnits="userSpaceOnUse" id="everyone_aP"><path d="M148.64 368.9h6.43v-3.4h-6.43z"/></clipPath><clipPath clipPathUnits="userSpaceOnUse" id="everyone_aO"><path d="M143.88 399.83h17.63V378h-17.63z"/></clipPath><clipPath clipPathUnits="userSpaceOnUse" id="everyone_aN"><path d="M153.98 401.98h21.29v-36.02h-21.29z"/></clipPath><clipPath clipPathUnits="userSpaceOnUse" id="everyone_aM"><path d="M164.6 367.6h14.59v-14.58h-14.6z"/></clipPath><clipPath clipPathUnits="userSpaceOnUse" id="everyone_aL"><path d="M123.5 377.78h14.58v-14.59H123.5z"/></clipPath><clipPath clipPathUnits="userSpaceOnUse" id="everyone_aK"><path d="M134.58 390.55h15.01v-35.47h-15z"/></clipPath><clipPath clipPathUnits="userSpaceOnUse" id="everyone_aJ"><path d="M149.15 394.5h22.54v-43.36h-22.54z"/></clipPath><clipPath clipPathUnits="userSpaceOnUse" id="everyone_aI"><path d="M140.04 369.32h18.54v-22.46h-18.54z"/></clipPath><clipPath clipPathUnits="userSpaceOnUse" id="everyone_aH"><path d="M138.06 363.82h7.55v-24.66h-7.55z"/></clipPath><clipPath clipPathUnits="userSpaceOnUse" id="everyone_aG"><path d="M141.74 369.32h16.84v-30.34h-16.84z"/></clipPath><clipPath clipPathUnits="userSpaceOnUse" id="everyone_aF"><path d="M132.3 396.9h20.62v-32.42H132.3z"/></clipPath><clipPath clipPathUnits="userSpaceOnUse" id="everyone_aE"><path d="M168.68 346.82h14.49v-8.86h-14.5z"/></clipPath><clipPath clipPathUnits="userSpaceOnUse" id="everyone_aD"><path d="M210.57 368.7h21.34v-22.23h-21.34z"/></clipPath><clipPath clipPathUnits="userSpaceOnUse" id="everyone_aC"><path d="M138.19 352.38h21.46v-15.15H138.2z"/></clipPath><clipPath clipPathUnits="userSpaceOnUse" id="everyone_aB"><path d="M105.66 352.2h36.63v-59.67h-36.63z"/></clipPath><clipPath clipPathUnits="userSpaceOnUse" id="everyone_aA"><path d="M136.07 352.48h26.4V287.8h-26.4z"/></clipPath><clipPath clipPathUnits="userSpaceOnUse" id="everyone_az"><path d="M108.56 298.69h32.62v-12.98h-32.62z"/></clipPath><clipPath clipPathUnits="userSpaceOnUse" id="everyone_ay"><path d="M50.05 298.69h77.66v-60.88H50.05z"/></clipPath><clipPath clipPathUnits="userSpaceOnUse" id="everyone_ax"><path d="M126.7 303.82h22.72v-19.34h-22.71z"/></clipPath><clipPath clipPathUnits="userSpaceOnUse" id="everyone_aw"><path d="M124.12 294.3h15.4v-41.43h-15.4z"/></clipPath><clipPath clipPathUnits="userSpaceOnUse" id="everyone_av"><path d="M124.1 303.82h45.65V155.88H124.1z"/></clipPath><clipPath clipPathUnits="userSpaceOnUse" id="everyone_au"><path d="M142.57 151.8h24.37v-27.82h-24.37z"/></clipPath><clipPath clipPathUnits="userSpaceOnUse" id="everyone_at"><path d="M143.95 155h24.39v-29.23h-24.4z"/></clipPath><clipPath clipPathUnits="userSpaceOnUse" id="everyone_as"><path d="M149.8 175.83h13.12V144.7H149.8z"/></clipPath><clipPath clipPathUnits="userSpaceOnUse" id="everyone_ar"><path d="M503.47 289.54h26.45v-83.27h-26.45z"/></clipPath><clipPath clipPathUnits="userSpaceOnUse" id="everyone_aq"><path d="M505.29 265.5h20.9v-61.18h-20.9z"/></clipPath><clipPath clipPathUnits="userSpaceOnUse" id="everyone_ap"><path d="M514.08 265.5h18.19v-94.15h-18.19z"/></clipPath><clipPath clipPathUnits="userSpaceOnUse" id="everyone_ao"><path d="M505.7 163.54h33.23v-14.22H505.7z"/></clipPath><clipPath clipPathUnits="userSpaceOnUse" id="everyone_an"><path d="M508.08 176.31h29.83v-23.18h-29.83z"/></clipPath><clipPath clipPathUnits="userSpaceOnUse" id="everyone_am"><path d="M515.94 182.52h8.11v-17.29h-8.1z"/></clipPath><clipPath clipPathUnits="userSpaceOnUse" id="everyone_al"><path d="M497.18 356.05v-.33a6.37 6.37 0 0112.74 0v.33z"/></clipPath><clipPath clipPathUnits="userSpaceOnUse" id="everyone_ak"><path d="M501.2 361.61h3.7v-2.8h-3.7z"/></clipPath><clipPath clipPathUnits="userSpaceOnUse" id="everyone_aj"><path d="M501.2 361.72h7v-3.22h-7z"/></clipPath><clipPath clipPathUnits="userSpaceOnUse" id="everyone_ai"><path d="M475.01 365.99h14.14v-14.14h-14.14z"/></clipPath><clipPath clipPathUnits="userSpaceOnUse" id="everyone_ah"><path d="M484.25 390.58h12.88v-17.72h-12.88z"/></clipPath><clipPath clipPathUnits="userSpaceOnUse" id="everyone_ag"><path d="M503.14 390.95h13.92v-18.46h-13.92z"/></clipPath><clipPath clipPathUnits="userSpaceOnUse" id="everyone_af"><path d="M499.44 385.67h18.85v-40.75h-18.85z"/></clipPath><clipPath clipPathUnits="userSpaceOnUse" id="everyone_ae"><path d="M485.74 385.67h18.06v-15.45h-18.06z"/></clipPath><clipPath clipPathUnits="userSpaceOnUse" id="everyone_ad"><path d="M483.82 383.99h19.44v-36.88h-19.44z"/></clipPath><clipPath clipPathUnits="userSpaceOnUse" id="everyone_ac"><path d="M502.33 361.72h7v-3.22h-7z"/></clipPath><clipPath clipPathUnits="userSpaceOnUse" id="everyone_ab"><path d="M487.48 354.94h18.12v-13.16h-18.12z"/></clipPath><clipPath clipPathUnits="userSpaceOnUse" id="everyone_aa"><path d="M512.1 364.63h11.41V353.2H512.1z"/></clipPath><clipPath clipPathUnits="userSpaceOnUse" id="everyone_Z"><path d="M503.66 391.5h19.56v-19.56h-19.56z"/></clipPath><clipPath clipPathUnits="userSpaceOnUse" id="everyone_Y"><path d="M485.38 385.67h36.8v-36.33h-36.8z"/></clipPath><clipPath clipPathUnits="userSpaceOnUse" id="everyone_X"><path d="M497.5 399h26.81v-49.66H497.5z"/></clipPath><clipPath clipPathUnits="userSpaceOnUse" id="everyone_W"><path d="M477.8 397.42h30.13v-46.45H477.8z"/></clipPath><clipPath clipPathUnits="userSpaceOnUse" id="everyone_V"><path d="M489.8 406.38h34.05v-42H489.8z"/></clipPath><clipPath clipPathUnits="userSpaceOnUse" id="everyone_U"><path d="M472.25 397.12h19.14v-24.44h-19.14z"/></clipPath><clipPath clipPathUnits="userSpaceOnUse" id="everyone_T"><path d="M476.83 402.25h19.89v-33.73h-19.9z"/></clipPath><clipPath clipPathUnits="userSpaceOnUse" id="everyone_S"><path d="M473.94 385.53h32.73v-22.97h-32.73z"/></clipPath><clipPath clipPathUnits="userSpaceOnUse" id="everyone_R"><path d="M570.2 348.34h23.03v-21.3h-23.02z"/></clipPath><clipPath clipPathUnits="userSpaceOnUse" id="everyone_Q"><path d="M453.13 346.9h32.65v-66.73h-32.65z"/></clipPath><clipPath clipPathUnits="userSpaceOnUse" id="everyone_P"><path d="M488.92 348.2h15.57v-11.5h-15.57z"/></clipPath><clipPath clipPathUnits="userSpaceOnUse" id="everyone_O"><path d="M454.94 348.25h50.94V276h-50.94z"/></clipPath><clipPath clipPathUnits="userSpaceOnUse" id="everyone_N"><path d="M458.22 297.8h36.12v-22.1h-36.12z"/></clipPath><clipPath clipPathUnits="userSpaceOnUse" id="everyone_M"><path d="M457.3 293.82h14.9v-29.84h-14.9z"/></clipPath><clipPath clipPathUnits="userSpaceOnUse" id="everyone_L"><path d="M457.38 297.8h36.96v-42.96h-36.96z"/></clipPath><clipPath clipPathUnits="userSpaceOnUse" id="everyone_K"><path d="M634.93 352.43h6.12v-2.9h-6.12z"/></clipPath><clipPath clipPathUnits="userSpaceOnUse" id="everyone_J"><path d="M649.74 355.52h11.88v-11.88h-11.88z"/></clipPath><clipPath clipPathUnits="userSpaceOnUse" id="everyone_I"><path d="M614.5 355.52h11.88v-11.88h-11.89z"/></clipPath><clipPath clipPathUnits="userSpaceOnUse" id="everyone_H"><path d="M629.44 394.27h9.54V379.6h-9.54z"/></clipPath><clipPath clipPathUnits="userSpaceOnUse" id="everyone_G"><path d="M624.38 374.62h13.22v-12.33h-13.22z"/></clipPath><clipPath clipPathUnits="userSpaceOnUse" id="everyone_F"><path d="M636.02 376.39h14.76V362.1h-14.76z"/></clipPath><clipPath clipPathUnits="userSpaceOnUse" id="everyone_E"><path d="M625.54 374.55h26.4V362.1h-26.4z"/></clipPath><clipPath clipPathUnits="userSpaceOnUse" id="everyone_D"><path d="M635.76 374.55h17.61v-41.19h-17.61z"/></clipPath><clipPath clipPathUnits="userSpaceOnUse" id="everyone_C"><path d="M621.79 371.68h13.46v-35.45H621.8z"/></clipPath><clipPath clipPathUnits="userSpaceOnUse" id="everyone_B"><path d="M630.72 348.95h15.1v-17.67h-15.1z"/></clipPath><clipPath clipPathUnits="userSpaceOnUse" id="everyone_A"><path d="M630.72 340.63h4.44v-20.2h-4.44z"/></clipPath><clipPath clipPathUnits="userSpaceOnUse" id="everyone_z"><path d="M630.78 348.95h15.05v-27.36h-15.05z"/></clipPath><clipPath clipPathUnits="userSpaceOnUse" id="everyone_y"><path d="M619.74 384.23h21.3v-43.98h-21.3z"/></clipPath><clipPath clipPathUnits="userSpaceOnUse" id="everyone_x"><path d="M635.93 385.85h20.02v-47.22h-20.02z"/></clipPath><clipPath clipPathUnits="userSpaceOnUse" id="everyone_w"><path d="M625.54 376.39h26.4v-14.3h-26.4z"/></clipPath><clipPath clipPathUnits="userSpaceOnUse" id="everyone_v"><path d="M650.84 372.81h65.07v-71.72h-65.07z"/></clipPath><clipPath clipPathUnits="userSpaceOnUse" id="everyone_u"><path d="M650.84 372.81h65.07v-71.72h-65.07z"/></clipPath><clipPath clipPathUnits="userSpaceOnUse" id="everyone_t"><path d="M630.52 338.6h19.93v-19.18h-19.93z"/></clipPath><clipPath clipPathUnits="userSpaceOnUse" id="everyone_s"><path d="M630.06 338.6h30.35v-76.09h-30.35z"/></clipPath><clipPath clipPathUnits="userSpaceOnUse" id="everyone_r"><path d="M607.9 338.61h52.5v-76.1h-52.5z"/></clipPath><clipPath clipPathUnits="userSpaceOnUse" id="everyone_q"><path d="M704.8 377.96H735v-17.95h-30.2z"/></clipPath><clipPath clipPathUnits="userSpaceOnUse" id="everyone_p"><path d="M614.98 235.42h56.2v-49.59h-56.2z"/></clipPath><clipPath clipPathUnits="userSpaceOnUse" id="everyone_o"><path d="M665.5 241.37h20.48v-29.52H665.5z"/></clipPath><clipPath clipPathUnits="userSpaceOnUse" id="everyone_n"><path d="M624.95 272.14h26.87v-12.2h-26.87z"/></clipPath><clipPath clipPathUnits="userSpaceOnUse" id="everyone_m"><path d="M607.06 235.33h46.18v-49.52h-46.18z"/></clipPath><clipPath clipPathUnits="userSpaceOnUse" id="everyone_l"><path d="M602.2 272.15h52.89V185.8h-52.9z"/></clipPath><clipPath clipPathUnits="userSpaceOnUse" id="everyone_k"><path d="M645.77 238.32h29.37v-22.97h-29.37z"/></clipPath><clipPath clipPathUnits="userSpaceOnUse" id="everyone_j"><path d="M611.79 276.93h29.04v-16.98H611.8z"/></clipPath><clipPath clipPathUnits="userSpaceOnUse" id="everyone_i"><path d="M590.6 240.22h68.07v-49.63h-68.06z"/></clipPath><clipPath clipPathUnits="userSpaceOnUse" id="everyone_h"><path d="M590.6 240.22h68.07v-49.63h-68.06z"/></clipPath><clipPath clipPathUnits="userSpaceOnUse" id="everyone_g"><path d="M656.2 234.26h16.73v-17.55H656.2z"/></clipPath><clipPath clipPathUnits="userSpaceOnUse" id="everyone_f"><path d="M652.46 245.7h20.47v-29.53h-20.47z"/></clipPath><clipPath clipPathUnits="userSpaceOnUse" id="everyone_e"><path d="M632.5 243.1h29.37v-22.97H632.5z"/></clipPath><clipPath clipPathUnits="userSpaceOnUse" id="everyone_d"><path d="M588.92 276.93h52.9V190.6h-52.9z"/></clipPath><clipPath clipPathUnits="userSpaceOnUse" id="everyone_c"><path d="M142.09 355.88h75.07v-39.07h-75.07z"/></clipPath><linearGradient xlink:href="#everyone_a" id="everyone_b" x1="2331.39" y1="296.1" x2="2461.24" y2="702.11" gradientUnits="userSpaceOnUse" gradientTransform="matrix(.3248 0 0 -.35278 -619.52 302.62)"/><linearGradient id="everyone_a"><stop offset="0" stop-color="#b6f9d9"/><stop offset="1" stop-color="#bcdeee"/></linearGradient></defs><g transform="translate(9.24 -18.77)"><path d="M76.88 18.77c-30.98 0-50.12 22.29-50.12 49.78.03 2.12.2 4.23.53 6.33a60 60 0 00-6.03 2.33 7.9 7.9 0 01-.23-1.27c-.05.45-.04.92.01 1.38-18.6 8.55-30.27 25.6-30.28 44.18.03 15.73 8.43 30.53 22.66 39.9a45.33 45.33 0 00-6.18 22.62c0 27.5 19.95 13.54 50.93 13.54 41.95.5 41.1 12.1 86.86 11.78 38.28 0 67.33-8.03 91.82-7.62 30.98 0 28.1-5.67 28.1-24.39-.28-25.9 20.49-16.97 20.97-38.93a45.52 45.52 0 00-7.27-24.38 45.08 45.08 0 004.83-20.12c0-27.5-13.9-49.79-44.89-49.79a62.17 62.17 0 00-22.8 4.37c-10.62-10.63-25.87-16.73-41.88-16.76-17.44.03-33.87 7.25-44.47 19.54-8.14-19.52-29.1-32.48-52.56-32.5z" fill="url(#everyone_b)"/><path d="M91.41 177.9c0 2.08 6.42 3.77 14.34 3.77s14.35-1.69 14.35-3.76c0-1.11-4.82-9.2-4.43-7.07.24 1.3-5.42 3.45-7.69 1.36-.69-.63-.64 4.75-2.35 4.08-1.04-.41.1-3.24-.74-2.92-2.86 1.08-3.32-49.82-4.3-50.29-1.74-.83-1.6 46.7-3.02 48.15-.77.79-1.99-18.33-3.13-17.23-1.58 1.51-3.03 23.23-3.03 23.92z" fill="#80ff80"/><path d="M221.42 185.38c0 3.71 7.39 6.72 16.5 6.72 9.1 0 16.5-3 16.5-6.72 0-1.98-5.54-16.46-5.1-12.63.27 2.32-6.23 6.16-8.84 2.43-.8-1.13-.73 8.5-2.7 7.29-1.2-.74.11-5.8-.86-5.22-3.29 1.93-3.81-89.08-4.95-89.92-2-1.48-1.82 83.51-3.46 86.1-.89 1.4-2.29-32.78-3.6-30.81-1.82 2.7-3.49 41.54-3.49 42.76z" fill="#95f"/><path d="M128.56 190.86c0 3.2 8.47 5.8 18.93 5.8 10.45 0 18.93-2.6 18.93-5.8 0-1.7-6.35-14.2-5.84-10.9.31 2-7.16 5.31-10.15 2.1-.91-.98-.84 7.33-3.1 6.29-1.37-.64.13-5-.99-4.5-3.77 1.66-4.37-76.86-5.67-77.59-2.3-1.28-2.1 72.06-3.98 74.3-1.02 1.2-2.62-28.3-4.14-26.6-2.08 2.33-4 35.85-4 36.9z" fill="#2ad4ff"/><ellipse ry="4.5" rx="20.27" cy="180.18" cx="187.65" fill="#f95"/><ellipse cx="104.42" cy="179.66" rx="19.56" ry="4.35" fill="#80ff80"/><path d="M199.86 174.54c0 3.55-7.07 6.43-15.78 6.43-8.72 0-15.79-2.88-15.79-6.43 0-1.9 5.3-15.75 4.87-12.08-.26 2.22 5.97 5.89 8.46 2.32.76-1.08.7 8.13 2.59 6.98 1.14-.7-.11-5.55.82-5 3.14 1.85 3.65-85.23 4.73-86.04 1.92-1.42 1.75 79.91 3.32 82.39.85 1.34 2.19-31.37 3.45-29.49 1.73 2.59 3.33 39.75 3.33 40.92z" fill="#f95"/><g clip-path="url(#everyone_c)" opacity=".5" transform="matrix(.35278 0 0 -.35278 10.18 211.37)"><path d="M154.52 344.92s19.98-1.48 26.6.07c1.41 2.23 3.38 2.83 4.65.95 3.52 1.83 21.17 10.28 26.34 9.93 5.16-.35 5.9-6.05 4.29-9.33-1.62-3.28-30.7-23.46-60.67-29.09-29.97-5.63-1.21 27.47-1.21 27.47" fill="#f56449"/></g><g clip-path="url(#everyone_d)" transform="matrix(.35278 0 0 -.35278 10.18 211.37)" opacity=".5" fill="#e8403e" fill-opacity=".92"><path d="M617.46 275.09s-36.73-46.93-26.85-76.26c3.08-9.16 10.39-9.77 18.98-6.26 0 0 35.66 36.52 31.95 63.37-3.7 26.86-20.68 21-24.08 19.15"/></g><path d="M233.31 132.36c.5 1.5 1.7 1.6 3.1 1.03 2.3-.94 5.15-3.67 6.46-5.01a2.7 2.7 0 00.79-2.16c-.04-.32-.13-.57-.32-.61-.37-.07-3.69 1.23-6.26 2.55a7.88 7.88 0 00-3.77 4.2" fill="#f8ad7d"/><g clip-path="url(#everyone_e)" transform="matrix(.35278 0 0 -.35278 10.18 211.37)" opacity=".5"><path d="M632.5 223.95c1.43-4.24 4.81-4.52 8.79-2.9 6.5 2.65 14.6 10.4 18.32 14.2a7.64 7.64 0 012.22 6.1c-.1.91-.35 1.64-.9 1.74-1.04.2-10.45-3.5-17.74-7.21a22.34 22.34 0 01-10.69-11.93" fill="#f56449"/></g><path d="M240.38 127.1c-.27-.28 1.47-2.51 2.4-2.4.92.1 2.4 1.41 2.45 2.5.87 1.36 2.18 4.3 2.34 6.64.16 2.35-5.06 1.37-4.57-2.4-1.1-.64-2.13-1.68-.93-2.33 1.2-.66-.33-1.9-.6-2.07-.27-.17-1.09.05-1.09.05" fill="#f56449"/><g clip-path="url(#everyone_f)" transform="matrix(.35278 0 0 -.35278 10.18 211.37)" opacity=".5"><path d="M652.54 238.9c-.77.76 4.17 7.1 6.8 6.78 2.62-.3 6.79-4 6.94-7.1 2.47-3.86 6.18-12.2 6.64-18.83.46-6.64-14.35-3.86-12.97 6.8-3.08 1.85-6.02 4.78-2.62 6.63 3.4 1.85-.93 5.4-1.7 5.87-.77.46-3.09-.16-3.09-.16" fill="#f56449"/></g><g clip-path="url(#everyone_g)" transform="matrix(.35278 0 0 -.35278 10.18 211.37)" opacity=".5"><path d="M672.92 219.75c-.33 4.73-2.3 10.29-4.3 14.51-.83-.85-1.5-1.7-1.78-2.3l-.09-.03c-.08.04-.16.11-.25.14-.89.24-4.85-.63-10.3-2.18.69-1.2 2.2-2.41 3.75-3.35-.68-5.27 2.6-8.6 6.04-9.83l1.59 1.3s3.1-1.04 3.68 1.73c.46-.45.98-.87 1.51-1.27.12.38.18.8.15 1.28" fill="#f56449"/></g><path d="M218.53 141.22c1.09 3.24 3.67 3.45 6.7 2.22 6.66-2.72 15.81-11.64 15.81-11.64s1.5-.22 1.5-1.42-1.14-3.53-2.34-3.75c-.79-.14-7.92 2.65-13.47 5.47a17.08 17.08 0 00-8.2 9.12" fill="#440908"/><g clip-path="url(#everyone_h)" transform="matrix(.35278 0 0 -.35278 10.18 211.37)" opacity=".5"><path d="M590.6 198.83c3.1-9.16 10.4-9.77 18.99-6.26 18.9 7.7 44.83 32.98 44.83 32.98s4.25.63 4.25 4.03c0 3.4-3.23 10-6.63 10.62-2.24.4-22.46-7.5-38.2-15.51a48.42 48.42 0 01-23.23-25.86" fill="#84211a"/></g><g clip-path="url(#everyone_i)" transform="matrix(.35278 0 0 -.35278 10.18 211.37)" opacity=".5"><path d="M590.6 198.83c3.1-9.16 10.4-9.77 18.99-6.26 18.9 7.7 44.83 32.98 44.83 32.98s4.25.63 4.25 4.03c0 3.4-3.23 10-6.63 10.62-2.24.4-22.46-7.5-38.2-15.51a48.42 48.42 0 01-23.23-25.86" fill="#606060"/></g><path d="M228 114.32s-12.95 16.56-9.47 26.9c1.09 3.24 3.67 3.45 6.7 2.21 0 0 12.58-12.88 11.27-22.35-1.3-9.48-7.3-7.4-8.5-6.76" fill="#ca3d3d"/><g clip-path="url(#everyone_j)" transform="matrix(.35278 0 0 -.35278 10.18 211.37)" opacity=".5"><path d="M617.46 275.09s-2.34-3-5.67-7.93c3.1-2.6 17.81-7.07 29.04-7.2-4.77 22.2-20.15 16.88-23.37 15.13" fill="#440908"/></g><path d="M238 134.05c.5 1.5 1.69 1.6 3.1 1.02 2.29-.93 5.15-3.67 6.46-5a2.7 2.7 0 00.78-2.16c-.03-.32-.12-.58-.32-.61-.36-.07-3.68 1.23-6.26 2.54a7.88 7.88 0 00-3.77 4.21" fill="#f8ad7d"/><g clip-path="url(#everyone_k)" transform="matrix(.35278 0 0 -.35278 10.18 211.37)" opacity=".5"><path d="M645.78 219.16c1.42-4.24 4.8-4.52 8.78-2.9 6.51 2.66 14.6 10.4 18.32 14.2a7.64 7.64 0 012.23 6.11c-.1.9-.35 1.64-.9 1.74-1.04.19-10.46-3.5-17.75-7.21a22.34 22.34 0 01-10.68-11.94" fill="#f56449"/></g><path d="M232.69 116.01s-12.96 16.56-9.48 26.9c1.1 3.24 3.67 3.45 6.7 2.21 0 0 12.58-12.88 11.27-22.36-1.3-9.47-7.3-7.4-8.5-6.75" fill="#440908"/><g clip-path="url(#everyone_l)" transform="matrix(.35278 0 0 -.35278 10.18 211.37)" opacity=".5" fill="#782121"><path d="M630.74 270.3s-36.74-46.92-26.86-76.25c3.09-9.17 10.4-9.77 18.98-6.27 0 0 35.66 36.52 31.96 63.38-3.7 26.86-20.69 21-24.08 19.14"/></g><g clip-path="url(#everyone_m)" transform="matrix(.35278 0 0 -.35278 10.18 211.37)" opacity=".5" fill="#280b0b"><path d="M653.24 235.33a310.18 310.18 0 01-26.1-15.45 48.43 48.43 0 01-20.08-28.4 13.3 13.3 0 014.16-5.29c3.3-.9 7.3-.18 11.64 1.6 0 0 23.54 24.1 30.38 47.54"/></g><g clip-path="url(#everyone_n)" transform="matrix(.35278 0 0 -.35278 10.18 211.37)" opacity=".5" fill="#280b0b"><path d="M651.57 262.2c.1.05.16.12.25.17-6.2 13.71-18.28 9.46-21.08 7.93 0 0-2.4-3.06-5.8-8.1 9.56-2.35 21.47-3.6 26.63 0"/></g><path d="M244.98 128.62c-.27-.27 1.47-2.5 2.4-2.4.92.11 2.4 1.42 2.45 2.5.87 1.37 2.18 4.3 2.34 6.65.16 2.34-5.06 1.36-4.57-2.4-1.1-.65-2.13-1.68-.93-2.34 1.2-.65-.33-1.9-.6-2.07-.27-.16-1.09.06-1.09.06" fill="#f56449"/><g clip-path="url(#everyone_o)" transform="matrix(.35278 0 0 -.35278 10.18 211.37)" opacity=".5"><path d="M665.59 234.57c-.77.77 4.17 7.1 6.8 6.8 2.61-.32 6.78-4.02 6.94-7.11 2.47-3.86 6.17-12.2 6.63-18.83.47-6.64-14.35-3.86-12.96 6.79-3.09 1.85-6.02 4.79-2.63 6.64 3.4 1.85-.92 5.4-1.7 5.86-.77.47-3.08-.15-3.08-.15" fill="#f56449"/></g><path d="M223.21 142.91c1.1 3.24 3.67 3.45 6.7 2.21 6.67-2.72 15.78-11.9 15.78-11.9s1.27.33 1.27-.87-.88-3.81-2.07-4.03c-.8-.14-7.93 2.65-13.48 5.47a17.08 17.08 0 00-8.2 9.12" fill="#a02c2c"/><g clip-path="url(#everyone_p)" transform="matrix(.35278 0 0 -.35278 10.18 211.37)" opacity=".5"><path d="M665.31 235.41c-.07.02-.22 0-.34 0a18.23 18.23 0 001.97-5.85c.35-3.38-3.31-2.84-3.31-2.84s-23.03-28.54-41.04-38.14a24.35 24.35 0 00-7.61-2.75c2.43.11 5.08.81 7.88 1.95 18.9 7.7 44.73 33.73 44.73 33.73s3.59-.91 3.59 2.48c0 3.4-2.47 10.8-5.87 11.42" fill="#84211a"/></g><path d="M233.48 122.55c-.34-2.42-.98-4.09-1.77-5.22-2.94 4.12-11.4 16.99-8.5 25.58.08.23.16.43.25.63 3.15-3.56 11.07-13.37 10.02-20.99" fill="#a02c2c"/><path d="M258.86 82.98c.3.89 2.09 1.08 3.99.43 1.9-.64 3.2-1.89 2.9-2.77-.3-.9-2.09-1.09-4-.44-1.9.65-3.2 1.9-2.9 2.78" fill="#f8ad7d"/><path d="M263.27 81.35l4.37-1.9a.74.74 0 00-.6-1.36l-4.36 1.9a.74.74 0 00.59 1.36" fill="#f8ad7d"/><path d="M264.2 81.72l4.67-.93a.74.74 0 00-.28-1.44l-4.67.92a.74.74 0 00.28 1.45" fill="#f8ad7d"/><path d="M263.22 82.16l4.75.18a.74.74 0 00.06-1.48l-4.76-.18a.74.74 0 00-.05 1.48M260.64 83.13l4.61 1.21a.74.74 0 10.38-1.43l-4.61-1.2a.74.74 0 00-.38 1.42" fill="#f8ad7d"/><g clip-path="url(#everyone_q)" transform="matrix(.35278 0 0 -.35278 10.18 211.37)" opacity=".5"><path d="M732.5 374.24l-3.7-.73 1 .44a2.1 2.1 0 01-1.66 3.84l-12-5.21c-.98-.18-1.98-.42-3-.77-5.4-1.83-9.07-5.35-8.22-7.87.77-2.27 5-2.92 9.78-1.67l8.34-2.19a2.1 2.1 0 111.06 4.05l-3.23.85c.53.35 1.02.72 1.45 1.1l8.44-.32a2.07 2.07 0 01.82 4.03l1.73.34a2.1 2.1 0 01-.81 4.1" fill="#f56449"/></g><path d="M219.36 73.2c-.88.32-2.14-.97-2.8-2.86-.67-1.9-.49-3.69.4-4 .88-.3 2.13.98 2.8 2.87.67 1.9.49 3.69-.4 4" fill="#f8ad7d"/><path d="M217.93 68.73l-1.2-4.6a.74.74 0 111.42-.38l1.2 4.6a.74.74 0 11-1.42.38" fill="#f8ad7d"/><path d="M217.06 68.23l-2.16-4.25a.74.74 0 011.32-.67l2.15 4.25a.74.74 0 11-1.31.67" fill="#f8ad7d"/><path d="M217.32 69.27l-3.08-3.63a.74.74 0 011.13-.95l3.08 3.63a.74.74 0 11-1.13.95M218.14 71.9l-3.8-2.88a.74.74 0 11.9-1.18l3.8 2.88a.74.74 0 11-.9 1.18" fill="#f8ad7d"/><path d="M234.54 91.94c-2.18-.21-4.8.66-7.95 6.54l-1.96 3.6s0 3.91 1.96 2.93c-1.42 4.9-.1 10.9-.1 10.9s-1.2.1-.77 1.2c.43 1.08 11.43 2.93 14.37.32 2.18-1.53-.32-6.86-.32-6.86s5.33-10.46 2.61-14.7c-2.72-4.25-7.84-3.93-7.84-3.93" fill="#fff"/><g clip-path="url(#everyone_r)" transform="matrix(.35278 0 0 -.35278 10.18 211.37)" opacity=".5"><path d="M635.99 338.53c-6.18.61-13.59-1.86-22.54-18.53l-5.56-10.18s0-11.12 5.56-8.34c-4.01-13.9-.3-30.87-.3-30.87s-3.4-.31-2.17-3.4c1.24-3.08 32.42-8.33 40.75-.92 6.18 4.32-.93 19.45-.93 19.45s15.13 29.63 7.41 41.67C650.5 339.45 636 338.53 636 338.53" fill="#cddae4"/></g><path d="M230.47 110.57s5.34-10.46 2.61-14.7a8.02 8.02 0 00-2.64-2.57c-1.18.98-2.46 2.6-3.85 5.18l-1.96 3.6s0 3.91 1.96 2.93c-1.42 4.9-.1 10.9-.1 10.9s-1.2.1-.77 1.2c.15.36 1.53.83 3.4 1.17.69-.2 1.26-.48 1.68-.85 2.17-1.53-.33-6.86-.33-6.86" fill="#fff"/><g clip-path="url(#everyone_s)" transform="matrix(.35278 0 0 -.35278 10.18 211.37)" opacity=".5"><path d="M658.21 327.41C650.5 339.45 636 338.53 636 338.53c-1.64.16-3.37.1-5.2-.39 4.94-.82 12.26-3.3 17.02-10.73 7.72-12.04-7.4-41.67-7.4-41.67s7.1-15.13.92-19.45c-2.35-2.08-6.5-3.17-11.27-3.58 8.6-.6 17.71.06 21.67 3.58 6.17 4.32-.93 19.45-.93 19.45s15.13 29.63 7.41 41.67" fill="#cddae4"/></g><g clip-path="url(#everyone_t)" transform="matrix(.35278 0 0 -.35278 10.18 211.37)" opacity=".5"><path d="M645.42 325.23l1.94 8.18c1.09.35 2.1.86 3.09 1.44-7.05 4.12-14.46 3.68-14.46 3.68a14.4 14.4 0 01-5.44-.46 15.9 15.9 0 011.94-1.91l-1.77-7.44a7.55 7.55 0 1114.7-3.49" fill="#cddae4"/></g><path d="M233.45 93.25s-6.75-12.3-7.51-12.74c.76-.98.1-.87-.33-.76 0-1.1-3.49-9.04-5.01-9.26-1.53-.22-4.68 1.09-3.05 5.77s10.02 22.98 10.02 22.98zM239.88 95l9.44-7.12s.25-1.27 1.12-.95c1.42-1.09 8.28-7.3 9.8-7.08 1.53.22 3.81 3.05 1.53 6.1-2.29 3.05-20.37 18.52-21.35 19.17-.98.66-.54-10.13-.54-10.13" fill="#fff"/><g clip-path="url(#everyone_u)" transform="matrix(.35278 0 0 -.35278 10.18 211.37)" opacity=".5"><path d="M651.11 329.88l26.79 20.16s.69 3.61 3.16 2.69c4.01 3.08 23.46 20.68 27.78 20.06 4.33-.61 10.8-8.64 4.33-17.28-6.49-8.65-57.73-52.49-60.51-54.34-2.78-1.85-1.55 28.71-1.55 28.71" fill="#cddae4"/></g><g clip-path="url(#everyone_v)" transform="matrix(.35278 0 0 -.35278 10.18 211.37)" opacity=".5"><path d="M651.11 329.88l26.79 20.16s.69 3.61 3.16 2.69c4.01 3.08 23.46 20.68 27.78 20.06 4.33-.61 10.8-8.64 4.33-17.28-6.49-8.65-57.73-52.49-60.51-54.34-2.78-1.85-1.55 28.71-1.55 28.71" fill="#cddae4"/></g><path d="M235.2 91.9a6.39 6.39 0 01-6.4-6.38v-3.89a6.39 6.39 0 1112.78 0v3.9a6.39 6.39 0 01-6.39 6.38" fill="#55f"/><g clip-path="url(#everyone_w)" transform="matrix(.35278 0 0 -.35278 10.18 211.37)" opacity=".5" fill="#2a2aff"><path d="M638.74 376.39c-7.3 0-13.2-5.73-13.2-12.79 0-2 26.4-2 26.4 0 0 7.06-5.92 12.79-13.2 12.79"/></g><g clip-path="url(#everyone_x)" transform="matrix(.35278 0 0 -.35278 10.18 211.37)" opacity=".5" fill="#00002b"><path d="M637.84 385.85c-.64 0-1.28-.03-1.9-.1a18.1 18.1 0 0016.2-18v-11.02a18.1 18.1 0 00-16.2-18 18.1 18.1 0 0120.01 18v11.02c0 10-8.11 18.1-18.1 18.1"/></g><g clip-path="url(#everyone_y)" transform="matrix(.35278 0 0 -.35278 10.18 211.37)" opacity=".5" fill="#aaf"><path d="M630.39 384.23a18.1 18.1 0 01-10.65-16.48v-11.02a18.1 18.1 0 0110.65-16.48 18.1 18.1 0 0110.64 16.48v11.02a18.1 18.1 0 01-10.64 16.48"/></g><path d="M235.35 98.57a2.66 2.66 0 01-2.67-2.67v-4.97a2.66 2.66 0 015.33 0v4.97c0 1.47-1.2 2.67-2.66 2.67" fill="#f8ad7d"/><g clip-path="url(#everyone_z)" transform="matrix(.35278 0 0 -.35278 10.18 211.37)" opacity=".5"><path d="M638.27 348.95a7.53 7.53 0 01-7.5-6.96 7.48 7.48 0 004.9 1.84 7.55 7.55 0 007.55-7.55v-14.1c0-.2-.04-.39-.06-.59a7.5 7.5 0 012.67 5.71v14.1a7.55 7.55 0 01-7.56 7.55" fill="#f56449"/></g><g clip-path="url(#everyone_A)" transform="matrix(.35278 0 0 -.35278 10.18 211.37)" opacity=".2"><path d="M630.72 340.63V327.3a7.54 7.54 0 014.44-6.86v13.32a7.54 7.54 0 01-4.44 6.87" fill="#f8ad7d"/></g><g clip-path="url(#everyone_B)" transform="matrix(.35278 0 0 -.35278 10.18 211.37)" opacity=".5"><path d="M638.27 348.95a7.55 7.55 0 01-7.55-7.56v-6.09a15.7 15.7 0 0115.1-3.33v9.42a7.55 7.55 0 01-7.55 7.56" fill="#f56449"/></g><path d="M235.1 93.77a5.57 5.57 0 01-5.57-5.57v-3.4a5.57 5.57 0 0111.14 0v3.4c0 3.07-2.5 5.57-5.57 5.57" fill="#f8ad7d"/><g clip-path="url(#everyone_C)" transform="matrix(.35278 0 0 -.35278 10.18 211.37)" opacity=".2"><path d="M621.79 358.76v-9.6c0-5.36 2.66-10.07 6.73-12.93a15.76 15.76 0 016.73 12.92v9.61c0 5.35-2.66 10.07-6.73 12.92a15.76 15.76 0 01-6.73-12.92" fill="#f8ad7d"/></g><g clip-path="url(#everyone_D)" transform="matrix(.35278 0 0 -.35278 10.18 211.37)" opacity=".5"><path d="M637.58 374.55c-.62 0-1.22-.04-1.82-.11a15.79 15.79 0 0013.97-15.68v-9.6c0-8.11-6.1-14.78-13.97-15.69a15.8 15.8 0 0117.61 15.68v9.61a15.8 15.8 0 01-15.8 15.8" fill="#f56449"/></g><path d="M232.95 87.15a.45.45 0 01-.46-.45v-.91a.45.45 0 11.91 0v.9c0 .26-.2.46-.45.46M237.69 87.15a.46.46 0 01-.46-.45v-.91a.46.46 0 11.91 0v.9c0 .26-.2.46-.45.46" fill="#440908"/><path d="M232.61 88.78h5.33v.76a2.67 2.67 0 01-5.33 0z" fill="#703c40"/><path d="M233.06 88.78h4.43c0 .78-.64 1.42-1.42 1.42h-1.58c-.8 0-1.43-.64-1.43-1.42" fill="#fff"/><path d="M235.28 90.52c-.77 0-1.46.33-1.94.85a2.66 2.66 0 003.88 0 2.66 2.66 0 00-1.94-.85" fill="#ee6466"/><path d="M230.45 83.1c0-2.5 2.08-4.51 4.65-4.51a4.58 4.58 0 014.66 4.5c0 .71-9.31.71-9.31 0" fill="#55f"/><g clip-path="url(#everyone_E)" transform="matrix(.35278 0 0 -.35278 10.18 211.37)" opacity=".58" fill="#55f"><path d="M637.58 374.55c-3.3 0-6.35-1.01-8.88-2.74a12.44 12.44 0 01-3.16-8.2c0-2.01 26.4-2.01 26.4 0 0 .74-.1 1.46-.23 2.17a15.78 15.78 0 01-14.13 8.77"/></g><g clip-path="url(#everyone_F)" transform="matrix(.35278 0 0 -.35278 10.18 211.37)" opacity=".5" fill="navy"><path d="M637.58 376.39c-.53 0-1.04-.1-1.56-.16 6.54-.75 11.64-6.08 11.64-12.63 0-.92-5.6-1.41-11.64-1.49 7.08-.08 14.76.41 14.76 1.5 0 7.05-5.91 12.78-13.2 12.78"/></g><g clip-path="url(#everyone_G)" transform="matrix(.35278 0 0 -.35278 10.18 211.37)" opacity=".5" fill="#d5d5ff"><path d="M630.99 374.62a12.66 12.66 0 01-6.6-11.02c0-.65 2.82-1.09 6.6-1.31 3.79.22 6.61.66 6.61 1.31 0 4.73-2.67 8.8-6.61 11.02"/></g><path d="M237.92 74.87a2.84 2.84 0 11-5.69 0 2.84 2.84 0 015.69 0" fill="#55f"/><g clip-path="url(#everyone_H)" transform="matrix(.35278 0 0 -.35278 10.18 211.37)" opacity=".5" fill="#aaf"><path d="M634.21 394.27a8.05 8.05 0 010-14.68 8.05 8.05 0 010 14.68"/></g><path d="M231.15 88.04a2.1 2.1 0 11-4.2 0 2.1 2.1 0 014.2 0" fill="#f8ad7d"/><path d="M228.42 86.87c.37-.08.79.06 1.06.34.28.28.42.7.34 1.06a1.73 1.73 0 00-1.4-1.4" fill="#f56449"/><g clip-path="url(#everyone_I)" transform="matrix(.35278 0 0 -.35278 10.18 211.37)" opacity=".2"><path d="M626.38 349.58a5.94 5.94 0 10-11.89 0 5.94 5.94 0 0011.89 0" fill="#f8ad7d"/></g><path d="M239.39 88.04a2.1 2.1 0 104.2 0 2.1 2.1 0 00-4.2 0" fill="#f8ad7d"/><path d="M242.12 86.87a1.72 1.72 0 00-1.4 1.4c-.08-.37.06-.78.34-1.06.27-.28.69-.42 1.06-.34" fill="#f56449"/><g clip-path="url(#everyone_J)" transform="matrix(.35278 0 0 -.35278 10.18 211.37)" opacity=".5"><path d="M649.74 349.58a5.94 5.94 0 1111.88 0 5.94 5.94 0 01-11.88 0" fill="#f56449"/></g><g clip-path="url(#everyone_K)" transform="matrix(.35278 0 0 -.35278 10.18 211.37)" opacity=".5"><path d="M638.15 349.52h-.32a2.9 2.9 0 00-2.9 2.9h6.12c0-1.6-1.3-2.9-2.9-2.9" fill="#f8ad7d"/></g><path d="M183.86 90.18s-6.63-4.08-8.49-5.52c.28-.95-.66-1.22-1.32-.82-.76-1.07-8.01-10.91-8.91-13.09-.9-2.17-3.93.94-2.02 5.77 1.9 4.82 7.92 16.34 13.45 21.06 5.53 4.72 7.3-7.4 7.3-7.4" fill="#fa8363"/><path d="M163.57 72c-1.22.42-2.64-.53-3.2-2.13-.55-1.6-.02-3.22 1.2-3.64 1.2-.42 2.64.53 3.19 2.12.55 1.6.02 3.23-1.2 3.65" fill="#84211a"/><path d="M163.86 69.2l1.08-2a.67.67 0 011.18.64l-1.09 2a.67.67 0 01-1.17-.64M163.13 67.87l-.83-3.52a.67.67 0 111.3-.31l.83 3.51a.67.67 0 11-1.3.32" fill="#84211a"/><path d="M162.1 68l-1.74-3.15a.67.67 0 111.16-.66l1.76 3.16a.67.67 0 01-1.17.66" fill="#84211a"/><path d="M161.58 68.5l-2.6-2.5a.67.67 0 11.92-.98l2.6 2.51a.67.67 0 01-.92.97" fill="#84211a"/><path d="M161.19 69.58l-2.65-1.83a.6.6 0 11.67-.98l2.65 1.83a.6.6 0 01-.67.98M172.31 109.14s-1.02 9.36-.85 11.57c.17 2.22 6.3-.85 8.5-3.23 2.22-2.38 4.26-8.34 4.6-10.55.34-2.21-12.25 2.21-12.25 2.21" fill="#84211a"/><g clip-path="url(#everyone_L)" transform="matrix(.35278 0 0 -.35278 10.18 211.37)" opacity=".5"><path d="M476.42 295.02c2.35.05 3.77-.43 3.57-1.75-.97-6.27-6.76-23.15-13.03-29.9-2.21-2.4-5.82-5.01-9.58-7.14 1.89-4.7 17.93 3.46 23.92 9.9 6.27 6.76 12.06 23.65 13.02 29.92.5 3.24-8.8 1.45-17.9-1.03" fill="#84211a"/></g><g clip-path="url(#everyone_M)" transform="matrix(.35278 0 0 -.35278 10.18 211.37)" opacity=".5"><path d="M457.3 263.98a26.4 26.4 0 012.32 2.16c5.64 6.07 10.88 20.3 12.58 27.68-6.84-2.01-12.61-4.04-12.61-4.04s-1.71-15.7-2.28-25.8" fill="#84211a"/></g><g clip-path="url(#everyone_N)" transform="matrix(.35278 0 0 -.35278 10.18 211.37)" opacity=".5"><path d="M458.22 275.97c6.68-.94 20.62.66 30.7 3.18 2.8 6.53 4.86 13.38 5.4 16.9.97 6.27-34.73-6.27-34.73-6.27s-.71-6.5-1.37-13.81" fill="#84211a"/></g><path d="M186.4 90.43s7.35 3.3 10.04 3.67c.73-.61 1.59-.25 1.96.49.36.73 13.2-2.33 14.55-1.23 1.35 1.1 0 3.43-3.05 5.02-3.06 1.59-18.23 4.77-23.13 3.18-4.89-1.6-.36-11.13-.36-11.13" fill="#f0462f" fill-opacity=".94"/><path d="M188.45 91.73c-.82-1.96-2.29-2.28-3.6-2.93-1.95-.98-6.03.32-9.45 7.17-3.43 6.85-7.18 17.3-4.4 17.95 2.77.65 14.02-2.61 15.16-4.57 1.14-1.96 3.1-15.66 2.29-17.62" fill="#f56449"/><g clip-path="url(#everyone_O)" transform="matrix(.35278 0 0 -.35278 10.18 211.37)" opacity=".5" fill="#f00000" fill-opacity="0"><path d="M505.33 339.13c-2.31 5.55-6.48 6.47-10.18 8.32-2.24 1.12-5.49 1.16-9.19-.46 3.44-1.58 7.09-2.8 9.2-7.86 2.3-5.55-3.24-44.4-6.48-49.94-2.45-4.2-21.3-10.5-33.74-12.53.28-.19.57-.34.91-.42 7.86-1.85 39.77 7.4 43 12.95 3.24 5.55 8.79 44.39 6.48 49.94" fill="none"/></g><g clip-path="url(#everyone_P)" transform="matrix(.35278 0 0 -.35278 10.18 211.37)" opacity=".5"><path d="M495.15 347.45c-1.5.75-3.45.95-5.67.57a8.2 8.2 0 01-.56-2.4c2.44-1.23 4.73-2.88 6.23-6.5.21-.5.36-1.28.45-2.28 2.65-.5 5.5.32 7.48 2.44l1.41 1.5c-2.4 4.09-6.04 5.02-9.34 6.67" fill="#f56449"/></g><g clip-path="url(#everyone_Q)" transform="matrix(.35278 0 0 -.35278 10.18 211.37)" fill="#fa8363"><path d="M453.26 280.17c11.34 3.43 21.8 7.89 23.76 11.26 3.35 5.74 8.67 39.94 8.76 55.48-5.39-2.43-11.73-8.38-17.44-19.8-6.98-13.95-14.42-33.14-15.16-43.53l-.01-.28c-.02-.3-.04-.6-.04-.89 0-.8.04-1.56.13-2.24"/></g><path d="M211.68 95.18c.75 1.04 2.46 1.09 3.83.1 1.37-.98 1.87-2.63 1.13-3.67-.75-1.04-2.47-1.08-3.84-.1-1.37.99-1.87 2.63-1.12 3.67" fill="#84211a"/><path d="M213.05 92.73l.26-2.26a.67.67 0 00-1.33-.16l-.26 2.26a.67.67 0 001.33.16M214.4 92.05l2.71-2.4a.67.67 0 00-.88-1l-2.7 2.4a.67.67 0 00.88 1" fill="#84211a"/><path d="M215.16 92.76l3.26-1.58a.67.67 0 00-.58-1.2l-3.25 1.57a.67.67 0 00.57 1.2" fill="#84211a"/><path d="M215.31 93.46l3.58-.55a.67.67 0 00-.2-1.32l-3.57.55a.67.67 0 10.2 1.32" fill="#84211a"/><path d="M215.02 94.57l3.21.03a.6.6 0 00.02-1.19l-3.22-.03a.6.6 0 00-.01 1.2" fill="#84211a"/><g clip-path="url(#everyone_R)" transform="matrix(.35278 0 0 -.35278 10.18 211.37)" opacity=".5"><path d="M591.06 339.53l-4.64-.71 3.86 1.88a1.9 1.9 0 01-1.63 3.42l-5.85-2.84-.32.1 4.1 3.64a1.9 1.9 0 11-2.5 2.85l-7.66-6.8c-.09-.08-.13-.18-.2-.26-.22-.1-.44-.21-.67-.34l.26 2.24a1.9 1.9 0 11-3.76.43l-.75-6.4c0-.12.03-.23.03-.34-1.38-2.41-1.56-5.1-.15-7.05 2.12-2.95 6.99-3.08 10.87-.29.82.59 1.5 1.27 2.08 1.99l5.62-.05a1.69 1.69 0 11.05 3.37l-3.87.03c.05.18.08.35.11.52l5.57.86a1.9 1.9 0 11-.55 3.75" fill="#84211a"/></g><path d="M177.47 81.01c.58 2.06 3.59 3 6.72 2.12 3.14-.88 5.21-3.26 4.63-5.31-.58-2.06-3.59-3.01-6.72-2.13-3.14.89-5.2 3.27-4.63 5.32" fill="#440908"/><g clip-path="url(#everyone_S)" transform="matrix(.35278 0 0 -.35278 10.18 211.37)" opacity=".5"><path d="M474.22 369.52c1.64-5.83 10.17-8.53 19.06-6.02 8.88 2.5 14.75 9.25 13.11 15.07-1.64 5.83-10.17 8.53-19.05 6.02-8.89-2.5-14.76-9.25-13.12-15.07" fill="#440908"/></g><path d="M179.23 70.65c-2 3.14-.29 7.82 3.83 10.45 4.12 2.63 9.08 2.21 11.08-.93 2-3.13.3-7.81-3.82-10.44s-9.09-2.22-11.09.92" fill="#440908"/><g clip-path="url(#everyone_T)" transform="matrix(.35278 0 0 -.35278 10.18 211.37)" opacity=".5"><path d="M483.49 401.5c-.42.27-.86.5-1.29.75a14.81 14.81 0 01-3-3.37c-5.68-8.9-.82-22.16 10.85-29.6.43-.28.86-.51 1.3-.76 1.14.96 2.16 2.07 3 3.37 5.67 8.9.81 22.15-10.86 29.6" fill="#440908"/></g><path d="M176.9 77.64c.74 2.63 4.6 3.86 8.63 2.72 4.03-1.13 6.7-4.19 5.95-6.83-.74-2.64-4.61-3.86-8.64-2.72-4.02 1.13-6.68 4.19-5.94 6.83" fill="#440908"/><g clip-path="url(#everyone_U)" transform="matrix(.35278 0 0 -.35278 10.18 211.37)" opacity=".5"><path d="M491.03 390.72c-.76 2.7-2.69 4.87-5.36 6.4-9.24-3.88-14.93-11.42-13.07-18.04.76-2.7 2.69-4.87 5.37-6.4 9.23 3.88 14.93 11.42 13.06 18.04" fill="#440908"/></g><g clip-path="url(#everyone_V)" transform="matrix(.35278 0 0 -.35278 10.18 211.37)" opacity=".5"><path d="M510.63 401.5c-6.86 4.37-14.52 5.75-20.84 4.36a31.4 31.4 0 0010.78-4.37c11.67-7.45 16.53-20.7 10.85-29.6-2.35-3.68-6.14-6.01-10.59-6.99 8.53-1.68 16.66.74 20.65 6.99 5.68 8.9.82 22.15-10.85 29.6" fill="#440908"/></g><path d="M178.75 80c.31 4.62 3.97 8.13 8.19 8.13 4.22 0 7.87-3.5 8.18-8.14.34-5-3.32-9.38-8.18-9.38-4.87 0-8.52 4.37-8.19 9.38" fill="#440908"/><g clip-path="url(#everyone_W)" transform="matrix(.35278 0 0 -.35278 10.18 211.37)" opacity=".5"><path d="M492.86 397.42c-9.46-3.76-15.75-13.81-15-25.01.66-10 6.83-18.12 15-21.44 8.18 3.32 14.34 11.45 15 21.44.75 11.2-5.54 21.25-15 25" fill="#440908"/></g><g clip-path="url(#everyone_X)" transform="matrix(.35278 0 0 -.35278 10.18 211.37)" opacity=".5"><path d="M501.05 399c-1.21 0-2.4-.12-3.55-.31 11.97-1.92 20.5-13.33 19.64-26.28-.79-11.8-9.25-21-19.64-22.74a21.4 21.4 0 013.55-.33c11.96 0 22.32 9.94 23.2 23.07.95 14.2-9.4 26.6-23.2 26.6" fill="#440908"/></g><g clip-path="url(#everyone_Y)" transform="matrix(.35278 0 0 -.35278 10.18 211.37)" opacity=".5"><path d="M522.17 363.84a5.7 5.7 0 01-2.4.74c.05.67.08 1.34.08 2.02 0 11.98-7.72 19.07-17.24 19.07-9.51 0-17.23-7.1-17.23-19.07 0-5.25 1.48-10.06 3.95-13.8a22 22 0 0111.72-3.46c9.17 0 17.39 5.86 21.12 14.5" fill="#440908"/></g><g clip-path="url(#everyone_Z)" transform="matrix(.35278 0 0 -.35278 10.18 211.37)" opacity=".5"><path d="M504.8 390.36c-2.53-2.53-.7-8.44 4.06-13.21 4.78-4.77 10.7-6.6 13.22-4.07 2.52 2.53.7 8.44-4.07 13.21-4.77 4.78-10.69 6.6-13.21 4.07" fill="#440908"/></g><path d="M190.83 84.75a2.01 2.01 0 104.03 0 2.01 2.01 0 00-4.03 0" fill="#84211a"/><g clip-path="url(#everyone_aa)" transform="matrix(.35278 0 0 -.35278 10.18 211.37)" opacity=".5"><path d="M512.1 358.92a5.7 5.7 0 1111.41 0 5.7 5.7 0 01-11.42 0" fill="#84211a"/></g><path d="M184.02 93.24a2.9 2.9 0 003.57-2.05l1.21-4.46-5.6-1.52-1.22 4.46a2.9 2.9 0 002.04 3.57" fill="#84211a"/><g clip-path="url(#everyone_ab)" transform="matrix(.35278 0 0 -.35278 10.18 211.37)" opacity=".5"><path d="M503.47 342.77a14.54 14.54 0 00-8.96-.5 14.42 14.42 0 00-7.03 4.44l2.23 8.23 15.9-4.31z" fill="#84211a"/></g><path d="M180.86 82.04c0 4.22 2.72 7.65 6.08 7.65s6.08-3.43 6.08-7.65c0-4.23-2.72-6.73-6.08-6.73s-6.08 2.5-6.08 6.73" fill="#84211a"/><g clip-path="url(#everyone_ac)" transform="matrix(.35278 0 0 -.35278 10.18 211.37)" opacity=".5"><path d="M502.33 360.78c0-1.26 1.57-2.28 3.5-2.28 1.94 0 3.5 1.02 3.5 2.28 0 1.25-7 1.25-7 0" fill="#84211a"/></g><g clip-path="url(#everyone_ad)" transform="matrix(.35278 0 0 -.35278 10.18 211.37)" opacity=".5"><path d="M493.54 383.99c-5.75-2.75-9.72-8.8-9.72-17.39 0-8.58 3.97-15.97 9.72-19.49 5.75 3.52 9.72 10.91 9.72 19.5 0 8.57-3.97 14.63-9.72 17.38" fill="#84211a"/></g><g clip-path="url(#everyone_ae)" transform="matrix(.35278 0 0 -.35278 10.18 211.37)" opacity=".5"><path d="M501.05 385.67c-6.6 0-12.33-3.42-15.22-9.5-.3-2.25.13-4.13 1.44-5.16 2.82-2.2 8.47.33 12.62 5.65 2.32 2.96 3.64 6.15 3.9 8.78-.89.14-1.8.23-2.74.23" fill="#84211a"/></g><g clip-path="url(#everyone_af)" transform="matrix(.35278 0 0 -.35278 10.18 211.37)" opacity=".5"><path d="M501.05 385.67c-.54 0-1.08-.03-1.61-.08 8.75-.76 15.61-7.7 15.61-18.99s-6.86-20.55-15.61-21.58c.53-.06 1.07-.1 1.61-.1 9.52 0 17.24 9.7 17.24 21.68s-7.72 19.07-17.24 19.07" fill="#84211a"/></g><path d="M187.92 73.66c-.89.89-.25 2.98 1.44 4.66 1.68 1.68 3.77 2.32 4.66 1.43.89-.89.25-2.97-1.44-4.66-1.68-1.68-3.77-2.32-4.66-1.43" fill="#440908"/><path d="M187.5 73.66c.9.89.26 2.98-1.42 4.66-1.69 1.68-3.78 2.32-4.67 1.43-.89-.89-.25-2.97 1.44-4.66 1.68-1.68 3.77-2.32 4.66-1.43" fill="#440908"/><g clip-path="url(#everyone_ag)" transform="matrix(.35278 0 0 -.35278 10.18 211.37)" opacity=".5"><path d="M511.86 386.3a19.08 19.08 0 01-7.15 4.65 3.52 3.52 0 01-.87-.59c-.3-.3-.52-.65-.7-1.03.85-1.35.92-3.36.35-5.61a19.5 19.5 0 014.42-6.57 19.07 19.07 0 017.15-4.66c.31.17.61.34.86.59 2.53 2.53.7 8.44-4.06 13.21" fill="#440908"/></g><g clip-path="url(#everyone_ah)" transform="matrix(.35278 0 0 -.35278 10.18 211.37)" opacity=".5"><path d="M485.4 373.08c.08-.1.21-.14.31-.22 2.06.86 4.23 2.3 6.22 4.29 4.77 4.77 6.6 10.69 4.07 13.21-.1.1-.22.14-.33.22a19.83 19.83 0 01-6.21-4.29c-4.77-4.77-6.6-10.68-4.07-13.21" fill="#440908"/></g><path d="M182.74 84.75a2.5 2.5 0 11-4.99 0 2.5 2.5 0 014.99 0" fill="#84211a"/><path d="M179.5 83.36c.43-.1.93.07 1.26.4.33.33.5.82.4 1.26-.1-.43-.29-.8-.57-1.1a2.16 2.16 0 00-1.1-.56" fill="#5f140f"/><g clip-path="url(#everyone_ai)" transform="matrix(.35278 0 0 -.35278 10.18 211.37)" opacity=".5"><path d="M489.15 358.92a7.07 7.07 0 10-14.14 0 7.07 7.07 0 0014.14 0" fill="#84211a"/></g><path d="M187 84.1c0 .44.54.8 1.23.8.68 0 1.23-.36 1.23-.8 0-.45-2.47-.45-2.47 0" fill="#84211a"/><g clip-path="url(#everyone_aj)" transform="matrix(.35278 0 0 -.35278 10.18 211.37)" opacity=".5"><path d="M501.2 360.78c0-1.26 1.57-2.28 3.5-2.28 1.94 0 3.5 1.02 3.5 2.28 0 1.25-7 1.25-7 0" fill="#84211a"/></g><g clip-path="url(#everyone_ak)" transform="matrix(.35278 0 0 -.35278 10.18 211.37)" opacity=".5"><path d="M503.05 361.61c-1.05-.14-1.85-.41-1.85-.83 0-.86.77-1.58 1.85-1.97 1.08.39 1.85 1.1 1.85 1.97 0 .42-.8.7-1.85.83" fill="#84211a"/></g><path d="M187.82 88.13c1.24 0 2.25-1 2.25-2.25v-.12h-4.5v.12c0 1.24 1 2.25 2.25 2.25" fill="#5f140f"/><g clip-path="url(#everyone_al)" transform="matrix(.35278 0 0 -.35278 10.18 211.37)"><path d="M497.74 349.54a3.1 3.1 0 116.2 0 3.1 3.1 0 01-6.2 0" fill="#ee6466"/><path d="M501.08 353.48h4.94c1.32 0 2.4 1.07 2.4 2.4v1.4h-9.73v-1.4a2.4 2.4 0 012.39-2.4" fill="#f7ffff"/></g><path d="M190.51 83.53c.29 0 .52-.23.52-.51v-.86a.51.51 0 10-1.03 0v.86c0 .28.23.5.51.5M185.2 83.53c.28 0 .5-.23.5-.51v-.86a.51.51 0 10-1.02 0v.86c0 .28.23.5.52.5" fill="#440908"/><path d="M192.2 153.06l2.8.02.05-6.08-2.81-.02z" fill="#84211a"/><g clip-path="url(#everyone_am)" opacity=".5" transform="matrix(.35278 0 0 -.35278 10.18 211.37)"><path d="M515.94 165.3l7.98-.07.13 17.23-7.97.06z" fill="#84211a"/></g><path d="M192.57 151.17s.69-1.02.34-1.52c-.35-.5-1.57-1.09-1.8.99-.56.67-2.09 2-1.6 3.24l10.32 3.47s.94-3.17-2.69-3.27c-.77-.9-1.08-1.52-1.6-1.62.91-1.32-.15-2.37-1.46-1.04-.48.4-1.3-.22-1.3-.22z" fill="#f56449"/><g clip-path="url(#everyone_an)" opacity=".5" transform="matrix(.35278 0 0 -.35278 10.18 211.37)"><path d="M517.02 170.64s1.95 2.89.96 4.32c-.98 1.42-4.45 3.08-5.08-2.8-1.61-1.9-5.94-5.7-4.56-9.21l29.27-9.82s2.65 8.98-7.63 9.26c-2.18 2.57-3.06 4.32-4.56 4.58 2.6 3.76-.42 6.73-4.12 2.97-1.35-1.13-3.7.63-3.7.63z" fill="#f56449"/></g><path d="M189.13 155.26l10.1 3.39a.82.82 0 00.51-1.55l-10.09-3.38a.82.82 0 00-.52 1.54" fill="#fff"/><g clip-path="url(#everyone_ao)" opacity=".5" transform="matrix(.35278 0 0 -.35278 10.18 211.37)"><path d="M507.28 159.04l28.6-9.6a2.31 2.31 0 011.47 4.38l-28.6 9.6a2.31 2.31 0 01-1.47-4.38" fill="#cddae4"/></g><path d="M184.3 141.03c.64.34 1.43.1 1.77-.54l1.42-2.66a1.3 1.3 0 00-2.3-1.23l-1.42 2.67a1.3 1.3 0 00.54 1.76" fill="#84211a"/><path d="M184.28 139.03s1-.54.93-1.1c-.07-.56-.82-1.56-1.9.04-.75.3-2.57.75-2.7 1.98l6.98 7.26s2.12-2.2-.8-3.83c-.25-1.07-.24-1.71-.63-2.01 1.32-.7.9-2.01-.75-1.49-.56.13-.97-.74-.97-.74z" fill="#f56449"/><path d="M179.7 140.92l6.83 7.1a.75.75 0 101.09-1.04l-6.83-7.1a.75.75 0 00-1.08 1.04" fill="#fff"/><path d="M191.79 117.7c6 1.72 6.85 20 5.75 28.19-1.1 8.2-5.38 4.12-5.75 3.26-.37-.86-4.9-11.62-2.81-20.19a509.53 509.53 0 012.81-11.25" fill="#6161d4"/><g clip-path="url(#everyone_ap)" opacity=".5" transform="matrix(.35278 0 0 -.35278 10.18 211.37)" fill="#2c2ca0"><path d="M514.8 265.5l-.15-.59c9.54-16.17 10.66-53.71 8.13-72.53-1.53-11.37-5.2-14.4-8.7-14.25.35-.88.61-1.5.73-1.76 1.04-2.43 13.17-13.99 16.3 9.24 3.11 23.24.69 75.03-16.3 79.88"/></g><g clip-path="url(#everyone_aq)" opacity=".5" transform="matrix(.35278 0 0 -.35278 10.18 211.37)" fill="#00002b"><path d="M514.8 265.5s-2.07-7.64-7.97-31.91c-2.3-9.49-1.74-19.92-.15-29.27 1.5.7 2.96 1.8 4.34 3.44 2.63 3.1 11.27 22.92 15.18 43.3-2.7 7.56-6.42 13.01-11.4 14.43"/></g><path d="M175.76 115.5c-5.87 2.45-8.55 12.83.13 14.56 4.68.94 10.64-7.1 10.64-7.1s.04 1.56.9.58c-2.94 4.65-4.45 13.5-2.98 14.6 1.47 1.1 3.16 1.06 4.75-.53 1.59-1.6 9.6-17.19 7.6-26.14-1.2-5.44-11.9.23-21.04 4.04" fill="#6b6bff"/><g clip-path="url(#everyone_ar)" opacity=".5" transform="matrix(.35278 0 0 -.35278 10.18 211.37)" fill="#2c2ca0"><path d="M529.02 283.18c-1.57 7.04-8.74 7.5-18.53 4.92 5.24-.31 8.83-2.55 9.97-7.66 4.84-21.68-7.43-54.7-17-74.17 1.35.6 2.69 1.5 4 2.81 4.51 4.5 27.22 48.72 21.56 74.1"/></g><path d="M67.34 155.4c-1.76 8.22-3.97 3.77-4.24 3.34-.26-.43.19-9.02.19-9.02-.52-.03 5.81-2.53 4.05 5.69" fill="#f8ad7d"/><g clip-path="url(#everyone_as)" opacity=".5" transform="matrix(.35278 0 0 -.35278 10.18 211.37)"><path d="M162.04 158.64c-4.99-23.3-11.26-10.66-12.01-9.46-.75 1.2.52 25.57.52 25.57-1.48.1 16.49 7.18 11.5-16.11" fill="#f56449"/></g><path d="M63.28 149.92c-.06 1.17-.37 7.58-.21 8.67.32-.75.63-1.78.93-3.18.68-3.18.15-4.75-.72-5.49" fill="#f8ad7d"/><path d="M62.84 156.69s-.81-.06-1.35.59l-.53.65s7.16 9.25 8.08 9.07c.92-.2.75-2.74-1.58-4.34-.2-1.94-.43-4.08-.8-4.34-.38-.27-1.69.24-1.69.24z" fill="#440908"/><g clip-path="url(#everyone_at)" opacity=".5" transform="matrix(.35278 0 0 -.35278 10.18 211.37)"><path d="M149.27 155s-2.3.18-3.81-1.67l-1.51-1.85s20.3-26.23 22.91-25.7c2.61.53 2.12 7.77-4.49 12.28-.58 5.5-1.2 11.57-2.27 12.32s-4.78-.69-4.78-.69z" fill="#440908"/></g><path d="M68.9 167.5a.51.51 0 01-.73-.05l-7.57-8.79a.51.51 0 11.77-.66l7.58 8.79c.18.21.16.53-.06.72" fill="#fff"/><g clip-path="url(#everyone_au)" opacity=".5" transform="matrix(.35278 0 0 -.35278 10.18 211.37)"><path d="M166.43 124.33a1.45 1.45 0 00-2.04.16l-21.47 24.91a1.45 1.45 0 102.2 1.89l21.47-24.92c.52-.6.45-1.52-.16-2.04" fill="#cddae4"/></g><path d="M61.84 108.35s8.49 19.83 8.22 37.08c-.28 17.24-6.5 9.15-7.2 8.4-.7-.75-3.24-18.23-3.24-18.23-1.06.14-1.33-1.03-.64-1.24-1.51-3.3-7.36-13.96-4-25 3.38-11.02 6.86-1 6.86-1" fill="#440908"/><g clip-path="url(#everyone_av)" opacity=".5" transform="matrix(.35278 0 0 -.35278 10.18 211.37)" fill="#892ca0"><path d="M146.43 292.01s24.07-56.2 23.3-105.09c-.77-48.88-18.44-25.95-20.42-23.82-1.98 2.13-9.15 51.68-9.15 51.68-3.02-.4-3.79 2.91-1.82 3.51-4.3 9.33-20.87 39.57-11.32 70.84 9.56 31.27 19.41 2.88 19.41 2.88"/></g><path d="M58.98 134.36c-.7.21-.42 1.38.64 1.24 0 0 1.62 11.15 2.62 16.02.28-1.56.46-3.58.5-6.2.23-14.84-6.03-31.6-7.77-35.97-3.32 11 2.5 21.63 4.01 24.91" fill="#782167"/><g clip-path="url(#everyone_aw)" opacity=".5" transform="matrix(.35278 0 0 -.35278 10.18 211.37)"><path d="M127.02 289.13c-3.88-12.71-3.42-25.23-1.24-36.26 4.95 10.75 9.6 24.18 13.73 40.8l-10.7.62c-.6-1.5-1.2-3.21-1.79-5.16" fill="#440908"/></g><g clip-path="url(#everyone_ax)" opacity=".5" transform="matrix(.35278 0 0 -.35278 10.18 211.37)"><path d="M126.7 287.9c9.14-2.1 18.93-3.4 22.72-3.42-1.81 4.8-2.99 7.53-2.99 7.53s-9.85 28.4-19.4-2.88c-.13-.41-.2-.82-.32-1.23" fill="#440908"/></g><path d="M27.63 119.03c-3.99-6.37.2-4.89.64-4.78.44.1 5.5 5.9 5.5 5.9.36-.3-2.16 5.25-6.14-1.12" fill="#f8ad7d"/><path d="M29.31 115.22s.1-1.24-.38-1.82l-.48-.59s-9.68 4.6-9.68 5.45c0 .84 2.55 1.15 4.36-.6 1.74.16 3.66.36 3.96.07.3-.28.09-1.52.09-1.52z" fill="#440908"/><path d="M18.35 118.03a.46.46 0 01.18-.62l9.35-5.05a.46.46 0 11.44.8l-9.35 5.05a.46.46 0 01-.62-.18" fill="#fff"/><path d="M27.88 184.45c0 4.26 8.47 7.72 18.93 7.72 10.46 0 18.93-3.46 18.93-7.72 0-2.27-6.35-18.89-5.84-14.49.31 2.66-7.16 7.06-10.15 2.79-.91-1.3-.84 9.75-3.1 8.36-1.37-.84.13-6.65-.99-5.99C41.9 177.34 41.3 72.88 40 71.92c-2.3-1.7-2.1 95.85-3.98 98.82-1.02 1.6-2.62-37.63-4.14-35.37-2.08 3.1-4 47.68-4 49.08z" fill="#ffd940"/><path d="M50.5 106s-7.22 3.1-11.35 15.67c-.39-.19-1.37-.3-1.72.7-1.5-3.29-6.52-6.6-8.35-5.88-1.83.72-2.28 4.63 3 11.88 5.28 7.25 16.84 6.34 27.9-20.38z" fill="#782167"/><g clip-path="url(#everyone_ay)" opacity=".5" transform="matrix(.35278 0 0 -.35278 10.18 211.37)" fill="#a02c89"><path d="M127.7 295.87l-13.4 2.82s-20.47-8.78-32.18-44.43c-1.1.54-3.87.86-4.86-2-4.29 9.33-18.48 18.73-23.67 16.7-4.1-1.62-5.72-8.88 1.1-21.96 14.76-17.59 44.07-14.26 73.02 48.87"/></g><g clip-path="url(#everyone_az)" opacity=".5" transform="matrix(.35278 0 0 -.35278 10.18 211.37)"><path d="M138.04 285.71c1.05 2.37 2.1 4.8 3.14 7.32l-26.87 5.66s-2.28-.98-5.75-3.6c3.5-4.12 18.31-7.61 29.48-9.38" fill="#440908"/></g><path d="M168.34 176.52c0 4.17 8.3 7.56 18.53 7.56 10.24 0 18.54-3.39 18.54-7.56 0-2.22 3.47-35.24 3.98-30.93.19 1.66-2.36 11.96-10.62 16.71-3.28 1.9-2.82-12.93-4.61-10.7-2.07 2.55 1.22 17.07-1.71 15.26-3.66-2.25-9.47-33.72-9.23-31.18 3.12 31.64-6.3 26.76-6.92 27.41-3.04 3.2-7.96 11.06-7.96 13.43z" fill="#ffe6d5"/><path d="M64.69 89.69s7.05.52 9.38-.03c.5-.78 1.2-1 1.64-.33 1.24-.65 7.47-3.63 9.3-3.5 1.82.12 2.08 2.13 1.5 3.29-.56 1.16-10.82 8.27-21.4 10.26-10.57 1.98-.42-9.7-.42-9.7" fill="#4dcd4b"/><path d="M60.45 87.1c-2.22-.4-5.6.48-8.3 5.47-2.69 4.98-5.28 11.76-4.58 14.1.69 2.36 13.03 3.4 15.18 3.13 2.15-.28 4.25-13.9 4.66-16.65.41-2.76-.5-4.83-6.96-6.04" fill="#5fd35f"/><g clip-path="url(#everyone_aA)" opacity=".5" transform="matrix(.35278 0 0 -.35278 10.18 211.37)" fill="#37c837"><path d="M142.5 352.23c-1.9.35-4.09.36-6.43-.16 17.57-3.46 20.1-9.26 18.95-16.95-1.16-7.81-7.12-46.37-13.21-47.2 3.3-.17 5.91-.17 7.2 0 6.1.8 12.06 39.39 13.23 47.2 1.16 7.81-1.43 13.67-19.75 17.11"/></g><g clip-path="url(#everyone_aB)" opacity=".5" transform="matrix(.35278 0 0 -.35278 10.18 211.37)" fill="#afe9af"><path d="M128.83 292.65c6.1.8 12.06 39.4 13.22 47.2.74 4.94-.03 9.1-5.3 12.35-5.61-1.03-12.2-5.15-17.76-15.45-7.64-14.12-14.97-33.32-13-40 .32-1.09 1.54-2.08 3.37-2.98 8.57-1.1 16.8-1.47 19.47-1.12"/></g><g clip-path="url(#everyone_aC)" opacity=".5" transform="matrix(.35278 0 0 -.35278 10.18 211.37)" fill="#165016"><path d="M141.46 352.38l-.88-.9a8.38 8.38 0 0111.98-11.73l5.73 5.86c.45-.13.9-.19 1.36-.28-2.8 2.87-8.02 5.19-17.16 6.9-.33.06-.68.1-1.03.15"/></g><path d="M59.04 87.9s-6.56-8.77-7.15-10.5c.48-.9-.38-2-1.1-1.9.07-1.33-2-10.81-5.25-10.75-3.24.07-3.17 7.04.96 19.25 4.12 12.22 6.78 13.2 6.78 13.2z" fill="#87de87"/><path d="M45.5 66.78c-1.21.29-2.5-.78-2.88-2.38-.37-1.6.31-3.13 1.53-3.42 1.22-.28 2.5.79 2.88 2.39.38 1.6-.3 3.13-1.53 3.41" fill="#f8ad7d"/><path d="M46.07 64.1l1.25-1.83a.65.65 0 111.08.74l-1.26 1.83a.65.65 0 11-1.07-.74M45.5 62.73l-.44-3.5a.65.65 0 011.29-.17l.45 3.5a.65.65 0 11-1.3.17" fill="#f8ad7d"/><path d="M44.5 62.77l-1.38-3.25a.65.65 0 111.2-.52l1.37 3.25a.65.65 0 11-1.2.52" fill="#f8ad7d"/><path d="M43.93 63.2l-2.27-2.7a.65.65 0 111-.85l2.27 2.7a.65.65 0 11-1 .84" fill="#f8ad7d"/><path d="M43.44 64.2l-2.38-2.04a.58.58 0 01.75-.89l2.38 2.04a.58.58 0 01-.75.89M85.05 88.64c.9.86 2.56.6 3.7-.6 1.13-1.2 1.32-2.86.4-3.72-.9-.86-2.55-.6-3.69.6-1.13 1.19-1.32 2.85-.4 3.72" fill="#f8ad7d"/><path d="M85.92 86.04l-.15-2.22a.65.65 0 00-1.3.1l.15 2.2a.65.65 0 001.3-.08" fill="#f8ad7d"/><path d="M87.1 85.15l2.16-2.8a.65.65 0 10-1.03-.8l-2.15 2.8a.65.65 0 101.02.8" fill="#f8ad7d"/><path d="M87.96 85.68l2.83-2.1a.65.65 0 10-.77-1.05l-2.84 2.1a.65.65 0 00.78 1.05" fill="#f8ad7d"/><path d="M88.22 86.33l3.33-1.17a.65.65 0 00-.43-1.24L87.8 85.1a.65.65 0 10.42 1.23" fill="#f8ad7d"/><path d="M88.14 87.45l3.09-.56a.58.58 0 00-.2-1.14l-3.09.56a.58.58 0 00.2 1.14" fill="#f8ad7d"/><g clip-path="url(#everyone_aD)" opacity=".5" transform="matrix(.35278 0 0 -.35278 10.18 211.37)"><path d="M230.66 357.76a1.85 1.85 0 11-1.2 3.5l-4.32-1.53 3.36 2.5a1.85 1.85 0 11-2.18 2.99l-5.1-3.78-.32.04 3.27 4.23a1.85 1.85 0 01-2.91 2.28l-6.12-7.91c-.06-.09-.08-.19-.13-.28-.2-.14-.4-.28-.59-.44l-.15 2.19a1.85 1.85 0 11-3.7-.27l.45-6.27c.01-.11.07-.21.1-.32-.9-2.56-.58-5.17 1.12-6.79 2.57-2.44 7.26-1.68 10.47 1.7.68.7 1.2 1.48 1.64 2.27l5.4.97a1.64 1.64 0 11-.57 3.24l-3.71-.67v.52z" fill="#f56449"/></g><g clip-path="url(#everyone_aE)" opacity=".5" transform="matrix(.35278 0 0 -.35278 10.18 211.37)" fill="#165016"><path d="M170.78 340.04a7.3 7.3 0 0112.22 6.78 4.82 4.82 0 01-1.88-1.83c-2.69-.63-7.58-.75-12.44-.68.2-1.57.88-3.08 2.1-4.27"/></g><path d="M63.98 74.22l-3.86 5.43-.97 2.46-.88.68s-2.92-6.52-.37-9.93c2.55-3.42 6.23.05 6.23.05z" fill="#440908"/><g clip-path="url(#everyone_aF)" opacity=".5" transform="matrix(.35278 0 0 -.35278 10.18 211.37)"><path d="M152.51 388.76l-10.94-15.39-2.74-6.96-2.52-1.93s-8.28 18.48-1.04 28.15c7.23 9.68 17.65-.15 17.65-.15z" fill="#440908"/></g><path d="M61.13 92.26c-1.59-.4-2.55-2-2.16-3.58l1.32-5.35a2.96 2.96 0 015.74 1.42l-1.32 5.35c-.4 1.59-2 2.55-3.58 2.16" fill="#f8ad7d"/><g clip-path="url(#everyone_aG)" opacity=".5" transform="matrix(.35278 0 0 -.35278 10.18 211.37)"><path d="M152.21 369.08a8.38 8.38 0 01-10.15-6.13l-.32-1.31a8.32 8.32 0 006.86 1.35 8.38 8.38 0 006.13-10.15l-3.43-13.86a8.31 8.31 0 013.28 4.77l3.75 15.18a8.38 8.38 0 01-6.12 10.15" fill="#f56449"/></g><g clip-path="url(#everyone_aH)" opacity=".2" transform="matrix(.35278 0 0 -.35278 10.18 211.37)"><path d="M142.37 363.82c-.1-.28-.23-.56-.3-.87l-3.76-15.17a8.37 8.37 0 013-8.62c.1.29.23.56.3.87l3.76 15.18a8.37 8.37 0 01-3 8.61" fill="#f8ad7d"/></g><g clip-path="url(#everyone_aI)" opacity=".5" transform="matrix(.35278 0 0 -.35278 10.18 211.37)"><path d="M155.35 346.87l2.98 12.06a8.38 8.38 0 11-16.27 4.02l-2.02-8.15a17.44 17.44 0 0115.31-7.93" fill="#f56449"/></g><path d="M62.59 86.37a6.18 6.18 0 01-4.52-7.48l.5-2a6.18 6.18 0 1112 2.97l-.5 2a6.18 6.18 0 01-7.48 4.51" fill="#f8ad7d"/><path d="M62.35 87.32a6.18 6.18 0 01-4.51-7.49l.72-2.94a6.18 6.18 0 1112 2.97l-.72 2.94a6.18 6.18 0 01-7.49 4.52" fill="#f8ad7d"/><g clip-path="url(#everyone_aJ)" opacity=".5" transform="matrix(.35278 0 0 -.35278 10.18 211.37)"><path d="M158.38 393.98c-2.45.6-4.9.66-7.23.25.41-.07.83-.14 1.25-.25a17.52 17.52 0 0012.8-21.21l-2.06-8.33a17.52 17.52 0 00-13.99-13.04 17.51 17.51 0 0119.96 13.04l2.06 8.33c2.33 9.39-3.4 18.89-12.8 21.21" fill="#f56449"/></g><g clip-path="url(#everyone_aK)" opacity=".2" transform="matrix(.35278 0 0 -.35278 10.18 211.37)"><path d="M137.16 381.19l-2.06-8.33a17.51 17.51 0 015.95-17.78 17.42 17.42 0 015.97 9.36l2.06 8.33a17.5 17.5 0 01-5.96 17.78 17.41 17.41 0 01-5.96-9.36" fill="#f8ad7d"/></g><path d="M58.81 81.29a2.57 2.57 0 11-5-1.24 2.57 2.57 0 015 1.24" fill="#f8ad7d"/><path d="M55.91 79.09c.46 0 .92.3 1.16.71.25.41.3.95.1 1.36 0-.45-.1-.87-.31-1.23a2.23 2.23 0 00-.95-.84" fill="#f56449"/><g clip-path="url(#everyone_aL)" opacity=".2" transform="matrix(.35278 0 0 -.35278 10.18 211.37)"><path d="M137.87 368.73a7.3 7.3 0 10-14.16 3.5 7.3 7.3 0 0014.16-3.5" fill="#f8ad7d"/></g><path d="M68.32 83.64a2.57 2.57 0 105 1.24 2.57 2.57 0 00-5-1.24" fill="#f8ad7d"/><path d="M71.91 83.05c-.45-.01-.87.08-1.23.3-.36.22-.64.54-.84.95 0-.46.3-.92.71-1.16.41-.25.95-.3 1.36-.1" fill="#f56449"/><g clip-path="url(#everyone_aM)" opacity=".5" transform="matrix(.35278 0 0 -.35278 10.18 211.37)"><path d="M164.81 362.06a7.3 7.3 0 1114.16-3.5 7.3 7.3 0 01-14.16 3.5" fill="#f56449"/></g><path d="M61.38 80.34a.4.4 0 01-.29-.48l.23-.92a.4.4 0 01.77.19l-.22.92a.4.4 0 01-.49.29M66.46 81.6a.4.4 0 01-.29-.49l.23-.92a.4.4 0 11.77.2l-.22.91a.4.4 0 01-.49.3" fill="#440908"/><path d="M66.04 83.48a2.6 2.6 0 11-5.06-1.25z" fill="#fff"/><path d="M60.96 72.94c.17-1.65 2.55-3.73 4.85-3.33 2.3.4 5.2 2.82 5.87 4.96.67 2.13.43 3.44-1.74 7.7-.36-3-1.41-3.95-3.37-4.35-1.95-.4-5.98-1.4-5.61-4.98" fill="#440908"/><g clip-path="url(#everyone_aN)" opacity=".5" transform="matrix(.35278 0 0 -.35278 10.18 211.37)"><path d="M174.33 387.78c-1.9 6.05-10.13 12.94-16.64 14.06a10.2 10.2 0 01-3.7-.06c6.47-1.25 14.52-8.03 16.4-14 1.57-5 1.37-8.42-2.22-16.26a25 25 0 001.25-5.56c6.14 12.06 6.81 15.77 4.91 21.82" fill="#440908"/></g><g clip-path="url(#everyone_aO)" opacity=".5" transform="matrix(.35278 0 0 -.35278 10.18 211.37)"><path d="M149.33 399.83c-2.96-1.94-5.11-4.87-5.38-7.44-1.06-10.16 10.36-13 15.9-14.12.36-.07.67-.17 1-.26 1.04 3.76.78 6.4-.27 9.77-1.4 4.44-6.21 9.32-11.25 12.05" fill="#440908"/></g><path d="M62.63 81.37c-.1.4.32.85.95 1 .62.16 1.2-.04 1.3-.44.1-.4-2.15-.96-2.25-.56" fill="#f8ad7d"/><g clip-path="url(#everyone_aP)" opacity=".5" transform="matrix(.35278 0 0 -.35278 10.18 211.37)"><path d="M148.68 368.5c-.28-1.14.92-2.42 2.68-2.86 1.76-.43 3.42.14 3.7 1.28.29 1.15-6.1 2.72-6.38 1.58" fill="#f8ad7d"/></g><path d="M121.84 106s1.47 22.5.65 27.8c-.81 5.3-15.82 1.06-19.57-.65s4.65-5.14 10.11-4.4c-.81-.82-.65-1.06.25-.82.08-.98-1.96-13.3-1.63-18.51.32-5.22 10.2-3.43 10.2-3.43" fill="#fff"/><g clip-path="url(#everyone_aQ)" opacity=".5" transform="matrix(.35278 0 0 -.35278 10.18 211.37)"><path d="M316.53 298.7s4.16-63.8 1.85-78.83c-2.32-15.03-44.85-3-55.49 1.85-10.63 4.85 13.18 14.56 28.67 12.48-2.31 2.32-1.85 3 .7 2.32.22 2.77-5.56 37.68-4.63 52.48.92 14.8 28.9 9.7 28.9 9.7" fill="#cddae4"/></g><g clip-path="url(#everyone_aR)" opacity=".5" transform="matrix(.35278 0 0 -.35278 10.18 211.37)"><path d="M278.83 216.42c.54.5 1.09 1 1.55 1.6 2.64 3.43 5.52 9.35 8.32 16.43-15.36.69-35.8-8.17-25.8-12.73 3.13-1.44 9.07-3.5 15.93-5.3M302.78 293.07c-.73 3.96-5.46 4.28-11.06 3.16a9.09 9.09 0 01-4.1-7.23c-.71-11.54 2.64-35.3 4.05-46.53 6.84 19.67 12.37 43.78 11.11 50.6" fill="#cddae4"/></g><g clip-path="url(#everyone_aS)" opacity=".5" transform="matrix(.35278 0 0 -.35278 10.18 211.37)"><path d="M317.33 285.16c-.45 8.08-.8 13.55-.8 13.55s-27.98 5.08-28.9-9.71a62.49 62.49 0 01-.1-4.55c10.76-1.19 23.23-1.46 29.8.7" fill="#cddae4"/></g><path d="M91.1 124.91s-2.62-4.07-4.74-.24c-3.42 1.14-6.77 6.2-6.11 8.24.65 2.04 5.54-1.15 5.87-2.53a43.14 43.14 0 004.65-2.04z" fill="#3737c8"/><g clip-path="url(#everyone_aT)" opacity=".5" transform="matrix(.35278 0 0 -.35278 10.18 211.37)" fill="#8787de"><path d="M229.31 244.47c-1.55-.43-3.16-1.74-4.68-4.49-7.1-2.36-14.04-10.63-16.56-17.18 3.52 2.03 6.76 4.95 7.2 6.78 3.46.92 13.17 5.78 13.17 5.78z"/></g><path d="M106.67 108.2s-4.16 15-4.73 18.26c-.81-.4-1.14.57-1.06.9-1.96-1.63-9.3-4.73-11-2.77-1.72 1.95-2.86 3.34-.25 5.46 2.6 2.12 12.64 7.42 16.88 3.26 4.24-4.16 11.66-21.36 11.5-25.12-.16-3.75-11.34 0-11.34 0" fill="#fff"/><g clip-path="url(#everyone_aU)" opacity=".5" transform="matrix(.35278 0 0 -.35278 10.18 211.37)"><path d="M273.52 292.46l-1.46-5.33c6.63-1.86 20.52-3.7 31.96-3.58 1.11 3.9 1.72 7.02 1.64 8.91-.46 10.64-32.14 0-32.14 0" fill="#cddae4"/></g><path d="M108.63 81.69s8.73-7.59 9.54-8c-.57-.48.25-1.46.98-1.22.9-2.77 5.22-9.95 7.5-10.36 2.29-.4 3.51.82 3.18 2.78-.32 1.95-9.13 16.8-15.25 21.45-6.11 4.64-5.95-4.65-5.95-4.65" fill="#2c2ca0"/><g clip-path="url(#everyone_aV)" opacity=".5" transform="matrix(.35278 0 0 -.35278 10.18 211.37)" fill="#0b0b28"><path d="M302.42 387.45c-7.5-6.08-23.35-19.85-23.35-19.85s-.08-4.9 1.21-9.41l.36 6.2c2.64.8 5.04 2.29 6.95 4.3a6.67 6.67 0 0112.58.69 6.7 6.7 0 01-2.14 7.07 10.13 10.13 0 014.4 11"/></g><path d="M127.63 63.82c1.1.42 2.43-.4 2.99-1.84.55-1.45.11-2.95-.98-3.37-1.1-.42-2.43.4-2.99 1.84-.55 1.44-.11 2.95.98 3.37" fill="#f8ad7d"/><path d="M127.45 61.26l-.93-1.86a.61.61 0 10-1.1.54l.94 1.86a.61.61 0 101.1-.54" fill="#f8ad7d"/><path d="M128.15 60.06l.87-3.2a.61.61 0 00-1.18-.32l-.86 3.2a.61.61 0 101.17.32" fill="#f8ad7d"/><path d="M129.09 60.22l1.7-2.84a.61.61 0 00-1.05-.63l-1.7 2.84a.61.61 0 001.05.63" fill="#f8ad7d"/><path d="M129.55 60.68l2.46-2.2a.61.61 0 10-.81-.92l-2.46 2.21a.61.61 0 10.81.91" fill="#f8ad7d"/><path d="M129.88 61.68l2.47-1.59a.54.54 0 00-.58-.92l-2.47 1.6a.54.54 0 00.58.91" fill="#f8ad7d"/><g clip-path="url(#everyone_aW)" opacity=".5" transform="matrix(.35278 0 0 -.35278 10.18 211.37)"><path d="M346.8 430.94c-.46.72-1.4.94-2.13.48l-2.97-1.91-.18.45 3.83 3.45a1.73 1.73 0 11-2.3 2.59l-3.2-2.87 2.02 3.37a1.73 1.73 0 11-2.96 1.8l-3.05-5.1-.3-.08 1.3 4.84a1.74 1.74 0 01-3.33.92l-2.45-9.05c-.03-.1-.01-.19-.02-.29-.12-.19-.24-.38-.35-.59l-.92 1.84a1.73 1.73 0 01-3.1-1.55l2.64-5.27c.05-.1.13-.17.2-.25.15-2.54 1.36-4.69 3.41-5.48 3.1-1.19 6.9 1.15 8.46 5.24.33.85.51 1.71.6 2.56l4.32 2.78c.72.45.94 1.4.48 2.12" fill="#f56449"/></g><path d="M80.82 103.04c.54 1.04-.12 2.47-1.49 3.19-1.36.71-2.91.46-3.46-.58-.54-1.04.12-2.46 1.49-3.18 1.36-.72 2.91-.46 3.46.57" fill="#f8ad7d"/><path d="M78.25 103.17l-1.96-.7a.61.61 0 01.42-1.16l1.95.7a.61.61 0 01-.41 1.16M77.14 104l-3.07 1.24a.61.61 0 01-.46-1.14l3.07-1.23a.61.61 0 11.46 1.13" fill="#f8ad7d"/><path d="M77.41 104.91l-2.62 2.02a.61.61 0 11-.75-.97l2.62-2.01a.61.61 0 01.75.96" fill="#f8ad7d"/><path d="M77.93 105.32l-1.91 2.7a.61.61 0 11-1-.7l1.9-2.7a.61.61 0 111 .7" fill="#f8ad7d"/><path d="M78.96 105.53l-1.3 2.64a.54.54 0 11-.97-.47l1.29-2.64a.54.54 0 11.98.47" fill="#f8ad7d"/><path d="M104.14 82.5a10 10 0 00-4.24 4.9c-.24.9 4.08 11.33 4.65 13.05-.65.97-.73 1.79.08 2.12-.24 2.6.5 5.79 0 7.26-.32 1.22 16.23.65 18.43-2.45 2.2-3.1-6.11-21.04-9.3-23.98-3.17-2.94-5.86-3.02-9.62-.9" fill="#5f5fd3"/><g clip-path="url(#everyone_aX)" opacity=".5" transform="matrix(.35278 0 0 -.35278 10.18 211.37)" fill="#7575d9"><path d="M262.45 362.5c-4.73-4-7.56-9.05-8.11-11.08-.7-2.55 11.56-32.14 13.17-37-1.84-2.77-2.08-5.08.24-6-.7-7.4 1.38-16.42 0-20.58-.52-1.94 13.9-2.29 27.83-.68.8.54 1.44 1.1 1.87 1.72 6.25 8.79-17.34 59.65-26.35 67.97-2.98 2.75-5.81 4.6-8.65 5.65"/></g><g clip-path="url(#everyone_aY)" opacity=".5" transform="matrix(.35278 0 0 -.35278 10.18 211.37)"><path d="M280.64 364.38c2.2.67 4.2 1.83 5.92 3.35-6.27 2.99-12.44 1.95-20.2-2.44-.51-.29-.97-.63-1.45-.94l-.31-5.37a7.85 7.85 0 1115.68-.92z" fill="#440908"/></g><path d="M103.25 83.4s-6.28 4.9-9.55 9.46c-1.06-.08-1.63.57-1.63 1.39-2.28.9-11.66 5.62-12.23 7.66-.57 2.04-.16 3.67.73 4.57.9.9 17.86-7.26 24.14-14.92 6.28-7.67-1.46-8.16-1.46-8.16" fill="#6a6ad6"/><path d="M107.06 87.6a2.77 2.77 0 01-3.5-1.79l-1.6-4.9a2.77 2.77 0 015.28-1.72l1.6 4.91a2.77 2.77 0 01-1.78 3.5" fill="#f8ad7d"/><g clip-path="url(#everyone_aZ)" opacity=".5" transform="matrix(.35278 0 0 -.35278 10.18 211.37)"><path d="M264.46 374.96a7.85 7.85 0 009.9-5.04l4.52-13.93c.14-.42.22-.85.28-1.28a7.82 7.82 0 01.5 6.05l-4.53 13.93a7.84 7.84 0 01-15.21-3.58 7.82 7.82 0 004.54 3.85" fill="#f56449"/></g><g clip-path="url(#everyone_ba)" opacity=".2" transform="matrix(.35278 0 0 -.35278 10.18 211.37)"><path d="M272.38 354l-4.53 13.93a7.83 7.83 0 01-7.94 5.38 7.78 7.78 0 01.29-3.48l4.53-13.93a7.84 7.84 0 017.94-5.38 7.77 7.77 0 01-.29 3.48" fill="#f8ad7d"/></g><g clip-path="url(#everyone_bb)" opacity=".5" transform="matrix(.35278 0 0 -.35278 10.18 211.37)"><path d="M275.13 374.69a7.85 7.85 0 11-14.93-4.86l2.2-6.77a16.02 16.02 0 0116.21.93z" fill="#f56449"/></g><path d="M101.6 71.79a3.59 3.59 0 11-4.63 5.48 3.59 3.59 0 014.63-5.48" fill="#f56449"/><g clip-path="url(#everyone_bc)" opacity=".5" transform="matrix(.35278 0 0 -.35278 10.18 211.37)"><path d="M259.16 395.67a10.17 10.17 0 10-13.12-15.54 10.17 10.17 0 0013.12 15.54" fill="#f56449"/></g><path d="M111.74 70.93a3.59 3.59 0 11-4.63 5.48 3.59 3.59 0 014.63-5.48" fill="#f56449"/><g clip-path="url(#everyone_bd)" opacity=".5" transform="matrix(.35278 0 0 -.35278 10.18 211.37)"><path d="M287.9 398.08a10.17 10.17 0 10-13.12-15.53 10.17 10.17 0 0013.12 15.53" fill="#f56449"/></g><g clip-path="url(#everyone_be)" opacity=".5" transform="matrix(.35278 0 0 -.35278 10.18 211.37)" fill="#2c2ca0"><path d="M293.64 362.74c-6.02 5.56-11.43 7.5-17.52 6.39 3.7-.74 7.32-2.81 11.19-6.39 9.02-8.32 32.6-59.18 26.35-67.97-3.92-5.51-23.89-8.2-37.97-8.58 13.46-.42 39.74 2.16 44.3 8.58 6.25 8.8-17.34 59.65-26.35 67.97"/></g><path d="M105.02 82.3a5.68 5.68 0 01-6.14-5.19l-.16-1.88a5.68 5.68 0 1111.33-.96l.16 1.89a5.69 5.69 0 01-5.2 6.14" fill="#f8ad7d"/><path d="M105.1 83.19A5.68 5.68 0 0198.94 78l-.23-2.77a5.68 5.68 0 0111.33-.96l.23 2.78a5.69 5.69 0 01-5.19 6.14" fill="#f8ad7d"/><g clip-path="url(#everyone_bf)" opacity=".5" transform="matrix(.35278 0 0 -.35278 10.18 211.37)"><path d="M283.76 380.75l-.66 7.86a16.11 16.11 0 01-17.41 14.7c-.23-.01-.45-.06-.68-.08a16.11 16.11 0 0013.92-14.62l.67-7.86a16.1 16.1 0 00-14.03-17.31 16.11 16.11 0 0118.2 17.32" fill="#f56449"/></g><g clip-path="url(#everyone_bg)" opacity=".2" transform="matrix(.35278 0 0 -.35278 10.18 211.37)"><path d="M262.64 364.1a16.05 16.05 0 013.95 11.97l-.66 7.86a16.12 16.12 0 01-11 13.95 16.06 16.06 0 01-3.95-11.97l.66-7.86a16.12 16.12 0 0111-13.95" fill="#f8ad7d"/></g><path d="M103.2 77.02c.04.5.68.84 1.44.78.75-.07 1.33-.52 1.3-1-.05-.5-2.78-.27-2.74.22" fill="#f8ad7d"/><g clip-path="url(#everyone_bh)" opacity=".5" transform="matrix(.35278 0 0 -.35278 10.18 211.37)"><path d="M263.68 380.82c.12-1.39 1.95-2.37 4.09-2.19 2.13.18 3.77 1.45 3.66 2.84-.12 1.39-7.87.74-7.75-.65" fill="#f8ad7d"/></g><path d="M100.23 78.98a2.37 2.37 0 11-4.71.4 2.37 2.37 0 014.71-.4" fill="#f8ad7d"/><path d="M97.05 77.92c.41-.13.9 0 1.23.28.34.28.54.74.48 1.16-.13-.4-.33-.74-.63-.98-.3-.25-.66-.4-1.08-.46" fill="#f56449"/><g clip-path="url(#everyone_bi)" opacity=".2" transform="matrix(.35278 0 0 -.35278 10.18 211.37)"><path d="M255.27 375.27a6.7 6.7 0 10-13.37-1.12 6.7 6.7 0 0013.37 1.12" fill="#f8ad7d"/></g><path d="M109.2 78.23a2.37 2.37 0 104.72-.4 2.37 2.37 0 00-4.71.4" fill="#f8ad7d"/><path d="M112.16 76.65c-.4.12-.73.33-.98.63s-.4.66-.46 1.07c-.13-.4 0-.88.28-1.22.29-.34.74-.54 1.16-.48" fill="#f56449"/><g clip-path="url(#everyone_bj)" opacity=".5" transform="matrix(.35278 0 0 -.35278 10.18 211.37)"><path d="M280.7 377.41a6.7 6.7 0 1113.38 1.13 6.7 6.7 0 01-13.37-1.13" fill="#f56449"/></g><path d="M102.2 77.4a.37.37 0 01-.4-.34l-.08-.87a.37.37 0 11.73-.06l.08.87c.01.2-.14.38-.34.4M106.99 77a.37.37 0 01-.4-.34l-.07-.87a.37.37 0 11.73-.06l.07.87c.02.2-.13.37-.33.4" fill="#440908"/><path d="M102.99 78.82l3.5-.3.04.5a1.76 1.76 0 01-3.5.3z" fill="#703c40"/><path d="M104.48 80.31c-.32-.06-.62.01-.87.17a1.75 1.75 0 001.58.4l.06-.04a1.18 1.18 0 00-.77-.53" fill="#ee6466"/><path d="M103.35 78.79l.89-.08v.13a.45.45 0 11-.88.08z" fill="#fffff1"/><path d="M103.97 78.74l.88-.08.01.13a.45.45 0 11-.88.07z" fill="#fffff1"/><path d="M104.58 78.68l.89-.07v.13a.45.45 0 01-.88.07z" fill="#fffff1"/><path d="M105.2 78.63l.88-.07.01.13a.45.45 0 11-.89.07z" fill="#fffff1"/><path d="M104.18 70.38a3.59 3.59 0 11-7.14.6 3.59 3.59 0 017.14-.6" fill="#f56449"/><g clip-path="url(#everyone_bk)" opacity=".5" transform="matrix(.35278 0 0 -.35278 10.18 211.37)"><path d="M266.47 399.64a10.17 10.17 0 10-20.26-1.7 10.17 10.17 0 0020.26 1.7" fill="#f56449"/></g><path d="M99.17 78.68a.61.61 0 01-.66-.56l-.34-4.1a.61.61 0 011.21-.11l.35 4.1a.61.61 0 01-.56.67" fill="#f56449"/><g clip-path="url(#everyone_bl)" opacity=".5" transform="matrix(.35278 0 0 -.35278 10.18 211.37)"><path d="M252.27 376.13c-.96-.08-1.8.62-1.87 1.58l-.99 11.65a1.73 1.73 0 003.46.29l.98-11.65c.08-.96-.63-1.8-1.58-1.88" fill="#f56449"/></g><path d="M110.4 77.73a.61.61 0 01-.65-.55l-.35-4.11a.61.61 0 011.22-.1l.35 4.1a.61.61 0 01-.56.66" fill="#f56449"/><g clip-path="url(#everyone_bm)" opacity=".5" transform="matrix(.35278 0 0 -.35278 10.18 211.37)"><path d="M284.12 378.8c-.96-.07-1.8.63-1.87 1.59l-.99 11.65a1.73 1.73 0 003.46.29l.98-11.65c.08-.96-.63-1.8-1.58-1.87" fill="#f56449"/></g><path d="M107.67 68.9a3.59 3.59 0 11-7.15.6 3.59 3.59 0 017.15-.6" fill="#f56449"/><path d="M111.28 69.79a3.59 3.59 0 11-7.15.6 3.59 3.59 0 017.15-.6" fill="#f56449"/><g clip-path="url(#everyone_bn)" opacity=".5" transform="matrix(.35278 0 0 -.35278 10.18 211.37)"><path d="M275.6 410.61c-.55-.04-1.08-.17-1.6-.3a10.13 10.13 0 007.73-8.98c.42-5.04-2.92-9.5-7.68-10.68 1.04-.26 2.13-.4 3.26-.3a10.16 10.16 0 11-1.7 20.26" fill="#f56449"/></g><path d="M149.8 173s-2.45.2-3.51 1.45c-1.07 1.25.38 2.91.38 2.91s.32 4.28 1.4 5.98c1.1 1.71 2.78-5.17 2.57-6.75a25.7 25.7 0 00-.85-3.6" fill="#440908"/><g clip-path="url(#everyone_bo)" opacity=".5" transform="matrix(.35278 0 0 -.35278 10.18 211.37)"><path d="M395.76 108.76s-6.92-.56-9.94-4.11c-3.03-3.55 1.09-8.25 1.09-8.25s.9-12.12 3.99-16.96c3.09-4.84 7.85 14.68 7.26 19.15-.59 4.47-2.4 10.17-2.4 10.17" fill="#440908"/></g><path d="M146.28 174.45c-1.06 1.25.39 2.91.39 2.91s.08 1.1.3 2.42c.73-1.76 1.31-4.71 1.18-5.68a12.7 12.7 0 00-.12-.72c-.63.22-1.3.56-1.75 1.07" fill="#440908"/><path d="M153.8 134.28s9.96 14.84 12 23.65c2.04 8.8-15 17.45-15 17.45s.4 1.63-.5 1.23c-.9-.41-4-1.8-3.18-2.94.82-1.14 6.77-11.58 10.2-12.8-1.47-.58-.66-1.15.08-1.31-4.24-2.12-16.48-17.37-8.57-26.02 2.45-2.36 4.98.74 4.98.74" fill="#483737"/><g clip-path="url(#everyone_bp)" opacity=".5" transform="matrix(.35278 0 0 -.35278 10.18 211.37)"><path d="M393.04 220.6a28.44 28.44 0 01-2.56-3.3c5.64-3.64 18.34-6.8 19.4-2.96-1.7 2.65-2.74 4.19-2.74 4.19s-7.16 8.78-14.1 2.08" fill="#f56449"/></g><path d="M147.28 136.4l-.18-.21c-3.9 8.8 6.46 21.45 10.3 23.37-.74.16-1.55.73-.08 1.3-3.43 1.23-9.38 11.67-10.2 12.81-.39.55.12 1.15.86 1.67 4.88-3.1 12.71-9.16 11.3-15.29-2.05-8.8-12-23.65-12-23.65" fill="#5c4747"/><g clip-path="url(#everyone_bq)" opacity=".5" transform="matrix(.35278 0 0 -.35278 10.18 211.37)"><path d="M403.13 160.07c.39 23.72-2.13 53.3-5.2 60.46-.4.9-.87 1.61-1.39 2.24a8.86 8.86 0 01-3.5-2.16c-15.94-17.42-3.02-44.3 10.1-60.54"/></g><path d="M126.9 168.4s-2.45-.11-3.67.99c-1.23 1.1 0 2.93 0 2.93s-.25 4.29.6 6.12c.86 1.84 3.43-4.77 3.43-6.36 0-1.6-.36-3.67-.36-3.67" fill="#440908"/><path d="M145.16 132.32s-12.47 1.71-2.6 25.69c-1.07-.65-.9 1.22-.9 1.22s-9.63 2.61-14.93 8.98c-1.22.16-.4 2.93.25 3.67.65.73 19.4-1.72 21.94-7.92 2.52-6.2 3.75-26.58 2.6-30.42-1.14-3.83-6.36-1.22-6.36-1.22" fill="#483737"/><g clip-path="url(#everyone_br)" opacity=".5" transform="matrix(.35278 0 0 -.35278 10.18 211.37)" fill="#937373"><path d="M391.65 220.6c-.83 2.8-2.43 4.37-4.34 5.19-2.68-.72-4.67-1.71-4.67-1.71s-35.37-4.86-7.4-72.83c-3 1.85-2.54-3.47-2.54-3.47s-27.28-7.4-42.31-25.43c-3.42-.45-1.22-8.1.62-10.3 15.9 1.79 47.8 8.99 53.25 22.32 7.16 17.57 10.63 75.37 7.4 86.24"/></g><g clip-path="url(#everyone_bs)" opacity=".5" transform="matrix(.35278 0 0 -.35278 10.18 211.37)"><path d="M401.67 212.98c-.2 3.37-.52 6.02-1 7.63-3.01 10.11-16.03 4.4-17.81 3.57 1.34-2.11 4.3-4.65 7.36-6.71 3.14-2.1 7.66-3.61 11.45-4.5" fill="#f56449"/></g><path d="M148.5 114.87s7.19-11.1 7.92-11.83c-.4-.82.08-1.71.57-2.04.49-2.85 1.14-9.87 2.37-11.25 1.22-1.39 2.69-.98 3.26 0 .57.97.65 9.3.24 11.66-.4 2.36-6.6 16.8-7.58 18.84-.98 2.04-6.77-5.38-6.77-5.38" fill="#fff"/><g clip-path="url(#everyone_bt)" opacity=".5" transform="matrix(.35278 0 0 -.35278 10.18 211.37)"><path d="M392.12 273.55s20.34 31.44 22.42 33.52c-1.15 2.31.23 4.86 1.62 5.78 1.39 8.1 3.24 27.98 6.7 31.9 3.47 3.94 7.63 2.78 9.25 0 1.62-2.77 1.85-26.35.7-33.05-1.16-6.7-18.73-47.63-21.5-53.4-2.78-5.79-19.2 15.25-19.2 15.25" fill="#cddae4"/></g><g clip-path="url(#everyone_bu)" opacity=".5" transform="matrix(.35278 0 0 -.35278 10.18 211.37)"><path d="M414.9 299.94l1.56 6.75c.6 2.62.54 5.24-.05 7.7l-.25-1.54c-1.39-.92-2.77-3.47-1.62-5.78-1.03-1.03-6.56-9.29-11.86-17.35l-.08-.12-1.33-2.02-.45-.68-2.56-3.9-.11-.18c-3.43-5.25-6.03-9.27-6.03-9.27s1.8-2.31 4.31-5.18a7 7 0 012.17 3.66l1.64 7.17a13.12 13.12 0 0119.8-.81c1.21 2.86 2.45 5.82 3.65 8.75 0 .13.04.25.04.37 0 5.76-3.7 10.6-8.82 12.43" fill="#cddae4"/></g><path d="M150.95 113.89c-1.9-1.12-6.52.73-7.74 1.63-1.23.9 1.14 14.92 1.71 15.66-1.39.81.82 2.28 3.02 3.18 2.2.9 5.79.81 6.6.57.82-.25 1.47-10.2 1.47-10.2s2.04-1.63 1.06-3.91a16.32 16.32 0 00-6.12-6.93" fill="#fff"/><path d="M150.95 113.89c-1.9-1.12-6.52.73-7.74 1.63-1.23.9 1.14 14.92 1.71 15.66-1.39.81.82 2.28 3.02 3.18 2.2.9 5.79.81 6.6.57.82-.25 1.47-10.2 1.47-10.2s2.04-1.63 1.06-3.91a16.32 16.32 0 00-6.12-6.93" fill="#fff"/><g clip-path="url(#everyone_bv)" opacity=".5" transform="matrix(.35278 0 0 -.35278 10.18 211.37)"><path d="M399.05 276.32c-5.4 3.18-18.5-2.08-21.96-4.62-3.47-2.54 3.24-42.3 4.85-44.39-3.93-2.31 2.32-6.47 8.56-9.01 6.24-2.55 16.41-2.32 18.72-1.62 2.32.7 4.17 28.9 4.17 28.9s5.78 4.62 3 11.1c-2.77 6.47-9.48 15.02-17.34 19.64" fill="#cddae4"/></g><path d="M148.43 120.82a16.56 16.56 0 00-4.47-5.75c-.3.16-.57.32-.75.45-1.23.9 1.14 14.92 1.71 15.66-1.05.62-.04 1.61 1.48 2.45.56-2.75.97-8.9.97-8.9s2.04-1.63 1.06-3.91" fill="#fff"/><g clip-path="url(#everyone_bw)" opacity=".5" transform="matrix(.35278 0 0 -.35278 10.18 211.37)"><path d="M382.36 270.1c-1 1-2.04 1.98-3.13 2.88-.88-.46-1.63-.9-2.14-1.28-1.95-1.43-.68-14.62 1.08-26.27.83 2.48 1.58 4.98 2.22 7.5 2.29 9.04 2.5 14.2 1.97 17.18" fill="#cddae4"/></g><g clip-path="url(#everyone_bx)" opacity=".5" transform="matrix(.35278 0 0 -.35278 10.18 211.37)"><path d="M416.4 256.67c-2.78 6.48-9.49 15.03-17.35 19.65-1.77 1.04-4.37 1.17-7.2.79.84-.16 1.6-.41 2.23-.79 7.86-4.62 14.57-13.17 17.34-19.65 2.78-6.47-3-11.1-3-11.1s-1.85-28.2-4.17-28.9a15.3 15.3 0 00-3.03-.4c3.66-.17 6.84.06 8 .4 2.32.7 4.17 28.9 4.17 28.9s5.78 4.63 3 11.1" fill="#cddae4"/></g><g clip-path="url(#everyone_by)" opacity=".5" transform="matrix(.35278 0 0 -.35278 10.18 211.37)"><path d="M399.05 276.32c-3.2 1.9-9.15.79-14.16-.95l-.05-.19a7.06 7.06 0 1113.76-3.15l.91 3.99c-.15.1-.3.21-.46.3" fill="#cddae4"/></g><path d="M145.25 114.7s-4-.16-7.02 3.27c-3.02 3.42-5.3 10.1-5.3 10.1s-1.71.17-1.06 1.07c-1.88 2.28-6.44 8.73-6.52 9.7-.09.98 1.79 2.04 3.01 1.88 1.23-.16 11.12-8.49 15.83-18.6 3.34-7.17 1.06-7.42 1.06-7.42" fill="#fff"/><path d="M126.99 139.83c.86.8.72 2.36-.32 3.5-1.04 1.14-2.58 1.42-3.45.63-.87-.79-.72-2.35.32-3.5 1.03-1.13 2.58-1.42 3.45-.63" fill="#f8ad7d"/><path d="M124.61 140.82h-2.08a.61.61 0 110-1.22h2.08a.61.61 0 010 1.22M123.86 141.98l-2.47 2.2a.61.61 0 11-.82-.9l2.47-2.2a.61.61 0 01.82.9" fill="#f8ad7d"/><path d="M124.42 142.75l-1.78 2.78a.61.61 0 01-1.04-.65l1.78-2.79a.61.61 0 011.04.66" fill="#f8ad7d"/><path d="M125.04 142.95l-.88 3.2a.61.61 0 11-1.18-.32l.88-3.2a.61.61 0 111.18.32" fill="#f8ad7d"/><path d="M126.08 142.8l-.31 2.92a.54.54 0 11-1.09-.1l.32-2.93a.54.54 0 011.08.11M160.06 90.52c1.09.42 2.43-.4 2.98-1.85.55-1.44.11-2.94-.98-3.37-1.1-.42-2.43.41-2.98 1.85-.56 1.44-.12 2.95.98 3.37" fill="#f8ad7d"/><path d="M159.88 87.95l-.94-1.86a.61.61 0 10-1.09.55l.93 1.86a.61.61 0 001.1-.55M160.58 86.76l.86-3.2a.61.61 0 10-1.18-.32l-.86 3.2a.61.61 0 101.18.32" fill="#f8ad7d"/><path d="M161.5 86.92l1.7-2.84a.61.61 0 00-1.04-.63l-1.7 2.83a.61.61 0 001.05.64" fill="#f8ad7d"/><path d="M161.97 87.38l2.46-2.2a.61.61 0 00-.81-.92l-2.46 2.21a.61.61 0 00.81.91" fill="#f8ad7d"/><path d="M162.3 88.38l2.48-1.59a.54.54 0 10-.59-.92l-2.47 1.6a.54.54 0 10.58.91" fill="#f8ad7d"/><g clip-path="url(#everyone_bz)" opacity=".5" transform="matrix(.35278 0 0 -.35278 10.18 211.37)"><path d="M438.7 355.26c-.45.72-1.4.93-2.12.48l-2.98-1.92c-.04.16-.11.3-.17.46l3.83 3.45a1.73 1.73 0 01-2.3 2.59l-3.2-2.87 2.02 3.37a1.73 1.73 0 11-2.97 1.8l-3.05-5.1-.3-.08 1.32 4.83a1.73 1.73 0 11-3.35.93l-2.44-9.05c-.03-.1-.01-.2-.02-.29-.12-.2-.24-.39-.35-.6l-.92 1.85a1.73 1.73 0 11-3.1-1.56l2.64-5.27c.05-.1.13-.16.2-.24.14-2.54 1.36-4.7 3.41-5.48 3.1-1.2 6.89 1.15 8.46 5.23.33.86.5 1.72.6 2.56l4.32 2.78c.72.46.93 1.41.48 2.13" fill="#f56449"/></g><path d="M146.3 110.3a4.67 4.67 0 11-9.35 0 4.67 4.67 0 019.35 0" fill="#440908"/><g clip-path="url(#everyone_bA)" opacity=".5" transform="matrix(.35278 0 0 -.35278 10.18 211.37)"><path d="M385.85 286.47a13.24 13.24 0 10-26.48 0 13.24 13.24 0 0026.48 0" fill="#440908"/></g><path d="M159.3 110.3a4.67 4.67 0 11-9.35 0 4.67 4.67 0 019.34 0" fill="#440908"/><g clip-path="url(#everyone_bB)" opacity=".5" transform="matrix(.35278 0 0 -.35278 10.18 211.37)"><path d="M408.87 293.78c-.38 0-.76-.04-1.12-.11a16.92 16.92 0 011.52 6.02 13.23 13.23 0 01-13.06-13.22c0-3.42 1.33-6.5 3.46-8.86v3.55c1.77 1.08 3.3 2.5 4.48 4.2a5.52 5.52 0 0110.27 2.87 5.55 5.55 0 01-5.55 5.55" fill="#440908"/></g><g clip-path="url(#everyone_bC)" opacity=".5" transform="matrix(.35278 0 0 -.35278 10.18 211.37)"><path d="M409.45 299.71a13.1 13.1 0 01-4.42-.81 13.2 13.2 0 008.82-12.43c0-5.75-3.7-10.6-8.82-12.43 1.39-.49 2.86-.8 4.42-.8a13.24 13.24 0 010 26.47" fill="#440908"/></g><path d="M148.12 111.23a5.97 5.97 0 01-5.96-5.96v-3.63a5.97 5.97 0 0111.93 0v3.63c0 3.3-2.67 5.96-5.97 5.96" fill="#440908"/><g clip-path="url(#everyone_bD)" opacity=".5" transform="matrix(.35278 0 0 -.35278 10.18 211.37)"><path d="M391.03 327.96a17 17 0 01-3.56-.38 16.91 16.91 0 0013.36-16.53v-10.29c0-8.12-5.73-14.9-13.36-16.53a16.91 16.91 0 0120.47 16.53v10.29c0 9.34-7.57 16.91-16.91 16.91" fill="#440908"/></g><g clip-path="url(#everyone_bE)" opacity=".5" transform="matrix(.35278 0 0 -.35278 10.18 211.37)"><path d="M374.12 311.05v-10.29c0-5.68 2.81-10.7 7.11-13.77a16.87 16.87 0 017.12 13.77v10.3c0 5.67-2.82 10.7-7.12 13.76a16.88 16.88 0 01-7.11-13.77" fill="#440908"/></g><path d="M144.28 109.69a1.96 1.96 0 11-3.92 0 1.96 1.96 0 013.92 0" fill="#f8ad7d"/><path d="M141.73 108.6c.34-.09.73.05.99.3.26.26.4.65.31 1a1.61 1.61 0 00-1.3-1.3" fill="#f56449"/><g clip-path="url(#everyone_bF)" opacity=".2" transform="matrix(.35278 0 0 -.35278 10.18 211.37)"><path d="M380.12 288.23a5.55 5.55 0 10-11.1 0 5.55 5.55 0 0011.1 0" fill="#f8ad7d"/></g><path d="M151.97 109.69a1.96 1.96 0 103.92 0 1.96 1.96 0 00-3.92 0" fill="#f8ad7d"/><path d="M154.52 108.6c-.34.07-.63.21-.86.44a1.61 1.61 0 00-.45.86 1.1 1.1 0 01.32-1c.26-.25.65-.39.99-.3" fill="#f56449"/><g clip-path="url(#everyone_bG)" opacity=".5" transform="matrix(.35278 0 0 -.35278 10.18 211.37)"><path d="M401.94 288.23a5.55 5.55 0 1111.1 0 5.55 5.55 0 01-11.1 0" fill="#f56449"/></g><path d="M148.2 117.45a2.49 2.49 0 01-2.5-2.49v-4.64a2.49 2.49 0 114.98 0v4.64a2.49 2.49 0 01-2.48 2.5" fill="#f8ad7d"/><g clip-path="url(#everyone_bH)" opacity=".5" transform="matrix(.35278 0 0 -.35278 10.18 211.37)"><path d="M396.08 282.27v-13.16c0-.3.05-.58.09-.87a7.03 7.03 0 012.12 5.03v13.17c0 .3-.06.58-.1.86a7.03 7.03 0 01-2.11-5.03" fill="#f56449"/></g><g clip-path="url(#everyone_bI)" opacity=".2" transform="matrix(.35278 0 0 -.35278 10.18 211.37)"><path d="M384.3 287.63a7.13 7.13 0 01-.13-1.2v-13.15a7.03 7.03 0 015.1-6.75c.06.4.11.79.11 1.2v13.16c0 3.2-2.15 5.88-5.09 6.74" fill="#f8ad7d"/></g><g clip-path="url(#everyone_bJ)" opacity=".5" transform="matrix(.35278 0 0 -.35278 10.18 211.37)"><path d="M391.03 293.19a7.06 7.06 0 01-7.06-7.06v-5.52a14.68 14.68 0 0114.11-3.29v8.81c0 3.9-3.16 7.06-7.05 7.06" fill="#f56449"/></g><path d="M147.97 112.97a5.2 5.2 0 01-5.2-5.2v-3.17a5.2 5.2 0 0110.4 0v3.16a5.2 5.2 0 01-5.2 5.2" fill="#f8ad7d"/><g clip-path="url(#everyone_bK)" opacity=".2" transform="matrix(.35278 0 0 -.35278 10.18 211.37)"><path d="M375.83 302.66v-8.98a14.7 14.7 0 017.18-12.6 14.69 14.69 0 017.18 12.6v8.98a14.7 14.7 0 01-7.18 12.6 14.7 14.7 0 01-7.18-12.6" fill="#f8ad7d"/></g><g clip-path="url(#everyone_bL)" opacity=".5" transform="matrix(.35278 0 0 -.35278 10.18 211.37)"><path d="M390.58 317.4c-.57 0-1.12-.1-1.67-.17a14.7 14.7 0 0013.07-14.57v-8.98a14.7 14.7 0 00-13.07-14.58c.55-.06 1.1-.17 1.67-.17 8.15 0 14.75 6.6 14.75 14.75v8.98c0 8.14-6.6 14.74-14.75 14.74" fill="#f56449"/></g><path d="M145.9 98.62v1.42a4.63 4.63 0 004.62 4.63h.16c3.3-.12 3.87-4.81.71-5.78l-4.16-1.26c-.67-.2-1.34.3-1.34.99" fill="#440908"/><g clip-path="url(#everyone_bM)" opacity=".5" transform="matrix(.35278 0 0 -.35278 10.18 211.37)"><path d="M400.29 318.82l-11.8 3.6c-.58.17-1.16.14-1.7-.02l11.76-3.58c8.79-2.67 7.4-15.47-1.46-16.28.25-.02.48-.08.74-.08h.45c9.36.32 10.97 13.63 2 16.36" fill="#440908"/></g><g clip-path="url(#everyone_bN)" opacity=".5" transform="matrix(.35278 0 0 -.35278 10.18 211.37)"><path d="M390.58 318.82l-5.7 1.73c-.1-.3-.17-.6-.17-.94v-4.03a13.1 13.1 0 017.81-11.98c5.63 3.3 5.55 12.94-1.94 15.22" fill="#440908"/></g><path d="M151.17 109.23c0 1.07-1.36 1.95-3.05 1.95-1.68 0-3.04-.88-3.04-1.95 0-1.08 1.36 0 3.04 0 1.69 0 3.05-1.08 3.05 0" fill="#fffff1"/><path d="M145.96 106.8a.42.42 0 01-.43-.43v-.85a.43.43 0 01.85 0v.85c0 .23-.19.42-.42.42M150.38 106.8a.43.43 0 01-.42-.43v-.85a.43.43 0 01.85 0v.85c0 .23-.2.42-.43.42" fill="#440908"/><path d="M147.06 106.97c-.32 0-.47.4-.23.6.33.3.79.6 1.3.6.5 0 .96-.3 1.3-.6.23-.21.07-.6-.24-.6z" fill="#f8ad7d"/><g clip-path="url(#everyone_bO)" opacity=".5" transform="matrix(.35278 0 0 -.35278 10.18 211.37)"><path d="M388 295.94c-.9 0-1.3-1.12-.63-1.72.94-.84 2.23-1.67 3.66-1.67 1.44 0 2.74.85 3.68 1.7.67.59.23 1.69-.66 1.69z" fill="#f8ad7d"/></g><ellipse cx="143.23" cy="194.19" rx="24.97" ry="5.55" fill="#2ad4ff"/><ellipse cx="234.23" cy="190.17" rx="19.82" ry="4.4" fill="#95f"/><ellipse ry="5.02" rx="22.59" cy="189.85" cx="43.36" fill="#ffd940"/><path d="M66 185.24c0 5-9.95 9.06-22.23 9.06-12.28 0-22.24-4.06-22.24-9.06 0-2.67-4.16-42.27-4.76-37.1-.24 1.99 2.82 14.35 12.72 20.05 3.94 2.26 3.39-15.52 5.54-12.85 2.48 3.07-1.46 20.48 2.06 18.31 4.38-2.7 11.36-40.44 11.06-37.4-3.74 37.95 7.56 32.1 8.3 32.88 3.65 3.85 9.56 13.27 9.56 16.11z" fill="#ffe680"/><path d="M166.68 193.4c0 2.98-9.95 5.4-22.23 5.4-12.28 0-22.24-2.42-22.24-5.4 0-1.6-4.16-25.2-4.77-22.13-.23 1.2 2.83 8.56 12.73 11.96 3.94 1.35 3.39-9.25 5.54-7.66 2.48 1.83-1.46 12.2 2.06 10.91 4.38-1.6 11.36-24.1 11.06-22.3-3.74 22.63 7.56 19.14 8.3 19.61 3.65 2.3 9.55 7.9 9.55 9.6z" fill="#aef"/><path d="M254.64 186.76c0 3.98-8.67 7.2-19.37 7.2-10.7 0-19.37-3.22-19.37-7.2 0-2.11-3.63-33.56-4.16-29.46-.2 1.58 2.46 11.4 11.1 15.92 3.42 1.8 2.94-12.32 4.81-10.2 2.16 2.44-1.27 16.26 1.8 14.54 3.82-2.14 9.9-32.11 9.63-29.7-3.25 30.14 6.6 25.5 7.24 26.12 3.17 3.05 8.32 10.53 8.32 12.78z" fill="#e5d5ff"/><path d="M86.68 176.15c0 3.8 7.54 6.87 16.85 6.87 9.3 0 16.84-3.08 16.84-6.87 0-2.02 3.16-32.02 3.62-28.1.17 1.5-2.14 10.86-9.65 15.19-2.98 1.71-2.56-11.76-4.19-9.74-1.88 2.33 1.1 15.51-1.56 13.87-3.32-2.04-8.6-30.64-8.38-28.33 2.83 28.75-5.73 24.32-6.3 24.91-2.75 2.91-7.23 10.05-7.23 12.2z" fill="#d5ffd5"/><path d="M246.28 63.15h2c.48 0 .87-.39.87-.87v-2c0-.48-.39-.87-.87-.87h-2c-.48 0-.87.4-.87.87v2c0 .48.39.87.87.87" fill="#c7c0dd" fill-rule="evenodd"/><path d="M246.53 55.6h2c.48 0 .87-.4.87-.87v-2c0-.48-.39-.88-.87-.88h-2c-.48 0-.87.4-.87.88v2c0 .48.39.87.87.87M246.28 71.27h2c.48 0 .87-.4.87-.87v-2c0-.48-.39-.87-.87-.87h-2c-.48 0-.87.39-.87.87v2c0 .48.39.87.87.87" fill="#fff" fill-rule="evenodd"/><path d="M2.11 130.73a49 49 0 01-5.05-.64 49 49 0 013.08-4.05c.1 0 2.03 4.6 1.97 4.69z" fill="#fff"/><path d="M9.2 123.6a49 49 0 01-5.05-.63 49 49 0 013.08-4.05c.1 0 2.03 4.6 1.97 4.69z" fill="#b8b8b8"/><path d="M7.55 115.15a49 49 0 01-5.05-.64 49 49 0 013.08-4.05c.1.02 2.03 4.61 1.97 4.7z" fill="#fff"/><path d="M9.45 137.05a49 49 0 01-5.05-.64 49 49 0 013.08-4.05c.1.01 2.03 4.6 1.97 4.69z" fill="#b8b8b8"/><circle cx="22.08" cy="131.78" r="1.68" fill="#fff"/><circle r="1.68" cy="127.51" cx="14.09" fill="#b8b8b8"/><path d="M146.37 80.35h2c.48 0 .87-.39.87-.87v-2c0-.48-.39-.87-.87-.87h-2c-.48 0-.87.39-.87.87v2c0 .48.39.87.87.87" fill="#c7c0dd" fill-rule="evenodd"/><path d="M132.76 72.8h2c.48 0 .87-.4.87-.88v-2c0-.48-.39-.87-.87-.87h-2c-.48 0-.87.4-.87.88v2c0 .47.39.87.87.87" fill="#fff" fill-rule="evenodd"/><path d="M139.7 72.8h1.99c.48 0 .87-.4.87-.88v-2c0-.48-.39-.87-.87-.87h-2c-.48 0-.87.4-.87.88v2c0 .47.39.87.87.87" fill="#c7c0dd" fill-rule="evenodd"/><path d="M132.5 88.47h2c.49 0 .88-.4.88-.87v-2c0-.48-.4-.88-.87-.88h-2c-.48 0-.87.4-.87.88v2c0 .48.39.87.87.87" fill="#fff" fill-rule="evenodd"/><path d="M139.44 88.47h2c.48 0 .87-.4.87-.87v-2c0-.48-.39-.88-.87-.88h-2c-.48 0-.87.4-.87.88v2c0 .48.39.87.87.87M74.1 148.46h1.99c.48 0 .87-.39.87-.87v-2c0-.48-.39-.87-.87-.87h-2c-.48 0-.87.4-.87.87v2c0 .48.4.87.87.87M87.95 148.46h2c.48 0 .87-.39.87-.87v-2c0-.48-.39-.87-.87-.87h-2c-.48 0-.87.4-.87.87v2c0 .48.4.87.87.87" fill="#c7c0dd" fill-rule="evenodd"/><path d="M74.1 156.58h1.99c.48 0 .87-.4.87-.87v-2c0-.48-.39-.88-.87-.88h-2c-.48 0-.87.4-.87.88v2c0 .48.4.87.87.87" fill="#fff" fill-rule="evenodd"/><path d="M87.64 156.58h2c.48 0 .87-.4.87-.87v-2c0-.48-.4-.88-.87-.88h-2c-.48 0-.88.4-.88.88v2c0 .48.4.87.88.87" fill="#c7c0dd" fill-rule="evenodd"/><path d="M54.23 54.82c-.06.08-5.01-.54-5.05-.64-.04-.1 2.98-4.06 3.08-4.05.1.01 2.03 4.61 1.97 4.7z" fill="#fff"/><path d="M61.32 47.7c-.06.08-5.01-.55-5.05-.64-.04-.1 2.98-4.06 3.08-4.05.1.01 2.03 4.61 1.97 4.7z" fill="#b8b8b8"/><path d="M59.67 39.25c-.06.08-5.01-.55-5.05-.64-.04-.1 2.98-4.06 3.08-4.05.1.01 2.03 4.6 1.97 4.69z" fill="#fff"/><path d="M48.47 45.51c-.06.08-5-.55-5.04-.64-.04-.1 2.97-4.06 3.07-4.05.1.01 2.03 4.61 1.97 4.7z" fill="#b8b8b8"/><circle cx="58.19" cy="60.56" r="1.68" fill="#b8b8b8"/><path d="M204.7 123.51c-.06.08-5-.55-5.05-.64-.04-.1 2.98-4.06 3.08-4.05.1.01 2.03 4.61 1.97 4.7z" fill="#fff"/><path d="M211.8 116.39c-.07.08-5.02-.55-5.06-.64-.04-.1 2.98-4.06 3.08-4.05.1.01 2.03 4.6 1.97 4.69z" fill="#b8b8b8"/><path d="M210.14 107.94c-.06.08-5-.55-5.05-.64-.04-.1 2.98-4.07 3.08-4.05.1.01 2.03 4.6 1.97 4.69z" fill="#fff"/><path d="M218.72 122.22c-.06.08-5-.55-5.04-.64-.04-.1 2.97-4.07 3.07-4.05.1 0 2.03 4.6 1.97 4.69z" fill="#b8b8b8"/><circle r="1.68" cy="129.25" cx="208.66" fill="#b8b8b8"/><path d="M262.65 151.26c-.06.08-5-.55-5.04-.64-.04-.1 2.97-4.07 3.07-4.05.1 0 2.03 4.6 1.97 4.69z" fill="#fff"/><path d="M261.24 142.44a49 49 0 01-5.05-.64c-.04-.1 2.98-4.07 3.08-4.06.1.02 2.03 4.62 1.97 4.7z" fill="#b8b8b8"/><path d="M248.63 145.9a49 49 0 01-5.05-.65c-.04-.1 2.98-4.06 3.08-4.05.1.01 2.03 4.61 1.97 4.7z" fill="#fff"/><path d="M257.21 160.17c-.06.08-5-.55-5.05-.64-.04-.1 2.98-4.06 3.08-4.05.1.01 2.03 4.6 1.97 4.69z" fill="#b8b8b8"/><circle r="1.68" cy="152.12" cx="251.44" fill="#fff"/><circle cx="247.15" cy="167.2" r="1.68" fill="#b8b8b8"/><path d="M245.08 155.98c-.06.08-5.01-.54-5.05-.64-.04-.1 2.98-4.06 3.08-4.05.1.01 2.03 4.61 1.97 4.7zM273.8 142.56c-.06.09-5-.54-5.04-.64-.04-.09 2.97-4.06 3.07-4.05.1.02 2.03 4.61 1.97 4.7z" fill="#fff"/><circle r="1.68" cy="132.05" cx="265.86" fill="#b8b8b8"/><circle r="1.68" cy="120.28" cx="-.23" fill="#fff"/></g></svg>