<svg xmlns="http://www.w3.org/2000/svg" xmlns:xlink="http://www.w3.org/1999/xlink" viewBox="0 0 160.97 166.27"><defs><linearGradient xlink:href="#mascot_a" id="mascot_c" x1="284.16" y1="69.93" x2="256.59" y2="382.82" gradientUnits="userSpaceOnUse"/><linearGradient id="mascot_a"><stop offset="0" stop-color="#bdceee"/><stop offset="1" stop-color="#ff96ca"/></linearGradient><linearGradient xlink:href="#mascot_a" id="mascot_e" gradientUnits="userSpaceOnUse" x1="284.16" y1="69.93" x2="256.59" y2="382.82"/><linearGradient xlink:href="#mascot_a" id="mascot_d" gradientUnits="userSpaceOnUse" x1="284.16" y1="69.93" x2="256.59" y2="382.82"/><clipPath clipPathUnits="userSpaceOnUse" id="mascot_f"><path d="M345.52 424.97h42.45v-22.46h-42.45z"/></clipPath><clipPath clipPathUnits="userSpaceOnUse" id="mascot_b"><path d="M0 500h750V0H0z"/></clipPath></defs><g transform="translate(-14 -52.85)"><g transform="matrix(.35278 0 0 -.35278 -7.59 231.11)" clip-path="url(#mascot_b)" fill="url(#mascot_c)"><path d="M-186.08-3.75c-19.43 0-21.1-15.9-21.1-35.34 0-35.47-29.01-60.74-64.48-60.74h-246.88c-46.07 0-83.77 37.7-83.77 83.77 0 46.08 37.7 83.77 83.77 83.77h2.2c9.25 0 16.81 7.57 16.81 16.82 0 9.24-7.56 16.8-16.8 16.8h-9.25a40.99 40.99 0 00-40.87 40.88 40.99 40.99 0 0040.79 40.86h39.87a35.45 35.45 0 0135.35 35.35c0 35.46 29.02 64.48 64.48 64.48h142.86c46.08 0 83.77-37.7 83.77-83.77 0-46.07-37.7-83.77-83.77-83.77a16.86 16.86 0 01-16.81-16.81c0-9.25 7.58-16.2 16.81-16.81l57.02-3.75c53.36-3.51 53.48-81.74 0-81.74" fill="url(#mascot_e)" fill-rule="evenodd" transform="translate(663.53 183.1)"/></g><path d="M20.53 219.12a2.58 2.58 0 002.57-2.58v-.21a2.58 2.58 0 00-2.57-2.58 2.58 2.58 0 00-2.58 2.58v.21a2.58 2.58 0 002.58 2.58m-2.01-17.38h148.52a3.87 3.87 0 013.87 3.86 3.87 3.87 0 01-3.87 3.86h-13.03a2.15 2.15 0 000 4.3h4.77a2.7 2.7 0 012.68 2.67 2.7 2.7 0 01-2.68 2.69H27.21a2.69 2.69 0 01-2.68-2.69c0-1.47 1.2-2.68 2.68-2.68h3.75c1.18 0 2.15-.96 2.15-2.14 0-1.18-.97-2.15-2.15-2.15H18.52a3.87 3.87 0 01-3.86-3.86 3.87 3.87 0 013.86-3.86" fill="#1f1f1f" fill-rule="evenodd"/><path d="M109.83 115.89a.17.17 0 11.25-.23c.04.04 15.77 16.22-2.24 34.22a.17.17 0 01-.24 0 .17.17 0 010-.24c17.77-17.77 2.28-33.7 2.23-33.75" fill="#350a3d" fill-rule="evenodd"/><path d="M108.39 91.24c-8.38 7-4.3 19.8 2.5 26.54 7.88 7.8 10.74 20.3-3.22 29.84-13.95 9.54 7.7 17.52 16.1 6.94 8.42-10.58 11.5-36.28 10.92-42.68-.59-6.4-.36-9.19-5.19-11.96-4.83-2.78-21.11-8.68-21.11-8.68" fill="#350a3d" fill-rule="evenodd"/><path d="M87.46 136.35s-1.21-1.61-1.46-1.86c-.24-.24-1.85-.29-2.82-.36-.96-.06-1.14.81-1.16 1.17-.02.36-.07.8-.07.8s-5.53.46-5.94.55c-.4.09-.93 1.63-1.05 1.95-.1.3.1 1.02.52 1.06.41.03.94-.21 1.1-.48.17-.27.32.1.32.1s-.43.71-.45 1.23c-.02.51.1.78.5.96.42.18 1.07.3 1.07.3s.02.85.16 1.16c.15.32.2.45.83.64.64.2 2.89.72 2.89.72z" fill="#cb6459" fill-rule="evenodd"/><path d="M78 141.9a.13.13 0 01-.12-.15.13.13 0 01.16-.11l1.08.17c.07.01.12.08.1.15a.13.13 0 01-.15.12z" fill="#b24949" fill-rule="evenodd"/><path d="M136.35 190.61s-1.43 11.13-10.73 11.13h-10.47c-3.85 0-12.7-9.87-19.5-18.46-6.8-8.59-10.03-14.67-10.03-14.67-1.64 2.8-19.22 16.83-23.33 20.48-.8.72-4.3 4.79-4.93 4.79 0 0-4.65.31-8.14-2.1 0 0 1.11-4.72 1.34-5.01 10.47-13.07 22.12-27.77 27.9-33.61 5.78-5.85 11.71-2.62 25.13 6.86 13.42 9.48 32.76 30.6 32.76 30.6M73.88 133.28l.32-.35a.68.68 0 01.96-.04l10.05 9.34c.27.26.29.69.03.96l-.32.35a.68.68 0 01-.96.04l-10.05-9.34a.68.68 0 01-.03-.96" fill="#350a3d" fill-rule="evenodd"/><path d="M95.32 141.68s-1.22-.56-1.65-.83c-.42-.27-3.69-4.4-4.11-4.58-.43-.18-3.38-.5-3.8-.5-.43 0-1.05.4-1.25.85-.2.45-.54 1.73-.54 1.73l-5.49.13-1.25-1.16s-.46.16-.64.42c-.18.25-.2 1.02-.17 1.42.02.39.75 1.35.95 1.56.2.21.7.34 1.07.4 0 0 0 .92.75 1.23l1.69.73s.05.78.6 1.14c.56.36 2.06 1.5 2.06 1.5s.54.21.9.19c0 0 .42.9 1.11 1.2.7.29 3.2 1.38 3.56 1.47.36.1 1.75-.16 3.11.63 1.36.78 1.54.83 1.54.83l2.55-7.03z" fill="#e6ad83" fill-rule="evenodd"/><path d="M50.63 200.74s-20.7.49-21.5-1v-1.97c0-.78.94-1.92 3.52-2.66 2.57-.74 8.06-2.17 9.75-2.69 1.68-.52 6.52-5.8 7.2-6.44.69-.64 3.9 1.43 4.58 1.78.68.34.23 1.18-.12 2.17-.34.99-3.43 10.8-3.43 10.8" fill="#b02539" fill-rule="evenodd"/><path d="M29.13 201.74h33.11c.4 0 .72-.19.72-.41v-1.17c0-.23-.32-.41-.72-.41H29.13c-.4 0-.72.18-.72.4v1.18c0 .22.32.4.72.4" fill="#ecd8da" fill-rule="evenodd"/><path d="M29.13 201.74h11.25c.4 0 .71-.19.71-.41v-1.17c0-.23-.32-.41-.7-.41H29.12c-.4 0-.72.18-.72.4v1.18c0 .22.32.4.72.4" fill="#df9aa3" fill-rule="evenodd"/><path d="M43.77 193.06c.11.35 1.14 2.07.43 2.5-.72.41-3 1.92-4.3 1.92h-7.4c-3.4 0-2.61-1.03-2.61-1.03-.54.47-.76.94-.76 1.32v1.98h33.11s1.4-1.4 1.4-4.71.19-5.21-.37-5.74c-.56-.53-.94-.26-.94-.26-2.57 1.92-5.7.54-7.32-.22l-.5-.25c-1.32-.68-2.13-1.29-3.3-.71-1.32.64-5.95 3.47-6.7 3.92-.74.44-.86.94-.74 1.28" fill="#b02539" fill-rule="evenodd"/><path d="M29.13 198.26v1.49h33.11s1.4-1.4 1.4-4.71.19-5.21-.37-5.74c.08 1.06-.57 2.24-1.72 2.24h-6.6c-2.42 0-2.9 1.12-2.9 1.12l-2.11 3.57c-.88 1.48-2.35 2.48-3.42 2.48H30.59c-.75 0-1.2-.2-1.46-.45" fill="#c73048" fill-rule="evenodd"/><path d="M46.7 188.92c.2-.18.38-.37.56-.55l1.8 1.16c.13.1.18.25.1.36-.07.11-.24.13-.38.04l-1.49-.96.61 1.52a.21.21 0 01-.16.3.34.34 0 01-.36-.2zm-1.43 1.38l1.45.93c.14.1.31.07.39-.04.07-.1.02-.27-.11-.35l-1.37-.88-.36.34m-.44.39l.42-.38.6 1.48a.21.21 0 01-.17.3.34.34 0 01-.36-.2zm6.02-2.06c.13.1.3.07.38-.04.07-.1.02-.27-.11-.36l-2.08-1.34-.1-.24-.45.47.1.06.85 2.11c.05.14.22.23.36.2a.21.21 0 00.16-.3l-.6-1.52z" fill="#cf4a60" fill-rule="evenodd"/><path d="M98.38 142.8l-2.15-1.22s-.45-.11-.76.04c0 0-.54 5.5-3.11 7.59 0 0-.07.35.12.53.2.18 2.5 1.79 2.5 1.79s.96.17 1.85-.41c.9-.58 2.9-4.45 2.86-4.94-.04-.5-1.31-3.37-1.31-3.37" fill="#d4a037" fill-rule="evenodd"/><path d="M142.24 190.61s-1.43 11.13-10.73 11.13h-10.47c-3.84 0-12.7-9.87-19.5-18.46-6.8-8.59-10.03-14.67-10.03-14.67-1.64 2.8-19.22 16.83-23.33 20.48-.8.72-4.3 4.79-4.93 4.79 0 0-4.65.31-8.14-2.1 0 0 1.11-4.72 1.34-5.01 10.47-13.07 22.12-27.77 27.9-33.61 5.78-5.85 11.71-2.62 25.13 6.86 13.42 9.48 32.76 30.6 32.76 30.6" fill="#472055" fill-rule="evenodd"/><path d="M121.94 134.44l-.92-.78s-5.07 10.97-6.15 17.24c-1.07 6.26 3.67 5.54 3.67 5.54s3.4-1.96 3.49-4.47c.09-2.5-.1-17.53-.1-17.53" fill="#d4a037" fill-rule="evenodd"/><path d="M127.13 97.08s4.97 7.86 12.45 11.04c0 0 .86 5.44-2.86 7.76-3.71 2.31-9.43.43-9.43.43l-3.78-5.54z" fill="#e6ad83" fill-rule="evenodd"/><path d="M124.4 112.08l-.59-.88c.51-2.09 1.39-5.73 1.39-5.98 0-.36 2.37-3.76 2.37-3.76l1.92.05-.04 7.56z" fill="#cb6459" fill-rule="evenodd"/><path d="M145.52 121.65s14.31 25.44 1.43 63.7c0 0-1.34 3.4-1.16 6.25.17 2.87-9.67 4.39-14.05-3.22-4.38-7.6-1.43-7.33-6.26-12.07-4.83-4.75-12.44-10.56-12.44-10.56s2.06-3.76 6.17-4.47c0 0 0-2.42 1.4-2.91 0 0-2.3-8.23-2.11-13.87.18-5.63 3.4-15.3 8.85-22.45 0 0 .67-2.1-.18-3.71-.84-1.61-.98-2.24-.58-3.05 0 0 1.61 0 2.96-.98 1.34-.98 4.7-1.07 4.7-1.07z" fill="#f3ce63" fill-rule="evenodd"/><path d="M140.9 193.94a10.88 10.88 0 01-9.16-5.56c-4.38-7.6-1.43-7.33-6.26-12.07-4.83-4.75-12.44-10.56-12.44-10.56s2.06-3.76 6.17-4.47c0 0 0-2.42 1.4-2.91l-.04-.12 10.8 3.8 11.46-16.82 1.88 5.16s-7.79 23.82-9.4 28.83c-1.46 4.55-1.74 11.02 5.6 14.72" fill="#d4a037" fill-rule="evenodd"/><path d="M128.37 135.16c-2.53 9.2-1.88 19.05-1.88 19.05s-.92-.51-.99.85c-4.09-4.57-13.23-3.76-21.76-12.34-1.66-1.68-5.36.09-5.36.09s.89 4.96-3.4 8.72c0 0-1.44 5.19 6.88 9.84 8.32 4.65 17.1 6 21.92 9.4 4.83 3.39 8.77 2.76 11.63-.28 2.86-3.04 12.61-24.42 11.45-32.47-1.93-13.36-15.96-12.07-18.5-2.86" fill="#f3ce63" fill-rule="evenodd"/><path d="M126.5 147.6a68.8 68.8 0 0117.52 4.85c-.3.85-.61 1.7-.93 2.54a65.6 65.6 0 00-16.67-4.68c0-.8.03-1.72.08-2.7m.45-5.13c-.12.92-.21 1.82-.28 2.68a65.52 65.52 0 0118.11 5.01c.28-.88.55-1.75.79-2.6a68.73 68.73 0 00-18.62-5.1" fill="#fff" fill-rule="evenodd"/><path d="M109.47 91.31s-2.64 2.31-.81 7.2c1.82 4.88 3.14 6.84 1.39 9.08 0 0-.23.4.09.66.31.26 1.45.7 2.1 1.05.65.35 2.99 3.86 4.42 4.95 1.43 1.1 4.57.23 7.2-2.83s4.7-10.58 3.8-13.57c-.92-3-12.94-7.71-18.19-6.54" fill="#e6ad83" fill-rule="evenodd"/><path d="M120.5 98.35s-5.04 1.87-9.5-1c-4.46-2.88-6.12-7.11-2.25-10.88 3.88-3.76 13.05-8.65 20.86-3.1 7.82 5.56 4.06 13.97 15.68 18.9 6.12 2.61 10.91 4.4 14.02 7.72 16.73 17.94-15.72 44.26-27.07 20.32-7.47-15.75 1.06-28.67-11.74-31.96" fill="#472055" fill-rule="evenodd"/><path d="M56.52 200.74s-20.7.49-21.5-1v-1.97c0-.78.94-1.92 3.52-2.66 2.57-.74 8.06-2.17 9.75-2.69 1.68-.52 6.52-5.8 7.2-6.44.69-.64 3.9 1.43 4.58 1.78.69.34.23 1.18-.11 2.17-.35.99-3.44 10.8-3.44 10.8" fill="#cf4a60" fill-rule="evenodd"/><path d="M35.02 201.74h33.12c.39 0 .7-.19.7-.41v-1.17c0-.23-.31-.41-.7-.41H35.02c-.4 0-.72.18-.72.4v1.18c0 .22.32.4.72.4" fill="#f2dbdf" fill-rule="evenodd"/><path d="M35.02 201.74h11.25c.4 0 .72-.19.72-.41v-1.17c0-.23-.33-.41-.72-.41H35.02c-.4 0-.72.18-.72.4v1.18c0 .22.32.4.72.4" fill="#fff" fill-rule="evenodd"/><path d="M49.66 193.06c.11.35 1.14 2.07.43 2.5-.72.41-3 1.92-4.3 1.92h-7.4c-3.4 0-2.61-1.03-2.61-1.03-.54.47-.76.94-.76 1.32v1.98h33.11s1.4-1.4 1.4-4.71.2-5.21-.37-5.74c-.55-.53-.94-.26-.94-.26-2.57 1.92-5.7.54-7.32-.22l-.5-.25c-1.32-.68-2.13-1.29-3.3-.71-1.32.64-5.95 3.47-6.7 3.92-.74.44-.85.94-.74 1.28" fill="#c73048" fill-rule="evenodd"/><path d="M35.02 198.26v1.49h33.11s1.4-1.4 1.4-4.71.2-5.21-.37-5.74c.08 1.06-.57 2.24-1.72 2.24h-6.6c-2.42 0-2.9 1.12-2.9 1.12l-2.11 3.57c-.88 1.48-2.35 2.48-3.42 2.48H36.48c-.75 0-1.2-.2-1.46-.45" fill="#bd263e" fill-rule="evenodd"/><path d="M52.6 188.92l.55-.55 1.8 1.16c.13.1.18.25.1.36-.07.11-.24.13-.37.04l-1.5-.96.61 1.52c.06.14-.01.27-.16.3a.34.34 0 01-.36-.2zm-1.44 1.38l1.46.93c.13.1.3.07.38-.04.07-.1.02-.27-.11-.35l-1.37-.88-.36.34m-.44.39l.42-.38.6 1.48a.21.21 0 01-.17.3.34.34 0 01-.36-.2zm6.02-2.06c.13.1.3.07.38-.04.07-.1.03-.27-.11-.36l-2.08-1.34-.1-.24-.45.47.1.06.85 2.11c.06.14.22.23.36.2a.21.21 0 00.16-.3l-.6-1.52z" fill="#fff" fill-rule="evenodd"/><path d="M81.82 136.08a.13.13 0 01.27.04l-.12.9c0 .1.01.23.1.34.05.07.15.14.3.17h.2a1.93 1.93 0 001.7-1.57c.06-.25.07-.53.05-.86-.01-.07.04-.14.12-.14.07-.01.14.04.14.12.04.35.02.66-.04.94a2.18 2.18 0 01-.85 1.35c-.38.28-.8.4-1.1.43a1 1 0 01-.27 0 .77.77 0 01-.47-.28.76.76 0 01-.14-.52c.01-.21.1-.91.1-.92" fill="#b24949" fill-rule="evenodd"/><path d="M84.36 136.41a.14.14 0 01-.16-.1.14.14 0 01.1-.16s.47-.12.62-.72c.02-.07.1-.11.17-.1.07.02.11.1.1.17-.2.76-.83.91-.83.91" fill="#b24949" fill-rule="evenodd"/><path d="M83.97 138.48a.13.13 0 010-.27l2.99-.02c.07 0 .13.06.13.13s-.06.14-.13.14z" fill="#cb6459" fill-rule="evenodd"/><path d="M85.82 138.2a.13.13 0 11-.1.26s-.67-.25-.88-.97a.13.13 0 01.26-.07c.17.59.72.78.72.79M78.43 141.25a.14.14 0 01.02-.27l3.23.25c.07 0 .13.07.12.14 0 .08-.07.13-.14.13zM80.83 143.2a.13.13 0 01-.07-.17c.02-.07.1-.1.17-.07l1.82.75c.07.03.1.1.07.18-.03.07-.1.1-.17.07zM84.44 146.04a.13.13 0 01-.14-.13c0-.07.06-.13.13-.13l.72-.03c.07 0 .13.05.14.12 0 .08-.06.14-.13.14z" fill="#cb6459" fill-rule="evenodd"/><path d="M75.3 134.36l.08-.08a.16.16 0 01.23-.01l2.36 2.19c.06.06.06.16 0 .22l-.07.09a.16.16 0 01-.23 0l-2.35-2.19a.16.16 0 01-.01-.22" fill="#472055" fill-rule="evenodd"/><path d="M129.69 183.91a.17.17 0 11-.11.32 9.03 9.03 0 01-1.42-.64c-.47-.26-.95-.58-1.44-.95-5.96-4.54-29.98-23.7-30.32-23.97-.23-.13-3.22-1.74-5.98.18-2.94 2.05-26.56 28.25-26.63 28.33a.17.17 0 11-.25-.23c.07-.07 23.72-26.31 26.69-28.38 2.94-2.05 6.13-.31 6.34-.2l.03.03c.07.05 24.34 19.41 30.33 23.97.48.37.94.67 1.4.92.47.27.92.47 1.36.62" fill="#350a3d" fill-rule="evenodd"/><path d="M58.91 183.72a.17.17 0 01.19-.28c.01.01 5.78 3.78 7.34 6.38a.17.17 0 01-.3.18c-1.5-2.54-7.21-6.27-7.23-6.28M91.6 168.98a.17.17 0 01-.32-.14s.85-1.9.85-3.95a.17.17 0 11.34 0c0 2.12-.88 4.08-.88 4.09" fill="#350a3d" fill-rule="evenodd"/><path d="M126.65 154.14c-.04-.8-.54-10.15 1.88-18.94a.17.17 0 10-.33-.09c-2.3 8.37-1.98 17.25-1.9 18.86-.3-.08-.77-.06-.92.71-1.78-1.81-4.38-2.75-7.42-3.85-4.2-1.52-9.25-3.35-14.1-8.23-1.75-1.76-5.55.05-5.56.05a.17.17 0 00-.08.23c.04.08.14.12.23.08 0 0 3.6-1.72 5.17-.13 4.9 4.94 10 6.78 14.23 8.32 3.13 1.13 5.8 2.1 7.52 4.01a4 4 0 01.5 1.22.17.17 0 10.34-.07 4.4 4.4 0 00-.53-1.3c.06-.91.6-.71.7-.66a3 3 0 01.54.83.17.17 0 10.32-.09c-.1-.34-.47-.8-.59-.95m-31.84-2.65c.02-.1.12-.15.2-.13.1.03.15.12.13.2 0 .02-1.4 5.07 6.8 9.66 4.17 2.33 8.46 3.83 12.3 5.17 3.83 1.34 7.22 2.53 9.64 4.23 2.28 1.61 4.36 2.3 6.2 2.26 2-.04 3.75-.95 5.2-2.5 1.52-1.62 5-8.45 7.74-15.69 2.02-5.33 3.63-10.87 3.76-14.71 0-.1.08-.17.17-.16.1 0 .17.08.17.17-.14 3.88-1.76 9.46-3.78 14.82-2.76 7.28-6.27 14.16-7.8 15.8a7.6 7.6 0 01-5.44 2.61c-1.92.04-4.07-.67-6.42-2.32-2.38-1.68-5.75-2.86-9.55-4.19-3.86-1.35-8.16-2.85-12.35-5.2-8.43-4.71-6.97-10-6.97-10.02" fill="#d4a037" fill-rule="evenodd"/><path d="M116.56 103.65a2.06 2.06 0 101.3 3.9 2.06 2.06 0 00-1.3-3.9" fill="#cb6459" fill-rule="evenodd"/><path d="M113.62 99.94c-.74-.08-1.54.1-2.03.7a.32.32 0 01-.5-.42 2.94 2.94 0 012.6-.92c.18.02.3.18.29.36a.32.32 0 01-.36.28M113.06 101.7a.76.76 0 01.52 0c.04-.03.12-.1.14-.21a.12.12 0 01.13-.1c.07 0 .12.07.1.13a.53.53 0 01-.15.3l.01.01a.57.57 0 00.24-.29c.02-.06.09-.1.15-.07.06.02.1.1.07.16a.79.79 0 01-.25.35c.1-.04.22-.12.3-.23a.12.12 0 11.2.15c-.1.12-.2.2-.31.26l-.15.08.3.86c.14.4-.07.84-.46.98a.76.76 0 01-.97-.47l-.33-.94a.76.76 0 01.46-.97" fill="#350a3d" fill-rule="evenodd"/><path d="M107.11 92.2a.17.17 0 01.14-.2c.1-.01.18.05.2.14 0 .03 1.53 10.3 12.74 6.35.09-.03.19.02.22.1a.17.17 0 01-.1.22c-11.6 4.1-13.2-6.59-13.2-6.62" fill="#472055" fill-rule="evenodd"/><path d="M120.05 99.3c.29-5.68 7.85-1 3.57 3.54 0 0-3.06-.23-3.57-3.53" fill="#e6ad83" fill-rule="evenodd"/><path d="M120.22 99.32c0 .09-.08.16-.17.16a.17.17 0 01-.16-.18c.07-1.47.61-2.28 1.33-2.61.62-.29 1.37-.2 2.03.16a3.6 3.6 0 011.57 1.74c.52 1.21.4 2.8-1.08 4.36a.17.17 0 01-.24.01.17.17 0 010-.24c1.36-1.44 1.48-2.9 1.01-4-.3-.7-.83-1.25-1.42-1.57-.58-.31-1.2-.4-1.73-.16-.6.28-1.07 1-1.14 2.33" fill="#cb6459" fill-rule="evenodd"/><path d="M133.6 88.69a.17.17 0 11.3-.13c.02.02 3.25 7.77 8.22 10.88 1.6 1 3.52 1.9 5.42 2.8 4.07 1.9 8.11 3.8 9.23 6.72a.17.17 0 01-.32.12c-1.07-2.79-5.05-4.66-9.05-6.54-1.92-.9-3.84-1.8-5.46-2.82-5.06-3.16-8.33-11.01-8.34-11.03" fill="#472055" fill-rule="evenodd"/><path d="M107.58 87.86c.31-.46.7-.93 1.17-1.39.78-.75 1.76-1.54 2.9-2.3 6.74 7.6 16.65 6.66 22.73 5.08.2.4.37.8.54 1.2-17.02 6.35-24.46 1.05-27.34-2.59" fill="#542763" fill-rule="evenodd"/><path d="M76 122.89c.54-.54 1.41-.54 1.94 0l.49.48.48-.48a1.37 1.37 0 011.94 1.94l-.48.48-1.94 1.93-1.94-1.93-.48-.49a1.37 1.37 0 010-1.93M149.98 88.66c-.79.18-1.59.45-2.3.82a7.94 7.94 0 003.82 2.51 7 7 0 01-.88-1.46 11.4 11.4 0 01-.64-1.87m9.87.82c-.72-.37-1.52-.64-2.3-.82-.17.64-.38 1.27-.65 1.87-.23.5-.52 1.02-.88 1.46a7.94 7.94 0 003.83-2.51m-2.2-8.95c.84-.2 1.7-.5 2.45-.93a8.03 8.03 0 00-4.08-2.83c.36.45.65.96.88 1.47.33.73.57 1.5.75 2.3m-10.22-.94c.74.43 1.6.73 2.44.93.18-.78.42-1.56.75-2.29.23-.5.52-1.02.88-1.47a7.94 7.94 0 00-4.07 2.83m5.86 1.37v-4.44c-.85.3-1.47 1.36-1.8 2.1-.3.67-.53 1.38-.7 2.1.83.14 1.66.22 2.5.24m0 11.26v-3.98c-.8.02-1.6.09-2.39.22.15.57.34 1.13.58 1.66.34.74.96 1.8 1.8 2.1m.96-3.98v3.98c.84-.3 1.46-1.36 1.8-2.1.24-.53.43-1.09.58-1.66-.79-.13-1.59-.2-2.38-.22m0-11.72v4.44c.83-.02 1.66-.1 2.48-.24-.16-.72-.38-1.43-.68-2.1-.34-.74-.96-1.8-1.8-2.1m3.82 7.38h3.62a7.9 7.9 0 00-1.06-3.52c-.85.5-1.83.84-2.79 1.07.13.81.2 1.63.23 2.45m-1.16-2.25c-.88.15-1.77.24-2.66.26v1.99h2.87a16.9 16.9 0 00-.2-2.25m-6.3 0c-.11.74-.18 1.5-.2 2.25h2.88v-1.99c-.9-.02-1.8-.1-2.67-.26m-4.78 2.25h3.62c.02-.82.1-1.64.23-2.45-.96-.23-1.94-.57-2.8-1.07a7.88 7.88 0 00-1.05 3.52m3.62.95h-3.62a7.9 7.9 0 001.27 3.85 10.8 10.8 0 012.66-.97 17.7 17.7 0 01-.3-2.88m3.82 0h-2.88c.03.9.11 1.8.28 2.69a17.7 17.7 0 012.6-.25zm3.82 0h-2.87v2.44c.86.02 1.73.1 2.59.25.17-.89.26-1.8.28-2.7m4.57 0h-3.62c-.03.97-.12 1.94-.3 2.89.9.21 1.83.52 2.66.97a7.88 7.88 0 001.26-3.85m-7.92-9.36a8.86 8.86 0 018.89 8.88 8.86 8.86 0 01-8.89 8.89 8.86 8.86 0 01-8.88-8.89 8.86 8.86 0 018.88-8.88" fill="#fff" fill-rule="evenodd"/><path d="M32.92 117.7h2c.48 0 .88-.39.88-.87v-2c0-.48-.4-.87-.88-.87h-2c-.48 0-.87.4-.87.87v2c0 .48.4.88.87.88M39.85 117.7h2c.48 0 .88-.39.88-.87v-2c0-.48-.4-.87-.88-.87h-2c-.48 0-.87.4-.87.87v2c0 .48.4.88.87.88M46.78 117.7h2c.48 0 .88-.39.88-.87v-2c0-.48-.4-.87-.88-.87h-2c-.48 0-.87.4-.87.87v2c0 .48.4.88.87.88M40.1 110.15h2c.48 0 .88-.4.88-.88v-2c0-.47-.4-.87-.88-.87h-2c-.48 0-.87.4-.87.88v2c0 .48.4.87.87.87" fill-rule="evenodd" fill="#b8b8b8"/><path d="M47.04 110.15h2c.47 0 .87-.4.87-.88v-2c0-.47-.4-.87-.88-.87h-2c-.48 0-.87.4-.87.88v2c0 .48.4.87.88.87" fill="#fff" fill-rule="evenodd"/><path d="M53.97 110.15h2c.47 0 .87-.4.87-.88v-2c0-.47-.4-.87-.88-.87h-2c-.48 0-.87.4-.87.88v2c0 .48.4.87.88.87" fill-rule="evenodd" fill="#b8b8b8"/><path d="M26.36 181.32h2c.48 0 .88-.39.88-.87v-2c0-.48-.4-.87-.88-.87h-2c-.48 0-.87.39-.87.87v2c0 .48.4.87.87.87" fill="#c7c0dd" fill-rule="evenodd"/><path d="M33.3 181.32h2c.47 0 .87-.39.87-.87v-2c0-.48-.4-.87-.88-.87h-2c-.48 0-.87.39-.87.87v2c0 .48.4.87.87.87" fill="#fff" fill-rule="evenodd"/><path d="M40.22 181.32h2c.48 0 .88-.39.88-.87v-2c0-.48-.4-.87-.88-.87h-2c-.48 0-.87.39-.87.87v2c0 .48.4.87.87.87" fill="#c7c0dd" fill-rule="evenodd"/><path d="M26.61 173.77h2c.48 0 .88-.4.88-.88v-2c0-.48-.4-.87-.88-.87h-2c-.48 0-.87.4-.87.87v2c0 .48.4.88.87.88" fill="#fff" fill-rule="evenodd"/><path d="M33.54 173.77h2c.48 0 .88-.4.88-.88v-2c0-.48-.4-.87-.88-.87h-2c-.48 0-.87.4-.87.87v2c0 .48.4.88.87.88" fill="#c7c0dd" fill-rule="evenodd"/><path d="M26.36 189.44h2c.48 0 .88-.4.88-.88v-2c0-.47-.4-.87-.88-.87h-2c-.48 0-.87.4-.87.88v2c0 .48.4.87.87.87" fill="#fff" fill-rule="evenodd"/><path d="M33.3 189.44h2c.47 0 .87-.4.87-.88v-2c0-.47-.4-.87-.88-.87h-2c-.48 0-.87.4-.87.88v2c0 .48.4.87.87.87" fill="#c7c0dd" fill-rule="evenodd"/><circle r="1.68" cy="71.64" cx="142.52" fill="#b8b8b8"/><g transform="matrix(.35278 0 0 -.35278 -76.37 221.8)"><rect rx="10.24" transform="scale(1 -1)" y="-431.48" x="620.98" height="67.79" width="67.79" fill="#afa"/><path d="M673.64 394.86c-3.37 8.16-12.52 20.23-12.52 20.23s-21.65-12.07-25.02-20.23c0 0-3-.6-2.49-4.08.62-4.25 4.08-4.79 5.68-3.37-.18-4.8 3.83-16.68 15.58-16.86 11.75.18 15.75 12.07 15.58 16.86 1.6-1.42 5.14-.89 5.67 3.37.54 4.26-2.48 4.08-2.48 4.08" fill="#ffae8d"/><path d="M666.4 404.98s-2.47-5.86-8.52-10.65c-6.05-4.8-8.53-4-6.33 0-5.22-5.32-9.9-3.73-7.15 2.4-3.3-5.06-4.4-4-5.23-2.13-.55 1.33-3.02.26-3.02.26s-5.19 7.48-.4 18.63c5.4 12.6 24.3 14.02 29.25 6.7 3.3 2.94 9.33.6 10.93-11.2 1.2-8.77-2.3-14.13-2.3-14.13s-1.87.53-3.1-1.86c-.78-1.54-4.12-2.13-4.12 11.98" fill="#9f857a"/><g clip-path="url(#mascot_f)" opacity=".3" transform="translate(288.21 -11.48)"><path d="M347.93 406.34s2.48 1.07 3.03-.27c.83-1.86 1.93-2.92 5.23 2.13-2.75-6.12 1.92-7.71 7.15-2.4-2.2-3.98.28-4.78 6.33 0a30.2 30.2 0 018.53 10.65c0-14.1 3.33-13.5 4.12-11.97 1.23 2.4 3.1 1.86 3.1 1.86s3.5 5.36 2.3 14.14c-.12.88-.27 1.69-.43 2.47.37-3.77-6.14-5.24-9.77 1.02-1.78-4.79-9.94-6.74-10.1-2.13-3.54-2.83-11.02-4.61-9.7.71-7.03-6.38-10.19 2.42-10.19 2.42l-1.52-4.8c-1.78-8.44 1.92-13.83 1.92-13.83" fill="#21456f"/></g><path d="M637.83 392.82s-2.86 0-1.82-3.57c.72-2.5 2.04-7.36 2.57-7.8.53-.45.89.52.35 2.39-.53 1.86-1.4 5.14-1.4 5.14s2.1.89.3 3.84" fill="#17324d"/><g><path d="M671.92 392.82s2.86 0 1.81-3.57c-.72-2.5-2.04-7.36-2.57-7.8-.53-.45-.89.52-.35 2.39.53 1.86 1.4 5.14 1.4 5.14s-2.1.89-.3 3.84" fill="#17324d"/></g></g><g transform="matrix(.35278 0 0 -.35278 -62.9 231.11)"><rect width="67.79" height="67.79" x="407.65" y="-476.23" transform="scale(1 -1)" rx="10.24" fill="#fca"/><path d="M460.46 438.27c-3.38 8.16-8.48 23.74-8.48 23.74s-21.83-6.39-29.07-23.74c0 0-3-.6-2.48-4.09.62-4.24 4.08-4.79 5.68-3.37-.18-4.79 3.83-16.68 15.57-16.86 11.75.18 15.76 12.07 15.58 16.86 1.6-1.42 5.15-.88 5.68 3.37.53 4.26-2.48 4.09-2.48 4.09" fill="#ffae8d"/><path d="M448.96 455.62s-.97 1.2-3.77-1.73c-4.58-4.79-8.68-24.38-12.92-17.18 0 0-2.46-7.42-6.28 1.29-.63 6.04 6.43 7.51 6.43 7.51s15.6 14.35 15.38 14.96c-.21.61 1.16-4.85 1.16-4.85" fill="#ed8b6f"/><path d="M463.07 442.11c5.59 23.45-11.68 27.11-21.53 26.82-8.59-.26-26.38-3.02-21.52-26.82-2.06-.76-3.87-2.64-3.87-6.92 0-8.82 6.02-8.49 9.8-7.25-.3 3.02 0 14.2 0 14.2s-1.9.58-4.02.39c-.67 5.14-2.16 22 19.61 22.5 23.65.53 20.29-17.36 19.62-22.5-2.12.19-4.02-.4-4.02-.4s.3-11.17 0-14.19c3.78-1.24 9.8-1.57 9.8 7.25 0 4.28-1.81 6.16-3.87 6.92" fill="#17324d"/><path d="M461.83 453.63c-.92 6.79-3.5 8.39-6 9.71 1.27.72 4.36 3.03 2.71 4.69-2.3 2.32-4.79.37-6.47-2.47 0 0 .26 5.32-3.1 5.14-2.86-.15-2.15-2.9-.59-5.1-5.58 3.3-20.34 2.22-24.88-8.38-4.78-11.15-.54-18.95-.54-18.95s2.31-4.5 3.03-.27c.68-1.92 3.8-5.62 5.23 2.13 4.07-9.88 5.55 4.78 11.44 12.97 5.14 7.13 6.3 2.52 6.3 2.52 6.03 5.5 0-24.62 8.39-19.22.62-2.64 3.1 1.87 3.1 1.87s2.56 6.59 1.38 15.36" fill="#784b51"/></g><g transform="matrix(.35278 0 0 -.35278 -79.4 231.04)"><rect rx="10.24" transform="scale(1 -1)" y="-505.1" x="545.29" height="67.79" width="67.79" fill="#eaf"/><path d="M594.47 467.29c-1 12.87-8.27 16.6-8.27 16.6s-20.57 1.57-27.81-15.78c0 0-5.1.16-3.51-6.29 1.02-4.17 4.08-4.79 5.68-3.37-.18-4.79 3.83-16.68 15.57-16.85 11.75.17 15.76 12.06 15.58 16.85 1.6-1.42 5.58.4 5.62 4.68.06 5.2-2.86 4.16-2.86 4.16" fill="#ffae8d"/><path d="M586.38 472.88s-5.41-15.52-18.85-13.26c-.8.4 0 1.89 0 1.89s-6.34-7.96-8.7 5.15c.18 3.74 3.37-5.84 6.17-2.25 2.8 3.6 5.96 5.32 5.96 5.32l4.75-3.73 5.92 8.52s5.33 6.8 5.2-1.73" fill="#ed8b6f"/><path d="M602.93 485.14c-.82-7.73-4.16-7.72-6.27-6.87l-.18 1.13c2.17-.46 4.64.69 6.45 5.74zm-17.68 12.65a6.46 6.46 0 01-1.04-3.94c-.77.22-1.57.4-2.38.55-.24 1.06.02 2.68 3.42 3.4m3.75 2.6l-.57-.23c-1.5.35-3.77.44-6.66-.77-4.37-1.83-4-3-2.31-4.71-4.67.33-9.69-.66-14.2-3.18-12.19-6.81-9.31-21.91-9-23.98.64.5 2.13.58 2.13.58 2.04-6.82 2.75-7.79 4.88-7.3 2.75.62 6.47 4.97 6.47 4.97s-2.52-3.9-1.28-4.6c9.58-2.85 17.92 11.7 17.92 11.7 6.03-15.26 8.1-5.6 8.1-5.6l1.84-.4s1.13 2.53.7 8.27c6.99-1.73 7.12 6.77 6.55 12.13 1.87 8.47-7.84 15.32-14.57 13.12" fill="#17324d"/><g><path d="M586.38 472.88s-5.41-15.52-18.85-13.26c-.8.4 0 1.89 0 1.89s-6.34-7.96-8.7 5.15c.18 3.74 3.37-5.84 6.17-2.25 2.8 3.6 5.96 5.32 5.96 5.32l4.75-3.73 5.92 8.52s5.33 6.8 5.2-1.73" fill="#ed8b6f"/></g><g><path d="M594.47 467.29c-1 12.87-8.27 16.6-8.27 16.6s-20.57 1.57-27.81-15.78c0 0-5.1.16-3.51-6.29 1.02-4.17 4.08-4.79 5.68-3.37-.18-4.79 3.83-16.68 15.57-16.85 11.75.17 15.76 12.06 15.58 16.85 1.6-1.42 5.58.4 5.62 4.68.06 5.2-2.86 4.16-2.86 4.16" fill="#ffae8d"/><path d="M602.93 485.14c-.82-7.73-4.16-7.72-6.27-6.87l-.18 1.13c2.17-.46 4.64.69 6.45 5.74zm-17.68 12.65a6.46 6.46 0 01-1.04-3.94c-.77.22-1.57.4-2.38.55-.24 1.06.02 2.68 3.42 3.4m3.75 2.6l-.57-.23c-1.5.35-3.77.44-6.66-.77-4.37-1.83-4-3-2.31-4.71-4.67.33-9.69-.66-14.2-3.18-12.19-6.81-9.31-21.91-9-23.98.64.5 2.13.58 2.13.58 2.04-6.82 2.75-7.79 4.88-7.3 2.75.62 6.47 4.97 6.47 4.97s-2.52-3.9-1.28-4.6c9.58-2.85 17.92 11.7 17.92 11.7 6.03-15.26 8.1-5.6 8.1-5.6l1.84-.4s1.13 2.53.7 8.27c6.99-1.73 7.12 6.77 6.55 12.13 1.87 8.47-7.84 15.32-14.57 13.12" fill="#17324d"/></g><path d="M558.68 461.5c-.27 0-.53-.16-.51-.5.3-8 1.15-15.92 2.98-23.69h1.08c-1.88 7.75-2.7 15.72-3 23.68-.01.35-.28.52-.55.52zm35.38 0c-.26 0-.55-.17-.58-.5-.86-8.2-3-16.05-5.85-23.69h1.14a97.22 97.22 0 015.77 23.68c.04.35-.21.51-.48.51z" fill="#17324d"/></g><path d="M62.68 90.5H76.8a3.22 3.22 0 013.21 3.22v13.87a3.22 3.22 0 01-3.2 3.2h-3.29l-2.95 4.79a.66.66 0 01-.58.32.66.66 0 01-.57-.32l-2.96-4.78h-3.8a3.22 3.22 0 01-3.2-3.21V93.72a3.22 3.22 0 013.2-3.21" fill="#ffdf5a" fill-rule="evenodd" stroke="#ffd531" stroke-width=".08"/><g style="line-height:1.25;-inkscape-font-specification:'sans-serif Bold'"><path style="-inkscape-font-specification:'Calibri Bold'" d="M74.37 97.83q0 .88-.26 1.6-.25.7-.71 1.22-.45.52-1.1.83-.64.31-1.41.4l-.09 2.1q-.01.2-.31.3-.3.09-.85.09l-.6-.01q-.24-.02-.38-.07-.14-.04-.2-.12-.07-.07-.08-.19l-.1-2.54q-.01-.35.03-.56.04-.22.15-.35.12-.13.3-.17.17-.05.4-.05h.15q.57 0 .98-.19.42-.18.7-.48.26-.3.38-.71.13-.41.13-.88 0-.51-.15-.94-.14-.44-.44-.75t-.75-.47q-.44-.18-1.04-.18-.55 0-.97.11-.42.11-.72.24t-.5.24q-.2.1-.31.1-.08 0-.14-.04-.07-.05-.1-.18-.05-.13-.08-.37t-.03-.6q0-.38.04-.55.03-.17.14-.28.1-.1.4-.25.3-.15.73-.27.42-.13.94-.21.51-.1 1.07-.1 1.28 0 2.18.37.9.34 1.48.93.58.6.85 1.36.27.77.27 1.62zm-3.2 9.23q0 .45-.07.75-.06.3-.25.48-.17.19-.47.26-.3.09-.72.09-.45 0-.75-.09-.29-.07-.47-.26-.17-.18-.25-.48-.06-.3-.06-.75t.06-.75q.08-.31.25-.5.18-.2.47-.27.3-.08.75-.08.43 0 .72.08.3.08.47.27.19.19.25.5.08.3.08.75z" font-family="Calibri" aria-label="?" font-weight="700" font-size="40" letter-spacing="0" word-spacing="0" fill="#fff" stroke-width="1.53"/></g><path d="M88.37 104.66h8.4c1.05 0 1.9.86 1.9 1.9v8.25c0 1.05-.85 1.9-1.9 1.9h-1.95l-1.76 2.85a.4.4 0 01-.34.19.4.4 0 01-.34-.2l-1.76-2.83h-2.25c-1.05 0-1.9-.86-1.9-1.91v-8.24c0-1.05.85-1.9 1.9-1.9" fill="#ffdf5a" fill-rule="evenodd"/><g style="line-height:1.25;-inkscape-font-specification:'sans-serif Bold'"><path d="M95.32 109.01q0 .52-.16.95-.14.42-.42.73-.27.3-.65.49t-.84.24l-.05 1.25q0 .11-.19.17-.17.06-.5.06l-.36-.01q-.14-.01-.23-.04-.08-.02-.12-.07-.04-.04-.04-.11l-.06-1.52q0-.2.02-.33t.09-.2q.07-.08.17-.1.1-.04.24-.04h.1q.33 0 .58-.1.25-.12.4-.3.17-.17.24-.42.07-.24.07-.52 0-.3-.09-.56-.08-.26-.26-.44-.17-.19-.44-.28-.26-.1-.62-.1-.33 0-.58.06-.25.06-.43.14l-.3.14q-.11.06-.18.06l-.08-.02q-.04-.03-.06-.11-.03-.08-.05-.22l-.01-.36q0-.22.02-.32t.08-.17q.06-.06.24-.15t.43-.16q.25-.07.56-.12.3-.06.64-.06.76 0 1.3.22.53.2.87.55.35.35.5.8.17.46.17.97zm-1.9 5.49q0 .26-.04.44t-.15.29q-.1.1-.28.15-.18.05-.43.05-.27 0-.44-.05-.18-.04-.29-.15-.1-.11-.14-.3-.04-.17-.04-.43 0-.27.04-.45.04-.19.14-.3.11-.11.29-.16.17-.05.44-.05.25 0 .43.05t.28.16q.1.11.15.3.04.18.04.45z" style="-inkscape-font-specification:'Calibri Bold'" font-family="Calibri" aria-label="?" font-weight="700" font-size="40" letter-spacing="0" word-spacing="0" fill="#fff"/></g><path d="M75.32 120.17h6.26c.78 0 1.42.64 1.42 1.43v6.14c0 .78-.64 1.42-1.42 1.42h-1.45l-1.32 2.12a.3.3 0 01-.25.14.3.3 0 01-.25-.14L77 129.16h-1.68c-.79 0-1.43-.64-1.43-1.42v-6.14c0-.79.64-1.43 1.43-1.43" fill="#ffdf5a" fill-rule="evenodd"/><g style="line-height:1.25;-inkscape-font-specification:'sans-serif Bold'"><path style="-inkscape-font-specification:'Calibri Bold'" d="M80.5 123.42q0 .39-.12.7-.11.32-.32.55-.2.23-.48.36-.28.14-.63.18l-.04.93q0 .09-.13.13-.13.04-.38.04h-.27l-.17-.03q-.06-.02-.09-.05-.03-.03-.03-.09l-.04-1.12.01-.25q.02-.1.07-.16.05-.05.13-.07.07-.03.18-.03h.07q.25 0 .43-.08.19-.08.3-.21.12-.14.18-.32.05-.18.05-.38 0-.23-.06-.42-.06-.2-.2-.33-.13-.14-.33-.21-.2-.08-.46-.08-.24 0-.43.05l-.32.1-.22.1q-.1.06-.14.06l-.06-.02-.05-.08-.03-.17-.01-.26.01-.25q.02-.07.06-.12.05-.05.19-.11.13-.07.32-.12.18-.06.41-.1.23-.03.48-.03.56 0 .96.15.4.16.66.42t.37.6q.12.34.12.72zm-1.42 4.09q0 .2-.03.33t-.11.21q-.08.08-.21.12-.13.04-.32.04-.2 0-.33-.04t-.21-.12q-.08-.08-.11-.21-.03-.14-.03-.33 0-.2.03-.34.03-.13.1-.22.09-.08.22-.11.13-.04.33-.04.19 0 .32.04.13.03.2.11.09.09.12.22.03.14.03.34z" font-family="Calibri" aria-label="?" font-weight="700" font-size="40" letter-spacing="0" word-spacing="0" fill="#fff"/></g><path d="M157.59 157.65h2c.48 0 .87-.4.87-.87v-2c0-.48-.4-.87-.87-.87h-2c-.48 0-.88.39-.88.87v2c0 .48.4.87.88.87M164.52 157.65h2c.48 0 .87-.4.87-.87v-2c0-.48-.4-.87-.87-.87h-2c-.48 0-.88.39-.88.87v2c0 .48.4.87.88.87M164.77 150.1h2c.48 0 .87-.4.87-.88v-2c0-.48-.4-.87-.87-.87h-2c-.48 0-.87.4-.87.87v2c0 .48.39.88.87.88" fill-rule="evenodd" fill="#fff"/><path d="M51.33 150.55a49 49 0 01-5.04-.64 49 49 0 013.07-4.05c.1.01 2.03 4.6 1.97 4.69z" fill="#fff"/><path d="M58.42 143.43a49 49 0 01-5.04-.64 49 49 0 013.07-4.05c.1.01 2.03 4.6 1.97 4.69z" fill="#b8b8b8"/><path d="M56.77 134.98a49 49 0 01-5.04-.64 49 49 0 013.07-4.05c.1 0 2.03 4.6 1.97 4.69z" fill="#fff"/><path d="M65.36 149.25a49 49 0 01-5.05-.64 49 49 0 013.08-4.05c.1.02 2.03 4.61 1.97 4.7z" fill="#b8b8b8"/><path d="M86.23 186.9a49 49 0 01-5.05-.63 49 49 0 013.08-4.05c.1.01 2.03 4.6 1.97 4.69zM78.26 200.4a49 49 0 01-5.04-.64 49 49 0 013.07-4.05c.1.01 2.03 4.61 1.97 4.7z" fill="#fff"/><circle cx="71.31" cy="151.6" r="1.68" fill="#fff"/><circle r="1.68" cy="197.87" cx="82.49" fill="#b8b8b8"/><circle r="1.68" cy="97.6" cx="148.01" fill="#fff"/><circle cx="89.45" cy="192.7" r="1.68" fill="#b8b8b8"/><circle r="1.68" cy="156.29" cx="55.3" fill="#b8b8b8"/><circle cx="131.89" cy="80.07" r="1.68" fill="#fff"/><circle cx="159.45" cy="103.65" r="1.68" fill="#b8b8b8"/><path d="M139.61 87.4c-.06.09-5-.54-5.04-.63-.04-.1 2.97-4.07 3.08-4.05.1 0 2.03 4.6 1.96 4.69z" fill="#fff"/></g></svg>