<svg xmlns="http://www.w3.org/2000/svg" viewBox="0 0 284.91 9.66"><path d="M284.91 0c-.97.22-1.88.42-2.88.66l-8.39 1.98a432 432 0 01-8.87 1.98c-4.65.98-9.34 1.83-14.04 2.55-5 .7-10.04 1.25-15.08 1.63-3.13.23-6 .36-8.7.42-6.91.16-13.83-.22-20.68-1.12-2.1-.25-4.2-.54-6.37-.83a347.55 347.55 0 00-14.26-1.75c-2.68-.27-5.38-.4-8.08-.4-2.72-.01-5.43.07-8.14.26-2.72.17-5.44.4-8.15.67s-5.41.57-8.09.85c-2.67.29-5.32.56-7.94.79-2.62.22-5.2.4-7.73.48-2.49.08-4.98.06-7.46-.06a60.48 60.48 0 01-7.12-.83c-2.15-.4-4.42-.83-6.8-1.24a327.3 327.3 0 00-7.41-1.22 213.96 213.96 0 00-16.22-1.9c-4.3-.33-8.62-.49-12.93-.48-2.93.02-5.85.14-8.77.35-2.93.22-5.85.56-8.75 1.02-1.45.23-2.9.5-4.33.8-2.87.6-5.55 1.11-8.09 1.55-6.84 1.19-13.74.82-20.67 1.26C15.18 8.13 7.33 4.49 0 4.75v9.64h284.91z"/></svg>